<svg width="20" height="20" viewBox="0 0 20 20" fill="none" xmlns="http://www.w3.org/2000/svg" preserveAspectRatio="none"><path d="M8.02 11.197v1.949h3.422c.234 0 .43.078.586.235a.72.72 0 01.234.563c0 .25-.078.454-.234.61a.842.842 0 01-.586.212H8.02v2.347c0 .391-.11.696-.328.916-.22.203-.508.305-.868.305-.343 0-.624-.102-.843-.305-.219-.22-.328-.525-.328-.916v-2.347H4.178a.875.875 0 01-.61-.235.797.797 0 01-.234-.587.72.72 0 01.234-.563.875.875 0 01.61-.235h1.476v-1.949H4.178a.931.931 0 01-.61-.21.797.797 0 01-.234-.588c0-.234.078-.422.234-.563a.875.875 0 01.61-.235h1.476v-6.76c0-.36.101-.642.304-.845.22-.22.516-.329.89-.329h4.29c1.749 0 3.108.43 4.076 1.291.969.845 1.453 1.995 1.453 3.45 0 1.487-.492 2.661-1.476 3.522-.969.845-2.32 1.268-4.054 1.268H8.021zm-.023-1.596h2.695c2.453 0 3.679-.993 3.679-2.981 0-1.048-.297-1.823-.89-2.324-.594-.5-1.485-.751-2.672-.751H7.997V9.6z" fill="#26345A"/></svg>