<svg width="20" height="20" viewBox="0 0 20 20" fill="none" xmlns="http://www.w3.org/2000/svg">
<path fill-rule="evenodd" clip-rule="evenodd" d="M5.83398 8.33333V6.66667C5.83398 4.36548 7.69946 2.5 10.0007 2.5C12.3018 2.5 14.1673 4.36548 14.1673 6.66667V8.33333H15.0006C15.9211 8.33333 16.6673 9.07953 16.6673 10V15C16.6673 15.9205 15.9211 16.6667 15.0006 16.6667H5.00065C4.08018 16.6667 3.33398 15.9205 3.33398 15V10C3.33398 9.07953 4.08018 8.33333 5.00065 8.33333H5.83398ZM10.0007 4.16667C8.61994 4.16667 7.50065 5.28595 7.50065 6.66667V8.33333H12.5007V6.66667C12.5007 5.28595 11.3814 4.16667 10.0007 4.16667Z" fill="#26345A"/>
</svg>
