<svg width="40" height="40" viewBox="0 0 40 40" fill="none" xmlns="http://www.w3.org/2000/svg">
<path d="M31.666 18.334H8.33268C7.41221 18.334 6.66602 18.9852 6.66602 19.7885C6.66602 20.5919 7.41221 21.2431 8.33268 21.2431H31.666C32.5865 21.2431 33.3327 20.5919 33.3327 19.7885C33.3327 18.9852 32.5865 18.334 31.666 18.334Z" fill="#8F9BB3"/>
<path d="M21.666 31.667L21.666 8.33366C21.666 7.41318 21.0148 6.66699 20.2115 6.66699C19.4081 6.66699 18.7569 7.41318 18.7569 8.33366L18.7569 31.667C18.7569 32.5875 19.4081 33.3337 20.2115 33.3337C21.0148 33.3337 21.666 32.5875 21.666 31.667Z" fill="#8F9BB3"/>
</svg>
