<svg width="20" height="20" viewBox="0 0 20 20" fill="none" xmlns="http://www.w3.org/2000/svg">
<path d="M8.02057 11.1975V13.1459H11.4418C11.6761 13.1459 11.8714 13.2241 12.0276 13.3806C12.1838 13.5215 12.2619 13.7092 12.2619 13.944C12.2619 14.1944 12.1838 14.3978 12.0276 14.5543C11.8714 14.6952 11.6761 14.7656 11.4418 14.7656H8.02057V17.113C8.02057 17.5042 7.91122 17.8094 7.69251 18.0285C7.4738 18.2319 7.18479 18.3337 6.82549 18.3337C6.48181 18.3337 6.20061 18.2319 5.9819 18.0285C5.7632 17.8094 5.65384 17.5042 5.65384 17.113V14.7656H4.17757C3.94324 14.7656 3.74016 14.6873 3.56831 14.5308C3.41209 14.3743 3.33398 14.1787 3.33398 13.944C3.33398 13.7092 3.41209 13.5215 3.56831 13.3806C3.74016 13.2241 3.94324 13.1459 4.17757 13.1459H5.65384V11.1975H4.17757C3.94324 11.1975 3.74016 11.1271 3.56831 10.9862C3.41209 10.8297 3.33398 10.6341 3.33398 10.3994C3.33398 10.1646 3.41209 9.97685 3.56831 9.83601C3.74016 9.67951 3.94324 9.60126 4.17757 9.60126H5.65384V2.8407C5.65384 2.48076 5.75539 2.19907 5.95847 1.99563C6.17718 1.77654 6.474 1.66699 6.84892 1.66699H11.1371C12.8868 1.66699 14.2459 2.09735 15.2145 2.95807C16.183 3.80314 16.6673 4.95338 16.6673 6.40878C16.6673 7.89547 16.1752 9.06918 15.191 9.9299C14.2225 10.775 12.8712 11.1975 11.1371 11.1975H8.02057ZM7.99714 9.60126H10.6919C13.1446 9.60126 14.3709 8.60752 14.3709 6.62004C14.3709 5.57153 14.0741 4.79688 13.4804 4.2961C12.8868 3.79532 11.9964 3.54493 10.8091 3.54493H7.99714V9.60126Z" fill="#26345A"/>
</svg>
