<svg width="20" height="20" viewBox="0 0 20 20" fill="none" xmlns="http://www.w3.org/2000/svg">
<path d="M11.9101 13.9226C11.5847 13.5972 11.5847 13.0695 11.9101 12.7441C12.2355 12.4186 12.7632 12.4186 13.0886 12.7441L16.4219 16.0774C16.7474 16.4028 16.7474 16.9305 16.4219 17.2559C16.0965 17.5814 15.5689 17.5814 15.2434 17.2559L11.9101 13.9226Z" fill="#26345A"/>
<path d="M9.16732 13.333C11.4685 13.333 13.334 11.4675 13.334 9.16634C13.334 6.86515 11.4685 4.99967 9.16732 4.99967C6.86613 4.99967 5.00065 6.86515 5.00065 9.16634C5.00065 11.4675 6.86613 13.333 9.16732 13.333ZM9.16732 14.9997C5.94566 14.9997 3.33398 12.388 3.33398 9.16634C3.33398 5.94468 5.94566 3.33301 9.16732 3.33301C12.389 3.33301 15.0007 5.94468 15.0007 9.16634C15.0007 12.388 12.389 14.9997 9.16732 14.9997Z" fill="#26345A"/>
</svg>
