<svg width="1440" height="500" viewBox="0 0 1440 500" fill="none" xmlns="http://www.w3.org/2000/svg">
<mask id="mask0" mask-type="alpha" maskUnits="userSpaceOnUse" x="0" y="0" width="1440" height="500">
<rect y="0.998047" width="1440" height="499.002" fill="#FBF4F2"/>
</mask>
<g mask="url(#mask0)">
<g clip-path="url(#clip0)">
<path d="M1204.22 557.414C1333.02 557.414 1437.43 452.999 1437.43 324.197C1437.43 195.395 1333.02 90.9805 1204.22 90.9805C1075.41 90.9805 971 195.395 971 324.197C971 452.999 1075.41 557.414 1204.22 557.414Z" fill="white" fill-opacity="0.5"/>
<path d="M728.902 12.015C786.928 12.015 833.967 -35.024 833.967 -93.0496C833.967 -151.075 786.928 -198.114 728.902 -198.114C670.877 -198.114 623.838 -151.075 623.838 -93.0496C623.838 -35.024 670.877 12.015 728.902 12.015Z" fill="white"/>
<path d="M761.049 197.099C889.759 197.099 994.099 92.759 994.099 -35.9506C994.099 -164.66 889.759 -269 761.049 -269C632.34 -269 528 -164.66 528 -35.9506C528 92.759 632.34 197.099 761.049 197.099Z" fill="white"/>
<path fill-rule="evenodd" clip-rule="evenodd" d="M784.923 272.124C784.028 286.754 783.131 301.383 782.236 316.013C787.996 314.355 824.639 303.577 822.376 314.505C820.752 322.343 810.45 330.821 805.201 336.278C800.37 341.302 795.396 346.195 790.295 350.945C799.671 347.358 809.124 343.96 818.646 340.782C825.85 338.377 833.108 336.029 840.49 334.227C843.23 333.557 850.63 330.825 853.219 332.688C860.021 337.582 823.111 373.629 818.055 378.71C825.204 375.387 832.525 372.368 839.971 369.777C845.346 367.906 861.954 360.758 866.711 366.862C871.802 373.393 859.188 388.391 855.69 393.147C850.678 399.96 845.246 406.496 839.546 412.747C863.235 434.016 891.071 452.947 920.697 464.714C942.419 473.341 963.756 475.537 986.677 470.803C1010.22 465.938 1032.81 456.609 1054.27 445.944C1066.88 439.679 1079.32 432.901 1091.18 425.286C1086.29 419.344 1081.55 413.28 1076.94 407.121C1070.36 398.329 1062.27 388.722 1058.52 378.255C1054.85 368.012 1068.62 370.012 1075.23 370.568C1084.8 371.373 1094.34 373.083 1103.71 375.128C1097.08 370.519 1090.57 365.726 1084.2 360.776C1075.88 354.327 1064.8 347.034 1059.35 337.755C1054.57 329.595 1065.07 331.656 1069.93 332.725C1081.5 335.275 1092.77 339.619 1103.81 343.856C1111.9 346.96 1119.93 350.209 1127.89 353.632C1122.95 349.339 1118.18 344.841 1113.59 340.177C1107.42 333.908 1099.1 326.252 1096.34 317.619C1090.71 300.038 1128.59 313.3 1135.05 316.013C1133.86 297.801 1132.67 279.589 1131.47 261.377C1081.31 274.719 1031.15 288.062 980.995 301.406C975.575 302.848 968.791 305.988 963.137 306.156C958.017 306.309 951.832 304.004 946.839 303.051L856.071 285.714C832.355 281.184 808.639 276.654 784.923 272.124Z" fill="#85A090"/>
<path fill-rule="evenodd" clip-rule="evenodd" d="M1324.02 898.535C1318.61 901.632 1312.26 904.024 1306.25 905.628C1302.72 906.572 1296.88 909.483 1293.77 906.815C1292.28 905.533 1291.94 902.624 1291.06 900.937C1289.67 898.267 1287.69 895.961 1285.84 893.601C1281.35 887.883 1276.68 882.367 1271.79 876.986C1269.47 874.436 1265.24 868.485 1261.15 868.877C1256.06 869.364 1256.19 876.406 1257.46 880.004C1261.52 891.458 1273.81 901.442 1281.84 910.071C1279.8 913.212 1268.59 912.838 1265.48 912.103C1260.72 910.981 1260.24 907.598 1258.07 903.727C1253 894.682 1242.71 889.622 1234.24 884.305C1231.16 882.364 1224.6 876.99 1220.58 878.343C1216.77 879.625 1216.94 884.49 1218.15 887.667C1219.98 892.469 1225.2 895.799 1229.05 898.834C1234.2 902.879 1238.9 907.282 1243.18 912.234C1237.01 912.737 1230.85 913.607 1224.69 914.115C1217.24 914.729 1211.03 910.642 1204.17 908.326C1197.8 906.173 1191.45 904.353 1185.18 901.872C1178.14 899.086 1170.77 898.117 1163.67 895.673C1135.82 886.082 1108.53 874.02 1081.68 861.861C1068.89 856.067 1056.36 850.269 1043.04 845.735C1033.32 842.43 1018.06 835.843 1015.74 824.277C1014.51 818.166 1018.98 811.595 1019.64 805.49C1020.41 798.307 1019.8 790.404 1017.61 783.512C1015.68 777.441 1012.49 771.819 1009.97 765.99C1007.03 759.196 1009.66 759.307 1015.36 758.534C1022.19 757.609 1030.15 753.768 1036.57 751.267C1043.96 748.384 1051.28 744.356 1058.05 740.215C1064.17 736.469 1069.5 731.641 1074.37 726.397C1079.33 721.063 1082.54 714.742 1087.34 709.277C1105.03 731.026 1121.84 753.106 1140.64 773.915C1149.51 783.738 1159.16 791.859 1170.09 799.327C1174.66 802.448 1179.19 806.009 1184.16 808.475C1190.38 811.561 1197.33 813.475 1203.73 816.292C1228.24 827.088 1251.63 838.891 1274.5 852.822C1285.56 859.56 1294.85 867.287 1304.59 875.74C1307.62 878.372 1332.46 893.709 1324.02 898.535ZM1036.48 720.359C1032.52 722.153 1028.74 724.483 1024.52 725.634C1025.72 718.347 1032.52 707.355 1041.24 708.564C1044.57 709.025 1047.09 711.612 1045.62 715.179C1044.29 718.419 1039.3 719.082 1036.48 720.359ZM760.758 522.705C756.267 525.184 752.083 526.627 749.45 521.307C751.4 520.916 760.26 519.736 760.758 522.705ZM753.281 507.665C749.811 506.613 752.586 505.507 753.78 504.238C754.711 503.25 757.791 499.784 758.869 499.212C763.629 496.691 767.308 506.07 769.584 509.114C764.195 508.636 758.527 509.256 753.281 507.665ZM790.387 540.142C783.809 541.256 784.539 533.028 784.736 528.861C786.123 530.554 795.516 539.273 790.387 540.142ZM812.185 525.931C804.166 527.284 798.867 513.434 800.305 507.375C801.57 502.038 807.785 499.059 812.732 498.272C817.528 497.508 824.204 498.55 825.629 504.078C826.887 508.964 817.53 525.029 812.185 525.931ZM1002.01 735.016C996.25 736.787 990.603 737.009 984.811 738.747C978.239 740.72 972.157 740.544 965.572 741.886C962.893 742.431 955.666 746.333 953.052 745.462C950.464 744.598 946.717 736.568 945.23 734.479C956.881 729.638 966.82 723.387 974.499 713.186C980.606 705.074 987.154 692.921 983.313 682.451C978.98 670.647 964.045 668.084 954.087 673.015C949.375 675.346 944.706 678.245 940.823 681.798C936.381 685.86 934.635 690.296 931.758 695.306C928.849 700.374 926.807 697.555 923.9 693.251C921.416 689.573 921.74 685.859 918.635 682.229C917.051 680.378 914.599 678.592 913.772 676.2C913.248 674.684 914.352 671.995 913.358 670.801C911.96 669.124 910.26 671.095 909.089 669.597C908.239 668.509 908.517 666.029 907.638 664.669C906.876 663.895 906.029 663.234 905.092 662.686C903.954 662.124 903.747 661.422 904.468 660.578C903.564 658.905 904.435 658.34 902.499 656.305C899.481 653.132 896.73 650.092 894.582 646.348C893.6 644.634 893.697 642.092 892.477 640.609C890.803 638.572 888.015 638.877 886.576 636.357C885.293 634.11 886.151 630.181 884.037 628.141C882.923 627.823 881.808 627.511 880.691 627.203C879.852 626.388 879.363 625.399 879.223 624.235C878.049 622.427 877.816 620.304 876.333 618.395C873.496 614.745 869.679 611.371 867.173 607.521C864.538 603.474 865.935 602.793 870.512 601.345C874.64 600.037 878.409 598.824 882.235 596.599C899.923 586.308 916.693 559.012 888.617 550.673C878.198 547.579 869.638 539.257 858.086 542.528C853.078 543.947 848.327 546.966 844.591 550.548C842.01 553.025 839.619 559.649 836.45 560.919C830.751 563.2 833.16 557.5 831.543 554.882C830.771 553.632 827.662 552.192 826.51 551.054C825.158 549.721 823.851 548.038 822.913 546.388C821.17 543.327 820.104 541.621 817.591 539.128C816.643 538.186 811.914 533.324 816.18 533.959C814.452 528.696 816.973 527.905 820.457 524.059C824.549 519.543 828.774 513.269 828.798 506.942C828.846 494.794 814.445 489.351 805.402 496.562C803.562 498.029 792.678 512.193 794.905 503.16C796.106 498.289 807.223 485.571 812.378 488.862C806.601 480.446 793.333 500.879 790.236 505.06C787.599 500.207 787.412 496.41 783.049 492.652C779.497 498.348 781.372 492.124 780.59 490.858C778.897 488.126 779.827 491.251 778.909 490.28C777.767 489.071 775.968 488.118 774.753 486.518C772.671 489.342 773.502 486.303 772.864 485.248C771.372 482.781 771.95 481.352 769.393 479.207C767.532 477.647 763.867 475.225 761.363 475.004C758.476 474.748 757.676 475.854 754.734 475.035C750.992 473.995 746.282 472.397 748.094 478.654C749.409 483.202 754.757 485.786 755.928 490.432C757.108 495.109 752.482 499.822 750.238 503.656C747.356 508.575 744.999 508.173 739.778 509.282C736.441 509.991 731.988 511.507 734.849 515.554C736.893 518.445 741.682 517.836 744.38 519.549C748.162 521.95 748.11 527.869 752.938 528.899C758.256 530.033 761.303 524.114 765.786 522.685C768.974 521.669 778.85 521.782 781.359 524.175C784.779 527.436 781.824 533.665 782.685 537.716C783.965 543.722 788.03 544.089 793.171 544.281C799.501 544.517 801.725 550.593 805.129 555.412C813.102 566.699 820.032 578.731 828.198 589.868C831.813 594.799 837.102 599.186 840.062 604.537C843.718 611.146 838.643 614.958 834.263 619.702C828.541 625.901 824.269 632.955 819.306 639.73C814.895 645.752 809.414 644.253 802.366 644.253C803.937 641.016 805.827 638.997 809.69 639.39C805.65 634.458 802.419 640.1 799.797 643.224C796.006 647.744 791.063 648.834 786.192 651.806C784.468 652.857 775.082 659.672 777.934 661.999C778.258 662.263 793.794 652.046 795.564 651.109C795.564 654.881 794.739 658.799 795.268 662.55C795.655 665.3 797.59 668.169 797.177 671.029C796.396 676.427 789.418 680.679 786.422 684.885C784.168 688.05 784.712 690.547 783.564 693.945C782.518 697.045 783.067 696.107 780.459 697.064C775.148 699.014 766.21 697.962 761.402 695.19C758.417 693.469 756.127 690.749 753.703 688.352C751.876 686.544 747.282 683.458 746.775 680.929C745.904 676.576 754.55 668.486 756.262 663.995C761.094 651.321 752.806 641.469 739.91 640.75C743.885 637.684 748.812 639.994 753.002 641.164C745.839 631.242 733.607 639.406 727.531 646.149C723.38 635.659 721.378 624.593 718.843 613.653C717.115 606.205 710.54 592.91 713.472 585.24C714.89 581.533 718.893 579.466 721.662 576.895C724.807 573.973 727.501 570.48 729.801 566.864C735.22 558.345 738.348 547.592 730.888 539.198C733.155 538.824 735.423 538.453 737.689 538.079C734.002 534.616 728.185 536.303 723.4 535.276C720.363 534.625 711.627 535.047 709.601 533.329C707.162 531.264 708.725 521.761 708.812 518.949C709.013 512.376 709.562 506.057 710.288 499.524C710.976 493.352 710.838 486.685 712.114 480.622C713.15 475.701 716.459 474.202 720.278 471.303C729.405 464.369 736.843 455.936 733.727 443.988C734.831 443.813 735.935 443.638 737.04 443.462C733.468 440.881 728.847 441.82 724.874 440.455C728.522 430.191 736.59 412.148 749.69 411.176C750.14 415.764 749.832 421.222 752.929 425.02C756.454 429.343 762.643 429.78 767.419 427.492C771.752 425.414 775.82 421.012 777.818 416.662C779.169 413.718 778.925 408.74 781.297 406.406C784.479 403.276 806.41 405.164 805.738 410.447C805.343 413.553 799.478 418.775 797.839 421.527C794.84 426.565 792.438 432.014 791.337 437.801C789.664 446.587 790.633 458.187 799.559 462.807C809.71 468.062 822.082 461.38 830.407 455.608C834.979 452.438 839.407 448.941 843.583 445.267C845.808 443.313 848.043 441.299 850.004 439.076C851.451 437.434 852.608 434.788 854.39 433.56C858.599 430.656 862.725 435.582 866.287 438.07C872.09 442.123 877.863 445.971 884.091 449.344C896.73 456.188 908.286 465.254 919.46 474.255C930.7 483.31 942.289 492.625 951.394 503.905C945.879 507.296 946.864 508.177 944.41 514.226C942.669 518.519 940.27 522.172 939.994 526.943C939.515 535.174 944.801 542.189 952.824 544.011C957.312 545.03 961.587 544.214 965.743 542.38C968.973 540.955 972.194 537.447 975.569 536.575C981.844 534.957 986.865 546.806 990.382 550.98C1006 569.518 1022.51 587.322 1037.22 606.616C1038.85 608.753 1043.69 612.928 1044.08 615.757C1044.65 619.821 1038.25 623.692 1035.6 626.021C1034.21 627.243 1019.44 641.131 1024.4 643.338C1025.81 643.967 1029.95 635.447 1030.99 634.718C1034.86 631.99 1031.93 637.337 1031.7 640.04C1031.12 646.759 1035.74 650.42 1042.23 649.569C1049.15 648.66 1055.32 643.195 1059.6 638.034C1064.97 644.251 1073.37 653.651 1074.92 661.957C1075.91 667.264 1071.32 680.25 1079.89 681.333C1081.2 681.497 1085.94 677.985 1086.82 679.979C1087.56 681.644 1082.44 684.489 1081.7 685.04C1078.55 687.395 1076.64 689.917 1074.09 692.769C1071.1 696.116 1067.02 698.937 1063.65 702.144C1060.11 705.524 1053.09 714.701 1048.42 710.267C1046.07 708.039 1046.68 705.125 1042.92 703.818C1039.49 702.627 1035.15 704.137 1031.96 705.458C1028.37 706.944 1016.56 712.369 1015.25 716.836C1013.44 722.996 1023.2 715.59 1024.94 714.507C1022.96 719.532 1021.87 726.806 1016.82 729.737C1012.63 732.172 1006.61 733.604 1002.01 735.016ZM935.042 697.014C938.395 686.241 958.168 667.033 970.665 673.041C956.1 676.092 944.543 686.057 935.042 697.014ZM942.437 727.865C937.564 725.15 937.826 717.263 936.124 712.65C935.148 710.002 933.195 708.068 933.769 705.131C934.441 701.687 938.835 697.858 941.174 695.374C948.536 687.556 961.491 676.872 973.339 678.664C988.421 680.946 978.197 701.187 973.061 708.156C968.685 714.099 951.819 733.092 942.437 727.865ZM907.254 714.689C890.944 713.6 874.69 712.143 858.603 709.151C852.899 708.089 848.121 708.246 851.384 701.691C852.462 699.527 858.959 685.967 860.425 686.356C861.295 686.587 861.096 695.907 861.352 696.975C862.504 701.773 865.738 706.243 871.19 705.939C880.11 705.442 885.86 693.912 890.557 687.723C894.319 692.781 897.043 698.399 900.826 703.372C902.634 705.749 908.928 711.279 907.254 714.689ZM811.634 650.689C808.898 656.966 803.395 662.936 799.568 668.623C797.404 664.044 795.882 653.532 801.015 650.146C802.958 648.866 813.365 646.721 811.634 650.689ZM868.201 669.381C868.953 666.964 869.787 664.567 870.718 662.214C872.314 667.235 873.13 667.383 868.201 669.381ZM882.162 674.523C884.142 677.877 887.441 681.176 886.924 685.388C886.531 688.58 883.645 691.851 881.584 694.076C878.173 697.755 870.616 704.818 865.674 699.932C861.546 695.85 862.983 684.628 864.903 680.035C867.646 673.473 877.443 666.532 882.162 674.523ZM872.476 667.648C873.611 667.198 871.227 659.876 873.439 659.147C875.369 663.546 877.187 664.736 872.476 667.648ZM841.311 569.118C840.576 566.417 838.89 566.53 839.498 563.191C839.896 561.001 841.634 558.663 842.953 556.928C845.581 553.47 849.048 550.619 852.798 548.461C860.713 543.907 871.582 542.015 878.668 549.145C872.044 550.191 851.734 556.728 851.605 565.787C858.972 564.368 864.765 556.97 872.154 554.639C878.219 552.725 884.797 552.859 890.83 554.88C907.345 560.41 900.478 574.68 891.156 583.948C885.623 589.451 878.987 593.56 871.734 596.394C868.377 597.706 866.318 597.851 863.018 597.192C862.4 597.068 861.677 595.922 860.937 595.677C859.096 595.067 859.629 597.133 858.113 596.205C856.789 595.396 853.967 590.175 853.066 588.68C851.634 586.302 850.966 583.988 849.208 581.816C847.447 579.643 846.59 576.731 844.962 574.765C844.18 573.819 842.037 573.857 841.461 572.934C840.598 571.547 841.697 570.537 841.311 569.118ZM815.948 675.538C819.701 669.018 826.123 663.484 831.091 657.785C831.397 667.151 824.678 673.564 815.948 675.538ZM821.02 678.549C828.772 675.823 833.043 669.299 833.834 661.39C834.837 651.371 841.129 646.113 844.918 637.112C846.37 633.663 848.064 622.312 853.695 625.561C855.627 626.675 856.772 630.867 857.779 632.76C860.215 637.34 862.983 641.781 865.566 646.278C867.67 649.94 870.822 653.622 869.894 658.03C869.085 661.874 866.481 665.969 864.956 669.593C861.356 678.154 856.626 686.038 852.674 694.41C851.079 697.788 849.192 705.785 844.324 705.744C840.47 705.711 840.901 701.5 838.364 700.056C835.162 698.234 831.521 701.701 828.89 703.138C831.919 698.026 837.215 695.13 843.168 696.093C836.04 688.997 831.224 698.571 825.107 700.703C819.311 702.725 809.028 693.195 804.148 690.495C806.015 687.334 807.702 683.469 810.912 681.389C813.958 679.416 817.695 679.719 821.02 678.549ZM757.998 743.396C758.846 739.31 761.245 736.895 762.766 733.185C764.529 737.683 760.4 740.337 757.998 743.396ZM881.157 768.468C880.74 782.227 879.616 795.949 879.21 809.713C879.023 816.06 877.899 822.114 877.153 828.387C876.522 833.693 876.843 838.903 873.502 843.436C868.235 850.582 857.995 852.636 850.045 855.283C844.206 857.227 838.301 858.991 832.536 861.151C827.348 863.094 823.167 866.038 818.234 868.348C813.822 870.415 809.058 871.64 804.665 873.842C800.123 876.12 796.532 878.895 791.865 880.923C786.279 883.35 781.675 887.67 776.707 891.098C772.333 894.116 767.706 896.447 763.944 900.241C760.416 903.802 755.95 905.363 751.951 908.526C747.723 911.871 743.298 914.045 738.628 916.668C729.06 922.043 716.152 931.222 704.637 926.001C707.931 921.796 714.67 917.755 715.183 911.962C715.85 904.415 709.279 907.193 705.474 909.603C699.711 913.253 696.523 917.659 692.136 922.524C687.007 928.211 680.529 924.385 674.253 922.785C678.544 918.924 682.801 915.026 687.084 911.158C690.7 907.893 696.232 904.363 698.434 899.848C700.008 896.619 699.931 892.195 696.133 890.519C691.885 888.645 687.08 892.597 683.933 894.95C675.579 901.198 670.077 909.122 664.592 917.817C661.674 922.441 660.33 922.086 654.962 921.162C649.274 920.183 643.585 919.138 637.85 918.452C645.447 910.652 653.938 902.202 659.938 893.075C661.882 890.118 664.418 882.325 658.495 881.607C656.055 881.312 651.196 886.301 649.312 887.646C641.085 893.525 633.175 900.94 627.722 909.523C625.922 912.356 625.356 915.507 621.871 915.742C617.314 916.051 608.845 911.702 604.449 910.359C612.851 899.77 621.195 889.105 631.011 879.768C640.031 871.188 649.028 864.954 659.576 858.374C670.882 851.319 681.413 843.198 691.792 834.865C701.728 826.887 712.107 819.362 721.253 810.455C739.521 792.662 755.793 772.2 769.268 750.563C772.42 745.5 775.388 740.306 777.954 734.918C780.363 729.859 781.474 723.809 784.726 719.208C785.85 717.618 787.433 716.436 788.435 714.778C789.38 713.215 789.059 711.327 790.5 709.944C793.831 706.747 799.897 708.675 803.012 710.916C808.019 714.519 812.071 718.894 817.574 721.911C823.11 724.944 829.099 727.15 835.228 728.641C849.554 732.123 863.757 734.98 878.352 737.096C876.85 742.664 880.539 743.541 881.76 748.551C883.244 754.63 881.342 762.276 881.157 768.468ZM743.21 675.621C739.961 670.797 737.063 665.753 733.87 660.897C731.926 657.939 729.516 654.763 731.178 651.147C733.977 645.049 743.852 643.964 749.21 646.622C761.392 652.666 750.076 669.945 743.21 675.621ZM710.964 565.286C709.843 555.856 713.45 549.166 721.983 544.222C728.065 540.698 732.962 545.514 732.132 551.938C730.868 561.724 720.407 572.61 712.423 577.716C711.901 573.577 711.459 569.428 710.964 565.286ZM709.664 538.306C712.181 536.309 718.922 538.857 721.838 539.031C717.828 542.534 713.816 546.038 709.805 549.541C709.543 547.137 707.342 540.149 709.664 538.306ZM723.198 447.242C743.494 444.604 720.13 466.378 714.249 469.79C715.205 465.157 717.556 447.977 723.198 447.242ZM777.23 409.122C774.505 420.281 753.318 432.456 753.096 414.176C753.015 407.365 756.842 407.916 762.428 407.262C765.615 406.89 778.788 402.742 777.23 409.122ZM704.048 426.404C701.67 432.645 699.763 439.047 697.431 445.295C696.398 448.061 695.183 449.962 693.259 452.155C691.649 453.988 689.732 454.45 689.796 457.347C691.813 456.958 693.392 455.756 695.022 454.597C694.627 460.34 692.596 466.521 691.613 472.245C690.435 479.111 689.454 485.978 689.091 492.94C688.301 508.077 688.295 523.16 688.627 538.306C688.797 546.024 688.873 553.747 689.29 561.456C689.498 565.291 689.732 569.142 690.207 572.954C690.399 574.492 691.517 577.769 690.826 579.211C688.115 584.872 676.107 569.321 670.892 571.604C671.642 567.295 669.912 568.238 667.022 566.119C665.622 565.092 664.712 563.345 663.251 562.43C662.81 561.954 662.324 561.531 661.794 561.159C661.19 560.336 660.554 560.424 659.884 561.421C654.009 557.91 652.491 550.428 649.338 545.394C647.715 542.806 646.148 542.403 645.872 538.824C645.632 535.706 646.101 532.529 645.974 529.397C645.831 525.865 645.624 521.971 644.633 518.551C643.482 514.579 641.9 514.904 638.817 512.788C639.767 512.372 640.393 511.675 640.696 510.695C639.712 510.871 636.72 512.09 635.977 511.213C634.516 509.492 637.964 509.262 638.871 508.575C635.003 506.859 635.836 505.448 637.232 502.302C637.627 501.412 638.004 500.082 638.34 499.332C639.074 497.691 639.496 498.73 639.738 496.693C639.969 494.751 638.246 490.932 637.739 488.863C636.888 485.392 636.417 482.392 637.182 478.776C637.801 475.847 639.467 473.196 639.583 470.185C639.616 469.34 638.327 469.059 638.31 468.243C638.285 467.049 639.398 466.525 639.688 465.422C640.427 462.601 640.094 459.617 641.359 456.94C642.498 454.535 644.798 451.423 646.425 449.324C647.553 447.87 650.321 446.231 650.624 444.311C650.824 443.039 648.843 443.186 648.932 442.227C649.052 440.93 650.14 440.509 650.439 439.545C651.263 436.899 651.47 434.356 653.598 432.328C656.279 429.776 657.444 430.845 657.554 426.635C657.608 424.581 655.965 424.264 656.845 421.897C657.324 420.611 658.735 419.852 659.638 418.941C662.318 416.238 664.125 413.837 666.033 410.497C667.722 407.547 670.414 405.83 672.143 403.281C674.395 399.96 671.028 398.314 675.598 397.376C674.949 395.314 674.258 393.648 675.967 391.902C677.045 390.801 679.781 391.475 680.735 390.201C681.829 388.739 680.212 385.274 681.861 384.325C683.201 383.555 685.208 385.931 687.314 384.755C688.919 383.858 691.343 378.907 690.826 377.088C694.976 379.421 693.942 377.814 695.928 374.82C696.373 374.149 697.723 374 698.106 373.322C698.873 371.968 698.698 370.588 699.802 369.487C701.643 367.654 704.655 368.125 706.68 366.816C708.354 365.735 708.266 364.569 709.601 363.549C710.742 362.677 712.616 362.51 713.725 361.607C715.899 359.837 715.92 357.969 718.638 356.445C721.858 354.641 724.71 353.107 727.638 350.715C729.548 349.157 731.36 346.393 733.593 345.365C736.682 343.942 739.089 343.842 742.111 341.813C744.294 340.345 746.36 337.925 748.504 336.688C750.121 335.757 751.255 335.958 753.294 335.38C756.963 334.34 757.857 330.884 760.849 329.477C762.904 328.511 765.895 329.396 768.152 328.888C775.173 327.312 782.109 323.914 789.154 322.031C797.755 319.734 806.416 317.722 815.082 315.692C807.118 326.482 796.974 336.217 786.687 344.787C783.311 347.601 764.807 360.425 774.78 365.902C778.784 368.1 787.482 361 790.715 359.265C797.224 355.77 803.966 352.972 810.783 350.145C821.807 345.574 836.164 337.445 848.414 338.099C840.957 347.245 831.647 354.587 823.118 362.667C815.28 370.092 803.469 377.056 807.165 389.21C796.155 386.409 786.266 383.1 774.819 383.833C769.691 384.161 764.56 383.544 759.456 384.263C753.906 385.047 748.679 386.904 743.346 388.533C739.126 389.821 734.463 389.923 730.581 392.065C728.704 393.102 726.385 394.581 724.699 395.866C722.452 397.58 721.941 398.716 720.176 400.974C713.881 409.032 707.79 416.587 704.048 426.404ZM669.613 578.925C669.269 577.53 668.956 576.258 668.562 574.665C672.067 576.822 672.067 576.822 669.613 578.925ZM643.13 534.504C642.698 535.101 640.883 535.292 640.356 534.777C639.7 534.136 641.425 531.641 641.702 531.111C642.386 531.636 643.959 533.354 643.13 534.504ZM635.628 518.337C636.092 516.634 636.557 514.931 637.021 513.228C637.59 514.806 640.159 516.552 640.215 518.056C640.251 519.053 636.135 518.557 635.628 518.337ZM637.117 520.673C641.138 523.319 641.558 526.442 641.678 531.009C636.867 529.416 637.557 524.759 637.117 520.673ZM707.04 340.443C706.634 341.541 704.912 344.963 703.649 342.57C703.246 341.804 706.2 340.758 707.04 340.443ZM705.885 336.713C706.879 335.818 708.882 336.932 710.006 336.208C710.795 335.7 710.534 335.186 710.904 334.886C710.978 334.825 712.049 332.657 712.488 332.166C713.263 331.301 714.954 330.762 715.896 329.981C718.529 327.799 720.016 324.93 721.672 322.012C723.649 318.528 724.279 318.124 727.467 316.529C729.665 315.429 731.369 314.083 733.157 312.214C735.218 310.061 735.067 308.519 736.759 306.166C737.594 305.004 738.798 304.861 739.772 303.925C740.939 302.804 741.532 301.236 742.612 300.105C743.078 299.616 744.575 299.617 744.857 299.198C745.217 298.668 745.498 296.548 745.835 296.158C746.479 297.028 747.125 297.898 747.768 298.768C750.309 294.301 752.163 290.611 756.412 287.638C760.874 284.516 764.727 279.949 769.339 277.153C770.375 276.526 772.487 276.261 773.279 275.335C774.618 273.769 773.459 272.375 774.435 271.045C775.543 269.537 777.69 270.758 779.099 270.108C780.882 269.285 781.392 266.881 783.688 267.146C776.139 276.074 776.234 289.964 775.833 301.114C775.659 305.918 778.687 308.34 774.218 311.866C770.417 314.865 765.057 313.975 760.563 315.949C754.92 318.427 748.885 319.746 743.127 321.907C737.171 324.14 732.382 328.052 726.651 330.64C721.597 332.921 718.146 336.165 713.522 338.981C711.804 340.028 709.142 341.548 707.093 340.297C705.809 339.512 704.21 338.224 705.885 336.713ZM791.139 261.861C791.467 260.592 797.91 257.259 799.496 256.172C801.874 254.537 805.396 250.545 808.051 252.131C808.971 248.447 812.561 244.348 815.733 243.567C819.252 242.7 825.289 239.683 828.751 237.05C829.761 236.282 830.095 235.157 831.285 234.436C833.357 233.179 835.412 233.865 837.408 232.152C837.713 231.891 840.474 227.333 840.584 227.377C840.725 227.866 840.854 228.36 840.966 228.857C843.061 227.696 844.927 226.772 846.233 225.29C846.53 224.954 844.61 224.079 845.216 223.414C845.958 222.599 847.614 223.51 848.364 222.736C846.032 234.312 847.769 249.212 859.516 255.08C845.545 256.59 831.9 252.39 817.757 254.969C810.987 256.205 804.105 258.231 797.947 261.344C794.174 263.252 789.349 270.084 785.593 266.767C787.084 264.78 789.357 263.546 791.139 261.861ZM858.927 228.558C864.151 222.17 872.075 219.643 880.056 221.93C889.4 224.609 885.459 231.136 884.048 238.382C881.352 234.431 875.511 230.511 870.537 230.392C863.487 230.225 866.151 236.097 870.386 238.201C874.235 240.113 880.836 240.646 883.592 244.122C886.274 247.506 885.246 253.038 885.678 257.027C883.593 256.718 881.508 256.408 879.422 256.098C881.172 246.787 873.471 246.336 866.29 243.711C859.032 241.06 852.982 235.828 858.927 228.558ZM882.328 205.63V214.271C879.424 212.615 876.518 210.961 873.612 209.305C876.518 208.08 879.424 206.855 882.328 205.63ZM905.681 274.676C915.381 277.304 925.015 280.084 934.34 283.71C937.727 285.027 941.437 285.493 944.755 286.98C947.915 288.395 948.39 288.247 947.266 291.016C944.117 298.772 936.658 297.433 930.123 296.246C919.894 294.388 909.877 291.813 899.775 289.39C889.902 287.023 879.82 285.472 870.096 282.505C860.117 279.462 850.393 276.58 840.128 274.571C837.132 273.984 813.436 271.811 813.615 269.335C828.54 267.397 843.905 269.306 858.895 269.508C874.475 269.717 890.57 270.581 905.681 274.676ZM892.513 244.672C892.698 239.339 892.772 233.989 893.435 228.687C897.875 234.166 901.883 235.806 907.479 230.67C912.838 225.755 914.033 223.192 920.827 227.813C926.716 231.821 932.288 231.637 938.543 228.128C942.358 225.988 948.489 217.245 952.499 219.044C954.41 219.903 955.811 223.361 957.74 224.633C960.161 226.227 963.884 227.333 966.705 227.952C973.37 229.411 977.34 225.126 981.523 220.543C987.589 213.897 987.411 217.757 993.036 222.365C999.309 227.506 1004.55 224.994 1010.23 220.608C1013.69 230.743 1014.99 241.811 1015.97 252.437C1016.3 256.024 1017.53 261.119 1014.3 263.655C1012.03 265.444 1007.21 265.514 1004.47 266.503C994.695 270.038 985.299 275.052 977.12 281.471C973.934 283.972 971.156 287.035 966.801 286.466C962.652 285.922 958.619 282.45 955.281 280.157C951.659 277.67 947.994 274.846 943.761 273.46C941.283 272.648 937.312 272.942 935.143 271.454C931.11 268.686 935.856 261.427 934.851 256.554C934.091 252.854 931.961 245.14 926.864 247.309C919.278 250.535 923.693 263.13 927.864 267.062C919.331 265.547 909.883 263.335 901.653 260.524C895.296 258.352 892.285 251.177 892.513 244.672ZM1035.63 270.648C1053.14 265.732 1069.54 262.416 1087.77 261.521C1095.84 261.124 1103.65 261.374 1111.63 261.447C1116.22 261.489 1119.72 257.785 1116.05 253.526C1110.97 247.627 1095.48 249.872 1088.62 249.607C1070.22 248.897 1053.34 250.988 1035.92 257.051C1037.76 253.657 1042.19 253.217 1045.22 251.462C1048.94 249.308 1051.47 245.76 1053.06 241.822C1057.2 231.58 1053.04 221.929 1048.71 212.573C1057.21 214.859 1066 219.866 1074.55 221.137C1076.34 221.403 1077.49 221.232 1079.08 221.884C1080.05 222.284 1080.36 223.667 1081.56 223.969C1082.15 224.115 1083.55 222.799 1084.2 222.985C1086.81 223.721 1084.75 223.916 1086.39 224.981C1087.7 225.826 1087.6 226.914 1089.99 226.515C1091.05 226.339 1092.2 224.696 1092.76 224.652C1093.48 224.594 1093.31 223.726 1094.4 223.979C1096.39 224.441 1096.21 226.997 1096.88 228.255C1097.58 229.594 1096.58 231.376 1098.72 232.109C1100.32 232.657 1100.72 230.967 1102.08 231.088C1102.91 231.162 1104.63 232.353 1105.36 233.078C1107.71 235.414 1110.93 237.994 1114.09 239.514C1113.78 239.202 1115.58 238.449 1115.15 238.272C1114.86 238.155 1116.76 238.611 1116.73 238.605C1118.55 239.02 1119.52 241.823 1120.44 242.845C1122.14 244.718 1124.77 246.696 1127.15 247.523C1131.27 248.953 1131.14 247.243 1132.64 252.129C1135.57 247.533 1136.69 255.23 1140.31 256.078C1142.19 256.517 1141.97 255.713 1143.68 256.695C1144.85 257.369 1145.63 259.432 1146.52 260.428C1146.9 258.992 1147.27 257.555 1147.65 256.12C1150.26 261.067 1155.9 268.912 1162.09 267.493C1162.09 268.843 1161.53 270.457 1162.57 271.609C1163.3 272.415 1164.49 271.5 1165.06 271.968C1165.56 272.377 1166.75 274.004 1167.13 274.271C1167.88 274.799 1169.25 275.184 1169.9 275.71C1170.48 276.173 1170.77 278.384 1171.4 279.183C1172.6 280.684 1174.68 280.982 1175.66 282.783C1175.89 281.007 1176.11 279.23 1176.33 277.454C1178.28 278.958 1178.45 280.127 1178.93 282.327C1179.61 285.461 1178.7 284.727 1180.87 286.049C1182.99 287.35 1184.1 287.204 1186.05 289.461C1187.96 291.674 1187.97 293.037 1190.73 290.732C1191.24 292.437 1191.41 294.643 1192.77 295.949C1193.81 296.937 1198.09 296.979 1198.5 299.311C1190.46 292.531 1195.75 302.829 1198.5 299.328C1199.08 303.075 1201.82 304.286 1204.96 306.954C1207.88 309.441 1208.36 309.26 1209.35 313.438C1209.33 313.346 1210.82 314.27 1210.93 314.455C1208.08 314.861 1212.5 318.041 1213.24 318.623C1213.79 319.047 1214.5 318.033 1215.4 318.72C1216.44 319.506 1217.28 321.292 1218.12 322.37C1220.4 325.29 1222.09 327.799 1224.49 330.174C1227.08 332.737 1228.34 335.976 1230.83 338.971C1233.59 342.298 1235.08 346.123 1237.39 349.734C1239.58 353.169 1242.5 355.925 1245.04 359.07C1249.09 364.075 1250.47 375.097 1258.02 375.387C1257.57 375.845 1258.19 379.261 1258.26 379.891C1258.62 382.993 1258.38 385.978 1260.22 388.788C1260.64 385.583 1262.31 386.818 1263.77 388.502C1266.2 391.303 1264.07 390.598 1264.19 393.437C1264.35 396.878 1264.74 394.216 1266.05 397.22C1267.08 399.574 1267.64 401.101 1268.19 403.713C1263.93 404.05 1261.98 400.567 1260.4 397.191C1259.74 395.779 1259.51 393.459 1258.35 392.355C1257.1 391.181 1255.4 391.088 1254.12 389.778C1251.67 387.26 1250.61 383.333 1247.73 380.882C1244.47 378.114 1243.75 376.806 1241.05 373.495C1238.07 369.834 1233.95 367.263 1230.83 363.721C1227.69 360.173 1227.95 362.11 1224.01 360.826C1219.83 359.459 1213.06 346.307 1207.79 351.373C1208 348.06 1203.03 344.943 1200.52 343.742C1199.44 343.224 1198.18 343.693 1197.09 342.915C1195.92 342.071 1195.83 340.444 1194.64 339.432C1194.64 339.433 1192.82 339.873 1192.45 339.687C1191.7 339.306 1191.7 337.959 1191.03 337.516C1189.2 336.288 1187 335.002 1185.06 333.956C1180.32 331.415 1176.13 328.287 1171.56 325.228C1167.64 322.607 1162.9 317.874 1158.37 316.492C1154.41 315.286 1151.93 315.9 1148.69 313.483C1146.92 312.167 1147.44 311.726 1144.61 310.907C1141.91 310.128 1140.4 310.529 1138.97 307.668C1136.46 302.661 1138.04 292.89 1137.56 287.277C1137.04 281.318 1136.43 275.213 1134.88 269.419C1133.04 262.573 1130.62 258.993 1123.27 260.606C1108.71 263.804 1094.33 266.847 1079.71 269.655C1050.57 275.251 1021.93 284.383 993.431 292.49C991.261 293.108 979.151 295.879 981.625 289.619C982.765 286.732 990.429 285.656 992.995 284.749C1007.08 279.765 1021.23 274.688 1035.63 270.648ZM1030.73 257.907C1028.6 258.718 1026.48 259.528 1024.35 260.341V254.425C1026.48 255.585 1028.6 256.745 1030.73 257.907ZM1021.89 226.627C1023.74 228.138 1027.5 224.501 1029.07 223.764C1031.75 222.506 1035.17 221.427 1038.18 221.685C1043.71 222.164 1047.76 227.61 1046.74 233.132C1045.03 242.474 1031.71 246.892 1024.37 250.545C1024.13 247.234 1023.06 243.254 1025.38 240.39C1027.4 237.903 1031.31 238.084 1033.17 235.439C1037.85 228.792 1025.16 228.189 1022.33 233.475C1021.21 230.097 1020.09 226.719 1018.97 223.341C1021.67 222.894 1020.49 225.482 1021.89 226.627ZM1034.98 208.34C1032.34 210.047 1029.7 211.755 1027.06 213.462C1025.75 207.551 1030.21 206.773 1034.98 208.34ZM1275.72 414.06C1272.26 415.71 1271.4 411.768 1268.91 411.598C1271.85 409.792 1271.85 409.792 1275.72 414.06ZM1289.8 500.133C1290.23 505.799 1289.89 511.53 1290.64 517.173C1291.22 521.466 1292.96 525.461 1293.14 529.802C1293.55 539.311 1290.34 548.994 1283.85 555.964C1277.72 562.558 1268.94 568.232 1260.65 571.005C1256.92 572.252 1253.03 575.02 1249.4 576.043C1245.39 577.175 1241.58 574.711 1238.27 579.131C1236.07 560.174 1237.68 540.366 1237.5 521.289C1237.33 502.172 1237.54 483.047 1234.3 464.136C1231.42 447.293 1225.74 428.348 1215.27 414.569C1211.02 408.973 1205.78 404.39 1200.26 400.1C1197.39 397.874 1194.53 395.495 1191.34 393.737C1186.43 391.032 1182.24 391.406 1176.9 390.635C1169.26 389.531 1162.15 388.599 1154.48 390.751C1147.34 392.755 1139.47 395.037 1133.07 398.518C1126.7 401.987 1119.3 403.416 1112.68 406.522C1108.18 408.636 1098.83 415.696 1093.84 414.425C1089.01 413.194 1081.85 404.993 1078.76 401.32C1074.82 396.625 1071.56 391.183 1068.06 386.132C1066.83 384.359 1064.32 381.618 1064.01 379.341C1063.45 375.388 1065.03 376.68 1068.81 377.122C1078.52 378.261 1087.66 380.062 1096.97 383.118C1101.6 384.639 1110.66 390.79 1115.29 387.104C1122.36 381.476 1111.61 371.802 1107.68 368.552C1100.97 363.015 1093.17 358.902 1086.02 353.982C1078.43 348.753 1068.39 343.187 1063.5 335.135C1077.77 339.347 1092.03 344.171 1105.89 349.602C1112.23 352.086 1118.49 354.711 1124.45 358.015C1127.79 359.87 1134.55 364.888 1138.58 362.485C1147.33 357.26 1127.23 342.086 1124.32 338.985C1119.82 334.166 1115.4 329.393 1110.44 325.021C1107.1 322.072 1101.85 319.998 1100.29 315.647C1105.84 317.655 1110.33 321.588 1115.52 324.26C1118.24 325.66 1120.73 326.466 1123.73 326.895C1126.93 327.353 1127.32 327.864 1129.84 329.136C1131.8 330.129 1133.82 331.455 1136.03 332.13C1137.6 332.611 1140.35 332.694 1141.72 333.586C1142.42 334.588 1143.15 335.573 1143.9 336.54C1144.74 336.787 1145.56 337.07 1146.38 337.393C1147.59 338.48 1148.32 339.977 1149.5 341.098C1158.11 349.233 1169.62 355.055 1179.27 361.87C1188.39 368.318 1198.08 374.15 1206.85 381.187C1216.93 389.286 1227.41 397.99 1235.99 407.702C1240.84 413.191 1244.82 419.414 1248.9 425.483C1251.84 429.877 1256.13 433.523 1258.68 438.054C1264.24 447.933 1268.86 458.613 1274.84 468.332C1280.94 478.236 1288.88 488.077 1289.8 500.133ZM1207.79 557.454C1209.45 550.598 1218.83 542.592 1224.82 539.569C1221.8 547.04 1213.76 552.134 1207.79 557.454ZM1223.26 581.371C1218.14 591.974 1195.66 593.187 1198.71 577.496C1200.21 569.808 1206.55 565.09 1212 560.059C1214.51 557.735 1220.68 549.418 1224.57 550.758C1224.39 556.737 1224.04 562.742 1224.05 568.723C1224.06 572.715 1225.06 577.618 1223.26 581.371ZM1216.76 459.164C1218.83 463.821 1220.9 467.698 1217.05 471.864C1215.32 473.745 1209.66 477.858 1207.1 476.944C1198.88 474.015 1214.55 461.259 1216.76 459.164ZM1167.06 417.73C1169.04 417.622 1170.96 417.916 1172.92 417.796C1174.86 417.675 1175.07 417.329 1176.88 417.576C1177.07 417.853 1177.26 418.13 1177.45 418.407C1177.69 420.264 1178.67 420.466 1180.37 419.013C1182.75 419.54 1184.29 419.893 1186.55 421.173C1180.44 425.583 1172.99 430.71 1165.49 432.191C1153.63 434.53 1156.91 418.289 1167.06 417.73ZM985.308 516.907C984.079 519.379 980.543 513.202 979.668 512.051C981.299 512.045 986.551 514.412 985.308 516.907ZM1080.57 451.829C1089.78 446.457 1100.72 441.738 1110.61 437.738C1112.35 446.116 1103.87 456.933 1098.64 462.666C1094.42 467.303 1089.32 472.111 1083.59 474.78C1077.4 477.664 1070.63 476.397 1070.93 468.302C1071.04 465.343 1071.71 460.584 1072.92 457.88C1074.47 454.394 1077.41 453.67 1080.57 451.829ZM956.053 299.422C957.424 299.342 972.317 297.417 972.238 299.269C972.003 304.837 957.548 300.465 956.053 299.422ZM850.738 406.928C858.604 397.226 871.303 386.753 871.489 373.193C871.763 353.24 849.611 363.195 838.474 364.025C844.363 358.241 873.956 333.975 856.452 325.356C851.42 322.879 844.27 325.299 839.221 326.597C830.264 328.9 821.935 332.888 813.135 335.664C819.423 328.972 830.287 321.368 829.931 311.234C829.497 298.899 819.368 301.881 810.609 303.691C807.243 304.387 792.208 310.366 789.384 306.307C788.349 304.82 790.023 302.93 790.377 301.607C791.003 299.264 790.81 298.446 790.831 296.053C790.874 291.225 794.083 285.026 791.466 280.535C790.868 281.556 790.355 282.617 789.929 283.721C789.066 281.107 789.646 278.336 788.783 275.723C810.649 281.313 832.893 284.373 854.896 289.145C866.034 291.56 876.518 295.72 887.809 297.592C899.197 299.479 910.387 302.367 921.795 304.167C932.205 305.809 942.177 308.542 952.486 310.638C962.534 312.682 972.84 308.203 982.647 305.935C1004.61 300.857 1026.57 295.654 1048.57 290.726C1073.95 285.036 1100.36 280.173 1124.65 270.685C1125.12 283.33 1126.14 295.952 1127.68 308.51C1116.95 303.439 1101.03 296.827 1090.18 305.901C1085.84 309.531 1084.5 315.798 1086.22 321.129C1088.09 326.931 1093.81 329.626 1097.58 333.994C1086.09 331.05 1056.46 310.294 1051.18 331.274C1047.46 346.092 1065.63 355.664 1074.52 364.005C1065.69 362.278 1053.88 355.225 1048.69 366.56C1044.22 376.359 1049.61 387.021 1055.13 395.103C1058.13 399.482 1061.5 403.603 1064.68 407.846C1066.36 410.09 1068.01 412.366 1069.77 414.544C1071.55 416.728 1074.89 419.016 1076.14 421.367C1078.64 426.108 1073.59 426.398 1069.66 428.11C1064.76 430.249 1060.55 433.84 1056.06 436.703C1045.79 443.257 1036.82 449.344 1024.68 451.439C1012.19 453.595 1000.16 455.847 987.833 458.854C975.543 461.852 965.51 464.733 952.947 460.858C947.219 459.091 942.554 457.521 936.479 457.853C930.098 458.203 926.367 457.872 921.121 453.92C898.544 436.923 874.039 422.975 850.738 406.928ZM810.037 389.864C818.763 385.488 827.546 381.089 836.559 377.329C844.019 374.215 855.348 370.588 863.514 371.952C861.212 377.864 857.011 382.715 852.505 387.068C848.52 390.918 843.541 396.729 838.719 399.416C834.34 401.855 829.245 397.992 824.926 396.373C820.181 394.595 813.651 393.766 810.037 389.864ZM812.23 411.942C816.578 410.136 825.923 416.197 829.877 417.772C837.649 420.871 845.464 424.106 852.313 428.994C843.95 438.655 834.478 447.489 823.224 453.695C815.819 457.778 803.338 462.461 796.354 455.048C787.578 445.731 798.128 426.748 804.34 418.765C804.546 420.131 804.752 421.496 804.959 422.862C806.941 419.689 808.454 413.511 812.23 411.942ZM971.855 494.635C966.431 495.777 964.587 494.746 961.007 490.588C958.586 487.777 956.207 484.858 953.478 482.33C950.692 479.751 943.813 473.532 952.578 477.113C960.567 480.376 967.41 482.009 976.2 480.73C986.25 479.269 995.62 475.021 1005.53 472.87C1000.1 477.622 994.705 482.421 989.262 487.16C983.512 492.166 979.162 493.097 971.855 494.635ZM973.096 532.852C961.209 541.795 937.276 540.827 945.331 521.151C946.555 518.162 948.267 515.349 950.248 512.803C950.908 511.953 952.084 510.192 953.025 509.621C955.654 508.027 954.925 507.834 957.453 510.492C959.634 512.785 976.678 531.519 973.096 532.852ZM969.572 498.662C970.66 498.309 975.249 495.649 976.294 497.121C977.352 498.61 968.357 503.764 969.572 498.662ZM1056.11 635.051C1053.44 641.444 1032.05 650.7 1036.03 637.812C1037.8 632.103 1039.46 627.781 1046.12 627.348C1049.96 627.098 1058.47 629.422 1056.11 635.051ZM1094.48 548.412C1098.01 543.286 1109.63 536.355 1114.6 543.999C1116.99 547.682 1111.19 549.568 1107.68 548.622C1105.79 548.112 1104.25 546.986 1102.2 546.901C1099.57 546.793 1096.99 548.859 1094.48 548.412ZM1103.82 553.5C1101.43 555.923 1086.98 568.071 1084.64 566.198C1089.36 559.458 1094.78 551.931 1103.82 553.5ZM1080.23 676.433C1075.22 676.717 1077.72 669.162 1078.21 666.142C1079.42 668.246 1085.81 676.118 1080.23 676.433ZM1092.98 662.893C1091.35 660.007 1086.98 655.711 1087.97 651.999C1088.73 649.16 1095.55 645.343 1098.41 646.971C1102.2 649.136 1096.7 663.371 1092.98 662.893ZM1211.97 632.632C1209.83 640.02 1207.6 638.114 1200.88 639.546C1194.13 640.982 1189.46 646.71 1183.52 649.782C1185.59 645.421 1186.87 640.106 1190.32 636.567C1191.12 635.75 1196.02 634.136 1193.23 632.243C1190.79 630.588 1187.28 635.958 1186.23 637.422C1181.09 644.625 1177.49 653.42 1174.52 661.708C1173.06 665.778 1171.89 669.924 1171.19 674.199C1170.58 678.008 1171.24 681.993 1170.61 685.703C1169.6 691.679 1161.48 691.709 1156.6 693.25C1152.18 694.644 1147.78 696.156 1143.19 696.908C1139.22 697.559 1135.09 696.372 1131.23 697.155C1127.06 698.003 1125.18 700.479 1120.44 699.919C1116.57 699.464 1112.95 697.685 1109.03 697.507C1105.36 697.343 1101.7 698.611 1098.06 697.579C1094.38 696.536 1094.55 696.132 1095.39 692.517C1095.91 693.493 1096.44 694.468 1096.96 695.443C1098.43 694.293 1099.45 690.787 1100.34 689.141C1101.74 686.591 1102.87 685.709 1102.36 682.533C1101.6 677.841 1097.37 674.504 1096.41 670.043C1095.4 665.387 1098.85 661.581 1100.88 657.694C1103.66 652.374 1103.63 648.43 1101.3 642.928C1103.05 643.392 1104.81 643.856 1106.57 644.321C1104.16 639.091 1095.99 641.211 1091.89 642.76C1089.83 643.538 1086.57 646.598 1084.35 646.52C1081.3 646.414 1079.72 642.411 1078.41 640.206C1074.62 633.829 1070.3 627.531 1065.81 621.61C1064.58 619.981 1062.97 618.935 1063.39 617.078C1063.76 615.504 1067.29 613.271 1068.43 612.3C1072.73 608.668 1078.2 606.655 1082.24 602.831C1088.34 597.054 1095.37 592.914 1101.61 587.25C1108.11 581.35 1114.8 575.931 1121.57 570.355C1128.43 564.708 1134.37 558.054 1141.18 552.349C1142.95 555.545 1146.36 566.988 1150.27 567.874C1154.83 568.905 1154.69 563.515 1154.47 560.272C1154.14 555.649 1151.58 551.158 1151.29 546.747C1150.98 542.028 1155.52 539.919 1158.95 537.189C1164.25 532.973 1175.96 523.37 1169.66 515.465C1164.24 508.657 1146.6 521.711 1141.73 525.636C1137.6 528.972 1134.41 531.988 1129.75 534.62C1126.48 536.468 1120.99 543.58 1117.11 542.923C1112.5 542.143 1110.7 537.106 1105.05 537.273C1099.54 537.433 1094.85 541.405 1091.43 545.392C1083.7 554.403 1081.05 566.462 1074 575.856C1070.53 580.487 1066.02 584.311 1062.25 588.693C1058.11 593.503 1057.24 599.044 1053.16 603.751C1041.48 588.202 1028.76 573.478 1016.45 558.439C1010.3 550.929 1004.27 543.33 998.257 535.714C996.003 532.86 993.459 530.182 991.394 527.184C988.566 523.078 989.075 519.781 987.964 515.202C987.472 513.173 985.167 510.741 985.784 508.802C986.614 506.195 992.443 504.149 994.545 503.084C1003.13 498.728 1010.91 493.284 1018.92 487.963C1033.74 478.11 1048.73 468.87 1064.5 460.455C1064.22 464.08 1061.86 467.838 1063.45 471.475C1064.19 469.383 1065.36 460.06 1068.15 459.66C1067.62 459.736 1068.06 471.615 1068.49 473.311C1069.78 478.372 1073.52 481.833 1078.88 481.799C1089.08 481.733 1098.22 470.642 1103.88 463.295C1107.71 458.32 1111.39 452.535 1112.74 446.309C1113.96 440.719 1112.62 436.831 1118.44 433.992C1130.36 428.168 1142.39 423.423 1155.14 420.336C1154.57 425.831 1152.98 432.596 1157.97 436.548C1163.49 440.911 1170.71 437.023 1175.9 434.137C1181.04 431.279 1188.97 423.426 1195.01 425.707C1200.96 427.951 1205.09 435.4 1208.42 440.347C1211.35 444.707 1214.54 447.852 1211.14 452.711C1207.34 458.158 1204.86 463.474 1201.82 469.39C1200.64 471.664 1199.53 473.147 1200.35 475.477C1200.62 476.234 1203.68 480.736 1204.51 481.381C1209.8 485.498 1216.95 477.667 1220.72 474.694C1222.06 487.496 1222.35 500.241 1222.89 513.083C1223.29 522.489 1226.93 531.748 1219.21 538.624C1211.49 545.497 1205.05 552.553 1200.34 561.86C1197.83 566.832 1195.57 571.935 1192.85 576.804C1191.04 580.056 1187.21 584.826 1189.55 588.655C1192.03 586.308 1192.76 582.741 1194.82 580.094C1196.06 585.586 1197.3 591.678 1203.11 594.005C1209.8 596.683 1216.44 592.05 1222.36 589.471C1220.24 604.152 1216.1 618.418 1211.97 632.632ZM1205.14 649.507C1200.55 659.309 1196.41 671.129 1187.93 678.348C1186.07 679.932 1178.17 686.12 1175.16 685.084C1172.61 684.203 1174.01 679.045 1174.46 676.835C1176.71 665.617 1180.62 658.558 1189.72 651.401C1193.48 648.439 1198.32 644.652 1203.18 643.922C1208.4 643.135 1206.9 645.74 1205.14 649.507ZM1334.56 882.193C1322.66 866.022 1305.85 853.455 1289.96 841.307C1282.76 835.803 1274.83 831.677 1267.56 826.172C1259.34 819.949 1250.99 813.946 1241.78 809.256C1224.32 800.363 1205.27 794.164 1188.8 783.648C1180.76 778.519 1171.97 773.563 1164.42 767.806C1161.1 765.276 1158.17 762.041 1155.17 759.145C1152.39 756.453 1146.4 752.545 1145.3 748.605C1149.93 747.847 1152.57 743.35 1156.71 742.891C1158.07 742.739 1166.61 744.998 1165.44 740.857C1168.54 740.779 1168.9 740.733 1171.5 740.055C1172.57 739.774 1173.85 740.213 1174.94 739.828C1176.6 739.242 1177.73 737.546 1179.41 736.896C1180.61 736.435 1185.04 736.95 1185.71 736.375C1187.55 734.808 1185.6 734.946 1184.5 732.988C1188.07 732.897 1190.52 734.7 1194.1 732.784C1195.18 732.2 1196.11 730.855 1197.16 730.159C1199.03 728.922 1199.71 730.839 1200.99 728.272C1202.19 731.813 1202.16 730.834 1205.05 729.792C1207.93 728.755 1210.01 728.006 1213.29 727.746C1221.12 727.126 1228.99 728.077 1236.79 727.521C1239.64 727.316 1242.08 726.669 1244.91 727.042C1247.41 727.37 1246.66 729.105 1248.73 726.768C1249.21 726.225 1247.65 724.737 1248.4 723.957C1248.73 723.611 1249.8 723.854 1250.21 723.677C1253.86 722.086 1253.87 724.309 1254.52 727.205C1256.66 726.704 1258.84 726.251 1260.7 724.997C1259.76 724.16 1258.19 723.236 1259.1 721.706C1262.18 722.874 1264.2 722.335 1262.66 725.72C1265.76 726.744 1266.34 725.408 1269.13 725.116C1270.77 724.943 1273.08 725.966 1274.45 724.65C1275.95 723.213 1273.58 721.652 1276.34 720.417C1276.9 720.704 1277.32 721.138 1277.59 721.717C1279.08 722.166 1278.81 722.752 1276.79 723.473C1282.21 726.28 1280.94 723.142 1283.21 719.822C1283.74 719.057 1286.09 716.68 1287.16 717.829C1288.79 719.569 1285.47 720.123 1286.18 721.854C1287.41 724.855 1291.72 721.009 1293.04 719.489C1294.04 718.34 1294.45 716.138 1295.52 715.28C1297.02 714.088 1299.17 715.93 1301.05 715.6C1309.61 714.1 1317.69 702.595 1311.24 694.894C1309.51 692.824 1308.04 693.236 1305.98 691.929C1303.94 690.638 1302.79 688.405 1301.15 686.56C1297.41 682.351 1292.83 679.197 1287.6 677.181C1275.47 672.503 1262.4 669.091 1249.67 666.581C1243.77 665.418 1237.49 663.639 1231.45 663.652C1227.89 663.659 1222.53 666.425 1219.21 665.1C1212.74 662.524 1222.23 649.337 1223.8 645.077C1228.4 632.563 1231.88 619.221 1234.15 606.084C1234.6 603.513 1234.43 600.182 1235.35 597.733C1236.42 594.916 1236.64 595.315 1238.92 595.085C1243.03 594.67 1247.53 596.826 1251.81 596.081C1256.56 595.255 1261.69 595.639 1266.48 594.172C1268.68 593.498 1270.72 592.765 1272.17 590.907C1272.63 590.324 1272.12 589.817 1272.41 589.409C1272.5 589.28 1274.13 587.515 1274.19 587.413C1274.17 586.499 1274.25 585.592 1274.43 584.694C1276.09 586.072 1275.27 588.962 1278.07 589.03C1278.56 585.948 1278.57 585.327 1280.59 583.594C1280.44 583.727 1282.12 582.301 1281.9 582.453C1282 581.905 1282.2 581.392 1282.5 580.917C1283.45 580.461 1284.45 580.218 1285.5 580.191C1287.69 577.943 1286.78 576.744 1286.78 573.718C1288.54 574.635 1290.31 575.551 1292.07 576.467C1292.5 567.503 1297.96 562.595 1301.59 555.33C1303.13 552.234 1304.71 549.815 1305.08 546.081C1305.29 543.927 1304.74 542.027 1305.63 539.996C1306.44 538.155 1308.25 537.162 1309 535.155C1310.49 531.206 1309.38 526.166 1309.46 522.066C1309.58 516.379 1310.15 510.711 1310.33 505.027C1310.7 493.869 1309.57 482.403 1307.9 471.374C1307.11 466.099 1305.77 460.981 1304.72 455.761C1303.86 451.471 1301.79 447.447 1301.05 443.456C1300.75 441.797 1301.22 440.309 1300.72 438.475C1300.06 436.063 1298.96 433.693 1298.14 431.325C1296.23 425.794 1294.33 420.271 1292.18 414.826C1288.01 404.273 1283.13 394.036 1278.49 383.687C1274.03 373.734 1270.33 363.472 1264.55 354.178C1258.86 345.025 1252.73 336.025 1246.45 327.262C1239.92 318.137 1231.66 310.297 1225.32 301.087C1213.42 283.796 1196.82 269.547 1179.45 257.782C1143.62 233.501 1104.9 209.259 1061.93 200.934C1055.45 199.68 1048.89 198.81 1042.29 198.648C1038.2 198.546 1031.41 200.525 1027.54 199.14C1023.19 197.588 1023.59 192.712 1022.5 188.887C1021.11 183.971 1017.95 180.75 1014.37 177.275C1010.6 173.616 1007.18 169.343 1002.48 166.855C997.717 164.335 992.098 163.393 986.82 162.631C982.107 161.949 975.066 162.586 970.76 160.533C966.84 158.662 968.776 156.715 972.447 158.317C972.716 156.698 972.934 155.652 973.972 154.401C974.493 153.772 976.954 152.89 977.014 152.303C977.083 151.616 975.018 149.66 974.723 148.774C974.088 146.866 974.449 144.224 975.203 142.433C978.905 145.723 979.977 147.18 984.11 144.035C985.856 142.707 986.391 142.122 988.413 141.452C988.961 141.27 990.191 141.832 990.669 141.517C992.496 140.314 990.816 140.598 991.684 139.177C991.465 139.535 992.999 135.758 992.927 136.548C993.113 134.536 993.708 135.154 992.493 132.682C990.113 127.846 984.052 127.648 987.141 122.129C988.356 119.958 989.427 120.174 989.769 117.025C989.952 115.333 989.724 113.392 989.716 111.67C989.702 108.148 990.365 105.683 987.064 103.89C983.892 102.165 980.965 104.057 979.677 99.7801C978.327 95.2921 979.686 89.5384 974.823 86.4651C971.269 84.2198 966.137 86.1395 962.21 85.0412C958.275 83.9416 954.656 79.9164 950.662 83.0069C947.824 85.2034 946.318 90.6037 940.972 87.6834C938.559 86.3663 937.23 81.9442 935.708 79.4642C933.283 75.5115 931.339 74.0836 927.608 77.9335C925.309 80.308 920.459 86.0881 920.163 89.375C919.837 93.0033 923.004 94.5195 919.028 96.666C915.073 98.8018 912.854 97.2355 909.643 101.571C906.459 105.871 908.924 108.247 905.235 112.362C900.624 117.505 898.17 119.726 898.235 126.655C898.28 131.408 894.078 135.514 896.529 140.023C899.276 145.077 907.291 147.178 912.151 149.235C910.529 152.232 908.303 154.153 910.197 157.238C911.913 160.032 916.762 160.612 919.768 160.104C921.79 159.764 921.863 160.07 923.455 158.649C924.497 157.718 923.067 156.556 925.214 156.041C927.499 155.49 931.148 159.967 932.632 161.087C929.316 165.389 920.209 166.193 915.391 168.374C912.454 169.704 909.755 171.671 906.765 172.86C904.053 173.939 900.752 173.688 898.293 175.357C894.045 178.24 892.278 185.38 889.675 189.578C886.728 194.33 883.871 196.537 878.218 197.523C871.165 198.753 865.485 199.248 858.907 202.318C850.875 206.068 842.957 210.027 835.068 214.07C822.343 220.589 810.523 227.282 798.707 235.168C786.346 243.418 774.322 252.03 762.395 260.652C750.598 269.178 740.693 279.668 730.445 289.979C722.161 298.315 714.892 307.312 706.639 315.644C696.898 325.484 689.732 337.902 680.7 348.34C675.758 354.051 671.029 359.666 667.929 366.393C665.415 371.846 661.045 377.196 658.128 382.917C654.399 390.231 650.872 397.429 646.686 404.501C644.969 407.403 642.927 409.893 641.115 412.663C638.793 416.211 638.93 419.638 638.306 423.728C637.653 422.73 637.002 421.732 636.35 420.735C635.168 423.317 633.738 425.856 632.714 428.499C632.06 430.186 632.163 432.58 631.507 434.055C630.683 435.908 629.68 435.661 628.654 437.204C627.556 438.853 627.203 441.069 626.046 442.839C621.044 450.486 619.12 460.19 616.551 468.915C613.103 480.622 613.647 494.076 613.834 506.147C614.033 518.896 614.731 531.645 616.648 544.26C618.385 555.685 622.099 566.642 627.913 576.66C632.979 585.388 639.965 590.475 648.913 594.945C653.022 596.998 656.836 596.364 661.149 596.692C665.874 597.051 669.096 598.334 674.095 597.205C676.493 596.663 677.628 594.918 679.534 594.336C680.713 593.976 681.348 594.564 682.48 594.427C684.1 594.231 687.468 593.437 689.225 593.628C694.69 594.224 693.773 602.484 694.311 606.701C695.138 613.198 695.745 619.764 696.861 626.219C699.208 639.796 704.275 652.48 707.269 665.822C693.39 667.515 681.484 670.105 668.475 675.356C655.425 680.623 642.23 682.411 628.496 685.03C615.646 687.479 603.288 692.057 593.003 700.35C588.182 704.235 583.174 708.783 586.714 715.181C588.978 719.274 593.058 720.314 596.581 722.692C597.293 721.792 595.234 719.884 594.857 719.355C597.819 719.963 597.728 721.345 599.89 722.547C601.78 723.598 603.327 723.561 605.396 724.304C610.448 726.118 612.929 730.644 617.922 731.915C619.493 732.314 621.548 733.27 623.154 733.542C625.084 733.868 626.528 733.024 628.484 733.381C629.539 734.076 630.681 734.573 631.908 734.871C632.711 734.498 633.506 734.104 634.289 733.688C637.099 733.98 638.834 735.746 641.117 737.198C641.27 735.369 641.05 733.469 642.781 732.276C643.457 734.055 642.365 735.181 644.21 736.404C646.548 737.956 649.618 736.019 651.711 735.038C652.303 740.949 665.993 740.601 670.332 740.516C676.342 740.4 682.345 738.017 688.407 739.347C691.5 740.025 694.801 740.733 697.879 741.613C701.587 742.672 706.069 743.619 709.718 744.954C711.169 745.486 712.947 747.188 714.491 747.073C715.721 746.981 716.05 745.168 717.481 745.219C719.101 745.279 719.645 747.082 721.047 747.626C723.145 748.436 725.075 746.894 727.069 747.673C727.786 747.953 728.757 749.154 729.674 749.545C731.067 750.138 733.823 750.146 735.373 750.432C737.569 750.84 739.537 750.566 741.419 750.7C742.937 750.81 742.904 751.83 743.63 751.896C744.463 751.971 745.914 749.107 747.033 748.688C748.663 748.076 751.622 749.533 753.284 749.789C741.241 766.108 726.721 780.53 710.982 793.158C694.004 806.782 676.618 820.387 658.412 832.336C641.882 843.185 625.881 852.569 613.065 867.884C602.258 880.798 585.056 894.615 587.708 913.333C590.358 932.035 610.673 939.647 626.951 943.217C647.424 947.708 668.499 945.9 689.027 948.425C697.782 949.502 707.509 948.927 716.322 948.01C726.73 946.926 735.651 940.136 744.599 935.226C760.694 926.394 774.455 914.577 790.309 905.469C810.158 894.064 829.8 881.981 851.561 874.343C861.685 870.79 872.108 866.734 880.275 859.426C881.49 858.338 882.395 856.697 883.769 855.8C886.103 854.277 886.728 855.821 888.083 855.36C889.126 855.005 890.135 853.879 891.037 853.542C893.32 852.686 894.339 853.039 896.896 853.039C894.702 851.775 892.693 848.514 894.97 845.858C898.87 841.307 899.542 848.579 901.007 850.264C902.249 848.669 901.773 847.249 901.456 845.436C902.505 846.128 903.555 846.82 904.605 847.514C903.882 844.005 904.57 840.774 906.429 837.716C908.144 834.899 908.567 835.296 909.04 831.39C914.365 836.25 915.406 824.454 915.886 820.153C916.35 815.983 915.891 812.989 918.635 809.342C921.581 805.426 926.06 802.952 929.799 799.91C935.705 795.103 942.204 789.033 950.372 793.642C956.82 797.282 960.328 806.204 966.378 810.788C970.047 813.57 973.921 813.851 976.26 818.164C978.151 821.65 978.765 825.823 980.551 829.402C984.876 838.079 991.103 848.008 998.206 854.664C1004.82 860.859 1013.31 860.827 1021.04 864.669C1028.7 868.474 1036.66 872.596 1044.77 875.353C1053.62 878.364 1063.17 879.644 1071.8 883.292C1076.23 885.17 1080.2 887.995 1084.67 889.792C1089.49 891.729 1094.58 893.095 1099.47 894.87C1118.84 901.904 1137.79 910.529 1158.15 914.428C1167.17 916.156 1175.53 920.854 1184.62 921.843C1188.52 922.267 1191.7 922.804 1195.52 923.779C1201.5 925.309 1200.24 926.122 1202.44 931.112C1206.07 939.328 1214.93 934.463 1221.76 934.668C1232.7 934.998 1243.46 933.231 1254.38 933.147C1273.47 933.001 1291.85 930.85 1310.32 924.585C1328.86 918.295 1349.96 903.136 1334.56 882.193Z" fill="black"/>
<path fill-rule="evenodd" clip-rule="evenodd" d="M1113.89 240.314C1114.15 240.576 1114.76 240.734 1113.89 240.314V240.314Z" fill="black"/>
<path fill-rule="evenodd" clip-rule="evenodd" d="M879.987 483.752C874.48 490.034 863.294 499.185 854.076 498.107C845.669 497.124 848.951 487.691 851.927 483.126C856.396 476.265 862.383 469.824 871.035 469.449C874.77 469.287 879.61 469.363 882.504 472.19C886.454 476.052 882.896 480.435 879.987 483.752ZM879.401 466.302C872.95 464.074 870.417 463.225 864.147 466.767C859.112 469.611 854.647 473.632 851.192 478.197C846.021 485.03 840.807 500.4 854.084 502.323C868.646 504.432 903.288 474.558 879.401 466.302Z" fill="black"/>
<path fill-rule="evenodd" clip-rule="evenodd" d="M899.25 505.518C895.061 509.796 889.831 513.286 883.861 514.477C886.386 508.845 892.026 496.538 898.711 494.823C901.791 494.032 905.303 495.068 905.049 498.576C904.867 501.113 900.902 503.829 899.25 505.518ZM904.643 490.628C901.174 488.89 902.268 487.703 898.232 489.066C895.052 490.139 891.04 492.003 888.392 494.15C886.947 495.322 882.448 499.476 882.999 501.589C883.997 505.431 887.352 499.544 888.234 498.413C889.746 499.644 882.016 510.702 881.556 512.521C879.842 519.298 885.162 520.015 890.378 517.797C897.41 514.809 918.235 497.436 904.643 490.628Z" fill="black"/>
<path fill-rule="evenodd" clip-rule="evenodd" d="M933.102 367.654C933.385 378.3 933.634 388.944 933.869 399.59C933.952 403.331 933.058 408.665 934.181 412.248C934.677 413.827 939.162 420.67 940.753 421.113C946.322 422.662 944.332 408.708 944.371 405.272C944.507 393.68 944.336 382.076 944.289 370.483C944.263 364.509 945.951 314.418 938.197 314.662C936.861 314.705 933.57 320.432 933.075 321.58C931.517 325.186 932.09 330.531 932.127 334.374C932.232 345.463 932.808 356.567 933.102 367.654Z" fill="black"/>
<path fill-rule="evenodd" clip-rule="evenodd" d="M980.052 398.686C980.488 401.629 980.259 406.538 983.574 408.063C986.457 409.391 987.562 407.812 988.641 405.346C991.122 399.672 990.226 390.998 990.181 385.132C990.089 373.506 988.78 361.929 987.875 350.346C987.477 345.264 988.303 340.16 987.667 334.842C987.388 332.508 987.111 323.121 982.783 323.558C978.87 323.952 979.223 333.792 979.01 336.327C977.236 357.429 976.928 377.621 980.052 398.686Z" fill="black"/>
<path fill-rule="evenodd" clip-rule="evenodd" d="M1172.4 489.631C1167.87 496.56 1159.93 504.865 1151.52 506.475C1145.35 507.656 1141.28 503.083 1143.76 496.911C1145.85 491.694 1152.99 488.4 1157.66 486.105C1161.37 484.283 1178.67 480.044 1172.4 489.631ZM1169.07 478.299C1159.79 477.949 1152.31 484.653 1145.4 490.004C1146.96 483.858 1150.49 477.171 1155.47 473.17C1162.24 467.725 1168.66 471.106 1175.79 473.829C1174.03 468.281 1166.13 466.285 1161.1 467.069C1154.74 468.06 1150.17 473.487 1146.96 478.737C1143.12 484.999 1141.81 492.38 1137.29 498.254C1135.23 500.942 1122.43 511.003 1125.33 515.116C1130.11 510.042 1134.89 504.97 1139.67 499.896C1140.91 505.893 1142.28 512.72 1149.93 512.137C1156.05 511.67 1163.02 506.473 1167.5 502.501C1173.27 497.371 1184.64 478.888 1169.07 478.299Z" fill="black"/>
<path fill-rule="evenodd" clip-rule="evenodd" d="M1039.13 537.459C1035.2 539.265 1026.55 541.72 1024.35 536.293C1021.3 528.756 1031.12 515.536 1035.79 510.514C1038.67 507.424 1040.62 505.825 1044.63 507.825C1047.83 509.422 1052.53 513.959 1053.76 517.448C1056.4 524.937 1045.27 534.633 1039.13 537.459ZM1048.14 501.26C1051.34 501.981 1051.74 506.044 1047.73 504.483C1044.73 503.315 1044.04 500.335 1048.14 501.26ZM1052.16 506.982C1050.97 503.337 1053.4 497.622 1047.51 497.359C1044.18 497.211 1038.07 500.6 1035.16 501.977C1031.12 503.886 1027.32 506.8 1025.22 510.905C1023.27 514.707 1024.66 515.709 1027.63 512.553C1028 512.8 1020.9 531.087 1020.84 532.92C1020.57 541.294 1026.5 546.809 1034.82 545.323C1042.48 543.959 1049.38 537.702 1053.59 531.387C1055.72 528.19 1057.47 524.532 1057.63 520.616C1057.87 514.611 1053.87 512.197 1052.16 506.982Z" fill="black"/>
<path fill-rule="evenodd" clip-rule="evenodd" d="M1088.87 503.91C1085.64 497.693 1093.13 487.23 1099.83 490.291C1113.78 496.663 1093.11 512.061 1088.87 503.91ZM1101.4 495.794C1099.91 495.855 1090.44 499.509 1091.84 501.986C1093.75 505.385 1100.66 497.161 1101.4 495.794Z" fill="black"/>
<path fill-rule="evenodd" clip-rule="evenodd" d="M643.833 484.303C643.459 481.655 637.522 485.499 637.557 487.204C638.538 485.24 644.613 489.82 643.833 484.303Z" fill="black"/>
<path fill-rule="evenodd" clip-rule="evenodd" d="M968.553 284.208C976.112 283.652 966.481 245.53 960.972 248.902C955.001 252.555 961.617 284.717 968.553 284.208Z" fill="black"/>
<path fill-rule="evenodd" clip-rule="evenodd" d="M982.67 266.407C989.752 267.421 988.626 251.165 984.817 248.255C977.786 242.885 974.072 265.176 982.67 266.407Z" fill="black"/>
</g>
</g>
<defs>
<clipPath id="clip0">
<rect x="315" y="-168" width="1295.24" height="792" fill="white"/>
</clipPath>
</defs>
</svg>
