<svg width="876" height="688" viewBox="0 0 876 688" fill="none" xmlns="http://www.w3.org/2000/svg">
<path d="M589.393 646.636C669.406 646.636 734.27 581.772 734.27 501.759C734.27 421.745 669.406 356.882 589.393 356.882C509.379 356.882 444.516 421.745 444.516 501.759C444.516 581.772 509.379 646.636 589.393 646.636Z" fill="#F6EDEE"/>
<path d="M213.367 278.104C258.425 278.104 294.952 241.578 294.952 196.52C294.952 151.462 258.425 114.936 213.367 114.936C168.31 114.936 131.783 151.462 131.783 196.52C131.783 241.578 168.31 278.104 213.367 278.104Z" fill="white"/>
<path d="M294.119 307.828C330.165 307.828 359.386 278.607 359.386 242.56C359.386 206.514 330.165 177.293 294.119 177.293C258.073 177.293 228.852 206.514 228.852 242.56C228.852 278.607 258.073 307.828 294.119 307.828Z" fill="white"/>
<path d="M314.091 422.804C394.047 422.804 458.865 357.987 458.865 278.031C458.865 198.075 394.047 133.258 314.091 133.258C234.135 133.258 169.318 198.075 169.318 278.031C169.318 357.987 234.135 422.804 314.091 422.804Z" fill="white"/>
<path d="M598.008 299.513C661.261 299.513 712.538 248.236 712.538 184.983C712.538 121.73 661.261 70.4536 598.008 70.4536C534.755 70.4536 483.479 121.73 483.479 184.983C483.479 248.236 534.755 299.513 598.008 299.513Z" fill="white"/>
<path d="M761.176 229.465C824.429 229.465 875.706 178.189 875.706 114.936C875.706 51.6825 824.429 0.405762 761.176 0.405762C697.923 0.405762 646.646 51.6825 646.646 114.936C646.646 178.189 697.923 229.465 761.176 229.465Z" fill="white"/>
<path fill-rule="evenodd" clip-rule="evenodd" d="M328.921 469.41C328.365 478.498 327.808 487.586 327.252 496.674C330.83 495.644 353.593 488.949 352.187 495.737C351.178 500.606 344.778 505.873 341.518 509.263C338.517 512.384 335.427 515.423 332.258 518.374C338.082 516.146 343.955 514.035 349.87 512.061C354.345 510.567 358.854 509.108 363.44 507.989C365.142 507.573 369.739 505.876 371.347 507.033C375.573 510.073 352.644 532.466 349.503 535.622C353.944 533.558 358.492 531.682 363.117 530.073C366.456 528.911 376.773 524.47 379.728 528.262C382.892 532.319 375.056 541.636 372.882 544.59C369.768 548.823 366.394 552.883 362.854 556.766C377.569 569.979 394.862 581.739 413.265 589.049C426.759 594.408 440.014 595.772 454.253 592.831C468.881 589.809 482.91 584.014 496.246 577.389C504.077 573.497 511.806 569.286 519.169 564.556C516.133 560.864 513.187 557.097 510.323 553.272C506.237 547.81 501.214 541.842 498.884 535.34C496.603 528.976 505.159 530.219 509.263 530.564C515.206 531.065 521.132 532.127 526.956 533.397C522.839 530.534 518.795 527.556 514.833 524.481C509.669 520.475 502.781 515.944 499.401 510.18C496.429 505.111 502.952 506.392 505.969 507.056C513.16 508.64 520.158 511.338 527.017 513.971C532.04 515.898 537.033 517.917 541.977 520.043C538.908 517.377 535.942 514.582 533.092 511.685C529.26 507.79 524.093 503.034 522.375 497.672C518.877 486.75 542.409 494.989 546.427 496.674C545.684 485.361 544.943 474.047 544.201 462.733C513.042 471.022 481.883 479.311 450.723 487.6C447.356 488.496 443.142 490.447 439.63 490.551C436.449 490.646 432.607 489.214 429.505 488.622L373.119 477.852C358.386 475.038 343.653 472.224 328.921 469.41Z" fill="#85A090"/>
<path fill-rule="evenodd" clip-rule="evenodd" d="M663.817 858.544C660.453 860.468 656.512 861.954 652.775 862.95C650.58 863.537 646.954 865.345 645.026 863.687C644.1 862.891 643.888 861.084 643.342 860.036C642.477 858.378 641.248 856.945 640.097 855.479C637.307 851.927 634.404 848.5 631.366 845.158C629.927 843.574 627.297 839.876 624.761 840.12C621.6 840.423 621.676 844.797 622.468 847.032C624.99 854.147 632.626 860.35 637.614 865.711C636.346 867.661 629.381 867.429 627.447 866.973C624.494 866.276 624.196 864.174 622.848 861.769C619.696 856.151 613.301 853.007 608.045 849.704C606.128 848.498 602.055 845.16 599.558 846C597.191 846.796 597.293 849.819 598.047 851.793C599.186 854.776 602.425 856.844 604.821 858.73C608.015 861.243 610.936 863.977 613.599 867.054C609.762 867.367 605.938 867.907 602.111 868.222C597.482 868.604 593.625 866.065 589.364 864.626C585.405 863.289 581.459 862.158 577.566 860.617C573.195 858.886 568.616 858.284 564.207 856.766C546.903 850.808 529.947 843.315 513.272 835.762C505.326 832.162 497.543 828.561 489.264 825.744C483.231 823.691 473.749 819.599 472.306 812.414C471.545 808.618 474.319 804.536 474.728 800.743C475.208 796.281 474.83 791.372 473.47 787.09C472.272 783.319 470.286 779.826 468.72 776.205C466.897 771.985 468.53 772.054 472.072 771.574C476.312 770.999 481.26 768.613 485.245 767.059C489.836 765.268 494.387 762.766 498.592 760.193C502.396 757.866 505.705 754.867 508.732 751.61C511.812 748.296 513.806 744.37 516.784 740.975C527.773 754.485 538.219 768.202 549.896 781.129C555.408 787.23 561.401 792.276 568.193 796.915C571.029 798.853 573.842 801.066 576.932 802.597C580.796 804.515 585.116 805.704 589.087 807.453C604.314 814.16 618.846 821.492 633.052 830.146C639.925 834.332 645.692 839.132 651.744 844.384C653.627 846.018 669.057 855.546 663.817 858.544ZM485.192 747.859C482.731 748.973 480.386 750.421 477.76 751.136C478.504 746.609 482.73 739.781 488.148 740.532C490.219 740.818 491.78 742.425 490.87 744.641C490.043 746.654 486.945 747.066 485.192 747.859ZM313.91 625.074C311.12 626.614 308.521 627.51 306.885 624.206C308.097 623.962 313.601 623.229 313.91 625.074ZM309.265 615.731C307.109 615.077 308.834 614.39 309.575 613.602C310.153 612.988 312.066 610.835 312.736 610.479C315.693 608.913 317.979 614.74 319.393 616.631C316.045 616.334 312.524 616.719 309.265 615.731ZM332.315 635.906C328.229 636.598 328.683 631.487 328.805 628.898C329.667 629.949 335.502 635.366 332.315 635.906ZM345.857 627.078C340.875 627.918 337.584 619.314 338.477 615.551C339.263 612.235 343.123 610.384 346.197 609.895C349.176 609.421 353.323 610.068 354.208 613.502C354.99 616.538 349.178 626.518 345.857 627.078ZM463.781 756.964C460.201 758.064 456.693 758.202 453.094 759.282C449.012 760.507 445.234 760.398 441.143 761.232C439.478 761.57 434.989 763.994 433.365 763.453C431.758 762.917 429.43 757.928 428.506 756.631C435.744 753.623 441.918 749.74 446.688 743.403C450.482 738.364 454.55 730.814 452.164 724.31C449.472 716.977 440.194 715.385 434.008 718.448C431.081 719.896 428.181 721.697 425.768 723.904C423.009 726.428 421.924 729.183 420.137 732.295C418.33 735.444 417.062 733.693 415.256 731.019C413.712 728.734 413.914 726.427 411.985 724.172C411.001 723.022 409.477 721.912 408.964 720.427C408.638 719.485 409.324 717.815 408.707 717.073C407.838 716.031 406.782 717.255 406.055 716.325C405.527 715.649 405.699 714.109 405.153 713.263C404.68 712.783 404.154 712.372 403.572 712.032C402.865 711.683 402.737 711.246 403.184 710.722C402.623 709.683 403.164 709.332 401.961 708.067C400.086 706.097 398.377 704.208 397.043 701.882C396.433 700.817 396.493 699.238 395.735 698.317C394.696 697.051 392.963 697.241 392.069 695.675C391.273 694.28 391.806 691.839 390.493 690.572C389.8 690.375 389.107 690.181 388.414 689.989C387.892 689.483 387.589 688.868 387.502 688.145C386.772 687.022 386.628 685.704 385.707 684.518C383.944 682.25 381.573 680.154 380.016 677.762C378.379 675.249 379.247 674.825 382.091 673.926C384.655 673.113 386.996 672.36 389.373 670.977C400.361 664.585 410.778 647.628 393.337 642.448C386.865 640.526 381.548 635.356 374.371 637.388C371.26 638.269 368.309 640.145 365.988 642.37C364.384 643.909 362.899 648.024 360.93 648.813C357.39 650.23 358.887 646.689 357.882 645.062C357.403 644.286 355.471 643.392 354.756 642.685C353.916 641.857 353.104 640.811 352.521 639.786C351.439 637.884 350.776 636.824 349.215 635.276C348.627 634.691 345.688 631.67 348.338 632.065C347.265 628.795 348.831 628.304 350.996 625.915C353.538 623.11 356.162 619.212 356.177 615.281C356.207 607.735 347.261 604.354 341.643 608.833C340.5 609.745 333.739 618.544 335.123 612.932C335.868 609.906 342.775 602.006 345.977 604.05C342.388 598.822 334.146 611.515 332.222 614.113C330.584 611.098 330.468 608.739 327.757 606.405C325.551 609.943 326.716 606.076 326.229 605.29C325.178 603.593 325.755 605.534 325.186 604.931C324.476 604.18 323.358 603.588 322.604 602.594C321.31 604.348 321.827 602.46 321.43 601.805C320.504 600.273 320.862 599.385 319.274 598.052C318.118 597.083 315.841 595.579 314.286 595.441C312.492 595.282 311.995 595.969 310.168 595.461C307.843 594.815 304.917 593.822 306.043 597.709C306.86 600.534 310.182 602.139 310.91 605.025C311.642 607.931 308.769 610.859 307.375 613.24C305.584 616.296 304.12 616.046 300.877 616.735C298.804 617.176 296.038 618.118 297.815 620.631C299.085 622.427 302.06 622.049 303.736 623.113C306.085 624.604 306.053 628.282 309.052 628.922C312.355 629.626 314.248 625.949 317.033 625.062C319.014 624.43 325.149 624.5 326.708 625.987C328.832 628.012 326.997 631.882 327.531 634.398C328.326 638.13 330.852 638.358 334.045 638.477C337.977 638.624 339.359 642.398 341.474 645.392C346.427 652.403 350.731 659.878 355.805 666.796C358.05 669.859 361.336 672.584 363.174 675.909C365.445 680.015 362.293 682.383 359.572 685.329C356.018 689.181 353.363 693.562 350.28 697.771C347.54 701.512 344.135 700.581 339.757 700.581C340.733 698.57 341.907 697.316 344.307 697.56C341.797 694.496 339.79 698.001 338.162 699.942C335.806 702.749 332.735 703.427 329.71 705.273C328.639 705.926 322.808 710.159 324.58 711.605C324.781 711.769 334.432 705.422 335.532 704.84C335.532 707.183 335.019 709.617 335.348 711.947C335.588 713.656 336.79 715.438 336.534 717.214C336.049 720.568 331.714 723.209 329.853 725.822C328.452 727.788 328.79 729.339 328.077 731.45C327.427 733.376 327.769 732.793 326.148 733.388C322.849 734.599 317.297 733.946 314.31 732.223C312.455 731.154 311.033 729.465 309.527 727.976C308.392 726.853 305.538 724.935 305.223 723.365C304.682 720.66 310.053 715.635 311.117 712.845C314.119 704.972 308.97 698.852 300.959 698.404C303.428 696.5 306.489 697.935 309.091 698.662C304.642 692.498 297.043 697.57 293.269 701.758C290.69 695.242 289.447 688.368 287.872 681.572C286.798 676.945 282.714 668.686 284.535 663.921C285.416 661.618 287.903 660.334 289.623 658.737C291.577 656.922 293.25 654.752 294.679 652.506C298.045 647.214 299.989 640.534 295.354 635.319C296.762 635.087 298.171 634.856 299.579 634.625C297.289 632.473 293.675 633.521 290.702 632.883C288.816 632.479 283.389 632.741 282.13 631.674C280.616 630.391 281.587 624.487 281.641 622.74C281.765 618.657 282.106 614.732 282.558 610.673C282.985 606.84 282.899 602.698 283.691 598.931C284.335 595.874 286.391 594.943 288.763 593.142C294.433 588.835 299.054 583.596 297.118 576.174C297.804 576.065 298.49 575.956 299.176 575.847C296.957 574.244 294.086 574.827 291.619 573.979C293.885 567.603 298.897 556.394 307.034 555.791C307.314 558.641 307.123 562.031 309.046 564.391C311.236 567.076 315.081 567.347 318.048 565.926C320.739 564.636 323.267 561.901 324.508 559.199C325.347 557.37 325.195 554.277 326.669 552.827C328.645 550.883 342.27 552.056 341.852 555.338C341.606 557.267 337.963 560.511 336.945 562.221C335.082 565.351 333.59 568.736 332.906 572.33C331.867 577.788 332.469 584.994 338.013 587.864C344.32 591.129 352.005 586.978 357.177 583.392C360.017 581.423 362.767 579.25 365.362 576.969C366.744 575.755 368.132 574.503 369.35 573.122C370.249 572.103 370.968 570.459 372.075 569.696C374.69 567.892 377.253 570.952 379.466 572.497C383.07 575.015 386.657 577.406 390.526 579.501C398.377 583.753 405.556 589.384 412.498 594.976C419.48 600.601 426.679 606.387 432.335 613.395C428.909 615.502 429.521 616.049 427.997 619.807C426.915 622.473 425.425 624.743 425.253 627.706C424.956 632.819 428.24 637.177 433.224 638.309C436.011 638.942 438.667 638.436 441.249 637.296C443.256 636.411 445.257 634.231 447.353 633.69C451.251 632.685 454.37 640.046 456.555 642.639C466.259 654.154 476.516 665.215 485.653 677.2C486.665 678.528 489.671 681.121 489.915 682.879C490.266 685.403 486.294 687.808 484.647 689.255C483.781 690.014 474.607 698.641 477.688 700.012C478.566 700.403 481.136 695.11 481.779 694.657C484.185 692.963 482.365 696.285 482.222 697.964C481.863 702.138 484.731 704.412 488.762 703.883C493.064 703.319 496.894 699.924 499.556 696.717C502.893 700.58 508.107 706.419 509.072 711.579C509.688 714.875 506.835 722.943 512.161 723.615C512.974 723.718 515.917 721.536 516.465 722.774C516.923 723.808 513.742 725.576 513.283 725.918C511.323 727.381 510.139 728.948 508.557 730.72C506.699 732.799 504.161 734.551 502.071 736.544C499.868 738.643 495.513 744.344 492.608 741.59C491.147 740.206 491.531 738.396 489.192 737.583C487.062 736.843 484.364 737.781 482.384 738.602C480.156 739.525 472.816 742.895 472.002 745.67C470.878 749.497 476.945 744.896 478.023 744.224C476.793 747.345 476.113 751.864 472.981 753.684C470.378 755.197 466.635 756.087 463.781 756.964ZM422.177 733.357C424.26 726.664 436.543 714.732 444.307 718.464C435.259 720.36 428.079 726.55 422.177 733.357ZM426.771 752.521C423.744 750.835 423.906 745.936 422.85 743.07C422.243 741.425 421.03 740.224 421.387 738.399C421.804 736.259 424.534 733.881 425.987 732.338C430.56 727.481 438.607 720.844 445.968 721.957C455.337 723.375 448.986 735.949 445.795 740.278C443.076 743.97 432.599 755.769 426.771 752.521ZM404.915 744.337C394.783 743.66 384.686 742.755 374.692 740.896C371.149 740.237 368.18 740.334 370.208 736.262C370.877 734.918 374.913 726.494 375.824 726.736C376.365 726.879 376.241 732.669 376.4 733.332C377.115 736.313 379.124 739.09 382.511 738.901C388.053 738.592 391.625 731.43 394.542 727.585C396.88 730.727 398.572 734.217 400.922 737.306C402.045 738.783 405.955 742.218 404.915 744.337ZM345.515 704.579C343.815 708.479 340.397 712.187 338.019 715.72C336.675 712.875 335.729 706.345 338.918 704.242C340.125 703.446 346.59 702.114 345.515 704.579ZM380.655 716.191C381.122 714.689 381.64 713.2 382.218 711.738C383.21 714.857 383.716 714.95 380.655 716.191ZM389.328 719.385C390.557 721.469 392.607 723.518 392.285 726.135C392.041 728.117 390.249 730.149 388.968 731.531C386.849 733.817 382.155 738.205 379.085 735.169C376.52 732.634 377.413 725.662 378.606 722.809C380.31 718.733 386.396 714.421 389.328 719.385ZM383.31 715.114C384.015 714.834 382.534 710.286 383.909 709.833C385.107 712.566 386.237 713.305 383.31 715.114ZM363.95 653.906C363.494 652.228 362.447 652.299 362.824 650.224C363.071 648.863 364.151 647.411 364.97 646.333C366.603 644.185 368.757 642.414 371.086 641.074C376.003 638.245 382.755 637.069 387.157 641.499C383.042 642.148 370.425 646.209 370.345 651.837C374.921 650.955 378.52 646.36 383.111 644.912C386.878 643.722 390.964 643.806 394.712 645.062C404.971 648.497 400.705 657.361 394.915 663.119C391.477 666.537 387.355 669.09 382.849 670.85C380.764 671.665 379.485 671.756 377.435 671.346C377.051 671.269 376.602 670.557 376.142 670.405C374.998 670.026 375.33 671.309 374.388 670.733C373.566 670.23 371.812 666.987 371.253 666.058C370.363 664.581 369.948 663.143 368.856 661.794C367.762 660.445 367.23 658.635 366.218 657.414C365.733 656.826 364.402 656.85 364.044 656.277C363.508 655.415 364.19 654.788 363.95 653.906ZM348.194 720.016C350.526 715.965 354.515 712.527 357.602 708.987C357.792 714.806 353.618 718.789 348.194 720.016ZM351.345 721.886C356.161 720.192 358.814 716.14 359.305 711.226C359.928 705.003 363.837 701.736 366.191 696.145C367.093 694.002 368.145 686.951 371.643 688.969C372.844 689.661 373.555 692.265 374.181 693.441C375.693 696.286 377.413 699.045 379.018 701.839C380.325 704.114 382.283 706.401 381.707 709.14C381.204 711.527 379.586 714.071 378.639 716.323C376.402 721.641 373.464 726.538 371.009 731.739C370.018 733.838 368.846 738.805 365.822 738.78C363.428 738.759 363.696 736.143 362.12 735.246C360.131 734.114 357.869 736.268 356.234 737.161C358.116 733.985 361.406 732.186 365.104 732.784C360.676 728.376 357.684 734.324 353.884 735.648C350.284 736.904 343.895 730.984 340.864 729.307C342.024 727.343 343.072 724.942 345.066 723.65C346.958 722.424 349.28 722.613 351.345 721.886ZM312.195 762.17C312.722 759.631 314.212 758.131 315.157 755.826C316.252 758.621 313.687 760.27 312.195 762.17ZM388.703 777.744C388.444 786.292 387.746 794.816 387.494 803.366C387.377 807.309 386.679 811.07 386.216 814.967C385.824 818.263 386.023 821.5 383.948 824.316C380.676 828.755 374.315 830.031 369.376 831.675C365.749 832.883 362.081 833.979 358.499 835.32C355.277 836.527 352.679 838.356 349.615 839.791C346.874 841.076 343.914 841.836 341.186 843.204C338.364 844.619 336.133 846.344 333.234 847.603C329.764 849.111 326.904 851.794 323.818 853.924C321.1 855.799 318.226 857.247 315.889 859.604C313.697 861.816 310.923 862.786 308.439 864.751C305.813 866.828 303.064 868.179 300.162 869.808C294.219 873.147 286.2 878.849 279.047 875.606C281.093 872.994 285.28 870.484 285.598 866.885C286.012 862.197 281.93 863.923 279.567 865.42C275.987 867.687 274.007 870.424 271.281 873.446C268.095 876.979 264.07 874.602 260.172 873.608C262.837 871.21 265.482 868.788 268.142 866.385C270.389 864.357 273.826 862.164 275.194 859.36C276.171 857.354 276.124 854.605 273.764 853.564C271.125 852.4 268.14 854.855 266.185 856.317C260.995 860.198 257.577 865.121 254.17 870.522C252.358 873.395 251.523 873.174 248.188 872.6C244.655 871.992 241.121 871.343 237.558 870.916C242.277 866.071 247.552 860.822 251.279 855.152C252.487 853.315 254.062 848.474 250.383 848.028C248.867 847.845 245.848 850.944 244.679 851.78C239.568 855.432 234.654 860.038 231.266 865.37C230.148 867.13 229.797 869.087 227.631 869.233C224.8 869.425 219.54 866.724 216.809 865.889C222.028 859.311 227.211 852.686 233.31 846.886C238.913 841.555 244.502 837.683 251.054 833.595C258.078 829.213 264.62 824.168 271.068 818.991C277.239 814.035 283.687 809.361 289.369 803.827C300.717 792.775 310.825 780.063 319.196 766.622C321.155 763.477 322.998 760.25 324.592 756.903C326.089 753.761 326.779 750.002 328.799 747.144C329.498 746.156 330.481 745.422 331.103 744.392C331.69 743.421 331.491 742.248 332.386 741.389C334.455 739.403 338.224 740.6 340.158 741.993C343.269 744.231 345.786 746.949 349.205 748.823C352.644 750.707 356.364 752.078 360.171 753.004C369.071 755.167 377.894 756.942 386.961 758.256C386.027 761.715 388.319 762.26 389.078 765.372C390 769.149 388.818 773.898 388.703 777.744ZM303.009 720.067C300.991 717.07 299.19 713.937 297.207 710.92C295.999 709.083 294.502 707.11 295.534 704.863C297.273 701.075 303.407 700.401 306.736 702.052C314.304 705.807 307.274 716.541 303.009 720.067ZM282.978 651.525C282.281 645.668 284.522 641.512 289.822 638.44C293.601 636.251 296.643 639.243 296.127 643.233C295.342 649.313 288.843 656.075 283.884 659.247C283.56 656.676 283.285 654.099 282.978 651.525ZM282.169 634.765C283.733 633.525 287.921 635.108 289.732 635.216C287.241 637.392 284.749 639.568 282.257 641.744C282.094 640.251 280.727 635.91 282.169 634.765ZM290.577 578.195C303.186 576.557 288.671 590.083 285.018 592.203C285.612 589.325 287.072 578.652 290.577 578.195ZM324.143 554.515C322.45 561.447 309.288 569.01 309.15 557.654C309.1 553.423 311.477 553.765 314.947 553.359C316.927 553.128 325.11 550.551 324.143 554.515ZM278.681 565.251C277.203 569.127 276.019 573.104 274.571 576.986C273.929 578.704 273.174 579.885 271.979 581.247C270.978 582.386 269.788 582.673 269.827 584.473C271.081 584.231 272.061 583.484 273.074 582.764C272.828 586.332 271.567 590.171 270.956 593.728C270.224 597.992 269.615 602.259 269.389 606.583C268.899 615.987 268.895 625.356 269.101 634.765C269.207 639.56 269.254 644.357 269.513 649.146C269.642 651.529 269.788 653.921 270.083 656.289C270.202 657.245 270.896 659.28 270.467 660.176C268.783 663.693 261.324 654.032 258.084 655.45C258.55 652.774 257.475 653.359 255.68 652.043C254.81 651.405 254.245 650.32 253.338 649.751C253.063 649.456 252.761 649.193 252.432 648.962C252.057 648.451 251.662 648.506 251.246 649.125C247.596 646.944 246.653 642.296 244.694 639.169C243.686 637.561 242.713 637.31 242.541 635.087C242.392 633.15 242.683 631.176 242.605 629.231C242.516 627.037 242.387 624.618 241.771 622.493C241.057 620.026 240.074 620.228 238.159 618.913C238.749 618.655 239.138 618.222 239.326 617.613C238.715 617.722 236.856 618.48 236.394 617.935C235.487 616.865 237.629 616.723 238.192 616.296C235.789 615.23 236.307 614.353 237.174 612.399C237.419 611.846 237.654 611.02 237.862 610.554C238.318 609.535 238.58 610.18 238.731 608.915C238.874 607.709 237.804 605.336 237.489 604.051C236.96 601.894 236.668 600.031 237.143 597.784C237.527 595.965 238.562 594.318 238.634 592.448C238.655 591.923 237.854 591.748 237.843 591.241C237.828 590.5 238.52 590.174 238.7 589.489C239.159 587.736 238.952 585.883 239.738 584.219C240.445 582.726 241.874 580.793 242.885 579.489C243.586 578.585 245.305 577.567 245.493 576.375C245.618 575.584 244.387 575.675 244.442 575.08C244.516 574.274 245.193 574.013 245.378 573.414C245.89 571.77 246.019 570.19 247.341 568.931C249.006 567.345 249.73 568.009 249.798 565.394C249.832 564.118 248.811 563.921 249.358 562.45C249.655 561.652 250.532 561.18 251.093 560.614C252.758 558.935 253.88 557.444 255.066 555.369C256.115 553.536 257.787 552.47 258.861 550.886C260.26 548.823 258.169 547.8 261.008 547.218C260.604 545.937 260.175 544.902 261.237 543.817C261.907 543.133 263.606 543.552 264.199 542.761C264.878 541.852 263.874 539.7 264.898 539.11C265.731 538.632 266.977 540.108 268.286 539.377C269.283 538.82 270.788 535.745 270.467 534.615C273.045 536.064 272.403 535.066 273.636 533.206C273.913 532.789 274.752 532.696 274.99 532.275C275.466 531.434 275.357 530.577 276.043 529.893C277.187 528.754 279.058 529.047 280.316 528.233C281.356 527.562 281.301 526.838 282.13 526.204C282.839 525.663 284.003 525.559 284.693 524.997C286.043 523.898 286.056 522.738 287.745 521.791C289.745 520.671 291.516 519.717 293.335 518.231C294.522 517.263 295.647 515.547 297.035 514.908C298.954 514.024 300.449 513.962 302.326 512.701C303.682 511.79 304.965 510.286 306.297 509.518C307.302 508.939 308.007 509.064 309.273 508.705C311.552 508.059 312.107 505.912 313.967 505.038C315.243 504.438 317.101 504.988 318.503 504.672C322.865 503.694 327.173 501.582 331.55 500.412C336.893 498.986 342.273 497.736 347.656 496.475C342.709 503.178 336.408 509.225 330.017 514.549C327.92 516.297 316.425 524.264 322.621 527.666C325.108 529.031 330.511 524.621 332.519 523.543C336.563 521.372 340.751 519.634 344.986 517.878C351.834 515.038 360.753 509.988 368.363 510.394C363.73 516.076 357.947 520.637 352.649 525.656C347.779 530.269 340.442 534.595 342.739 542.145C335.899 540.405 329.755 538.349 322.644 538.805C319.459 539.009 316.272 538.625 313.101 539.072C309.653 539.559 306.406 540.712 303.093 541.725C300.472 542.525 297.575 542.588 295.163 543.919C293.998 544.563 292.557 545.482 291.51 546.28C290.114 547.345 289.796 548.05 288.7 549.453C284.789 554.459 281.005 559.152 278.681 565.251ZM257.289 659.998C257.076 659.132 256.882 658.341 256.637 657.352C258.814 658.692 258.814 658.692 257.289 659.998ZM240.838 632.403C240.57 632.774 239.442 632.893 239.115 632.573C238.707 632.175 239.779 630.625 239.951 630.296C240.376 630.622 241.353 631.689 240.838 632.403ZM236.177 622.36C236.466 621.302 236.755 620.245 237.043 619.187C237.396 620.167 238.992 621.251 239.027 622.186C239.049 622.805 236.493 622.497 236.177 622.36ZM237.103 623.812C239.6 625.455 239.861 627.395 239.936 630.232C236.947 629.243 237.376 626.35 237.103 623.812ZM280.54 511.85C280.287 512.533 279.217 514.658 278.433 513.171C278.183 512.696 280.018 512.046 280.54 511.85ZM279.822 509.533C280.44 508.977 281.684 509.669 282.382 509.22C282.872 508.904 282.71 508.585 282.94 508.398C282.986 508.36 283.651 507.014 283.924 506.708C284.405 506.171 285.456 505.836 286.041 505.351C287.677 503.996 288.6 502.214 289.629 500.401C290.857 498.236 291.249 497.986 293.229 496.995C294.594 496.312 295.653 495.475 296.764 494.314C298.044 492.976 297.95 492.019 299.001 490.557C299.52 489.835 300.268 489.746 300.873 489.165C301.598 488.468 301.967 487.495 302.637 486.792C302.927 486.488 303.857 486.489 304.032 486.228C304.256 485.899 304.43 484.582 304.639 484.34C305.04 484.88 305.441 485.421 305.84 485.961C307.419 483.187 308.571 480.894 311.21 479.047C313.982 477.108 316.375 474.271 319.24 472.534C319.884 472.144 321.196 471.98 321.688 471.405C322.52 470.432 321.8 469.566 322.406 468.74C323.095 467.803 324.428 468.561 325.304 468.157C326.411 467.646 326.728 466.153 328.154 466.318C323.465 471.863 323.524 480.492 323.275 487.418C323.167 490.403 325.047 491.908 322.271 494.098C319.91 495.961 316.581 495.408 313.789 496.634C310.283 498.174 306.534 498.993 302.957 500.335C299.258 501.723 296.283 504.153 292.722 505.761C289.583 507.178 287.438 509.193 284.567 510.942C283.499 511.592 281.845 512.537 280.572 511.759C279.775 511.272 278.782 510.472 279.822 509.533ZM332.783 463.034C332.987 462.246 336.989 460.176 337.974 459.5C339.452 458.484 341.639 456.004 343.289 456.99C343.86 454.701 346.09 452.155 348.061 451.67C350.247 451.131 353.997 449.257 356.148 447.622C356.776 447.144 356.983 446.445 357.722 445.997C359.009 445.217 360.286 445.643 361.526 444.579C361.715 444.417 363.431 441.585 363.499 441.612C363.586 441.916 363.666 442.223 363.736 442.532C365.038 441.81 366.197 441.236 367.008 440.316C367.192 440.107 366 439.564 366.376 439.15C366.837 438.644 367.866 439.21 368.332 438.729C366.883 445.92 367.962 455.176 375.26 458.822C366.581 459.76 358.104 457.151 349.318 458.753C345.113 459.52 340.838 460.779 337.012 462.713C334.668 463.898 331.671 468.142 329.338 466.082C330.264 464.848 331.676 464.081 332.783 463.034ZM374.894 442.346C378.139 438.378 383.061 436.808 388.019 438.229C393.824 439.893 391.376 443.947 390.499 448.449C388.824 445.994 385.196 443.559 382.106 443.485C377.726 443.381 379.382 447.029 382.012 448.337C384.403 449.524 388.504 449.855 390.216 452.015C391.882 454.117 391.243 457.553 391.512 460.032C390.217 459.839 388.921 459.647 387.626 459.454C388.713 453.67 383.928 453.39 379.467 451.759C374.959 450.112 371.201 446.862 374.894 442.346ZM389.431 428.103V433.471C387.626 432.442 385.821 431.414 384.016 430.386C385.821 429.625 387.626 428.864 389.431 428.103ZM403.938 470.995C409.964 472.628 415.948 474.355 421.741 476.607C423.845 477.425 426.15 477.715 428.211 478.638C430.174 479.517 430.469 479.426 429.771 481.145C427.815 485.964 423.181 485.132 419.121 484.395C412.767 483.241 406.544 481.641 400.269 480.136C394.136 478.665 387.873 477.701 381.832 475.859C375.633 473.968 369.592 472.178 363.215 470.93C361.354 470.565 346.634 469.215 346.745 467.677C356.017 466.473 365.562 467.659 374.874 467.785C384.552 467.915 394.551 468.451 403.938 470.995ZM395.757 452.356C395.873 449.043 395.919 445.72 396.33 442.426C399.089 445.83 401.578 446.848 405.055 443.658C408.384 440.605 409.126 439.013 413.346 441.883C417.005 444.373 420.466 444.259 424.352 442.079C426.722 440.75 430.53 435.318 433.022 436.436C434.209 436.969 435.079 439.118 436.277 439.908C437.781 440.898 440.094 441.585 441.847 441.969C445.987 442.876 448.453 440.214 451.052 437.367C454.82 433.238 454.71 435.637 458.204 438.499C462.101 441.693 465.359 440.132 468.887 437.407C471.037 443.703 471.841 450.579 472.449 457.18C472.653 459.408 473.419 462.573 471.416 464.149C470.005 465.26 467.009 465.304 465.309 465.918C459.234 468.114 453.397 471.229 448.317 475.216C446.337 476.77 444.611 478.673 441.907 478.319C439.329 477.982 436.823 475.824 434.75 474.4C432.5 472.855 430.223 471.101 427.594 470.24C426.054 469.736 423.587 469.918 422.24 468.993C419.735 467.274 422.683 462.765 422.059 459.738C421.586 457.439 420.263 452.647 417.097 453.994C412.385 455.999 415.127 463.823 417.718 466.265C412.417 465.324 406.548 463.95 401.436 462.204C397.486 460.855 395.616 456.398 395.757 452.356ZM484.662 468.493C495.544 465.439 505.727 463.379 517.051 462.823C522.064 462.576 526.917 462.732 531.874 462.777C534.728 462.803 536.902 460.503 534.622 457.856C531.467 454.192 521.843 455.587 517.579 455.422C506.148 454.981 495.668 456.28 484.842 460.046C485.987 457.938 488.737 457.665 490.622 456.574C492.934 455.236 494.506 453.032 495.494 450.586C498.064 444.223 495.477 438.228 492.788 432.416C498.07 433.836 503.533 436.946 508.842 437.736C509.955 437.901 510.669 437.795 511.654 438.2C512.258 438.448 512.449 439.308 513.198 439.495C513.56 439.586 514.429 438.769 514.839 438.884C516.455 439.341 515.177 439.462 516.199 440.124C517.01 440.649 516.945 441.325 518.433 441.077C519.093 440.968 519.809 439.947 520.157 439.919C520.599 439.883 520.497 439.344 521.175 439.502C522.408 439.788 522.299 441.376 522.71 442.158C523.149 442.99 522.526 444.096 523.856 444.552C524.851 444.893 525.101 443.843 525.946 443.918C526.46 443.964 527.525 444.703 527.979 445.154C529.44 446.605 531.441 448.208 533.406 449.152C533.213 448.958 534.332 448.491 534.064 448.381C533.884 448.308 535.06 448.591 535.042 448.587C536.176 448.845 536.776 450.586 537.349 451.221C538.403 452.385 540.041 453.614 541.519 454.127C544.074 455.016 543.996 453.954 544.929 456.989C546.745 454.134 547.442 458.915 549.695 459.442C550.862 459.715 550.726 459.215 551.786 459.825C552.514 460.244 552.999 461.525 553.548 462.144C553.783 461.252 554.018 460.359 554.253 459.468C555.876 462.541 559.378 467.414 563.219 466.533C563.219 467.372 562.874 468.374 563.523 469.09C563.977 469.591 564.711 469.022 565.066 469.313C565.376 469.567 566.117 470.577 566.354 470.744C566.822 471.071 567.671 471.311 568.077 471.637C568.434 471.925 568.611 473.298 569.008 473.795C569.754 474.728 571.043 474.913 571.653 476.031C571.793 474.928 571.932 473.824 572.07 472.721C573.28 473.655 573.384 474.381 573.681 475.748C574.104 477.695 573.543 477.239 574.886 478.06C576.206 478.869 576.894 478.778 578.104 480.18C579.291 481.554 579.301 482.401 581.013 480.969C581.332 482.028 581.434 483.399 582.284 484.21C582.926 484.824 585.584 484.85 585.838 486.299C580.844 482.087 584.13 488.484 585.84 486.31C586.201 488.637 587.906 489.389 589.852 491.047C591.667 492.592 591.964 492.479 592.583 495.075C592.57 495.018 593.495 495.592 593.563 495.706C591.794 495.959 594.536 497.934 594.999 498.295C595.337 498.559 595.778 497.929 596.339 498.356C596.982 498.844 597.505 499.954 598.028 500.623C599.446 502.437 600.494 503.996 601.986 505.471C603.595 507.063 604.378 509.075 605.924 510.936C607.638 513.003 608.565 515.379 609.999 517.622C611.362 519.756 613.172 521.468 614.751 523.422C617.266 526.531 618.122 533.378 622.812 533.558C622.537 533.842 622.919 535.964 622.964 536.356C623.186 538.283 623.039 540.137 624.179 541.883C624.44 539.892 625.482 540.659 626.388 541.705C627.893 543.445 626.571 543.007 626.651 544.771C626.747 546.908 626.99 545.255 627.805 547.121C628.443 548.583 628.792 549.532 629.135 551.154C626.485 551.364 625.272 549.2 624.293 547.103C623.884 546.226 623.742 544.785 623.017 544.099C622.246 543.369 621.187 543.312 620.394 542.498C618.873 540.933 618.214 538.494 616.421 536.972C614.396 535.252 613.947 534.439 612.273 532.383C610.421 530.108 607.864 528.511 605.921 526.311C603.975 524.107 604.133 525.31 601.689 524.513C599.089 523.663 594.886 515.493 591.612 518.64C591.741 516.582 588.657 514.646 587.098 513.9C586.425 513.578 585.64 513.869 584.966 513.386C584.235 512.862 584.182 511.851 583.445 511.222C583.445 511.223 582.314 511.496 582.085 511.381C581.617 511.144 581.614 510.307 581.201 510.032C580.06 509.27 578.7 508.47 577.489 507.821C574.545 506.242 571.943 504.299 569.102 502.399C566.669 500.77 563.724 497.83 560.911 496.972C558.454 496.222 556.909 496.604 554.898 495.103C553.801 494.285 554.124 494.011 552.363 493.502C550.686 493.018 549.745 493.267 548.857 491.49C547.303 488.38 548.284 482.31 547.983 478.823C547.664 475.121 547.285 471.329 546.32 467.73C545.178 463.476 543.67 461.253 539.105 462.254C530.062 464.241 521.129 466.132 512.045 467.876C493.944 471.352 476.153 477.025 458.449 482.061C457.101 482.445 449.578 484.167 451.115 480.278C451.823 478.484 456.584 477.816 458.178 477.253C466.928 474.157 475.718 471.003 484.662 468.493ZM481.621 460.578C480.299 461.082 478.978 461.585 477.655 462.09V458.415C478.978 459.136 480.299 459.856 481.621 460.578ZM476.127 441.146C477.276 442.085 479.611 439.826 480.588 439.368C482.256 438.587 484.381 437.916 486.245 438.077C489.682 438.374 492.197 441.757 491.567 445.187C490.501 450.991 482.229 453.736 477.668 456.004C477.522 453.948 476.856 451.475 478.299 449.696C479.551 448.151 481.98 448.264 483.136 446.621C486.045 442.491 478.162 442.117 476.4 445.4C475.705 443.302 475.01 441.204 474.315 439.105C475.993 438.828 475.256 440.435 476.127 441.146ZM484.263 429.786C482.621 430.847 480.98 431.908 479.339 432.968C478.526 429.296 481.298 428.813 484.263 429.786ZM633.813 557.582C631.663 558.607 631.126 556.158 629.581 556.053C631.406 554.931 631.406 554.931 633.813 557.582ZM642.554 611.052C642.822 614.571 642.612 618.132 643.081 621.637C643.438 624.304 644.519 626.786 644.634 629.483C644.887 635.39 642.891 641.405 638.862 645.735C635.05 649.831 629.596 653.356 624.451 655.078C622.132 655.853 619.712 657.572 617.46 658.208C614.969 658.911 612.602 657.381 610.547 660.126C609.177 648.35 610.178 636.045 610.07 624.194C609.962 612.318 610.09 600.438 608.08 588.69C606.29 578.227 602.762 566.458 596.258 557.898C593.617 554.422 590.364 551.575 586.934 548.91C585.154 547.527 583.373 546.049 581.391 544.957C578.34 543.277 575.742 543.509 572.424 543.03C567.675 542.345 563.26 541.766 558.494 543.102C554.057 544.347 549.17 545.765 545.196 547.927C541.237 550.082 536.639 550.97 532.529 552.9C529.733 554.212 523.926 558.598 520.824 557.809C517.821 557.044 513.376 551.949 511.459 549.668C509.009 546.751 506.982 543.371 504.808 540.233C504.045 539.132 502.489 537.429 502.291 536.014C501.946 533.559 502.93 534.361 505.276 534.636C511.31 535.344 516.984 536.462 522.767 538.361C525.644 539.305 531.271 543.127 534.148 540.837C538.542 537.34 531.866 531.331 529.421 529.312C525.254 525.872 520.41 523.318 515.969 520.261C511.251 517.013 505.012 513.555 501.976 508.553C510.843 511.17 519.701 514.167 528.309 517.54C532.248 519.083 536.14 520.714 539.839 522.766C541.917 523.919 546.115 527.036 548.617 525.543C554.056 522.297 541.564 512.871 539.761 510.944C536.961 507.951 534.216 504.986 531.138 502.27C529.061 500.438 525.799 499.15 524.834 496.447C528.28 497.694 531.067 500.137 534.295 501.797C535.985 502.667 537.526 503.168 539.393 503.434C541.382 503.719 541.62 504.036 543.187 504.826C544.408 505.443 545.662 506.267 547.033 506.686C548.009 506.985 549.715 507.037 550.569 507.591C551.006 508.213 551.456 508.825 551.922 509.426C552.442 509.579 552.955 509.755 553.46 509.956C554.217 510.631 554.666 511.561 555.403 512.257C560.749 517.311 567.899 520.928 573.892 525.161C579.562 529.166 585.58 532.79 591.026 537.161C597.292 542.192 603.797 547.6 609.127 553.633C612.14 557.042 614.616 560.908 617.147 564.678C618.979 567.408 621.644 569.673 623.227 572.488C626.68 578.625 629.546 585.259 633.263 591.297C637.051 597.449 641.985 603.563 642.554 611.052ZM591.612 646.66C592.644 642.401 598.47 637.428 602.194 635.55C600.317 640.191 595.318 643.355 591.612 646.66ZM601.219 661.518C598.043 668.104 584.079 668.858 585.974 659.11C586.902 654.335 590.842 651.404 594.224 648.279C595.788 646.835 599.617 641.668 602.037 642.5C601.924 646.215 601.705 649.945 601.713 653.661C601.718 656.141 602.343 659.187 601.219 661.518ZM597.183 585.601C598.471 588.494 599.755 590.903 597.364 593.491C596.286 594.659 592.771 597.214 591.181 596.647C586.077 594.827 595.808 586.903 597.183 585.601ZM566.31 559.862C567.54 559.795 568.733 559.978 569.948 559.903C571.158 559.828 571.286 559.613 572.407 559.766C572.526 559.938 572.644 560.11 572.763 560.282C572.916 561.436 573.522 561.562 574.581 560.659C576.054 560.987 577.012 561.205 578.42 562.001C574.619 564.74 569.993 567.926 565.333 568.845C557.968 570.298 560.003 560.209 566.31 559.862ZM453.403 621.472C452.639 623.007 450.443 619.17 449.899 618.455C450.913 618.452 454.175 619.922 453.403 621.472ZM512.58 581.045C518.302 577.707 525.098 574.776 531.244 572.291C532.324 577.496 527.054 584.215 523.808 587.777C521.183 590.657 518.018 593.644 514.459 595.302C510.612 597.094 506.406 596.307 506.593 591.278C506.662 589.44 507.08 586.483 507.828 584.803C508.793 582.638 510.617 582.188 512.58 581.045ZM435.229 486.368C436.081 486.318 445.333 485.122 445.284 486.273C445.138 489.731 436.158 487.016 435.229 486.368ZM369.806 553.152C374.693 547.125 382.582 540.619 382.697 532.195C382.867 519.8 369.106 525.984 362.188 526.5C365.846 522.906 384.23 507.832 373.356 502.478C370.23 500.939 365.788 502.443 362.652 503.249C357.088 504.68 351.914 507.157 346.447 508.881C350.353 504.725 357.102 500.001 356.881 493.705C356.611 486.043 350.319 487.895 344.878 489.02C342.787 489.452 333.447 493.166 331.692 490.645C331.05 489.721 332.089 488.547 332.31 487.725C332.699 486.269 332.578 485.762 332.591 484.275C332.618 481.276 334.612 477.425 332.986 474.635C332.614 475.269 332.296 475.928 332.031 476.614C331.495 474.99 331.855 473.269 331.319 471.645C344.902 475.118 358.721 477.019 372.389 479.983C379.309 481.484 385.821 484.068 392.836 485.231C399.91 486.403 406.861 488.197 413.948 489.315C420.415 490.335 426.61 492.033 433.013 493.335C439.256 494.605 445.658 491.822 451.75 490.414C465.397 487.259 479.038 484.027 492.703 480.965C508.471 477.431 524.874 474.41 539.967 468.516C540.259 476.371 540.888 484.212 541.848 492.013C535.182 488.863 525.29 484.756 518.552 490.392C515.855 492.647 515.024 496.541 516.09 499.852C517.25 503.457 520.804 505.131 523.149 507.844C516.012 506.016 497.603 493.121 494.326 506.155C492.012 515.36 503.301 521.306 508.821 526.487C503.339 525.414 495.998 521.033 492.779 528.075C489.998 534.162 493.348 540.785 496.78 545.806C498.64 548.526 500.732 551.086 502.709 553.722C503.755 555.116 504.775 556.53 505.874 557.883C506.976 559.24 509.055 560.661 509.827 562.121C511.381 565.066 508.244 565.247 505.804 566.31C502.758 567.639 500.143 569.87 497.357 571.648C490.978 575.72 485.402 579.501 477.864 580.802C470.103 582.142 462.63 583.54 454.972 585.409C447.337 587.271 441.104 589.061 433.3 586.654C429.742 585.556 426.844 584.581 423.07 584.787C419.106 585.004 416.788 584.799 413.529 582.344C399.504 571.785 384.281 563.12 369.806 553.152ZM344.523 542.551C349.943 539.833 355.399 537.1 360.998 534.764C365.633 532.83 372.67 530.577 377.743 531.424C376.313 535.097 373.703 538.11 370.904 540.815C368.429 543.206 365.336 546.816 362.34 548.485C359.62 550 356.455 547.6 353.772 546.595C350.824 545.491 346.767 544.975 344.523 542.551ZM345.885 556.267C348.586 555.145 354.391 558.91 356.848 559.888C361.675 561.813 366.53 563.823 370.785 566.859C365.589 572.861 359.706 578.349 352.714 582.204C348.114 584.74 340.361 587.65 336.022 583.044C330.571 577.257 337.124 565.464 340.983 560.505C341.111 561.354 341.24 562.201 341.368 563.05C342.6 561.079 343.539 557.241 345.885 556.267ZM445.046 607.637C441.677 608.346 440.531 607.705 438.307 605.122C436.803 603.376 435.325 601.563 433.63 599.992C431.899 598.39 427.626 594.527 433.071 596.752C438.033 598.779 442.285 599.793 447.745 598.998C453.988 598.091 459.809 595.452 465.965 594.116C462.59 597.068 459.24 600.049 455.859 602.993C452.287 606.102 449.585 606.681 445.046 607.637ZM445.817 631.377C438.432 636.933 423.565 636.331 428.569 624.108C429.329 622.251 430.393 620.504 431.623 618.923C432.033 618.395 432.764 617.3 433.348 616.946C434.981 615.955 434.529 615.836 436.099 617.487C437.454 618.911 448.042 630.549 445.817 631.377ZM443.627 610.138C444.304 609.918 447.154 608.266 447.803 609.18C448.461 610.106 442.873 613.308 443.627 610.138ZM497.388 694.865C495.728 698.836 482.439 704.586 484.915 696.58C486.011 693.033 487.045 690.348 491.181 690.079C493.569 689.924 498.85 691.367 497.388 694.865ZM521.225 641.043C523.412 637.859 530.636 633.553 533.721 638.302C535.207 640.59 531.601 641.762 529.42 641.174C528.249 640.857 527.291 640.157 526.018 640.105C524.382 640.038 522.782 641.321 521.225 641.043ZM527.024 644.204C525.537 645.709 516.565 653.256 515.112 652.092C518.042 647.905 521.406 643.229 527.024 644.204ZM512.372 720.572C509.257 720.748 510.812 716.055 511.114 714.178C511.868 715.485 515.833 720.376 512.372 720.572ZM520.288 712.16C519.28 710.367 516.564 707.699 517.178 705.393C517.648 703.629 521.886 701.258 523.661 702.27C526.018 703.614 522.601 712.457 520.288 712.16ZM594.209 693.362C592.877 697.952 591.495 696.767 587.317 697.657C583.125 698.549 580.226 702.107 576.536 704.016C577.818 701.306 578.613 698.005 580.759 695.806C581.256 695.299 584.298 694.296 582.565 693.12C581.049 692.092 578.871 695.428 578.221 696.337C575.024 700.812 572.788 706.275 570.942 711.424C570.034 713.952 569.307 716.528 568.877 719.183C568.494 721.55 568.908 724.026 568.517 726.33C567.888 730.042 562.845 730.061 559.812 731.018C557.066 731.884 554.333 732.824 551.483 733.29C549.012 733.695 546.448 732.958 544.054 733.444C541.461 733.971 540.296 735.509 537.349 735.161C534.946 734.879 532.698 733.774 530.262 733.663C527.983 733.561 525.71 734.349 523.444 733.707C521.158 733.06 521.268 732.809 521.788 730.563C522.113 731.169 522.439 731.775 522.765 732.381C523.676 731.666 524.306 729.489 524.865 728.466C525.731 726.882 526.437 726.334 526.116 724.361C525.643 721.446 523.015 719.373 522.419 716.602C521.796 713.71 523.936 711.345 525.2 708.931C526.928 705.626 526.905 703.175 525.457 699.758C526.549 700.046 527.641 700.334 528.734 700.623C527.236 697.374 522.159 698.691 519.613 699.654C518.333 700.137 516.306 702.038 514.929 701.989C513.037 701.923 512.05 699.436 511.237 698.067C508.884 694.105 506.198 690.193 503.415 686.515C502.649 685.503 501.646 684.853 501.911 683.7C502.136 682.722 504.33 681.334 505.042 680.731C507.712 678.475 511.109 677.224 513.617 674.849C517.407 671.26 521.777 668.688 525.651 665.17C529.688 661.504 533.846 658.138 538.053 654.675C542.313 651.167 546.004 647.033 550.233 643.489C551.329 645.474 553.452 652.583 555.88 653.133C558.711 653.774 558.627 650.425 558.486 648.411C558.285 645.539 556.691 642.749 556.513 640.009C556.322 637.078 559.143 635.767 561.273 634.072C564.561 631.452 571.84 625.487 567.928 620.576C564.557 616.347 553.597 624.456 550.576 626.894C548.009 628.967 546.025 630.841 543.134 632.475C541.101 633.624 537.692 638.042 535.282 637.634C532.416 637.149 531.296 634.02 527.791 634.123C524.365 634.223 521.454 636.69 519.33 639.167C514.527 644.765 512.876 652.256 508.5 658.092C506.342 660.969 503.543 663.344 501.202 666.067C498.631 669.054 498.085 672.497 495.551 675.421C488.297 665.761 480.395 656.615 472.746 647.272C468.926 642.607 465.185 637.886 461.447 633.155C460.047 631.382 458.467 629.719 457.184 627.856C455.427 625.306 455.743 623.257 455.053 620.413C454.747 619.152 453.316 617.642 453.699 616.437C454.214 614.818 457.835 613.547 459.141 612.885C464.473 610.179 469.31 606.797 474.282 603.491C483.489 597.371 492.803 591.631 502.595 586.403C502.427 588.655 500.96 590.99 501.945 593.249C502.404 591.95 503.13 586.158 504.866 585.909C504.534 585.957 504.807 593.336 505.076 594.389C505.877 597.534 508.202 599.684 511.529 599.662C517.865 599.621 523.544 592.732 527.061 588.167C529.442 585.077 531.729 581.483 532.568 577.616C533.322 574.143 532.492 571.728 536.103 569.964C543.513 566.346 550.982 563.399 558.907 561.481C558.551 564.894 557.562 569.097 560.665 571.552C564.091 574.262 568.574 571.847 571.8 570.054C574.995 568.279 579.922 563.4 583.675 564.817C587.366 566.211 589.935 570.839 592.001 573.912C593.822 576.62 595.804 578.574 593.695 581.593C591.332 584.976 589.793 588.279 587.9 591.954C587.172 593.366 586.478 594.288 586.992 595.735C587.159 596.205 589.057 599.002 589.572 599.403C592.859 601.961 597.299 597.096 599.646 595.249C600.474 603.201 600.659 611.119 600.993 619.096C601.238 624.939 603.5 630.692 598.704 634.963C593.909 639.232 589.906 643.616 586.984 649.397C585.423 652.486 584.023 655.656 582.334 658.68C581.206 660.701 578.826 663.664 580.282 666.043C581.819 664.585 582.276 662.369 583.557 660.725C584.324 664.136 585.096 667.921 588.705 669.366C592.858 671.03 596.986 668.152 600.665 666.55C599.346 675.67 596.773 684.532 594.209 693.362ZM589.964 703.845C587.114 709.934 584.539 717.277 579.276 721.761C578.12 722.745 573.21 726.589 571.341 725.945C569.755 725.398 570.628 722.194 570.904 720.821C572.307 713.852 574.732 709.467 580.385 705.021C582.725 703.181 585.729 700.829 588.746 700.375C591.993 699.886 591.058 701.505 589.964 703.845ZM670.36 848.392C662.97 838.346 652.526 830.539 642.655 822.993C638.184 819.574 633.257 817.011 628.74 813.591C623.633 809.725 618.446 805.996 612.726 803.083C601.88 797.559 590.049 793.707 579.814 787.175C574.822 783.989 569.362 780.91 564.669 777.333C562.608 775.762 560.787 773.752 558.925 771.953C557.194 770.281 553.478 767.853 552.79 765.406C555.67 764.935 557.308 762.141 559.878 761.856C560.725 761.762 566.031 763.165 565.305 760.592C567.23 760.544 567.454 760.515 569.067 760.094C569.735 759.92 570.527 760.193 571.202 759.953C572.235 759.589 572.939 758.536 573.982 758.132C574.724 757.845 577.479 758.165 577.896 757.808C579.037 756.834 577.825 756.92 577.145 755.704C579.361 755.648 580.883 756.767 583.105 755.577C583.781 755.214 584.353 754.379 585.009 753.947C586.172 753.178 586.592 754.369 587.388 752.775C588.133 754.974 588.113 754.366 589.909 753.719C591.698 753.074 592.989 752.609 595.027 752.448C599.894 752.063 604.779 752.653 609.624 752.308C611.396 752.181 612.911 751.779 614.672 752.01C616.223 752.214 615.755 753.292 617.044 751.84C617.344 751.503 616.376 750.579 616.84 750.094C617.044 749.879 617.712 750.03 617.965 749.92C620.23 748.932 620.24 750.312 620.642 752.112C621.97 751.801 623.325 751.519 624.48 750.74C623.897 750.22 622.921 749.646 623.484 748.696C625.4 749.421 626.652 749.086 625.695 751.189C627.622 751.825 627.983 750.996 629.714 750.814C630.738 750.706 632.168 751.342 633.021 750.525C633.952 749.632 632.483 748.662 634.194 747.895C634.545 748.073 634.805 748.343 634.975 748.702C635.899 748.982 635.733 749.345 634.476 749.793C637.842 751.537 637.051 749.588 638.464 747.525C638.791 747.05 640.253 745.574 640.918 746.287C641.929 747.368 639.867 747.712 640.309 748.787C641.075 750.652 643.749 748.262 644.569 747.318C645.19 746.605 645.443 745.237 646.113 744.704C647.042 743.963 648.38 745.108 649.544 744.903C654.861 743.971 659.883 736.824 655.877 732.04C654.801 730.754 653.889 731.009 652.607 730.198C651.338 729.396 650.627 728.009 649.609 726.863C647.286 724.247 644.441 722.288 641.193 721.036C633.658 718.13 625.539 716.01 617.627 714.451C613.962 713.729 610.061 712.624 606.309 712.632C604.099 712.636 600.77 714.354 598.704 713.531C594.687 711.931 600.584 703.739 601.558 701.093C604.416 693.319 606.574 685.03 607.988 676.87C608.265 675.272 608.159 673.204 608.734 671.682C609.395 669.932 609.536 670.18 610.95 670.037C613.505 669.779 616.298 671.118 618.958 670.656C621.906 670.143 625.092 670.381 628.068 669.47C629.436 669.051 630.704 668.596 631.604 667.442C631.889 667.08 631.573 666.764 631.752 666.511C631.808 666.431 632.825 665.334 632.858 665.271C632.848 664.704 632.897 664.14 633.006 663.582C634.038 664.438 633.529 666.234 635.267 666.275C635.577 664.361 635.581 663.975 636.837 662.898C636.742 662.981 637.784 662.096 637.65 662.19C637.713 661.849 637.839 661.531 638.025 661.236C638.613 660.952 639.234 660.802 639.887 660.785C641.245 659.388 640.681 658.644 640.681 656.764C641.777 657.333 642.873 657.902 643.97 658.472C644.235 652.903 647.627 649.854 649.88 645.341C650.841 643.418 651.819 641.915 652.048 639.595C652.181 638.257 651.835 637.077 652.39 635.815C652.892 634.671 654.017 634.054 654.487 632.808C655.412 630.355 654.722 627.224 654.773 624.677C654.843 621.144 655.196 617.623 655.312 614.092C655.538 607.161 654.841 600.038 653.804 593.186C653.307 589.909 652.477 586.73 651.826 583.487C651.289 580.822 650.007 578.322 649.548 575.843C649.357 574.813 649.652 573.888 649.341 572.749C648.932 571.251 648.247 569.778 647.738 568.307C646.549 564.871 645.374 561.44 644.037 558.058C641.446 551.502 638.413 545.143 635.531 538.714C632.759 532.531 630.463 526.156 626.873 520.383C623.336 514.696 619.528 509.106 615.631 503.662C611.571 497.994 606.438 493.123 602.501 487.402C595.108 476.66 584.797 467.809 574.009 460.5C551.749 445.417 527.693 430.357 501.001 425.186C496.978 424.407 492.903 423.866 488.803 423.766C486.26 423.702 482.044 424.932 479.636 424.071C476.938 423.107 477.185 420.078 476.51 417.702C475.641 414.648 473.682 412.647 471.458 410.488C469.117 408.215 466.991 405.561 464.071 404.015C461.112 402.45 457.621 401.865 454.342 401.391C451.415 400.968 447.04 401.363 444.366 400.088C441.93 398.926 443.133 397.716 445.414 398.711C445.581 397.705 445.716 397.056 446.361 396.279C446.684 395.888 448.214 395.34 448.25 394.976C448.294 394.549 447.011 393.333 446.828 392.783C446.433 391.598 446.657 389.957 447.126 388.844C449.425 390.888 450.092 391.793 452.659 389.839C453.744 389.015 454.076 388.651 455.332 388.235C455.672 388.122 456.436 388.471 456.733 388.275C457.868 387.528 456.824 387.704 457.364 386.821C457.228 387.044 458.181 384.698 458.136 385.188C458.251 383.938 458.621 384.322 457.867 382.787C456.388 379.782 452.623 379.66 454.542 376.231C455.297 374.882 455.961 375.017 456.174 373.061C456.288 372.009 456.146 370.803 456.142 369.734C456.133 367.546 456.544 366.014 454.494 364.901C452.523 363.829 450.705 365.005 449.905 362.348C449.067 359.56 449.911 355.985 446.89 354.076C444.682 352.681 441.494 353.874 439.054 353.192C436.61 352.509 434.362 350.008 431.88 351.928C430.118 353.292 429.182 356.647 425.861 354.833C424.362 354.015 423.536 351.268 422.591 349.727C421.085 347.272 419.877 346.385 417.559 348.776C416.131 350.251 413.118 353.842 412.934 355.884C412.732 358.138 414.699 359.08 412.229 360.413C409.772 361.74 408.394 360.767 406.399 363.46C404.421 366.132 405.952 367.608 403.661 370.164C400.796 373.359 399.272 374.738 399.312 379.043C399.34 381.996 396.73 384.546 398.253 387.347C399.959 390.486 404.938 391.792 407.957 393.07C406.949 394.931 405.567 396.125 406.743 398.041C407.809 399.777 410.822 400.137 412.689 399.822C413.945 399.611 413.99 399.801 414.979 398.918C415.626 398.339 414.738 397.618 416.072 397.298C417.491 396.955 419.758 399.737 420.68 400.432C418.62 403.105 412.963 403.604 409.969 404.959C408.145 405.785 406.469 407.007 404.611 407.746C402.926 408.416 400.876 408.26 399.348 409.297C396.709 411.088 395.612 415.524 393.995 418.131C392.164 421.083 390.389 422.454 386.877 423.067C382.496 423.831 378.967 424.138 374.881 426.046C369.892 428.375 364.973 430.835 360.072 433.346C352.167 437.396 344.825 441.553 337.484 446.452C329.805 451.577 322.336 456.927 314.927 462.283C307.598 467.58 301.445 474.096 295.079 480.502C289.933 485.68 285.417 491.269 280.291 496.445C274.239 502.558 269.788 510.272 264.177 516.756C261.107 520.304 258.169 523.792 256.243 527.971C254.682 531.358 251.967 534.682 250.155 538.236C247.839 542.78 245.647 547.251 243.047 551.644C241.98 553.447 240.712 554.994 239.586 556.715C238.144 558.919 238.229 561.047 237.841 563.588C237.436 562.968 237.031 562.348 236.626 561.729C235.892 563.332 235.003 564.91 234.367 566.552C233.961 567.6 234.025 569.087 233.617 570.003C233.106 571.154 232.483 571.001 231.845 571.959C231.163 572.984 230.944 574.361 230.225 575.46C227.118 580.21 225.923 586.238 224.326 591.659C222.185 598.931 222.523 607.289 222.639 614.787C222.763 622.708 223.196 630.628 224.387 638.464C225.466 645.561 227.773 652.368 231.385 658.591C234.532 664.013 238.872 667.173 244.43 669.95C246.983 671.226 249.352 670.832 252.032 671.036C254.967 671.258 256.968 672.055 260.074 671.354C261.564 671.018 262.268 669.933 263.452 669.572C264.185 669.348 264.58 669.714 265.283 669.628C266.289 669.506 268.381 669.013 269.473 669.132C272.868 669.502 272.298 674.634 272.632 677.253C273.146 681.289 273.523 685.368 274.216 689.378C275.674 697.812 278.822 705.691 280.682 713.98C272.06 715.032 264.664 716.64 256.583 719.903C248.476 723.175 240.279 724.285 231.747 725.912C223.765 727.434 216.087 730.277 209.698 735.429C206.704 737.843 203.593 740.668 205.792 744.642C207.198 747.185 209.733 747.831 211.921 749.308C212.363 748.749 211.084 747.564 210.85 747.235C212.69 747.613 212.633 748.471 213.977 749.218C215.151 749.871 216.112 749.848 217.397 750.309C220.535 751.436 222.077 754.248 225.179 755.038C226.154 755.286 227.431 755.879 228.429 756.048C229.627 756.25 230.525 755.726 231.739 755.948C232.395 756.38 233.104 756.689 233.866 756.874C234.366 756.642 234.859 756.397 235.346 756.139C237.091 756.32 238.169 757.418 239.587 758.319C239.682 757.183 239.545 756.003 240.621 755.262C241.041 756.367 240.363 757.066 241.509 757.826C242.961 758.79 244.868 757.587 246.169 756.978C246.536 760.65 255.04 760.433 257.736 760.381C261.469 760.309 265.198 758.828 268.964 759.654C270.886 760.075 272.937 760.515 274.849 761.062C277.152 761.72 279.936 762.308 282.203 763.138C283.104 763.468 284.209 764.525 285.168 764.454C285.932 764.397 286.137 763.27 287.026 763.302C288.032 763.339 288.37 764.46 289.241 764.797C290.544 765.301 291.743 764.343 292.982 764.827C293.427 765 294.03 765.746 294.6 765.99C295.465 766.358 297.177 766.363 298.14 766.541C299.505 766.794 300.727 766.624 301.896 766.707C302.839 766.775 302.819 767.409 303.27 767.45C303.787 767.497 304.689 765.718 305.384 765.457C306.396 765.077 308.234 765.982 309.267 766.141C301.786 776.278 292.766 785.238 282.988 793.083C272.441 801.546 261.641 809.997 250.331 817.42C240.063 824.16 230.123 829.989 222.161 839.503C215.448 847.525 204.762 856.109 206.409 867.737C208.055 879.355 220.675 884.083 230.787 886.301C243.505 889.091 256.598 887.968 269.35 889.536C274.788 890.205 280.831 889.848 286.305 889.278C292.771 888.605 298.313 884.387 303.872 881.337C313.87 875.85 322.419 868.509 332.267 862.851C344.598 855.767 356.799 848.26 370.318 843.515C376.607 841.308 383.082 838.789 388.155 834.249C388.91 833.573 389.472 832.553 390.325 831.997C391.775 831.051 392.164 832.01 393.006 831.723C393.653 831.503 394.28 830.803 394.84 830.594C396.259 830.062 396.892 830.281 398.48 830.281C397.117 829.496 395.87 827.471 397.284 825.82C399.707 822.993 400.124 827.511 401.034 828.557C401.806 827.566 401.51 826.684 401.313 825.558C401.965 825.988 402.617 826.418 403.269 826.849C402.82 824.669 403.247 822.662 404.403 820.763C405.468 819.012 405.73 819.259 406.024 816.833C409.333 819.852 409.979 812.524 410.277 809.852C410.565 807.262 410.281 805.402 411.985 803.136C413.815 800.704 416.597 799.166 418.92 797.277C422.589 794.291 426.626 790.52 431.7 793.383C435.706 795.644 437.885 801.187 441.644 804.035C443.923 805.763 446.329 805.937 447.782 808.616C448.957 810.782 449.338 813.374 450.448 815.598C453.135 820.988 457.003 827.156 461.415 831.291C465.523 835.139 470.796 835.119 475.602 837.506C480.36 839.87 485.304 842.43 490.341 844.143C495.842 846.014 501.774 846.809 507.13 849.075C509.885 850.241 512.348 851.997 515.128 853.113C518.125 854.316 521.282 855.165 524.32 856.267C536.353 860.637 548.13 865.995 560.772 868.417C566.379 869.49 571.57 872.409 577.218 873.023C579.64 873.287 581.617 873.62 583.987 874.226C587.707 875.176 586.919 875.681 588.289 878.781C590.543 883.885 596.048 880.863 600.291 880.99C607.083 881.195 613.771 880.098 620.552 880.045C632.412 879.954 643.83 878.619 655.302 874.726C666.82 870.819 679.932 861.402 670.36 848.392Z" fill="black"/>
<path fill-rule="evenodd" clip-rule="evenodd" d="M533.277 449.649C533.44 449.812 533.82 449.91 533.277 449.649Z" fill="black"/>
<path fill-rule="evenodd" clip-rule="evenodd" d="M324.385 667.013C326.961 664.404 337.92 664.931 338.748 669.599C339.671 674.809 329.879 682.678 326.296 684.884C321.684 687.723 316.055 688.256 316.872 681.127C317.491 675.742 320.717 670.728 324.385 667.013ZM333.435 661.642C333.769 663.085 331.306 662.594 330.628 662.252C330.309 661.595 333.101 660.193 333.435 661.642ZM314.537 671.196C316.723 671.392 319.227 667.887 320.876 666.693C321.605 667.819 316.799 674.009 316.27 675.422C314.949 678.951 314.215 683.411 316.015 686.931C321.277 697.218 334.743 682.528 338.111 677.396C340.467 673.807 342.099 669.357 338.77 665.84C337.585 664.588 335.628 664.24 334.527 663.049C333.078 661.484 334.218 659.462 331.305 659.804C329.295 660.04 326.881 661.853 324.926 662.509C322.571 663.299 320.453 664.118 318.397 665.583C317.934 665.913 311.836 670.953 314.537 671.196Z" fill="black"/>
<path fill-rule="evenodd" clip-rule="evenodd" d="M469.021 674.649C467.648 681.717 460.642 688.967 453.27 689.249C445.928 689.529 443.551 681.84 444.847 675.711C445.953 670.484 450.471 661.404 456.919 662.404C461.987 663.19 470.199 668.59 469.021 674.649ZM464.346 662.836C459.692 659.235 453.261 657.569 447.865 660.426C446.097 661.362 439.036 665.494 441.184 668.291C444.081 666.046 446.583 662.932 450.347 662.185C449.714 665.103 446.098 667.727 444.824 670.568C443.335 673.887 442.52 677.686 442.764 681.333C443.199 687.825 447.548 692.869 454.282 691.976C460.447 691.159 465.836 686.436 468.778 681.126C472.704 674.034 470.492 667.589 464.346 662.836Z" fill="black"/>
<path fill-rule="evenodd" clip-rule="evenodd" d="M421.122 690.716C417.807 695.621 412.754 700.236 406.911 701.751C399.347 703.712 401.472 697.463 403.732 692.978C405.731 689.014 409.16 682.193 414.381 682.23C416.153 682.241 419.454 683.098 421.007 684.045C424.068 685.913 422.867 688.134 421.122 690.716ZM414.062 679.934C415.251 678.61 420.518 672.932 421.224 677.358C422.736 675.605 421.543 674.151 419.607 673.966C417.271 673.742 414.718 676.342 413.032 677.634C409.563 680.292 406.893 683.013 404.594 686.739C402.06 690.847 395.597 700.131 401.253 704.207C407.366 708.613 416.264 700.476 420.092 696.28C422.54 693.596 425.783 689.654 424.852 685.718C423.709 680.884 418.083 680.376 414.062 679.934Z" fill="black"/>
<path fill-rule="evenodd" clip-rule="evenodd" d="M387.975 600.876C384.554 604.778 377.605 610.463 371.879 609.793C366.657 609.182 368.695 603.322 370.544 600.487C373.32 596.225 377.04 592.223 382.415 591.99C384.734 591.89 387.741 591.937 389.539 593.693C391.993 596.092 389.783 598.815 387.975 600.876ZM387.612 590.035C383.604 588.651 382.03 588.124 378.135 590.324C375.008 592.091 372.234 594.589 370.088 597.424C366.876 601.669 363.636 611.218 371.884 612.412C380.931 613.722 402.45 595.164 387.612 590.035Z" fill="black"/>
<path fill-rule="evenodd" clip-rule="evenodd" d="M399.943 614.397C397.341 617.054 394.092 619.222 390.383 619.962C391.952 616.463 395.455 608.818 399.609 607.753C401.522 607.262 403.703 607.905 403.546 610.084C403.432 611.66 400.97 613.347 399.943 614.397ZM403.294 605.147C401.139 604.067 401.818 603.33 399.311 604.177C397.335 604.843 394.843 606.001 393.198 607.335C392.3 608.063 389.506 610.643 389.848 611.956C390.468 614.343 392.552 610.686 393.1 609.983C394.039 610.748 389.237 617.617 388.952 618.747C387.887 622.957 391.192 623.402 394.432 622.025C398.8 620.168 411.737 609.376 403.294 605.147Z" fill="black"/>
<path fill-rule="evenodd" clip-rule="evenodd" d="M419.08 656.937C420.042 654.966 421.142 654.313 423.092 653.45C421.792 654.677 420.463 655.811 419.08 656.937ZM420.487 652.081C419.106 653.466 415.941 655.578 416.384 657.958C416.789 660.13 418.448 660.005 419.953 659.328C423.11 657.91 424.866 651.7 428.168 651.118C424.506 648.798 423.651 648.906 420.487 652.081Z" fill="black"/>
<path fill-rule="evenodd" clip-rule="evenodd" d="M420.971 528.755C421.147 535.368 421.302 541.98 421.448 548.594C421.499 550.918 420.944 554.231 421.642 556.457C421.95 557.438 424.736 561.689 425.725 561.964C429.184 562.926 427.948 554.258 427.972 552.124C428.056 544.923 427.95 537.714 427.921 530.512C427.905 526.801 428.953 495.684 424.136 495.836C423.307 495.862 421.262 499.42 420.955 500.133C419.987 502.373 420.343 505.694 420.366 508.081C420.431 514.969 420.789 521.867 420.971 528.755Z" fill="black"/>
<path fill-rule="evenodd" clip-rule="evenodd" d="M450.137 548.032C450.408 549.861 450.266 552.91 452.325 553.858C454.116 554.682 454.803 553.701 455.473 552.169C457.014 548.645 456.458 543.256 456.429 539.612C456.373 532.39 455.559 525.198 454.997 518.003C454.75 514.846 455.263 511.675 454.868 508.372C454.695 506.922 454.522 501.09 451.834 501.362C449.403 501.607 449.622 507.719 449.49 509.294C448.388 522.403 448.196 534.946 450.137 548.032Z" fill="black"/>
<path fill-rule="evenodd" clip-rule="evenodd" d="M564.865 698.572C563.834 703.837 547.026 722.172 542.794 711.917C540.283 705.834 545.726 699.211 549.97 695.689C552.597 693.509 555.878 691.371 559.459 692.031C562.498 692.592 565.518 695.228 564.865 698.572ZM556.185 689.128C554.998 689.409 545.075 696.374 544.984 696.283C544.122 695.418 550.381 686.093 551.025 685.276C556.331 678.556 559.852 683.645 563.171 688.927C562.464 685.772 560.52 681.192 557.271 679.857C553.17 678.173 549.97 682.331 547.997 685.32C545.207 689.545 543.67 694.133 542.12 698.901C541.381 701.175 540.539 703.236 539.287 705.286C538.052 707.309 535.89 709.539 536.21 712.099C537.966 711.123 538.899 709.213 540.005 707.639C541.239 708.138 540.815 712.073 541.066 713.075C541.696 715.591 543.416 717.56 546.076 717.994C551.035 718.8 556.387 714.214 559.702 711.1C563.195 707.818 566.955 703.319 566.925 698.268C566.893 692.991 561.702 687.823 556.185 689.128Z" fill="black"/>
<path fill-rule="evenodd" clip-rule="evenodd" d="M569.627 604.528C566.813 608.832 561.877 613.991 556.654 614.991C552.82 615.725 550.291 612.884 551.831 609.05C553.132 605.809 557.565 603.763 560.47 602.337C562.775 601.206 573.52 598.572 569.627 604.528ZM567.557 597.488C561.794 597.271 557.147 601.435 552.849 604.759C553.82 600.941 556.015 596.787 559.106 594.302C563.312 590.919 567.3 593.019 571.729 594.711C570.636 591.265 565.732 590.025 562.608 590.512C558.657 591.128 555.817 594.499 553.82 597.76C551.438 601.65 550.622 606.235 547.818 609.884C546.534 611.554 538.583 617.804 540.383 620.359C543.353 617.207 546.323 614.056 549.293 610.905C550.063 614.63 550.912 618.871 555.669 618.508C559.468 618.219 563.801 614.99 566.579 612.523C570.167 609.336 577.228 597.854 567.557 597.488Z" fill="black"/>
<path fill-rule="evenodd" clip-rule="evenodd" d="M486.835 634.238C484.394 635.36 479.02 636.886 477.655 633.514C475.759 628.832 481.86 620.619 484.764 617.5C486.55 615.58 487.762 614.587 490.253 615.829C492.24 616.822 495.162 619.64 495.925 621.808C497.563 626.46 490.653 632.483 486.835 634.238ZM492.435 611.751C494.423 612.199 494.667 614.723 492.181 613.754C490.318 613.028 489.885 611.177 492.435 611.751ZM494.931 615.306C494.189 613.042 495.699 609.492 492.043 609.328C489.972 609.236 486.177 611.341 484.368 612.197C481.862 613.383 479.503 615.193 478.194 617.743C476.981 620.105 477.847 620.727 479.695 618.767C479.921 618.92 475.515 630.28 475.476 631.419C475.304 636.621 478.988 640.047 484.161 639.124C488.916 638.276 493.201 634.39 495.817 630.467C497.141 628.481 498.228 626.208 498.328 623.776C498.48 620.045 495.992 618.545 494.931 615.306Z" fill="black"/>
<path fill-rule="evenodd" clip-rule="evenodd" d="M517.737 613.398C515.731 609.536 520.38 603.036 524.542 604.937C533.207 608.896 520.369 618.462 517.737 613.398ZM525.522 608.356C524.592 608.394 518.713 610.664 519.578 612.203C520.766 614.314 525.057 609.205 525.522 608.356Z" fill="black"/>
<path fill-rule="evenodd" clip-rule="evenodd" d="M241.274 601.218C241.042 599.573 237.353 601.961 237.375 603.021C237.985 601.801 241.758 604.646 241.274 601.218Z" fill="black"/>
<path fill-rule="evenodd" clip-rule="evenodd" d="M442.994 476.916C447.69 476.571 441.707 452.889 438.285 454.984C434.575 457.253 438.685 477.233 442.994 476.916Z" fill="black"/>
<path fill-rule="evenodd" clip-rule="evenodd" d="M451.764 465.858C456.163 466.488 455.464 456.39 453.097 454.582C448.73 451.246 446.423 465.093 451.764 465.858Z" fill="black"/>
<path d="M114.323 242.561C177.576 242.561 228.853 191.284 228.853 128.031C228.853 64.7777 177.576 13.501 114.323 13.501C51.0697 13.501 -0.207031 64.7777 -0.207031 128.031C-0.207031 191.284 51.0697 242.561 114.323 242.561Z" fill="white"/>
</svg>
