<svg width="122" height="122" viewBox="0 0 122 122" fill="none" xmlns="http://www.w3.org/2000/svg">
<circle cx="40" cy="61" r="40" fill="#FFAEAD"/>
<path d="M81.1258 74.106C80.2697 65.5686 79.4135 57.0144 78.5738 48.4769C78.0964 48.5776 77.6189 48.6614 77.1415 48.7621C82.5911 54.6326 88.0572 60.4864 93.5068 66.3569C93.8526 66.1053 94.2148 65.8537 94.5605 65.6021C85.9169 62.9352 77.0591 61.2747 68.0368 60.6206C68.1685 60.9728 68.3002 61.3083 68.4319 61.6605C76.0713 58.1382 83.7107 54.5991 91.35 51.0767C90.9713 50.8755 90.5927 50.6574 90.214 50.4561C86.6413 58.0711 83.085 65.7028 79.5123 73.3177C79.183 74.0222 80.6977 74.257 80.9941 73.6196C84.5668 66.0047 88.1231 58.373 91.6958 50.7581C91.9757 50.1542 90.922 49.9697 90.5597 50.1375C82.9204 53.6598 75.281 57.1989 67.6417 60.7212C66.8843 61.0734 67.4276 61.7108 68.0368 61.7611C76.7628 62.3985 85.39 64.0087 93.7702 66.5917C94.1325 66.7092 95.4002 66.4576 94.824 65.837C89.3743 59.9664 83.9082 54.1127 78.4586 48.2421C78.1458 47.9067 76.9604 47.806 77.0262 48.5273C77.8824 57.0647 78.7385 65.6189 79.5782 74.1564C79.6605 74.8441 81.1916 74.8273 81.1258 74.106Z" fill="#26345A"/>
<path d="M44.7067 44.1625C43.5017 32.6698 42.2968 21.1545 41.115 9.66175C40.443 9.79722 39.7711 9.91012 39.0991 10.0456C46.7689 17.9482 54.462 25.8283 62.1318 33.731C62.6184 33.3923 63.1282 33.0536 63.6148 32.7149C51.4496 29.1249 38.9832 26.8895 26.2851 26.0089C26.4705 26.4831 26.6559 26.9347 26.8412 27.4088C37.5929 22.6673 48.3446 17.9031 59.0963 13.1615C58.5634 12.8905 58.0304 12.597 57.4975 12.3261C52.4692 22.5769 47.4641 32.8504 42.4358 43.1013C41.9724 44.0496 44.1042 44.3657 44.5213 43.5077C49.5495 33.2568 54.5547 22.9834 59.5829 12.7325C59.9768 11.9196 58.4938 11.6713 57.9841 11.8971C47.2324 16.6387 36.4807 21.4028 25.729 26.1444C24.6631 26.6186 25.4278 27.4766 26.2851 27.5443C38.5661 28.4023 50.7081 30.5699 62.5026 34.0471C63.0123 34.2051 64.7966 33.8664 63.9856 33.031C56.3157 25.1284 48.6227 17.2483 40.9528 9.34564C40.5126 8.89406 38.8442 8.75859 38.9369 9.72948C40.1418 21.2222 41.3468 32.7375 42.5285 44.2302C42.6444 45.1559 44.7993 45.1334 44.7067 44.1625Z" fill="#26345A"/>
<path d="M19.633 98.7557C28.0238 88.0897 36.3843 77.4236 44.7751 66.7273C43.8966 66.5758 43.0181 66.394 42.1397 66.2424C42.5032 80.181 42.382 94.0893 41.7762 108.028C42.7152 107.937 43.624 107.846 44.563 107.785C38.1109 93.2106 31.6891 78.5751 25.2369 63.9699C24.4494 64.2729 23.6618 64.5759 22.8742 64.9092C33.5066 71.1209 44.8053 75.9995 56.6494 79.4235C56.7705 78.8478 56.8614 78.272 56.9826 77.6963C50.0155 78.5751 43.7149 81.5749 37.7474 85.211C30.9621 89.3623 24.3585 93.8772 17.7246 98.2406C16.3009 99.1799 18.7242 100.24 19.7239 99.5738C25.6913 95.665 31.6285 91.6652 37.6565 87.8472C43.8663 83.9081 50.3487 80.4537 57.7399 79.5144C58.7092 79.3932 59.2242 78.1205 58.0731 77.7872C46.4411 74.4238 35.3241 69.6665 24.8734 63.5759C24.2676 63.2123 21.9654 63.2426 22.5107 64.5153C28.9628 79.0902 35.3846 93.6954 41.8368 108.301C42.2609 109.27 44.563 109.27 44.6236 108.058C45.2294 94.1499 45.3506 80.2113 44.9871 66.2727C44.9568 65.1213 42.897 65.091 42.3517 65.7879C33.9609 76.454 25.5701 87.1503 17.2097 97.8164C16.2403 99.0284 18.906 99.695 19.633 98.7557Z" fill="#26345A"/>
</svg>
