<svg width="122" height="122" viewBox="0 0 122 122" fill="none" xmlns="http://www.w3.org/2000/svg">
<circle cx="40" cy="61" r="40" fill="#FFAEAD"/>
<path d="M39.69 106.392C43.159 104.963 42.6148 101.392 42.6829 98.2633C42.7169 96.5968 43.023 95.2704 44.9275 95.1684C46.1179 95.1003 47.2742 95.4745 48.4986 95.3384C49.7229 95.2024 50.9133 94.7262 51.9676 94.08C57.4432 90.645 58.5995 83.4689 56.4229 77.7552C55.3006 74.7964 53.362 72.3137 51.2194 70.035C50.063 68.8106 48.7706 67.6883 47.6483 66.4639C46.9001 65.6477 45.9138 64.5254 46.662 63.335C47.1042 62.6208 48.0224 62.3827 48.8047 62.3147C50.3011 62.1787 51.7975 62.5868 53.26 62.6208C55.0965 62.6548 56.933 62.3147 58.5995 61.5665C61.6604 60.1721 64.0071 57.3833 64.6873 54.0843C64.3472 54.2884 64.0071 54.4584 63.667 54.6625C65.2655 55.3087 66.864 55.9889 68.4964 56.6351C69.5848 57.0772 70.6391 57.5533 71.8294 57.2812C73.836 56.8391 75.0944 54.6285 75.4345 52.7579C75.8766 50.3772 74.7883 48.1326 73.2918 46.33C71.3193 44.0174 68.9386 42.0108 66.5239 40.1742C64.6533 38.7458 62.1366 36.2971 59.6198 37.5215C57.3412 38.6438 56.0488 41.4666 55.0965 43.6773C52.9539 48.7788 52.5117 54.6965 53.9742 60.0361C56.5589 69.3548 67.4761 80.374 77.9512 75.7487C82.5766 73.7081 86.1816 68.7426 85.5694 63.5391C84.9913 58.3696 80.604 54.9686 76.7609 52.0437C71.5573 48.0986 66.0817 44.5275 60.4021 41.3306C54.8924 38.2357 49.1448 35.2768 43.193 33.1342C37.3773 31.0596 30.9494 29.9712 24.8956 31.7398C19.9982 33.1682 16.4272 37.2834 17.9916 42.5549C18.7739 45.2417 20.5764 47.4864 22.3789 49.561C24.5215 52.0437 26.9022 54.3224 29.351 56.465C34.3164 60.8523 39.588 64.9335 44.8935 68.9127C55.6067 76.973 66.7959 84.4552 78.3933 91.2232C81.1141 92.8217 83.8009 94.4882 86.6918 95.7465C89.0725 96.7668 92.2014 97.7871 94.8202 97.1069C96.8948 96.5628 96.6567 92.1075 96.4526 90.509C96.0785 87.7202 94.9562 85.0334 93.8339 82.4826C89.2425 71.9736 81.6583 63.165 73.0878 55.6828C68.9386 52.0777 64.5513 48.7107 60.096 45.5138C58.3615 44.2894 56.1848 42.9971 53.9742 43.4732C51.8315 43.9153 50.5052 45.9559 50.4031 48.0645C50.2671 50.5813 51.5935 52.8259 52.9539 54.8325C54.5183 57.1112 56.2869 59.2198 58.2254 61.1584C62.1026 65.1035 66.6599 68.3345 71.4213 71.1573C76.3187 74.0482 81.4882 76.6669 86.7598 78.8436C89.1745 79.8299 91.8273 80.442 94.31 79.4557C96.3506 78.6735 98.1191 77.041 98.8673 74.9324C99.8196 72.3137 98.7313 69.6949 97.609 67.3142C96.3846 64.6274 94.9902 62.0086 93.4598 59.4919C90.5349 54.6625 87.0999 50.1051 83.2908 45.9559C79.5157 41.8747 75.3664 38.1676 70.9452 34.8347C66.6939 31.6377 61.5244 27.4205 55.9808 27.1144C50.7772 26.8423 47.0021 30.8555 45.5057 35.4809C43.9752 40.1402 44.9615 45.1737 48.0564 48.9488C49.6549 50.8874 51.7635 52.5199 54.0422 53.5742C56.4569 54.6965 58.7696 54.3564 60.9122 52.8259C65.0614 49.8671 67.8162 44.9356 69.2447 40.1402C72.4076 29.5291 69.0406 18.4419 61.3883 10.6536C59.6198 8.85104 57.5792 6.91248 55.0965 6.23228C52.5798 5.55208 50.1311 6.43634 48.0905 7.96679C43.6011 11.4018 40.9143 17.1835 39.69 22.5911C37.0032 34.3925 41.1524 46.5341 46.9001 56.8051C49.6889 61.7366 53.0219 66.3959 56.865 70.5451C58.7696 72.6197 60.8442 74.5923 63.0208 76.3949C64.9934 78.0613 67.2041 80.0679 69.6868 80.9522C74.5842 82.7207 78.6314 77.8573 79.7537 73.606C81.2502 67.8924 78.8015 61.7706 76.6248 56.567C72.5096 46.8402 66.1838 37.9636 58.0214 31.2296C54.0762 27.9647 49.7229 25.2098 45.0976 23.0672C42.6829 21.9449 40.0301 20.7885 37.3093 21.2307C35.0986 21.6048 33.1941 22.9652 31.7997 24.6997C24.5555 33.6443 28.2966 46.7041 33.5682 55.5807C39.3839 65.3416 47.3762 73.9121 56.729 80.374C61.2523 83.5029 66.2858 86.5298 71.5233 88.3324C73.768 89.1146 76.1487 89.0126 77.9512 87.3461C79.9918 85.4415 79.7537 82.8227 78.9715 80.374C75.7406 70.069 68.1223 62.2127 59.4838 56.0909C57.3072 54.5604 55.0625 53.098 52.7838 51.7036C51.1513 50.7173 48.7366 49.595 47.6143 51.9757C46.662 53.9823 48.0564 56.567 49.1448 58.2335C50.6072 60.4782 52.6138 62.3147 54.7224 63.9472C59.7559 67.8584 65.1635 71.2934 70.7411 74.2862C76.2507 77.2451 82.2365 80.306 88.3923 81.5984C92.6095 82.4826 98.3572 82.6527 100.976 78.4695C104.275 73.2659 98.8673 67.6883 95.1603 64.5254C90.6029 60.6822 85.3654 57.4173 80.1619 54.4924C74.9583 51.5676 69.3807 49.1529 63.4289 48.2006C57.8173 47.3163 51.9676 47.7244 46.662 49.9011C42.989 51.4315 35.3707 55.4787 37.1052 60.6142C37.8534 62.8589 40.2682 63.9132 42.2407 64.8315C44.9275 66.0898 47.7503 67.1441 50.6072 67.9604C56.5249 69.6949 62.7147 70.5111 68.8705 70.4771C75.2644 70.4431 81.6923 69.4908 87.8481 67.7563C92.0313 66.566 96.9968 63.5731 95.1263 58.4036C94.208 55.9208 92.0654 54.1523 90.0928 52.5199C87.6781 50.5133 85.1273 48.6087 82.5085 46.8402C77.169 43.2011 71.4893 39.9362 65.6736 37.0793C54.9605 31.8418 42.5468 27.7606 30.5073 29.9032C25.7119 30.7535 21.0185 32.9641 18.0596 36.9433C14.7947 41.3306 14.3526 47.0442 15.747 52.2138C18.7058 63.233 28.6367 71.3954 37.7854 77.4492C42.1727 80.34 46.7301 83.707 52.1716 81.4963C56.865 79.5918 60.4021 75.1025 62.3746 70.5451C66.0817 61.9066 65.4695 50.2072 58.1574 43.5752C57.8853 43.3372 57.4772 43.2691 57.1711 43.4392C49.7229 47.5204 47.6483 56.7031 47.7844 64.5254C47.9204 72.9939 50.063 81.4623 54.3483 88.8085C54.6544 89.3186 55.5046 89.3867 55.7767 88.8085C61.4904 77.041 62.8508 62.6208 56.797 50.7173C55.5046 48.1666 53.8721 45.7859 51.9336 43.6773C50.1311 41.7047 47.7504 39.426 45.2336 38.3377C42.7849 37.2834 40.7103 39.494 40.1661 41.7387C39.4179 44.7996 41.0504 48.3706 42.2067 51.1254C45.1316 58.1655 49.7909 64.2193 54.4163 70.205C55.0625 71.0553 56.2188 69.8649 55.5726 69.0487C52.1036 64.5934 48.6686 60.0701 45.9478 55.1386C44.5194 52.5539 43.3291 49.8331 42.4108 47.0102C41.9006 45.4118 41.3565 43.6432 41.8326 41.9768C42.0707 41.1605 42.7169 39.9702 43.6351 39.7661C44.4854 39.5961 45.4717 40.3443 46.1179 40.8204C55.0285 46.8742 59.2117 57.8594 59.1097 68.3685C59.0417 75.1705 57.3412 81.9045 54.3823 88.0263C54.8584 88.0263 55.3346 88.0263 55.8107 88.0263C51.8656 81.2923 49.825 73.572 49.5189 65.7837C49.2128 58.1995 50.7432 48.9488 58.0214 44.8676C57.6813 44.8336 57.3412 44.7656 57.0351 44.7316C63.769 50.8534 64.3472 61.6005 61.0482 69.6269C59.2117 74.0482 55.6747 78.7075 50.9473 80.238C46.0499 81.8365 41.3905 77.8573 37.5474 75.2385C29.589 69.8309 21.0865 62.6888 17.8896 53.2681C16.2911 48.5067 16.1551 43.2011 18.8419 38.8138C21.3586 34.7326 25.7799 32.522 30.3372 31.6037C40.6763 29.4951 51.7295 32.59 61.1503 36.7732C71.0132 41.1605 80.672 46.8062 88.9704 53.7442C90.841 55.3087 93.2217 57.0772 93.7999 59.5939C94.446 62.4848 92.0994 64.4914 89.7187 65.4777C84.8892 67.4502 79.2096 68.2665 74.0401 68.6746C63.4289 69.5248 52.5458 67.8583 42.8529 63.335C40.5402 62.2467 37.3093 60.6142 39.0778 57.5193C40.3362 55.3087 42.8869 53.7102 45.0976 52.5199C49.5869 50.1051 54.7564 49.1869 59.8239 49.493C70.401 50.0711 79.8218 55.8188 88.4263 61.6005C92.5755 64.3893 97.8811 67.8243 99.8876 72.6538C101.01 75.4086 100.058 78.2314 97.4049 79.5578C95.4663 80.5441 93.2217 80.6121 91.1131 80.374C85.5354 79.7618 80.1959 77.1431 75.1964 74.6944C70.333 72.2796 65.6056 69.5588 61.1163 66.498C57.0011 63.7091 52.1036 60.6482 49.825 56.0229C49.5529 55.4787 49.2808 54.9006 49.1448 54.3224C49.0767 54.0843 48.9747 53.6762 49.0427 53.4381C49.1107 53.166 50.3351 52.3498 50.7432 52.3838C51.5935 52.4518 52.9879 53.7102 53.7021 54.1863C55.6067 55.3767 57.5112 56.6351 59.3137 57.9614C66.8299 63.369 73.5299 70.239 76.8289 79.0476C77.7812 81.5644 79.1076 85.0674 76.0807 86.7339C73.666 88.0603 70.6731 86.2917 68.4964 85.2374C64.1432 83.1968 59.9939 80.7141 56.1168 77.8913C47.9884 72.0416 41.1864 64.6614 35.9149 56.363C30.7794 48.2686 26.6982 37.2834 31.4936 28.0667C32.5139 26.1281 33.9423 24.2576 35.9829 23.3393C38.7377 22.0809 41.6626 23.3393 44.1793 24.4956C48.1245 26.2982 51.8996 28.5768 55.3346 31.2296C62.4767 36.7392 68.2584 43.8473 72.4756 51.8056C74.7203 56.0569 76.6928 60.5802 77.8492 65.2736C78.5634 68.0624 78.8355 71.1233 77.8832 73.9121C77.101 76.1908 75.4005 78.7756 72.9858 79.5238C70.435 80.306 68.1223 78.3674 66.2518 76.905C64.2792 75.4086 62.4087 73.7761 60.6061 72.0416C57.1031 68.6746 54.0082 64.8995 51.2874 60.8523C45.6757 52.4178 40.9824 42.2829 40.5062 31.9778C40.2682 26.8423 41.1524 21.5708 43.3631 16.9114C45.3697 12.6942 49.995 5.72213 55.5386 8.17085C57.7153 9.12312 59.5178 11.0277 61.1163 12.7622C62.7828 14.5647 64.2112 16.5713 65.4015 18.7479C67.7482 23.0332 69.0066 27.8966 68.8025 32.7941C68.6325 37.4194 67.3061 42.0448 64.8574 45.9899C63.565 48.0986 61.8645 50.1732 59.8239 51.6016C57.2731 53.3701 54.8244 52.4178 52.4777 50.8194C48.5666 48.1326 45.9818 43.7113 46.458 38.8819C46.9001 34.2565 49.995 28.985 55.1305 28.7809C60.13 28.5768 64.9934 32.556 68.8365 35.3448C72.7137 38.1336 76.3527 41.2626 79.7537 44.6295C86.6238 51.4996 92.3034 59.5599 96.3166 68.4025C97.541 71.1233 98.3572 74.0822 95.9765 76.4289C93.9019 78.4695 91.1471 78.6055 88.4943 77.7212C83.937 76.1908 79.4476 73.6741 75.2304 71.3954C66.8299 66.8381 58.8376 60.9883 53.6001 52.8259C52.3757 50.8874 50.9473 47.4864 53.1579 45.6498C55.1985 43.9493 57.9533 45.9899 59.6879 47.2483C63.599 50.0711 67.4761 53.03 71.1492 56.1589C78.3593 62.3487 84.8892 69.3888 89.6166 77.6872C91.9973 81.9045 94.8542 87.074 94.9562 92.0394C94.9902 93.5699 94.9562 95.4064 93.1537 95.6105C91.7593 95.7465 90.1608 95.2704 88.8684 94.8283C86.3177 93.978 84.005 92.5496 81.6923 91.2232C71.9655 85.6456 62.5107 79.5918 53.396 73.0959C44.3494 66.668 35.1667 59.968 27.1743 52.2138C23.7393 48.8808 17.9236 43.6432 19.5221 38.2357C21.0525 32.8961 28.7048 32.2839 33.2281 32.59C38.9418 32.9641 44.3834 35.2088 49.5189 37.6235C54.4163 39.9022 59.1777 42.4529 63.769 45.2417C68.4964 48.0986 73.0878 51.2615 77.4411 54.6625C81.0461 57.5193 84.8552 61.3624 83.8009 66.3959C82.7466 71.4634 77.7812 75.2385 72.6797 75.1025C67.5782 74.9324 62.8848 71.4974 59.7559 67.7223C56.5589 63.8112 54.7904 58.8797 54.7564 53.8462C54.7224 51.3635 55.0965 48.8808 55.8107 46.5001C56.5249 44.1874 57.7153 40.6844 59.8579 39.324C61.4564 38.3037 62.8848 39.5961 64.1772 40.5483C65.2995 41.3306 66.3538 42.1808 67.4081 43.0651C69.3467 44.6976 71.5573 46.5001 72.8837 48.6427C74.1081 50.5813 74.3802 54.2884 71.8634 55.5127C70.7071 56.0909 69.3467 55.2747 68.2924 54.8325C66.898 54.2544 65.4695 53.6762 64.0751 53.098C63.667 52.928 63.1569 53.2681 63.0548 53.6762C62.3066 57.3153 59.3478 60.0361 55.7427 60.7843C52.9539 61.3624 50.097 60.1381 47.3762 60.9203C45.4037 61.4985 44.1793 63.4371 44.8935 65.4436C45.3016 66.668 46.3219 67.5523 47.2062 68.4365C48.4646 69.6949 49.7569 70.9193 50.9473 72.2456C55.5726 77.4152 58.2594 85.9517 52.5798 91.4953C51.5595 92.4816 50.2671 93.2978 48.8727 93.6379C47.5123 93.944 46.2539 93.5019 44.8935 93.5699C43.4991 93.6379 42.2067 94.1481 41.5605 95.4404C40.1661 98.0932 42.6148 103.467 39.2138 104.895C38.2956 105.235 38.7037 106.8 39.69 106.392Z" fill="#26345A"/>
</svg>
