<svg width="122" height="122" viewBox="0 0 122 122" fill="none" xmlns="http://www.w3.org/2000/svg">
<circle cx="40" cy="61" r="40" fill="#FFAEAD"/>
<path d="M27.2639 73.2223C30.1879 71.4475 30.9977 67.9293 31.3448 64.7777C31.5605 62.7987 31.6814 60.7622 32.3966 58.8827C33.1119 57.0032 34.0848 55.4588 34.1163 53.4693C34.1479 51.4799 33.6956 49.5533 34.1163 47.5691C34.6177 45.6559 35.4487 43.8438 36.5723 42.2134C37.624 40.5276 38.8178 38.9203 39.7855 37.1717C40.7229 35.4252 41.4754 33.5865 42.0311 31.6851C42.3624 30.6066 42.6569 29.5124 42.9356 28.4183C43.0671 27.8947 43.2827 26.2456 43.9874 26.1671C44.3923 26.1147 44.8551 26.6906 45.0392 26.989C45.2414 27.3431 45.3869 27.7264 45.4704 28.1251C45.686 28.9261 45.8228 29.7533 46.0962 30.5386C46.3276 31.193 47.8422 30.7742 47.6213 30.1302C47.127 28.7271 47.1586 26.9052 46.0068 25.8215C45.7242 25.5501 45.3809 25.3493 45.0052 25.2357C44.6294 25.122 44.232 25.0987 43.8454 25.1677C43.4589 25.2367 43.0943 25.396 42.7817 25.6325C42.469 25.869 42.2171 26.176 42.0468 26.5283C41.6853 27.3684 41.4207 28.2465 41.258 29.146C40.9898 30.1616 40.7321 31.172 40.3903 32.172C39.7542 34.2364 38.8714 36.2173 37.7608 38.0722C35.6572 41.5223 32.7595 44.8782 32.4334 49.0664C32.2704 51.1606 32.9593 53.2861 32.3861 55.3488C32.0444 56.3602 31.6369 57.3482 31.166 58.3068C30.7651 59.2165 30.4619 60.1659 30.2615 61.1391C29.5463 64.9347 30.0879 70.2538 26.2489 72.5783C26.1801 72.6093 26.1205 72.6573 26.0756 72.7178C26.0308 72.7782 26.0023 72.8491 25.9928 72.9237C25.9833 72.9982 25.9931 73.074 26.0214 73.1437C26.0497 73.2133 26.0954 73.2746 26.1542 73.3217C26.3281 73.4071 26.5222 73.443 26.7153 73.4254C26.9083 73.4079 27.0927 73.3376 27.2481 73.2223H27.2639Z" fill="#26345A"/>
<path d="M41.253 41.7687C43.016 39.4492 44.5983 36.9989 45.9861 34.4393C47.1115 32.2404 47.5637 29.806 48.4735 27.5286C48.9094 26.3637 49.5725 25.2961 50.4246 24.3874C51.4761 23.4182 52.5937 22.5226 53.7693 21.7069L61.0793 16.0842C62.4203 15.0371 63.7088 13.9534 65.1182 12.9848C65.5126 12.7126 65.8071 12.4613 66.2383 12.7807C66.4591 12.9717 66.6243 13.2182 66.7168 13.4945C66.8093 13.7707 66.8257 14.0666 66.7642 14.3513C66.6959 14.9167 68.2262 14.634 68.2841 14.1471C68.3945 13.1838 68.1316 12.2362 67.1271 11.9011C66.0227 11.5242 64.8131 12.1158 63.9191 12.7597C61.1476 14.7701 58.4761 16.948 55.7572 19.0421L51.7499 22.0943C50.5297 22.9216 49.423 23.9037 48.4578 25.0156C46.8117 27.1517 46.3016 29.8793 45.4391 32.3451C44.2558 35.8109 41.9524 38.8474 39.8436 41.7635C39.6332 42.0567 40.0224 42.1666 40.2485 42.1771C40.4357 42.1862 40.6227 42.1543 40.7962 42.0838C40.9698 42.0132 41.1257 41.9057 41.253 41.7687Z" fill="#26345A"/>
<path d="M47.5164 42.5117C49.529 39.5397 51.3674 36.4544 53.0225 33.2713C54.4833 30.3717 56.3968 27.7211 58.6917 25.4183C60.9373 23.1933 63.7351 21.4918 65.6809 18.9527C67.39 16.7277 68.1736 13.9006 70.0406 11.7907C70.9609 10.7437 72.8541 9.33536 74.111 10.707C75.2837 11.9949 74.5107 13.6493 74.2898 15.1204C74.1741 15.9057 75.7308 15.7225 75.8359 15.0157C76.0516 13.5707 76.6353 12.2462 75.9937 10.8274C75.2995 9.29871 73.7324 8.7333 72.1441 9.11548C69.0571 9.83272 67.4952 12.9687 66.17 15.5235C65.4682 16.9859 64.5636 18.3429 63.4826 19.5547C62.2768 20.7429 61.0038 21.8616 59.6699 22.9053C56.9544 25.1627 54.6304 27.8494 52.7911 30.8578C51.7078 32.6326 50.8716 34.5226 49.8409 36.334C48.726 38.2868 47.4796 40.1558 46.2332 42.0248C45.7073 42.8363 47.1167 43.1033 47.5164 42.5012V42.5117Z" fill="#26345A"/>
<path d="M54.5267 44.8461C55.9887 42.2651 56.4988 39.3176 57.5191 36.5638C58.4248 33.9851 59.7972 31.5932 61.5685 29.5066C62.5325 28.4762 63.5886 27.5352 64.7239 26.6952C65.824 25.7585 66.7807 24.6668 67.5637 23.4546C68.4472 22.1841 69.3693 20.9399 70.3299 19.7218C71.0639 18.7114 71.8503 17.7398 72.6859 16.8109C73.1037 16.3465 73.6265 15.9876 74.211 15.7639C74.6624 15.5774 75.1477 15.4865 75.6362 15.4969C76.2778 15.5963 76.4408 16.9313 76.525 17.4496C76.6775 18.3437 76.6775 19.257 76.525 20.1511C76.4408 20.6746 77.9659 20.3919 78.0396 19.9364C78.2815 18.5176 78.3446 16.5282 77.5137 15.2822C76.8984 14.366 75.5153 14.7587 74.616 14.9733C71.7919 15.5806 70.3089 17.9941 68.6523 20.1197C67.6005 21.4494 66.6486 22.8316 65.6705 24.2085C65.1894 24.9174 64.6264 25.5675 63.9929 26.1455C63.3618 26.7005 62.6676 27.1926 62.026 27.7161C59.7882 29.6713 58.0106 32.0934 56.8196 34.81C55.2945 38.1292 54.8212 41.8777 53.0121 45.066C52.8491 45.354 53.538 45.3383 53.6485 45.3226C53.8214 45.314 53.9902 45.2667 54.1423 45.1842C54.2943 45.1017 54.4257 44.9862 54.5267 44.8461Z" fill="#26345A"/>
<path d="M60.0702 47.8727C62.0687 45.2079 62.9311 41.9515 64.3405 38.9726C65.7698 35.9527 67.5967 33.1358 69.773 30.5961C70.2516 30.0359 70.7512 29.4862 71.2666 28.9522C71.5716 28.6328 71.8871 28.3187 72.2079 28.0098C72.4982 27.6679 72.8303 27.3636 73.1966 27.1041C72.6707 27.3711 73.0389 27.1041 73.0757 27.3083C73.0757 27.4287 73.2965 27.6486 73.3491 27.7899C73.4389 28.0818 73.485 28.3852 73.4859 28.6904C73.5137 29.7151 73.3897 30.7382 73.1177 31.7269C72.6123 33.4607 71.9868 35.1575 71.2456 36.8052C70.5514 38.491 69.8467 40.1663 69.142 41.8468C66.3284 48.5585 63.5675 55.3016 61.6848 62.3379C60.7855 65.699 59.8914 69.0234 58.298 72.1437C56.8491 74.9929 54.9868 77.6143 52.7708 79.9234C50.1413 82.6353 46.9386 84.5567 44.1303 87.033C42.9313 88.0801 41.6586 89.0538 40.449 90.0904C39.3235 91.0198 38.4608 92.2252 37.9458 93.5876C37.7985 93.9698 39.2868 93.8023 39.4551 93.3573C39.9606 92.019 40.829 90.8465 41.9636 89.97C43.1364 89.0224 44.2933 88.0958 45.424 87.1011C48.0535 84.787 51.0722 82.9599 53.5807 80.4836C55.8743 78.2097 57.8231 75.6154 59.3655 72.7824C61.0852 69.6412 62.095 66.3011 63.0048 62.8667C64.9716 55.4901 67.8062 48.4381 70.7565 41.4123C71.4927 39.6672 72.2255 37.9116 72.9547 36.1455C73.7384 34.4295 74.3565 32.6432 74.8006 30.8107C75.0215 29.7113 75.5158 27.303 74.2747 26.6224C72.9284 25.8633 71.5032 27.4234 70.6618 28.2506C67.9294 30.9223 65.6112 33.9836 63.7831 37.3339C62.8766 39.0471 62.0741 40.8129 61.3797 42.6216C60.7134 44.4982 59.7991 46.2782 58.6608 47.9146C58.3085 48.3857 59.802 48.213 60.0597 47.8727H60.0702Z" fill="#26345A"/>
<path d="M74.7108 26.7326C75.1789 25.5756 75.6417 24.4186 76.1097 23.2563L76.7513 21.6543C76.8828 21.335 77.009 21.0209 77.1615 20.712C77.2667 20.5026 77.4034 20.0837 77.6243 19.9581L77.0668 20.157C76.8039 20.1937 76.9985 20.3769 77.0668 20.5444C77.1352 20.712 77.1457 20.8533 77.1825 21.0052C77.2351 21.2774 77.2825 21.5287 77.3193 21.8323C77.3966 22.4491 77.4422 23.0695 77.456 23.6909C77.4788 25.1633 77.4068 26.6357 77.2404 28.099C76.951 30.8678 76.4571 33.6116 75.7626 36.308C75.6101 36.8787 77.1457 36.664 77.2877 36.13C78.1547 32.8233 78.7024 29.4416 78.9233 26.0311C79.0558 24.419 79.017 22.7976 78.8076 21.1936C78.7234 20.6177 78.6551 19.7173 78.0923 19.3927C77.4034 18.9895 76.5147 19.466 76.0992 20.0576C75.5352 21.058 75.0685 22.1099 74.7056 23.1988C74.2112 24.4343 73.7151 25.6698 73.2173 26.9054C73.0174 27.4289 74.5373 27.2352 74.7424 26.7221L74.7108 26.7326Z" fill="#26345A"/>
<path d="M73.5224 30.5639C74.4901 31.1765 74.8161 32.4644 75.0423 33.5114C75.3724 35.2165 75.5484 36.9476 75.5681 38.684C75.6313 40.7781 75.5681 42.8722 75.5681 45.003C75.6081 46.0507 75.5818 47.0998 75.4893 48.1442C75.3386 49.1861 75.0504 50.2035 74.6321 51.1702C73.8958 53.0497 72.9913 54.8926 72.4128 56.8296C71.8343 58.7667 71.7449 60.8137 71.4556 62.7874C70.9297 66.4522 70.1725 70.164 68.5106 73.5094C67.5537 75.3456 66.3311 77.0319 64.8819 78.5144C63.5567 79.9436 62.2104 81.4619 61.8265 83.4304C61.7213 83.9539 63.2517 83.7079 63.3463 83.2262C63.7039 81.3938 64.924 79.996 66.1546 78.661C67.432 77.3524 68.5511 75.8993 69.4888 74.3314C71.3399 71.0436 72.2182 67.337 72.8125 63.6408C73.1227 61.7037 73.2805 59.7352 73.6486 57.8034C74.043 55.7093 75.0107 53.7774 75.8048 51.8299C76.2301 50.897 76.5818 49.9325 76.8566 48.9452C77.0519 47.9752 77.14 46.9868 77.1195 45.9977C77.1195 43.9036 77.1616 41.8095 77.1195 39.6787C77.1487 37.5921 76.9903 35.5071 76.6462 33.4486C76.4201 32.2602 76.0625 30.7001 74.9581 29.9985C74.803 29.9212 74.632 29.8809 74.4585 29.8809C74.285 29.8809 74.114 29.9212 73.9589 29.9985C73.8485 30.0456 73.2542 30.3859 73.5382 30.5692L73.5224 30.5639Z" fill="#26345A"/>
<path d="M64.4449 55.9137L64.5448 55.9451L64.692 56.0027L64.9708 56.1231C65.1814 56.2231 65.3852 56.3368 65.5808 56.4634C65.9083 56.6675 66.1997 56.924 66.4433 57.2225C66.9692 57.8403 67.3163 58.5628 67.8053 59.1963C67.92 59.2919 68.066 59.3422 68.2155 59.3376C68.4217 59.3402 68.626 59.2991 68.8151 59.2172C69.0307 59.1177 69.4304 58.8717 69.22 58.5942C68.6941 57.9293 68.3365 57.1754 67.7896 56.542C67.1222 55.8426 66.2772 55.3361 65.3442 55.0761C65.1558 55.035 64.9599 55.0441 64.7762 55.1022C64.5825 55.1438 64.4019 55.2318 64.2503 55.3588C64.197 55.3971 64.1549 55.4488 64.1281 55.5085C64.1013 55.5683 64.0909 55.634 64.0978 55.6991C64.1346 55.8352 64.2818 55.8771 64.3975 55.9189L64.4449 55.9137Z" fill="#26345A"/>
<path d="M68.5946 57.2907C68.8785 56.5211 69.0153 55.7201 69.2835 54.9453C69.653 54.1565 70.0637 53.3876 70.5141 52.6417C71.2486 50.9761 71.8141 49.2415 72.2022 47.464C72.2969 47.087 71.7605 46.9404 71.4923 46.9404C71.3051 46.942 71.1233 47.0026 70.973 47.1137C70.8228 47.2247 70.7118 47.3803 70.6561 47.5582C70.28 49.2904 69.7175 50.9771 68.9785 52.5894C68.5502 53.2858 68.1656 54.0079 67.8268 54.7515C67.5533 55.5159 67.4166 56.3222 67.1378 57.0917C66.8591 57.8613 68.3632 57.9189 68.5946 57.275V57.2907Z" fill="#26345A"/>
<path d="M45.6599 86.1324C46.2699 87.3156 46.8905 88.49 47.5216 89.6558C48.0589 90.7359 48.6576 91.7847 49.3149 92.797C50.0639 93.7309 51.0031 94.4963 52.0706 95.0429C53.0184 95.6115 54.0416 96.045 55.1103 96.3308C57.2718 96.9114 59.575 96.6414 61.542 95.5769C63.2196 94.6136 64.4817 92.8702 64.4028 90.8651C64.2615 89.4705 64.0011 88.0903 63.6245 86.7397C63.4825 86.0852 63.2932 85.4256 63.2091 84.7607C63.1739 84.2346 63.2111 83.7062 63.3195 83.1901C63.3879 82.7189 61.8733 82.9964 61.8102 83.4257C61.6614 84.1303 61.6436 84.856 61.7576 85.567C61.9837 86.6664 62.2362 87.7606 62.4623 88.8547C62.6727 89.8652 62.9882 90.9489 62.8409 91.9593C62.698 92.8557 62.2981 93.692 61.6892 94.3676C60.2746 95.9382 58.0816 96.1371 56.1305 95.5926C54.2899 95.0691 52.1442 93.9906 50.9346 92.4776C50.2125 91.4537 49.5808 90.3694 49.0467 89.2369C48.4103 88.0694 47.795 86.8967 47.185 85.7135C46.9589 85.279 45.4916 85.7921 45.6599 86.1219V86.1324Z" fill="#26345A"/>
<path d="M42.7624 88.3411C42.4911 90.6276 42.6498 92.9445 43.2305 95.1732C43.9093 97.4562 44.9381 99.6212 46.2807 101.592C47.3929 103.493 48.9385 105.107 50.7928 106.303C52.5815 107.382 54.6102 108.005 56.6987 108.115C58.8708 108.218 61.0385 107.833 63.0411 106.99C65.0438 106.146 66.8303 104.865 68.2684 103.241C69.5756 101.763 70.5733 100.04 71.2029 98.173C71.8632 95.9337 72.1266 93.5969 71.9812 91.2676C71.9129 88.5348 71.8918 85.6553 71.1082 83.0167C70.4244 80.7375 69.1556 78.675 67.427 77.0327C67.0273 76.6558 65.5916 77.2317 66.0123 77.6348C67.4651 78.9955 68.5904 80.6652 69.3044 82.5194C70.0827 84.5716 70.2563 86.7705 70.3562 88.9431C70.5771 93.1995 70.6665 97.4767 68.3315 101.23C67.3191 102.93 65.9129 104.363 64.2304 105.41C62.5479 106.458 60.638 107.089 58.6603 107.251C56.6519 107.354 54.6513 106.934 52.8558 106.032C51.0602 105.131 49.5318 103.779 48.4211 102.11C46.9222 100.079 45.7479 97.8288 44.9396 95.4402C44.2165 93.0842 43.9909 90.6048 44.277 88.1578C44.3506 87.5348 42.815 87.807 42.7519 88.3411H42.7624Z" fill="#26345A"/>
<path d="M16.3308 74.6727C17.8761 73.7956 19.497 73.058 21.1743 72.4686C21.9474 72.2016 22.9256 71.7461 23.7565 71.9451C24.5874 72.144 25.208 72.9555 25.7286 73.6256C27.8264 76.3837 29.7312 79.2822 31.4293 82.3005C33.1595 85.3161 34.7477 88.4102 36.3412 91.5043C37.1669 93.0749 38.0872 94.6716 38.7761 96.3313C39.3764 98.0119 39.6824 99.7828 39.6806 101.567C39.6806 102.064 39.7437 102.577 39.7227 103.08C39.7159 103.328 39.6439 103.57 39.5138 103.783C39.3837 103.995 39.2001 104.169 38.9812 104.289C38.206 104.87 37.4021 105.411 36.5726 105.912C34.8602 106.943 33.0492 107.802 31.1664 108.477C31.0191 108.535 30.5721 108.671 30.7036 108.88C30.8351 109.09 31.5608 108.823 31.6818 108.781C33.4864 108.128 35.2332 107.326 36.9039 106.383C37.7243 105.922 38.5202 105.425 39.2915 104.891C39.8963 104.477 40.9218 103.98 41.1742 103.247C41.4266 102.514 41.2268 101.399 41.1742 100.629C41.1335 99.5739 41.0069 98.5234 40.7955 97.4883C40.3538 95.5198 39.2178 93.7345 38.3186 91.9545C36.5147 88.4625 34.732 84.9601 32.7704 81.5571C31.8185 79.8975 30.8193 78.2641 29.757 76.6778C28.7693 75.0514 27.6301 73.5212 26.3544 72.1073C24.9187 70.6729 22.7731 71.4477 21.0955 72.0026C19.0376 72.6819 17.0509 73.5586 15.1633 74.6203C14.8899 74.7774 14.9898 74.8873 15.2422 74.9187C15.6212 74.9276 15.9949 74.8296 16.3203 74.636L16.3308 74.6727Z" fill="#26345A"/>
<path d="M15.0947 74.9703C16.3581 77.493 17.3981 80.1207 18.2028 82.8233C19.0876 85.5334 20.1288 88.1904 21.3213 90.781C22.4749 93.3929 23.3935 96.1015 24.0665 98.8749C24.4347 100.267 24.7923 101.66 25.2182 103.063C25.5682 104.373 26.0657 105.639 26.7013 106.838C26.9747 107.385 27.3721 107.862 27.8621 108.231C28.3522 108.6 28.9215 108.851 29.5253 108.963C30.1181 109.042 30.7209 108.992 31.2926 108.818C31.8644 108.644 32.3916 108.349 32.8385 107.953C33.0751 107.723 32.6229 107.738 32.4861 107.749C32.1187 107.763 31.7637 107.885 31.4659 108.1C30.656 108.885 29.2834 107.833 28.726 107.157C28.044 106.232 27.5296 105.196 27.2061 104.094C26.3489 101.681 25.7809 99.1785 25.1025 96.7127C24.4053 94.2259 23.503 91.8006 22.4047 89.4617C21.3797 87.1596 20.4912 84.7997 19.7437 82.394C18.9386 79.6908 17.8968 77.063 16.6303 74.541C16.4515 74.2007 15.0053 74.7609 15.1105 74.9494L15.0947 74.9703Z" fill="#26345A"/>
<path d="M21.6949 89.0702C23.7196 89.1121 25.8548 89.311 27.0223 91.1643C27.9373 92.6407 28.1372 94.4312 28.8366 96.007C29.198 96.8134 29.7226 97.537 30.3775 98.1326C31.205 98.8359 31.84 99.7365 32.2234 100.75C32.5159 101.707 32.7097 102.691 32.8019 103.687C32.9649 104.986 33.1227 106.305 33.2857 107.582C33.3225 107.881 34.8634 107.582 34.8108 107.174C34.6425 105.806 34.4672 104.441 34.2849 103.08C34.1924 102.065 33.977 101.065 33.6433 100.101C33.2383 99.1547 32.6213 98.3131 31.8395 97.6405C31.0994 96.9458 30.5322 96.089 30.1829 95.138C29.5729 93.5255 29.331 91.7036 28.2423 90.311C26.9171 88.6252 24.6978 88.4839 22.7047 88.442C22.3325 88.4265 21.9648 88.5272 21.6529 88.7299C21.453 88.8922 21.4057 89.0597 21.7423 89.0702H21.6949Z" fill="#26345A"/>
<path d="M48.1427 100.875C49.3891 99.7446 51.419 100.352 52.7811 100.917C54.5165 101.661 56.1626 102.703 58.0821 102.881C60.1331 103.074 62.0789 102.294 63.9038 101.472C65.9127 100.567 67.9164 99.6503 69.9201 98.7394C70.1935 98.6137 70.5038 98.2892 70.2882 97.9855C70.0726 97.6819 69.5414 97.7604 69.2364 97.8913C67.1328 98.8336 65.0818 99.7917 62.9993 100.724C62.0326 101.199 61.0095 101.551 59.9543 101.771C58.8987 101.921 57.8218 101.787 56.8358 101.383C55.0687 100.713 53.4858 99.6503 51.5768 99.2891C50.7518 99.1029 49.8946 99.1106 49.0731 99.3114C48.2515 99.5122 47.4883 99.9007 46.8437 100.446C46.7896 100.497 46.7505 100.562 46.7303 100.634C46.7101 100.705 46.7097 100.781 46.7291 100.853C46.7484 100.925 46.7869 100.99 46.8404 101.042C46.8939 101.094 46.9604 101.13 47.033 101.148C47.2217 101.201 47.4212 101.202 47.6108 101.152C47.8003 101.103 47.9731 101.003 48.1111 100.865L48.1427 100.875Z" fill="#26345A"/>
<path d="M63.7459 105.629L63.709 105.577L63.7722 105.692C63.7436 105.637 63.7275 105.576 63.7248 105.514V105.645C63.725 105.581 63.7357 105.517 63.7564 105.456L63.709 105.587C63.7304 105.527 63.7605 105.471 63.7984 105.42L63.7038 105.545C63.7333 105.504 63.7687 105.467 63.809 105.435L63.6722 105.551C63.699 105.528 63.7271 105.507 63.7564 105.488L63.5881 105.587L63.667 105.551L63.4671 105.619H63.5355L63.3304 105.655H63.404H63.2883L63.1148 105.624H63.1516C63.3408 105.676 63.5409 105.676 63.7301 105.624C63.8293 105.6 63.9236 105.559 64.0088 105.503C64.0929 105.465 64.1681 105.41 64.2297 105.341C64.2836 105.293 64.3244 105.233 64.3483 105.165C64.3722 105.097 64.3784 105.024 64.3664 104.953C64.3401 104.886 64.2975 104.826 64.2425 104.778C64.1876 104.731 64.1218 104.698 64.0509 104.681C63.895 104.639 63.7334 104.623 63.5723 104.634H63.5092C63.4225 104.645 63.3364 104.66 63.2515 104.681C63.115 104.72 62.9841 104.776 62.8624 104.849C62.8157 104.87 62.7716 104.896 62.7309 104.927C62.6649 104.972 62.6033 105.023 62.5468 105.079C62.5132 105.107 62.4832 105.138 62.4574 105.173C62.3989 105.246 62.3461 105.323 62.2996 105.404C62.2392 105.519 62.2034 105.646 62.1945 105.776C62.1813 105.862 62.1813 105.951 62.1945 106.038C62.1923 106.062 62.1923 106.086 62.1945 106.111C62.2229 106.17 62.2545 106.228 62.2891 106.284C62.3365 106.339 62.3984 106.381 62.4679 106.404C62.5439 106.445 62.6288 106.467 62.7151 106.467C62.8144 106.483 62.9156 106.483 63.0149 106.467C63.1184 106.451 63.2192 106.421 63.3146 106.378L63.4882 106.278C63.5816 106.217 63.6591 106.134 63.7143 106.038L63.7616 105.907C63.768 105.862 63.7652 105.817 63.7534 105.774C63.7417 105.731 63.7212 105.69 63.6933 105.655L63.7459 105.629Z" fill="#26345A"/>
<path d="M58.3708 25.235C58.6893 25.4568 58.9821 25.7132 59.2438 25.9993C59.5344 26.287 59.8533 26.5448 60.1957 26.7689C60.9191 27.2357 61.7322 27.5477 62.5832 27.6851C62.7728 27.7134 62.9662 27.703 63.1515 27.6544C63.3369 27.6058 63.5104 27.52 63.6613 27.4024C63.898 27.1982 63.8454 26.9522 63.5298 26.8789C62.7749 26.7647 62.0558 26.4819 61.4263 26.0517C60.7636 25.591 60.2693 24.9365 59.5751 24.4811C59.4073 24.4178 59.2249 24.4033 59.0492 24.4392C58.8468 24.4638 58.6516 24.5298 58.476 24.6329C58.2498 24.7743 58.0342 25.0046 58.3287 25.1878L58.3708 25.235Z" fill="#26345A"/>
<path d="M60.5484 23.2617C61.2216 23.7852 61.8947 24.3088 62.5731 24.8323C63.1758 25.3921 63.9586 25.7205 64.7819 25.7589C64.9704 25.7709 65.1592 25.7394 65.3334 25.6667C65.5077 25.5941 65.6627 25.4823 65.7864 25.3401C65.9704 25.0469 65.6286 24.8637 65.3657 24.8742C65.2835 24.8821 65.2007 24.8821 65.1185 24.8742C65.25 24.8742 65.008 24.8428 64.987 24.8375H64.9502L64.8345 24.7956L64.6084 24.6857C64.3364 24.533 64.0778 24.3579 63.8353 24.1622L61.9631 22.691C61.8088 22.6024 61.6338 22.5557 61.4556 22.5557C61.2774 22.5557 61.1024 22.6024 60.9481 22.691C60.8009 22.7591 60.2645 23.0942 60.5484 23.3193V23.2617Z" fill="#26345A"/>
<path d="M54.9791 41.2396C54.9981 41.3678 55.0434 41.4906 55.1121 41.6005C55.1809 41.7105 55.2717 41.8051 55.3788 41.8785C55.5353 41.9864 55.7158 42.0547 55.9047 42.0776C56.1918 42.1143 56.4833 42.0929 56.7619 42.0147C56.9946 41.9684 57.2138 41.8704 57.4032 41.7281C57.5926 41.5857 57.7473 41.4026 57.8558 41.1925C57.907 41.0531 57.9204 40.9027 57.8945 40.7565C57.8687 40.6102 57.8045 40.4734 57.7085 40.3598C57.6676 40.3128 57.6197 40.2722 57.5665 40.2394C57.4897 40.1803 57.4047 40.1327 57.3141 40.098C57.0449 40.0076 56.7564 39.9895 56.4779 40.0456C56.2755 40.0741 56.0797 40.138 55.8994 40.2341C55.81 40.2865 55.626 40.407 55.6049 40.5327C55.5524 40.8469 56.0625 40.8469 56.2518 40.8102H56.3202H56.1308H56.2255H56.0572C56.0991 40.8052 56.1415 40.8052 56.1834 40.8102L56.0309 40.784C56.0961 40.8002 56.1583 40.8267 56.215 40.8626L56.1151 40.7997C56.2012 40.8515 56.2734 40.9234 56.3254 41.0092L56.2728 40.9254C56.3365 41.0311 56.3676 41.1531 56.3622 41.2763V41.1768C56.3579 41.2791 56.331 41.3793 56.2833 41.4701L56.3359 41.3706C56.3092 41.4204 56.2756 41.4662 56.236 41.5067L56.3359 41.402L56.2413 41.4858L56.378 41.3915C56.3542 41.4096 56.3275 41.4238 56.2991 41.4334L56.4727 41.3496L56.3885 41.3863L56.5884 41.3182L56.5042 41.3444L56.7093 41.3025H56.6199H56.8092H56.6988H56.8671C56.8252 41.3075 56.7828 41.3075 56.7409 41.3025L56.8829 41.3391C56.8157 41.324 56.7517 41.2974 56.6935 41.2606L56.7935 41.3182C56.6937 41.2554 56.6093 41.1714 56.5463 41.0721L56.5989 41.1558C56.5396 41.0618 56.5003 40.9566 56.4832 40.8469C56.4832 40.7317 56.2833 40.6793 56.1992 40.6636C56.009 40.638 55.8156 40.6523 55.6312 40.7055C55.4393 40.7464 55.2594 40.8306 55.1053 40.9516C55.0549 40.983 55.0137 41.0272 54.986 41.0797C54.9583 41.1321 54.945 41.1909 54.9476 41.2501L54.9791 41.2396Z" fill="#26345A"/>
<path d="M58.7973 40.4593C58.4636 40.4849 58.1398 40.5837 57.8488 40.7484C57.5579 40.9132 57.3072 41.1399 57.1145 41.4124C56.9925 41.6049 56.9368 41.8316 56.9558 42.0584C56.9748 42.2852 57.0674 42.4996 57.2196 42.6693C57.7455 43.2349 58.6922 43.0464 59.2654 42.6693C59.5214 42.5076 59.7415 42.2956 59.9122 42.0461C60.0644 41.8406 60.1752 41.6076 60.2383 41.3601C60.2751 41.2147 60.2762 41.0626 60.2414 40.9168C60.2066 40.7709 60.137 40.6355 60.0384 40.5222C59.8668 40.3714 59.6581 40.2688 59.4336 40.2246C59.2091 40.1805 58.9768 40.1964 58.7605 40.2708C58.5657 40.315 58.385 40.4068 58.2346 40.5379C58.1557 40.6164 58.0453 40.7631 58.0874 40.8887C58.2031 41.203 58.7079 41.1663 58.9604 41.093C59.034 41.093 58.9919 41.093 58.8289 41.1192C58.6659 41.1454 58.6396 41.1192 58.6974 41.1192C58.7553 41.1192 58.5028 41.0773 58.6343 41.1192L58.4923 41.0668C58.5408 41.0831 58.5869 41.106 58.629 41.1349L58.5239 41.0563C58.5953 41.1096 58.6545 41.1774 58.6974 41.2553L58.6606 41.1611C58.7056 41.2432 58.7309 41.3346 58.7342 41.4282V41.3129C58.735 41.4737 58.7009 41.6326 58.6343 41.779L58.6869 41.6586C58.6138 41.8244 58.5183 41.9795 58.4029 42.1194L58.4976 42.0042C58.4473 42.0639 58.3928 42.1199 58.3345 42.1718L58.2925 42.2085C58.2925 42.2085 58.4345 42.109 58.3608 42.1561C58.2872 42.2032 58.1873 42.2556 58.324 42.1561C58.4608 42.0566 58.3766 42.1247 58.3503 42.1561C58.324 42.1875 58.5502 42.0933 58.4713 42.1142C58.3924 42.1351 58.6869 42.0775 58.5502 42.1142C58.4134 42.1509 58.7342 42.1142 58.6606 42.1142C58.587 42.1142 58.5607 42.1142 58.6606 42.1142C58.7605 42.1142 58.6606 42.1142 58.6185 42.1142L58.7605 42.1613C58.7026 42.1408 58.6478 42.1126 58.5975 42.0775L58.7027 42.1561C58.6242 42.0918 58.5583 42.0137 58.5081 41.9257L58.5659 42.0304C58.5082 41.9164 58.4759 41.7914 58.4713 41.6638V41.7843C58.4708 41.6713 58.4923 41.5593 58.5344 41.4543L58.4818 41.5748C58.5198 41.4943 58.5674 41.4186 58.6238 41.3496L58.5291 41.4648C58.5712 41.4177 58.6185 41.381 58.6606 41.3391L58.587 41.3915H58.6343C58.6343 41.3915 58.7763 41.3077 58.6343 41.3915C58.4923 41.4753 58.6343 41.3915 58.6343 41.3915C58.7816 41.3287 58.4765 41.4386 58.5502 41.4177H58.6396C58.7605 41.3863 58.3977 41.4543 58.5659 41.4177C58.7711 41.3945 58.9686 41.3266 59.1444 41.2187C59.2443 41.1558 59.4126 41.0197 59.4284 40.8835C59.4652 40.5379 59.0024 40.4855 58.7605 40.5169L58.7973 40.4593Z" fill="#26345A"/>
<path d="M61.29 41.2869C61.0682 41.2011 60.8313 41.161 60.5936 41.1691C60.3558 41.1772 60.1222 41.2333 59.9069 41.3341C59.5852 41.466 59.313 41.6949 59.1285 41.9887C58.9939 42.2374 58.9167 42.513 58.9024 42.7952C58.8346 43.0762 58.8779 43.3725 59.0234 43.6226C59.1524 43.7324 59.3021 43.8153 59.4638 43.8665C59.6254 43.9178 59.7957 43.9364 59.9647 43.9211C60.4103 43.9556 60.857 43.8706 61.2584 43.675C61.5462 43.54 61.7824 43.3159 61.9316 43.0361C62.0341 42.8249 62.0914 42.5949 62.0999 42.3605C62.0999 42.2191 62.0999 42.0777 62.0999 41.9363C62.0997 41.8005 62.0838 41.6652 62.0525 41.5331C61.8948 41.0094 61.2374 40.9099 60.7746 41.0617C60.5812 41.1071 60.4012 41.1968 60.2487 41.3236C60.1751 41.3969 60.0594 41.5435 60.1014 41.664C60.2119 41.9677 60.7325 41.9363 60.9692 41.8578C60.8736 41.8761 60.7755 41.8761 60.6799 41.8578C60.6009 41.8695 60.5201 41.8567 60.4485 41.8211L60.5274 41.863L60.4222 41.7897C60.4592 41.8213 60.4912 41.8584 60.5169 41.8997L60.4643 41.8002C60.5458 42.0009 60.5783 42.2181 60.559 42.4338V42.3239C60.5694 42.5807 60.5283 42.8371 60.438 43.078L60.4854 42.9628C60.4661 43.0108 60.4414 43.0565 60.4117 43.0989C60.4117 43.0989 60.3749 43.1618 60.3644 43.1618C60.3539 43.1618 60.4801 43.0361 60.3644 43.1199C60.2487 43.2037 60.5169 43.0256 60.4222 43.0832C60.3276 43.1408 60.3065 43.1461 60.4222 43.0832C60.5379 43.0204 60.4959 43.0413 60.4222 43.0832C60.5642 43.0361 60.6063 43.0204 60.5432 43.0361C60.3907 43.0727 60.7115 43.0361 60.6221 43.0361H60.5432C60.4117 43.0361 60.7273 43.0361 60.6011 43.0361H60.4012H60.3065C60.2014 43.0361 60.4748 43.0675 60.3591 43.0361C60.3591 43.0361 60.2487 43.0047 60.3591 43.0361C60.4696 43.0675 60.3591 43.0361 60.3276 43.0361L60.4275 43.1146C60.3893 43.0842 60.3572 43.0469 60.3328 43.0047L60.3907 43.1042C60.3595 43.0313 60.3434 42.9529 60.3434 42.8737V42.9837C60.3281 42.6671 60.3745 42.3506 60.4801 42.0515L60.4328 42.1667C60.4686 42.0934 60.5108 42.0233 60.559 41.9573L60.5169 42.0044L60.559 41.9677C60.6379 41.8892 60.4012 42.0777 60.559 41.9677C60.7167 41.8578 60.3644 42.0672 60.5169 41.9939C60.3591 42.0463 60.3171 42.0568 60.396 42.0358C60.2329 42.0672 60.1908 42.0725 60.2697 42.0358H60.154H60.0646C60.1961 42.0882 59.9595 41.9887 60.0646 42.0358C60.2307 42.1048 60.4128 42.1265 60.5905 42.0987C60.7955 42.0745 60.9928 42.0066 61.169 41.8997C61.2795 41.8263 61.4372 41.7164 61.453 41.5697C61.4636 41.511 61.4537 41.4504 61.425 41.3981C61.3963 41.3457 61.3506 41.3046 61.2952 41.2817L61.29 41.2869Z" fill="#26345A"/>
<path d="M60.6325 16.6915C61.4278 17.0349 62.2801 17.2284 63.1463 17.2623C63.3519 17.2805 63.5587 17.2444 63.7458 17.1576C63.9145 17.0876 64.0538 16.9618 64.1402 16.8015C64.173 16.7352 64.1874 16.6614 64.1818 16.5877C64.1763 16.514 64.151 16.4432 64.1087 16.3825C63.9988 16.2574 63.8439 16.1803 63.6774 16.1678C63.4752 16.1627 63.2733 16.147 63.0727 16.1206L62.7782 16.0735L62.6519 16.0473H62.5678H62.6362C62.2521 15.9556 61.8772 15.8294 61.516 15.6703C61.327 15.6164 61.1266 15.6164 60.9375 15.6703C60.7363 15.7124 60.5529 15.8147 60.4116 15.9635C60.3577 16.0188 60.3181 16.0863 60.2961 16.1602C60.2741 16.234 60.2704 16.3121 60.2854 16.3877C60.3129 16.4595 60.3558 16.5244 60.4113 16.5778C60.4667 16.6312 60.5332 16.6718 60.6062 16.6967L60.6325 16.6915Z" fill="#26345A"/>
<path d="M67.3008 15.9006C67.9321 15.9832 68.5741 15.9162 69.1745 15.7051C69.7749 15.494 70.3168 15.1447 70.756 14.6856C70.7922 14.6453 70.8122 14.5931 70.8122 14.539C70.8122 14.4849 70.7922 14.4326 70.756 14.3923C70.6416 14.3018 70.4965 14.2587 70.351 14.2719C70.1642 14.2685 69.9786 14.3025 69.8052 14.3717C69.6318 14.441 69.474 14.5442 69.3413 14.6751V14.6489L69.2887 14.6961C69.2576 14.7316 69.2223 14.7632 69.1835 14.7903L69.0784 14.8794C69.0784 14.8794 69.0363 14.9213 69.0205 14.9213C69.0047 14.9213 69.152 14.8375 69.0731 14.8846L68.9521 14.9579C68.9084 14.9774 68.8662 15.0002 68.8259 15.026L68.9048 14.9893L68.8417 15.0155L68.6945 15.0784C68.5419 15.1307 68.8785 15.0208 68.726 15.0784L68.5893 15.115C68.4315 15.1517 68.7786 15.0836 68.6208 15.115H68.4841H68.4105C68.3263 15.115 68.584 15.115 68.4999 15.115H68.279H68.1949C68.0049 15.0903 67.812 15.1028 67.6269 15.1517C67.435 15.1955 67.2554 15.2814 67.101 15.4031C67.0221 15.4711 66.9011 15.5916 66.9432 15.712C66.97 15.7669 67.0108 15.8137 67.0616 15.8477C67.1124 15.8817 67.1714 15.9018 67.2325 15.9058L67.3008 15.9006Z" fill="#26345A"/>
<path d="M69.5988 20.6445C70.4644 20.7518 71.3427 20.6931 72.1862 20.4717C72.3865 20.4271 72.5693 20.3252 72.7121 20.1784C72.7652 20.1237 72.8043 20.0571 72.8263 19.9842C72.8483 19.9113 72.8524 19.8343 72.8383 19.7595C72.7173 19.4033 72.244 19.3719 71.939 19.4557L71.6761 19.5186L71.5341 19.5447C71.3921 19.5762 71.7287 19.5133 71.5761 19.5447C71.4236 19.5762 71.2343 19.5866 71.0502 19.6024H70.782H70.6874C70.5113 19.5966 70.3357 19.5809 70.1615 19.5552C69.9536 19.5366 69.7446 19.5746 69.5567 19.6652C69.3919 19.7366 69.2552 19.8598 69.1675 20.0161C69.1289 20.0782 69.1084 20.1498 69.1084 20.2229C69.1084 20.296 69.1289 20.3677 69.1675 20.4298C69.2793 20.5517 69.4335 20.6266 69.5988 20.6393V20.6445Z" fill="#26345A"/>
<path d="M67.7577 31.6125C67.7975 31.8498 67.9005 32.0721 68.0558 32.2563C68.2112 32.4405 68.4134 32.5799 68.6412 32.6599C68.9811 32.7676 69.3426 32.7892 69.693 32.7227C70.1472 32.6538 70.5772 32.4739 70.9446 32.199C71.0077 32.1519 71.1392 32.0472 71.1129 31.9372C71.0866 31.8272 70.9131 31.801 70.8342 31.7958C70.6443 31.7828 70.4537 31.8041 70.2715 31.8586C70.0826 31.8972 69.9036 31.9739 69.7456 32.0838L69.6877 32.1257C69.5878 32.1938 69.7456 32.0943 69.7456 32.0943L69.6825 32.1257L69.7666 32.0891L69.8876 32.0472C69.856 32.0472 69.7508 32.0838 69.8876 32.0472C70.0243 32.0105 69.9401 32.0472 69.8876 32.0472C69.835 32.0472 70.0664 32.0472 69.9822 32.0472H69.9086C69.9086 32.0472 70.0769 32.0472 69.9927 32.0472H69.9191C69.835 32.0472 69.9191 32.0472 69.9559 32.0472C69.8638 32.0326 69.7749 32.0025 69.693 31.9581L69.7876 32.0053C69.6104 31.9123 69.4587 31.7774 69.3459 31.6125L69.3932 31.6806C69.2906 31.5228 69.2258 31.3436 69.2039 31.1569C69.2039 31.0522 68.9935 31.0207 68.9304 31.0155C68.7409 31.0008 68.5503 31.0203 68.3677 31.0731C68.1793 31.1159 68.0008 31.1941 67.8418 31.3035C67.7577 31.3664 67.6578 31.4449 67.6735 31.5654L67.7577 31.6125Z" fill="#26345A"/>
<path d="M41.5951 31.4552C41.7653 31.5072 41.9431 31.5303 42.121 31.5232C42.3705 31.523 42.6186 31.486 42.8572 31.4133C43.0932 31.3416 43.318 31.2376 43.5251 31.1043C43.7079 30.9807 43.8695 30.8287 44.0037 30.6539C44.0409 30.6089 44.0612 30.5524 44.0612 30.4942C44.0612 30.4359 44.0409 30.3794 44.0037 30.3344C43.8879 30.2372 43.7396 30.1867 43.5882 30.193C43.3823 30.1867 43.1775 30.226 42.9887 30.3083C42.83 30.3736 42.6906 30.4781 42.5838 30.612L42.5259 30.6801L42.6258 30.5701C42.5735 30.6247 42.5172 30.6755 42.4576 30.722L42.5943 30.6172C42.5485 30.6535 42.4992 30.685 42.447 30.7115L42.6153 30.6225C42.5635 30.6522 42.5089 30.6768 42.4523 30.6958L42.6521 30.6277L42.4996 30.6696L42.7047 30.6277C42.647 30.6328 42.5889 30.6328 42.5312 30.6277H42.7258C42.6663 30.633 42.6064 30.633 42.547 30.6277H42.7205C42.6547 30.6211 42.5896 30.6088 42.5259 30.5911C42.439 30.5752 42.3499 30.5752 42.263 30.5911C42.1599 30.5917 42.0574 30.6058 41.958 30.633C41.7643 30.6745 41.5837 30.7626 41.4321 30.8896C41.3479 30.9734 41.2322 31.099 41.2795 31.23C41.3085 31.2871 41.3509 31.3365 41.403 31.3739C41.4552 31.4112 41.5157 31.4355 41.5793 31.4447L41.5951 31.4552Z" fill="#26345A"/>
<path d="M24.2457 93.2944C24.2567 93.2747 24.271 93.2571 24.2878 93.242C24.3351 93.1897 24.3141 93.2106 24.2247 93.2996L24.272 93.263C24.3351 93.2159 24.3036 93.263 24.1826 93.3153C24.2142 93.3153 24.3509 93.242 24.1826 93.3153C24.0143 93.3886 24.1826 93.3153 24.1826 93.3153C24.3036 93.2787 23.946 93.3153 24.1353 93.3153C24.2194 93.3153 24.3246 93.352 24.0985 93.3153H24.1984H24.2668H24.1826L24.4035 93.4043C24.2247 93.3415 24.3351 93.3677 24.4035 93.4043L24.5087 93.4881C24.6033 93.5666 24.435 93.3939 24.5087 93.4881L24.6086 93.6085C24.6681 93.6933 24.7209 93.7825 24.7664 93.8755L24.698 93.7394C24.8506 94.0819 24.9397 94.449 24.9609 94.8231V94.6713C24.9715 94.7757 24.9715 94.881 24.9609 94.9854C24.9638 95.029 24.9638 95.0727 24.9609 95.1163C24.9609 95.1843 24.9609 95.1739 24.9609 95.1163L24.9346 95.1791C24.8715 95.3257 25.0083 95.0901 24.9346 95.1791C24.861 95.2681 25.0661 95.0796 24.9346 95.1791L25.003 95.1372L25.1345 95.0901C25.0556 95.0901 25.0871 95.0901 25.2344 95.0901C25.3817 95.0901 25.3974 95.0901 25.3185 95.0901C25.1132 95.0638 24.9047 95.0984 24.719 95.1896C24.5503 95.2679 24.4132 95.4008 24.3299 95.5665C24.1931 95.9278 24.4613 96.1843 24.8084 96.2419C25.1567 96.2955 25.5127 96.223 25.8118 96.0376C26.1109 95.8522 26.3334 95.5662 26.4387 95.2315C26.5316 94.7801 26.5136 94.3132 26.3861 93.8703C26.287 93.4207 26.0586 93.0096 25.7287 92.6871C25.4221 92.4038 25.0262 92.2354 24.6086 92.2107C24.3085 92.168 24.0025 92.1965 23.7155 92.2938C23.4286 92.3912 23.1688 92.5546 22.9573 92.7709C22.9045 92.832 22.8666 92.9044 22.8465 92.9825C22.8264 93.0606 22.8247 93.1422 22.8416 93.2211C22.8676 93.2963 22.9105 93.3646 22.967 93.4209C23.0235 93.4771 23.0921 93.5198 23.1676 93.5457C23.3517 93.6036 23.5487 93.6078 23.7351 93.5577C23.9215 93.5076 24.0896 93.4053 24.2194 93.263L24.2457 93.2944Z" fill="#26345A"/>
<path d="M27.0064 102.07C27.0064 102.07 26.8801 102.127 26.9538 102.096L27.0537 102.049L27.2062 101.981C27.2611 101.947 27.3217 101.924 27.385 101.913C27.385 101.913 27.2272 101.96 27.3166 101.913C27.3509 101.9 27.3861 101.889 27.4218 101.881C27.4839 101.869 27.5454 101.853 27.6059 101.834C27.6059 101.834 27.4429 101.834 27.5323 101.834H27.6111C27.646 101.829 27.6815 101.829 27.7163 101.834C27.7163 101.834 27.5743 101.834 27.6585 101.834H27.8268C27.8528 101.829 27.8796 101.829 27.9056 101.834C27.9372 101.834 28.0897 101.881 27.9898 101.834C28.1007 101.872 28.2067 101.923 28.3053 101.986C28.237 101.944 28.3053 101.986 28.3421 102.017L28.4473 102.117C28.5144 102.191 28.5759 102.269 28.6314 102.352C28.6577 102.389 28.6314 102.352 28.6314 102.352L28.6682 102.431C28.6889 102.468 28.7065 102.506 28.7208 102.546C28.7568 102.64 28.7849 102.736 28.8049 102.834C28.8249 102.925 28.8372 103.018 28.8417 103.111V103.164C28.8417 103.127 28.8417 103.2 28.8417 103.2V103.368C28.8272 103.461 28.8043 103.552 28.7734 103.64C28.7608 103.682 28.745 103.722 28.726 103.761C28.726 103.813 28.726 103.761 28.726 103.761L28.6682 103.86C28.6134 103.947 28.5537 104.031 28.4894 104.111C28.5525 104.033 28.4894 104.111 28.4578 104.138C28.4142 104.182 28.3667 104.222 28.3158 104.258C28.3158 104.258 28.237 104.316 28.3158 104.258L28.2685 104.289C28.2422 104.289 28.0897 104.389 28.1896 104.337C28.2895 104.284 28.1896 104.337 28.1896 104.337L28.0792 104.384C27.9109 104.452 28.2001 104.352 28.0792 104.384C27.9582 104.415 27.953 104.384 27.8951 104.431C27.8373 104.478 28.0687 104.399 27.9845 104.431H27.8688H27.7952C27.7005 104.431 27.9425 104.431 27.8478 104.431H27.6322C27.4438 104.415 27.2544 104.445 27.0797 104.517C26.905 104.588 26.75 104.701 26.6277 104.844C26.4279 105.153 26.8013 105.274 27.0379 105.295C28.3106 105.384 29.9303 104.713 30.3143 103.399C30.4517 102.908 30.3933 102.383 30.1512 101.934C30.0074 101.672 29.8023 101.449 29.5533 101.283C29.3042 101.117 29.0186 101.013 28.7208 100.981C27.804 100.903 26.8856 101.11 26.0913 101.572C25.8809 101.682 25.6443 102.023 25.9598 102.169C26.1353 102.221 26.3196 102.235 26.5009 102.21C26.6821 102.186 26.8562 102.124 27.0116 102.028L27.0064 102.07Z" fill="#26345A"/>
<path d="M52.0864 105.037C52.1071 104.829 52.1874 104.631 52.3178 104.466C52.3694 104.401 52.4296 104.343 52.4966 104.294L52.5702 104.241C52.6701 104.163 52.4703 104.283 52.5702 104.241H52.5176C52.4417 104.272 52.3622 104.293 52.281 104.304H52.2231C52.2897 104.304 52.2792 104.304 52.1916 104.304C52.1916 104.304 52.3599 104.304 52.2442 104.304L52.4177 104.335C52.6087 104.392 52.7872 104.485 52.9436 104.608C53.7798 105.21 53.9165 106.351 53.6904 107.288C53.6325 107.529 54.1742 107.419 54.2899 107.398C54.4898 107.364 54.6843 107.305 54.8684 107.22C54.9578 107.183 55.1629 107.105 55.1892 107.005C55.3377 106.547 55.3639 106.058 55.2653 105.586C55.1666 105.114 54.9465 104.676 54.6265 104.315C54.3205 104.01 53.9204 103.816 53.4905 103.765C52.756 103.702 52.0201 103.87 51.387 104.246C51.1619 104.363 50.9683 104.532 50.8228 104.739C50.6772 104.946 50.5839 105.184 50.5508 105.435C50.5508 105.519 50.798 105.524 50.8137 105.524C51.0007 105.52 51.1863 105.492 51.3659 105.44C51.5498 105.396 51.7267 105.328 51.8918 105.236C51.9707 105.184 52.0654 105.131 52.0759 105.032L52.0864 105.037Z" fill="#26345A"/>
<path d="M45.5501 34.7794C46.9476 35.6389 48.5382 36.1375 50.178 36.2301C50.3672 36.2461 50.5575 36.2152 50.7318 36.1403C50.9061 36.0654 51.0591 35.9487 51.1772 35.8006C51.3666 35.4864 51.0195 35.3188 50.7513 35.2769C49.3339 35.1877 47.9608 34.7505 46.7544 34.0044C46.5774 33.9334 46.3853 33.9082 46.1959 33.9311C46.0064 33.9539 45.8259 34.0242 45.6711 34.1353C45.4397 34.2924 45.2346 34.5857 45.5501 34.7742V34.7794Z" fill="#26345A"/>
<path d="M46.8541 31.3977L51.5872 32.4451C51.773 32.4715 51.9622 32.4596 52.1432 32.41C52.3241 32.3605 52.4929 32.2743 52.639 32.157C52.8914 31.9475 52.8125 31.7381 52.5075 31.67L47.806 30.6226C47.6161 30.5934 47.4221 30.6039 47.2365 30.6535C47.0509 30.7031 46.8777 30.7907 46.7279 30.9106C46.4807 31.1201 46.5596 31.3296 46.8594 31.4029L46.8541 31.3977Z" fill="#26345A"/>
</svg>
