<svg width="122" height="122" viewBox="0 0 122 122" fill="none" xmlns="http://www.w3.org/2000/svg">
<circle cx="40" cy="61" r="40" fill="#FFAEAD"/>
<path d="M46.0487 109C45.68 109 45.127 108.814 44.5739 108.258C41.44 105.104 41.6243 88.7774 41.993 62.2468C42.1774 44.2505 42.7304 16.9777 39.5965 15.8646C38.4904 17.7199 38.6748 31.2634 38.8591 42.0241C39.2278 63.5455 39.4122 78.0167 36.2783 80.9852C35.7252 81.5417 34.9878 81.7273 34.6191 81.5417C32.7757 81.3562 32.407 78.0167 31.8539 58.9072C31.6696 50.0019 31.3009 37.0148 30.0104 34.2319C29.273 36.4583 29.273 46.1058 29.273 53.3414C29.273 66.3284 29.0887 72.6364 27.6139 74.1206C27.2452 74.4916 26.8765 74.4916 26.5078 74.4916C23.927 74.4916 23.7426 70.039 23.3739 62.6178C23.1896 59.2783 23.1896 53.898 22.2678 53.1558C22.0835 53.1558 21.8991 53.3414 21.7148 53.5269C20.793 54.6401 21.1617 57.6085 21.3461 60.0204C21.5304 62.9889 21.7148 64.8442 20.793 65.7718C20.4243 66.1429 20.0557 66.3284 19.687 66.3284C16.7374 66.3284 16 62.2467 16 59.8349H17.8435C17.8435 60.7625 18.2122 64.4731 19.687 64.4731C19.8713 64.102 19.687 61.6902 19.687 60.2059C19.5026 57.2375 19.3183 53.898 20.6087 52.4137C21.1617 51.8571 21.7148 51.4861 22.4522 51.4861C22.8209 51.4861 23.3739 51.6716 23.7426 51.8571C25.033 52.9703 25.2174 56.6809 25.4017 62.4323C25.5861 65.7718 25.5861 71.7087 26.5078 72.4508C27.6139 70.7811 27.4296 60.577 27.4296 53.1558C27.4296 40.1688 27.6139 33.8609 29.0887 32.3766C29.4574 32.0056 29.8261 32.0056 30.1948 32.0056C32.5913 32.0056 33.1443 37.9425 33.6974 58.7217C33.8817 67.0705 34.2504 77.4601 34.9878 79.6865C37.753 77.0891 37.3843 56.8664 37.0157 42.0241C36.647 24.2134 36.647 16.0501 38.3061 14.3803C38.6748 14.0093 39.0435 14.0093 39.4122 14.0093C44.0209 14.1948 44.2052 28.8516 43.6522 62.4323C43.2835 82.0983 42.9148 104.362 45.68 107.145L45.8643 107.33C45.8643 107.33 46.0487 107.33 46.0487 107.145C48.8139 104.176 47.5235 81.3562 46.4174 62.9889C45.127 41.4675 44.5739 28.295 46.7861 25.8831C47.1548 25.5121 47.7078 25.3265 47.8922 25.3265C51.3948 25.3265 51.9478 33.8609 52.1322 53.3414C52.3165 61.6902 52.5009 79.1299 54.5287 79.1299C54.5287 79.1299 54.713 79.1299 54.8974 78.9443C56.9252 76.9035 56.5565 64.8442 56.1878 55.9388C55.8191 45.3636 55.8191 41.0965 57.1096 39.7978C57.4783 39.4267 57.847 39.4267 58.0313 39.4267C60.4278 39.4267 60.6122 44.0649 60.6122 56.1243C60.6122 61.3191 60.6122 68.3692 61.3496 70.039C61.9026 68.9258 62.087 63.3599 62.087 59.6493C62.2713 51.6716 62.4557 47.59 64.6678 47.59C66.88 47.59 67.0643 51.3006 67.0643 56.4954C67.0643 58.3506 67.0644 62.9889 67.6174 64.2876C67.9861 61.8757 67.6174 54.8256 67.433 48.5176C66.88 32.3766 66.5113 20.6883 68.7235 18.462C69.0922 18.0909 69.6452 17.9054 69.8296 17.9054C72.4104 17.9054 72.9635 25.3265 73.3322 52.4137C73.5165 67.4416 73.8852 90.2616 76.2817 91.5603C78.1252 90.4471 77.0191 72.0798 76.2817 59.8349C75.1757 42.9518 74.6226 32.5622 76.6504 30.5213C77.0191 30.1503 77.3878 29.9648 77.7565 29.9648C80.8904 29.9648 81.4435 37.757 81.9965 56.8664C82.3652 66.1429 82.7339 78.5733 84.2087 80.6141C85.4991 77.8312 85.3148 60.7625 85.1304 46.8479C85.1304 25.3265 85.1304 11.7829 87.3426 9.55659C87.7113 9 88.08 9 88.4487 9C91.2139 9 91.767 17.3488 91.9513 48.3321C92.1357 66.885 92.32 94.8998 95.0852 96.013C97.6661 95.4564 96.56 70.039 95.8226 55.0111C95.0852 34.7885 94.5322 22.3581 96.56 20.1317C96.9287 19.7607 97.2974 19.5751 97.6661 19.5751C100.984 19.5751 101.537 28.295 101.906 47.961C102.09 56.1243 102.275 67.4416 103.381 69.1113C104.303 67.9981 104.303 60.9481 104.118 56.4954C103.934 49.2597 103.934 44.807 105.409 43.3228C105.777 42.9518 106.146 42.7662 106.515 42.7662C109.28 42.7662 109.28 47.7755 109.28 54.0835C109.28 57.2375 109.28 63.1744 110.202 63.5455C111.492 63.5455 111.677 58.1651 111.861 55.5677C112.045 51.4861 112.23 49.0742 113.889 49.0742C115.548 49.0742 115.917 51.6716 116.47 57.2375C116.654 58.5362 116.654 60.3915 117.023 61.6902C117.023 61.1336 117.023 60.577 117.023 60.0204C117.023 57.2375 117.023 55.5677 117.76 54.6401C118.129 54.269 118.497 54.0835 118.866 54.0835C121.816 54.0835 122 60.0204 122 61.1336H120.157C120.157 58.7217 119.603 55.7532 118.682 55.7532C118.313 56.1243 118.497 58.5362 118.497 59.8349C118.497 62.2467 118.497 63.731 117.944 64.4731C117.76 64.6586 117.391 64.8442 117.023 64.8442C115.363 64.8442 115.179 62.4323 114.626 57.2375C114.442 55.5677 114.257 52.9703 113.889 51.4861C113.704 52.5993 113.704 54.0835 113.52 55.3822C113.336 60.2059 112.967 65.0297 110.202 65.0297C107.621 65.0297 107.437 60.0204 107.437 53.7124C107.437 50.5584 107.437 44.6215 106.515 44.2505C105.593 44.9926 105.777 51.6716 105.962 56.1243C106.146 63.731 106.146 68.5547 104.671 70.039C104.303 70.41 103.934 70.5955 103.381 70.5955C100.984 70.5955 100.616 65.7718 100.247 47.59C99.8783 38.6846 99.6939 22.9147 97.8504 21.4304C96.3756 23.6568 97.113 40.9109 97.8504 54.8256C98.9565 78.3878 99.5096 94.1577 96.56 97.1262C96.007 97.6827 95.4539 97.6827 95.0852 97.6827C91.0296 97.6827 90.4765 82.6549 90.1078 48.3321C89.9235 32.9332 89.9235 14.0093 88.2644 10.8553C86.7896 14.0093 86.9739 33.1187 87.1583 47.2189C87.527 69.8534 87.3426 80.6141 85.4991 82.4694C85.1304 82.8404 84.7617 82.8404 84.5774 82.8404C81.8122 82.8404 81.2591 75.7904 80.5217 57.2375C80.153 47.7755 79.6 33.6753 78.1252 32.0056C76.8348 34.0464 77.7565 48.8887 78.3096 59.8349C79.6 78.9443 80.153 90.6327 77.7565 93.0445C77.3878 93.6011 76.8348 93.6011 76.4661 93.6011C73.1478 93.6011 72.4104 83.397 71.8574 52.5993C71.673 39.0557 71.4887 22.3581 70.0139 19.9462C68.3548 21.8015 69.0922 39.2412 69.4609 48.5176C70.0139 61.8757 70.0139 65.2152 69.0922 66.1429L68.9078 66.3284H68.3548C65.5896 66.3284 65.5896 61.6902 65.5896 56.3098C65.5896 54.0835 65.5896 50.3729 65.0365 49.2597C64.2991 50.5584 64.2991 55.7532 64.2991 59.4638C64.1148 67.4416 63.9304 71.7087 61.7183 71.7087C59.5061 71.7087 59.3217 67.6271 59.3217 55.9388C59.3217 50.9295 59.3217 43.6939 58.5843 41.4675C58.0313 43.6939 58.2157 50.1874 58.4 55.7532C58.7687 68.3692 58.953 77.4601 56.5565 80.0575C56.1878 80.4286 55.6348 80.7996 54.8974 80.7996C51.5791 80.7996 51.0261 72.4508 50.6574 53.1558C50.6574 44.2505 50.2887 26.9963 48.2609 26.9963C46.6017 28.4805 47.5235 47.4044 48.4452 62.8033C49.92 88.2208 50.6574 104.918 47.5235 108.258C46.9704 109 46.4174 109 46.0487 109Z" fill="#26345A"/>
</svg>
