<svg width="40" height="40" viewBox="0 0 40 40" fill="none" xmlns="http://www.w3.org/2000/svg">
<rect width="40" height="40" rx="20" fill="#D93025"/>
<path opacity="0.3" d="M31.2504 10.834H8.75195L9.58529 28.9577H30.417L31.2504 10.834Z" fill="white"/>
<path opacity="0.3" d="M31.2504 10.834H8.75195L19.1156 18.5674H21.0427L31.2504 10.834Z" fill="white"/>
<path opacity="0.1" d="M10.625 28.958L20 20.5205L29.375 28.958H10.625Z" fill="white"/>
<path fill-rule="evenodd" clip-rule="evenodd" d="M10.6267 12.3964C10.6267 11.5339 9.92803 10.834 9.06434 10.834C8.2019 10.834 7.50195 11.5339 7.50195 12.3964C7.50195 15.7236 7.50195 23.4968 7.50195 27.0828C7.50195 28.119 8.34189 28.9577 9.37682 28.9577C10.0418 28.9577 10.6267 28.9577 10.6267 28.9577C10.6267 28.9577 10.6267 16.7948 10.6267 12.3964Z" fill="white"/>
<path fill-rule="evenodd" clip-rule="evenodd" d="M29.375 12.3964C29.375 11.5339 30.075 10.834 30.9374 10.834C30.9386 10.834 30.9399 10.834 30.9399 10.834C31.8023 10.834 32.4998 11.5327 32.4998 12.3939C32.4998 15.7199 32.4998 23.4956 32.4998 27.0828C32.4998 28.119 31.6611 28.9577 30.6249 28.9577C29.9612 28.9577 29.375 28.9577 29.375 28.9577C29.375 28.9577 29.375 16.7948 29.375 12.3964Z" fill="white"/>
<path fill-rule="evenodd" clip-rule="evenodd" d="M8.28083 13.7487C7.9221 13.5412 7.66087 13.2012 7.55338 12.8012C7.44588 12.4013 7.50213 11.9763 7.70962 11.6176C7.70962 11.6176 7.71087 11.6163 7.71087 11.6151C7.91835 11.2564 8.25958 10.9951 8.65955 10.8876C9.05952 10.7801 9.48574 10.8364 9.84446 11.0439L20 16.9072L30.158 11.0426C30.5168 10.8351 30.9417 10.7789 31.3417 10.8864C31.7417 10.9939 32.0816 11.2551 32.2891 11.6138L32.2904 11.6151C32.4979 11.9738 32.5541 12.4013 32.4466 12.8012C32.3391 13.2012 32.0767 13.5424 31.7179 13.7499L23.1248 18.7108L20 20.5157L16.8752 18.7108L8.28083 13.7487Z" fill="white"/>
</svg>
