<svg width="1440" height="750" viewBox="0 0 1440 750" fill="none" xmlns="http://www.w3.org/2000/svg">
<mask id="mask0" mask-type="alpha" maskUnits="userSpaceOnUse" x="0" y="0" width="1440" height="750">
<rect width="1440" height="750" fill="#EDEDED"/>
</mask>
<g mask="url(#mask0)">
<rect width="1440" height="810.352" fill="#C4C4C4"/>
<g clip-path="url(#clip0)">
<path d="M1440 0H0V880H1440V0Z" fill="#FBF4F2"/>
<path d="M991.372 526.811C1088.34 526.811 1166.95 448.246 1166.95 351.331C1166.95 254.416 1088.34 175.852 991.372 175.852C894.4 175.852 815.789 254.416 815.789 351.331C815.789 448.246 894.4 526.811 991.372 526.811Z" fill="white" fill-opacity="0.5"/>
<path d="M1845.94 375.433L532.958 606.812L720.094 1667.49L2033.08 1436.11L1845.94 375.433Z" fill="white"/>
<path fill-rule="evenodd" clip-rule="evenodd" d="M1169.73 660.767C1169.64 632.212 1169.09 603.647 1168.13 575.109C1167.41 553.957 1166.5 532.79 1164.72 511.698C1164.02 503.342 1163.2 494.979 1161.91 486.689C1161.12 481.557 1160.38 475.965 1158.22 471.186C1157.51 469.622 1156.82 468.605 1155.31 467.805C1149.73 464.845 1142.07 464.41 1135.92 463.785C1125.82 462.761 1115.61 462.466 1105.47 462.674C1106.06 473.572 1106.65 484.47 1107.25 495.367C1107.71 503.76 1108.16 512.153 1108.62 520.546C1108.91 525.843 1109.61 531.292 1109.5 536.598C1109.41 540.92 1104.32 545.057 1101.73 548.432C1098.56 538.737 1095.39 529.042 1092.21 519.347C1090.53 523.674 1088.74 527.964 1086.79 532.174C1085.5 534.951 1084.19 537.81 1082.49 540.363C1080.93 542.695 1080.47 543.024 1077.76 542.626C1074.5 542.148 1072.02 541.181 1070.09 543.603C1068.38 545.751 1066.79 547.941 1064.94 549.979C1044.46 572.481 1012.89 586.455 983.649 592.777C966.424 596.5 949.047 599.523 931.829 603.319C905.54 609.115 878.537 614.83 853.428 624.738C849.493 626.29 845.516 627.958 841.925 630.217C837.967 632.708 835.139 636.476 832.4 640.207C825.707 649.324 817.86 664.276 828.183 673.791C836.098 681.086 848.463 681.818 858.745 682.639C869.372 683.488 880.037 683.902 890.691 684.248C919.71 685.19 948.757 685.394 977.79 685.421C1004.32 685.442 1030.85 685.292 1057.37 684.785C1069.4 684.555 1080.99 684.834 1092.64 681.75C1116.46 675.439 1140.22 668.868 1163.99 662.343C1165.9 661.818 1167.82 661.293 1169.73 660.767Z" fill="#85A090"/>
<path fill-rule="evenodd" clip-rule="evenodd" d="M927.595 411.207C928.708 412.363 926.904 413.253 926.092 413.505C926.223 412.39 926.761 411.886 927.595 411.207ZM1080.17 628.437C1080.6 627.426 1081.24 626.594 1082.41 627.072C1084.35 627.86 1080.43 628.426 1080.17 628.437ZM911.931 465.568C911.131 465.667 907.86 465.462 908.871 463.684C910.043 461.623 911.655 464.929 911.931 465.568ZM970.594 447.335C968.874 445.863 967.333 443.611 967.315 441.272C968.936 442.347 969.802 445.673 970.594 447.335ZM929.354 417.769C927.921 417.841 929.232 415.827 929.218 415.425C929.189 414.564 928.382 413.825 928.513 412.804C928.518 412.762 929.962 409.533 930.343 409.328C931.414 408.751 932.037 409.808 932.999 410.135C934.423 410.619 935.118 410.192 936.647 410.341C937.995 410.472 939.13 411.127 940.539 411.126C940.873 411.126 941.243 410.418 941.627 410.457C942.226 410.518 942.283 411.281 942.707 411.319C944.195 411.451 944.282 410.861 945.67 410.306C947.977 409.384 949.596 411.529 949.544 414.065C949.476 417.423 945.969 418.796 943.282 419.568C939.816 420.562 937.891 421.162 934.37 420.535C933.351 420.353 932.317 420.677 931.513 419.976C930.433 419.033 931.006 417.043 929.773 416.123C929.633 416.672 929.494 417.221 929.354 417.769ZM1051.28 551.39C1050.99 553.584 1051.59 554.714 1049.46 556.185C1048.2 557.054 1046.62 557.625 1045.29 558.495C1043.36 559.755 1040.47 560.565 1038.75 562.015C1037.67 562.935 1037.47 565.54 1035.97 565.855C1034.68 566.123 1033.16 563.808 1032.72 562.765C1032.23 561.61 1032.55 560.659 1032.36 559.506C1032.22 558.732 1031.64 558.571 1031.74 557.662C1031.85 556.708 1032.78 556.204 1033.18 555.447C1033.54 554.768 1033.65 553.806 1033.93 553.271C1034.6 552.01 1036.08 549.333 1037.39 548.499C1038.5 551.41 1039.35 548.46 1040.89 547.605C1041.46 547.59 1042.03 547.584 1042.61 547.591C1042.91 547.307 1043.21 547.03 1043.52 546.758C1044.23 546.692 1045.4 547.071 1046.04 547.269C1046.39 547.188 1046.75 547.141 1047.11 547.128C1047.59 547.268 1047.78 547.535 1047.68 547.929C1047.47 547.833 1048.63 548.536 1048.74 548.611C1051.03 550.164 1053.13 550.784 1053.55 554.089C1052.79 553.19 1052.04 552.289 1051.28 551.39ZM1033.43 433.406C1035.87 427.07 1035.1 421.488 1034.86 414.856C1034.8 413.299 1034.47 409.959 1036.1 408.926C1038.13 407.637 1039.83 410.552 1040.89 411.758C1042.71 413.828 1045.25 415.728 1046.19 418.415C1047.01 420.785 1046.16 423.693 1045.53 426.041C1044.85 428.572 1044.02 431.974 1041.71 433.375C1039.25 434.872 1035.91 434.725 1033.43 433.406ZM947.153 568.155C947.506 563.299 954.267 565 957.308 566.498C959.581 567.617 960.854 569.325 962.286 571.355C963.911 573.659 964.444 574.303 964.314 577.043C964.195 579.543 964.335 582.057 963.708 584.544C963.39 585.806 963.319 586.029 962.48 586.898C962.482 586.896 961.027 588.344 961.432 588.112C959.556 589.182 956.758 589.361 954.554 589.527C951.404 589.763 950.646 589.806 949.368 586.816C949.122 587.336 948.876 587.856 948.631 588.377C948.552 588.009 947.677 583.641 947.879 583.683C948.232 583.759 948.611 584.776 948.784 585.034C948.675 583.022 947.241 581.518 946.546 579.723C945.906 578.074 945.644 576.205 945.151 574.499C944.674 572.847 944.139 570.549 944.601 568.835C945.215 566.558 945.408 567.206 947.153 568.155ZM906.331 461.107C905.232 462.141 906.211 463.813 906.068 465.094C904.575 464.179 905.093 463.69 904.514 462.202C904.142 461.244 903.044 459.41 902.086 460.981C901.683 461.641 903.016 462.547 902.113 462.935C901.583 463.163 900.171 461.389 899.913 461.11C898.133 459.185 896.995 457.218 896.848 454.593C896.807 453.875 896.818 452.083 897.073 451.67C897.813 450.479 899.78 451.184 899.611 449.007C898.828 449.396 898.045 449.785 897.262 450.174C897.018 447.726 899.663 446.277 900.769 444.335C902.028 442.121 902.846 440.511 904.898 438.607C905.845 437.727 907.386 435.916 908.616 435.493C909.572 435.164 909.96 435.65 910.925 435.659C912.942 435.678 915.973 435.133 912.97 437.368C913.58 437.654 914.382 437.832 914.902 438.283C915.288 438.617 915.432 439.57 915.884 439.799C916.859 440.291 917.589 439.331 918.69 440.424C919.849 441.576 918.662 442.302 918.921 442.809C919.663 444.269 920.685 443.543 920.652 445.769C920.597 449.438 918.482 453.781 917.344 457.21C916.674 459.225 915.926 462.376 913.104 461.55C913.211 462.52 913.457 463.46 912.826 464.326C912.237 463.633 912.026 462.114 911.629 461.3C911.044 460.103 910.091 458.946 909.418 457.781C909.517 459.622 909.717 460.134 910.969 461.527C909.321 461.729 907.291 463.049 906.331 461.107ZM1026.91 514.43C1025.4 513.286 1027.38 512.011 1024.4 512.659C1023.64 512.825 1024.41 513.714 1023.26 513.746C1022.82 513.758 1021.76 512.693 1021.46 512.442C1021.18 512.213 1019.95 510.549 1019.75 510.442C1020.08 510.62 1018.25 509.911 1018.82 510.372C1017.73 509.494 1016.9 508.05 1016.41 506.295C1015.21 501.992 1015.38 496.851 1017.87 493.156C1018.92 491.606 1019.75 489.716 1021.33 488.676C1023.47 487.266 1027 486.427 1029.38 485.532L1028.61 483.655C1035.16 486.613 1039.68 493.519 1040.24 500.535C1040.43 503.059 1041.15 506.265 1039.61 508.502C1038.01 510.838 1033.96 513.293 1031.72 510.698C1032.06 512.144 1031.07 513.873 1029.54 514.245C1028.96 514.385 1028.41 513.965 1028.16 514.003C1027.83 514.049 1027.14 514.476 1026.91 514.43ZM1087.06 367.94C1091.46 367.416 1090.78 375.36 1089.95 377.746C1089.29 379.671 1086.9 382.349 1085.64 384.025C1084.14 386.022 1082.13 387.513 1079.99 388.787C1079.26 389.224 1078.73 389.363 1078.1 389.607C1077.87 389.385 1077.6 389.269 1077.29 389.259C1077.02 389.717 1076.63 390.06 1076.12 390.287C1074.52 390.785 1071.87 390.709 1070.28 390.642C1067.72 390.534 1064.72 389.06 1062.17 388.568C1060.98 388.339 1060.32 388.246 1059.26 387.627C1058.73 387.316 1057.69 384.916 1057.54 387.273C1056.88 386.869 1057.09 386.204 1056.61 385.908C1056.15 385.625 1054.69 385.353 1054.14 384.731C1053.38 383.864 1052.36 381.885 1051.83 380.7C1051.49 379.94 1050.77 377.98 1050.82 377.189C1050.95 375.512 1051.49 375.898 1052.92 375.204C1053.88 374.74 1054.43 374.351 1055.39 374.095C1055.5 374.065 1055.77 374.636 1055.95 374.587C1056.28 374.502 1056.41 374.124 1056.64 374.05C1058.39 373.484 1060.46 371.804 1062.62 371.967C1063.56 372.037 1064.43 373.458 1064.91 373.386C1065.65 373.274 1065.28 371.762 1065.79 371.213C1067.11 369.817 1071.48 370.043 1073.18 369.801C1077.81 369.143 1082.43 368.53 1087.06 367.94ZM932.831 488.688C932.409 485.392 931.89 482.119 935.508 480.496C936.866 479.888 937.996 480.108 939.389 479.943C941.198 479.728 940.935 478.949 942.277 480.889C943.02 479.936 942.527 479.627 943.742 479.514C944.244 479.467 946.433 480.89 947.002 481.123C949.377 482.093 952.401 482.003 954.193 483.961C955.934 485.864 957.342 487.693 958.076 490.288C958.446 491.596 958.689 492.95 959.147 494.234C959.641 495.622 960.754 496.818 961.134 498.207C962.685 503.858 956.095 509.016 951.466 510.515C950.87 510.393 950.285 510.431 949.712 510.63C949.308 510.896 948.946 511.21 948.625 511.572C947.169 512.028 946.823 511.878 945.341 511.21C942.897 510.11 940.043 509.735 938.194 512.309C937.623 509.314 935.541 511.096 934.54 509.167C933.987 508.103 935.195 505.155 934.495 504.388C933.306 503.085 929.599 505.401 929.695 502.359C929.73 501.251 930.991 500.884 931.428 500.008C932.213 498.436 931.777 496.771 930.687 495.389C930.585 495.628 930.19 497.194 929.667 496.78C928.281 495.678 930.56 493.944 931.057 493.343C931.877 492.352 932.623 491.596 932.44 490.213C932.327 489.356 930.95 488.464 930.999 487.63C931.037 486.995 932.739 488.614 932.831 488.688ZM997.216 524.272C997.122 526.582 998.6 526.884 999.573 528.473C999.838 528.906 999.855 529.943 1000.23 530.578C1000.92 531.768 1001.4 531.841 1001.62 533.001C1001.59 532.871 1001.25 534.149 1001.24 534.295C1001.15 535.925 1002.28 537.229 1001.97 539.022C1001.53 541.545 999.61 544.354 998.257 546.453C995.198 551.196 990.922 554.872 985.064 555.208C981.152 555.432 971.947 553.869 971.108 549.784C971.329 549.31 971.516 548.822 971.669 548.32C971.759 547.594 971.49 547.098 970.861 546.833C970.378 546.706 970 546.438 969.728 546.029C969.86 545.613 970.078 545.248 970.381 544.933C970.272 544.386 969.35 544.359 969.364 544.006C969.392 543.35 969.97 541.704 970.125 540.956C970.394 539.663 970.541 538.431 970.777 537.129C970.968 536.076 971.615 535.556 971.781 534.59C971.895 533.932 971.225 533.334 971.282 532.636C971.723 532.241 972.081 531.782 972.355 531.257C972.386 530.711 972.252 530.205 971.952 529.739C972.609 525.144 979.118 521.285 983.748 521.179C986.236 521.122 990.483 520.944 992.72 522.242C994.215 523.109 995.218 526.186 997.216 524.272ZM1097.07 686.229C1100.34 684.757 1103.27 683.188 1106.77 682.473C1109.3 681.956 1111.47 680.538 1114.01 680.075C1119.64 679.051 1125.72 678.105 1131.11 676.134C1136.9 674.02 1143.2 673.263 1149.13 671.506C1152.05 670.641 1154.6 670.073 1157.62 669.906C1160.57 669.744 1163.59 668.104 1166.53 668.381C1168.99 668.613 1170.74 670.5 1172.67 671.845C1175.16 673.588 1177.88 675.092 1180.56 676.532C1183.41 678.061 1186.58 678.827 1189.39 680.318C1191.72 681.555 1194.01 682.763 1196.41 683.897C1209.18 689.925 1221.51 695.556 1233.03 703.943C1229.32 705.072 1225.09 703.946 1221.4 703.549C1216.15 702.982 1210.93 702.557 1205.73 701.586C1202.7 701.019 1196.76 698.853 1193.86 700.518C1191.31 701.98 1191.51 705.733 1191.14 708.244C1188.73 707.316 1186.34 706.364 1183.91 705.493C1182 704.807 1178.9 702.923 1176.95 702.857C1171.53 702.674 1172.12 710.274 1172.65 713.762C1169.48 712.687 1166.47 711.937 1163.4 710.606C1160.94 709.538 1158.22 709.302 1155.83 708.03C1149.89 704.867 1143.3 702.884 1136.94 700.639C1129.76 698.105 1122.6 695.524 1115.48 692.821C1112.56 691.71 1109.67 690.243 1106.68 689.342C1103.46 688.371 1100.16 687.641 1097.07 686.229ZM1026.26 396.426C1026.72 400.701 1026.25 405.012 1026.12 409.292C1025.96 414.304 1025.96 419.262 1025.31 424.244C1024.14 433.232 1022.49 442.222 1019.26 450.726C1016.33 458.472 1011.38 463.949 1003 465.623C995.469 467.127 988.129 464.548 983.337 458.537C978.365 452.305 976.838 444.433 973.927 437.209C972.504 433.677 971.45 430.126 970.262 426.511C969.55 424.347 966.021 418.132 967.031 415.908C968.016 413.736 973.834 412.994 975.848 411.787C979.047 409.869 982.006 406.023 984.448 403.213C986.084 401.33 987.039 399.938 988.143 402.925C989.469 406.515 988.508 410.662 989.746 414.144C990.964 417.568 993.622 414.19 993.895 411.959C994.419 407.674 993.789 402.806 993.586 398.5C993.208 390.474 992.681 381.192 985.436 376.243C978.57 371.554 971.117 370.094 967.305 361.998C965.777 358.752 963.98 355.351 964.935 351.719C966.038 347.528 967.672 343.145 969.278 339.116C972.364 331.38 977.198 324.645 981.423 317.542C981.994 316.584 982.114 315.356 983.361 315.085C984.771 314.779 988.062 317.175 989.43 317.561C993.153 318.613 996.48 316.431 999.765 318.9C1002.4 320.883 1004.64 323.735 1008.19 323.942C1009.72 324.032 1011.8 322.666 1013.12 322.992C1014.8 323.407 1015.29 325.913 1015.94 327.321C1017.42 330.552 1019.08 334.6 1021.54 337.24C1022.37 338.137 1023.84 338.414 1024.56 339.248C1025.38 340.217 1024.92 342.185 1026.11 342.362C1026.8 342.464 1027.35 341.532 1027.92 341.31C1028.91 340.932 1029.87 340.86 1030.92 340.89C1032.87 340.947 1034.89 341.417 1036.6 342.348C1040.58 344.511 1042.05 347.801 1037.27 349.78C1035.35 350.574 1033.27 351.164 1031.2 351.348C1028.92 351.55 1026.62 350.841 1024.37 351.118C1020.03 351.651 1018.7 355.275 1017.58 358.999C1016.03 364.122 1014.78 369.309 1013.05 374.378C1011.63 378.519 1009.06 382.729 1008.32 387.055C1007.86 389.713 1008.46 389.515 1010.24 391.158C1011.59 392.409 1012.4 394.052 1013.87 395.307C1017.95 398.807 1021.52 397.874 1026.26 396.426ZM762.473 645.239C762.598 644.326 781.969 646.072 784.17 645.845C787.93 645.459 791.934 646.487 795.821 646.356C799.258 646.239 804.215 644.905 807.053 646.572C808.105 647.19 808.131 647.919 809.791 647.605C811.334 647.312 812.96 646.223 814.115 645.213C817.33 642.402 819.295 637.981 821.398 634.337C825.606 627.044 829.21 619.487 832.703 611.817C839.898 596.019 846.821 580.132 854.008 564.331C857.563 556.515 860.991 548.686 864.825 541.015C866.461 537.741 868.258 534.15 869.517 530.72C870.89 526.98 872.695 523.469 873.926 519.635C876.534 511.514 879.652 503.515 881.649 495.164C882.155 493.049 882.342 490.835 882.952 488.751C883.602 486.525 884.93 484.622 885.762 482.467C886.611 480.271 886.613 478.311 887.035 476.067C887.457 473.83 888.485 471.65 889.226 469.507C893.041 471.805 897.385 473.896 900.895 476.627C904.348 479.314 909.387 481.565 907.941 486.423C906.627 490.841 904.299 494.904 902.914 499.316C901.361 504.267 899.452 509.106 897.953 514.068C894.735 524.72 891.918 535.498 889.036 546.246C887.683 551.295 885.991 556.355 884.999 561.491C884.482 564.163 884.567 566.552 883.594 569.14C882.644 571.67 881.744 574.144 880.963 576.735C879.574 581.345 878.248 585.965 876.712 590.527C875.88 592.997 875.215 595.493 874.624 598.03C874.266 599.563 873.048 602.512 873.39 604.099C874.374 608.669 880.426 604.013 881.874 602.147C885.234 597.82 887.644 592.527 890.16 587.681C900.263 568.227 905.231 547.243 910.441 526.065C911.81 520.497 913.132 514.98 914.671 509.47C916.284 503.696 916.753 497.66 918.657 491.919C920.623 485.987 922.63 480.27 924.074 474.167C924.742 471.341 925.449 468.517 926.042 465.675C926.358 464.158 926.372 461.367 928.395 461.064C927.092 470.587 926.611 481.743 922.812 490.674C919.368 498.775 916.631 509.872 920.113 518.472C921.787 522.608 924.435 526.14 926.427 530.08C928.654 534.485 930.105 539.542 931.597 544.236C934.688 553.956 935.6 564.178 937.668 574.121C938.752 579.332 938.773 582.896 937.832 588.024C937.53 589.675 938.064 590.987 936.672 592.046C935.272 593.111 932.033 593.326 930.303 593.937C925.05 595.791 920.534 597.152 914.972 597.76C909.717 598.335 904.783 599.378 899.779 601.097C890.76 604.195 881.383 606.51 872.521 609.615C867.674 611.314 863 614.341 858.34 616.511C853.493 618.77 848.352 620.245 843.783 623.064C838.861 626.099 833.993 629.624 829.329 633.027C825.009 636.178 822.938 640.096 821.139 645.001C817.72 654.326 809.1 666.427 817.062 675.836C814.271 677.047 811.076 677.529 808.401 678.824C807.478 679.272 807.203 679.709 806.153 679.966C804.78 680.302 803.013 680.033 801.608 680.125C799.574 680.257 795.289 681.718 793.306 681.128C791.452 680.575 791.371 677.889 790.04 676.564C788.065 674.599 786.17 675.866 783.755 675.647C780.177 675.323 776.612 674.854 773.032 674.542C765.808 673.913 758.604 673.765 751.356 673.782C755.129 669.599 769.005 677.212 769.346 669.635C769.74 660.867 759.027 663.497 753.819 660.968C758.553 661.107 763.286 661.153 768.011 661.527C770.878 661.755 776.389 663.126 778.011 659.979C779.753 656.595 776.95 652.682 774.324 650.915C770.691 648.47 766.492 646.911 762.473 645.239ZM1157.29 528.33C1158.15 530.059 1156.81 530.755 1156.2 532.149C1155.36 534.075 1156.19 533.692 1156.36 535.504C1156.47 536.72 1156.14 537.293 1156.21 538.431C1156.24 538.915 1156.93 539.559 1157.01 540.11C1157.15 541.099 1156.62 541.554 1156.68 542.272C1156.7 542.629 1156.24 542.692 1156.34 543.209C1156.42 543.659 1157.46 543.976 1157.52 544.259C1157.87 545.902 1156.88 545.08 1156.73 545.859C1156.48 547.158 1157.21 547.381 1157.63 548.577C1158.35 550.638 1157.65 551.599 1157.21 553.532C1156.83 555.162 1157.39 555.173 1157.6 556.73C1157.73 557.674 1157.46 557.789 1157.46 558.667C1157.48 561.7 1158.16 564.853 1158.18 568.066C1158.25 575.67 1158.9 583.163 1158.99 590.749C1159.09 598.202 1159.63 605.749 1159.96 613.296C1160.12 616.975 1160.49 620.642 1160.65 624.323C1160.84 628.596 1160.42 632.849 1160.78 637.106C1161.11 640.976 1160.91 644.858 1161.07 648.738C1161.15 650.579 1162.1 656.149 1160.89 657.387C1159.31 658.994 1152.94 657.283 1150.88 657.396C1147.01 657.607 1142.93 658.386 1139.13 659.185C1130.14 661.077 1121.12 663.486 1112.13 665.184C1104.63 666.599 1097.59 670.198 1090.6 673.245C1091.24 666.837 1092.37 660.586 1092.58 654.128C1092.77 648.324 1092.22 642.549 1092.35 636.752C1092.63 624.382 1093.33 612.15 1093.05 599.783C1092.77 587.206 1091.75 574.365 1090 561.908C1089.2 556.185 1088.57 550.087 1086.52 544.649C1085.59 542.185 1084.08 540.379 1084.7 537.668C1085.38 534.733 1086.73 531.664 1087.72 528.818C1088.45 533.454 1091.03 564.348 1101.6 555.061C1105.73 551.435 1107.64 543.578 1108.57 538.43C1109.81 531.471 1109.37 524.157 1109.33 517.114C1109.27 502.766 1107.69 488.128 1106.24 473.859C1105.95 471.009 1104.51 468.46 1108.17 468.596C1111.6 468.725 1115.13 469.537 1118.54 469.937C1121.5 470.283 1124.46 469.441 1127.28 469.817C1128.57 469.99 1129.71 470.754 1131.01 470.947C1132.66 471.191 1134.37 470.834 1136.03 470.836C1138.82 470.839 1142.05 470.825 1144.37 472.559C1146.8 474.38 1148.89 477.394 1149.71 480.308C1150.52 483.223 1150.3 486.503 1150.82 489.415C1151.26 491.869 1151.35 494.897 1151.76 497.684C1153.52 495.474 1153.41 498.663 1153.43 499.606C1153.45 500.745 1154.68 503.049 1154.36 503.717C1154.16 504.147 1152.78 503.92 1152.67 504.257C1152.43 504.953 1153.26 505.247 1153.27 505.767C1153.33 507.794 1153.21 509.889 1153.22 511.933C1153.7 511.568 1154.18 511.202 1154.65 510.836C1154.91 511.383 1154.99 512.096 1155.23 512.649C1155.33 512.901 1156.35 512.831 1156.39 513.326C1156.46 513.972 1155.04 515.216 1154.77 515.922C1154.28 517.183 1153.97 516.685 1154.8 518.044C1155.75 519.61 1157.31 519.697 1157.06 521.972C1156.56 521.586 1156.12 521.136 1155.74 520.623C1155.5 521.981 1156.09 523.178 1156.17 524.531C1156.21 525.415 1155.14 528.944 1155.95 529.535C1156.29 529.783 1157.2 528.425 1157.29 528.33ZM1085.94 416.986C1085.93 414.007 1090.28 409.425 1091.78 406.932C1094.17 402.955 1096.74 399.354 1099.78 395.839C1102.83 392.307 1106.08 388.941 1109.04 385.332C1110.26 383.84 1111.17 382.097 1112.42 380.636C1113.98 378.811 1114.31 379.372 1116.24 379.42C1117.71 379.458 1118.67 379.208 1120.03 379.644C1120.75 379.875 1121.22 380.219 1121.99 380.432C1122.48 380.566 1123.12 380.096 1123.77 380.323C1125.38 380.883 1125.92 382.317 1127.87 382.287C1128.1 382.284 1128.85 381.732 1128.95 381.763C1129.09 381.801 1129.69 382.261 1129.67 382.257C1129.8 382.286 1129.76 383.199 1130.11 383.357C1130.69 383.629 1131.11 382.719 1131.65 382.778C1133.01 382.927 1134.02 384.326 1135.52 384.665C1137.44 385.1 1139.11 384.465 1140.95 385.361C1142.43 386.077 1143.17 387.705 1144.39 386.022C1145.5 388.372 1147.54 387.66 1149.58 388.651C1152.42 390.032 1155.5 390.732 1158.53 391.775C1164.75 393.921 1171.02 396.12 1177.09 398.703C1189.68 404.062 1201.87 410.004 1214.17 415.765C1226.21 421.399 1237.34 428.87 1248.17 436.391C1253.48 440.078 1258.76 443.951 1262.91 449C1264.16 450.529 1266.26 452.905 1265.41 455.057C1264.52 457.333 1260.73 458.746 1258.59 459.183C1255.79 459.756 1252.71 459.948 1249.85 460.139C1246.77 460.345 1243.46 460.447 1240.4 460.406C1234.39 460.323 1228.49 459.737 1222.45 459.604C1215.58 459.453 1208.84 458.005 1201.98 457.919C1194.44 457.825 1186.99 456.881 1179.44 457.175C1164.88 457.744 1150.34 458.164 1135.74 458.234C1133.93 458.243 1132.15 458.024 1130.36 458.341C1128.91 458.596 1127.87 459.102 1126.32 458.991C1124.87 458.888 1123.53 458.256 1122.06 458.18C1120.12 458.079 1118.14 458.397 1116.19 458.357C1109.63 458.223 1101.84 457.627 1095.51 459.701C1093 460.526 1089.83 462.926 1091.37 466.037C1092.88 469.113 1096.75 466.606 1099.15 468.004C1101.38 469.306 1100.15 472.86 1099.99 474.985C1099.69 479.011 1099.64 483.016 1099.74 487.051C1099.98 495.961 1100.52 504.86 1100.62 513.773C1100.67 518.102 1100.61 522.43 1100.38 526.753C1100.18 530.569 1100.32 534.723 1099.01 538.364C1097.19 533.817 1096.97 528.797 1096.25 524.006C1095.47 518.822 1094.7 513.638 1093.96 508.448C1093.52 505.365 1093.06 486.849 1087.02 489.268C1080.6 491.838 1082.83 506.082 1082.54 511.204C1082.27 516.038 1081.77 520.853 1080.68 525.576C1080.17 527.771 1078.76 537.093 1075.95 537.695C1073.88 527.94 1071.7 518.2 1070.18 508.34C1069.51 503.987 1068.91 499.602 1068.65 495.205C1068.51 492.916 1068.68 487.414 1065.36 487.148C1055.63 486.364 1062.16 527.341 1054.88 532.496C1052.19 527.149 1051.14 521.573 1050.41 515.645C1050.08 512.947 1049.37 509.909 1049.79 507.203C1050.34 503.662 1050.94 501.492 1050.2 497.833C1049.59 494.838 1049.16 491.763 1048.46 488.794C1047.95 486.655 1046.64 485.61 1045.94 483.681C1043.98 478.248 1044.11 471.371 1043.33 465.668C1042.54 459.893 1041.71 454.215 1042.73 448.388C1043.75 442.618 1047.97 440.784 1052.77 438.402C1057.62 436.002 1062.29 433.365 1067.6 432.306C1073.57 431.118 1079.05 429.965 1085.16 429.65C1095.94 429.094 1106.5 429.739 1117.24 430.249C1129.17 430.817 1141.12 430.11 1153.05 429.946C1158.84 429.866 1164.75 429.755 1170.54 429.849C1173.44 429.897 1176.25 430.399 1179.17 430.326C1181.66 430.264 1186.52 431.03 1188.7 429.709C1190.41 428.672 1190.41 426.375 1188.96 425.109C1187.54 423.854 1184.73 423.788 1182.95 423.401C1177.24 422.165 1171.56 421.455 1165.82 420.462C1162.51 419.891 1159.73 419.701 1156.42 419.862C1153.2 420.019 1149.92 419.1 1146.66 418.944C1139.76 418.615 1132.82 418.289 1125.92 418.181C1112.55 417.973 1099.33 416.953 1085.94 416.986ZM1078.96 547.671C1080.03 548.086 1079.76 553.221 1079.86 554.246C1080.15 557.317 1080.47 560.385 1080.74 563.457C1081.37 570.55 1081.85 577.658 1082.24 584.768C1082.62 591.878 1083.08 599.011 1083.06 606.135C1083.05 609.167 1082.92 612.196 1082.98 615.229C1083.02 617.495 1084.02 621.737 1082.08 623.347C1080.79 624.427 1078.24 623.941 1076.72 623.841C1073.72 623.645 1070.72 623.445 1067.71 623.422C1064.24 623.395 1060.79 623.769 1057.31 623.678C1055.98 623.644 1054.49 623.422 1053.17 623.672C1052.21 623.856 1051.17 624.68 1050.27 624.716C1049.61 624.742 1048.76 624.088 1048.03 623.959C1046.89 623.759 1045.56 623.991 1044.41 623.977C1043.58 623.967 1041.6 623.596 1040.85 624.081C1040.11 624.553 1040.39 625.629 1039.72 625.868C1039.46 625.958 1038 624.224 1037.75 624.114C1036.63 623.626 1035 624.006 1033.82 624.019C1030.42 624.057 1027.02 623.843 1023.62 623.875C1020.31 623.906 1017.11 624.291 1013.94 624.676C1011.83 624.93 1009.42 624.292 1007.19 624.105C1003.62 623.807 1000.03 623.862 996.457 623.934C994.661 623.97 992.864 623.998 991.068 624.042C990.643 624.053 989.801 623.888 989.391 624.01C987.743 624.504 988.789 624.533 987.624 625.284C989.152 624.298 984.206 623.656 983.921 623.653C981.676 623.637 979.619 624.738 977.751 624.522C975.727 624.289 973.661 623.04 971.435 623.427C970.394 623.608 969.53 624.771 968.757 624.905C967.507 625.12 967.08 624.219 965.933 623.767C963.647 622.866 960.993 623.651 958.605 623.495C955.254 623.277 952.027 623.269 948.663 623.224C942.525 623.143 936.387 623.042 930.248 623.102C924.596 623.157 920.054 625.421 914.433 625.298C911.484 625.234 908.486 624.976 905.542 625.047C903.013 625.107 901.722 626.989 903.633 629.201C904.925 630.696 907.298 630.854 909.12 631.127C911.824 631.534 914.48 632.119 917.175 632.57C923.583 633.643 930.29 633.61 936.773 633.805C963.209 634.6 989.651 636.947 1016.1 637.195C1027.72 637.304 1039.46 638.281 1051.04 637.826C1057.49 637.571 1063.81 638.958 1070.32 637.962C1073.06 637.541 1075.76 637.286 1078.53 637.089C1078.89 637.063 1081 636.655 1081.4 636.836C1082.58 637.373 1081.92 636.883 1082.41 638.244C1083.23 640.481 1082.89 644.048 1082.88 646.429C1082.87 650.224 1082.69 654.027 1082.56 657.82C1082.44 661.454 1082.24 665.085 1082.02 668.715C1081.93 670.217 1082.52 675.865 1081.36 676.985C1080.47 677.852 1076.27 677.442 1075.13 677.199C1073.77 676.908 1073.64 676.837 1072.17 677.009C1071.08 677.137 1070.69 677.106 1069.6 676.988C1066.48 676.652 1062.91 676.592 1059.78 677.155C1057.35 677.591 1054.8 676.439 1053.87 678.993C1052.29 677.07 1052.33 678.178 1050.6 678.564C1048.82 678.961 1049.37 677.813 1047.86 677.655C1046.79 677.544 1045.85 678.383 1044.7 678.391C1042.8 678.403 1041.09 677.901 1039.06 678.154C1030.09 679.272 1021 680.276 1011.96 680.359C1008.21 680.395 1004.5 680.452 1000.77 680.566C998.865 680.624 997.065 680.822 995.193 681.046C993.429 681.258 992.042 680.835 990.209 680.742C986.153 680.535 981.899 681.152 977.843 681.374C975.936 681.478 973.548 681.15 971.719 681.4C969.881 681.651 969.742 683.046 968.281 683.854C968.05 679.33 958.578 682.228 956.112 682.233C955.144 682.236 953.961 681.824 952.792 681.899C950.858 682.023 948.91 682.055 946.973 682.123C943.884 682.231 940.898 682.418 937.964 682.044C934.13 681.556 929.967 682.077 926.095 682.053C921.878 682.026 917.661 681.969 913.447 681.831C909.177 681.691 904.915 681.431 900.646 681.294C896.937 681.174 893.003 681.473 889.347 681.202C888.4 681.131 887.493 680.437 886.646 680.402C885.472 680.352 884.157 680.856 882.801 680.74C878.529 680.376 874.549 680.316 870.231 680.331C862.824 680.356 855.129 678.99 848.027 677.03C844.754 676.127 841.352 676.077 838.101 675.109C834.349 673.99 830.913 672.039 827.46 670.234C824.756 668.82 820.954 668.162 822.055 664.587C823.231 660.769 825.107 657.068 826.506 653.318C827.722 650.058 828.498 646.881 831.134 644.429C833.739 642.005 837.066 640.378 839.841 638.144C845.89 633.274 852.204 630.362 859.367 627.478C866.587 624.571 873.173 620.284 880.757 618.351C887.799 616.556 894.584 614.149 901.484 612.309C909.034 610.297 916.819 609.567 924.434 607.779C931.732 606.064 938.896 603.542 946.291 602.236C954.291 600.823 962.364 600.097 970.335 598.373C977.092 596.913 983.539 594.051 990.332 592.91C992.316 592.576 994.462 592.372 996.382 591.749C998.178 591.166 999.463 589.987 1001.28 589.509C1005.47 588.406 1009.11 586.903 1013.08 585.11C1014.75 584.356 1015.67 583.43 1017.12 582.495C1018.84 581.381 1021.05 580.985 1022.99 580.371C1026.72 579.188 1030.43 578.024 1033.78 575.947C1037.24 573.795 1040.43 571.362 1043.62 568.847C1044.97 567.782 1046.42 566.713 1047.8 565.717C1049.51 564.49 1051.26 564.268 1053.18 563.467C1061.47 559.989 1065.11 551.824 1069.63 544.72C1070.05 550.473 1075.56 553.143 1078.96 547.671ZM961.02 446.894C960.448 444.317 959.633 440.619 962.848 440.475C963.055 440.466 965.185 440.997 965.404 441.139C966.5 441.842 966.914 444.189 967.332 445.329C967.7 446.334 967.956 447.672 968.773 448.431C969.58 449.181 970.422 449.199 971.175 450.098C973.466 452.831 975.172 457.527 976.557 460.827C974.678 460.373 976.044 461.632 975.244 462.35C973.995 463.47 974.385 463.268 972.609 463.441C969.516 463.744 968.104 462.921 965.686 460.996C963.635 459.364 962.976 458.295 961.795 455.939C960.107 452.573 960.93 450.429 961.024 446.892C960.177 447.67 959.331 448.448 958.484 449.227C958.747 448.207 959.01 447.187 959.273 446.168L961.02 446.894ZM1050 243.424C1048.36 237.804 1045.29 237.389 1041.16 241.427C1040.5 239.982 1039.73 237.739 1037.83 237.752C1036.48 237.761 1036.24 238.851 1035.33 239.586C1034.24 240.475 1033.39 240.787 1032 241.024C1028.98 241.541 1026.17 241.364 1023.32 242.714C1020.73 243.945 1019.49 245.741 1017.5 247.583C1015.63 249.307 1014.26 248.191 1012.13 249.063C1009.76 250.033 1008.7 252.904 1008.24 255.23C1007.68 258.075 1008.26 258.982 1006.28 261.047C1004.42 262.996 1003.43 265.478 1003.2 268.156C1002.99 270.689 1003.55 273.695 1005.01 275.83C1006.66 278.235 1008.37 277.57 1006.22 280.428C1005.14 281.866 1005.02 284.929 1003.72 285.851C1001.45 287.463 998.517 284.863 996.511 284.208C993.785 283.319 994.393 284.807 993.197 286.6C991.43 289.25 990.38 286.516 987.97 287.045C987.084 287.24 986.824 288.195 986.512 288.31C985.412 288.717 986.581 288.566 985.323 288.113C984.487 287.812 985.06 286.193 983.376 287.117C982.206 287.76 983.087 288.904 982.555 289.732C981.51 291.36 979.958 290.411 979.186 292.512C978.417 294.604 977.377 297.379 976.949 299.667C976.429 302.446 977.651 304.865 977.472 307.495C977.285 310.241 974.561 312.092 972.867 314.017C964.557 323.452 961.039 335.863 958.328 347.858C955.808 359.007 960.243 371.628 968.95 379.184C973.364 383.015 978.879 384.658 983.118 388.874C984.999 390.745 984.975 391.337 982.733 392.871C980.896 394.127 979.212 395.727 977.265 396.72C972.262 399.271 967.386 401.094 961.799 402.165C958.981 402.706 956.048 402.489 953.197 402.388C950.23 402.283 946.88 402.703 943.98 402.341C941.418 402.021 939.391 399.955 936.709 400.175C935.657 400.26 935.013 400.662 933.943 400.567C932.537 400.443 931.355 399.7 929.861 399.738C927.588 399.796 925.34 399.834 923.143 399.917C920.648 400.01 917.715 399.327 915.232 399.758C912.875 400.166 910.073 402.283 908.023 403.518C905.496 405.039 902.462 406.799 900.2 408.659C898.063 410.416 896.556 413.212 894.889 415.394C893.126 417.702 891.086 419.764 889.314 422.062C882.335 431.108 874.983 442.249 872.801 453.637C872.249 456.519 872.279 459.365 872.695 462.26C873.067 464.845 875.496 465.828 875.57 468.607C875.719 474.232 873.022 480.752 871.455 486.083C869.805 491.696 867.738 497.147 865.179 502.425C864.188 504.469 862.932 506.159 862.309 508.276C861.548 510.862 860.388 513.315 859.54 515.924C852.204 538.486 840.831 559.489 832.541 581.709C828.086 593.649 823.375 605.486 818.517 617.274C816.127 623.077 813.538 628.702 810.939 634.417C810.597 635.168 810.354 636.615 809.759 637.131C808.753 638.004 809.64 637.507 808.232 637.359C807.017 637.231 805.756 636.678 804.531 636.473C801.572 635.977 798.542 635.892 795.559 635.598C792.131 635.259 789.113 635.083 785.682 635.248C782.49 635.403 779.347 634.456 776.169 634.245C769.357 633.795 762.639 634.032 755.832 634.16C750.527 634.259 743.736 633.629 738.828 636.089C733.91 638.553 735.607 644.229 739.777 646.39C744.774 648.98 750.655 649.35 755.621 651.989C751.894 653.135 747.868 652.84 744.071 653.734C741.625 654.31 737.842 654.736 735.998 656.52C734.212 658.249 734.393 661.225 735.572 663.252C737.04 665.776 739.863 666.212 742.404 667.087C741.259 668.602 739.479 668.484 738.449 670.481C737.08 673.137 737.936 675.975 739.612 678.271C743.249 683.257 750.452 683.678 756.075 684.388C761.6 685.087 767.403 685.254 772.965 684.876C776.135 684.66 779.262 684.502 782.392 684.057C785.992 683.544 785.646 686.063 786.929 688.642C788.17 691.139 789.962 692.209 792.734 692.055C795.728 691.888 799.047 691.684 802.012 691.183C804.851 690.704 807.31 689.24 810.033 688.63C812.486 688.079 814.433 687.191 816.763 685.999C819.436 684.632 820.859 682.344 823.199 680.773C825.601 679.161 828.115 681.694 830.477 682.955C836.218 686.019 842.519 687.374 848.798 688.881C855.202 690.417 861.438 692.383 867.95 693.447C870.981 693.941 873.86 693.875 876.876 694.196C880.352 694.566 883.366 695.893 886.916 695.9C899.452 695.926 912.07 698.186 924.612 698.604C937.028 699.018 949.646 697.992 962.049 698.823C968.39 699.248 974.527 698.396 980.834 698.723C987.339 699.062 994.075 698.72 1000.57 698.223C1014.04 697.194 1027.09 697.462 1040.42 696.795C1047.36 696.447 1054.43 695.795 1061.28 694.695C1067.99 693.617 1075.59 694.859 1080.34 689.025C1080.86 691.312 1081 693.684 1082.67 695.487C1084.43 697.384 1087.27 698.149 1089.63 699.013C1095.64 701.218 1101.72 703.312 1107.78 705.405C1113.52 707.389 1119.3 709.538 1125.09 711.356C1131.17 713.268 1136.95 715.584 1142.93 717.828C1148.35 719.861 1153.97 721.467 1159.19 723.918C1161.34 724.929 1163.6 725.012 1165.66 725.956C1168.2 727.122 1170.56 728.24 1173.29 729.081C1175.62 729.802 1177.76 730.32 1180.02 731.258C1182.26 732.187 1185.43 733.799 1187.78 732.564C1189.42 731.697 1190.07 729.703 1190.58 728.039C1191.21 725.958 1190.67 722.346 1193.14 722.44C1195.58 722.532 1199.02 724.875 1201.41 725.67C1204.27 726.622 1207.19 728.213 1210.14 728.752C1213.09 729.291 1215.41 729.13 1216.95 726.391C1218.69 723.31 1218.4 720.044 1217.88 716.692C1222.9 716.68 1227.55 717.151 1232.61 717.323C1235.4 717.417 1238.11 717.541 1240.89 717.234C1243.4 716.958 1247.14 717.744 1249.31 716.596C1253.74 714.263 1253.08 707.663 1250.85 704.053C1249.61 702.049 1247.66 700.698 1245.69 699.482C1243.21 697.958 1241.4 696.23 1239.23 694.289C1240.64 693.315 1242.48 693.788 1243.87 692.628C1244.95 691.729 1245.62 690.227 1246.11 688.947C1247.03 686.559 1245.85 681.081 1247.91 679.728C1249.02 679.006 1250.98 679.312 1252.24 678.733C1253.96 677.942 1255.17 676.484 1255.92 674.748C1257.59 670.836 1256.16 666.763 1254.52 663.108C1260.71 662.055 1269.78 661.636 1271.55 654.481C1272.11 652.196 1272.19 649.55 1271.41 647.303C1270.26 643.969 1267.56 643.789 1264.58 642.811C1252.11 638.721 1240.42 632.08 1226.98 631.096C1219.79 630.569 1212.54 630.291 1205.35 629.545C1198.12 628.796 1191.16 627.474 1183.89 628.371C1180.8 628.753 1177.22 628.413 1174.26 628.972C1171.4 629.511 1171.04 632.881 1173.22 634.827C1175.35 636.717 1178.43 635.508 1180.96 635.72C1184.55 636.02 1187.57 637.715 1190.92 638.782C1199.13 641.401 1208.13 643.259 1216.7 644.2C1221.3 644.704 1225.64 644.772 1230.15 645.997C1234.24 647.11 1238.28 648.375 1242.39 649.441C1237.9 650.638 1229.22 650.505 1227.73 655.961C1227.02 658.529 1227.8 662.082 1230.06 663.67C1231.37 664.592 1234.24 664.171 1235.07 665.549C1231.54 665.982 1227.51 663.269 1225.57 667.149C1223.36 671.576 1225.53 675.071 1228.35 678.358C1225.85 677.944 1223.28 678.416 1220.76 678.096C1218.81 677.849 1216.99 677.263 1215.14 677.873C1214.21 678.178 1214.33 679.005 1213.16 679.01C1212.31 679.013 1211.03 678.087 1210.29 677.73C1207.48 676.373 1204.62 675.27 1201.71 674.137C1198.18 672.76 1194.81 671.7 1191.28 670.836C1186.41 669.641 1181.51 666.574 1176.76 664.84C1174.74 664.106 1172.15 663.353 1171.15 661.257C1170.12 659.095 1170.91 655.929 1170.97 653.642C1171.15 647.21 1171.07 640.768 1171.03 634.333C1171 628.922 1170.87 623.612 1170.39 618.221C1169.81 611.771 1170.33 605.344 1170.08 598.883C1169.85 592.951 1170.39 587.033 1170.23 581.102C1170.04 574.496 1169.71 567.913 1169.65 561.299C1169.52 549.418 1169.12 537.551 1168.89 525.673C1168.66 513.471 1167.36 501.265 1164.75 489.334C1163.58 483.99 1162.05 478.547 1160.02 473.469C1159.37 471.861 1158.7 471.769 1160.25 470.85C1161.17 470.305 1162.3 470.914 1163.2 471.035C1165.1 471.288 1166.79 471.4 1168.72 471.286C1179.78 470.639 1191.23 471.163 1202.25 472.156C1207.98 472.673 1213.75 473.165 1219.5 473.37C1225.24 473.574 1230.98 474.463 1236.72 474.042C1246.34 473.339 1257.31 474.438 1265.55 468.251C1274.34 461.649 1273.51 449.952 1267.84 441.501C1261.57 432.175 1251.1 426.861 1242.36 420.325C1233.77 413.904 1223.67 409.195 1214.31 404.024C1194.26 392.952 1172.71 382.705 1151.12 375.054C1129.16 367.271 1107.12 358.323 1083.2 359.844C1071.08 360.614 1057.52 361.064 1046.83 367.496C1041.12 370.934 1035.59 374.517 1030.68 379.057C1028.37 381.196 1026.33 383.832 1023.87 385.786C1021.58 387.603 1019.34 386.359 1016.73 385.691C1018.58 379.721 1020.43 373.751 1022.28 367.781C1024.84 369.763 1028.36 370.517 1031.68 369.816C1035.72 368.965 1035.39 367.242 1035.03 363.791C1034.86 362.191 1034.43 362.464 1035.82 361.454C1036.96 360.624 1039.04 360.353 1040.35 359.635C1043.63 357.843 1046.46 355.212 1047.67 351.6C1048.87 348.008 1048.02 344.676 1047.24 341.111C1046.29 336.824 1048.63 338.617 1051.29 336.623C1052.47 335.746 1052.89 334.984 1052.69 333.535C1052.52 332.359 1050.2 330.666 1050.3 329.509C1050.43 328.113 1051.2 328.269 1052.31 327.428C1053.53 326.499 1054.4 325.361 1054.94 323.899C1056.08 320.805 1053.76 318.893 1052.79 316.039C1052.32 314.656 1051.85 313.473 1050.93 312.309C1049.28 310.246 1048.65 310.291 1046.36 310.31C1044.43 310.324 1044.45 310.167 1043.01 308.426C1042.45 307.75 1041.89 307.079 1041.41 306.346C1040.57 305.087 1040.34 305.258 1041.23 304.275C1043.94 301.278 1045.18 305.957 1047.59 305.674C1050.37 305.347 1050.87 300.937 1052.62 299.463C1053.84 298.432 1055.23 298.825 1056.57 298.129C1058.2 297.277 1058.53 295.654 1059.59 294.294C1061.31 292.087 1063.81 291.698 1064.96 288.897C1065.61 287.308 1065.7 285.672 1065.83 283.987C1066.02 281.588 1066.65 279.692 1067.35 277.408C1068.06 275.079 1067.88 273.395 1066.73 271.252C1065.53 269.043 1065.39 268.301 1065.69 265.809C1065.92 263.913 1065.99 262.23 1065 260.538C1063.93 258.714 1063.71 257.763 1063.36 255.686C1063.06 253.864 1062.48 252.553 1060.72 251.797C1059.52 251.282 1058.22 251.856 1057.37 250.682C1056.52 249.511 1056.75 247.635 1055.88 246.341C1054.46 244.231 1052.32 243.9 1050 243.424Z" fill="black"/>
<path fill-rule="evenodd" clip-rule="evenodd" d="M979.771 337.223C980.596 335.288 983.355 326.362 978.817 326.317C975.216 326.28 976.354 334.025 976.31 335.927C976.227 339.485 972.5 339.991 971.106 343.219C969.479 346.983 970.602 351.477 973.137 354.546C975.073 356.887 978.798 359.57 981.457 356.703C984.414 353.514 981.573 351.723 979.502 349.737C976.504 346.859 982.241 346.022 983.731 343.687C986.262 339.719 983.483 337.654 979.771 337.223Z" fill="black"/>
<path fill-rule="evenodd" clip-rule="evenodd" d="M992.771 339.236C993.185 341.073 993.059 345.269 995.058 346.259C998.409 347.92 999.183 339.91 999.157 338.142C999.129 336.261 998.478 331.816 995.701 332.392C992.585 333.038 994.353 338.801 992.771 339.236Z" fill="black"/>
<path fill-rule="evenodd" clip-rule="evenodd" d="M980.234 362.501C975.279 362.655 975.558 368.558 980.31 368.764C984.732 368.956 984.622 362.365 980.234 362.501Z" fill="black"/>
<path fill-rule="evenodd" clip-rule="evenodd" d="M969.696 450.486C970.159 452.452 971.239 454.307 972.856 455.546C972.475 454.768 970.819 450.136 969.696 450.486Z" fill="black"/>
<path fill-rule="evenodd" clip-rule="evenodd" d="M308.824 444.391L705.183 243.568L741.412 282.38L346.775 510.084L308.824 444.391Z" fill="#FDE1DF"/>
<path fill-rule="evenodd" clip-rule="evenodd" d="M110.722 475.079L485.078 136L541.279 202.938L139.201 540.121L110.722 475.079Z" fill="#FDE1DF"/>
<path d="M198.648 303.891C220.295 300.078 234.748 279.446 230.929 257.808C227.11 236.17 206.465 221.72 184.818 225.533C163.171 229.346 148.718 249.979 152.537 271.617C156.356 293.255 177.001 307.705 198.648 303.891Z" fill="#FDE1DF"/>
</g>
</g>
<defs>
<clipPath id="clip0">
<rect width="1440" height="880" fill="white"/>
</clipPath>
</defs>
</svg>
