<svg width="246" height="20" viewBox="0 0 246 20" fill="none" xmlns="http://www.w3.org/2000/svg">
<path d="M66.5938 20C65.1845 20 63.84 19.8058 62.5605 19.4175C61.2995 19.0291 60.2888 18.4928 59.5285 17.8086C59.1762 17.5127 59 17.1336 59 16.6713C59 16.3384 59.0927 16.061 59.2782 15.8391C59.4636 15.5987 59.6861 15.4785 59.9458 15.4785C60.2054 15.4785 60.5206 15.5987 60.8915 15.8391C62.5419 17.0596 64.4242 17.6699 66.5382 17.6699C68.0217 17.6699 69.1622 17.3925 69.9596 16.8377C70.757 16.2829 71.1557 15.4877 71.1557 14.4521C71.1557 13.6385 70.7848 13.0282 70.043 12.6214C69.3013 12.2145 68.1144 11.8262 66.4826 11.4563C64.9249 11.1234 63.6453 10.7443 62.6439 10.319C61.6425 9.89367 60.8544 9.32039 60.2795 8.59917C59.7232 7.85946 59.4451 6.92557 59.4451 5.7975C59.4451 4.66944 59.751 3.67083 60.363 2.80166C60.9935 1.91401 61.8651 1.22977 62.9777 0.74896C64.0904 0.249653 65.3606 0 66.7885 0C68.1052 0 69.3198 0.184929 70.4325 0.554786C71.5451 0.924642 72.4909 1.47018 73.2697 2.1914C73.6406 2.50578 73.826 2.88488 73.826 3.32871C73.826 3.64309 73.7241 3.92048 73.5201 4.16089C73.3346 4.4013 73.1121 4.5215 72.8525 4.5215C72.6114 4.5215 72.3054 4.4013 71.9345 4.16089C71.0815 3.51364 70.2748 3.05132 69.5145 2.77393C68.7728 2.47804 67.8734 2.3301 66.8164 2.3301C65.3885 2.3301 64.2758 2.62598 63.4784 3.21775C62.681 3.79103 62.2823 4.59547 62.2823 5.63107C62.2823 6.51872 62.6347 7.19371 63.3393 7.65603C64.044 8.09986 65.1752 8.5067 66.7329 8.87656C68.3648 9.24642 69.6814 9.63477 70.6828 10.0416C71.7027 10.43 72.5094 10.9755 73.1028 11.6782C73.7148 12.3625 74.0208 13.2501 74.0208 14.3412C74.0208 15.4508 73.7055 16.4401 73.075 17.3093C72.4631 18.16 71.5915 18.8257 70.4603 19.3065C69.3476 19.7688 68.0588 20 66.5938 20Z" fill="white"/>
<path d="M91.5437 20C89.6893 20 88.0759 19.5932 86.7037 18.7795C85.3499 17.9658 84.3022 16.81 83.5604 15.3121C82.8187 13.8141 82.4478 12.0481 82.4478 10.0139C82.4478 7.96117 82.8094 6.18585 83.5326 4.68793C84.2744 3.17152 85.3314 2.01572 86.7037 1.22053C88.0759 0.406843 89.6893 0 91.5437 0C93.4166 0 95.0392 0.406843 96.4115 1.22053C97.7838 2.01572 98.8315 3.17152 99.5547 4.68793C100.297 6.18585 100.667 7.95192 100.667 9.98613C100.667 12.0203 100.297 13.7957 99.5547 15.3121C98.8315 16.81 97.7838 17.9658 96.4115 18.7795C95.0392 19.5932 93.4166 20 91.5437 20ZM91.5437 17.6699C93.5094 17.6699 95.0392 17.0042 96.1334 15.6727C97.2275 14.3412 97.7745 12.4457 97.7745 9.98613C97.7745 7.52658 97.2275 5.64031 96.1334 4.32732C95.0578 2.99584 93.5279 2.3301 91.5437 2.3301C89.5965 2.3301 88.0759 2.99584 86.9818 4.32732C85.9063 5.64031 85.3685 7.52658 85.3685 9.98613C85.3685 12.4457 85.9063 14.3412 86.9818 15.6727C88.0759 17.0042 89.5965 17.6699 91.5437 17.6699Z" fill="white"/>
<path d="M117.983 20C115.368 20 113.384 19.325 112.03 17.975C110.676 16.6251 109.999 14.6371 109.999 12.0111V1.52566C109.999 1.08183 110.129 0.730467 110.389 0.471568C110.648 0.212668 110.991 0.0832183 111.418 0.0832183C111.844 0.0832183 112.188 0.212668 112.447 0.471568C112.707 0.730467 112.837 1.08183 112.837 1.52566V12.2053C112.837 13.9991 113.263 15.3583 114.116 16.2829C114.988 17.2076 116.276 17.6699 117.983 17.6699C119.67 17.6699 120.95 17.2076 121.821 16.2829C122.693 15.3583 123.129 13.9991 123.129 12.2053V1.52566C123.129 1.10032 123.258 0.758206 123.518 0.499307C123.778 0.221914 124.121 0.0832183 124.547 0.0832183C124.974 0.0832183 125.317 0.212668 125.576 0.471568C125.836 0.730467 125.966 1.08183 125.966 1.52566V12.0111C125.966 14.6186 125.28 16.6066 123.907 17.975C122.554 19.325 120.579 20 117.983 20Z" fill="white"/>
<path d="M137.33 19.7781C136.903 19.7781 136.56 19.6579 136.301 19.4175C136.06 19.1771 135.939 18.8534 135.939 18.4466V1.52566C135.939 1.10032 136.069 0.758206 136.328 0.499307C136.588 0.221914 136.931 0.0832183 137.358 0.0832183C137.803 0.0832183 138.155 0.212668 138.415 0.471568C138.674 0.730467 138.804 1.08183 138.804 1.52566V17.3925H147.26C147.687 17.3925 148.011 17.4942 148.234 17.6976C148.475 17.9011 148.595 18.1969 148.595 18.5853C148.595 18.9736 148.475 19.2695 148.234 19.473C148.011 19.6764 147.687 19.7781 147.26 19.7781H137.33Z" fill="white"/>
<path d="M158.133 19.9168C157.706 19.9168 157.363 19.7873 157.104 19.5284C156.844 19.2695 156.714 18.9182 156.714 18.4743V1.60888C156.714 1.18354 156.835 0.850671 157.076 0.610264C157.335 0.351364 157.688 0.221914 158.133 0.221914H164.837C166.914 0.221914 168.527 0.730467 169.677 1.74757C170.826 2.76468 171.401 4.20712 171.401 6.0749C171.401 7.92418 170.826 9.36662 169.677 10.4022C168.527 11.4378 166.914 11.9556 164.837 11.9556H159.579V18.4743C159.579 18.9182 159.45 19.2695 159.19 19.5284C158.949 19.7873 158.596 19.9168 158.133 19.9168ZM164.531 9.65326C167.275 9.65326 168.647 8.46047 168.647 6.0749C168.647 3.70781 167.275 2.52427 164.531 2.52427H159.579V9.65326H164.531Z" fill="white"/>
<path d="M188.716 20C186.861 20 185.248 19.5932 183.876 18.7795C182.522 17.9658 181.474 16.81 180.732 15.3121C179.991 13.8141 179.62 12.0481 179.62 10.0139C179.62 7.96117 179.981 6.18585 180.705 4.68793C181.446 3.17152 182.503 2.01572 183.876 1.22053C185.248 0.406843 186.861 0 188.716 0C190.589 0 192.211 0.406843 193.584 1.22053C194.956 2.01572 196.004 3.17152 196.727 4.68793C197.469 6.18585 197.839 7.95192 197.839 9.98613C197.839 12.0203 197.469 13.7957 196.727 15.3121C196.004 16.81 194.956 17.9658 193.584 18.7795C192.211 19.5932 190.589 20 188.716 20ZM188.716 17.6699C190.681 17.6699 192.211 17.0042 193.305 15.6727C194.4 14.3412 194.947 12.4457 194.947 9.98613C194.947 7.52658 194.4 5.64031 193.305 4.32732C192.23 2.99584 190.7 2.3301 188.716 2.3301C186.769 2.3301 185.248 2.99584 184.154 4.32732C183.078 5.64031 182.541 7.52658 182.541 9.98613C182.541 12.4457 183.078 14.3412 184.154 15.6727C185.248 17.0042 186.769 17.6699 188.716 17.6699Z" fill="white"/>
<path d="M222.609 18.0028C222.776 18.2432 222.86 18.5021 222.86 18.7795C222.86 19.1123 222.721 19.399 222.442 19.6394C222.183 19.8613 221.877 19.9723 221.525 19.9723C221.005 19.9723 220.588 19.7411 220.273 19.2788L216.545 13.509C216.119 12.8433 215.665 12.381 215.182 12.1221C214.7 11.8447 214.07 11.706 213.291 11.706H210.148V18.4743C210.148 18.9182 210.018 19.2695 209.758 19.5284C209.517 19.7873 209.174 19.9168 208.729 19.9168C208.303 19.9168 207.96 19.7873 207.7 19.5284C207.44 19.2695 207.31 18.9182 207.31 18.4743V1.60888C207.31 1.18354 207.431 0.850671 207.672 0.610264C207.932 0.351364 208.284 0.221914 208.729 0.221914H215.655C217.825 0.221914 219.475 0.702728 220.607 1.66435C221.756 2.62598 222.331 4.03144 222.331 5.88072C222.331 7.41563 221.895 8.66389 221.024 9.62552C220.152 10.5687 218.91 11.1697 217.296 11.4286C217.779 11.558 218.214 11.7892 218.604 12.1221C218.993 12.4549 219.373 12.9172 219.744 13.509L222.609 18.0028ZM215.322 9.40361C216.768 9.40361 217.834 9.12621 218.52 8.57143C219.225 7.99815 219.577 7.11974 219.577 5.9362C219.577 4.75266 219.234 3.89274 218.548 3.35645C217.862 2.80166 216.787 2.52427 215.322 2.52427H210.12V9.40361H215.322Z" fill="white"/>
<path d="M237.655 19.9168C237.229 19.9168 236.876 19.7873 236.598 19.5284C236.338 19.251 236.209 18.8997 236.209 18.4743V2.60749H230.645C229.755 2.60749 229.31 2.20989 229.31 1.4147C229.31 1.02635 229.422 0.730468 229.644 0.527047C229.885 0.323625 230.219 0.221914 230.645 0.221914H244.665C245.091 0.221914 245.416 0.323625 245.638 0.527047C245.879 0.730468 246 1.02635 246 1.4147C246 2.20989 245.555 2.60749 244.665 2.60749H239.102V18.4743C239.102 18.8997 238.972 19.251 238.712 19.5284C238.453 19.7873 238.1 19.9168 237.655 19.9168Z" fill="white"/>
<g clip-path="url(#clip0)">
<path opacity="0.5" d="M34.3712 0C29.4353 0 26.0523 3.14317 22.9101 6.31067C23.6199 6.99937 24.5532 7.4038 25.5363 7.44856C26.5193 7.49332 27.4849 7.17536 28.253 6.55395C29.9891 5.13563 31.9249 4.05303 34.104 4.05303C37.381 4.05303 39.7888 6.55395 39.7888 9.99878C39.7869 11.5751 39.1663 13.0863 38.0631 14.2009C36.9599 15.3156 35.4642 15.9426 33.9041 15.9445C30.0252 15.9445 27.2827 12.4316 24.6751 9.99878L22 7.24V7.22783C18.7808 3.98735 15.1137 0 10.1633 0C4.27865 0 0 4.66123 0 9.99878C0 15.8132 4.01138 20 9.63117 20C14.5671 20 17.9453 16.8593 21.0874 13.6966C20.378 13.0075 19.4445 12.6027 18.4614 12.5579C17.4782 12.5132 16.5125 12.8314 15.7446 13.4534C14.0109 14.8692 12.0751 15.947 9.89843 15.947C6.62384 15.947 4.21604 13.4485 4.21604 10.0012C4.21732 8.4249 4.83731 6.91344 5.94003 5.79836C7.04275 4.68328 8.53816 4.05561 10.0983 4.05303C13.9772 4.05303 16.7173 7.56842 19.3249 9.99878L19.3105 10.0158L22 12.7697C25.2096 16.0127 28.8935 20 33.8367 20C39.7286 20 44 15.3266 44 9.99878C44 4.18927 40.056 0 34.3712 0Z" fill="#FFAEAD"/>
<g opacity="0.2">
<path opacity="0.2" d="M22 12.7695L22.5899 13.3656L22 12.7695Z" fill="url(#paint0_linear)"/>
</g>
<g opacity="0.2">
<path opacity="0.2" d="M22.0098 7.23959C21.8148 7.04497 21.6174 6.84548 21.4199 6.64355C21.6174 6.84548 21.8148 7.0547 22.0098 7.23959Z" fill="url(#paint1_linear)"/>
</g>
<path d="M33.9188 15.9443C30.0398 15.9443 27.2998 12.4313 24.6897 9.99855L22.0171 7.23003L22.0002 7.24463L21.9858 7.23003C18.781 3.98712 15.0971 -0.000232756 10.1491 -0.000232756C8.5191 -0.0201034 6.90856 0.358426 5.45463 1.10311C4.0007 1.84779 2.74648 2.93654 1.79883 4.27662C4.45606 3.26183 7.37452 3.18297 10.0816 4.0528C13.9654 4.0528 16.7031 7.56819 19.3107 9.99855L21.9858 12.7695L22.0002 12.7525L22.0171 12.7695C25.2267 16.0124 28.9034 19.9998 33.8514 19.9998C35.4817 20.02 37.0928 19.6417 38.5471 18.897C40.0015 18.1523 41.2561 17.0633 42.204 15.7229C39.5459 16.738 36.6263 16.8161 33.9188 15.9443Z" fill="#FFAEAD"/>
</g>
<defs>
<linearGradient id="paint0_linear" x1="22.2937" y1="13.0688" x2="22.2962" y2="13.0688" gradientUnits="userSpaceOnUse">
<stop stop-opacity="0"/>
<stop offset="1"/>
</linearGradient>
<linearGradient id="paint1_linear" x1="155.797" y1="-72.7497" x2="155.797" y2="-72.7497" gradientUnits="userSpaceOnUse">
<stop stop-opacity="0"/>
<stop offset="1"/>
</linearGradient>
<clipPath id="clip0">
<rect width="44" height="20" fill="white"/>
</clipPath>
</defs>
</svg>
