<svg width="40" height="27" viewBox="0 0 40 27" fill="none" xmlns="http://www.w3.org/2000/svg">
<path d="M8.78122 9.81818C10.5101 9.81818 12.2001 10.322 13.6376 11.266C15.0751 12.21 16.1955 13.5517 16.8571 15.1215C17.5187 16.6913 17.6918 18.4186 17.3545 20.0851C17.0172 21.7516 16.1847 23.2823 14.9622 24.4838C13.7397 25.6852 12.1822 26.5034 10.4866 26.8349C8.79092 27.1664 7.03334 26.9963 5.43608 26.3461C3.83883 25.6958 2.47363 24.5947 1.51313 23.1819C0.552626 21.7692 0.03996 20.1082 0.03996 18.4091L0 17.1818C0 12.6249 1.8419 8.25465 5.12051 5.03244C8.39912 1.81022 12.8459 0 17.4825 0V4.90909C15.8419 4.90476 14.2167 5.22011 12.7009 5.8369C11.1851 6.4537 9.80868 7.35971 8.65135 8.50254C8.20154 8.94379 7.78658 9.41807 7.41009 9.92127C7.85714 9.85254 8.31419 9.81573 8.77872 9.81573L8.78122 9.81818ZM31.2587 9.81818C32.9876 9.81818 34.6776 10.322 36.1151 11.266C37.5526 12.21 38.673 13.5517 39.3346 15.1215C39.9962 16.6913 40.1693 18.4186 39.832 20.0851C39.4948 21.7516 38.6622 23.2823 37.4397 24.4838C36.2173 25.6852 34.6597 26.5034 32.9641 26.8349C31.2684 27.1664 29.5109 26.9963 27.9136 26.3461C26.3163 25.6958 24.9511 24.5947 23.9906 23.1819C23.0301 21.7692 22.5175 20.1082 22.5175 18.4091L22.4775 17.1818C22.4775 12.6249 24.3194 8.25465 27.598 5.03244C30.8766 1.81022 35.3234 0 39.96 0V4.90909C38.3194 4.90476 36.6942 5.22011 35.1784 5.8369C33.6626 6.4537 32.2862 7.35971 31.1289 8.50254C30.6791 8.94379 30.2641 9.41807 29.8876 9.92127C30.3347 9.85254 30.7917 9.81573 31.2587 9.81573V9.81818Z" fill="#FFAEAD"/>
</svg>
