<svg width="60" height="60" viewBox="0 0 60 60" fill="none" xmlns="http://www.w3.org/2000/svg">
<path d="M30 54.501C43.8071 54.501 55 43.3081 55 29.501C55 15.6939 43.8071 4.50098 30 4.50098C16.1929 4.50098 5 15.6939 5 29.501C5 43.3081 16.1929 54.501 30 54.501Z" stroke="#26345A" stroke-width="1.4" stroke-linecap="round" stroke-linejoin="round"/>
<path d="M39 29.0005C38.7348 29.0005 38.4804 29.1058 38.2929 29.2934C38.1054 29.4809 38 29.7353 38 30.0005C38.0119 31.8735 37.3703 33.6921 36.1857 35.1429C35.001 36.5938 33.3475 37.5862 31.51 37.9491C29.6724 38.312 27.7658 38.0228 26.1185 37.1313C24.4712 36.2397 23.1864 34.8017 22.4853 33.0647C21.7842 31.3278 21.7108 29.4008 22.2776 27.6156C22.8444 25.8303 24.0161 24.2986 25.5907 23.2843C27.1653 22.2699 29.0444 21.8364 30.9043 22.0584C32.7641 22.2804 34.4884 23.144 35.78 24.5005H33.38C33.1148 24.5005 32.8604 24.6058 32.6729 24.7934C32.4854 24.9809 32.38 25.2353 32.38 25.5005C32.38 25.7657 32.4854 26.0201 32.6729 26.2076C32.8604 26.3951 33.1148 26.5005 33.38 26.5005H37.91C38.1752 26.5005 38.4296 26.3951 38.6171 26.2076C38.8046 26.0201 38.91 25.7657 38.91 25.5005V21.0005C38.91 20.7353 38.8046 20.4809 38.6171 20.2934C38.4296 20.1058 38.1752 20.0005 37.91 20.0005C37.6448 20.0005 37.3904 20.1058 37.2029 20.2934C37.0154 20.4809 36.91 20.7353 36.91 21.0005V22.7705C35.2447 21.1785 33.0808 20.2104 30.784 20.0298C28.4873 19.8492 26.1986 20.4671 24.3049 21.7792C22.4112 23.0912 21.0286 25.0169 20.3908 27.2307C19.7531 29.4445 19.8992 31.8106 20.8046 33.929C21.71 36.0475 23.3191 37.7883 25.3599 38.8573C27.4007 39.9263 29.748 40.2579 32.005 39.796C34.2621 39.334 36.2904 38.107 37.7471 36.3222C39.2039 34.5374 39.9997 32.3043 40 30.0005C40 29.7353 39.8946 29.4809 39.7071 29.2934C39.5196 29.1058 39.2652 29.0005 39 29.0005Z" fill="#26345A"/>
</svg>
