<svg width="381" height="359" viewBox="0 0 381 359" fill="none" xmlns="http://www.w3.org/2000/svg">
<path fill-rule="evenodd" clip-rule="evenodd" d="M197.538 22.0996C195.86 26.5409 194.183 30.9827 192.505 35.424C191.429 38.2701 190.354 41.1157 189.279 43.9618C188.898 44.9708 188.686 46.0059 187.948 46.7065C186.21 48.3559 183.09 49.4056 181.001 50.566C179.601 51.3435 178.201 52.121 176.802 52.8986C176.08 53.2998 174.48 53.8035 173.974 54.4694C173.418 55.203 173.681 56.5504 173.681 57.5649V66.3238V82.8278C180.91 81.9239 188.14 81.0206 195.369 80.1167C185.737 91.2305 176.106 102.344 166.474 113.458C164.1 116.196 161.218 118.833 159.45 122.019C155.686 128.802 152.006 135.634 148.286 142.441C144.822 148.777 141.358 155.113 137.895 161.449L169.055 160.123C177.123 159.78 185.411 160.296 193.184 158.009C199.592 156.125 205.999 154.24 212.407 152.356C213.259 152.105 215.914 151.821 216.518 151.135C217.084 150.493 217.072 148.065 217.232 147.243C220.256 131.698 224.106 114.567 232.934 101.186C239.262 91.5933 247.802 83.1949 255.623 74.8301C258.676 71.5654 261.782 68.3398 264.726 64.9759C265.48 64.1143 266.569 63.1367 267.068 62.0902C267.39 61.4141 267.84 60.1258 267.64 59.5255C267.554 59.2653 265.541 58.3316 265.253 58.1461C263.214 56.8356 261.192 55.4974 259.167 54.1657C253.474 50.4233 247.788 46.6718 242.063 42.9793C237.6 40.1001 233.149 37.0474 228.442 34.5733C223.562 32.0086 218.189 30.2036 213.073 28.1773C207.903 26.1294 202.724 24.1047 197.538 22.0996Z" fill="#FFAEAD"/>
<path fill-rule="evenodd" clip-rule="evenodd" d="M372.996 259.365C370.514 261.704 365.993 264.843 362.42 263.416C360.625 262.699 359.093 261.125 357.458 260.11C355.537 258.917 353.732 257.723 352.103 256.134C348.855 252.961 346.396 248.325 342.559 245.841C341.269 245.006 338.752 244.827 337.858 243.494C337.457 242.896 337.42 241.989 337.493 241.298C337.654 239.809 338.458 239.896 337.114 238.803H339.201C339.242 237.997 338.437 237.93 337.837 238.034C338.116 236.756 338.4 231.756 336.071 234.022C334.051 235.987 335.062 239.246 333.632 241.373C332.537 243.003 329.632 241.684 329.24 239.891C329.064 239.086 329.951 237.828 330.056 237.039C330.288 235.288 329.507 233.774 328.371 232.449C325.88 234.108 327.292 237.543 325.873 239.724C324.588 241.697 321.727 240.776 319.772 240.429C317.427 240.013 314.776 240.434 312.533 239.881C309.146 239.045 310.411 235.068 310.076 232.501C309.716 229.752 306.937 225.935 307.772 223.161C308.669 220.183 313.912 219.539 316.418 218.817C322.145 217.165 330.315 216.847 334.573 212.222C337.96 215.999 340.684 220.324 344.236 223.96C348.073 227.887 352.171 231.513 355.854 235.598C359.687 239.85 363.644 244.021 367.339 248.396C368.951 250.304 370.366 252.361 372.033 254.224C373.516 255.88 375.078 257.404 372.996 259.365ZM202.76 185.909C204.52 184.973 204.744 185.56 204.744 187.487C204.237 186.562 203.735 186.314 202.76 185.909ZM187.839 223.379V219.982C189.535 219.937 188.492 222.844 187.839 223.379ZM187.424 228.439C187.424 226.935 187.383 225.502 187.817 224.039C188.045 225.633 188.479 227.014 187.424 228.439ZM194.719 331.798C196.277 331.944 198.679 330.87 199.989 332.093C201.335 333.349 201.228 337.006 201.546 338.703C202.073 341.508 202.54 344.322 202.984 347.14C203.275 348.988 203.635 350.865 201.546 351.572C198.459 352.616 194.048 351.126 190.829 350.99C184.473 350.723 178.118 350.351 171.756 350.222C165.589 350.097 159.409 350.196 153.27 350.837C150.497 351.127 147.786 351.638 145.041 352.102C143.594 352.346 139.718 353.368 138.411 352.149C135.953 349.853 140.04 344.493 141.798 342.979C145.06 340.17 149.7 338.144 153.791 336.924C155.977 336.272 159.622 334.441 161.344 336.489C162.666 338.06 162.613 340.157 164.506 341.347C168.894 344.104 166.327 336.194 163.585 335.22C165.426 330.912 168.935 336.995 170.39 338.456C170.908 338.976 172.592 340.691 173.323 339.828C173.871 339.183 172.777 336.871 172.575 336.242C172.267 335.287 171.488 333.834 171.711 332.798C172.117 330.923 174.747 330.412 176.322 330.256C178.765 330.014 181.161 330.788 183.576 331.047C187.279 331.444 191.011 331.45 194.719 331.798ZM170.193 155.192C165.371 155.576 160.519 154.839 155.708 155.442C151.157 156.013 146.868 157.685 142.578 159.22C148.956 144.259 157.209 130.64 167.267 117.883C172.276 111.528 177.664 105.218 183.076 99.2044C185.595 96.4066 188.2 93.7015 190.8 90.9823C193.12 88.5564 194.782 84.4366 197.565 82.6251C199.941 81.0787 204.094 82.1816 206.727 82.2775C209.703 82.386 213.325 82.6565 216.227 81.6659C218.331 80.948 218.909 79.0324 216.276 78.9689C213.171 78.8936 210.117 79.2173 206.971 78.9261C198.82 78.173 190.962 76.9351 182.745 77.6372C180.862 77.7977 178.385 78.5997 176.537 78.3589C175.209 78.1849 176.082 78.8529 175.159 77.7869C174.805 77.3792 174.379 76.4205 174.275 75.8788C173.686 72.8365 175.357 68.489 175.756 65.426C176.126 62.5913 175.799 59.4757 176.491 56.7153C177.121 54.2032 179.041 53.8681 181.406 53.5997C187.877 52.865 194.48 52.4741 200.979 51.9205C215.812 50.6571 231.116 48.7512 245.848 51.8733C251.168 53.0006 257.654 54.7438 262.406 57.5351C263.892 58.4076 265.392 59.4351 264.851 61.2428C264.29 63.1194 261.541 65.1018 260.18 66.338C250.117 75.4733 240.398 84.7912 233.329 96.5129C224.314 111.46 219.141 127.604 216.105 144.732C215.453 148.416 214.846 150.345 211.055 151.406C206.985 152.545 203.057 153.285 198.837 153.632C189.297 154.415 179.728 154.431 170.193 155.192ZM173.424 56.2051C172.693 61.6462 171.704 67.0754 171.606 72.5594C171.569 74.6307 171.373 75.6685 169.171 76.1304C166.574 76.6748 163.934 77.0804 161.325 77.6454C148.736 80.3738 136.384 83.7247 124.067 87.4964C112.096 91.1628 100.323 95.2875 88.0833 98.0034C82.8184 99.1719 76.6578 99.9592 71.8624 102.546C66.7038 105.33 67.3826 109.894 66.9196 114.906C66.3009 121.604 64.3147 128.089 63.6164 134.784C63.2824 137.983 62.9782 141.201 63.0286 144.42C63.0714 147.164 63.4646 150.198 61.6199 152.508C57.9193 147.56 56.1652 141.338 55.436 135.274C55.0814 132.327 55.2218 129.355 55.1204 126.394C55.0385 124.01 55.0917 120.218 53.5387 118.227C50.1629 113.9 45.7726 131.24 45.3551 133.092C44.6529 136.208 44.0738 139.351 43.3744 142.468C43.0642 143.85 42.6662 148.872 40.8151 149.373C36.9789 150.411 37.821 139.631 37.7603 137.99C37.6388 134.677 37.5564 131.36 37.6339 128.044C37.6903 125.651 38.1534 123.054 37.8785 120.659C37.2034 114.78 33.8975 120.974 32.9682 123.163C30.6198 128.687 29.5576 134.601 27.4517 140.214C27.1014 141.148 26.2783 144.291 24.9743 144.349C23.5233 144.414 23.5347 141.168 23.4517 140.219C22.9702 134.722 21.3441 129.263 21.8348 123.708C22.3304 118.1 24.2965 112.334 27.0786 107.455C32.9606 97.1413 43.5826 91.2192 53.7567 85.8247C65.4003 79.6521 77.6928 74.7754 90.2478 70.8026C105.347 66.0246 120.852 62.1586 136.449 59.4074C144.384 58.0079 152.442 57.007 160.459 56.2045C163.276 55.9226 166.095 55.7577 168.876 55.2215C169.925 55.0187 173.713 54.0552 173.424 56.2051ZM181.535 38.5966C177.557 38.6281 173.493 36.6994 169.617 35.9023C165.003 34.9524 160.497 33.5779 155.891 32.5861C146.871 30.6445 137.846 28.7511 128.835 26.7665C124.923 25.905 120.991 25.1551 117.095 24.2295C112.925 23.2394 108.421 22.1355 104.154 23.202C97.686 24.8189 94.9537 31.8954 92.5788 37.4178C90.9012 41.3185 89.5869 45.6666 86.9707 49.0608C86.0392 50.2711 84.7151 51.7144 83.0261 51.3224C79.8883 50.5948 80.3866 46.4425 80.7862 44.1473C81.3653 40.8164 82.1856 37.5247 82.8423 34.209C83.1069 32.8708 85.1575 24.1124 81.4965 25.4685C78.7805 26.4743 77.3437 33.0991 76.3156 35.4653C75.5516 37.2237 74.7421 38.9707 73.8849 40.6858C72.7408 42.9734 69.4766 50.617 65.8628 49.6312C60.6911 48.2204 65.6519 34.6243 66.533 31.7587C67.0166 30.1858 72.2734 18.2565 67.8364 19.2314C65.9468 19.6472 64.106 23.157 63.1425 24.6118C61.434 27.1922 59.7309 29.791 58.1226 32.4349C56.4683 35.1541 55.6236 38.2491 53.9828 40.9287C53.1196 42.339 51.358 44.2183 49.638 42.9126C46.9568 40.8788 48.546 33.804 49.0156 31.1287C49.8891 26.1549 52.059 21.0559 55.0364 16.9898C59.5102 10.8802 67.9519 8.90595 75.0506 7.71904C84.2135 6.18674 93.5039 6.60587 102.705 7.51246C113.053 8.53236 123.244 9.62439 133.444 11.7097C143.724 13.8114 154.009 15.8962 164.131 18.6756C168.899 19.9851 173.736 21.1459 178.436 22.6831C183.433 24.3168 188.31 26.3501 193.446 27.5273C191.64 32.0358 189.832 36.5443 188.026 41.0534C186.297 39.3427 183.936 38.5771 181.535 38.5966ZM270.092 51.0204C271.676 50.1539 273.426 49.7451 274.004 47.83C274.516 46.1377 273.642 44.2205 273.225 42.596C272.057 38.0479 271.749 33.3366 272.783 28.7348C273.771 30.2427 277.469 36.0428 279.718 32.5314C281.074 30.4135 277.439 27.3668 276.378 25.8779C278.706 24.441 282.032 20.5847 284.715 22.9103C286.449 24.4139 287.183 25.8616 289.519 26.5925C292.356 27.4801 295.026 27.2768 297.922 27.0317C299.95 26.8603 300.439 26.5898 301.231 28.1514C301.853 29.3789 302.175 30.8982 302.538 32.2164C303.254 34.8152 304.911 39.9359 302.948 42.3704C301.229 44.503 294.556 42.6746 293.63 45.4274C293.124 46.9288 295.536 46.9825 296.458 47.7254C297.599 48.645 298.543 50.1084 299.164 51.4157C299.623 52.3825 300.321 53.9798 299.539 54.9683C298.459 56.3357 296.457 55.2985 295.587 54.3046C294.431 52.9843 294.055 51.1793 293.091 49.7413C291.32 47.1029 291.215 49.2018 290.733 51.0963C290.232 53.0646 289.048 52.929 287.234 53.1817C284.052 53.6258 280.836 54.252 277.739 55.1049C276.151 55.5419 274.612 56.0988 273.1 56.7495C272.126 57.1681 270.437 58.4363 269.379 58.4483C267.42 58.4705 266.062 55.1938 265.051 53.8269C266.73 52.8894 268.404 51.9433 270.092 51.0204ZM375.297 251.653C370.404 245.779 366.167 239.399 361.34 233.474C356.578 227.63 351.07 222.521 345.726 217.229C343.205 214.731 340.788 211.99 338.005 209.777C335.928 208.125 334.33 208.1 331.832 208.831C324.735 210.91 317.507 213.412 310.79 216.514C304.536 219.403 298.839 223.113 292.056 224.724C285.132 226.368 277.933 226.896 270.837 226.489C263.558 226.07 256.693 224.556 249.772 222.33C243.216 220.222 236.381 218.381 230.774 214.203C224.897 209.823 220.356 203.523 216.148 197.598C214.018 194.598 211.903 191.448 210.468 188.048C209.222 185.098 208.409 181.616 206.174 179.211C205.625 179.988 204.943 180.654 204.665 181.567C204.538 181.982 205.285 181.969 205.208 182.298C205.064 182.919 204.237 183.553 203.757 183.89C202.031 185.105 202.021 184.138 202.474 186.41C202.737 187.734 202.238 190.721 200.079 189.745C200.874 190.696 199.611 191.897 199.199 192.681C198.915 192.355 198.562 192.242 198.14 192.34C198.93 193.913 198.463 193.954 197.698 195.203C197.558 195.431 197.063 196.626 197.134 196.525C196.352 197.639 195.449 197.919 194.993 199.306C194.618 200.445 194.714 201.698 194.297 202.835C193.792 202.138 193.287 201.44 192.783 200.742C192.886 201.291 193.092 202.103 193.331 202.601C193.482 202.912 194.128 203.639 194.12 203.809C194.084 204.443 193.293 204.291 193.067 204.838C192.644 205.864 193.256 206.016 193.025 207.017C192.76 208.167 192.05 207.707 191.712 208.687C191.648 208.872 192.147 209.604 192.068 210.006C191.957 210.573 191.443 210.89 191.261 211.394C190.799 212.677 190.967 213.616 190.326 214.847C190.077 215.324 189.716 215.642 189.541 216.184C189.387 216.661 189.717 217.676 189.421 218.104C187.991 220.164 188.192 216.615 188.301 215.735C189.211 208.347 192.132 200.721 194.805 193.815C196.133 190.383 197.427 186.845 199.092 183.559C199.762 182.235 200.536 180.869 201.643 179.857C203.044 178.576 205.032 178.064 206.301 176.633C206.101 176.859 207.677 175.368 207.424 175.858C207.65 175.42 207.256 174.827 207.396 174.403C207.57 173.876 207.899 173.766 208.266 173.305C208.925 172.477 209.707 172.065 208.673 171.011C210.208 170.672 210.942 170.173 211.249 168.529C211.473 167.326 211.021 167.404 211.81 166.602C212.603 165.797 213.004 166.426 213.503 165.031C214.1 163.361 214.497 161.091 214.854 159.344C215.167 157.819 214.409 155.575 215.694 154.499C217.323 153.135 218.78 153.712 218.488 150.97C218.203 148.296 219.034 146.677 219.869 144.147C221.535 139.096 222.179 133.763 223.64 128.652C226.758 117.745 232.267 107.911 238.19 98.3098C243.663 89.438 251.315 81.8795 258.703 74.6003C260.726 72.6066 262.727 70.5841 264.544 68.3984C266.109 66.5164 266.823 63.9539 268.327 62.1673C269.241 61.0823 270.942 60.6182 272.218 60.0429C274.345 59.0832 276.881 57.8312 279.282 58.0253C278.328 61.2423 278.017 65.0014 280.833 67.4138C284.249 70.3401 287.346 67.2999 290.478 65.6315C296.186 62.5902 304.35 65.3821 309.328 60.8237C310.514 59.7382 310.845 58.0036 312.077 56.9897C312.981 56.2463 314.268 56.0576 315.286 55.5034C318.379 53.8199 319.881 50.7379 318.676 47.3333C317.576 44.221 315.865 43.1415 319.672 41.5642C322.763 40.2845 323.938 38.3564 322.539 34.9236C321.205 31.6508 318.762 31.274 316.45 29.1322C314.211 27.0577 316.783 24.6432 318.461 23.086C320.624 21.0771 321.038 19.2666 318.529 17.1775C315.903 14.9902 312.154 15.0666 309.092 16.1483C305.629 17.371 303.348 19.4038 301.883 22.6978C300.391 26.0514 296.692 25.1155 293.697 24.1807C290.832 23.2871 290.087 21.359 288.206 19.2829C286.114 16.9736 281.851 18.9483 279.384 20.0035C273.306 22.6007 267.267 26.6999 267.026 33.9607C266.882 38.2903 268.713 41.9703 269.665 46.0342C270.536 49.7505 264.566 49.4577 263.532 53.0526C252.503 47.2141 240.22 45.4274 227.891 45.03C214.787 44.6071 201.495 44.2682 188.503 46.3351C191.519 41.081 193.111 35.3195 195.735 29.9217C196.49 28.3677 196.816 28.5006 198.482 28.9701C201.684 29.8718 204.862 30.8809 208.057 31.8097C219.73 35.2029 231.174 39.2912 242.46 43.7688C243.557 44.2042 246.006 45.4128 246.968 44.0985C248.077 42.583 245.511 40.7145 244.472 39.9522C239.927 36.6181 234.295 34.5945 229.205 32.2554C218.077 27.1428 205.755 24.7159 194.144 20.9187C169.078 12.7199 143.146 6.49309 117.097 2.38038C110.74 1.37674 104.315 1.2298 97.9305 0.484795C92.2752 -0.175082 86.6096 -0.1599 80.9548 0.521666C70.5107 1.78123 58.4024 4.49882 52.5037 14.0592C47.1786 22.6912 43.6238 32.3964 44.9826 42.6356C45.3909 45.711 46.6933 49.3531 50.4882 48.5604C53.1207 48.0106 54.5185 45.7739 55.7407 43.591C57.5875 40.2932 59.4115 36.9954 61.4128 33.7861C62.1551 38.5982 59.4576 43.3302 59.8816 48.2323C60.1701 51.5588 62.0082 56.8145 66.3269 55.8727C72.2463 54.5822 74.6825 45.3347 77.5286 40.8983C77.6728 44.3154 76.475 47.6831 76.8416 51.1077C77.2032 54.4906 79.8465 57.6842 83.5591 57.2206C87.0607 56.7836 89.3364 53.032 90.8237 50.2076C92.8933 46.2771 94.3801 42.063 96.4015 38.1064C98.296 34.3977 100.54 29.9824 105.063 29.2857C109.1 28.6632 113.726 30.1039 117.714 30.6982C128.774 32.3465 139.612 35.153 150.552 37.4205C162.282 39.8513 174.289 41.3278 185.657 45.2501C181.659 50.6907 171.199 49.5152 165.244 50.0992C156.246 50.9819 147.132 51.6461 138.184 52.9485C129.347 54.2347 120.695 56.5179 111.927 58.1755C103.205 59.8244 94.4977 61.476 86.0582 64.2879C70.3887 69.5089 54.4578 76.1163 40.6519 85.2261C34.2283 89.4651 28.522 94.3098 24.5541 101.001C20.5606 107.733 18.6417 115.347 17.9097 123.091C17.4543 127.914 18.228 132.087 19.1623 136.781C19.8389 140.179 20.058 145.868 22.7826 148.356C27.983 153.106 32.3007 133.842 33.261 131.515C33.9523 135.328 32.8218 156.808 41.1659 155.061C44.8899 154.282 45.7346 149.171 46.3522 146.092C47.4789 140.48 48.488 134.754 50.415 129.349C51.6518 136.632 52.1675 144.22 54.8319 151.176C56.6017 155.796 61.6514 163.993 65.172 156.084C67.8126 150.153 66.9065 143.345 67.2232 137.048C67.574 130.07 69.5775 123.338 70.2867 116.428C70.5616 113.752 70.3127 110.735 73.0027 109.274C75.312 108.02 78.6889 107.612 81.2102 106.912C88.6781 104.839 96.1949 102.933 103.628 100.733C111.064 98.5315 118.396 95.9598 125.733 93.4499C132.75 91.0495 139.914 89.6847 147.016 87.6292C151.054 86.4602 155.043 85.2375 159.137 84.2615C161.043 83.8077 162.971 83.4541 164.872 82.984C166.282 82.6359 168.138 81.3221 169.587 81.3455C171.078 81.3699 171.639 82.6321 173.348 82.7314C175.189 82.8376 177.061 82.4315 178.891 82.2911C183.351 81.9489 188.092 81.3959 192.541 82.014C189.867 85.186 186.255 87.3787 183.09 90.0063C179.439 93.0367 175.906 96.309 172.788 99.8876C166.513 107.088 160.583 114.699 155.074 122.5C149.639 130.196 145.263 138.617 141.459 147.221C139.563 151.508 137.723 155.889 136.414 160.396C135.876 162.247 135.437 164.105 134.466 165.789C133.575 167.333 132.319 168.664 133.372 170.529C134.097 170.075 134.749 169.511 135.404 168.966C134.647 174.302 133.012 179.464 132.171 184.783C131.343 190.025 131.377 195.415 131.43 200.708C131.543 211.793 132.367 222.627 134.616 233.5C136.89 244.494 139.811 255.405 143.495 266.012C147.041 276.224 150.6 286.933 155.55 296.558C160.836 306.838 167.125 317.647 174.778 326.349C169.779 328.396 163.418 328.014 158.125 328.838C152.592 329.7 147.806 331.328 143.091 334.389C138.32 337.487 135.731 341.476 135.071 347.125C134.603 351.145 133.211 356.711 138.486 357.768C142.279 358.527 146.521 357.28 150.322 356.971C156.972 356.432 163.631 356.095 170.296 355.805C176.943 355.515 183.591 355.259 190.241 355.053C193.368 354.956 196.497 354.908 199.624 354.795C201.025 354.745 201.874 354.724 203.131 355.129C204.124 355.449 204.051 356.114 205.157 355.292C206.941 353.965 206.574 349.782 206.524 347.943C206.449 345.104 206.18 342.233 205.626 339.448C205.297 337.794 201.309 327.127 204.41 326.678C200.807 322.718 199.368 317.065 197.75 312.102C195.722 305.885 193.942 299.686 192.544 293.291C189.56 279.632 188.24 265.824 188.24 251.849C202.077 260.377 216.716 264.997 233.013 265.512C249.215 266.024 267.016 264.694 282.401 259.303C289.526 256.807 295.908 253.529 302.016 249.113C304.206 247.53 306.551 243.945 309.425 244.006C312.855 244.08 316.695 245.378 320.101 245.933C326.614 246.995 335.115 247.594 340.629 251.622C343.624 253.811 345.771 256.874 348.444 259.395C350.477 261.313 353.166 262.355 355.184 264.273C357.362 266.343 356.497 269.047 360.108 269.215C363.194 269.357 366.578 268.116 369.24 266.658C374.55 263.75 380.205 257.543 375.297 251.653Z" fill="black"/>
<path fill-rule="evenodd" clip-rule="evenodd" d="M324.255 113.34C332.026 118.86 340.941 122.631 349.062 127.603C351.095 128.847 357.428 131.431 357.366 133.739C357.331 135.088 355.427 136.781 354.594 137.716C353.166 139.318 351.823 140.937 350.506 142.632C344.475 150.394 338.796 158.229 332.26 165.601C331.276 166.71 328.312 172.005 327.355 169.375C326.921 168.183 327.278 166.843 326.148 165.731C325.566 165.159 323.317 164.843 323.972 163.615C324.409 163.811 324.846 164.008 325.283 164.204C324.944 163.222 324.968 162.147 324.46 161.219C324.144 160.643 323.526 160.37 323.312 159.721C323.016 158.825 323.518 157.782 323.434 156.858C323.351 155.936 322.873 155.065 322.588 154.195C320.897 149.04 320.29 143.843 319.424 138.523C318.568 133.26 317.233 128.162 316.709 122.84C316.156 117.219 315.477 111.609 314.573 106.033C316.188 106.259 317.429 108.015 318.572 109.007C320.368 110.566 322.318 111.963 324.255 113.34ZM318.163 167.76C317.792 167.469 317.502 167.111 317.292 166.687C321.101 164.8 318.803 168.019 318.163 167.76ZM315.846 163.736C314.186 164.194 312.993 164.286 311.713 163.603C311.591 163.539 311.731 163.039 311.512 162.937C311.321 162.848 311.029 162.958 310.865 162.874C310.307 162.591 309.331 163.212 309.237 162.127C311.356 161.478 313.439 160.281 315.676 160.08C318.786 159.8 318.642 162.965 315.846 163.736ZM308.572 157.479C306.306 158.008 304.44 159.246 302.033 158.923C299.774 158.62 297.81 157.448 296.028 156.098C300.487 154.836 305.162 154.608 309.617 153.387C311.068 152.99 312.974 151.942 314.537 152.364C316.273 152.834 316.383 154.46 316.904 155.94C314.124 156.44 311.324 156.836 308.572 157.479ZM294.403 151.198C292.227 151.718 290.002 152.855 288.182 150.892C287.888 150.576 287.631 150.892 287.666 149.916C287.702 148.888 288.636 148.225 289.439 147.863C291.327 147.012 293.974 147.562 295.979 147.437C299.177 147.238 302.433 146.573 305.597 146.061C307.787 145.707 310.05 144.921 312.289 145.076C314.017 145.196 316.103 146.669 313.584 147.744C311.289 148.723 307.85 148.573 305.364 148.997C301.69 149.624 298.029 150.331 294.403 151.198ZM292.277 140.958C292.418 141.102 292.559 141.246 292.7 141.39C292.677 141.384 293.535 140.69 293.762 140.669C294.865 140.574 295.975 140.649 297.08 140.587C299.626 140.443 302.193 140 304.693 139.511C306.73 139.113 308.806 138.427 310.902 138.599C312.718 138.748 312.908 139.12 313.027 140.872C308.393 140.872 303.62 140.774 299.066 141.755C296.101 142.393 292.834 144.294 291.349 140.867C291.658 140.898 291.968 140.928 292.277 140.958ZM295.174 133.542C296.323 134.417 299.456 132.961 300.833 132.816C302.328 132.658 303.735 132.493 305.185 132.121C306.47 131.79 310.721 130.139 311.707 131.718C313.218 134.138 307.099 134.582 306.129 134.702C302.061 135.204 297.84 135.65 293.881 136.717C294.312 135.659 294.743 134.6 295.174 133.542ZM300.755 125.322C301.052 126.441 310.252 122.319 310.42 125.314C310.549 127.613 301.317 128.758 299.657 128.556C300.046 127.498 301.08 126.55 300.755 125.322ZM303.844 118.291C304.039 116.035 304.342 116.048 306.151 115.835C307.531 115.673 309.428 114.864 309.069 117.324C308.762 119.43 303.647 120.568 303.844 118.291ZM307.132 110.528C307.568 109.317 308.547 110.947 308.568 111.563C308.623 113.202 307.38 112.848 306.184 112.848C306.517 112.082 306.833 111.308 307.132 110.528ZM322.275 101.436C322.031 101.142 320.661 101.03 320.271 100.887C319.313 100.536 319.449 99.787 318.222 100.525C318.161 100.464 318.278 99.9084 318.211 99.8829C318.177 99.8699 317.318 99.5457 317.039 99.3667C316.365 98.9351 315.757 98.5127 315.138 97.9711C314.48 97.3958 313.82 96.5608 313.068 96.1026C312.751 95.9096 312.492 95.6358 312.11 95.5766C311.118 95.4237 311.402 96.1145 310.535 96.2517C310.001 96.3363 309.612 95.7127 308.914 95.9817C308.31 96.2137 307.96 97.0601 307.691 97.5639C306.714 99.3971 305.959 101.37 305.002 103.223C300.108 112.697 294.546 121.812 289.805 131.374C287.522 135.981 285.139 140.62 283.532 145.515C282.374 149.046 279.757 154.204 282.008 157.732C283.645 160.298 286.923 161.405 289.538 162.645C293.473 164.51 297.1 166.948 301.078 168.756C305.822 170.913 310.429 173.168 315.053 175.576C317.025 176.603 318.805 178.082 320.77 179.055C321.972 179.65 323.829 178.635 324.22 179.999C325.727 178.173 328.166 179.39 329.909 178.105C330.934 177.349 331.684 175.86 332.539 174.929C333.822 173.534 335.214 172.239 336.523 170.868C341.718 165.421 346.515 159.748 351.242 153.898C355.756 148.312 361.03 143.034 364.844 136.919C366.358 134.491 366.632 131.946 365.633 129.264C364.903 127.308 363.145 124.354 360.634 125.649C361.586 124.068 357.914 122.379 356.799 122.07C356.782 122.066 356.563 123.281 356.252 123.25C356.363 123.261 355.318 120.559 354.86 120.213C353.498 119.182 351.841 117.979 350.354 117.131C348.991 116.353 347.553 115.967 346.233 115.096C344.632 114.041 343.163 112.79 341.556 111.742C340.005 110.73 338.276 109.534 336.561 108.838C335.074 108.235 333.739 108.116 332.402 107.127C330.747 105.904 329.303 105.074 327.395 104.23C325.744 103.501 323.456 102.864 322.275 101.436Z" fill="black"/>
<path fill-rule="evenodd" clip-rule="evenodd" d="M96.8981 247.967C97.2017 247.254 97.5043 246.541 97.8079 245.828C98.1831 247.071 98.2883 247.689 96.8981 247.967ZM97.302 251.26C96.6443 251.378 96.9035 249.315 96.9035 248.955C98.0394 249.598 97.0987 250.369 97.302 251.26ZM96.2767 245.308C96.8373 244.977 97.398 244.646 97.9586 244.315C97.1778 245.761 97.4842 244.858 97.8063 245.824C97.2174 245.993 96.6449 245.796 96.2767 245.308ZM92.954 256.614C90.8524 264.24 84.1771 270.253 77.1267 273.368C73.0753 275.158 69.0922 275.606 64.717 275.406C63.0296 275.329 61.044 274.781 59.4201 274.883C58.1698 274.961 58.2261 275.016 57.1905 276.074C56.7323 275.23 57.0642 274.638 56.1451 274.147C54.9983 273.534 54.5223 274.248 53.9535 275.096C53.209 274.325 52.9043 273.922 51.9397 273.464C51.9701 273.478 51.0163 273.442 51.0553 273.454C50.8829 273.401 49.8457 272.734 49.5209 272.613C48.1881 272.113 46.6471 271.907 45.4174 271.19C44.3416 270.563 43.4556 268.805 42.2248 270.156C42.2237 267.899 39.1824 266.962 37.757 265.78C35.5295 263.932 33.7586 261.196 32.6482 258.549C31.464 255.727 31.0687 253.021 30.5146 250.113C30.1274 248.081 27.592 245.143 29.1146 243.092C29.4773 243.952 29.3071 244.833 29.9095 245.612C30.4517 244.567 30.7499 243.398 30.995 242.255C31.1153 241.695 31.8126 240.051 31.7335 239.563C31.5724 238.564 30.3362 238.51 31.0215 237.286C32.4432 238.832 33.5906 236.116 32.5164 235.033C31.9861 235.631 31.7915 236.311 31.547 237.051C30.1491 234.23 34.0178 235.138 33.1714 232.591C34.5834 232.319 35.3951 231.964 35.9319 230.569C36.5288 229.016 36.0896 228.678 37.4452 227.652C37.9115 227.3 39.2302 226.793 39.4714 226.212C39.9383 225.092 38.7503 224.759 39.7908 223.709C40.1422 224.325 41.5118 225.546 42.2617 224.385C42.4119 224.153 41.7813 223.989 42.24 223.455C42.9194 222.666 43.6796 221.891 44.8285 222.057C43.9187 219.783 49.7323 219.603 51.2213 219.066C52.7134 218.529 53.9795 218.176 55.5617 218.051C57.1423 217.926 57.2209 217.463 58.5591 216.512C58.6724 217.873 58.9999 217.574 59.9677 217.814C60.2004 217.415 60.4389 217.37 60.6829 217.68C60.9258 217.911 61.223 218.019 61.5732 218.006C62.1046 218.034 62.7076 217.964 63.2644 217.976C64.5717 218.001 65.9202 217.892 67.2025 217.92C67.5333 217.864 67.8423 217.749 68.1319 217.574C68.2528 217.802 68.3743 218.03 68.4946 218.259C69.174 218.344 69.2266 219.195 70.0622 218.264C70.3094 219.448 71.0197 218.832 71.7702 219.153C72.4544 219.446 72.5634 219.915 73.1951 220.242C73.6104 220.578 74.0556 220.623 74.5317 220.376C74.9844 220.712 75.4442 221.037 75.9105 221.354C76.7699 221.839 77.7828 222.136 78.6883 222.519C79.2907 222.768 79.8893 223.026 80.483 223.294C80.5009 224.011 80.8225 224.264 81.4471 224.053C82.0115 224.526 82.1704 224.507 82.718 225.311C83.9586 227.134 85.0593 228.549 86.6263 230.178C93.4371 237.259 95.5295 247.271 92.954 256.614ZM95.0442 226.503C91.9693 222.385 87.617 217.67 83.706 215.07C81.7236 213.751 78.941 211.384 76.5167 210.687C75.942 210.522 75.3472 210.511 74.7822 210.337C74.3457 210.203 74.1082 209.756 73.6104 209.675C73.2623 209.618 73.2238 210.398 72.854 210.326C72.0808 210.175 71.5907 209.408 71.0447 208.928C69.8719 210.949 69.2353 207.55 67.5132 209.835C65.4636 206.622 60.6488 207.324 57.3759 207.486C56.4054 207.534 55.9494 207.88 55.0889 208.135C54.288 208.373 54.2089 208.312 53.3343 208.306C51.1562 208.289 49.2227 208.563 47.2094 209.519C43.8271 211.126 40.7223 213.629 37.5097 215.565C33.9191 217.729 30.6827 220.484 27.9358 223.649C18.0057 235.093 15.3504 251.797 23.2684 265.064C35.8451 286.135 68.2864 288.387 86.6692 274.09C100.871 263.043 106.276 241.541 95.0442 226.503Z" fill="black"/>
<path fill-rule="evenodd" clip-rule="evenodd" d="M250.711 167.208C250.358 168.05 247.062 167.766 246.99 166.773C246.882 165.29 251.324 165.744 250.711 167.208ZM254.212 166.657C256.08 166.809 259.149 168.077 260.949 167.311C263.696 166.141 260.811 164.345 259.338 163.808C257.838 163.262 255.604 163.552 254.833 161.984C254.253 160.805 255.686 157.512 253.908 158.041C252.041 158.597 252.584 163.313 249.656 161.723C248.259 160.965 248.829 156.344 246.489 158.705C245.849 159.35 245.793 160.536 244.945 161.018C244.08 161.509 242.994 160.997 242.08 161.04C239.662 161.153 238.891 163.416 241.342 164.313C242.249 164.646 245.668 165.051 243.597 166.534C242.292 167.467 239.393 165.508 238.272 167.133C236.731 169.366 240.858 169.417 241.966 170.085C243.844 171.216 242.293 173.858 242.443 175.739C242.672 178.614 244.342 178.013 244.949 175.581C245.463 173.516 244.826 170.545 247.937 171.365C253.005 172.701 245.12 179.135 248.832 180.781C251.198 181.831 251.533 176.156 251.717 175.179C252.398 171.573 254.423 172.415 257.492 172.525C261.077 172.654 261.943 170.002 258.146 169.243C256.935 169 255.269 169.307 254.217 168.535C253.594 168.079 252.739 166.537 254.212 166.657Z" fill="black"/>
<path fill-rule="evenodd" clip-rule="evenodd" d="M121.842 284.477C118.941 283.438 114.087 283.662 113.369 287.41C113.069 288.978 113.654 290.637 114.737 291.777C115.993 293.099 117.994 293.221 117.887 290.92C117.813 289.327 116.298 287.944 118.962 287.623C120.62 287.424 123.073 288.664 123.155 290.495C123.341 294.624 116.195 294.947 113.561 294.233C108.335 292.817 109.755 287.342 113.344 284.844C114.271 284.198 116.932 283.204 117.053 281.863C117.215 280.084 115.016 280.448 113.938 280.682C106.014 282.407 104.287 295.68 112.567 298.182C116.326 299.318 121.621 298.145 123.887 294.74C126.011 291.548 126.04 285.98 121.842 284.477Z" fill="black"/>
<path fill-rule="evenodd" clip-rule="evenodd" d="M16.7854 190.513C14.3086 191.705 11.8318 192.897 9.35545 194.09C8.53671 192.338 7.15351 187.552 5.07683 186.941C1.71509 185.951 3.85576 191.168 4.43593 192.361C4.91253 193.341 6.01811 194.859 5.74972 196.027C5.38968 197.6 3.16985 198.158 2.00788 198.97C-0.867488 200.979 -0.844715 205.199 3.3195 203.411C5.67597 202.399 8.59364 199.591 10.3998 202.779C11.2337 204.249 13.2095 212.465 15.2732 207.092C16.5501 203.765 10.4041 200.309 13.434 197.495C14.4094 196.59 15.5514 196.513 16.5257 195.993C18.8789 194.735 17.5521 192.412 16.7854 190.513Z" fill="black"/>
<path fill-rule="evenodd" clip-rule="evenodd" d="M379.9 71.4746C378.423 70.9345 376.597 69.8799 374.955 70.2394C373.211 70.6211 372.509 72.3682 371.241 73.4184C367.793 76.2743 365.784 72.0179 363.89 69.6853C362.1 67.4828 359.918 66.9482 357.393 68.3015C356.387 68.8411 352.15 71.313 352.889 72.8968C353.42 74.0366 355.514 73.0134 356.228 72.7645C357.778 72.225 359.218 71.7528 360.803 72.5395C363.777 74.0143 364.549 78.0587 368.147 78.6893C371.867 79.3416 371.989 75.8009 374.645 74.4682C376.425 73.5751 377.665 75.1562 379.382 74.8412C381.018 74.5414 381.775 72.16 379.9 71.4746Z" fill="black"/>
<path fill-rule="evenodd" clip-rule="evenodd" d="M349.862 85.7446C351.178 86.0304 352.037 83.4782 352.861 82.8308C354.227 81.7577 356.596 81.5414 357.987 82.6215C360.704 84.7296 359.768 89.281 363.637 90.4673C367.094 91.5279 368.723 86.9738 371.634 85.8401C373.326 85.1807 375.184 84.7491 374.523 82.3834C374.067 80.7476 372.724 80.3273 371.263 80.9558C368.752 82.0348 367.9 86.4305 364.924 86.5091C361.845 86.5905 361.511 82.1514 360.189 80.2178C358.173 77.2709 354.03 76.5589 351.676 79.3768C350.965 80.227 347.356 85.2019 349.862 85.7446Z" fill="black"/>
<path fill-rule="evenodd" clip-rule="evenodd" d="M288.994 35.4213C290.824 36.6738 294.472 36.6304 296.159 35.077C297.875 33.4964 295.584 33.2535 294.186 33.3018C293.111 33.3392 291.098 33.8722 291.711 32.0151C292.255 30.3673 295.244 31.2061 295.493 29.3973C293.244 28.9939 290.766 29.1392 289.102 30.9074C287.899 32.1854 287.28 34.2485 288.994 35.4213Z" fill="black"/>
</svg>
