<svg width="898" height="836" viewBox="0 0 898 836" fill="none" xmlns="http://www.w3.org/2000/svg">
<rect x="178" width="720" height="918" fill="#EDF1F7"/>
<path fill-rule="evenodd" clip-rule="evenodd" d="M459.691 199.482C455.782 209.829 451.875 220.176 447.966 230.522C445.46 237.152 442.956 243.781 440.451 250.411C439.562 252.762 439.068 255.173 437.35 256.805C433.301 260.648 426.033 263.093 421.166 265.796C417.906 267.607 414.645 269.419 411.384 271.23C409.703 272.165 405.976 273.338 404.797 274.889C403.501 276.598 404.114 279.737 404.114 282.1V302.505V340.952C420.955 338.846 437.797 336.742 454.639 334.636C432.201 360.526 409.764 386.415 387.326 412.305C381.796 418.685 375.082 424.827 370.962 432.25C362.194 448.052 353.622 463.967 344.954 479.824C336.886 494.584 328.817 509.344 320.748 524.104L393.338 521.014C412.132 520.215 431.439 521.417 449.547 516.091C464.475 511.7 479.401 507.311 494.328 502.92C496.314 502.335 502.498 501.675 503.905 500.077C505.223 498.58 505.195 492.925 505.568 491.01C512.613 454.797 521.583 414.89 542.146 383.717C556.889 361.371 576.784 341.807 595.003 322.321C602.114 314.715 609.349 307.201 616.208 299.365C617.965 297.358 620.503 295.08 621.665 292.642C622.415 291.067 623.463 288.066 622.997 286.668C622.795 286.062 618.108 283.887 617.436 283.455C612.685 280.402 607.976 277.284 603.257 274.182C589.997 265.464 576.749 256.724 563.413 248.123C553.017 241.415 542.649 234.304 531.683 228.54C520.316 222.566 507.797 218.361 495.88 213.641C483.837 208.87 471.772 204.153 459.691 199.482Z" fill="#FFAEAD"/>
<path fill-rule="evenodd" clip-rule="evenodd" d="M868.426 752.203C862.644 757.652 852.113 764.965 843.789 761.64C839.608 759.97 836.037 756.303 832.229 753.938C827.755 751.16 823.549 748.379 819.756 744.676C812.188 737.284 806.459 726.486 797.521 720.699C794.517 718.754 788.654 718.337 786.57 715.231C785.636 713.838 785.549 711.725 785.721 710.115C786.095 706.646 787.968 706.851 784.838 704.304H789.7C789.793 702.426 787.919 702.271 786.522 702.513C787.171 699.536 787.833 687.886 782.406 693.166C777.703 697.742 780.056 705.335 776.725 710.291C774.175 714.087 767.407 711.014 766.494 706.838C766.083 704.962 768.15 702.033 768.396 700.194C768.937 696.115 767.115 692.589 764.47 689.5C758.667 693.367 761.957 701.369 758.65 706.449C755.657 711.045 748.993 708.901 744.437 708.092C738.975 707.122 732.8 708.104 727.574 706.814C719.684 704.866 722.631 695.603 721.85 689.623C721.013 683.218 714.539 674.328 716.484 667.866C718.573 660.927 730.787 659.428 736.625 657.744C749.967 653.896 768.998 653.155 778.918 642.381C786.807 651.18 793.153 661.255 801.428 669.725C810.366 678.874 819.912 687.32 828.493 696.838C837.423 706.743 846.641 716.458 855.247 726.65C859.002 731.096 862.299 735.887 866.183 740.227C869.636 744.085 873.276 747.634 868.426 752.203ZM471.854 581.084C475.954 578.904 476.475 580.271 476.474 584.761C475.294 582.605 474.123 582.028 471.854 581.084ZM437.092 668.373V660.459C441.045 660.355 438.615 667.125 437.092 668.373ZM436.126 680.161C436.126 676.656 436.031 673.319 437.042 669.909C437.572 673.624 438.586 676.84 436.126 680.161ZM453.12 920.939C456.75 921.279 462.345 918.778 465.398 921.626C468.534 924.553 468.283 933.071 469.025 937.025C470.253 943.559 471.341 950.115 472.375 956.68C473.053 960.985 473.892 965.357 469.025 967.004C461.833 969.437 451.556 965.964 444.06 965.648C429.251 965.026 414.449 964.159 399.627 963.859C385.262 963.568 370.863 963.798 356.564 965.292C350.104 965.967 343.787 967.159 337.393 968.238C334.023 968.808 324.993 971.188 321.949 968.348C316.222 963 325.743 950.514 329.839 946.987C337.439 940.443 348.247 935.724 357.777 932.882C362.87 931.362 371.361 927.097 375.373 931.868C378.451 935.527 378.328 940.411 382.739 943.184C392.959 949.608 386.98 931.18 380.593 928.912C384.881 918.875 393.055 933.046 396.445 936.45C397.652 937.662 401.575 941.656 403.279 939.647C404.555 938.144 402.007 932.758 401.534 931.293C400.817 929.067 399.002 925.682 399.524 923.268C400.468 918.9 406.594 917.711 410.264 917.347C415.954 916.783 421.536 918.587 427.162 919.19C435.789 920.114 444.483 920.128 453.12 920.939ZM395.987 509.527C384.754 510.422 373.45 508.704 362.244 510.11C351.641 511.441 341.65 515.334 331.655 518.91C346.514 484.059 365.739 452.333 389.171 422.614C400.84 407.811 413.39 393.111 425.999 379.102C431.866 372.584 437.934 366.282 443.992 359.948C449.395 354.296 453.267 344.699 459.752 340.479C465.287 336.877 474.96 339.446 481.093 339.67C488.026 339.922 496.464 340.552 503.226 338.245C508.125 336.572 509.473 332.11 503.339 331.962C496.105 331.786 488.99 332.541 481.662 331.862C462.673 330.108 444.369 327.224 425.227 328.86C420.841 329.234 415.069 331.102 410.765 330.541C407.671 330.136 409.706 331.692 407.554 329.208C406.731 328.259 405.738 326.025 405.494 324.763C404.124 317.676 408.016 307.548 408.946 300.413C409.808 293.81 409.045 286.552 410.657 280.121C412.124 274.269 416.598 273.488 422.108 272.863C437.181 271.152 452.563 270.241 467.704 268.951C502.258 266.008 537.91 261.568 572.229 268.841C584.621 271.467 599.732 275.528 610.802 282.031C614.264 284.063 617.756 286.457 616.497 290.668C615.191 295.04 608.787 299.658 605.615 302.538C582.173 323.819 559.532 345.525 543.064 372.831C522.064 407.652 510.012 445.259 502.941 485.159C501.421 493.743 500.008 498.236 491.177 500.707C481.696 503.361 472.544 505.085 462.714 505.892C440.49 507.717 418.199 507.755 395.987 509.527ZM403.514 278.932C401.811 291.608 399.506 304.255 399.279 317.031C399.193 321.856 398.735 324.273 393.605 325.35C387.556 326.618 381.405 327.563 375.329 328.879C346 335.235 317.226 343.041 288.533 351.827C260.647 360.368 233.22 369.977 204.708 376.304C192.443 379.026 178.091 380.86 166.92 386.886C154.903 393.371 156.484 404.003 155.406 415.68C153.964 431.282 149.338 446.389 147.711 461.985C146.933 469.437 146.224 476.934 146.341 484.433C146.441 490.826 147.357 497.894 143.06 503.274C134.439 491.749 130.353 477.254 128.654 463.128C127.828 456.262 128.155 449.34 127.919 442.442C127.728 436.888 127.852 428.054 124.234 423.416C116.37 413.336 106.143 453.73 105.17 458.044C103.534 465.304 102.185 472.625 100.556 479.887C99.8335 483.106 98.9063 494.806 94.5941 495.972C85.6575 498.389 87.6191 473.277 87.4776 469.454C87.1947 461.736 87.0027 454.01 87.1833 446.286C87.3147 440.71 88.3934 434.66 87.753 429.082C86.1804 415.386 78.4792 429.816 76.3142 434.914C70.8436 447.784 68.3692 461.559 63.4632 474.635C62.6472 476.81 60.7298 484.132 57.692 484.269C54.3119 484.419 54.3385 476.857 54.1452 474.648C53.0235 461.841 49.2355 449.124 50.3786 436.184C51.5331 423.119 56.1131 409.687 62.5942 398.322C76.2965 374.295 101.041 360.5 124.742 347.933C151.866 333.554 180.503 322.193 209.75 312.938C244.925 301.808 281.043 292.802 317.378 286.392C335.864 283.132 354.635 280.801 373.31 278.931C379.873 278.274 386.439 277.89 392.917 276.641C395.363 276.169 404.186 273.924 403.514 278.932ZM422.409 237.913C413.141 237.986 403.674 233.493 394.645 231.636C383.896 229.423 373.398 226.221 362.668 223.911C341.656 219.388 320.633 214.977 299.64 210.354C290.526 208.347 281.369 206.6 272.291 204.444C262.579 202.137 252.086 199.566 242.145 202.05C227.078 205.817 220.713 222.302 215.18 235.167C211.272 244.254 208.21 254.383 202.116 262.29C199.946 265.109 196.861 268.471 192.927 267.558C185.617 265.863 186.778 256.19 187.709 250.843C189.058 243.084 190.969 235.416 192.498 227.692C193.115 224.574 197.892 204.171 189.363 207.33C183.036 209.673 179.689 225.106 177.294 230.618C175.514 234.714 173.629 238.784 171.632 242.78C168.966 248.109 161.363 265.915 152.944 263.618C140.896 260.332 152.452 228.659 154.505 221.984C155.632 218.319 167.878 190.529 157.542 192.8C153.14 193.769 148.851 201.945 146.607 205.334C142.627 211.346 138.659 217.4 134.913 223.559C131.059 229.893 129.091 237.103 125.269 243.345C123.258 246.631 119.154 251.009 115.148 247.967C108.901 243.229 112.604 226.748 113.697 220.516C115.732 208.929 120.787 197.051 127.723 187.579C138.145 173.346 157.811 168.747 174.347 165.982C195.693 162.412 217.335 163.389 238.77 165.501C262.877 167.877 286.616 170.42 310.378 175.278C334.325 180.174 358.285 185.031 381.864 191.506C392.972 194.556 404.239 197.26 415.189 200.841C426.83 204.647 438.19 209.384 450.156 212.126C445.947 222.629 441.737 233.132 437.528 243.636C433.5 239.651 428.002 237.867 422.409 237.913ZM628.705 266.855C632.396 264.836 636.473 263.884 637.82 259.422C639.011 255.48 636.976 251.014 636.003 247.229C633.283 236.634 632.566 225.659 634.974 214.939C637.275 218.452 645.89 231.963 651.129 223.783C654.29 218.85 645.822 211.752 643.35 208.284C648.773 204.936 656.52 195.953 662.77 201.371C666.81 204.873 668.52 208.246 673.963 209.949C680.57 212.016 686.791 211.543 693.538 210.972C698.262 210.573 699.401 209.942 701.246 213.58C702.695 216.44 703.444 219.979 704.29 223.05C705.957 229.104 709.819 241.033 705.246 246.704C701.241 251.672 685.697 247.413 683.538 253.825C682.361 257.323 687.979 257.448 690.127 259.179C692.786 261.321 694.985 264.73 696.43 267.775C697.5 270.027 699.126 273.749 697.305 276.051C694.789 279.237 690.125 276.821 688.097 274.505C685.404 271.43 684.53 267.225 682.283 263.875C678.159 257.729 677.912 262.618 676.789 267.031C675.624 271.617 672.865 271.301 668.64 271.889C661.227 272.924 653.735 274.383 646.519 276.37C642.82 277.388 639.236 278.685 635.713 280.201C633.443 281.176 629.508 284.13 627.045 284.158C622.482 284.21 619.318 276.577 616.962 273.392C620.874 271.209 624.774 269.004 628.705 266.855ZM873.787 734.238C862.388 720.555 852.517 705.691 841.272 691.889C830.18 678.276 817.348 666.374 804.9 654.045C799.025 648.225 793.397 641.842 786.912 636.686C782.074 632.838 778.352 632.779 772.533 634.483C755.998 639.326 739.162 645.155 723.515 652.381C708.945 659.111 695.673 667.752 679.871 671.505C663.743 675.336 646.972 676.566 630.442 675.616C613.486 674.642 597.493 671.114 581.368 665.929C566.097 661.018 550.174 656.73 537.114 646.996C523.422 636.793 512.843 622.117 503.041 608.313C498.078 601.326 493.152 593.987 489.809 586.067C486.907 579.195 485.011 571.083 479.805 565.481C478.528 567.291 476.939 568.843 476.29 570.969C475.994 571.936 477.735 571.905 477.557 572.673C477.219 574.12 475.294 575.595 474.175 576.382C470.155 579.211 470.131 576.959 471.185 582.25C471.799 585.335 470.637 592.293 465.607 590.02C467.459 592.236 464.517 595.034 463.556 596.861C462.895 596.102 462.073 595.838 461.09 596.066C462.93 599.729 461.843 599.827 460.061 602.736C459.735 603.267 458.582 606.05 458.747 605.815C456.926 608.409 454.822 609.062 453.759 612.294C452.887 614.947 453.11 617.865 452.137 620.515C450.962 618.89 449.786 617.264 448.61 615.64C448.85 616.918 449.33 618.81 449.888 619.97C450.239 620.695 451.745 622.387 451.724 622.782C451.642 624.26 449.798 623.905 449.273 625.18C448.286 627.571 449.712 627.923 449.174 630.256C448.558 632.934 446.903 631.863 446.116 634.145C445.967 634.579 447.129 636.284 446.945 637.219C446.686 638.54 445.488 639.279 445.065 640.453C443.989 643.442 444.381 645.63 442.886 648.496C442.308 649.607 441.465 650.348 441.057 651.611C440.7 652.722 441.469 655.088 440.78 656.083C437.447 660.882 437.916 652.616 438.169 650.566C440.289 633.354 447.094 615.589 453.321 599.501C456.416 591.508 459.428 583.265 463.307 575.609C464.868 572.525 466.671 569.344 469.251 566.985C472.515 564.002 477.146 562.808 480.102 559.476C479.636 560.002 483.306 556.528 482.719 557.67C483.244 556.649 482.327 555.268 482.653 554.28C483.059 553.053 483.825 552.796 484.679 551.722C486.214 549.794 488.037 548.834 485.627 546.379C489.204 545.588 490.914 544.427 491.629 540.596C492.151 537.794 491.097 537.977 492.936 536.108C494.782 534.232 495.716 535.697 496.88 532.447C498.27 528.558 499.194 523.269 500.027 519.199C500.755 515.646 498.989 510.42 501.984 507.912C505.777 504.735 509.171 506.08 508.492 499.692C507.828 493.463 509.764 489.69 511.709 483.796C515.59 472.031 517.091 459.608 520.494 447.702C527.758 422.293 540.59 399.383 554.388 377.017C567.138 356.35 584.963 338.742 602.176 321.785C606.888 317.141 611.549 312.429 615.781 307.337C619.426 302.953 621.091 296.984 624.595 292.822C626.723 290.294 630.686 289.213 633.658 287.873C638.614 285.637 644.521 282.721 650.115 283.173C647.892 290.667 647.167 299.424 653.727 305.044C661.686 311.861 668.9 304.778 676.196 300.892C689.494 293.807 708.513 300.311 720.108 289.692C722.871 287.163 723.641 283.122 726.511 280.76C728.618 279.028 731.615 278.589 733.987 277.298C741.193 273.376 744.691 266.196 741.886 258.265C739.321 251.015 735.336 248.5 744.206 244.826C751.406 241.845 754.143 237.353 750.884 229.356C747.777 221.732 742.085 220.854 736.699 215.865C731.483 211.032 737.475 205.408 741.383 201.78C746.423 197.1 747.386 192.883 741.543 188.016C735.425 182.92 726.69 183.098 719.557 185.618C711.491 188.467 706.177 193.202 702.764 200.876C699.288 208.688 690.672 206.508 683.695 204.33C677.022 202.249 675.285 197.757 670.903 192.92C666.03 187.541 656.098 192.141 650.351 194.599C636.194 200.649 622.125 210.199 621.563 227.113C621.229 237.199 625.494 245.772 627.712 255.239C629.741 263.896 615.833 263.214 613.424 271.589C587.731 257.987 559.117 253.825 530.397 252.9C499.871 251.914 468.905 251.125 438.64 255.94C445.665 243.7 449.375 230.278 455.487 217.704C457.247 214.084 458.005 214.393 461.888 215.487C469.346 217.588 476.749 219.939 484.193 222.102C511.385 230.007 538.043 239.531 564.337 249.962C566.892 250.976 572.597 253.791 574.837 250.73C577.421 247.199 571.443 242.846 569.023 241.071C558.435 233.304 545.315 228.59 533.458 223.141C507.535 211.231 478.83 205.577 451.781 196.731C393.389 177.632 332.979 163.126 272.296 153.545C257.487 151.207 242.52 150.865 227.647 149.129C214.473 147.592 201.275 147.628 188.101 149.215C163.771 152.149 135.565 158.48 121.823 180.752C109.418 200.86 101.137 223.469 104.302 247.322C105.254 254.486 108.288 262.97 117.128 261.124C123.261 259.843 126.517 254.633 129.364 249.547C133.666 241.865 137.915 234.183 142.577 226.706C144.307 237.916 138.023 248.94 139.01 260.36C139.682 268.109 143.964 280.352 154.025 278.158C167.815 275.152 173.49 253.609 180.12 243.275C180.456 251.235 177.666 259.08 178.519 267.058C179.362 274.939 185.52 282.378 194.168 281.298C202.325 280.28 207.627 271.541 211.091 264.961C215.913 255.805 219.376 245.988 224.085 236.771C228.499 228.131 233.727 217.846 244.264 216.222C253.667 214.772 264.444 218.128 273.733 219.513C299.5 223.353 324.747 229.891 350.232 235.173C377.557 240.836 405.527 244.275 432.01 253.412C422.698 266.087 398.33 263.348 384.458 264.709C363.496 266.765 342.264 268.312 321.42 271.346C300.834 274.342 280.678 279.661 260.252 283.523C239.934 287.364 219.65 291.211 199.99 297.762C163.487 309.924 126.375 325.317 94.2139 346.538C79.2497 356.413 65.9566 367.699 56.7131 383.286C47.4102 398.97 42.9401 416.706 41.2349 434.747C40.1738 445.981 41.9763 455.703 44.1527 466.637C45.729 474.553 46.2393 487.807 52.5865 493.603C64.7011 504.667 74.7593 459.791 76.9963 454.371C78.6068 463.253 75.9732 513.293 95.4113 509.223C104.086 507.408 106.054 495.5 107.493 488.329C110.118 475.254 112.468 461.917 116.958 449.325C119.839 466.291 121.04 483.967 127.247 500.172C131.37 510.933 143.133 530.029 151.335 511.605C157.486 497.788 155.375 481.93 156.113 467.26C156.93 451.003 161.597 435.323 163.25 419.226C163.89 412.99 163.31 405.962 169.577 402.559C174.956 399.639 182.823 398.688 188.696 397.057C206.093 392.227 223.604 387.787 240.919 382.662C258.241 377.534 275.324 371.543 292.415 365.696C308.761 360.104 325.45 356.925 341.995 352.137C351.401 349.413 360.694 346.565 370.232 344.291C374.67 343.234 379.163 342.411 383.592 341.315C386.875 340.504 391.2 337.444 394.575 337.498C398.048 337.555 399.354 340.496 403.337 340.727C407.625 340.974 411.985 340.028 416.25 339.701C426.639 338.904 437.682 337.616 448.048 339.056C441.818 346.445 433.404 351.553 426.03 357.674C417.526 364.734 409.295 372.357 402.031 380.693C387.414 397.467 373.599 415.198 360.765 433.37C348.104 451.298 337.911 470.915 329.049 490.958C324.633 500.946 320.346 511.152 317.296 521.65C316.043 525.962 315.02 530.291 312.757 534.213C310.682 537.81 307.758 540.911 310.211 545.255C311.9 544.198 313.417 542.884 314.944 541.614C313.179 554.045 309.371 566.07 307.413 578.462C305.483 590.671 305.561 603.228 305.686 615.559C305.949 641.382 307.869 666.62 313.107 691.95C318.405 717.562 325.21 742.98 333.792 767.687C342.053 791.477 350.343 816.425 361.874 838.846C374.189 862.795 388.84 887.974 406.666 908.246C395.022 913.016 380.203 912.124 367.872 914.045C354.983 916.053 343.834 919.844 332.85 926.976C321.737 934.193 315.704 943.485 314.168 956.644C313.077 966.01 309.835 978.977 322.122 981.437C330.96 983.207 340.84 980.301 349.696 979.582C365.187 978.326 380.701 977.542 396.226 976.865C411.71 976.189 427.198 975.594 442.688 975.114C449.974 974.888 457.263 974.774 464.546 974.513C467.81 974.397 469.79 974.346 472.716 975.29C475.03 976.036 474.861 977.586 477.438 975.67C481.593 972.579 480.738 962.834 480.622 958.55C480.445 951.937 479.819 945.249 478.529 938.762C477.764 934.907 468.472 910.057 475.697 909.011C467.304 899.788 463.951 886.618 460.181 875.058C455.457 860.575 451.31 846.132 448.055 831.236C441.102 799.417 438.028 767.25 438.028 734.694C470.261 754.561 504.364 765.323 542.328 766.523C580.073 767.716 621.539 764.617 657.38 752.06C673.978 746.245 688.845 738.608 703.075 728.32C708.175 724.633 713.64 716.281 720.334 716.424C728.323 716.596 737.27 719.619 745.204 720.913C760.376 723.386 780.18 724.782 793.025 734.167C800.003 739.265 805.004 746.4 811.231 752.274C815.967 756.743 822.231 759.169 826.933 763.638C832.005 768.459 829.991 774.758 838.402 775.149C845.591 775.481 853.474 772.588 859.675 769.193C872.046 762.419 885.221 747.96 873.787 734.238Z" fill="black"/>
<path fill-rule="evenodd" clip-rule="evenodd" d="M754.88 412.031C772.984 424.89 793.75 433.675 812.669 445.257C817.405 448.156 832.158 454.174 832.015 459.552C831.932 462.695 827.498 466.638 825.557 468.817C822.231 472.549 819.102 476.321 816.033 480.269C801.984 498.351 788.754 516.603 773.529 533.776C771.236 536.359 764.331 548.694 762.101 542.568C761.091 539.79 761.923 536.669 759.29 534.079C757.934 532.746 752.696 532.01 754.222 529.149C755.239 529.607 756.257 530.065 757.275 530.521C756.484 528.235 756.542 525.73 755.358 523.569C754.621 522.226 753.183 521.591 752.684 520.079C751.994 517.99 753.164 515.562 752.968 513.408C752.774 511.261 751.662 509.231 750.997 507.205C747.058 495.196 745.644 483.089 743.627 470.697C741.631 458.436 738.523 446.559 737.303 434.162C736.013 421.067 734.433 407.999 732.325 395.009C736.087 395.537 738.98 399.625 741.641 401.937C745.825 405.57 750.367 408.825 754.88 412.031ZM740.688 538.806C739.824 538.128 739.148 537.294 738.66 536.306C747.534 531.911 742.179 539.41 740.688 538.806ZM735.292 529.431C731.424 530.497 728.645 530.713 725.663 529.122C725.38 528.971 725.706 527.808 725.196 527.569C724.75 527.362 724.069 527.619 723.687 527.424C722.389 526.763 720.115 528.211 719.894 525.682C724.83 524.171 729.685 521.384 734.896 520.914C742.139 520.262 741.804 527.635 735.292 529.431ZM718.346 514.855C713.068 516.089 708.721 518.971 703.114 518.218C697.85 517.514 693.277 514.784 689.125 511.639C699.511 508.698 710.403 508.168 720.781 505.323C724.16 504.397 728.6 501.956 732.241 502.94C736.287 504.034 736.542 507.823 737.755 511.271C731.28 512.436 724.756 513.357 718.346 514.855ZM685.339 500.223C680.269 501.434 675.086 504.083 670.847 499.512C670.163 498.774 669.564 499.51 669.645 497.238C669.729 494.842 671.905 493.298 673.775 492.455C678.173 490.471 684.339 491.754 689.01 491.462C696.461 490.998 704.045 489.45 711.415 488.257C716.518 487.432 721.789 485.601 727.004 485.962C731.031 486.241 735.889 489.673 730.021 492.177C724.676 494.458 716.663 494.108 710.873 495.096C702.314 496.556 693.786 498.204 685.339 500.223ZM680.386 476.37C680.715 476.705 681.043 477.039 681.372 477.374C681.317 477.362 683.316 475.743 683.845 475.697C686.415 475.473 689.001 475.65 691.575 475.505C697.507 475.17 703.485 474.137 709.311 472.999C714.056 472.072 718.89 470.474 723.775 470.874C728.003 471.22 728.448 472.087 728.725 476.168C717.93 476.168 706.811 475.941 696.202 478.226C689.295 479.712 681.684 484.141 678.224 476.158C678.945 476.229 679.665 476.299 680.386 476.37ZM687.135 459.092C689.812 461.13 697.109 457.74 700.317 457.402C703.801 457.033 707.079 456.65 710.455 455.782C713.449 455.012 723.353 451.164 725.649 454.844C729.169 460.481 714.915 461.516 712.655 461.795C703.178 462.966 693.345 464.004 684.123 466.49C685.127 464.024 686.131 461.559 687.135 459.092ZM700.135 439.944C700.828 442.55 722.26 432.948 722.65 439.927C722.951 445.281 701.445 447.949 697.579 447.479C698.484 445.013 700.893 442.805 700.135 439.944ZM707.331 423.565C707.787 418.31 708.492 418.34 712.707 417.845C715.922 417.467 720.34 415.582 719.504 421.312C718.788 426.218 706.873 428.869 707.331 423.565ZM714.992 405.481C716.006 402.659 718.289 406.458 718.337 407.893C718.464 411.711 715.569 410.885 712.783 410.885C713.558 409.101 714.296 407.298 714.992 405.481ZM750.267 384.3C749.699 383.615 746.508 383.354 745.6 383.022C743.367 382.203 743.684 380.459 740.827 382.179C740.684 382.035 740.955 380.742 740.8 380.682C740.722 380.652 738.72 379.897 738.069 379.48C736.499 378.475 735.085 377.491 733.642 376.229C732.109 374.889 730.573 372.943 728.821 371.876C728.082 371.426 727.478 370.788 726.588 370.651C724.277 370.295 724.939 371.904 722.919 372.223C721.675 372.42 720.77 370.968 719.143 371.594C717.737 372.135 716.921 374.107 716.294 375.28C714.017 379.551 712.26 384.147 710.031 388.463C698.63 410.534 685.671 431.767 674.628 454.043C669.309 464.775 663.759 475.581 660.015 486.985C657.316 495.211 651.22 507.227 656.464 515.446C660.278 521.422 667.913 524.002 674.005 526.89C683.172 531.235 691.622 536.914 700.889 541.126C711.94 546.15 722.672 551.404 733.444 557.014C738.038 559.406 742.183 562.852 746.762 565.118C749.562 566.504 753.887 564.139 754.799 567.316C758.309 563.064 763.991 565.899 768.052 562.905C770.44 561.144 772.186 557.676 774.178 555.507C777.167 552.256 780.41 549.239 783.459 546.045C795.561 533.357 806.736 520.142 817.747 506.514C828.264 493.5 840.55 481.205 849.433 466.96C852.961 461.305 853.6 455.374 851.273 449.127C849.572 444.57 845.477 437.688 839.628 440.706C841.846 437.023 833.29 433.089 830.694 432.369C830.655 432.359 830.143 435.189 829.419 435.118C829.677 435.143 827.244 428.849 826.176 428.042C823.003 425.641 819.143 422.839 815.68 420.862C812.505 419.05 809.154 418.152 806.078 416.123C802.349 413.665 798.926 410.75 795.184 408.308C791.57 405.951 787.542 403.165 783.548 401.544C780.084 400.138 776.975 399.863 773.858 397.559C770.003 394.708 766.641 392.774 762.195 390.81C758.349 389.111 753.018 387.627 750.267 384.3Z" fill="black"/>
<path fill-rule="evenodd" clip-rule="evenodd" d="M225.243 725.649C225.951 723.988 226.656 722.327 227.363 720.668C228.237 723.563 228.482 725.003 225.243 725.649ZM226.184 733.322C224.652 733.596 225.256 728.79 225.256 727.952C227.902 729.45 225.711 731.246 226.184 733.322ZM223.796 719.456C225.102 718.685 226.408 717.914 227.714 717.142C225.895 720.512 226.609 718.407 227.359 720.658C225.987 721.052 224.653 720.592 223.796 719.456ZM216.055 745.795C211.16 763.558 195.609 777.567 179.185 784.824C169.747 788.992 160.468 790.036 150.276 789.571C146.345 789.391 141.72 788.114 137.937 788.352C135.024 788.535 135.155 788.661 132.743 791.127C131.675 789.162 132.448 787.782 130.307 786.638C127.636 785.211 126.527 786.873 125.202 788.85C123.468 787.052 122.758 786.114 120.511 785.046C120.581 785.08 118.359 784.996 118.45 785.024C118.049 784.9 115.632 783.346 114.876 783.063C111.771 781.899 108.181 781.42 105.317 779.749C102.811 778.29 100.747 774.194 97.8793 777.341C97.8768 772.082 90.7919 769.9 87.4712 767.145C82.2823 762.841 78.1569 756.467 75.5701 750.302C72.8114 743.727 71.8906 737.424 70.5997 730.649C69.6978 725.915 63.7915 719.071 67.3383 714.294C68.1834 716.297 67.7867 718.349 69.1901 720.165C70.4532 717.731 71.1479 715.008 71.7188 712.344C71.9992 711.039 73.6236 707.209 73.4392 706.072C73.0641 703.746 70.1841 703.619 71.7807 700.767C75.0926 704.371 77.7654 698.043 75.2631 695.52C74.0278 696.914 73.5744 698.496 73.0047 700.222C69.7484 693.648 78.7607 695.765 76.789 689.831C80.0782 689.198 81.969 688.37 83.2195 685.12C84.6102 681.503 83.5871 680.715 86.7449 678.325C87.8312 677.504 90.9031 676.323 91.4652 674.972C92.5527 672.361 89.7852 671.587 92.2091 669.14C93.0276 670.576 96.2183 673.42 97.9652 670.714C98.3151 670.175 96.8461 669.792 97.9147 668.549C99.4973 666.71 101.268 664.906 103.945 665.293C101.825 659.994 115.368 659.574 118.837 658.324C122.313 657.072 125.262 656.25 128.948 655.959C132.63 655.669 132.813 654.59 135.931 652.373C136.195 655.545 136.958 654.848 139.212 655.407C139.754 654.478 140.31 654.373 140.878 655.094C141.444 655.632 142.136 655.885 142.952 655.855C144.19 655.919 145.595 655.757 146.892 655.784C149.937 655.843 153.079 655.589 156.066 655.654C156.837 655.525 157.557 655.257 158.231 654.849C158.513 655.38 158.796 655.911 159.076 656.443C160.659 656.642 160.781 658.625 162.728 656.456C163.304 659.213 164.958 657.778 166.707 658.526C168.301 659.209 168.555 660.301 170.026 661.062C170.994 661.847 172.031 661.95 173.14 661.376C174.194 662.158 175.266 662.917 176.352 663.653C178.354 664.784 180.713 665.476 182.823 666.369C184.226 666.947 185.621 667.55 187.004 668.174C187.045 669.844 187.794 670.434 189.25 669.942C190.564 671.042 190.935 670.999 192.21 672.873C195.1 677.118 197.664 680.416 201.315 684.21C217.181 700.707 222.055 724.029 216.055 745.795ZM220.925 675.649C213.762 666.057 203.623 655.073 194.512 649.015C189.894 645.943 183.411 640.429 177.764 638.805C176.425 638.42 175.039 638.394 173.723 637.99C172.706 637.678 172.153 636.635 170.994 636.447C170.183 636.315 170.093 638.131 169.232 637.964C167.43 637.613 166.289 635.825 165.017 634.707C162.284 639.415 160.802 631.498 156.79 636.821C152.015 629.334 140.799 630.971 133.175 631.349C130.914 631.46 129.851 632.265 127.847 632.861C125.981 633.415 125.797 633.273 123.759 633.257C118.685 633.218 114.181 633.856 109.491 636.084C101.612 639.827 94.3792 645.659 86.8952 650.169C78.5308 655.21 70.9913 661.627 64.5923 669C41.4596 695.659 35.2741 734.572 53.7194 765.478C83.0174 814.564 158.591 819.81 201.415 786.504C234.499 760.771 247.09 710.68 220.925 675.649Z" fill="black"/>
<path fill-rule="evenodd" clip-rule="evenodd" d="M583.555 537.517C582.733 539.479 575.054 538.818 574.886 536.506C574.636 533.05 584.984 534.108 583.555 537.517ZM591.711 536.234C596.062 536.588 603.212 539.543 607.405 537.757C613.805 535.031 607.084 530.848 603.651 529.598C600.157 528.326 594.953 529.001 593.157 525.348C591.806 522.601 595.145 514.931 591.002 516.164C586.655 517.458 587.919 528.444 581.097 524.741C577.843 522.974 579.171 512.209 573.72 517.709C572.229 519.213 572.098 521.976 570.123 523.098C568.107 524.243 565.578 523.05 563.45 523.149C557.815 523.413 556.02 528.684 561.73 530.775C563.843 531.549 571.808 532.494 566.983 535.947C563.943 538.122 557.189 533.557 554.578 537.344C550.989 542.546 560.602 542.663 563.183 544.219C567.559 546.854 563.945 553.009 564.294 557.392C564.828 564.09 568.718 562.69 570.132 557.022C571.33 552.214 569.845 545.292 577.094 547.203C588.899 550.315 570.53 565.302 579.177 569.137C584.69 571.582 585.471 558.364 585.899 556.088C587.484 547.687 592.204 549.647 599.353 549.905C607.704 550.205 609.72 544.027 600.876 542.258C598.054 541.693 594.173 542.407 591.722 540.609C590.272 539.547 588.279 535.956 591.711 536.234Z" fill="black"/>
<path fill-rule="evenodd" clip-rule="evenodd" d="M283.35 810.703C276.591 808.283 265.284 808.806 263.611 817.535C262.912 821.189 264.275 825.055 266.798 827.71C269.725 830.788 274.386 831.073 274.137 825.713C273.964 822.003 270.434 818.781 276.641 818.033C280.503 817.568 286.216 820.457 286.408 824.724C286.843 834.341 270.195 835.095 264.06 833.432C251.883 830.132 255.192 817.379 263.553 811.558C265.713 810.054 271.911 807.737 272.194 804.614C272.571 800.47 267.448 801.317 264.936 801.862C246.479 805.88 242.455 836.802 261.742 842.631C270.501 845.277 282.835 842.545 288.113 834.613C293.062 827.175 293.129 814.204 283.35 810.703Z" fill="black"/>
<path fill-rule="evenodd" clip-rule="evenodd" d="M38.6162 591.81C32.8462 594.587 27.0763 597.365 21.3077 600.143C19.4003 596.061 16.1781 584.912 11.3404 583.488C3.50905 581.183 8.49584 593.337 9.84738 596.116C10.9577 598.398 13.5332 601.935 12.9079 604.656C12.0692 608.321 6.898 609.62 4.19113 611.511C-2.50718 616.192 -2.45413 626.023 7.24662 621.857C12.7361 619.499 19.533 612.959 23.7404 620.384C25.6831 623.81 30.2859 642.948 35.0933 630.432C38.068 622.683 23.7505 614.632 30.8088 608.076C33.0812 605.967 35.7413 605.789 38.0111 604.576C43.4931 601.647 40.4022 596.234 38.6162 591.81Z" fill="black"/>
<path fill-rule="evenodd" clip-rule="evenodd" d="M884.509 314.504C881.069 313.246 876.814 310.789 872.99 311.626C868.927 312.516 867.291 316.585 864.337 319.032C856.305 325.685 851.626 315.769 847.213 310.335C843.044 305.205 837.959 303.959 832.078 307.112C829.735 308.369 819.864 314.127 821.585 317.817C822.823 320.472 827.7 318.088 829.363 317.509C832.975 316.252 836.328 315.152 840.022 316.984C846.95 320.42 848.747 329.842 857.129 331.311C865.797 332.83 866.081 324.582 872.267 321.477C876.413 319.397 879.302 323.08 883.302 322.346C887.115 321.648 888.878 316.1 884.509 314.504Z" fill="black"/>
<path fill-rule="evenodd" clip-rule="evenodd" d="M814.534 347.747C817.599 348.412 819.6 342.467 821.519 340.959C824.702 338.459 830.22 337.955 833.462 340.471C839.791 345.382 837.61 355.985 846.622 358.748C854.677 361.219 858.471 350.61 865.252 347.969C869.194 346.433 873.521 345.428 871.983 339.917C870.921 336.106 867.791 335.127 864.388 336.591C858.54 339.104 856.554 349.345 849.621 349.528C842.447 349.717 841.669 339.376 838.59 334.872C833.895 328.007 824.243 326.348 818.759 332.913C817.103 334.893 808.696 346.482 814.534 347.747Z" fill="black"/>
<path fill-rule="evenodd" clip-rule="evenodd" d="M672.74 230.515C677.004 233.433 685.503 233.332 689.431 229.713C693.429 226.031 688.092 225.465 684.836 225.578C682.331 225.665 677.642 226.906 679.07 222.58C680.336 218.742 687.3 220.696 687.881 216.482C682.64 215.542 676.868 215.881 672.991 220C670.189 222.977 668.749 227.783 672.74 230.515Z" fill="black"/>
</svg>
