<svg width="771" height="836" viewBox="0 0 771 836" fill="none" xmlns="http://www.w3.org/2000/svg">
<rect x="51" width="720" height="918" fill="#FFCDCB"/>
<path fill-rule="evenodd" clip-rule="evenodd" d="M124.62 430.389C46.925 509.904 -13.2758 623.073 3.18939 727.349C19.6546 831.8 112.786 927.183 222.211 975.834C331.636 1024.48 457.183 1026.58 551.515 975.659C645.846 924.568 709.135 820.466 744.295 699.449C779.626 578.433 786.658 440.851 723.37 364.824C660.082 288.796 526.474 274.498 412.075 290.017C297.676 305.711 202.487 351.048 124.62 430.389Z" fill="white" fill-opacity="0.9"/>
<path fill-rule="evenodd" clip-rule="evenodd" d="M208.619 696.793C211.91 700.599 216.77 703.423 220.5 706.902C224.415 710.557 228.666 713.751 232.566 717.362C249.773 696.336 273.343 683.443 293.762 665.996C303.443 657.723 310.575 646.503 315.794 634.988C318.47 629.085 320.447 623.009 321.993 616.721C322.69 613.888 323.371 611.065 323.827 608.194C324.378 604.717 324.521 604.42 326.867 601.706C327.877 600.539 329.834 597.126 331.812 597.502C333.477 597.819 336.522 602.886 337.574 604.138C342.634 610.157 347.539 616.36 352.867 622.147C361.017 631.001 368.437 639.714 376.004 649.099C391.483 668.299 408.181 686.373 425.031 704.44C426.28 705.78 429.194 709.709 430.989 710.237C433.173 710.879 436.72 708.201 438.919 706.705C444.226 703.093 448.408 698.622 452.945 694.145C461.797 685.409 467.792 673.146 471.824 661.478C474.238 654.493 475.808 647.253 478.299 640.293C479.337 637.392 481.691 633.826 480.496 631.3C480.14 630.547 477.876 628.545 477.077 628.392C476.133 628.211 474.558 629.506 474.23 629.416C471.097 628.558 472.835 625.279 470.972 623.515C469.915 622.514 464.541 622.66 462.937 622.11C457.07 620.098 451.807 616.26 446.261 613.969C423.044 604.379 399.544 595.05 379.501 579.389C374.303 575.328 370.849 572.276 364.647 569.651C358.379 566.999 352.078 564.633 345.683 562.318C340.04 560.276 334.367 558.362 328.538 556.898C322.235 555.315 313.293 553.308 306.996 555.347C294.628 559.35 290.634 569.539 285.709 580.286C279.046 594.828 270.989 608.588 262.255 621.973C245.452 647.724 225.016 670.832 208.619 696.793Z" fill="#85A090"/>
<path fill-rule="evenodd" clip-rule="evenodd" d="M581.081 469.131C581.762 468.785 587.075 470.948 587.967 471.278C591.529 472.6 594.885 474.796 598.241 476.582C595.669 479.712 593.096 482.842 590.524 485.973C588.003 479.79 584.763 474.688 581.081 469.131ZM579.327 507.6C580.202 507.699 572.814 525.451 571.951 527.444C568.811 534.693 565.515 541.872 562.333 549.104C559.251 556.111 555.341 562.558 551.402 569.105C548.033 574.703 544.567 583.392 539.485 587.538C542.694 573.305 542.271 556.938 551.476 544.987C561.017 532.597 570.45 520.498 579.327 507.6ZM208.62 697.425C222.878 674.851 240.726 654.882 255.593 632.711C263.918 620.297 272.021 607.724 279.028 594.51C284.125 584.898 287.293 571.184 295.166 563.835C298.635 560.598 302.342 557.429 306.997 555.978C313.368 553.994 322.139 555.961 328.539 557.53C340.465 560.453 352.115 564.994 363.412 569.762C374.87 574.598 384.646 583.285 394.998 590.264C406.104 597.752 418.125 603.206 430.568 607.981C441.401 612.138 451.039 618.107 461.815 622.292C463.963 623.126 468.345 623.004 470.146 624.091C472.087 625.262 471.323 628.72 473.679 629.995C474.742 630.571 475.097 628.484 475.913 628.519C476.911 628.56 477.821 629.732 478.783 630.473C482.699 633.494 480.3 635.509 478.749 639.666C473.695 653.21 470.978 666.991 463.881 679.778C458.046 690.289 449.695 699.707 439.862 706.665C438.366 707.724 433.491 711.827 431.736 711.554C430.155 711.31 426.94 707.109 425.848 705.968C420.897 700.791 416.371 695.222 411.423 690.037C403.776 682.024 396.416 673.796 388.995 665.674C380.381 656.245 372.757 645.561 364.998 635.486C361.429 630.851 356.835 627.076 352.868 622.779C347.534 617 342.636 610.788 337.575 604.769C336.045 602.948 333.48 598.289 331.101 598.344C329.434 598.382 326.494 602.307 325.622 603.537C322.381 608.108 322.396 616.364 320.784 622.07C316.851 635.985 309.759 649.576 300.032 660.314C290.36 670.992 277.97 678.585 266.53 687.168C254.137 696.467 242.396 705.983 232.568 717.994C228.667 714.383 224.417 711.189 220.501 707.534C216.771 704.054 211.911 701.23 208.62 697.425ZM392.146 761.287C389.375 761.315 384.681 763.02 382.201 761.994C389.556 753.857 396.311 746.875 405.616 740.912C415.273 734.724 424.898 728.592 434.277 721.991C453.179 708.69 467.082 692.915 474.978 670.764C477.011 665.059 478.373 659.077 479.863 653.213C480.664 650.055 482.26 635.28 484.97 634.004C486.575 633.248 498.656 641.738 500.57 642.796C505.046 645.27 509.538 647.189 514.165 649.126C524.11 653.289 534.363 656.465 544.91 659.116C557.554 662.294 566.167 657.035 574 647.099C582.887 635.826 590.272 623.106 598.397 611.268C602.092 605.883 605.153 600.508 607.882 594.569C609.668 590.683 616.751 580.199 614.303 576.058C607.321 581.374 604.808 591.942 600.052 599.059C594.123 607.929 587.442 616.292 581.483 625.154C576.472 632.605 571.36 641.635 563.957 646.992C557.445 651.703 551.259 650.255 544.25 648.137C535.756 645.571 526.952 644.306 518.628 641.124C509.62 637.68 501.096 632.794 492.307 628.811C488.21 626.953 483.304 625.897 479.443 623.581C476.115 621.587 476.611 620.533 476.367 616.285C476.082 611.329 475.753 606.369 475.534 601.409C475.387 598.076 477.189 593.557 475.966 591.069C485.944 592.798 495.696 595.115 505.605 597.164C511.029 598.286 516.26 599.673 521.741 600.555C523.83 600.891 526.685 600.881 528.556 601.791C530.048 601.363 530.809 601.635 530.838 602.608C530.909 603.136 531.022 603.657 531.178 604.169C534.237 605.561 536.017 602.576 538.67 599.713C541.945 596.179 544.397 592.2 546.799 588.048C552.171 578.766 558.362 570.035 563.333 560.491C568.399 550.761 572.514 540.344 576.81 530.249C580.75 520.988 583.274 510.973 587.628 501.931C589.571 497.895 592.034 494.558 594.91 491.148C597.283 488.335 600.935 482.265 604.479 480.973C605.416 480.631 607.87 481.205 608.935 481.129C611.056 480.978 612.947 480.199 615.119 480.37C619.82 480.738 624.945 483.71 628.702 486.323C626.274 488.487 620.201 491.117 624.564 495.014C628.797 498.798 631.135 492.011 632.751 489.037C640.358 495.283 639.258 503.894 640.137 512.719C640.596 517.326 641.804 521.863 642.583 526.401C643.144 529.667 642.75 533.046 642.91 536.38C643.319 544.853 644.171 552.964 644.131 561.319C644.086 570.249 643.477 578.873 642.762 587.739C641.559 602.665 638.803 617.596 636.439 632.403C635.109 640.726 633.289 648.813 631.522 657.002C629.517 666.296 625.807 675.098 623.727 684.368C621.607 681.674 620.013 681.661 616.585 682.018C613.948 682.292 612.176 681.665 612.331 685.325C612.431 687.698 614.525 689.511 616.842 689.925C619.864 690.465 620.89 688.958 622.448 686.669C622.812 691.003 619.897 695.533 618.745 699.765C617.654 703.776 616.931 707.707 615.098 711.546C613.309 715.29 611.777 718.984 609.967 722.693C609.134 724.399 608.354 726.132 607.511 727.834C607.085 728.696 606.583 729.883 605.946 730.61C604.454 732.312 604.692 731.487 602.945 732.457C599.14 734.571 600.569 734.044 600.48 738.408C600.393 742.713 598.185 745.875 594.645 748.294C587.133 753.429 579.724 754.857 571.184 757.451C563.227 759.869 554.846 761.943 546.421 761.895C536.102 761.838 525.92 760.485 515.6 760.348C504.216 760.197 492.722 760.259 481.361 760.652C476.681 760.814 472.334 761.023 467.816 762.217C462.569 763.606 457.493 763.055 452.085 762.845C440.547 762.396 428.612 761.503 417.225 761.423C409.026 761.365 400.376 760.793 392.146 761.287ZM92.9689 765.759C90.9177 766.842 86.3198 766.398 84.2578 766.097C80.6254 765.567 80.2363 764.128 77.9315 760.889C73.9647 755.312 70.7441 749.972 68.4102 743.512C63.9435 731.148 62.1197 718.499 60.1589 705.566C57.9795 691.195 61.9594 676.299 63.3832 662.026C63.7103 658.751 64.1578 655.506 64.6751 652.256C64.9848 650.313 65.0657 643.703 66.3445 642.021C68.8015 638.789 80.2269 641.396 84.719 641.689C97.2578 642.508 109.879 642.699 122.412 642.841C129.094 642.917 135.814 643.197 142.43 643.249C145.469 643.273 148.439 643.122 151.489 642.826C152.509 642.728 153.505 642.493 154.532 642.436C158.05 642.242 157.786 641.732 158.695 644.846C160.288 650.303 159.062 657.245 159.481 662.909C160.04 670.476 160.343 678.151 160.204 685.735C160.076 692.744 160.315 699.736 160.053 706.76C159.944 709.669 159.626 712.04 158.859 714.818C157.991 717.959 157.037 725.296 154.875 727.47C154.63 727.717 152.793 727.14 152.305 727.757C151.554 728.706 151.692 730.714 151.176 731.328C149.507 733.314 146.057 733.471 143.554 734.364C136.686 736.812 130.386 739.471 123.913 742.772C118.13 745.722 108.805 748.233 105.328 754.052C103.734 756.72 103.519 760.238 102.053 762.99C100.384 766.126 103.724 764.487 99.6339 765.759C97.7918 766.331 94.8568 765.759 92.9689 765.759ZM702.676 730.296C703.196 737.536 707.276 744.433 708.696 751.552C709.36 754.886 710.487 758.163 711.269 761.477C712.018 764.656 714.724 768.421 714.45 771.567C704.461 768.009 694.344 767.114 683.905 766.155C674.01 765.245 663.558 764.883 653.746 764.879C643.748 764.874 633.058 763.897 622.764 763.746C611.998 763.588 601.07 763.309 590.46 762.193C596.008 758.084 602.949 754.226 607.046 748.51C611.5 742.297 613.812 734.512 617.731 727.955C625.595 714.797 630.594 698.47 634.716 683.688C643.038 653.846 652.338 624.555 654.579 593.601C658.845 595.785 662.231 604.259 664.366 608.478C667.092 613.866 668.52 619.706 670.292 625.432C673.941 637.226 676.466 649.455 680.935 661.137C689.474 683.468 694.963 707.529 702.676 730.296ZM160.474 556.37C158.627 569.717 154.753 583.236 154.604 596.743C154.572 599.715 155.075 603.015 154.456 605.945C153.794 609.074 151.642 611.839 150.4 614.812C148.428 619.532 143.435 629.205 148.251 633.204C148.348 629.409 151.822 624.59 153.571 621.271C156.208 616.271 159.673 611.7 162.531 606.824C168.515 596.618 175.22 586.631 182.932 577.633C190.443 568.869 199.099 561.095 207.064 552.75C209.457 550.242 228.654 526.109 229.417 526.446C223.462 549.405 213.34 569.381 199.487 588.604C192.696 598.027 184.544 604.228 176.276 612.211C169.391 618.86 156.414 625.969 158.795 636.862C148.032 635.828 137.34 634.175 126.479 634.175C128.265 620.431 129.633 606.905 132.821 593.388C136.441 578.038 138.893 562.23 141.956 546.745C145.082 530.936 150.385 515.631 153.683 499.852C156.842 484.742 159.556 469.66 161.871 454.382C163.785 462.847 163.079 472.145 163.758 480.783C164.451 489.607 164.384 498.269 164.153 507.146C163.726 523.633 161.968 539.921 160.474 556.37ZM113.835 477.764C113.775 470.706 112.407 463.745 111.985 456.704C111.856 454.544 109.704 439.807 111.711 439.038C113.361 442.635 113.746 447.239 115.245 451.013C116.742 454.784 118.745 458.376 120.182 462.173C123.295 470.399 124.369 479.707 124.704 488.452C125.463 508.233 125.855 527.969 124.525 547.75C123.955 556.229 123.518 564.722 123.674 573.217C123.845 582.565 125.277 590.678 123.538 599.95C121.817 609.13 120.736 618.273 120.162 627.588C119.76 634.126 119.598 633.663 113.36 633.204C108.856 632.872 104.307 633.226 99.7971 633.02C101.906 607.539 102.25 582.006 105.619 556.623C107.338 543.673 107.384 530.537 109.519 517.635C110.58 511.226 112.36 504.946 113.383 498.53C114.481 491.641 113.94 484.706 113.835 477.764ZM570.053 461.728C558.042 462.768 545.267 466.359 532.956 463.988C534.986 463.166 540.296 462.033 537.906 458.789C535.476 455.491 531.381 459.674 528.957 459.242C527.463 458.976 524.161 452.73 523.24 451.437C521.149 448.498 520.897 447.986 517.138 447.233C513.496 446.504 512.67 447.293 512.209 443.673C511.679 439.51 513.12 434.83 512.977 430.574C512.67 421.409 509.714 413.373 506.961 404.751C518.654 407.294 530.087 410.31 542.043 411.95C547.154 412.65 555.105 414.267 559.748 410.793C560.956 409.89 560.762 408.67 561.751 407.624C563.407 405.867 566.481 404.05 568.831 403.55C583.292 400.472 584.703 421.084 577.456 428.797C575.641 430.729 573.115 431.684 571.257 433.455C568.775 435.817 568.572 438.305 568.21 441.91C567.531 448.671 568.453 455.458 571.338 461.642L570.053 461.728ZM394.56 559.037C390.29 559.847 385.835 559.662 381.555 560.354C380.034 560.599 375.475 561.456 374.138 560.567C372.096 559.21 371.37 554.232 370.405 551.914C368.707 547.836 366.305 544.279 364.685 540.128C358.069 523.169 351.9 506.143 343.898 489.763C346.965 488.966 349.32 488.935 352.41 488.523C355.63 488.094 358.549 486.191 361.621 485.372C364.541 484.595 367.6 484.793 370.493 483.889C372.086 483.392 373.454 482.285 375.025 481.898C377.529 481.282 380.452 480.923 381.941 482.566C383.468 484.252 384.004 488.874 384.834 491.052C387.046 496.853 389.616 502.452 391.469 508.386C393.142 513.739 394.73 519.035 396.202 524.436C397.757 530.138 400.822 534.838 402.689 540.285C404.109 544.431 405.449 548.669 405.661 553.09C405.867 557.404 406.495 557.678 402.181 558.368C400.003 558.715 396.609 560.009 394.56 559.037ZM113.67 760.923C112.558 761.441 111.509 761.372 110.526 760.716C120.166 756.645 129.543 750.999 139.6 748.206C149.034 745.587 158.203 742.457 167.292 739.231C174.677 736.61 181.316 734.569 187.993 729.956C192.046 727.156 195.646 724.007 198.431 719.915C201.531 715.359 202.221 708.875 205.579 704.772C210.111 709.748 215.436 713.517 220.798 717.471C222.653 718.84 227.103 721.822 227.737 723.939C228.538 726.611 226.393 729.166 225.332 731.87C222.615 738.794 221.287 745.714 219.813 752.913C219.222 755.798 217.947 760.134 215.576 761.343C213.418 762.442 207.167 761.643 204.482 761.439C190.47 760.378 176.706 759.291 162.609 760.258C146.658 761.351 129.58 762.107 113.67 760.923ZM85.683 632.621C83.1364 632.63 80.6487 632.311 78.1115 632.311C79.5761 625.474 76.1522 616.627 74.9382 609.802C73.58 602.168 72.546 594.274 71.6403 586.578C69.7313 570.369 68.8663 554.357 68.8416 538.029C68.8182 522.23 65.9415 507.792 61.912 492.604C57.5853 476.292 50.4998 461.623 44.6414 445.892C51.0674 449.289 54.6248 457.236 58.0013 463.312C62.2698 470.994 65.113 479.501 66.856 488.125C70.2187 504.762 73.9072 521.45 77.7873 538.059C81.8277 555.354 84.2031 572.807 88.8315 589.96C91.0889 598.325 94.158 608.616 94.3285 617.243C94.3992 620.811 95.4747 628.284 93.8571 631.383C92.3444 634.283 88.9998 632.917 85.683 632.621ZM470.086 611.163C470.22 612.939 470.347 614.629 470.663 616.383C467.135 616.349 462.668 612.69 459.642 611.047C455.957 609.046 452.267 606.838 448.662 604.827C441.704 600.943 433.804 598.383 426.373 595.192C417.838 591.526 409.993 587.097 401.83 582.684C398.979 581.142 378.488 572.261 378.832 569.835C383.33 569.685 387.829 569.536 392.328 569.387C396.185 569.258 402.159 570.13 405.852 568.938C407.875 568.284 410.146 565.879 410.91 563.996C411.666 562.133 409.967 553.562 410.954 553.015C415.989 558.155 419.155 564.986 423.657 570.531C428.632 576.659 435.06 580.238 442.145 583.494C449.968 587.091 458.066 589.876 466.061 592.959C469.433 594.258 469.366 595.002 469.66 598.699C469.989 602.83 469.953 607.021 470.086 611.163ZM63.5348 766.601C55.054 767.511 46.3625 766.992 37.8154 767.702C34.7055 767.96 30.394 768.344 33.5229 772.517C35.4932 775.146 41.8048 774.303 44.6677 774.485C52.3543 774.974 60.4927 774.711 68.1967 774.597C69.8187 774.574 71.6112 774.091 73.2507 774.2C75.143 774.325 77.4091 775.686 79.1338 775.675C80.1969 775.669 80.5781 774.548 81.4947 774.445C83.4919 774.22 85.4885 774.057 87.5024 774.057C117.953 774.064 147.985 773.452 178.36 773.419C192.884 773.404 207.642 773.153 222.16 772.471C225.209 772.328 242.571 772.951 242.091 767.463C241.844 764.636 236.177 764.238 234.109 763.937C232.576 763.715 230.987 763.75 229.451 763.668C225.372 763.449 223.586 764.431 224.446 759.968C227.71 743.043 233.558 729.056 246.053 716.886C256.27 706.935 268.573 697.909 280.145 689.599C294.197 679.509 305.596 668.898 313.938 653.458C318.81 644.442 322.888 635.224 325.391 625.255C326.292 621.668 326.313 617.589 327.417 614.132C328.266 611.47 330.201 609.607 331.341 606.849C345.321 630.196 363.85 649.728 380.839 670.778C388.957 680.835 398.217 690.386 407.917 699.135C410.795 701.732 413.481 704.442 416.167 707.236C418.414 709.575 421.982 711.653 423.879 714.248C425.699 716.736 425.251 716.618 422.481 718.594C418.819 721.206 414.783 723.376 411.063 725.923C405.117 729.995 398.627 733.435 393.311 738.335C387.561 743.634 382.538 749.773 377.512 755.748C374.162 759.731 369.767 764.841 368.925 769.877C368.646 771.543 367.586 775.664 368.984 776.884C370.18 777.926 370.059 777.531 371.543 776.895C373.487 776.061 374.059 774.149 376.434 773.238C382.51 770.906 389.863 771.707 396.185 771.679C402.51 771.65 408.887 772.361 415.209 772.334C429.645 772.275 443.774 773.444 458.206 774.071C473.534 774.737 489.05 773.139 504.327 773.365C515.646 773.533 527.266 772.687 538.898 773.316C544.881 773.638 550.757 772.89 556.59 772.806C564.228 772.696 572.072 773.735 579.775 773.883C592.419 774.127 604.908 774.126 617.629 774.43C644.991 775.084 672.206 775.761 699.585 776.194C703.237 776.252 707.235 776.128 710.844 776.539C714.674 776.976 712.697 777.79 715.325 779.169C722.683 783.028 720.984 768.722 720.807 765.909C719.862 750.831 716.033 736.044 711.433 721.73C707.068 708.154 703.524 693.944 699.828 680.075C695.782 664.895 690.51 650.336 685.723 635.305C680.817 619.902 676.824 603.9 667.914 590.246C665.885 587.137 663.788 583.791 660.523 581.83C656.864 579.632 656.707 580.916 656.71 576.894C656.712 573.106 656.479 568.045 657.373 564.43C658.181 561.164 658.056 563.1 659.876 560.754C661.356 558.846 662.905 557.542 663.968 555.225C670.494 561.841 685.432 558.35 691.737 553.586C699.454 547.755 705.332 537.918 707.486 528.549C709.216 521.026 707.093 506.685 698.765 503.067C694.705 501.303 679.792 499.97 679.195 494.222C678.888 491.255 684.136 487.082 685.347 484.531C687.592 479.804 689.747 473.517 690.371 468.336C691.589 458.222 686.997 446.914 679.682 440.082C666.263 427.55 642.652 421.119 625.391 429.07C629.039 415.138 631.241 403.12 629.404 388.628C627.821 376.143 620.454 369.158 610.316 362.94C593.016 352.326 569.491 348.137 549.71 351.223C545.215 351.925 540.901 353.429 536.739 354.626C530.693 356.365 523.455 355.786 517.746 358.611C513.606 360.659 510.463 364.739 506.827 367.463C502.583 370.643 499.056 375.389 496.107 379.779C489.801 389.165 492.265 406.585 497.544 416.007C498.675 418.028 500.073 419.729 501.946 421.109C503.896 422.544 506.868 422.99 507.873 424.852C510.447 429.62 507.964 439.942 507.621 445.096C507.221 451.08 510.247 455.575 517.034 456.052C520.96 456.329 521.085 454.052 522.965 458.738C524.183 461.775 525.29 465.084 527.048 467.868C530.673 473.607 537.313 473.047 543.361 472.891C550.362 472.711 557.258 471.605 564.262 470.907C562.412 476.833 557.348 481.433 554.186 486.713C549.91 493.854 547.336 499.773 546.641 508.093C546.108 514.485 547.259 519.533 551.634 524.29C553.445 526.259 555.05 526.356 554.6 528.628C554.326 530.013 551.93 532.3 551.082 533.405C548.838 536.331 546.233 539.017 544.258 542.141C536.66 554.163 534.416 572.49 534.397 586.485C534.396 587.127 534.054 588.491 534.337 589.155C534.547 589.645 536.141 591.198 536.164 591.331C536.476 593.131 534.722 596.215 531.968 596.52C529.076 596.84 523.78 594.427 521.089 593.635C516.784 592.366 512.396 591.429 508.101 590.125C501.163 588.021 494.258 586.342 487.205 584.693C484.018 583.948 480.814 583.328 477.616 582.631C473.974 581.838 472.282 580.306 470.403 584.011C468.79 587.19 469.793 587.766 465.886 586.164C462.008 584.573 458.218 582.6 454.431 580.803C447.752 577.636 439.798 574.812 434.037 570.135C424.427 562.334 420.868 549.909 411.67 541.631C409.109 539.326 407.581 539.285 405.962 536.092C404.228 532.675 403.334 528.292 402.423 524.616C400.827 518.179 399.691 511.719 398.243 505.287C396.44 497.275 392.542 490.019 389.698 482.377C388.59 479.399 388.016 475.615 386.228 472.939C385.755 472.229 384.85 471.829 384.48 471.242C383.209 469.226 383.222 468.672 382.892 466.247C381.351 454.915 374.586 460.877 367.193 463.475C364.078 464.57 349.287 471.671 354.935 476.393C348.202 478.347 337.418 477.285 337.509 486.932C337.555 491.875 340.512 497.163 342.099 501.79C343.509 505.898 344.872 510.022 346.304 514.124C349.441 523.108 353.246 531.825 356.307 540.837C357.703 544.945 358.854 549.148 360.797 553.025C362.51 556.444 366.658 560.214 367.341 563.953C349.4 556.3 332.802 545.235 312.719 545.94C303.926 546.249 295.945 549.944 291.089 557.675C285 567.364 280.994 578.213 275.043 587.992C253.394 623.565 227.573 655.882 203.808 689.983C201.982 692.603 199.635 695.081 199.001 698.319C198.588 700.432 199.39 702.545 198.894 704.575C197.866 708.793 192.672 714.06 189.149 716.483C182.398 721.13 171.422 727.684 162.996 727.104C168.284 714.398 168.214 700.477 167.968 686.924C167.734 674.051 166.342 661.28 164.69 648.539C164.317 645.656 163.991 642.984 163.162 640.19C162.212 636.985 160.906 637.289 163.754 634.407C168.138 629.971 173.352 626.32 177.771 621.828C187.329 612.114 197.125 604.5 204.648 592.9C211.802 581.866 219.349 570.514 224.645 558.431C230.097 545.993 232.276 532.71 234.982 519.537C236.081 514.192 240.085 508.225 239.281 502.643C238.264 495.588 234.992 500.725 233.66 504.522C229.595 516.11 220.079 526.482 212.196 535.802C203.679 545.87 193.263 554.294 184.374 564.07C174.693 574.716 168.063 586.952 159.454 598.317C159.454 584.213 164.271 569.851 166.241 555.898C167.974 543.617 168.519 531.298 169.615 518.964C172.103 490.946 169.953 462.103 166.46 434.286C164.8 421.075 165.742 408.175 165.692 394.919C165.676 390.7 167.422 380.976 165.196 377.233C160.933 370.062 158.446 385.742 158.23 388.08C156.941 402.006 159.253 415.777 158.072 429.644C156.838 444.125 154.159 458.199 151.88 472.512C149.411 488.01 145.391 503.159 141.542 518.359C137.501 534.319 134.102 550.612 129.609 566.444C128.398 561.467 130.097 555.354 130.433 550.285C130.913 543.032 131.849 535.778 131.93 528.505C132.06 516.915 132.15 505.11 131.494 493.574C130.848 482.203 131.043 470.288 127.555 459.333C125.9 454.134 123.472 449.061 121.096 444.163C118.166 438.124 117.13 432.268 115.507 425.845C114.117 420.344 112.082 414.988 111.156 409.376C110.58 405.887 108.974 395.585 104.978 403.39C102.658 407.92 103.66 414.636 103.596 419.502C103.513 425.741 104.468 431.808 104.614 438.021C104.899 450.21 105.104 462.385 106.013 474.555C106.967 487.322 106.134 498.764 103.705 511.344C101.046 525.115 100.268 538.915 98.8899 552.854C98.1794 560.051 96.9815 567.208 96.403 574.416C96.0969 578.232 97.6665 589.177 94.9311 591.895C94.6666 585.284 92.7721 578.668 91.3359 572.226C89.6345 564.595 88.9473 556.572 87.6934 548.832C85.6626 536.291 81.722 524.315 79.1149 511.915C73.7411 486.353 69.2758 453.5 46.7545 436.769C43.8079 434.58 40.5697 432.964 37.384 431.162C35.5806 430.142 32.9013 427.504 30.8378 427.043C28.5855 426.54 27.6462 426.931 26.7333 429.543C25.4603 433.185 27.7883 434.886 29.9619 437.532C37.4838 446.685 40.6973 458.418 45.3417 469.153C55.9772 493.734 60.6828 519.661 60.7368 546.232C60.7651 560.142 61.7248 573.557 63.2083 587.383C64.8048 602.261 66.907 617.997 71.4283 632.311C66.8939 633.327 61.974 631.812 60.7433 637.082C60.4409 638.376 60.9874 639.907 60.653 641.592C60.3279 643.23 59.5461 644.859 59.0834 646.469C58.1274 649.801 57.6217 653.088 57.1569 656.509C55.3593 669.73 52.2726 682.306 51.944 695.711C51.6417 708.103 54.0681 720.657 56.3036 732.81C58.5558 745.051 65.0154 755.486 70.1006 766.556C67.9118 766.556 65.7236 766.578 63.5348 766.601Z" fill="black"/>
<path fill-rule="evenodd" clip-rule="evenodd" d="M351.354 738.463C353.766 739.145 365.409 740.432 365.407 744.084C365.405 746.275 353.777 746.232 351.72 746.47C351.597 743.802 351.475 741.132 351.354 738.463ZM325.653 763.669C318.944 764.945 309.836 763.151 305.547 757.237C303.542 754.474 302.592 750.271 301.939 746.973C301.315 743.83 299.393 735.988 300.701 733.041C302.308 729.424 317.724 733.205 322.213 733.62C330.046 734.343 338.145 734.428 345.982 733.917C345.982 742.008 346.396 749.894 341.636 756.858C338.202 761.882 331.754 763.068 325.653 763.669ZM327.002 773.663C334.292 770.995 341.946 772.729 346.693 764.904C347.898 762.919 348.912 760.784 349.641 758.579C349.997 757.613 350.274 756.624 350.471 755.61C350.1 753.429 350.899 752.814 352.868 753.765C356.732 753.014 360.969 755.666 365.039 754.884C374.911 752.988 373.118 738.85 366.493 733.956C365.184 732.988 363.877 732.719 362.379 732.241C359.077 731.19 357.289 732.365 354.269 732.066C351.828 731.825 351.157 729.265 348.534 728.138C346.816 727.401 344.432 727.458 342.627 727.384C333.177 726.995 323.698 726.999 314.189 726.383C309.753 726.096 304.965 726.799 300.62 726.041C298.585 725.686 298.877 724.332 296.951 725.519C294.956 726.749 295.818 731.297 295.918 733.11C296.5 743.596 297.125 754.841 302.743 764.008C307.883 772.396 317.997 773.254 327.002 773.663Z" fill="black"/>
<path fill-rule="evenodd" clip-rule="evenodd" d="M712.016 776.553C709.67 776.527 707.325 776.503 704.988 776.479C707.336 776.504 709.676 776.528 712.016 776.553Z" fill="black"/>
<path fill-rule="evenodd" clip-rule="evenodd" d="M60.7217 552.986C60.7261 550.733 60.7312 548.481 60.7363 546.232C60.732 548.486 60.7268 550.736 60.7217 552.986Z" fill="black"/>
<path fill-rule="evenodd" clip-rule="evenodd" d="M657.367 562.236C657.374 564.431 657.381 566.625 657.389 568.814C657.382 566.618 657.375 564.427 657.367 562.236Z" fill="black"/>
<path fill-rule="evenodd" clip-rule="evenodd" d="M462.398 774.064C460.532 774.067 458.666 774.07 456.809 774.075C458.678 774.072 460.537 774.069 462.398 774.064Z" fill="black"/>
<path fill-rule="evenodd" clip-rule="evenodd" d="M575.703 773.617C573.837 773.623 571.972 773.629 570.114 773.636C571.983 773.631 573.843 773.624 575.703 773.617Z" fill="black"/>
<path fill-rule="evenodd" clip-rule="evenodd" d="M167.721 682.485C167.802 683.966 167.885 685.447 167.967 686.925C167.884 685.442 167.802 683.964 167.721 682.485Z" fill="black"/>
<path fill-rule="evenodd" clip-rule="evenodd" d="M63.5334 766.601C64.9754 766.586 66.4174 766.571 67.8594 766.556C66.4108 765.952 64.9688 765.979 63.5334 766.601Z" fill="black"/>
<path fill-rule="evenodd" clip-rule="evenodd" d="M191.562 773.16C190.527 773.144 189.492 773.128 188.467 773.11C189.505 773.126 190.534 773.143 191.562 773.16Z" fill="black"/>
<path fill-rule="evenodd" clip-rule="evenodd" d="M61.2832 571.262C61.2577 570.143 61.2322 569.024 61.2067 567.908C61.2322 569.029 61.2577 570.146 61.2832 571.262Z" fill="black"/>
<path fill-rule="evenodd" clip-rule="evenodd" d="M158.072 429.644C158.157 428.489 158.242 427.335 158.328 426.184C158.242 427.339 158.157 428.492 158.072 429.644Z" fill="black"/>
<path fill-rule="evenodd" clip-rule="evenodd" d="M60.7715 557.396C60.7576 556.238 60.7438 555.081 60.73 553.928C60.7438 555.086 60.7576 556.241 60.7715 557.396Z" fill="black"/>
<path fill-rule="evenodd" clip-rule="evenodd" d="M386.252 771.724C385.332 771.737 384.411 771.751 383.499 771.762C384.421 771.748 385.337 771.736 386.252 771.724Z" fill="black"/>
<path fill-rule="evenodd" clip-rule="evenodd" d="M149.215 773.611C148.316 773.629 147.416 773.647 146.525 773.666C147.427 773.648 148.321 773.63 149.215 773.611Z" fill="black"/>
<path fill-rule="evenodd" clip-rule="evenodd" d="M52.0472 692.227C52.112 691.212 52.1768 690.197 52.2402 689.184C52.1754 690.199 52.1113 691.213 52.0472 692.227Z" fill="black"/>
<path fill-rule="evenodd" clip-rule="evenodd" d="M68.1953 774.598C67.463 774.594 66.7307 774.589 66.0072 774.588C66.7416 774.593 67.4688 774.596 68.1953 774.598Z" fill="black"/>
<path fill-rule="evenodd" clip-rule="evenodd" d="M167.961 773.657C167.236 773.639 166.511 773.621 165.793 773.604C166.521 773.623 167.242 773.64 167.961 773.657Z" fill="black"/>
<path fill-rule="evenodd" clip-rule="evenodd" d="M330.955 773.103C330.156 773.099 329.359 773.095 328.568 773.089C329.368 773.093 330.162 773.098 330.955 773.103Z" fill="black"/>
<path fill-rule="evenodd" clip-rule="evenodd" d="M515.02 773.101C514.261 773.106 513.502 773.112 512.751 773.118C513.513 773.114 514.266 773.107 515.02 773.101Z" fill="black"/>
<path fill-rule="evenodd" clip-rule="evenodd" d="M559.795 773.224C559.021 773.181 558.249 773.137 557.482 773.095C558.258 773.138 559.026 773.181 559.795 773.224Z" fill="black"/>
<path fill-rule="evenodd" clip-rule="evenodd" d="M345.423 478.45C346.574 478.35 347.726 478.251 348.877 478.152C347.724 478.232 346.505 477.551 345.423 478.45Z" fill="black"/>
<path fill-rule="evenodd" clip-rule="evenodd" d="M51.938 767.039C53.0733 766.925 54.2085 766.809 55.3438 766.694C54.2078 766.809 53.0733 766.925 51.938 767.039Z" fill="black"/>
<path fill-rule="evenodd" clip-rule="evenodd" d="M131.123 485.438C131.199 486.433 131.276 487.428 131.352 488.42C131.275 487.424 131.199 486.431 131.123 485.438Z" fill="black"/>
<path fill-rule="evenodd" clip-rule="evenodd" d="M60.4883 526.9C60.411 525.957 60.3338 525.014 60.2565 524.075C60.3338 525.019 60.4118 525.959 60.4883 526.9Z" fill="black"/>
<path fill-rule="evenodd" clip-rule="evenodd" d="M131.574 500.864C131.655 501.857 131.737 502.849 131.818 503.839C131.737 502.845 131.655 501.854 131.574 500.864Z" fill="black"/>
<path fill-rule="evenodd" clip-rule="evenodd" d="M60.9671 564.957C60.9744 563.997 60.9817 563.038 60.9883 562.081C60.3689 563.038 60.3937 563.995 60.9671 564.957Z" fill="black"/>
<path fill-rule="evenodd" clip-rule="evenodd" d="M167.704 702.743C167.712 703.705 167.721 704.667 167.731 705.624C168.366 704.655 168.239 703.697 167.704 702.743Z" fill="black"/>
<path fill-rule="evenodd" clip-rule="evenodd" d="M95.3467 591.481C95.4574 590.508 95.5689 589.534 95.6797 588.563C95.5682 589.538 95.4574 590.51 95.3467 591.481Z" fill="black"/>
<path fill-rule="evenodd" clip-rule="evenodd" d="M694.497 502.143C695.25 503.137 696.275 502.456 697.17 502.577C696.278 502.432 695.388 502.288 694.497 502.143Z" fill="black"/>
<path fill-rule="evenodd" clip-rule="evenodd" d="M322.304 727.073C323.254 727.075 324.205 727.075 325.156 727.077C324.205 727.075 323.254 727.074 322.304 727.073Z" fill="black"/>
<path fill-rule="evenodd" clip-rule="evenodd" d="M170.381 506.229C170.292 507.037 170.204 507.846 170.115 508.652C170.204 507.841 170.292 507.035 170.381 506.229Z" fill="black"/>
<path fill-rule="evenodd" clip-rule="evenodd" d="M640.327 425.915C641.283 425.934 642.239 425.953 643.195 425.972C642.25 425.415 641.296 425.254 640.327 425.915Z" fill="black"/>
<path fill-rule="evenodd" clip-rule="evenodd" d="M131.598 514.853C131.66 515.701 131.722 516.548 131.783 517.392C131.721 516.544 131.66 515.698 131.598 514.853Z" fill="black"/>
<path fill-rule="evenodd" clip-rule="evenodd" d="M157.814 410.759C157.74 409.986 157.667 409.213 157.593 408.444C157.667 409.219 157.74 409.989 157.814 410.759Z" fill="black"/>
<path fill-rule="evenodd" clip-rule="evenodd" d="M165.326 408.338C165.401 409.176 165.476 410.016 165.551 410.851C165.476 410.011 165.401 409.174 165.326 408.338Z" fill="black"/>
<path fill-rule="evenodd" clip-rule="evenodd" d="M580.582 352.32C581.555 352.438 582.528 352.556 583.5 352.674C582.527 352.556 581.555 352.438 580.582 352.32Z" fill="black"/>
<path fill-rule="evenodd" clip-rule="evenodd" d="M650.842 426.583C651.84 426.685 652.838 426.787 653.836 426.889C652.838 426.787 651.839 426.685 650.842 426.583Z" fill="black"/>
<path fill-rule="evenodd" clip-rule="evenodd" d="M103.816 429.041C103.755 428.261 103.695 427.48 103.634 426.704C103.695 427.485 103.756 428.263 103.816 429.041Z" fill="black"/>
<path fill-rule="evenodd" clip-rule="evenodd" d="M683.607 557.812C683.033 557.82 682.458 557.828 681.892 557.837C682.469 557.828 683.038 557.82 683.607 557.812Z" fill="black"/>
<path fill-rule="evenodd" clip-rule="evenodd" d="M165.298 654.112C165.356 654.976 165.413 655.84 165.471 656.701C165.412 655.837 165.355 654.975 165.298 654.112Z" fill="black"/>
<path fill-rule="evenodd" clip-rule="evenodd" d="M106.651 485.968C106.674 485.135 106.697 484.303 106.721 483.473C106.696 484.306 106.673 485.137 106.651 485.968Z" fill="black"/>
<path fill-rule="evenodd" clip-rule="evenodd" d="M556.095 350.35C556.982 350.35 557.869 350.351 558.754 350.351C557.867 349.742 556.981 349.757 556.095 350.35Z" fill="black"/>
<path fill-rule="evenodd" clip-rule="evenodd" d="M319.347 546.34C320.319 546.365 321.29 546.39 322.26 546.415C321.306 545.74 320.334 545.723 319.347 546.34Z" fill="black"/>
<path fill-rule="evenodd" clip-rule="evenodd" d="M234.467 771.69C233.891 771.702 233.315 771.714 232.746 771.728C233.325 771.717 233.896 771.704 234.467 771.69Z" fill="black"/>
<path fill-rule="evenodd" clip-rule="evenodd" d="M212.785 772.701C212.21 772.681 211.635 772.66 211.068 772.641C211.646 772.661 212.215 772.681 212.785 772.701Z" fill="black"/>
<path fill-rule="evenodd" clip-rule="evenodd" d="M552.115 773.102C551.516 773.117 550.916 773.132 550.324 773.147C550.926 773.131 551.521 773.117 552.115 773.102Z" fill="black"/>
<path fill-rule="evenodd" clip-rule="evenodd" d="M52.5443 682.593C52.6295 681.77 52.7148 680.946 52.8008 680.126C52.7148 680.951 52.6295 681.772 52.5443 682.593Z" fill="black"/>
<path fill-rule="evenodd" clip-rule="evenodd" d="M130.863 543.811C130.795 544.595 130.727 545.38 130.66 546.159C130.728 545.374 130.796 544.592 130.863 543.811Z" fill="black"/>
<path fill-rule="evenodd" clip-rule="evenodd" d="M100.725 530.341C100.818 529.509 100.911 528.677 101.004 527.848C100.911 528.68 100.818 529.51 100.725 530.341Z" fill="black"/>
<path fill-rule="evenodd" clip-rule="evenodd" d="M547.25 773.597C546.645 773.588 546.04 773.578 545.441 773.57C546.049 773.581 546.65 773.589 547.25 773.597Z" fill="black"/>
<path fill-rule="evenodd" clip-rule="evenodd" d="M327.002 773.663C326.413 773.636 325.826 773.61 325.244 773.584C325.834 773.611 326.418 773.637 327.002 773.663Z" fill="black"/>
<path fill-rule="evenodd" clip-rule="evenodd" d="M105.643 469.59C105.67 468.747 105.696 467.904 105.723 467.062C105.696 467.906 105.669 468.748 105.643 469.59Z" fill="black"/>
<path fill-rule="evenodd" clip-rule="evenodd" d="M604.598 774.148C604.007 774.143 603.418 774.138 602.836 774.135C603.429 774.14 604.013 774.144 604.598 774.148Z" fill="black"/>
<path fill-rule="evenodd" clip-rule="evenodd" d="M105.891 774.141C105.284 774.146 104.677 774.153 104.078 774.16C104.688 774.154 105.289 774.147 105.891 774.141Z" fill="black"/>
<path fill-rule="evenodd" clip-rule="evenodd" d="M92.791 774.067C92.2052 774.109 91.6201 774.151 91.0415 774.191C91.6296 774.15 92.2103 774.109 92.791 774.067Z" fill="black"/>
<path fill-rule="evenodd" clip-rule="evenodd" d="M87.502 774.058C86.9059 774.075 86.3091 774.093 85.7204 774.106C86.3186 774.088 86.9103 774.073 87.502 774.058Z" fill="black"/>
<path fill-rule="evenodd" clip-rule="evenodd" d="M60.3404 533.682C60.3798 532.853 60.4184 532.023 60.457 531.196C60.4177 532.027 60.3798 532.854 60.3404 533.682Z" fill="black"/>
<path fill-rule="evenodd" clip-rule="evenodd" d="M460.615 763.191C458.802 763.097 456.987 763.002 455.173 762.907C456.987 763.002 458.802 763.096 460.615 763.191Z" fill="black"/>
<path fill-rule="evenodd" clip-rule="evenodd" d="M570.053 461.729C568.478 461.865 566.903 462.002 565.33 462.138C566.905 462.002 568.479 461.865 570.053 461.729Z" fill="black"/>
<path fill-rule="evenodd" clip-rule="evenodd" d="M125.463 530.175C125.414 531.677 125.364 533.179 125.315 534.677C125.365 533.174 125.414 531.675 125.463 530.175Z" fill="black"/>
<path fill-rule="evenodd" clip-rule="evenodd" d="M92.9688 765.759C91.3249 765.859 89.6818 765.958 88.0379 766.057C89.692 766.133 91.3708 766.604 92.9688 765.759Z" fill="black"/>
<path fill-rule="evenodd" clip-rule="evenodd" d="M102.695 588.067C102.683 586.634 102.671 585.201 102.659 583.771C102.671 585.205 102.683 586.636 102.695 588.067Z" fill="black"/>
<path fill-rule="evenodd" clip-rule="evenodd" d="M106.902 633.091C105.46 633.11 104.017 633.129 102.576 633.148C104.018 633.129 105.46 633.11 106.902 633.091Z" fill="black"/>
<path fill-rule="evenodd" clip-rule="evenodd" d="M469.982 607.897C470.018 608.99 470.054 610.082 470.088 611.169C470.051 610.075 470.016 608.987 469.982 607.897Z" fill="black"/>
<path fill-rule="evenodd" clip-rule="evenodd" d="M82.8986 561.655C82.9576 562.742 83.0167 563.828 83.0742 564.91C83.0145 563.822 82.9562 562.739 82.8986 561.655Z" fill="black"/>
<path fill-rule="evenodd" clip-rule="evenodd" d="M113.668 760.924C112.619 760.852 111.569 760.782 110.522 760.714C111.312 761.345 112.105 761.398 113.668 760.924Z" fill="black"/>
<path fill-rule="evenodd" clip-rule="evenodd" d="M120.691 618.861C120.619 620.033 120.547 621.204 120.476 622.372C120.548 621.2 120.619 620.031 120.691 618.861Z" fill="black"/>
<path fill-rule="evenodd" clip-rule="evenodd" d="M513.01 433.96C512.999 432.829 512.988 431.697 512.976 430.57C512.987 431.703 512.998 432.832 513.01 433.96Z" fill="black"/>
<path fill-rule="evenodd" clip-rule="evenodd" d="M119.422 633.327L115.511 633.242C116.802 633.866 118.105 633.888 119.422 633.327Z" fill="black"/>
<path fill-rule="evenodd" clip-rule="evenodd" d="M83.3415 641.677C84.2639 641.685 85.1856 641.692 86.1016 641.702C85.1769 641.694 84.2588 641.686 83.3415 641.677Z" fill="black"/>
<path fill-rule="evenodd" clip-rule="evenodd" d="M421.055 761.374C419.778 761.391 418.501 761.408 417.225 761.424C418.511 762.068 419.789 762.159 421.055 761.374Z" fill="black"/>
<path fill-rule="evenodd" clip-rule="evenodd" d="M661.533 765.135C660.238 765.019 658.941 764.903 657.646 764.787C658.941 764.903 660.238 765.019 661.533 765.135Z" fill="black"/>
<path fill-rule="evenodd" clip-rule="evenodd" d="M125.016 539.823C124.952 540.999 124.889 542.175 124.825 543.347C124.889 542.17 124.952 540.997 125.016 539.823Z" fill="black"/>
<path fill-rule="evenodd" clip-rule="evenodd" d="M538.559 464.489C537.466 463.95 536.365 463.86 535.253 464.431C536.356 464.45 537.457 464.47 538.559 464.489Z" fill="black"/>
<path fill-rule="evenodd" clip-rule="evenodd" d="M160.744 553.4C160.654 554.392 160.563 555.384 160.473 556.373C160.564 555.38 160.654 554.39 160.744 553.4Z" fill="black"/>
<path fill-rule="evenodd" clip-rule="evenodd" d="M68.4766 530.257C69.0376 529.287 69.018 528.322 68.4489 527.365C68.4584 528.331 68.4671 529.294 68.4766 530.257Z" fill="black"/>
<path fill-rule="evenodd" clip-rule="evenodd" d="M85.6816 632.621C84.5573 632.277 83.433 631.789 82.3138 632.633C83.4366 632.629 84.5588 632.625 85.6816 632.621Z" fill="black"/>
<path fill-rule="evenodd" clip-rule="evenodd" d="M448.994 762.746C447.863 762.64 446.732 762.535 445.601 762.43C446.732 762.535 447.863 762.64 448.994 762.746Z" fill="black"/>
<path fill-rule="evenodd" clip-rule="evenodd" d="M604.086 762.748C603.05 762.293 602.016 762.054 600.995 762.783C602.026 762.771 603.056 762.76 604.086 762.748Z" fill="black"/>
<path fill-rule="evenodd" clip-rule="evenodd" d="M392.145 761.287C391.036 760.804 389.931 760.538 388.837 761.322C389.94 761.31 391.042 761.299 392.145 761.287Z" fill="black"/>
<path fill-rule="evenodd" clip-rule="evenodd" d="M638.787 617.968C638.704 618.968 638.62 619.968 638.538 620.966C638.622 619.965 638.705 618.967 638.787 617.968Z" fill="black"/>
<path fill-rule="evenodd" clip-rule="evenodd" d="M381.555 560.354C380.465 559.957 379.378 559.751 378.308 560.413C379.391 560.392 380.473 560.373 381.555 560.354Z" fill="black"/>
<path fill-rule="evenodd" clip-rule="evenodd" d="M125.031 590.128C124.971 591.106 124.91 592.083 124.851 593.059C124.911 592.08 124.972 591.104 125.031 590.128Z" fill="black"/>
<path fill-rule="evenodd" clip-rule="evenodd" d="M639.491 501.91C639.582 502.698 639.672 503.486 639.762 504.269C639.671 503.48 639.582 502.696 639.491 501.91Z" fill="black"/>
<path fill-rule="evenodd" clip-rule="evenodd" d="M702.675 730.296C702.731 731.063 702.786 731.829 702.842 732.591C702.784 731.824 702.73 731.059 702.675 730.296Z" fill="black"/>
<path fill-rule="evenodd" clip-rule="evenodd" d="M102.213 595.303C102.274 594.51 102.335 593.718 102.396 592.929C102.335 593.723 102.274 594.513 102.213 595.303Z" fill="black"/>
<path fill-rule="evenodd" clip-rule="evenodd" d="M181.598 759.807C180.626 759.813 179.655 759.82 178.684 759.827C179.656 759.82 180.627 759.813 181.598 759.807Z" fill="black"/>
<path fill-rule="evenodd" clip-rule="evenodd" d="M470.348 614.643C470.167 615.22 469.986 615.797 469.804 616.375C471.016 616.668 471.197 616.09 470.348 614.643Z" fill="black"/>
<path fill-rule="evenodd" clip-rule="evenodd" d="M397.518 559.049C396.531 559.045 395.544 559.041 394.558 559.037C395.543 559.505 396.529 559.826 397.518 559.049Z" fill="black"/>
<path fill-rule="evenodd" clip-rule="evenodd" d="M638.234 622.704C638.201 623.578 638.167 624.453 638.135 625.325C638.17 624.45 638.202 623.577 638.234 622.704Z" fill="black"/>
<path fill-rule="evenodd" clip-rule="evenodd" d="M627.797 763.704C626.845 763.704 625.893 763.703 624.941 763.702C625.894 763.703 626.845 763.704 627.797 763.704Z" fill="black"/>
<path fill-rule="evenodd" clip-rule="evenodd" d="M158.348 631.922C158.313 632.727 158.277 633.532 158.241 634.333C158.276 633.525 158.312 632.724 158.348 631.922Z" fill="black"/>
<path fill-rule="evenodd" clip-rule="evenodd" d="M648.014 764.687C647.077 764.065 646.139 764.119 645.199 764.676C646.137 764.68 647.076 764.684 648.014 764.687Z" fill="black"/>
<path fill-rule="evenodd" clip-rule="evenodd" d="M623.359 490.664C623.309 491.486 623.258 492.308 623.206 493.125C623.256 492.302 623.308 491.483 623.359 490.664Z" fill="black"/>
<path fill-rule="evenodd" clip-rule="evenodd" d="M652.887 764.771C651.913 764.775 650.94 764.779 649.967 764.784C650.943 765.448 651.916 765.48 652.887 764.771Z" fill="black"/>
<path fill-rule="evenodd" clip-rule="evenodd" d="M113.834 477.763C113.826 476.929 113.819 476.094 113.811 475.262C113.819 476.097 113.827 476.93 113.834 477.763Z" fill="black"/>
<path fill-rule="evenodd" clip-rule="evenodd" d="M560.756 463.164C559.825 463.286 558.893 463.407 557.963 463.528C558.894 463.407 559.825 463.286 560.756 463.164Z" fill="black"/>
<path fill-rule="evenodd" clip-rule="evenodd" d="M642.93 535.214C642.917 535.993 642.905 536.774 642.89 537.55C642.903 536.769 642.916 535.991 642.93 535.214Z" fill="black"/>
<path fill-rule="evenodd" clip-rule="evenodd" d="M107.566 535.102C107.617 534.308 107.668 533.514 107.719 532.724C107.668 533.519 107.616 534.311 107.566 535.102Z" fill="black"/>
<path fill-rule="evenodd" clip-rule="evenodd" d="M324.758 763.84C323.609 763.944 322.46 764.048 321.311 764.152C322.46 764.047 323.609 763.944 324.758 763.84Z" fill="black"/>
<path fill-rule="evenodd" clip-rule="evenodd" d="M328.596 734.1C329.217 734.11 329.837 734.119 330.453 734.132C329.83 734.124 329.213 734.112 328.596 734.1Z" fill="black"/>
<path fill-rule="evenodd" clip-rule="evenodd" d="M328.543 763.386C327.58 763.48 326.615 763.576 325.652 763.671C326.616 763.575 327.58 763.48 328.543 763.386Z" fill="black"/>
<path fill-rule="evenodd" clip-rule="evenodd" d="M501.98 698.496C500.726 705.581 511.738 712.509 512.611 702.438C512.93 698.756 510.467 696.167 507.709 693.915C503.795 690.721 501.608 693.78 501.98 698.496Z" fill="black"/>
<path fill-rule="evenodd" clip-rule="evenodd" d="M623.353 612.066C620.759 613.128 600.94 619.585 611.235 622.833C613.96 623.692 618.079 623.82 620.441 622.306C623.283 620.483 626.15 615.104 623.353 612.066Z" fill="black"/>
<path fill-rule="evenodd" clip-rule="evenodd" d="M618.476 516.131C611.749 515.35 605.551 526.397 613.844 526.039C619.881 525.777 628 516.131 618.476 516.131Z" fill="black"/>
<path fill-rule="evenodd" clip-rule="evenodd" d="M594.413 543.217C588.796 548.117 599.208 559.083 603.341 554.839C605.452 552.671 603.505 548 601.763 546.186C599.975 544.325 596.794 543.975 594.413 543.217Z" fill="black"/>
<path fill-rule="evenodd" clip-rule="evenodd" d="M577.69 670.249C581.006 670.775 595.59 675.54 592.548 666.886C591.388 663.585 588.153 664.565 585.196 664.716C580.429 664.959 577.69 664.731 577.69 670.249Z" fill="black"/>
<path fill-rule="evenodd" clip-rule="evenodd" d="M587.297 692.539C582.332 695.195 589.589 710.055 593.704 706.893C599.413 702.506 591.604 693.874 587.297 692.539Z" fill="black"/>
<path fill-rule="evenodd" clip-rule="evenodd" d="M565.645 680.594C563.231 679.608 551.852 690.552 556.183 693.597C558.404 695.157 562.61 692.482 563.949 690.869C566.458 687.844 566.686 684.113 565.645 680.594Z" fill="black"/>
<path fill-rule="evenodd" clip-rule="evenodd" d="M631.298 591.142C628.831 591.547 624.571 591.675 624.412 595.141C624.272 598.188 628.092 599.175 630.782 599.414C633.572 599.662 637.267 598.874 637.32 595.366C637.376 591.582 631.386 591.81 631.298 591.142Z" fill="black"/>
<path fill-rule="evenodd" clip-rule="evenodd" d="M570.458 741.984C567.83 743.579 555.574 749.321 560.828 753.47C562.794 755.022 568.754 751.816 570.095 750.186C571.696 748.241 573.26 743.684 570.458 741.984Z" fill="black"/>
<path fill-rule="evenodd" clip-rule="evenodd" d="M536.387 700.317C536.766 693.979 526.071 691.456 528.289 700.452C528.914 702.989 529.519 706.839 532.655 706.986C536.363 707.161 536.497 702.775 536.387 700.317Z" fill="black"/>
<path fill-rule="evenodd" clip-rule="evenodd" d="M569.425 590.099C569.35 594.907 578.565 599.147 578.636 591.526C578.7 584.716 569.081 582.722 569.425 590.099Z" fill="black"/>
<path fill-rule="evenodd" clip-rule="evenodd" d="M575.511 565.057C573.241 565.788 570.223 566.165 570.023 569.049C569.811 572.101 572.647 573.46 575.199 573.289C577.292 573.148 580.389 571.6 580.769 569.329C581.326 565.997 578.074 565.779 575.511 565.057Z" fill="black"/>
<path fill-rule="evenodd" clip-rule="evenodd" d="M617.73 653.085C617.769 649.118 609.816 644.35 608.352 648.953C607.883 650.426 611.631 657.032 612.878 657.526C616.177 658.836 616.637 655.785 617.73 653.085Z" fill="black"/>
<path fill-rule="evenodd" clip-rule="evenodd" d="M552.564 719.121C555.252 721.526 563.313 728.282 562.71 719.213C562.325 713.42 551.855 713.722 552.564 719.121Z" fill="black"/>
<path fill-rule="evenodd" clip-rule="evenodd" d="M421.227 745.04C420.346 741.227 407.735 747.842 411.943 752.658C413.355 754.275 417.049 752.812 418.469 751.854C421.28 749.958 421.341 748.207 421.227 745.04Z" fill="black"/>
<path fill-rule="evenodd" clip-rule="evenodd" d="M491.496 663.418C491.004 661.718 490.458 658.712 488.836 657.627C485.901 655.665 483.345 658.626 483.345 661.746C483.344 667.567 489.971 669.403 491.496 663.418Z" fill="black"/>
<path fill-rule="evenodd" clip-rule="evenodd" d="M522.753 731.476C519.478 732.226 512.187 740.184 516.415 743.431C520.485 746.555 525.897 733.853 522.753 731.476Z" fill="black"/>
<path fill-rule="evenodd" clip-rule="evenodd" d="M519.637 671.235C515.426 671.571 509.639 678.388 516.184 679.471C521.302 680.319 527.255 672.905 519.637 671.235Z" fill="black"/>
<path fill-rule="evenodd" clip-rule="evenodd" d="M481.519 702.604C480.463 699.048 470.021 702.859 470.608 706.774C470.92 708.855 475.189 709.344 477.433 708.794C480.737 707.983 481.595 705.816 481.519 702.604Z" fill="black"/>
<path fill-rule="evenodd" clip-rule="evenodd" d="M604.603 504.004C604.527 499.407 595.692 497.533 595.045 502.166C594.46 506.351 604.713 510.805 604.603 504.004Z" fill="black"/>
<path fill-rule="evenodd" clip-rule="evenodd" d="M484.439 749.972C483.803 747.66 483.528 744.878 480.64 744.573C477.334 744.224 477.431 746.76 477.82 749.387C478.878 756.534 482.917 756.891 484.439 749.972Z" fill="black"/>
<path fill-rule="evenodd" clip-rule="evenodd" d="M623.958 558.698C628.564 559.737 637 550.868 631.844 548.965C628.211 547.622 623.958 556.022 623.958 558.698Z" fill="black"/>
<path fill-rule="evenodd" clip-rule="evenodd" d="M565.212 627.59C567.557 628.694 568.096 629.363 569.897 627.552C571.465 625.975 571.396 621.581 570.05 619.94C564.895 613.657 565.016 625.048 565.212 627.59Z" fill="black"/>
<path fill-rule="evenodd" clip-rule="evenodd" d="M546.089 614.847C543.645 615.158 536.381 622.047 540.163 624.784C544.798 628.139 547.421 617.631 546.089 614.847Z" fill="black"/>
<path fill-rule="evenodd" clip-rule="evenodd" d="M493.197 616.661C494.974 623.503 499.409 618.899 499.158 613.723C498.754 605.431 494.158 612.652 493.197 616.661Z" fill="black"/>
<path fill-rule="evenodd" clip-rule="evenodd" d="M466.228 726.542C463.222 727.786 459.141 739.276 463.435 739.892C468.258 740.584 466.652 728.934 466.228 726.542Z" fill="black"/>
<path fill-rule="evenodd" clip-rule="evenodd" d="M503.771 720.086C500.331 718.926 499.07 726.181 501.07 727.529C505.469 730.494 504.541 721.798 503.771 720.086Z" fill="black"/>
<path fill-rule="evenodd" clip-rule="evenodd" d="M536.388 700.316C536.431 701.28 536.474 702.243 536.52 703.2C536.477 702.235 536.433 701.276 536.388 700.316Z" fill="black"/>
<path fill-rule="evenodd" clip-rule="evenodd" d="M421.227 745.04C421.263 746.028 421.299 747.015 421.336 747.998C421.302 747.009 421.265 746.024 421.227 745.04Z" fill="black"/>
<path fill-rule="evenodd" clip-rule="evenodd" d="M481.521 702.604C481.54 703.441 481.56 704.279 481.582 705.112C481.563 704.272 481.541 703.438 481.521 702.604Z" fill="black"/>
<path fill-rule="evenodd" clip-rule="evenodd" d="M101.019 688.185C93.8864 687.956 85.9302 685.272 78.922 686.126C76.9925 686.361 72.5514 686.847 75.6424 689.708C77.1208 691.076 84.1982 690.369 86.3405 690.823C99.4352 693.595 114.3 695.383 127.727 695.152C134.012 695.044 140.344 694.541 146.627 694.208C152.905 693.876 153.522 691.326 146.458 690.514C139.121 689.672 131.592 689.984 124.219 689.976C116.468 689.965 108.755 688.702 101.019 688.185Z" fill="black"/>
<path fill-rule="evenodd" clip-rule="evenodd" d="M85.3601 671.006C86.0465 672.96 86.6492 677.445 89.2796 677.739C92.9637 678.151 93.5736 671.826 93.4381 669.513C93.2734 666.722 92.2685 662.084 88.7979 663.051C85.8666 663.867 85.5729 668.772 85.3601 671.006Z" fill="black"/>
<path fill-rule="evenodd" clip-rule="evenodd" d="M107.664 669.575C107.126 667.483 106.861 662.765 103.901 662.604C100.593 662.426 99.6481 667.341 99.67 669.697C99.6918 671.932 100.519 676.156 103.153 676.672C106.724 677.372 107.043 671.966 107.664 669.575Z" fill="black"/>
<path fill-rule="evenodd" clip-rule="evenodd" d="M144.807 673.328C145.879 675.843 146.588 679.307 149.904 677.592C152.469 676.266 152.827 670.918 152.343 668.47C151.842 665.933 150.78 663.023 147.865 664.164C144.503 665.481 144.843 670.559 144.807 673.328Z" fill="black"/>
<path fill-rule="evenodd" clip-rule="evenodd" d="M116.68 671.006C119.841 680.588 125.608 674.105 123.418 666.951C121.129 659.473 116.97 666.736 116.68 671.006Z" fill="black"/>
<path fill-rule="evenodd" clip-rule="evenodd" d="M132.084 671.48C132.962 673.167 133.896 676.807 136.263 676.424C139.164 675.953 139.258 670.37 138.939 668.291C138.662 666.471 137.844 663.439 135.415 663.478C131.906 663.535 132.142 669.296 132.084 671.48Z" fill="black"/>
<path fill-rule="evenodd" clip-rule="evenodd" d="M69.0159 673.319C71.3695 678.599 74.6069 674.051 73.5707 670.301C72.034 664.74 69.1492 669.667 69.0159 673.319Z" fill="black"/>
<path fill-rule="evenodd" clip-rule="evenodd" d="M126.658 689.983C129.228 689.973 131.799 689.963 134.369 689.954C131.797 689.469 129.225 689.281 126.658 689.983Z" fill="black"/>
<path fill-rule="evenodd" clip-rule="evenodd" d="M75.5768 686.105C77.8065 686.12 80.0354 686.134 82.2637 686.148C80.0384 685.481 77.8094 685.466 75.5768 686.105Z" fill="black"/>
<path fill-rule="evenodd" clip-rule="evenodd" d="M101.017 688.186C102.802 688.305 104.585 688.425 106.369 688.544C104.585 688.425 102.801 688.305 101.017 688.186Z" fill="black"/>
<path fill-rule="evenodd" clip-rule="evenodd" d="M144.807 673.328C144.823 672.047 144.84 670.766 144.855 669.488C144.196 670.762 144.242 672.041 144.807 673.328Z" fill="black"/>
<path fill-rule="evenodd" clip-rule="evenodd" d="M130.82 695.125C129.786 695.134 128.751 695.143 127.725 695.153C128.763 695.143 129.791 695.134 130.82 695.125Z" fill="black"/>
<path fill-rule="evenodd" clip-rule="evenodd" d="M139.603 690.094C141.061 690.213 142.518 690.333 143.975 690.452C142.517 690.333 141.061 690.213 139.603 690.094Z" fill="black"/>
<path fill-rule="evenodd" clip-rule="evenodd" d="M119.902 689.966C121.341 689.969 122.78 689.972 124.219 689.975C122.78 689.369 121.342 689.351 119.902 689.966Z" fill="black"/>
<path fill-rule="evenodd" clip-rule="evenodd" d="M132.083 671.48C132.119 670.145 132.154 668.811 132.188 667.478C132.152 668.813 132.118 670.147 132.083 671.48Z" fill="black"/>
<path fill-rule="evenodd" clip-rule="evenodd" d="M152.343 668.47C152.351 669.772 152.359 671.073 152.369 672.37C152.361 671.067 152.352 669.769 152.343 668.47Z" fill="black"/>
<path fill-rule="evenodd" clip-rule="evenodd" d="M92.8418 687.701C94.114 687.816 95.3855 687.931 96.6562 688.046C95.384 687.931 94.1125 687.816 92.8418 687.701Z" fill="black"/>
<path fill-rule="evenodd" clip-rule="evenodd" d="M69.0175 673.319C69.059 672.182 69.0998 671.045 69.1406 669.909C69.0991 671.047 69.059 672.183 69.0175 673.319Z" fill="black"/>
<path fill-rule="evenodd" clip-rule="evenodd" d="M123.135 695.163C122.249 695.146 121.364 695.13 120.488 695.114C121.376 695.132 122.255 695.148 123.135 695.163Z" fill="black"/>
<path fill-rule="evenodd" clip-rule="evenodd" d="M85.3586 671.006C85.4366 670.188 85.5146 669.37 85.5918 668.556C85.5138 669.375 85.4358 670.19 85.3586 671.006Z" fill="black"/>
<path fill-rule="evenodd" clip-rule="evenodd" d="M116.678 671.006C116.735 670.166 116.793 669.326 116.85 668.489C116.792 669.329 116.735 670.168 116.678 671.006Z" fill="black"/>
<path fill-rule="evenodd" clip-rule="evenodd" d="M573.282 424.379C576.765 423.465 577.417 418.572 576.858 415.567C576.223 414.119 575.588 412.671 574.954 411.223C575.202 410.688 575.45 410.152 575.698 409.617C575.379 406.634 576.193 405.338 572.765 406.546C566.396 408.791 565.379 424.148 573.282 424.379Z" fill="black"/>
<path fill-rule="evenodd" clip-rule="evenodd" d="M521.735 414.918C518.866 414.692 513.656 418.033 516.511 421.264C518.281 423.266 524.11 422.319 526.489 422.737C529.643 423.292 532.933 424.05 531.227 419.326C529.887 415.617 525.101 414.821 521.735 414.918Z" fill="black"/>
<path fill-rule="evenodd" clip-rule="evenodd" d="M524.754 437.137C527.668 434.801 526.367 424.159 521.932 426.074C517.37 428.045 522.322 435.602 524.754 437.137Z" fill="black"/>
<path fill-rule="evenodd" clip-rule="evenodd" d="M576.857 415.566C576.857 416.686 576.858 417.807 576.86 418.921C577.468 417.799 577.449 416.683 576.857 415.566Z" fill="black"/>
<path fill-rule="evenodd" clip-rule="evenodd" d="M573.281 424.379C572.687 424.362 572.093 424.344 571.506 424.329C572.103 424.348 572.692 424.363 573.281 424.379Z" fill="black"/>
<path fill-rule="evenodd" clip-rule="evenodd" d="M213.484 730.844C213.756 735.685 218.955 732.106 218.587 728.868C217.917 722.992 214.594 728.799 213.484 730.844Z" fill="black"/>
</svg>
