<svg width="869" height="836" viewBox="0 0 869 836" fill="none" xmlns="http://www.w3.org/2000/svg">
<rect x="149" width="720" height="918" fill="#EDF1F7"/>
<path fill-rule="evenodd" clip-rule="evenodd" d="M724.477 421.226C718.981 399.846 713.801 378 705.647 357.453C700.543 344.595 695.136 331.854 689.719 319.126C688.968 317.359 688.65 315.656 687.188 314.776C685.237 313.601 681.198 313.626 678.995 313.223C647.708 307.481 616.095 303.099 584.377 300.634C548.183 297.821 512.896 299.107 477.081 305.009C446.453 310.055 416.126 317.011 386.131 324.976C381.721 326.146 377.318 327.342 372.924 328.571C370.877 329.144 367.478 329.436 365.693 330.631C361.878 333.186 360.584 343.655 359.154 348.089C357.238 354.034 356.123 362.201 352.43 367.258C346.931 374.786 338.561 381.316 331.745 387.573C307.958 409.414 281.881 429.337 251.16 440.135C203.632 456.839 153.514 467.309 104.279 477.66C103.133 477.901 101.987 478.141 100.841 478.378C113.587 492.5 126.333 506.622 139.078 520.743C146.264 528.704 153.449 536.665 160.634 544.625C164.328 548.719 163.924 549.449 169.148 548.309C195.329 542.593 221.463 536.363 247.168 528.768C259.77 525.046 272.588 521.181 284.313 515.151C300.45 506.852 315.597 496.593 330.34 486.056C343.518 476.636 356.387 466.783 369.023 456.649C371.515 454.652 380.504 445.022 383.419 445.649C385.933 446.191 390.286 451.916 392.128 453.583C396.997 457.994 401.887 462.383 406.807 466.737C414.637 473.665 422.634 482.15 431.78 487.364C441.417 492.859 452.463 496.603 462.635 500.979C468.31 503.419 473.989 505.85 479.67 508.275C481.154 508.908 483.224 510.285 484.824 510.32C489.559 510.42 496.435 506.569 500.827 505.069C512.109 501.215 523.309 497.118 534.393 492.724C558.058 483.342 584.068 473.149 603.545 456.265C606.943 453.321 610.264 450.024 612.513 446.09C613.292 444.725 614.452 442.826 614.532 441.215C614.659 438.647 613.215 438.143 611.069 436.538C599.991 428.253 588.045 421.033 576.298 413.752C573.537 412.042 570.772 410.339 567.996 408.653L705.264 419.682C711.668 420.197 718.072 420.711 724.477 421.226Z" fill="#FFAEAD"/>
<path fill-rule="evenodd" clip-rule="evenodd" d="M520.076 159.724C505.573 160.386 490.706 161.061 476.329 163.103C461.999 165.138 448.627 170.343 435.674 176.645C412.322 188.009 388.453 201.821 373.433 223.679C366.41 233.899 360.682 244.599 350.988 252.644C348.72 254.525 346.249 256.786 343.239 257.362C340.846 257.819 338.735 256.85 336.392 256.735C331.92 256.513 330.225 258.872 330.225 263.317C326.868 261.977 323.213 260.763 319.551 261.256C316.49 261.668 314.057 263.515 311.118 264.291C305.814 265.693 300.624 263.597 295.58 262.035C282.842 258.092 268.849 255.106 255.465 256.513C246.649 257.44 235.967 261.264 240.532 272.625C244.318 282.05 258.474 286.82 267.416 289.164C275.021 291.159 285.247 289.379 284.604 299.879C284.156 307.207 283.048 315.069 275.262 317.447C270.994 318.75 255.87 320.692 264.702 327.305C271.223 332.188 273.5 340.783 278.461 347.238C284.783 355.466 293.355 362.118 303.374 365.121C314.586 368.482 326.449 367.837 337.965 369.14C329.854 380.339 318.143 388.042 307.483 396.559C296.274 405.514 285.461 415.3 272.488 421.683C260.862 427.405 248.3 431.378 236.291 436.229C223.679 441.325 210.977 446.362 197.958 450.331C171.698 458.338 144.075 463.932 117.077 468.843C103.753 471.267 90.6895 470.912 77.2315 471.127C63.4263 471.349 49.6295 473.771 36.0778 476.259C29.5082 477.466 22.8754 478.226 16.3067 479.428C13.1544 480.004 0.676712 481.275 0.229688 485.894C-0.499225 493.417 7.63344 497.634 13.5889 499.733C16.1322 500.629 20.228 500.498 22.4305 501.731C24.8129 503.064 23.883 505.026 24.1554 507.607C24.553 511.358 26.5589 514.057 29.6344 516.138C32.164 517.85 35.2133 517.782 33.4694 521.024C32.6658 522.519 30.6536 523.461 29.7259 525.038C28.6657 526.836 28.1776 528.809 28.3933 530.879C28.7698 534.502 31.1627 537.267 34.5001 538.549C39.835 540.597 46.0954 539.148 51.5597 538.483C60.7031 537.37 69.9802 537.259 79.0017 535.258C88.4071 533.171 97.56 529.956 106.976 527.819C111.805 526.724 116.643 525.805 121.362 524.286C124.432 523.298 128.87 520.732 132.14 521.535C135.203 522.288 137.597 525.988 139.599 528.136C142.363 531.099 145.039 534.142 147.848 537.063C149.708 538.998 151.617 540.893 153.649 542.649C154.31 543.219 158.39 545.715 158.447 546.385C158.606 548.278 154.152 548.246 153.198 548.998C147.655 553.381 155.984 556.155 159.579 555.935C167.863 555.43 176.189 554.412 184.394 553.195C203.931 550.295 223.412 547.165 242.091 540.618C260.567 534.142 278.596 527.254 295.685 517.601C312.089 508.337 327.954 497.863 343.449 487.157C350.967 481.962 358.537 476.579 364.886 469.961C371.094 463.488 376.155 456.056 381.304 448.743C393.633 460.656 405.499 473.184 418.743 484.106C431.342 494.495 446.488 500.045 461.142 506.793C460.668 509.859 446.344 511.695 443.728 512.491C431.781 516.128 420.316 521.965 408.695 526.542C389.364 534.156 371.021 544.065 364.583 565.213C358.253 586.005 365.595 606.934 374.549 625.717C385.118 647.891 397.67 668.428 412.846 687.758C419.301 695.982 426.254 703.552 433.338 711.21C439.382 717.744 444.563 725.483 442.031 734.77C437.167 733.249 436.275 737.046 439.456 740.26C442.282 743.116 447.168 743.671 450.942 744.144C462.383 745.58 474.202 745.072 485.656 744.006C506.511 742.062 527.413 736.796 546.295 727.735C555.688 723.226 559.088 730.496 565.548 736.126C570.632 740.554 577.63 743.426 581.494 749.157C584.671 753.872 582.597 761.321 575.996 759.554C570.86 758.179 566.733 752.447 561.293 752.226C551.638 751.835 569.855 765.616 572.186 767.298C567.572 771.427 562.34 765.765 557.687 764.82C553.224 763.914 551.978 766.225 554.356 769.947C556.21 772.848 562.035 774.903 558.161 778.433C554.951 781.357 547.834 782.897 543.893 784.178C531.598 788.177 519.367 791.023 506.567 792.849C502.434 793.438 495.807 793.062 492.456 795.993C488.036 799.86 490.167 806.267 492.404 810.697C500.879 827.476 518.499 835.724 536.596 836.931C547.74 837.674 558.989 836.955 570.17 837.556C582.421 838.216 594.7 839.196 606.979 838.791C626.721 838.14 639.28 823.866 649.122 808.169C655.374 798.195 661.137 787.932 666.549 777.482C668.663 773.4 673.092 769.17 673.845 764.583C674.524 760.453 671.89 757.141 669.331 754.219C662.598 746.53 654.495 740.661 646.579 734.307C642.06 730.68 640.322 727.676 638.31 722.396C636.615 717.952 633.358 716.052 630.49 712.506C627.335 708.605 628.326 707.914 630.786 704.726C633.361 701.388 632.349 696.469 631.268 692.692C629.718 687.272 626.391 686.079 621.423 684.332C616.893 682.741 613.053 679.948 609.036 677.356C589.195 664.557 570.501 650.074 550.416 637.631C530.599 625.355 509.889 614.512 490.976 600.814C506.334 598.748 519.874 590.452 534.362 585.539C541.796 583.018 549.16 580.326 556.353 577.171C559.1 575.966 562.301 574.895 564.752 573.123C567.214 571.343 569.106 569.001 571.688 567.316C577.812 563.318 585.094 561.042 591.681 557.925C598.794 554.56 605.815 550.881 612.425 546.598C618.596 542.599 624.521 538.028 629.651 532.746C633.739 528.539 637.714 523.055 643.501 521.122C642.894 529.185 632.91 535.861 627.438 540.713C618.56 548.587 609.33 555.277 599.405 561.78C610.537 571.321 624.105 577.534 637.14 583.978C651.797 591.223 666.044 599.255 680.643 606.613C693.009 612.846 706.019 617.649 718.588 623.44C732.149 629.689 746.107 634.929 760.256 639.683C773.061 643.985 785.116 648.572 797.198 654.611C808.944 660.482 821.511 664.971 834.076 668.739C848.194 672.972 861.662 676.999 875.24 682.802C887.483 688.035 899.777 691.38 912.734 694.225C917.014 695.164 922.51 696.889 925.508 692.743C927.78 689.601 928.122 684.757 928.774 681.062C931.272 666.923 931.469 652.558 933.716 638.397C942.245 640.972 950.323 644.14 959.322 644.548C964.978 644.805 968.416 645.389 969.825 651.567C966.553 651.936 954.861 652.098 954.545 656.735C954.259 660.917 961.334 660.961 963.842 661.075C968.332 661.279 972.4 660.543 974.796 664.939C971.266 666.243 963.44 663.866 961.877 668.615C959.862 674.742 969.009 674.727 972.3 675.22C978.042 676.081 977.452 680.592 977.059 685.414C976.541 691.758 976.149 698.111 975.293 704.423C973.462 717.911 970.328 731.194 968.844 744.732C967.561 756.437 966.841 767.679 975.204 777.007C978.567 780.758 983.241 785.075 988.526 785.521C993.889 785.973 993.791 782.216 997.129 779.45C999.175 777.756 1001.88 777.41 1004.29 776.495C1007.23 775.384 1010.07 773.757 1012.7 772.07C1017.56 768.962 1021.8 765.104 1025.23 760.467C1038.66 742.323 1043.45 715.217 1044.78 693.219C1045.63 679.23 1044.79 665.223 1043.5 651.289C1042.81 643.784 1042.12 636.276 1041.21 628.794C1040.93 626.476 1040.46 624.154 1040.28 621.829C1040.18 620.498 1040.82 617.807 1040.14 616.531C1041.01 618.159 1042.55 616.955 1044.08 615.673C1047.23 613.026 1046.26 607.943 1044.57 604.464C1039.49 593.975 1024.28 593.566 1014.38 592.751C987.771 590.558 962.493 583.421 937.02 575.798C940.615 570.413 934.96 566.857 930.578 565.007C923.819 562.153 916.839 559.644 910.017 556.919C894.611 550.763 879.525 545.025 863.392 541.097C848.779 537.541 834.64 531.636 820.223 527.308C805.327 522.835 790.7 517.723 776.048 512.514C747.029 502.197 717.984 491.655 689.823 479.14C682.704 475.976 675.904 472.308 669.035 468.648C663.454 465.676 656.904 463.496 652.173 459.202C647.655 455.102 644.95 449.4 640.039 445.677C635.617 442.323 629.567 442.277 625.904 438.112C620.95 432.48 615.034 430.006 608.309 426.703C606.148 425.642 591.925 420.283 592.214 417.241C602.379 417.241 612.813 420.266 622.865 421.675C633.497 423.165 644.12 424.822 654.83 425.646C672.184 426.98 689.529 426.619 706.81 424.738C709.392 424.457 719.751 422.329 721.537 425.1C722.898 427.211 719.515 429.725 719.481 431.993C719.431 435.322 722.113 437.108 725.15 435.952C731.064 433.702 730.197 424.169 729.645 419.332C728.588 410.078 726.236 400.909 724.181 391.843C736.381 398.055 747.966 406.03 758.471 414.796C766.609 421.584 773.957 430.79 783.507 435.63C792.675 440.278 798.127 436.312 797.751 426.079C797.579 421.391 796.629 416.941 795.006 412.575C794.239 410.511 791.089 404.672 792.565 402.474C800.945 409.158 809.269 415.86 818.065 421.997C824.284 426.335 833.299 433.1 841.418 431.379C848.588 429.858 847.886 421.965 845.613 416.648C843.642 412.035 840.1 407.937 836.589 404.414C833.686 401.503 829.558 398.893 828.105 394.857C837.735 399.187 847.651 402.463 857.74 405.506C864.914 407.669 869.93 416.655 878.273 415.327C886.624 413.998 883.298 403.673 879.965 399.184C877.632 396.043 874.405 393.277 871.275 390.956C868.222 388.692 863.579 386.719 862.077 382.951C871.833 384.783 881.643 387.968 891.682 387.381C897.644 387.031 907.596 384.427 906.419 376.41C905.228 368.291 894.421 367.669 888.345 366.155C880.06 364.09 872.131 360.213 864.136 357.256C848.008 351.29 831.567 346.505 815.065 341.75L809.853 340.248C791.227 334.878 772.496 330.304 753.639 325.843C744.319 323.637 735.031 321.232 725.637 319.351C716.55 317.531 707.316 316.476 698.297 314.301C705.898 302.824 696.694 293.392 686.756 287.93C693.059 286.655 699.469 285.888 705.718 284.342C711.055 283.023 716.198 280.995 721.574 279.828C730.813 277.821 740.041 276.766 747.928 271.042C762.833 260.226 764.1 243.013 751.542 229.989C738.867 216.843 720.265 210.688 702.362 210.077C682.323 209.393 659.524 213.278 640.773 220.376C631.563 223.863 621.972 228.296 614.076 234.234C608.705 238.273 600.212 246.013 593.003 246.013C601.637 235.567 612.233 224.765 613.792 210.617C615.269 197.223 609.196 182.987 599.004 174.323C578.642 157.017 545.04 158.584 520.076 159.724ZM636.165 733.796C641.48 742.065 648.83 748.779 655.77 755.642C658.164 758.009 662.968 761.021 663.2 764.729C663.387 767.756 659.675 771.161 658.053 773.54C649.48 786.121 642.42 800.017 631.948 811.191C620.111 823.819 606.602 826.273 589.84 826.309C571.229 826.35 552.37 828.68 533.792 827.697C518.054 826.866 502.542 819.856 494.716 805.605C499.814 802.976 507.069 804.229 512.594 804.288C520.128 804.367 527.483 804.231 534.926 802.921C541.672 801.733 548.339 799.951 554.684 797.348C557.967 796.001 561.215 794.461 564.238 792.59C566.452 791.221 568.116 789.123 570.291 787.78C578.311 782.825 587.573 798.578 596.146 798.275C601.397 798.091 599.497 792.924 597.311 790.034C593.367 784.814 586.487 781.593 581.292 777.788C586.129 773.334 591.593 778.005 596.198 780.332C601.955 783.242 607.936 786.813 614.369 787.906C613.887 779.613 602.61 775.168 596.389 771.794C593.621 770.293 590.151 768.901 589.47 765.599C588.957 763.116 589.835 759.585 590.095 757.078C590.424 753.89 590.668 752.872 594.061 751.973C598.175 750.883 602.319 751.198 606.441 749.837C617.721 746.111 626.496 740.579 636.165 733.796ZM1002.78 603.106C1005.53 603.87 1008.31 604.531 1011.11 605.122C1016.65 606.291 1022.2 607.505 1027.75 608.565C1030.54 609.097 1033.63 608.76 1034.46 611.421C1034.88 612.785 1033.82 615.237 1033.63 616.654C1033.31 619.209 1033.28 621.8 1033.25 624.374C1032.96 648.087 1037.92 671.662 1035.74 695.372C1033.89 715.411 1029.58 740.75 1014.87 755.674C1008.52 762.115 1000.7 769.111 992.706 773.513C986.438 776.962 977.681 768.304 976.4 762.309C975.483 758.014 977.013 753.48 978.009 749.339C979.287 744.033 980.581 738.73 981.845 733.421C984.546 722.089 987.002 710.651 987.778 699.002C988.033 695.175 987.978 691.488 987.762 687.678C987.645 685.609 986.671 680.622 988.118 678.85C989.99 676.558 994.265 678.056 996.796 678.251C999.572 678.467 1002.28 678.301 1004.99 677.592C1011.45 675.904 1012.58 670.772 1005.53 668.394C1000.61 666.735 991.615 669.139 987.481 665.945C982.624 662.192 992.441 661.677 994.733 661.579C997.786 661.45 1007.91 662.249 1007.39 656.556C1007.01 652.337 998.296 652.056 995.246 651.877C988.731 651.494 980.488 653.935 977.672 646.077C976.543 642.929 983.339 641.33 985.043 639.769C989.187 635.975 990.546 629.47 990.901 624.14C991.252 618.899 986.095 600.732 993.952 600.251C996.365 600.104 1000.37 602.44 1002.78 603.106ZM616.363 707.954C620.987 713.462 624.983 719.495 629.29 725.252C619.189 730.828 608.858 735.312 598.413 740.106C593.664 742.287 590.335 744.016 585.738 740.71C582.44 738.338 579.968 734.968 576.75 732.501C572.125 728.959 567.291 725.711 562.55 722.334C576.54 717.228 590.744 712.746 604.73 707.629C609.961 705.715 612.586 703.454 616.363 707.954ZM731.559 690.459C728.568 693.494 734.328 701.902 735.462 704.779C726.185 704.043 716.986 702.58 707.877 700.697C704.774 700.057 705.918 703.834 707.079 705.08C708.514 706.623 711.385 707.089 713.304 707.639C720.365 709.663 727.607 710.638 734.853 711.718C731.537 715.8 723.558 722.185 726.128 728.323C730.762 724.328 734.093 719.012 739.219 715.558C740.7 717.769 743.772 725.565 747.139 725.088C752.425 724.338 747.07 715.227 745.965 713.033C749.524 713.033 762.9 716.158 764.766 711.775C766.675 707.291 753.768 707.435 751.382 706.376L751.827 705.833L752.273 705.294C754.058 703.143 755.771 701.022 756.013 698.067C752.021 699.443 749.356 705.699 744.97 705.789C740.81 705.876 738.954 699.624 737.472 696.663C736.63 694.98 733.768 688.218 731.559 690.459ZM281.479 631.489C272.535 639.035 278.61 654.255 285.378 661.098C292.96 668.763 309.84 675.805 319.45 667.991C324.711 663.714 322.813 657.19 321.516 651.501C320.077 645.179 319.181 639.85 313.947 635.511C305.804 628.762 290.552 623.834 281.479 631.489ZM299.633 635.874C308.358 637.73 317.199 646.451 319.273 655.439C321.993 667.224 309.762 668.086 301.705 666.314C291.569 664.086 280.801 656.651 280.284 644.989C279.838 634.924 292.853 634.432 299.633 635.874ZM934.543 584.919C947.608 589.783 959.89 596.44 973.598 599.326C977.782 600.207 979.5 601.171 980.534 605.069C981.983 610.526 983.356 616.056 982.322 621.757C980.174 633.594 963.708 632.143 954.564 631.679C949.87 631.44 940.841 632.299 936.769 629.369C933.793 627.229 935.042 623.216 935.505 620.092C937.239 608.413 935.348 596.591 934.543 584.919ZM222.18 472.123C226.991 473.03 235.307 476.952 228.411 481.869C223.809 485.148 216.961 485.547 211.556 486.357C200.996 487.939 189.725 489.306 180.562 495.265C163.583 506.306 165.663 527.141 170.741 544.192C167.084 546.347 156.34 532.258 154.315 529.967C146.106 520.672 137.863 511.406 129.587 502.17C126.044 498.22 155.084 484.577 157.693 483.348C171.489 476.856 184.365 472.581 199.839 471.467C207.177 470.938 214.918 470.754 222.18 472.123ZM282.074 437.563C283.393 440.888 281.083 442.395 278.962 444.692C267.099 457.529 258.746 475.699 252.141 491.636C248.848 499.583 246.541 507.596 244.501 515.922C242.5 524.091 236.144 526.275 228.529 528.594C210.987 533.936 192.521 535.724 174.918 541C170.201 542.414 169.276 532.041 168.98 529.409C168.137 521.925 168.92 514.113 172.852 507.515C180.285 495.043 195.184 492.392 208.475 490.267C216.076 489.053 226.091 487.798 232.106 482.6C235.125 479.991 235.552 476.997 233.198 473.756C228.904 467.843 221.345 467.084 214.592 466.602C211.302 466.367 190.935 468.426 190.269 466.015C200.41 462.71 210.819 460.529 220.812 456.749C228.607 453.799 236.464 451.014 244.33 448.253L252.196 445.495C260.196 442.689 267.519 439.275 275.195 435.896C278.078 434.628 280.723 434.157 282.074 437.563ZM110.054 491.653C112.593 495.07 115.113 497.939 117.017 501.778C119.239 506.256 122.924 509.113 126.005 512.958C110.004 515.783 94.7412 519.37 79.3255 524.544C71.4104 527.201 63.2344 528.513 55.1384 530.416C48.3468 532.012 41.1092 534.487 34.0767 533.023C42.0864 521.981 63.4491 525.034 69.073 511.661C72.9001 502.564 63.4954 495.307 55.8033 493.728C42.3706 490.971 28.051 490.758 14.4072 489.776C14.2637 484.554 63.7909 481.85 68.6879 481.427C77.3836 480.674 86.4579 479.043 95.1368 478.742C103.192 478.462 105.825 485.965 110.054 491.653ZM299.046 453.46C303.817 458.073 308.487 462.787 313.253 467.406C316.386 470.443 320.631 473.677 323.101 477.295C326.254 481.915 320.731 484.135 317.05 486.322C307.76 491.841 298.159 496.993 288.706 502.244C280.213 506.961 271.381 512.965 262.006 515.724C256.993 517.199 252.285 519.49 247.45 521.427C249.783 500.483 261.803 481.46 272.889 464C275.434 459.991 278.063 456.037 280.609 452.029C281.891 450.011 284.271 445.248 286.96 444.837C290.933 444.228 296.637 451.13 299.046 453.46ZM55.9829 506.765C50.1717 510.096 44.3466 511.788 37.7922 509.272C36.1808 508.614 34.5833 507.918 33.0069 507.185C37.374 501.226 50.2913 504.858 55.9829 506.765ZM537.27 433.878C547.571 438.524 558.589 443.152 567.547 450.161C570.854 452.749 578.244 458.185 576.514 463.115C575.035 467.336 566.854 470.931 562.971 472.217C542.537 478.984 519.28 474.061 500.465 486.479C495.373 489.84 493.713 494.232 489.931 498.651C486.51 502.647 482.181 502.151 477.583 500.493C471.547 498.315 465.985 494.98 459.924 492.842C456.826 491.749 451.56 491.025 451.238 486.841C449.722 467.123 453.927 442.001 471.302 429.936C490.806 416.392 517.713 425.059 537.27 433.878ZM548.317 479.829C548.815 482.329 529.482 486.856 527.382 487.435C515.708 490.652 504.802 498.3 492.71 499.534C490.607 494.843 507.357 487.373 510.006 486.411C522.094 482.018 535.622 481.222 548.317 479.829ZM168.675 471.072C154.018 477.081 139.811 484.438 127.526 494.669C123.288 498.197 112.993 481.454 110.688 478.886C130.209 478.075 149.448 474.349 168.675 471.072ZM442.617 353.291C456.204 362.272 468.038 374.013 482.956 380.898C478.288 381.633 473.192 378.61 468.735 377.549C464.393 376.517 460.003 375.835 455.776 374.374C453.18 373.476 442.459 367.678 440.447 371.608C437.304 377.745 459.445 381.992 462.593 383.039C473.224 386.573 483.786 390.276 494.308 394.122C504.5 397.848 514.685 401.857 525.217 404.533C535.913 407.25 547.255 407.951 557.538 412.171C566.632 415.903 574.448 422.079 583.219 426.438C592.016 430.809 602.014 433.513 609.596 440.019C601.351 448.821 591.6 456.193 580.933 461.804C579.224 448.38 563.497 440.737 552.737 435.577C529.28 424.327 494.05 407.365 470.141 426.428C452.667 440.36 450.3 466.796 450.3 487.492C445.567 485.984 441.245 483.586 436.848 481.322C433.803 479.753 433.768 475.385 433.386 472.468C432.758 467.69 431.467 463.063 429.984 458.48C426.703 448.341 422.597 438.45 418.683 428.546C412.349 412.524 404.542 396.722 400.65 379.866C398.109 368.866 395.087 349.958 408.344 344.498C419.814 339.775 433.304 347.137 442.617 353.291ZM501.955 308.517C504.171 310.002 503.344 314.458 503.193 316.694C502.643 324.824 502.988 332.988 502.716 341.133C502.385 351.057 502.312 369.256 492.083 374.82C485.086 378.626 476.385 372.923 470.802 369.04C461.355 362.472 452.688 354.844 443.11 348.432C431.755 340.83 410.24 330.314 399.375 344.615C393.495 352.354 394.32 363.887 395.786 372.892C397.723 384.773 402.246 396.041 406.74 407.144C416.022 430.072 425.71 453.372 430.872 477.64C419.103 470.643 409.951 460.557 399.679 451.698C392.066 445.131 380.759 437.589 379.002 426.887C378.605 424.47 376.266 422.748 374.657 421.131C372.564 419.026 371.089 416.895 369.762 414.21C366.834 408.28 364.931 401.875 363.733 395.386C361.217 381.773 362.416 368.222 364.736 354.688C365.785 348.568 364.245 342.001 365.671 336.035C366.661 331.892 369.583 332.138 373.471 331.196C387.47 327.803 401.496 324.513 415.503 321.152C421.192 319.785 427.379 317.223 433.286 317.308C438.135 317.379 442.208 320.27 446.393 322.365C453.263 325.805 464.185 331.822 472.074 328.402C481.267 324.416 470.553 315.417 475.164 311.16C478.325 308.241 487.772 309.992 492.057 309.266C494.406 308.869 499.801 307.072 501.955 308.517ZM357.291 426.083C363.976 427.137 367.848 430.039 371.53 435.731C375.272 441.517 375.718 444.382 370.382 448.91C364.627 453.793 358.607 458.615 352.498 463.012C344.755 468.586 336.165 472.805 328.512 478.515C325.161 481.016 309.949 461.412 307.31 458.723C303.668 455.015 299.932 451.296 296.025 447.883C294.597 446.635 290.122 443.742 290.12 441.621C290.114 436.259 302.001 431.461 305.825 429.984C314.395 426.678 323.38 425.343 332.51 425.205C340.604 425.082 349.273 424.818 357.291 426.083ZM327.497 402.494C333.774 405.828 340.33 408.638 346.647 411.903C348.888 413.06 363.017 418.998 362.304 422.548C346.403 421.54 330.573 418.848 314.723 421.927C307.605 423.311 300.822 425.629 294.873 429.908C290.369 433.146 286.934 439.37 282.461 433.831C291.593 428.654 299.817 421.791 307.915 415.128C311.459 412.211 315.107 409.468 318.704 406.631C320.844 404.944 324.373 400.835 327.497 402.494ZM703.601 324.975C708.576 325.674 713.424 326.992 718.309 328.124C738.099 332.71 757.964 336.827 777.701 341.68C817.07 351.359 857.616 360.691 895.155 376.198C891.999 379.688 883.635 377.16 879.718 376.475C872.05 375.135 864.609 372.793 857.034 371.025C849.624 369.297 842.188 367.236 834.717 365.795C831.276 365.131 825.207 364.258 825.068 369.419C824.872 376.735 839.08 382.206 844.295 384.881C849.871 387.74 855.27 390.901 860.579 394.226C864.775 396.855 872.515 400.359 873.876 405.584C860.257 399.812 846.63 394.064 833.096 388.097C827.997 385.849 822.832 383.731 817.978 380.989C814.742 379.16 810.577 375.951 806.745 375.663C801.557 375.272 800.697 379.986 802.883 383.789C805.619 388.549 811.264 391.235 815.417 394.567C820.711 398.815 825.396 403.826 830.162 408.635C834.119 412.626 839.214 416.556 841.28 421.953C834.167 424.333 826.084 416.704 820.858 412.933C812.644 407.007 804.994 400.562 797.158 394.158C793.15 390.882 788.371 385.576 783.095 384.599C776.409 383.358 776.962 391.006 778.584 395.221C782.208 404.644 790.692 412.501 791.299 423.123C791.672 429.663 786.135 427.174 782.441 424.551C776.22 420.133 772.01 413.401 766.364 408.334C752.769 396.131 737.206 385.721 720.388 378.492C717.378 377.198 716.295 372.554 715.38 369.762C714.015 365.596 712.443 361.556 710.802 357.484C707.205 348.564 704.256 338.923 699.217 330.683C697.812 328.385 694.186 326.043 697.185 324.691C698.815 323.958 701.918 324.738 703.601 324.975ZM560.034 309.886C565.128 310.481 570.284 310.427 575.388 310.965C583.718 311.844 580.084 321.981 581.426 328.089C585.378 346.071 604.429 349.467 618.865 340.984C626.987 336.21 631.863 329.368 636.23 321.365C638.72 316.803 640.575 316.068 645.727 317.21C649.261 317.995 652.478 317.828 656.074 318.089C660.6 318.417 660.995 319.377 661.087 323.686C661.168 327.512 661.719 330.163 664.265 333.263C669.118 339.167 677.256 343.054 684.189 346.021C691.134 348.994 699.001 351.204 702.815 358.23C704.738 361.773 706.798 366.002 707.355 370.03C707.963 374.429 706.471 377.159 709.036 381.217C714.367 389.654 716.81 398.875 719.505 408.463C720.384 411.587 720.731 412.872 717.323 413.731C712.433 414.964 705.487 413.093 700.469 412.896C696.889 412.756 694.798 406.441 693.634 403.882C691.372 398.906 688.598 394.195 685.82 389.486C679.524 378.818 672.792 368.221 664.568 358.901C658.361 351.866 649.197 343.109 641.249 352.994C633.503 362.628 627.92 373.911 618.604 382.309C610.411 389.695 601.968 389.813 593.471 382.813C585.105 375.921 578.747 366.519 573.547 357.137C567.924 346.993 563.683 336.162 558.203 325.956C556.485 322.757 548.552 314.103 550.969 310.397C552.601 307.894 557.743 309.619 560.034 309.886ZM517.37 307.673C521.854 307.885 526.366 307.381 530.851 307.292C538.967 307.131 545.754 307.415 549.83 315.196C553.428 322.062 556.492 329.367 559.775 336.398C566.908 351.673 573.905 367.302 584.856 380.3C594.557 391.815 607.09 397.616 619.711 386.616C625.306 381.738 629.557 375.445 633.573 369.26C636.792 364.302 640.465 355.575 645.859 352.684C651.872 349.461 658.756 356.854 662.432 360.866C668.612 367.61 673.777 375.541 678.739 383.2C682.336 388.754 685.782 394.426 689.278 400.046C690.695 402.325 696.47 409.779 694.548 412.618C692.621 415.464 683.215 413.518 680.493 413.258C673.995 412.638 667.506 412.414 661.004 411.854C640.782 410.114 620.86 405.669 600.586 404.482C587.231 403.7 574.072 401.117 560.926 398.771C548.144 396.49 535.279 394.933 522.633 391.918C515.198 390.145 507.748 388.37 500.328 386.531C497.76 385.895 485.623 384.16 484.869 380.822C493.226 379.362 497.614 376.119 500.577 367.962C504.288 357.746 504.72 346.361 505.036 335.597C505.158 331.456 505.178 327.313 505.18 323.171L505.181 318.2C505.182 315.229 503.899 309.838 506.575 307.778C509.053 305.871 514.5 307.536 517.37 307.673ZM351.466 373.645C351.116 387.106 353.521 400.674 359.048 412.972C353.267 413.899 346.39 406.642 341.54 404.212C339.672 403.274 327.302 398.777 331.444 395.339C339.064 389.016 344.06 380.182 351.466 373.645ZM185.675 384.592C183.979 387.939 186.074 392.188 187.208 395.363C178.386 397.484 169.6 399.567 160.711 401.367C154.012 402.724 156.349 406.744 162.164 406.467C170.251 406.081 177.775 402.654 185.823 402.209C193.488 401.784 194.39 408.48 200.926 409.77C200.704 406.085 197.725 403.527 195.586 400.764C199.113 398.953 202.716 397.27 206.137 395.275C207.909 394.242 212.805 389.909 210.92 387.607C209.017 385.284 204.027 389.638 202.252 390.597C199.727 391.961 194.689 394.966 191.72 394.104C187.652 392.923 188.499 387.081 185.675 384.592ZM312.79 296.883C316.369 297.131 320.262 295.926 323.652 297.502C327.032 299.074 331.066 302.514 333.892 304.9C336.629 307.21 337.99 310.015 341.393 311.378C344.791 312.741 348.273 312.621 349.583 316.778C346.5 317.624 340.447 316.502 338.032 318.77C334.52 322.069 340.648 325.7 343.191 326.739C346.838 328.228 349.82 327.744 353.548 327.465C355.17 327.345 355.155 326.845 356.484 327.649C361.413 330.629 358.003 341.232 356.404 345.099C348.582 364.03 321.856 357.655 306.443 355.717C311.348 350.773 319.38 345.321 319.785 337.557C319.906 335.245 319.333 331.113 316.366 330.92C313.994 330.767 311.147 334.352 309.67 335.765C305.291 339.953 299.625 346.898 293.292 347.499C284.826 348.303 278.313 334.585 274.802 328.602C279.117 327.791 283.845 327.838 286.353 323.603C289.335 318.569 289.387 310.856 289.335 305.188C289.29 300.362 287.753 295.083 294.201 294.846C300.141 294.628 306.793 296.467 312.79 296.883ZM881.252 309.26C882.486 311.952 887.845 313.007 890.199 313.727C899.149 316.462 907.889 319.937 916.616 323.344C934.233 330.224 951.658 337.823 967.745 347.934C970.751 349.825 969.279 346.178 968.498 344.863C966.747 341.915 963.069 339.829 960.321 338.024C952.887 333.135 945.013 329.701 936.793 326.432C920.344 319.89 903.645 312.953 886.776 307.654C884.819 307.039 879.595 305.643 881.252 309.26ZM676.93 322.59C680.201 322.928 684.031 322.185 687.176 323.252C691.275 324.644 690.599 327.459 691.812 330.92C693.869 336.796 696.071 342.622 698.218 348.467C690.271 348.096 682.66 341.803 675.926 338.18C672.113 336.13 658.859 329.323 662.855 323.092C665.386 319.148 673.299 322.213 676.93 322.59ZM586.491 312.347C591.412 312.258 596.822 313.748 601.803 313.995C608.48 314.328 615.056 315.598 621.725 315.905C626.112 316.108 630.42 317.01 634.76 317.601C630.442 327.611 622.013 336.366 611.421 339.992C603.065 342.853 591.371 343.338 585.662 335.423C582.378 330.87 577.012 312.518 586.491 312.347ZM330.263 271C335.628 274.566 339.929 279.676 344.411 284.235C355.638 295.654 367.256 307.879 372.117 323.532C372.784 325.676 367.722 327.571 366.352 327.654C363.457 327.829 362.868 326.368 361.731 323.921C358.918 317.861 357.84 311.091 353.34 305.924C347.855 299.623 341.252 293.481 334.886 288.069C330.56 284.391 319.959 279.213 318.716 273.133C317.246 265.945 327.014 268.841 330.263 271ZM468.671 312.594C471.705 313.477 471.947 316.286 472.64 319.312C475.43 331.472 447.221 318.205 443.293 316.217C444.599 312.313 457.456 313.025 460.433 312.872C462.751 312.754 466.43 311.941 468.671 312.594ZM302.043 318.91C306.223 319.071 304.296 301.989 299.544 303.707C295.469 305.181 299.364 318.805 302.043 318.91ZM889.685 299.269C896.085 304.796 906.134 305.537 914.092 307.312C925.819 309.926 937.443 313.258 949.074 316.265C956.419 318.163 952.284 313.636 948.607 311.935C942.284 309.01 935.125 307.451 928.367 305.841C921.05 304.099 913.573 302.935 906.298 301.035C901.261 299.718 894.764 296.35 889.685 299.269ZM690.56 180.471C683.447 181.778 676.347 184.054 670.111 187.782C664.949 190.868 665.154 195.67 671.698 192.884C702.224 179.884 740.102 187.759 769.91 199.27C773.199 200.539 772.954 197.77 771.96 195.635C770.592 192.694 767.667 190.987 764.859 189.621C756.423 185.517 746.697 183.196 737.524 181.49C722.236 178.649 705.92 177.65 690.56 180.471ZM686.099 161.799C682.221 162.852 677.765 165.463 675.392 168.775C672.616 172.65 674.824 174.631 678.676 172.352C682.976 169.808 686.908 167.272 691.843 165.928C694.448 165.219 694.343 163.585 692.471 162.15C690.72 160.806 688.001 161.283 686.099 161.799Z" fill="black"/>
</svg>
