<svg width="382" height="236" viewBox="0 0 382 236" fill="none" xmlns="http://www.w3.org/2000/svg">
<path fill-rule="evenodd" clip-rule="evenodd" d="M100.182 190.128C101.992 192.214 104.663 193.762 106.713 195.67C108.866 197.673 111.202 199.423 113.346 201.402C122.805 189.878 135.762 182.812 146.986 173.249C152.307 168.715 156.228 162.565 159.097 156.254C160.568 153.019 161.655 149.688 162.505 146.242C162.888 144.689 163.262 143.142 163.513 141.568C163.816 139.662 163.894 139.5 165.184 138.012C165.739 137.372 166.815 135.502 167.902 135.708C168.818 135.882 170.491 138.659 171.07 139.345C173.851 142.644 176.548 146.044 179.476 149.216C183.956 154.069 188.035 158.844 192.195 163.988C200.704 174.512 209.883 184.418 219.145 194.32C219.832 195.054 221.434 197.208 222.421 197.497C223.621 197.849 225.571 196.381 226.78 195.561C229.697 193.582 231.996 191.131 234.49 188.677C239.356 183.889 242.651 177.168 244.868 170.772C246.195 166.944 247.058 162.976 248.427 159.161C248.998 157.571 250.292 155.617 249.635 154.232C249.439 153.819 248.194 152.723 247.755 152.639C247.236 152.539 246.371 153.249 246.191 153.2C244.468 152.73 245.424 150.933 244.399 149.965C243.818 149.417 240.864 149.497 239.982 149.196C236.758 148.093 233.864 145.989 230.816 144.733C218.053 139.477 205.135 134.364 194.117 125.78C191.26 123.555 189.361 121.882 185.952 120.443C182.506 118.99 179.043 117.693 175.527 116.424C172.425 115.305 169.307 114.255 166.102 113.453C162.638 112.586 157.722 111.486 154.261 112.603C147.462 114.797 145.267 120.381 142.559 126.272C138.896 134.242 134.467 141.784 129.666 149.12C120.429 163.235 109.196 175.9 100.182 190.128Z" fill="#85A090"/>
<path fill-rule="evenodd" clip-rule="evenodd" d="M304.927 65.3502C305.301 65.161 308.222 66.3461 308.712 66.5274C310.671 67.2517 312.515 68.4552 314.36 69.4342C312.946 71.1496 311.532 72.8654 310.118 74.5812C308.733 71.1924 306.951 68.3961 304.927 65.3502ZM303.963 86.4352C304.444 86.4891 300.383 96.2188 299.908 97.3112C298.183 101.285 296.37 105.219 294.622 109.183C292.927 113.024 290.778 116.557 288.613 120.145C286.76 123.214 284.855 127.976 282.062 130.249C283.826 122.447 283.593 113.477 288.653 106.926C293.898 100.135 299.083 93.5043 303.963 86.4352ZM100.183 190.476C108.021 178.104 117.832 167.159 126.004 155.007C130.581 148.203 135.035 141.312 138.887 134.07C141.689 128.801 143.43 121.285 147.758 117.257C149.665 115.482 151.702 113.746 154.261 112.951C157.763 111.863 162.585 112.941 166.103 113.801C172.659 115.403 179.063 117.892 185.273 120.505C191.572 123.156 196.945 127.917 202.636 131.742C208.741 135.846 215.349 138.836 222.189 141.453C228.144 143.732 233.442 147.003 239.366 149.297C240.547 149.754 242.955 149.687 243.946 150.283C245.013 150.925 244.592 152.82 245.888 153.519C246.472 153.834 246.667 152.691 247.116 152.709C247.664 152.732 248.165 153.374 248.693 153.781C250.846 155.437 249.527 156.541 248.675 158.819C245.896 166.243 244.403 173.796 240.502 180.804C237.294 186.565 232.703 191.727 227.298 195.541C226.476 196.122 223.796 198.37 222.831 198.221C221.962 198.086 220.195 195.784 219.595 195.159C216.873 192.321 214.385 189.269 211.665 186.427C207.462 182.035 203.415 177.526 199.336 173.074C194.601 167.906 190.41 162.05 186.145 156.528C184.183 153.988 181.658 151.919 179.477 149.563C176.545 146.396 173.852 142.991 171.07 139.693C170.229 138.694 168.819 136.141 167.512 136.171C166.595 136.192 164.979 138.343 164.5 139.017C162.718 141.523 162.726 146.048 161.84 149.175C159.678 156.802 155.78 164.251 150.433 170.136C145.116 175.989 138.305 180.15 132.016 184.855C125.204 189.951 118.75 195.167 113.347 201.75C111.203 199.771 108.867 198.02 106.714 196.017C104.664 194.11 101.992 192.562 100.183 190.476ZM201.069 225.479C199.545 225.494 196.965 226.429 195.602 225.866C199.645 221.406 203.358 217.58 208.473 214.312C213.782 210.92 219.072 207.559 224.228 203.941C234.619 196.651 242.261 188.005 246.602 175.864C247.719 172.737 248.468 169.458 249.287 166.244C249.728 164.513 250.605 156.415 252.094 155.716C252.977 155.302 259.618 159.955 260.67 160.534C263.13 161.891 265.6 162.943 268.143 164.004C273.61 166.286 279.246 168.027 285.044 169.48C291.994 171.222 296.729 168.339 301.035 162.893C305.92 156.714 309.979 149.743 314.446 143.254C316.477 140.303 318.16 137.357 319.66 134.102C320.642 131.972 324.535 126.226 323.19 123.956C319.351 126.87 317.97 132.662 315.356 136.563C312.097 141.424 308.424 146.008 305.148 150.865C302.394 154.949 299.584 159.898 295.514 162.834C291.934 165.417 288.534 164.623 284.681 163.462C280.012 162.056 275.172 161.363 270.596 159.618C265.644 157.731 260.959 155.053 256.128 152.87C253.876 151.851 251.179 151.273 249.056 150.003C247.227 148.91 247.5 148.333 247.365 146.004C247.208 143.288 247.028 140.57 246.907 137.851C246.826 136.024 247.817 133.547 247.145 132.184C252.63 133.131 257.991 134.401 263.437 135.524C266.42 136.139 269.295 136.9 272.308 137.383C273.456 137.567 275.026 137.562 276.054 138.06C276.874 137.826 277.292 137.975 277.308 138.508C277.348 138.798 277.41 139.083 277.495 139.364C279.177 140.126 280.155 138.49 281.614 136.921C283.414 134.985 284.762 132.804 286.082 130.528C289.035 125.44 292.439 120.655 295.171 115.424C297.956 110.091 300.218 104.382 302.579 98.8489C304.745 93.7731 306.133 88.2835 308.526 83.3278C309.594 81.1157 310.948 79.2865 312.529 77.4178C313.834 75.8757 315.841 72.5492 317.789 71.8408C318.304 71.6535 319.653 71.9682 320.239 71.9267C321.405 71.8436 322.444 71.4168 323.638 71.5102C326.222 71.7118 329.04 73.341 331.105 74.7733C329.77 75.9592 326.432 77.4006 328.83 79.5369C331.157 81.6108 332.443 77.8906 333.331 76.2606C337.512 79.6838 336.908 84.4039 337.391 89.2406C337.643 91.7658 338.307 94.2526 338.735 96.7398C339.044 98.5299 338.827 100.381 338.915 102.209C339.14 106.853 339.608 111.299 339.586 115.878C339.561 120.772 339.227 125.499 338.834 130.358C338.173 138.539 336.657 146.723 335.358 154.839C334.627 159.4 333.627 163.833 332.655 168.321C331.553 173.415 329.514 178.239 328.37 183.32C327.205 181.843 326.329 181.836 324.444 182.032C322.994 182.182 322.021 181.839 322.106 183.844C322.16 185.145 323.312 186.139 324.585 186.366C326.246 186.662 326.811 185.836 327.667 184.581C327.867 186.956 326.265 189.44 325.631 191.759C325.032 193.957 324.634 196.112 323.626 198.216C322.643 200.268 321.801 202.293 320.806 204.326C320.348 205.261 319.919 206.211 319.456 207.143C319.222 207.616 318.946 208.267 318.596 208.665C317.776 209.598 317.906 209.146 316.946 209.677C314.854 210.836 315.64 210.547 315.591 212.939C315.543 215.298 314.33 217.032 312.384 218.358C308.254 221.172 304.182 221.954 299.487 223.376C295.113 224.701 290.506 225.838 285.874 225.812C280.202 225.781 274.605 225.039 268.932 224.964C262.674 224.881 256.356 224.915 250.11 225.131C247.538 225.22 245.148 225.334 242.665 225.989C239.78 226.75 236.99 226.448 234.017 226.332C227.675 226.086 221.114 225.597 214.855 225.553C210.348 225.521 205.592 225.208 201.069 225.479ZM36.6088 227.93C35.4812 228.523 32.9537 228.28 31.8202 228.115C29.8235 227.825 29.6096 227.036 28.3426 225.261C26.162 222.204 24.3917 219.277 23.1087 215.736C20.6534 208.96 19.6508 202.027 18.5729 194.938C17.3748 187.062 19.5627 178.897 20.3453 171.074C20.5251 169.28 20.7711 167.501 21.0555 165.72C21.2257 164.655 21.2702 161.032 21.9731 160.11C23.3238 158.339 29.6044 159.767 32.0738 159.928C38.9664 160.377 45.9042 160.482 52.7936 160.56C56.4671 160.601 60.1609 160.755 63.7979 160.783C65.4682 160.796 67.1012 160.713 68.7775 160.551C69.3383 160.497 69.8858 160.369 70.4506 160.338C72.3844 160.231 72.239 159.952 72.7389 161.659C73.6145 164.649 72.9408 168.454 73.1707 171.558C73.4783 175.706 73.6445 179.913 73.5684 184.07C73.4979 187.911 73.6293 191.743 73.4855 195.593C73.4254 197.187 73.2508 198.487 72.829 200.009C72.352 201.731 71.8272 205.753 70.6392 206.944C70.5042 207.079 69.4945 206.763 69.2265 207.101C68.8135 207.621 68.8893 208.722 68.6057 209.058C67.688 210.147 65.7914 210.233 64.4155 210.722C60.6404 212.064 57.1772 213.521 53.6192 215.331C50.44 216.948 45.3142 218.324 43.4028 221.513C42.5264 222.976 42.4083 224.904 41.6024 226.412C40.6847 228.131 42.5208 227.232 40.2725 227.93C39.2599 228.243 37.6466 227.93 36.6088 227.93ZM371.769 208.493C372.055 212.461 374.297 216.241 375.078 220.143C375.443 221.97 376.063 223.767 376.492 225.583C376.904 227.325 378.392 229.389 378.241 231.113C372.75 229.163 367.189 228.673 361.45 228.147C356.011 227.648 350.265 227.45 344.872 227.447C339.376 227.444 333.5 226.909 327.841 226.826C321.923 226.74 315.915 226.587 310.083 225.975C313.133 223.723 316.949 221.609 319.2 218.476C321.649 215.07 322.92 210.803 325.074 207.21C329.397 199.998 332.145 191.049 334.411 182.947C338.985 166.591 344.098 150.537 345.33 133.571C347.675 134.769 349.536 139.413 350.71 141.726C352.208 144.678 352.993 147.879 353.967 151.018C355.973 157.482 357.361 164.184 359.818 170.587C364.512 182.826 367.529 196.015 371.769 208.493ZM73.7166 113.165C72.7013 120.48 70.5719 127.89 70.4902 135.294C70.4722 136.922 70.749 138.731 70.4085 140.337C70.0448 142.052 68.862 143.568 68.1791 145.197C67.0952 147.784 64.3503 153.086 66.9975 155.277C67.0511 153.197 68.9605 150.556 69.9222 148.737C71.3718 145.997 73.2764 143.491 74.8478 140.819C78.1371 135.225 81.8229 129.751 86.0619 124.82C90.1907 120.016 94.9492 115.755 99.3276 111.181C100.643 109.807 111.196 96.5793 111.615 96.7642C108.342 109.348 102.778 120.296 95.1627 130.832C91.4292 135.997 86.9483 139.396 82.4033 143.772C78.6185 147.416 71.4852 151.312 72.7938 157.283C66.8773 156.716 60.9997 155.81 55.0295 155.81C56.0112 148.277 56.7631 140.863 58.5159 133.454C60.5058 125.042 61.8536 116.377 63.5375 107.89C65.2559 99.2251 68.1707 90.8366 69.9839 82.1882C71.7203 73.9068 73.2119 65.6401 74.4849 57.2664C75.5367 61.9063 75.1486 67.0025 75.5219 71.7366C75.9032 76.5733 75.8664 81.3209 75.7394 86.186C75.5043 95.2225 74.5382 104.15 73.7166 113.165ZM48.0792 70.0819C48.046 66.2139 47.2941 62.3982 47.0622 58.5394C46.9909 57.3555 45.8081 49.2781 46.9112 48.8564C47.8185 50.8282 48.0299 53.3513 48.8539 55.4201C49.677 57.4869 50.7781 59.4558 51.568 61.5369C53.2791 66.0454 53.8695 71.1468 54.0538 75.94C54.4708 86.7817 54.6862 97.5991 53.9552 108.441C53.642 113.088 53.4017 117.743 53.4874 122.399C53.5815 127.523 54.3686 131.97 53.4129 137.051C52.4668 142.083 51.8724 147.094 51.5572 152.2C51.3361 155.783 51.2472 155.529 47.8177 155.277C45.3419 155.095 42.8416 155.29 40.3623 155.177C41.5215 141.211 41.7109 127.216 43.5627 113.304C44.5075 106.206 44.5327 99.0063 45.7064 91.9351C46.2896 88.4225 47.2681 84.9805 47.8304 81.4639C48.4341 77.6881 48.1369 73.8868 48.0792 70.0819ZM298.865 61.293C292.263 61.8632 285.24 63.8309 278.473 62.5316C279.588 62.0812 282.507 61.4599 281.194 59.6822C279.858 57.8746 277.607 60.1673 276.275 59.9306C275.453 59.7844 273.638 56.3612 273.131 55.6525C271.982 54.0417 271.844 53.761 269.777 53.3481C267.775 52.9488 267.322 53.3813 267.068 51.3972C266.777 49.1156 267.569 46.5505 267.49 44.2174C267.322 39.1946 265.696 34.79 264.183 30.0643C270.611 31.4582 276.896 33.1113 283.468 34.0097C286.277 34.3939 290.648 35.2799 293.201 33.376C293.864 32.8809 293.758 32.2125 294.301 31.6387C295.212 30.676 296.902 29.6801 298.193 29.4058C306.143 27.7188 306.918 39.0161 302.935 43.2435C301.937 44.3028 300.549 44.8259 299.527 45.7966C298.163 47.0911 298.051 48.4547 297.852 50.4309C297.479 54.1363 297.986 57.8562 299.572 61.2458L298.865 61.293ZM202.395 114.627C200.048 115.071 197.599 114.97 195.246 115.349C194.41 115.483 191.904 115.953 191.169 115.466C190.047 114.722 189.648 111.993 189.117 110.723C188.184 108.488 186.863 106.539 185.973 104.263C182.336 94.9682 178.945 85.6362 174.546 76.6587C176.232 76.2219 177.526 76.2047 179.226 75.9791C180.996 75.744 182.6 74.7006 184.289 74.2522C185.894 73.8261 187.575 73.9347 189.166 73.4392C190.042 73.1665 190.793 72.56 191.657 72.3479C193.034 72.0105 194.64 71.8133 195.459 72.7141C196.298 73.6381 196.593 76.1716 197.049 77.3651C198.265 80.5447 199.678 83.6133 200.697 86.866C201.616 89.7996 202.489 92.7021 203.298 95.6625C204.153 98.7878 205.838 101.364 206.864 104.349C207.644 106.622 208.381 108.945 208.498 111.368C208.611 113.732 208.956 113.883 206.585 114.26C205.387 114.451 203.522 115.16 202.395 114.627ZM47.9883 225.279C47.377 225.563 46.8007 225.525 46.2599 225.166C51.5592 222.934 56.7138 219.84 62.2422 218.309C67.428 216.873 72.4685 215.158 77.4645 213.39C81.5241 211.953 85.1739 210.835 88.8441 208.307C91.0719 206.772 93.0511 205.046 94.5819 202.803C96.2863 200.306 96.6656 196.752 98.5113 194.503C101.003 197.231 103.93 199.296 106.877 201.464C107.897 202.214 110.343 203.848 110.692 205.009C111.132 206.473 109.953 207.874 109.37 209.355C107.876 213.15 107.146 216.943 106.336 220.889C106.011 222.47 105.31 224.847 104.007 225.509C102.82 226.112 99.3845 225.674 97.9081 225.562C90.2056 224.98 82.6396 224.385 74.8907 224.915C66.1219 225.514 56.7342 225.928 47.9883 225.279ZM32.6037 154.958C31.2037 154.963 29.8363 154.788 28.4416 154.788C29.2467 151.041 27.3645 146.192 26.6972 142.451C25.9506 138.267 25.3822 133.94 24.8843 129.722C23.8349 120.838 23.3594 112.062 23.3458 103.113C23.333 94.4535 21.7516 86.5402 19.5366 78.2156C17.1582 69.2753 13.2632 61.2355 10.0428 52.6134C13.5753 54.475 15.5307 58.8309 17.3869 62.161C19.7333 66.3716 21.2962 71.0338 22.2543 75.7607C24.1028 84.8795 26.1304 94.0258 28.2633 103.129C30.4844 112.608 31.7901 122.174 34.3344 131.576C35.5753 136.161 37.2624 141.801 37.3561 146.529C37.395 148.485 37.9862 152.581 37.097 154.279C36.2654 155.869 34.4269 155.12 32.6037 154.958ZM243.913 143.197C243.986 144.17 244.056 145.096 244.23 146.058C242.291 146.04 239.835 144.034 238.172 143.133C236.146 142.037 234.117 140.827 232.136 139.724C228.311 137.595 223.968 136.192 219.884 134.444C215.192 132.434 210.879 130.007 206.392 127.588C204.825 126.743 193.56 121.875 193.749 120.546C196.222 120.463 198.695 120.381 201.169 120.3C203.289 120.229 206.573 120.707 208.603 120.054C209.715 119.695 210.963 118.377 211.383 117.345C211.798 116.324 210.865 111.626 211.408 111.327C214.175 114.144 215.916 117.888 218.39 120.927C221.125 124.286 224.658 126.247 228.553 128.032C232.854 130.003 237.305 131.53 241.7 133.219C243.554 133.932 243.517 134.339 243.678 136.365C243.859 138.63 243.839 140.927 243.913 143.197ZM20.4286 228.391C15.7667 228.89 10.9889 228.606 6.29053 228.995C4.58099 229.136 2.21094 229.347 3.93088 231.634C5.01398 233.075 8.48352 232.613 10.0573 232.712C14.2827 232.98 18.7563 232.836 22.9913 232.774C23.883 232.761 24.8683 232.497 25.7695 232.556C26.8098 232.625 28.0555 233.37 29.0035 233.365C29.588 233.361 29.7975 232.747 30.3013 232.69C31.3992 232.567 32.4967 232.478 33.6038 232.478C50.3427 232.482 66.8517 232.146 83.5489 232.128C91.533 232.12 99.6453 231.982 107.626 231.609C109.302 231.53 118.846 231.872 118.582 228.864C118.446 227.314 115.331 227.096 114.194 226.931C113.352 226.81 112.478 226.829 111.634 226.784C109.392 226.664 108.41 227.202 108.883 224.756C110.677 215.479 113.892 207.813 120.76 201.143C126.377 195.689 133.139 190.742 139.501 186.187C147.225 180.657 153.491 174.841 158.077 166.379C160.755 161.437 162.997 156.385 164.373 150.921C164.868 148.955 164.88 146.719 165.486 144.824C165.953 143.365 167.017 142.344 167.643 140.833C175.328 153.629 185.514 164.334 194.853 175.872C199.315 181.383 204.406 186.619 209.738 191.414C211.32 192.837 212.796 194.323 214.273 195.854C215.508 197.136 217.469 198.275 218.512 199.697C219.513 201.061 219.267 200.996 217.744 202.079C215.731 203.511 213.512 204.7 211.467 206.096C208.199 208.328 204.631 210.213 201.709 212.899C198.548 215.803 195.787 219.168 193.024 222.443C191.183 224.626 188.767 227.427 188.304 230.187C188.15 231.1 187.568 233.358 188.336 234.027C188.993 234.599 188.927 234.382 189.743 234.033C190.811 233.576 191.126 232.528 192.431 232.029C195.771 230.751 199.813 231.19 203.289 231.174C206.766 231.159 210.271 231.548 213.746 231.534C221.682 231.501 229.449 232.142 237.382 232.486C245.808 232.851 254.337 231.974 262.735 232.099C268.957 232.19 275.345 231.727 281.739 232.072C285.028 232.248 288.258 231.838 291.465 231.792C295.663 231.732 299.975 232.301 304.21 232.383C311.16 232.516 318.025 232.516 325.018 232.682C340.059 233.041 355.019 233.412 370.07 233.649C372.077 233.681 374.275 233.613 376.259 233.838C378.364 234.078 377.277 234.524 378.722 235.279C382.767 237.395 381.833 229.554 381.736 228.012C381.216 219.748 379.111 211.643 376.582 203.798C374.183 196.357 372.235 188.569 370.203 180.967C367.979 172.647 365.081 164.667 362.45 156.429C359.753 147.987 357.558 139.216 352.66 131.733C351.545 130.029 350.392 128.195 348.597 127.12C346.586 125.915 346.499 126.619 346.501 124.414C346.502 122.338 346.374 119.564 346.865 117.583C347.31 115.793 347.241 116.854 348.241 115.568C349.055 114.523 349.907 113.808 350.491 112.538C354.078 116.164 362.29 114.251 365.756 111.64C369.998 108.444 373.229 103.052 374.413 97.917C375.364 93.7934 374.197 85.9332 369.619 83.9503C367.387 82.9836 359.189 82.2529 358.861 79.1024C358.692 77.4761 361.578 75.1893 362.243 73.791C363.477 71.2003 364.662 67.7544 365.005 64.9146C365.674 59.3715 363.15 53.1732 359.129 49.429C351.752 42.5603 338.774 39.0353 329.285 43.3932C331.29 35.7575 332.501 29.1702 331.491 21.2274C330.621 14.3846 326.571 10.5562 320.998 7.14776C311.488 1.33079 298.556 -0.965178 287.683 0.726248C285.212 1.11077 282.84 1.93532 280.552 2.59137C277.229 3.54449 273.25 3.22705 270.111 4.77553C267.836 5.89796 266.108 8.13402 264.11 9.627C261.776 11.3699 259.838 13.9714 258.217 16.3771C254.75 21.5217 256.105 31.0697 259.006 36.2338C259.628 37.3415 260.397 38.2738 261.426 39.0297C262.498 39.8163 264.132 40.0611 264.684 41.0813C266.099 43.6947 264.734 49.3524 264.546 52.177C264.326 55.4568 265.989 57.9205 269.72 58.182C271.878 58.3338 271.947 57.0856 272.98 59.6538C273.65 61.3185 274.259 63.1321 275.225 64.6582C277.218 67.8035 280.868 67.4965 284.192 67.4114C288.041 67.3124 291.831 66.7062 295.682 66.3237C294.665 69.572 291.881 72.0932 290.143 74.9869C287.792 78.9008 286.378 82.1451 285.995 86.7051C285.702 90.2085 286.335 92.9753 288.74 95.5827C289.735 96.662 290.618 96.7151 290.371 97.9601C290.22 98.7196 288.903 99.9726 288.436 100.579C287.203 102.182 285.771 103.654 284.686 105.367C280.509 111.956 279.275 122.001 279.265 129.671C279.264 130.023 279.076 130.771 279.232 131.135C279.347 131.403 280.224 132.254 280.236 132.327C280.408 133.314 279.443 135.004 277.93 135.171C276.34 135.347 273.428 134.024 271.949 133.59C269.583 132.894 267.171 132.381 264.81 131.666C260.996 130.513 257.2 129.593 253.323 128.689C251.571 128.281 249.81 127.941 248.052 127.559C246.05 127.124 245.12 126.285 244.087 128.315C243.2 130.058 243.751 130.374 241.604 129.495C239.472 128.623 237.389 127.542 235.307 126.557C231.636 124.821 227.263 123.273 224.096 120.71C218.813 116.434 216.857 109.624 211.801 105.087C210.393 103.824 209.553 103.801 208.663 102.051C207.71 100.178 207.219 97.776 206.718 95.7612C205.84 92.233 205.216 88.6924 204.42 85.1674C203.429 80.7759 201.286 76.7989 199.723 72.6103C199.114 70.9783 198.798 68.904 197.815 67.4374C197.555 67.0484 197.058 66.8292 196.854 66.5074C196.156 65.4025 196.163 65.0991 195.982 63.7698C195.135 57.5587 191.415 60.8262 187.351 62.2505C185.639 62.8506 177.508 66.7426 180.613 69.3308C176.912 70.4013 170.984 69.8196 171.034 75.1071C171.06 77.8163 172.685 80.7144 173.557 83.2504C174.332 85.502 175.082 87.7624 175.869 90.0105C177.593 94.935 179.685 99.7122 181.368 104.652C182.135 106.903 182.768 109.207 183.835 111.332C184.777 113.206 187.057 115.272 187.433 117.322C177.571 113.127 168.446 107.062 157.407 107.449C152.573 107.618 148.186 109.644 145.517 113.881C142.17 119.191 139.968 125.137 136.696 130.497C124.796 149.994 110.602 167.707 97.5376 186.397C96.5342 187.834 95.2437 189.192 94.8956 190.967C94.6685 192.125 95.1091 193.283 94.8367 194.395C94.2715 196.707 91.416 199.594 89.4798 200.922C85.7683 203.469 79.7349 207.061 75.1033 206.743C78.0101 199.779 77.9713 192.149 77.8363 184.721C77.7077 177.665 76.9427 170.666 76.0346 163.683C75.8291 162.103 75.6501 160.638 75.1947 159.107C74.6719 157.35 73.9542 157.516 75.5199 155.937C77.9296 153.505 80.7959 151.504 83.2252 149.042C88.4792 143.718 93.8642 139.545 97.9994 133.187C101.932 127.14 106.081 120.917 108.992 114.295C111.989 107.478 113.187 100.197 114.675 92.9777C115.278 90.048 117.48 86.7774 117.037 83.7179C116.478 79.8515 114.68 82.667 113.948 84.7477C111.713 91.0994 106.482 96.7842 102.149 101.892C97.4671 107.411 91.7413 112.028 86.8546 117.386C81.5333 123.221 77.8883 129.927 73.1562 136.156C73.1562 128.426 75.8039 120.554 76.887 112.907C77.8399 106.176 78.1391 99.4235 78.7415 92.6634C80.1094 77.3072 78.9274 61.4986 77.0075 46.2522C76.0951 39.0113 76.6126 31.941 76.585 24.6753C76.5761 22.363 77.5363 17.0336 76.3126 14.9816C73.969 11.0513 72.6019 19.6454 72.4833 20.9267C71.7748 28.5597 73.0457 36.1076 72.3964 43.7079C71.7179 51.6447 70.2455 59.3588 68.9926 67.2038C67.6351 75.698 65.4253 84.0006 63.3096 92.332C61.0882 101.079 59.22 110.009 56.7502 118.687C56.0841 115.959 57.0186 112.608 57.2033 109.83C57.4668 105.855 57.9815 101.879 58.026 97.893C58.0973 91.5406 58.1469 85.0704 57.7865 78.7475C57.4312 72.5152 57.5385 65.9847 55.6211 59.9805C54.7111 57.1307 53.3765 54.3504 52.0707 51.6659C50.4597 48.3557 49.8901 45.1462 48.9981 41.6255C48.2338 38.6104 47.1155 35.6748 46.6064 32.5994C46.2899 30.6868 45.4068 25.0407 43.2102 29.3184C41.9348 31.8012 42.486 35.4819 42.4503 38.1493C42.4047 41.5688 42.9298 44.8938 43.0103 48.299C43.1669 54.9801 43.2794 61.6531 43.7793 68.323C44.3036 75.3207 43.8458 81.5921 42.5104 88.4872C41.0488 96.0347 40.621 103.599 39.8636 111.238C39.4731 115.183 38.8145 119.106 38.4965 123.056C38.3283 125.148 39.1911 131.147 37.6874 132.636C37.542 129.013 36.5006 125.387 35.7111 121.856C34.7758 117.673 34.3981 113.276 33.7088 109.034C32.5924 102.16 30.4263 95.5963 28.9931 88.7998C26.0391 74.7896 23.5845 56.7833 11.2044 47.613C9.58463 46.4131 7.80457 45.5275 6.05338 44.54C5.06204 43.981 3.58923 42.5347 2.45486 42.2824C1.21677 42.0069 0.70047 42.2209 0.198608 43.6528C-0.50116 45.6489 0.778595 46.5812 1.97342 48.0311C6.10828 53.0479 7.87469 59.4789 10.4278 65.3626C16.2742 78.8353 18.8609 93.0455 18.8905 107.609C18.9062 115.233 19.4337 122.586 20.2492 130.163C21.1268 138.318 22.2823 146.943 24.7678 154.788C22.2751 155.345 19.5707 154.514 18.8941 157.403C18.7279 158.112 19.0283 158.951 18.8445 159.875C18.6658 160.772 18.2361 161.665 17.9817 162.548C17.4562 164.374 17.1782 166.176 16.9226 168.051C15.9345 175.297 14.2378 182.19 14.0571 189.537C13.8909 196.329 15.2247 203.21 16.4536 209.871C17.6917 216.58 21.2425 222.299 24.038 228.366C22.8347 228.366 21.6319 228.379 20.4286 228.391Z" fill="black"/>
<path fill-rule="evenodd" clip-rule="evenodd" d="M178.649 212.968C179.975 213.342 186.375 214.047 186.374 216.049C186.373 217.25 179.981 217.226 178.85 217.357C178.783 215.894 178.716 214.431 178.649 212.968ZM164.521 226.783C160.833 227.482 155.827 226.499 153.469 223.258C152.367 221.743 151.844 219.44 151.486 217.632C151.143 215.909 150.086 211.611 150.805 209.996C151.688 208.013 160.163 210.086 162.63 210.313C166.936 210.709 171.388 210.756 175.696 210.476C175.696 214.911 175.924 219.233 173.307 223.05C171.42 225.804 167.875 226.454 164.521 226.783ZM165.263 232.261C169.27 230.799 173.478 231.749 176.087 227.46C176.749 226.372 177.307 225.202 177.707 223.993C177.903 223.464 178.055 222.922 178.164 222.366C177.96 221.171 178.399 220.834 179.481 221.355C181.605 220.943 183.935 222.396 186.172 221.968C191.599 220.929 190.613 213.18 186.971 210.497C186.252 209.967 185.533 209.82 184.71 209.558C182.894 208.981 181.912 209.625 180.252 209.462C178.91 209.329 178.541 207.927 177.099 207.309C176.155 206.905 174.844 206.936 173.852 206.895C168.657 206.683 163.447 206.685 158.219 206.347C155.781 206.19 153.149 206.575 150.76 206.159C149.642 205.965 149.802 205.223 148.743 205.874C147.647 206.548 148.121 209.04 148.176 210.034C148.496 215.781 148.839 221.944 151.927 226.969C154.753 231.566 160.313 232.036 165.263 232.261Z" fill="black"/>
<path fill-rule="evenodd" clip-rule="evenodd" d="M376.902 233.847C375.613 233.833 374.324 233.819 373.039 233.806C374.33 233.82 375.616 233.833 376.902 233.847Z" fill="black"/>
<path fill-rule="evenodd" clip-rule="evenodd" d="M18.8845 111.31C18.8869 110.075 18.8898 108.841 18.8926 107.608C18.8902 108.844 18.8873 110.077 18.8845 111.31Z" fill="black"/>
<path fill-rule="evenodd" clip-rule="evenodd" d="M346.867 116.381C346.871 117.584 346.875 118.786 346.879 119.986C346.875 118.783 346.871 117.582 346.867 116.381Z" fill="black"/>
<path fill-rule="evenodd" clip-rule="evenodd" d="M239.691 232.48C238.666 232.482 237.64 232.483 236.619 232.486C237.646 232.485 238.668 232.483 239.691 232.48Z" fill="black"/>
<path fill-rule="evenodd" clip-rule="evenodd" d="M301.971 232.235C300.945 232.239 299.919 232.242 298.899 232.246C299.926 232.243 300.948 232.239 301.971 232.235Z" fill="black"/>
<path fill-rule="evenodd" clip-rule="evenodd" d="M77.698 182.287C77.7431 183.099 77.7889 183.91 77.834 184.72C77.7885 183.908 77.7431 183.098 77.698 182.287Z" fill="black"/>
<path fill-rule="evenodd" clip-rule="evenodd" d="M20.4305 228.392C21.2232 228.383 22.0159 228.375 22.8086 228.367C22.0123 228.033 21.2196 228.048 20.4305 228.392Z" fill="black"/>
<path fill-rule="evenodd" clip-rule="evenodd" d="M90.8047 231.985C90.2351 231.977 89.6659 231.968 89.1019 231.958C89.6727 231.966 90.2387 231.976 90.8047 231.985Z" fill="black"/>
<path fill-rule="evenodd" clip-rule="evenodd" d="M19.1953 121.328C19.1812 120.714 19.1671 120.1 19.1531 119.488C19.1671 120.103 19.1812 120.715 19.1953 121.328Z" fill="black"/>
<path fill-rule="evenodd" clip-rule="evenodd" d="M72.3975 43.7072C72.4445 43.0743 72.4916 42.4418 72.5391 41.8105C72.4916 42.4438 72.4445 43.0755 72.3975 43.7072Z" fill="black"/>
<path fill-rule="evenodd" clip-rule="evenodd" d="M18.9121 113.727C18.9045 113.092 18.8968 112.458 18.8892 111.826C18.8968 112.461 18.9045 113.094 18.9121 113.727Z" fill="black"/>
<path fill-rule="evenodd" clip-rule="evenodd" d="M197.83 231.197C197.324 231.205 196.818 231.212 196.316 231.219C196.823 231.211 197.327 231.204 197.83 231.197Z" fill="black"/>
<path fill-rule="evenodd" clip-rule="evenodd" d="M67.5254 232.231C67.0308 232.241 66.5357 232.251 66.0455 232.262C66.5421 232.252 67.0336 232.242 67.5254 232.231Z" fill="black"/>
<path fill-rule="evenodd" clip-rule="evenodd" d="M14.114 187.627C14.1499 187.07 14.1857 186.514 14.2207 185.958C14.1849 186.515 14.1495 187.071 14.114 187.627Z" fill="black"/>
<path fill-rule="evenodd" clip-rule="evenodd" d="M22.9922 232.774C22.5893 232.772 22.1865 232.769 21.7885 232.769C22.1925 232.771 22.5926 232.773 22.9922 232.774Z" fill="black"/>
<path fill-rule="evenodd" clip-rule="evenodd" d="M77.834 232.258C77.4351 232.249 77.0363 232.239 76.6415 232.229C77.0419 232.24 77.4384 232.249 77.834 232.258Z" fill="black"/>
<path fill-rule="evenodd" clip-rule="evenodd" d="M167.436 231.955C166.996 231.953 166.557 231.95 166.122 231.947C166.563 231.95 166.999 231.953 167.436 231.955Z" fill="black"/>
<path fill-rule="evenodd" clip-rule="evenodd" d="M268.617 231.954C268.2 231.957 267.782 231.96 267.369 231.964C267.788 231.961 268.203 231.958 268.617 231.954Z" fill="black"/>
<path fill-rule="evenodd" clip-rule="evenodd" d="M293.227 232.019C292.801 231.996 292.376 231.972 291.954 231.948C292.381 231.972 292.804 231.996 293.227 232.019Z" fill="black"/>
<path fill-rule="evenodd" clip-rule="evenodd" d="M175.389 70.4577C176.021 70.403 176.654 70.3484 177.287 70.2933C176.653 70.3379 175.983 69.9614 175.389 70.4577Z" fill="black"/>
<path fill-rule="evenodd" clip-rule="evenodd" d="M14.0556 228.633C14.6796 228.569 15.3037 228.506 15.9277 228.442C15.3033 228.506 14.6796 228.569 14.0556 228.633Z" fill="black"/>
<path fill-rule="evenodd" clip-rule="evenodd" d="M57.5845 74.2861C57.6264 74.8316 57.6691 75.3774 57.7109 75.9212C57.6687 75.375 57.6264 74.8304 57.5845 74.2861Z" fill="black"/>
<path fill-rule="evenodd" clip-rule="evenodd" d="M18.752 97.0131C18.7093 96.496 18.6666 95.9789 18.6239 95.4639C18.6666 95.9817 18.7097 96.4972 18.752 97.0131Z" fill="black"/>
<path fill-rule="evenodd" clip-rule="evenodd" d="M57.8316 82.7432C57.8766 83.2878 57.9221 83.832 57.9668 84.3747C57.9217 83.8296 57.8766 83.2862 57.8316 82.7432Z" fill="black"/>
<path fill-rule="evenodd" clip-rule="evenodd" d="M19.0196 117.871C19.0236 117.345 19.0276 116.819 19.0312 116.294C18.6891 116.819 18.7028 117.344 19.0196 117.871Z" fill="black"/>
<path fill-rule="evenodd" clip-rule="evenodd" d="M77.6923 193.39C77.6971 193.917 77.7016 194.445 77.7072 194.97C78.0582 194.438 77.9881 193.913 77.6923 193.39Z" fill="black"/>
<path fill-rule="evenodd" clip-rule="evenodd" d="M37.9176 132.409C37.9788 131.875 38.0404 131.341 38.1016 130.809C38.04 131.343 37.9788 131.876 37.9176 132.409Z" fill="black"/>
<path fill-rule="evenodd" clip-rule="evenodd" d="M367.276 83.4414C367.69 83.9908 368.254 83.6145 368.746 83.6813C368.255 83.6012 367.766 83.5215 367.276 83.4414Z" fill="black"/>
<path fill-rule="evenodd" clip-rule="evenodd" d="M162.677 206.726C163.2 206.726 163.723 206.727 164.246 206.728C163.723 206.727 163.2 206.726 162.677 206.726Z" fill="black"/>
<path fill-rule="evenodd" clip-rule="evenodd" d="M79.1641 85.6816C79.115 86.1252 79.0662 86.5687 79.0171 87.0107C79.0662 86.5663 79.115 86.124 79.1641 85.6816Z" fill="black"/>
<path fill-rule="evenodd" clip-rule="evenodd" d="M337.497 41.6643C338.022 41.6748 338.548 41.6852 339.074 41.6957C338.554 41.3882 338.03 41.2992 337.497 41.6643Z" fill="black"/>
<path fill-rule="evenodd" clip-rule="evenodd" d="M57.845 90.4092C57.8792 90.8743 57.9135 91.339 57.9473 91.8021C57.913 91.337 57.8792 90.8731 57.845 90.4092Z" fill="black"/>
<path fill-rule="evenodd" clip-rule="evenodd" d="M72.2559 33.3564C72.2148 32.9324 72.1742 32.5085 72.1335 32.0869C72.1746 32.5117 72.2148 32.934 72.2559 33.3564Z" fill="black"/>
<path fill-rule="evenodd" clip-rule="evenodd" d="M76.3858 32.0283C76.4272 32.4882 76.4687 32.9486 76.5098 33.4069C76.4683 32.9462 76.4272 32.487 76.3858 32.0283Z" fill="black"/>
<path fill-rule="evenodd" clip-rule="evenodd" d="M304.657 1.32324C305.192 1.38844 305.727 1.45365 306.262 1.51845C305.727 1.45324 305.192 1.38844 304.657 1.32324Z" fill="black"/>
<path fill-rule="evenodd" clip-rule="evenodd" d="M343.275 42.0303C343.824 42.0866 344.373 42.143 344.922 42.1993C344.373 42.143 343.824 42.0866 343.275 42.0303Z" fill="black"/>
<path fill-rule="evenodd" clip-rule="evenodd" d="M42.5742 43.3786C42.5404 42.9506 42.507 42.5222 42.4736 42.0967C42.507 42.525 42.5408 42.9518 42.5742 43.3786Z" fill="black"/>
<path fill-rule="evenodd" clip-rule="evenodd" d="M361.287 113.953C360.971 113.958 360.655 113.962 360.344 113.967C360.661 113.962 360.974 113.958 361.287 113.953Z" fill="black"/>
<path fill-rule="evenodd" clip-rule="evenodd" d="M76.3694 166.735C76.4012 167.209 76.433 167.683 76.4648 168.155C76.4326 167.682 76.4008 167.208 76.3694 166.735Z" fill="black"/>
<path fill-rule="evenodd" clip-rule="evenodd" d="M44.1313 74.5795C44.1441 74.1228 44.1566 73.6665 44.1699 73.2109C44.1562 73.6681 44.1437 74.1236 44.1313 74.5795Z" fill="black"/>
<path fill-rule="evenodd" clip-rule="evenodd" d="M291.196 0.248844C291.683 0.248844 292.171 0.249247 292.658 0.249247C292.17 -0.0872291 291.683 -0.078777 291.196 0.248844Z" fill="black"/>
<path fill-rule="evenodd" clip-rule="evenodd" d="M161.05 107.667C161.585 107.681 162.119 107.695 162.652 107.708C162.128 107.336 161.593 107.326 161.05 107.667Z" fill="black"/>
<path fill-rule="evenodd" clip-rule="evenodd" d="M114.395 231.181C114.078 231.187 113.761 231.194 113.448 231.202C113.766 231.196 114.081 231.188 114.395 231.181Z" fill="black"/>
<path fill-rule="evenodd" clip-rule="evenodd" d="M102.473 231.735C102.156 231.723 101.84 231.712 101.528 231.701C101.846 231.712 102.159 231.724 102.473 231.735Z" fill="black"/>
<path fill-rule="evenodd" clip-rule="evenodd" d="M289.004 231.954C288.674 231.963 288.344 231.971 288.019 231.979C288.35 231.971 288.677 231.963 289.004 231.954Z" fill="black"/>
<path fill-rule="evenodd" clip-rule="evenodd" d="M14.3876 182.348C14.4347 181.897 14.4818 181.445 14.5293 180.995C14.4818 181.447 14.4347 181.898 14.3876 182.348Z" fill="black"/>
<path fill-rule="evenodd" clip-rule="evenodd" d="M57.4414 106.28C57.4036 106.711 57.3661 107.141 57.3291 107.569C57.3665 107.138 57.404 106.709 57.4414 106.28Z" fill="black"/>
<path fill-rule="evenodd" clip-rule="evenodd" d="M40.8751 98.8967C40.9267 98.4404 40.9782 97.984 41.0293 97.5293C40.9778 97.986 40.9267 98.4412 40.8751 98.8967Z" fill="black"/>
<path fill-rule="evenodd" clip-rule="evenodd" d="M286.33 232.226C285.997 232.221 285.664 232.215 285.335 232.211C285.669 232.217 286 232.221 286.33 232.226Z" fill="black"/>
<path fill-rule="evenodd" clip-rule="evenodd" d="M165.26 232.262C164.936 232.247 164.613 232.232 164.293 232.218C164.617 232.233 164.939 232.247 165.26 232.262Z" fill="black"/>
<path fill-rule="evenodd" clip-rule="evenodd" d="M43.5772 65.602C43.5921 65.1397 43.6066 64.6773 43.6211 64.2158C43.6062 64.6785 43.5917 65.1401 43.5772 65.602Z" fill="black"/>
<path fill-rule="evenodd" clip-rule="evenodd" d="M317.859 232.526C317.535 232.523 317.21 232.521 316.89 232.519C317.216 232.521 317.538 232.524 317.859 232.526Z" fill="black"/>
<path fill-rule="evenodd" clip-rule="evenodd" d="M43.7129 232.522C43.3794 232.526 43.0455 232.529 42.716 232.533C43.0515 232.53 43.3822 232.526 43.7129 232.522Z" fill="black"/>
<path fill-rule="evenodd" clip-rule="evenodd" d="M36.5137 232.482C36.1914 232.505 35.8695 232.529 35.5513 232.551C35.8748 232.528 36.1942 232.505 36.5137 232.482Z" fill="black"/>
<path fill-rule="evenodd" clip-rule="evenodd" d="M33.6035 232.478C33.2756 232.487 32.9473 232.497 32.6235 232.504C32.9525 232.494 33.278 232.486 33.6035 232.478Z" fill="black"/>
<path fill-rule="evenodd" clip-rule="evenodd" d="M18.6739 100.729C18.6956 100.274 18.7169 99.8188 18.7383 99.3652C18.7165 99.8208 18.6956 100.275 18.6739 100.729Z" fill="black"/>
<path fill-rule="evenodd" clip-rule="evenodd" d="M238.709 226.522C237.712 226.47 236.715 226.418 235.717 226.365C236.715 226.418 237.712 226.469 238.709 226.522Z" fill="black"/>
<path fill-rule="evenodd" clip-rule="evenodd" d="M298.867 61.29C298.002 61.3657 297.136 61.4413 296.271 61.5161C297.137 61.4409 298.002 61.3652 298.867 61.29Z" fill="black"/>
<path fill-rule="evenodd" clip-rule="evenodd" d="M54.4746 98.8066C54.4477 99.63 54.4199 100.453 54.393 101.274C54.4203 100.451 54.4477 99.6288 54.4746 98.8066Z" fill="black"/>
<path fill-rule="evenodd" clip-rule="evenodd" d="M36.6094 227.928C35.7057 227.983 34.8025 228.038 33.8989 228.093C34.8081 228.134 35.731 228.394 36.6094 227.928Z" fill="black"/>
<path fill-rule="evenodd" clip-rule="evenodd" d="M41.957 130.535C41.9502 129.75 41.9434 128.964 41.9369 128.181C41.9438 128.966 41.9502 129.751 41.957 130.535Z" fill="black"/>
<path fill-rule="evenodd" clip-rule="evenodd" d="M44.2676 155.215C43.4749 155.225 42.6814 155.236 41.8891 155.247C42.6822 155.236 43.4749 155.225 44.2676 155.215Z" fill="black"/>
<path fill-rule="evenodd" clip-rule="evenodd" d="M243.855 141.404C243.875 142.003 243.895 142.602 243.914 143.198C243.894 142.599 243.875 142.002 243.855 141.404Z" fill="black"/>
<path fill-rule="evenodd" clip-rule="evenodd" d="M31.0749 116.061C31.1075 116.657 31.1401 117.253 31.1719 117.845C31.1389 117.249 31.1067 116.655 31.0749 116.061Z" fill="black"/>
<path fill-rule="evenodd" clip-rule="evenodd" d="M47.9883 225.279C47.4111 225.24 46.8339 225.201 46.2579 225.163C46.692 225.512 47.1285 225.541 47.9883 225.279Z" fill="black"/>
<path fill-rule="evenodd" clip-rule="evenodd" d="M51.8477 147.415C51.8078 148.057 51.768 148.699 51.7286 149.339C51.7684 148.697 51.8078 148.056 51.8477 147.415Z" fill="black"/>
<path fill-rule="evenodd" clip-rule="evenodd" d="M267.508 46.0731C267.502 45.4526 267.496 44.832 267.489 44.2139C267.495 44.8352 267.501 45.4542 267.508 46.0731Z" fill="black"/>
<path fill-rule="evenodd" clip-rule="evenodd" d="M51.1523 155.344L49.0026 155.297C49.712 155.641 50.4286 155.653 51.1523 155.344Z" fill="black"/>
<path fill-rule="evenodd" clip-rule="evenodd" d="M31.3195 159.92C31.827 159.924 32.334 159.928 32.8379 159.934C32.3292 159.93 31.8242 159.925 31.3195 159.92Z" fill="black"/>
<path fill-rule="evenodd" clip-rule="evenodd" d="M216.963 225.525C216.261 225.535 215.559 225.544 214.858 225.553C215.565 225.909 216.267 225.959 216.963 225.525Z" fill="black"/>
<path fill-rule="evenodd" clip-rule="evenodd" d="M349.15 227.587C348.438 227.523 347.726 227.459 347.013 227.396C347.726 227.459 348.438 227.523 349.15 227.587Z" fill="black"/>
<path fill-rule="evenodd" clip-rule="evenodd" d="M54.2285 104.096C54.1935 104.74 54.1585 105.385 54.1235 106.027C54.1585 105.382 54.1935 104.739 54.2285 104.096Z" fill="black"/>
<path fill-rule="evenodd" clip-rule="evenodd" d="M281.557 62.8064C280.956 62.509 280.35 62.4591 279.738 62.7742C280.345 62.7851 280.951 62.796 281.557 62.8064Z" fill="black"/>
<path fill-rule="evenodd" clip-rule="evenodd" d="M73.8672 111.535C73.8173 112.079 73.7674 112.623 73.7174 113.165C73.7678 112.621 73.8173 112.078 73.8672 111.535Z" fill="black"/>
<path fill-rule="evenodd" clip-rule="evenodd" d="M23.1445 98.8539C23.4545 98.3217 23.4436 97.7922 23.1292 97.2676C23.1344 97.797 23.1393 98.3257 23.1445 98.8539Z" fill="black"/>
<path fill-rule="evenodd" clip-rule="evenodd" d="M32.6035 154.957C31.985 154.767 31.3665 154.498 30.7508 154.964C31.3685 154.962 31.9858 154.959 32.6035 154.957Z" fill="black"/>
<path fill-rule="evenodd" clip-rule="evenodd" d="M232.322 226.279C231.7 226.221 231.078 226.163 230.456 226.104C231.078 226.163 231.7 226.221 232.322 226.279Z" fill="black"/>
<path fill-rule="evenodd" clip-rule="evenodd" d="M317.576 226.28C317.006 226.028 316.437 225.896 315.876 226.299C316.443 226.292 317.009 226.286 317.576 226.28Z" fill="black"/>
<path fill-rule="evenodd" clip-rule="evenodd" d="M201.068 225.481C200.459 225.214 199.851 225.067 199.249 225.5C199.856 225.493 200.462 225.487 201.068 225.481Z" fill="black"/>
<path fill-rule="evenodd" clip-rule="evenodd" d="M336.648 146.926C336.603 147.474 336.556 148.023 336.511 148.57C336.557 148.021 336.603 147.474 336.648 146.926Z" fill="black"/>
<path fill-rule="evenodd" clip-rule="evenodd" d="M195.25 115.351C194.65 115.132 194.053 115.017 193.464 115.383C194.06 115.372 194.655 115.361 195.25 115.351Z" fill="black"/>
<path fill-rule="evenodd" clip-rule="evenodd" d="M54.2383 131.666C54.2049 132.202 54.1715 132.739 54.1385 133.274C54.1719 132.737 54.2053 132.201 54.2383 131.666Z" fill="black"/>
<path fill-rule="evenodd" clip-rule="evenodd" d="M337.036 83.3154C337.086 83.7474 337.136 84.1797 337.186 84.6093C337.136 84.1765 337.086 83.7462 337.036 83.3154Z" fill="black"/>
<path fill-rule="evenodd" clip-rule="evenodd" d="M371.771 208.493C371.802 208.914 371.833 209.334 371.863 209.752C371.831 209.331 371.801 208.912 371.771 208.493Z" fill="black"/>
<path fill-rule="evenodd" clip-rule="evenodd" d="M41.6915 134.504C41.7253 134.07 41.7592 133.635 41.793 133.202C41.7592 133.638 41.7253 134.071 41.6915 134.504Z" fill="black"/>
<path fill-rule="evenodd" clip-rule="evenodd" d="M85.3301 224.665C84.7958 224.669 84.2614 224.673 83.7275 224.676C84.2618 224.673 84.7962 224.669 85.3301 224.665Z" fill="black"/>
<path fill-rule="evenodd" clip-rule="evenodd" d="M244.059 145.103C243.959 145.419 243.859 145.736 243.759 146.053C244.426 146.213 244.526 145.897 244.059 145.103Z" fill="black"/>
<path fill-rule="evenodd" clip-rule="evenodd" d="M204.023 114.634C203.481 114.631 202.938 114.629 202.395 114.627C202.937 114.885 203.48 115.063 204.023 114.634Z" fill="black"/>
<path fill-rule="evenodd" clip-rule="evenodd" d="M336.348 149.521C336.329 150 336.311 150.48 336.293 150.958C336.312 150.478 336.33 149.999 336.348 149.521Z" fill="black"/>
<path fill-rule="evenodd" clip-rule="evenodd" d="M330.609 226.8C330.085 226.8 329.562 226.799 329.038 226.799C329.562 226.799 330.085 226.8 330.609 226.8Z" fill="black"/>
<path fill-rule="evenodd" clip-rule="evenodd" d="M72.5488 154.575C72.5295 155.017 72.5098 155.458 72.4901 155.897C72.509 155.455 72.5291 155.015 72.5488 154.575Z" fill="black"/>
<path fill-rule="evenodd" clip-rule="evenodd" d="M341.725 227.343C341.21 226.999 340.693 227.029 340.176 227.337C340.692 227.339 341.209 227.341 341.725 227.343Z" fill="black"/>
<path fill-rule="evenodd" clip-rule="evenodd" d="M328.172 77.1523C328.144 77.6031 328.116 78.0542 328.087 78.5022C328.115 78.0506 328.143 77.6015 328.172 77.1523Z" fill="black"/>
<path fill-rule="evenodd" clip-rule="evenodd" d="M344.4 227.386C343.865 227.388 343.329 227.39 342.794 227.393C343.331 227.76 343.866 227.777 344.4 227.386Z" fill="black"/>
<path fill-rule="evenodd" clip-rule="evenodd" d="M48.0801 70.0831C48.0757 69.6252 48.0716 69.1677 48.0676 68.7109C48.072 69.1693 48.0761 69.626 48.0801 70.0831Z" fill="black"/>
<path fill-rule="evenodd" clip-rule="evenodd" d="M293.756 62.0801C293.244 62.1473 292.731 62.2145 292.219 62.2813C292.732 62.2141 293.244 62.1473 293.756 62.0801Z" fill="black"/>
<path fill-rule="evenodd" clip-rule="evenodd" d="M338.928 101.568C338.921 101.996 338.914 102.424 338.906 102.849C338.913 102.421 338.92 101.995 338.928 101.568Z" fill="black"/>
<path fill-rule="evenodd" clip-rule="evenodd" d="M44.6303 101.509C44.6585 101.073 44.6867 100.638 44.7148 100.204C44.6867 100.64 44.6581 101.075 44.6303 101.509Z" fill="black"/>
<path fill-rule="evenodd" clip-rule="evenodd" d="M164.027 226.876C163.396 226.933 162.764 226.991 162.133 227.048C162.764 226.991 163.396 226.933 164.027 226.876Z" fill="black"/>
<path fill-rule="evenodd" clip-rule="evenodd" d="M166.135 210.575C166.476 210.581 166.818 210.586 167.156 210.593C166.814 210.589 166.474 210.582 166.135 210.575Z" fill="black"/>
<path fill-rule="evenodd" clip-rule="evenodd" d="M166.107 226.628C165.578 226.68 165.047 226.733 164.517 226.785C165.047 226.733 165.578 226.68 166.107 226.628Z" fill="black"/>
<path fill-rule="evenodd" clip-rule="evenodd" d="M261.446 191.064C260.756 194.947 266.809 198.744 267.289 193.225C267.465 191.206 266.111 189.787 264.595 188.553C262.443 186.802 261.241 188.479 261.446 191.064Z" fill="black"/>
<path fill-rule="evenodd" clip-rule="evenodd" d="M328.167 143.691C326.741 144.273 315.846 147.812 321.505 149.592C323.003 150.063 325.267 150.134 326.566 149.304C328.128 148.304 329.704 145.356 328.167 143.691Z" fill="black"/>
<path fill-rule="evenodd" clip-rule="evenodd" d="M325.486 91.1105C321.788 90.6825 318.381 96.7371 322.94 96.5406C326.259 96.3973 330.722 91.1105 325.486 91.1105Z" fill="black"/>
<path fill-rule="evenodd" clip-rule="evenodd" d="M312.26 105.957C309.172 108.643 314.896 114.653 317.168 112.327C318.328 111.139 317.258 108.579 316.3 107.585C315.317 106.564 313.569 106.373 312.26 105.957Z" fill="black"/>
<path fill-rule="evenodd" clip-rule="evenodd" d="M303.066 175.58C304.888 175.868 312.905 178.48 311.233 173.737C310.595 171.928 308.817 172.464 307.191 172.547C304.571 172.681 303.066 172.556 303.066 175.58Z" fill="black"/>
<path fill-rule="evenodd" clip-rule="evenodd" d="M308.348 187.799C305.619 189.254 309.608 197.399 311.87 195.666C315.008 193.262 310.716 188.53 308.348 187.799Z" fill="black"/>
<path fill-rule="evenodd" clip-rule="evenodd" d="M296.443 181.247C295.116 180.707 288.861 186.705 291.242 188.374C292.462 189.229 294.775 187.763 295.51 186.879C296.89 185.221 297.015 183.176 296.443 181.247Z" fill="black"/>
<path fill-rule="evenodd" clip-rule="evenodd" d="M332.537 132.22C331.181 132.442 328.839 132.512 328.752 134.412C328.675 136.082 330.775 136.623 332.253 136.754C333.787 136.89 335.818 136.458 335.847 134.535C335.878 132.461 332.585 132.586 332.537 132.22Z" fill="black"/>
<path fill-rule="evenodd" clip-rule="evenodd" d="M299.087 214.898C297.642 215.773 290.905 218.92 293.793 221.193C294.874 222.044 298.15 220.287 298.887 219.394C299.767 218.328 300.627 215.83 299.087 214.898Z" fill="black"/>
<path fill-rule="evenodd" clip-rule="evenodd" d="M280.36 192.06C280.569 188.586 274.69 187.204 275.909 192.135C276.252 193.525 276.585 195.635 278.309 195.716C280.347 195.811 280.421 193.408 280.36 192.06Z" fill="black"/>
<path fill-rule="evenodd" clip-rule="evenodd" d="M298.522 131.652C298.481 134.287 303.547 136.611 303.586 132.434C303.621 128.701 298.333 127.609 298.522 131.652Z" fill="black"/>
<path fill-rule="evenodd" clip-rule="evenodd" d="M301.87 117.924C300.622 118.325 298.963 118.531 298.853 120.112C298.737 121.785 300.296 122.53 301.698 122.436C302.849 122.359 304.551 121.51 304.76 120.266C305.067 118.439 303.279 118.32 301.87 117.924Z" fill="black"/>
<path fill-rule="evenodd" clip-rule="evenodd" d="M325.078 166.173C325.099 163.999 320.728 161.385 319.923 163.908C319.665 164.716 321.725 168.336 322.411 168.607C324.224 169.325 324.477 167.652 325.078 166.173Z" fill="black"/>
<path fill-rule="evenodd" clip-rule="evenodd" d="M289.253 202.367C290.73 203.685 295.161 207.388 294.83 202.418C294.619 199.242 288.863 199.408 289.253 202.367Z" fill="black"/>
<path fill-rule="evenodd" clip-rule="evenodd" d="M217.055 216.573C216.571 214.483 209.638 218.108 211.952 220.748C212.728 221.634 214.759 220.832 215.539 220.307C217.084 219.268 217.118 218.309 217.055 216.573Z" fill="black"/>
<path fill-rule="evenodd" clip-rule="evenodd" d="M255.686 171.838C255.415 170.906 255.115 169.259 254.223 168.664C252.61 167.589 251.205 169.211 251.205 170.922C251.204 174.112 254.847 175.118 255.686 171.838Z" fill="black"/>
<path fill-rule="evenodd" clip-rule="evenodd" d="M272.868 209.139C271.068 209.55 267.06 213.912 269.384 215.691C271.621 217.404 274.596 210.442 272.868 209.139Z" fill="black"/>
<path fill-rule="evenodd" clip-rule="evenodd" d="M271.154 176.12C268.84 176.304 265.659 180.04 269.256 180.634C272.07 181.099 275.343 177.035 271.154 176.12Z" fill="black"/>
<path fill-rule="evenodd" clip-rule="evenodd" d="M250.197 193.314C249.616 191.365 243.876 193.453 244.199 195.599C244.37 196.74 246.717 197.008 247.951 196.706C249.767 196.262 250.238 195.074 250.197 193.314Z" fill="black"/>
<path fill-rule="evenodd" clip-rule="evenodd" d="M317.861 84.4628C317.819 81.9432 312.963 80.9162 312.607 83.4553C312.285 85.7493 317.922 88.1902 317.861 84.4628Z" fill="black"/>
<path fill-rule="evenodd" clip-rule="evenodd" d="M251.805 219.275C251.455 218.008 251.304 216.483 249.716 216.317C247.899 216.125 247.952 217.515 248.166 218.955C248.747 222.872 250.968 223.068 251.805 219.275Z" fill="black"/>
<path fill-rule="evenodd" clip-rule="evenodd" d="M328.5 114.442C331.032 115.011 335.669 110.15 332.835 109.107C330.838 108.372 328.5 112.975 328.5 114.442Z" fill="black"/>
<path fill-rule="evenodd" clip-rule="evenodd" d="M296.21 152.2C297.498 152.805 297.795 153.172 298.785 152.179C299.647 151.315 299.609 148.906 298.869 148.007C296.036 144.563 296.102 150.806 296.21 152.2Z" fill="black"/>
<path fill-rule="evenodd" clip-rule="evenodd" d="M285.693 145.215C284.349 145.385 280.356 149.161 282.435 150.662C284.983 152.5 286.424 146.741 285.693 145.215Z" fill="black"/>
<path fill-rule="evenodd" clip-rule="evenodd" d="M256.616 146.209C257.593 149.959 260.031 147.436 259.893 144.598C259.671 140.054 257.144 144.012 256.616 146.209Z" fill="black"/>
<path fill-rule="evenodd" clip-rule="evenodd" d="M241.792 206.435C240.14 207.116 237.897 213.414 240.257 213.752C242.908 214.131 242.026 207.746 241.792 206.435Z" fill="black"/>
<path fill-rule="evenodd" clip-rule="evenodd" d="M262.428 202.896C260.537 202.26 259.844 206.236 260.944 206.975C263.362 208.6 262.852 203.834 262.428 202.896Z" fill="black"/>
<path fill-rule="evenodd" clip-rule="evenodd" d="M280.359 192.061C280.383 192.589 280.407 193.117 280.432 193.642C280.408 193.113 280.384 192.587 280.359 192.061Z" fill="black"/>
<path fill-rule="evenodd" clip-rule="evenodd" d="M217.055 216.571C217.075 217.113 217.095 217.655 217.115 218.194C217.096 217.651 217.076 217.111 217.055 216.571Z" fill="black"/>
<path fill-rule="evenodd" clip-rule="evenodd" d="M250.201 193.313C250.211 193.773 250.222 194.233 250.234 194.689C250.224 194.229 250.212 193.771 250.201 193.313Z" fill="black"/>
<path fill-rule="evenodd" clip-rule="evenodd" d="M41.0367 185.41C37.1162 185.285 32.7426 183.814 28.8901 184.282C27.8295 184.411 25.3882 184.677 27.0873 186.245C27.9 186.995 31.7905 186.608 32.9681 186.856C40.1664 188.376 48.3375 189.356 55.7184 189.229C59.1735 189.17 62.6543 188.894 66.1078 188.712C69.5589 188.53 69.8982 187.132 66.0149 186.687C61.9817 186.225 57.8433 186.397 53.7902 186.392C49.5291 186.386 45.2893 185.694 41.0367 185.41Z" fill="black"/>
<path fill-rule="evenodd" clip-rule="evenodd" d="M32.4291 175.994C32.8064 177.065 33.1376 179.523 34.5836 179.684C36.6088 179.91 36.944 176.444 36.8695 175.176C36.779 173.646 36.2266 171.104 34.3188 171.634C32.7074 172.081 32.546 174.769 32.4291 175.994Z" fill="black"/>
<path fill-rule="evenodd" clip-rule="evenodd" d="M44.6875 175.212C44.3915 174.065 44.2461 171.479 42.6191 171.391C40.8006 171.293 40.2811 173.988 40.2931 175.278C40.3051 176.504 40.7597 178.819 42.2077 179.102C44.1708 179.485 44.3462 176.522 44.6875 175.212Z" fill="black"/>
<path fill-rule="evenodd" clip-rule="evenodd" d="M65.1075 177.268C65.6967 178.646 66.0865 180.545 67.9098 179.605C69.3197 178.878 69.5164 175.947 69.2504 174.605C68.9748 173.215 68.3912 171.62 66.7886 172.245C64.9405 172.967 65.1272 175.75 65.1075 177.268Z" fill="black"/>
<path fill-rule="evenodd" clip-rule="evenodd" d="M49.6468 175.995C51.3848 181.247 54.5547 177.694 53.3511 173.773C52.0925 169.675 49.8066 173.655 49.6468 175.995Z" fill="black"/>
<path fill-rule="evenodd" clip-rule="evenodd" d="M58.1101 176.256C58.5928 177.181 59.1063 179.176 60.4072 178.966C62.0022 178.708 62.0535 175.648 61.8784 174.508C61.7258 173.511 61.2764 171.849 59.9414 171.87C58.0124 171.901 58.1417 175.059 58.1101 176.256Z" fill="black"/>
<path fill-rule="evenodd" clip-rule="evenodd" d="M23.4435 177.263C24.7373 180.157 26.5169 177.664 25.9474 175.609C25.1026 172.561 23.5168 175.261 23.4435 177.263Z" fill="black"/>
<path fill-rule="evenodd" clip-rule="evenodd" d="M55.1282 186.398C56.5409 186.393 57.9545 186.388 59.3672 186.382C57.9533 186.115 56.5393 186.011 55.1282 186.398Z" fill="black"/>
<path fill-rule="evenodd" clip-rule="evenodd" d="M27.0507 184.272C28.2764 184.28 29.5017 184.288 30.7266 184.296C29.5033 183.928 28.278 183.92 27.0507 184.272Z" fill="black"/>
<path fill-rule="evenodd" clip-rule="evenodd" d="M41.0365 185.411C42.0174 185.477 42.998 185.543 43.9785 185.609C42.9976 185.543 42.017 185.477 41.0365 185.411Z" fill="black"/>
<path fill-rule="evenodd" clip-rule="evenodd" d="M65.1098 177.268C65.1186 176.566 65.1283 175.864 65.1367 175.164C64.7727 175.862 64.798 176.563 65.1098 177.268Z" fill="black"/>
<path fill-rule="evenodd" clip-rule="evenodd" d="M57.418 189.214C56.8488 189.219 56.2796 189.224 55.7152 189.229C56.286 189.224 56.852 189.219 57.418 189.214Z" fill="black"/>
<path fill-rule="evenodd" clip-rule="evenodd" d="M62.2456 186.457C63.0467 186.523 63.8477 186.589 64.6484 186.655C63.8473 186.589 63.0467 186.523 62.2456 186.457Z" fill="black"/>
<path fill-rule="evenodd" clip-rule="evenodd" d="M51.4162 186.391C52.2073 186.393 52.998 186.394 53.7891 186.396C52.9984 186.061 52.2077 186.052 51.4162 186.391Z" fill="black"/>
<path fill-rule="evenodd" clip-rule="evenodd" d="M58.1124 176.253C58.1321 175.522 58.1514 174.79 58.1699 174.06C58.1502 174.791 58.1313 175.523 58.1124 176.253Z" fill="black"/>
<path fill-rule="evenodd" clip-rule="evenodd" d="M69.2512 174.605C69.2556 175.319 69.26 176.033 69.2656 176.743C69.2612 176.029 69.2564 175.317 69.2512 174.605Z" fill="black"/>
<path fill-rule="evenodd" clip-rule="evenodd" d="M36.5399 185.146C37.2392 185.209 37.9382 185.272 38.6367 185.336C37.9374 185.272 37.2384 185.209 36.5399 185.146Z" fill="black"/>
<path fill-rule="evenodd" clip-rule="evenodd" d="M23.4437 177.265C23.4667 176.641 23.4892 176.018 23.5117 175.396C23.4888 176.019 23.4667 176.642 23.4437 177.265Z" fill="black"/>
<path fill-rule="evenodd" clip-rule="evenodd" d="M53.1953 189.235C52.7083 189.226 52.2213 189.216 51.7391 189.208C52.2277 189.218 52.7115 189.227 53.1953 189.235Z" fill="black"/>
<path fill-rule="evenodd" clip-rule="evenodd" d="M32.4259 175.996C32.4689 175.548 32.512 175.099 32.5547 174.652C32.5116 175.101 32.4685 175.549 32.4259 175.996Z" fill="black"/>
<path fill-rule="evenodd" clip-rule="evenodd" d="M49.6417 175.995C49.6731 175.535 49.7049 175.074 49.7363 174.615C49.7045 175.076 49.6731 175.536 49.6417 175.995Z" fill="black"/>
<path fill-rule="evenodd" clip-rule="evenodd" d="M300.644 40.82C302.558 40.3193 302.917 37.6376 302.61 35.9905C302.261 35.1967 301.912 34.4033 301.563 33.6095C301.699 33.316 301.836 33.0225 301.972 32.7291C301.797 31.0943 302.244 30.384 300.36 31.046C296.859 32.2767 296.299 40.6939 300.644 40.82Z" fill="black"/>
<path fill-rule="evenodd" clip-rule="evenodd" d="M272.307 35.6349C270.73 35.5111 267.866 37.3419 269.436 39.1131C270.408 40.2104 273.613 39.6913 274.92 39.9205C276.654 40.2244 278.463 40.6401 277.525 38.051C276.788 36.0178 274.157 35.5817 272.307 35.6349Z" fill="black"/>
<path fill-rule="evenodd" clip-rule="evenodd" d="M273.961 47.8153C275.563 46.5348 274.848 40.7022 272.411 41.7516C269.903 42.8317 272.625 46.9736 273.961 47.8153Z" fill="black"/>
<path fill-rule="evenodd" clip-rule="evenodd" d="M302.606 35.9893C302.606 36.6034 302.607 37.218 302.608 37.8294C302.944 37.214 302.933 36.6014 302.606 35.9893Z" fill="black"/>
<path fill-rule="evenodd" clip-rule="evenodd" d="M300.643 40.8223C300.316 40.813 299.989 40.8034 299.666 40.7949C299.994 40.8054 300.318 40.8138 300.643 40.8223Z" fill="black"/>
<path fill-rule="evenodd" clip-rule="evenodd" d="M102.86 208.794C103.01 211.447 105.868 209.486 105.665 207.711C105.297 204.49 103.47 207.673 102.86 208.794Z" fill="black"/>
</svg>
