<svg width="382" height="278" viewBox="0 0 382 278" fill="none" xmlns="http://www.w3.org/2000/svg">
<path fill-rule="evenodd" clip-rule="evenodd" d="M246.24 136.29C244.491 129.484 242.842 122.531 240.247 115.991C238.622 111.898 236.901 107.843 235.177 103.792C234.938 103.229 234.837 102.687 234.372 102.407C233.75 102.033 232.465 102.041 231.764 101.913C221.805 100.085 211.743 98.6901 201.647 97.9055C190.127 97.0102 178.895 97.4197 167.495 99.2981C157.746 100.904 148.094 103.118 138.546 105.654C137.143 106.026 135.741 106.407 134.343 106.798C133.691 106.98 132.609 107.073 132.041 107.454C130.827 108.267 130.415 111.599 129.96 113.011C129.35 114.903 128.995 117.502 127.819 119.112C126.069 121.508 123.405 123.586 121.236 125.578C113.664 132.53 105.364 138.871 95.5856 142.308C80.4577 147.625 64.5054 150.958 48.8342 154.252C48.4694 154.329 48.1046 154.405 47.7399 154.481C51.7968 158.976 55.8537 163.471 59.9105 167.965C62.1978 170.499 64.4846 173.033 66.7715 175.567C67.9474 176.87 67.8187 177.102 69.4817 176.739C77.8148 174.92 86.1332 172.937 94.3151 170.52C98.3262 169.335 102.406 168.105 106.138 166.185C111.275 163.544 116.096 160.279 120.788 156.925C124.983 153.926 129.079 150.79 133.101 147.565C133.894 146.929 136.755 143.864 137.683 144.063C138.483 144.236 139.869 146.058 140.455 146.589C142.005 147.993 143.561 149.39 145.127 150.776C147.62 152.981 150.165 155.681 153.076 157.341C156.144 159.09 159.66 160.282 162.897 161.675C164.703 162.451 166.511 163.225 168.319 163.997C168.792 164.198 169.451 164.637 169.96 164.648C171.467 164.679 173.656 163.454 175.054 162.976C178.645 161.75 182.209 160.446 185.737 159.047C193.27 156.061 201.549 152.816 207.748 147.442C208.83 146.505 209.887 145.456 210.603 144.204C210.851 143.769 211.22 143.165 211.245 142.652C211.286 141.835 210.826 141.674 210.143 141.163C206.617 138.526 202.815 136.228 199.076 133.911C198.197 133.366 197.317 132.824 196.433 132.288L240.125 135.798C242.163 135.962 244.202 136.126 246.24 136.29Z" fill="#FFAEAD"/>
<path fill-rule="evenodd" clip-rule="evenodd" d="M181.179 53.0544C176.563 53.2651 171.831 53.4798 167.255 54.1298C162.693 54.7775 158.437 56.4342 154.314 58.4403C146.881 62.0572 139.284 66.4537 134.503 73.4109C132.268 76.6638 130.444 80.0697 127.359 82.6303C126.637 83.2291 125.85 83.9488 124.893 84.132C124.131 84.2777 123.459 83.9693 122.713 83.9324C121.29 83.8618 120.75 84.6126 120.75 86.0275C119.682 85.6009 118.518 85.2147 117.353 85.3715C116.379 85.5028 115.604 86.0905 114.669 86.3377C112.98 86.7837 111.328 86.1166 109.723 85.6196C105.668 84.3644 101.215 83.414 96.9544 83.8618C94.1485 84.1568 90.7484 85.3742 92.2014 88.9904C93.4063 91.9901 97.9122 93.5085 100.758 94.2547C103.179 94.8896 106.434 94.323 106.229 97.6649C106.087 99.9975 105.734 102.5 103.256 103.257C101.897 103.672 97.0833 104.29 99.8945 106.395C101.97 107.949 102.695 110.685 104.274 112.739C106.286 115.358 109.015 117.476 112.204 118.431C115.772 119.501 119.548 119.296 123.214 119.711C120.632 123.275 116.905 125.727 113.511 128.438C109.944 131.288 106.502 134.403 102.373 136.435C98.6722 138.256 94.6738 139.521 90.8515 141.065C86.837 142.687 82.7941 144.29 78.6504 145.553C70.2917 148.102 61.4995 149.882 52.9061 151.446C48.6653 152.217 44.5072 152.104 40.2235 152.173C35.8294 152.243 31.438 153.014 27.1245 153.806C25.0334 154.19 22.9222 154.432 20.8315 154.815C19.8281 154.998 15.8565 155.403 15.7142 156.873C15.4822 159.268 18.0708 160.61 19.9664 161.278C20.7759 161.563 22.0796 161.521 22.7806 161.914C23.5389 162.338 23.243 162.962 23.3297 163.784C23.4562 164.978 24.0947 165.837 25.0736 166.499C25.8788 167.044 26.8493 167.023 26.2943 168.055C26.0385 168.53 25.398 168.83 25.1027 169.332C24.7653 169.905 24.6099 170.532 24.6786 171.191C24.7984 172.345 25.56 173.225 26.6223 173.633C28.3204 174.285 30.3131 173.823 32.0523 173.612C34.9626 173.258 37.9155 173.222 40.787 172.585C43.7807 171.921 46.694 170.898 49.6911 170.217C51.2281 169.869 52.7681 169.576 54.27 169.093C55.2473 168.778 56.6597 167.961 57.7006 168.217C58.6755 168.457 59.4375 169.635 60.0749 170.318C60.9547 171.261 61.8065 172.23 62.7003 173.16C63.2926 173.776 63.9002 174.379 64.5471 174.938C64.7573 175.119 66.0559 175.914 66.074 176.127C66.1246 176.729 64.7071 176.719 64.4034 176.959C62.6391 178.354 65.2903 179.236 66.4343 179.166C69.071 179.006 71.7213 178.682 74.333 178.294C80.5514 177.371 86.752 176.375 92.6975 174.291C98.5785 172.23 104.317 170.038 109.756 166.965C114.977 164.016 120.027 160.682 124.959 157.275C127.352 155.621 129.762 153.908 131.783 151.801C133.759 149.741 135.37 147.376 137.008 145.048C140.933 148.84 144.71 152.827 148.925 156.304C152.935 159.61 157.756 161.377 162.421 163.525C162.27 164.501 157.71 165.085 156.878 165.339C153.075 166.496 149.426 168.354 145.727 169.811C139.574 172.234 133.735 175.389 131.686 182.12C129.671 188.738 132.008 195.399 134.858 201.378C138.222 208.436 142.218 214.973 147.048 221.125C149.103 223.743 151.316 226.152 153.571 228.59C155.494 230.67 157.144 233.133 156.337 236.089C154.789 235.605 154.506 236.813 155.518 237.836C156.417 238.746 157.973 238.922 159.174 239.073C162.816 239.53 166.577 239.368 170.223 239.029C176.861 238.41 183.514 236.734 189.524 233.85C192.514 232.415 193.596 234.729 195.653 236.521C197.271 237.93 199.498 238.844 200.728 240.668C201.739 242.169 201.079 244.54 198.978 243.978C197.343 243.54 196.03 241.715 194.298 241.645C191.225 241.521 197.024 245.907 197.765 246.443C196.297 247.757 194.631 245.955 193.15 245.654C191.73 245.365 191.333 246.101 192.09 247.286C192.68 248.209 194.534 248.863 193.301 249.987C192.28 250.918 190.014 251.407 188.76 251.815C184.847 253.088 180.953 253.994 176.879 254.575C175.563 254.763 173.454 254.643 172.388 255.576C170.981 256.807 171.659 258.846 172.371 260.256C175.069 265.597 180.677 268.222 186.437 268.607C189.984 268.843 193.565 268.614 197.124 268.805C201.023 269.015 204.932 269.327 208.84 269.198C215.124 268.991 219.121 264.448 222.254 259.451C224.244 256.277 226.078 253.01 227.801 249.684C228.474 248.385 229.883 247.038 230.123 245.578C230.339 244.264 229.501 243.209 228.686 242.279C226.543 239.832 223.964 237.964 221.444 235.942C220.006 234.787 219.453 233.831 218.812 232.15C218.273 230.736 217.236 230.131 216.323 229.002C215.319 227.761 215.635 227.541 216.418 226.526C217.237 225.464 216.915 223.898 216.571 222.696C216.077 220.971 215.018 220.591 213.437 220.035C211.995 219.528 210.773 218.639 209.494 217.814C203.179 213.74 197.229 209.131 190.836 205.17C184.528 201.263 177.936 197.811 171.917 193.451C176.805 192.794 181.115 190.153 185.726 188.59C188.092 187.787 190.436 186.93 192.726 185.926C193.6 185.542 194.619 185.201 195.399 184.637C196.183 184.071 196.785 183.325 197.607 182.789C199.556 181.516 201.874 180.792 203.97 179.8C206.235 178.729 208.469 177.558 210.573 176.195C212.537 174.922 214.423 173.467 216.056 171.786C217.357 170.446 218.623 168.701 220.465 168.086C220.271 170.652 217.094 172.777 215.352 174.322C212.526 176.828 209.588 178.957 206.429 181.027C209.972 184.064 214.291 186.041 218.44 188.093C223.105 190.399 227.64 192.955 232.287 195.297C236.223 197.281 240.364 198.81 244.365 200.653C248.681 202.642 253.124 204.31 257.627 205.823C261.703 207.192 265.54 208.653 269.386 210.575C273.124 212.443 277.124 213.872 281.124 215.072C285.617 216.419 289.904 217.701 294.226 219.548C298.123 221.213 302.036 222.278 306.16 223.184C307.523 223.483 309.272 224.032 310.226 222.712C310.949 221.712 311.058 220.17 311.266 218.994C312.061 214.494 312.124 209.921 312.839 205.414C315.554 206.233 318.125 207.242 320.989 207.372C322.789 207.453 323.884 207.639 324.332 209.606C323.291 209.723 319.569 209.775 319.469 211.251C319.378 212.582 321.629 212.596 322.428 212.632C323.857 212.697 325.152 212.463 325.914 213.862C324.791 214.277 322.3 213.52 321.802 215.032C321.161 216.982 324.072 216.978 325.12 217.135C326.948 217.409 326.76 218.844 326.635 220.379C326.47 222.399 326.345 224.421 326.072 226.43C325.49 230.723 324.492 234.951 324.02 239.26C323.611 242.985 323.382 246.564 326.044 249.533C327.115 250.727 328.602 252.101 330.284 252.243C331.992 252.387 331.96 251.191 333.023 250.31C333.674 249.771 334.537 249.661 335.304 249.37C336.237 249.016 337.142 248.498 337.98 247.961C339.525 246.972 340.876 245.744 341.968 244.268C346.241 238.493 347.768 229.865 348.191 222.863C348.46 218.411 348.192 213.952 347.783 209.517C347.563 207.129 347.342 204.739 347.053 202.357C346.964 201.619 346.814 200.88 346.758 200.14C346.727 199.717 346.931 198.86 346.715 198.454C346.991 198.972 347.48 198.589 347.966 198.181C348.968 197.338 348.66 195.721 348.123 194.613C346.507 191.274 341.664 191.144 338.514 190.885C330.044 190.187 321.998 187.915 313.89 185.489C315.035 183.775 313.235 182.643 311.84 182.054C309.688 181.146 307.467 180.347 305.295 179.48C300.392 177.52 295.59 175.694 290.455 174.444C285.804 173.312 281.303 171.432 276.714 170.055C271.973 168.631 267.317 167.004 262.654 165.346C253.417 162.062 244.172 158.707 235.209 154.723C232.943 153.716 230.778 152.548 228.592 151.384C226.815 150.438 224.731 149.744 223.225 148.377C221.787 147.072 220.926 145.257 219.363 144.072C217.955 143.004 216.03 142.99 214.863 141.664C213.287 139.872 211.404 139.084 209.263 138.033C208.575 137.695 204.048 135.989 204.14 135.021C207.376 135.021 210.697 135.984 213.896 136.432C217.28 136.906 220.662 137.434 224.071 137.696C229.594 138.121 235.115 138.006 240.616 137.407C241.437 137.318 244.735 136.64 245.303 137.522C245.737 138.194 244.659 138.994 244.649 139.716C244.633 140.776 245.486 141.344 246.453 140.976C248.335 140.26 248.06 137.226 247.884 135.686C247.547 132.741 246.799 129.823 246.145 126.937C250.028 128.914 253.715 131.453 257.059 134.243C259.649 136.403 261.988 139.333 265.028 140.874C267.946 142.353 269.681 141.091 269.562 137.834C269.507 136.342 269.205 134.925 268.688 133.536C268.444 132.879 267.441 131.02 267.911 130.321C270.578 132.448 273.228 134.581 276.028 136.535C278.007 137.915 280.876 140.069 283.461 139.521C285.743 139.037 285.52 136.525 284.796 134.832C284.169 133.364 283.041 132.059 281.924 130.938C281 130.011 279.686 129.181 279.223 127.896C282.289 129.274 285.445 130.317 288.656 131.286C290.94 131.974 292.536 134.834 295.191 134.412C297.85 133.989 296.791 130.702 295.73 129.273C294.987 128.274 293.96 127.393 292.964 126.654C291.992 125.934 290.514 125.306 290.036 124.107C293.142 124.69 296.264 125.703 299.46 125.516C301.357 125.405 304.525 124.576 304.15 122.024C303.771 119.44 300.331 119.242 298.397 118.761C295.76 118.103 293.237 116.869 290.692 115.928C285.558 114.029 280.325 112.506 275.073 110.992L273.414 110.514C267.485 108.805 261.523 107.349 255.521 105.929C252.555 105.227 249.598 104.462 246.608 103.863C243.716 103.284 240.777 102.948 237.906 102.255C240.325 98.6023 237.396 95.6003 234.232 93.8618C236.239 93.4559 238.279 93.2118 240.268 92.7198C241.967 92.2999 243.604 91.6545 245.315 91.2828C248.256 90.6441 251.193 90.3082 253.703 88.4864C258.447 85.0436 258.851 79.565 254.854 75.4193C250.819 71.2351 244.898 69.2759 239.2 69.0813C232.822 68.8637 225.565 70.1004 219.596 72.3597C216.665 73.4695 213.612 74.8804 211.099 76.7706C209.389 78.0563 206.686 80.5198 204.391 80.5198C207.14 77.1949 210.512 73.7565 211.008 69.2535C211.478 64.9902 209.545 60.4587 206.302 57.7012C199.82 52.1927 189.125 52.6914 181.179 53.0544ZM218.13 235.779C219.821 238.411 222.161 240.548 224.37 242.732C225.132 243.486 226.661 244.445 226.735 245.625C226.794 246.588 225.613 247.672 225.097 248.429C222.368 252.434 220.121 256.857 216.787 260.413C213.02 264.433 208.72 265.214 203.385 265.226C197.461 265.239 191.458 265.98 185.545 265.667C180.536 265.403 175.598 263.171 173.107 258.635C174.73 257.799 177.039 258.197 178.798 258.216C181.196 258.241 183.537 258.198 185.906 257.781C188.053 257.403 190.175 256.836 192.195 256.007C193.24 255.579 194.273 255.088 195.236 254.493C195.94 254.057 196.47 253.389 197.162 252.962C199.715 251.385 202.663 256.399 205.392 256.302C207.063 256.244 206.458 254.599 205.763 253.679C204.507 252.018 202.317 250.992 200.664 249.781C202.203 248.364 203.943 249.851 205.408 250.591C207.241 251.517 209.144 252.654 211.192 253.002C211.039 250.362 207.449 248.947 205.469 247.874C204.588 247.396 203.484 246.953 203.267 245.902C203.104 245.111 203.383 243.988 203.466 243.189C203.57 242.175 203.648 241.851 204.728 241.565C206.038 241.218 207.357 241.318 208.669 240.885C212.259 239.699 215.052 237.938 218.13 235.779ZM334.82 194.181C335.697 194.424 336.583 194.635 337.474 194.823C339.236 195.195 341.001 195.581 342.77 195.919C343.657 196.088 344.642 195.98 344.904 196.828C345.038 197.262 344.7 198.042 344.642 198.493C344.538 199.307 344.531 200.131 344.521 200.951C344.429 208.498 346.006 216.002 345.312 223.549C344.725 229.927 343.352 237.992 338.669 242.743C336.647 244.793 334.16 247.02 331.615 248.421C329.62 249.519 326.833 246.763 326.425 244.855C326.133 243.487 326.62 242.044 326.937 240.726C327.344 239.037 327.756 237.349 328.158 235.66C329.018 232.053 329.8 228.412 330.047 224.704C330.128 223.486 330.11 222.313 330.042 221.1C330.004 220.441 329.694 218.854 330.155 218.29C330.75 217.56 332.111 218.037 332.917 218.099C333.8 218.168 334.663 218.115 335.526 217.889C337.581 217.352 337.941 215.719 335.697 214.962C334.131 214.434 331.268 215.199 329.952 214.182C328.406 212.988 331.531 212.824 332.26 212.793C333.232 212.751 336.455 213.006 336.29 211.194C336.168 209.851 333.394 209.762 332.424 209.704C330.35 209.583 327.726 210.359 326.83 207.858C326.471 206.856 328.633 206.347 329.176 205.851C330.495 204.643 330.927 202.572 331.041 200.876C331.152 199.208 329.511 193.425 332.012 193.272C332.78 193.225 334.056 193.969 334.82 194.181ZM211.827 227.554C213.298 229.307 214.57 231.227 215.941 233.059C212.726 234.834 209.438 236.261 206.113 237.787C204.602 238.482 203.542 239.032 202.079 237.98C201.029 237.225 200.242 236.152 199.218 235.367C197.746 234.239 196.207 233.206 194.698 232.131C199.151 230.505 203.672 229.079 208.124 227.45C209.789 226.841 210.625 226.121 211.827 227.554ZM248.493 221.985C247.541 222.951 249.374 225.627 249.735 226.543C246.783 226.309 243.855 225.843 240.955 225.244C239.968 225.04 240.332 226.242 240.701 226.639C241.158 227.13 242.072 227.278 242.683 227.453C244.93 228.098 247.235 228.408 249.542 228.752C248.486 230.051 245.947 232.083 246.764 234.037C248.239 232.765 249.3 231.073 250.931 229.974C251.403 230.678 252.381 233.159 253.452 233.007C255.135 232.769 253.43 229.868 253.078 229.17C254.211 229.17 258.469 230.165 259.063 228.77C259.67 227.342 255.562 227.389 254.803 227.051L254.944 226.879L255.086 226.707C255.654 226.022 256.2 225.347 256.277 224.407C255.006 224.844 254.158 226.836 252.762 226.865C251.438 226.892 250.847 224.902 250.375 223.96C250.107 223.424 249.196 221.272 248.493 221.985ZM105.235 203.215C102.388 205.617 104.322 210.461 106.476 212.639C108.889 215.079 114.262 217.321 117.321 214.833C118.995 213.472 118.391 211.395 117.978 209.585C117.52 207.572 117.235 205.876 115.569 204.495C112.977 202.347 108.122 200.779 105.235 203.215ZM111.013 204.611C113.79 205.202 116.604 207.977 117.264 210.838C118.13 214.589 114.237 214.864 111.673 214.3C108.446 213.591 105.019 211.224 104.854 207.512C104.712 204.308 108.855 204.152 111.013 204.611ZM313.102 188.392C317.261 189.94 321.17 192.059 325.533 192.978C326.865 193.258 327.412 193.565 327.741 194.806C328.202 196.543 328.639 198.303 328.31 200.117C327.626 203.885 322.385 203.423 319.475 203.276C317.981 203.2 315.107 203.473 313.81 202.54C312.863 201.859 313.261 200.582 313.408 199.587C313.96 195.87 313.358 192.107 313.102 188.392ZM86.3601 152.489C87.8912 152.778 90.5384 154.027 88.3432 155.592C86.8786 156.635 84.6989 156.762 82.9784 157.02C79.6174 157.524 76.0296 157.959 73.1132 159.856C67.7089 163.37 68.3709 170.002 69.9873 175.429C68.8232 176.115 65.4033 171.63 64.759 170.901C62.146 167.942 59.5223 164.993 56.8879 162.053C55.7603 160.796 65.0035 156.454 65.8342 156.063C70.2252 153.996 74.3238 152.635 79.2491 152.281C81.5847 152.113 84.0485 152.054 86.3601 152.489ZM105.424 141.489C105.844 142.548 105.109 143.027 104.434 143.758C100.658 147.844 97.9989 153.628 95.8965 158.7C94.8482 161.23 94.1139 163.78 93.4648 166.431C92.8278 169.031 90.8048 169.726 88.3808 170.464C82.7973 172.164 76.9197 172.733 71.3166 174.413C69.8153 174.863 69.5208 171.561 69.4266 170.724C69.1584 168.341 69.4077 165.855 70.659 163.755C73.0249 159.785 77.7674 158.941 81.9979 158.265C84.4171 157.878 87.6047 157.479 89.5193 155.824C90.4802 154.994 90.6163 154.041 89.8669 153.009C88.5004 151.127 86.0944 150.886 83.9446 150.732C82.8976 150.657 76.4148 151.313 76.203 150.546C79.4308 149.493 82.744 148.799 85.9245 147.596C88.4056 146.657 90.9065 145.771 93.4101 144.892L95.9141 144.014C98.4603 143.121 100.791 142.034 103.235 140.959C104.152 140.555 104.994 140.405 105.424 141.489ZM50.6707 158.706C51.4791 159.794 52.281 160.707 52.8871 161.929C53.5943 163.354 54.7672 164.263 55.748 165.487C50.655 166.386 45.7968 167.528 40.89 169.175C38.3707 170.021 35.7683 170.438 33.1914 171.044C31.0297 171.552 28.726 172.34 26.4875 171.874C29.037 168.359 35.8367 169.331 37.6267 165.074C38.8449 162.179 35.8514 159.869 33.403 159.366C29.1275 158.489 24.5696 158.421 20.2269 158.108C20.1812 156.446 35.9455 155.586 37.5042 155.451C40.2719 155.211 43.1603 154.692 45.9227 154.596C48.4866 154.507 49.3247 156.896 50.6707 158.706ZM110.826 146.549C112.345 148.017 113.831 149.518 115.348 150.988C116.345 151.955 117.696 152.984 118.483 154.136C119.486 155.606 117.728 156.313 116.557 157.009C113.6 158.766 110.544 160.406 107.535 162.077C104.832 163.578 102.02 165.489 99.0365 166.368C97.4409 166.837 95.9424 167.566 94.4033 168.183C95.1458 161.517 98.9719 155.462 102.5 149.904C103.311 148.628 104.147 147.369 104.958 146.094C105.366 145.451 106.123 143.936 106.979 143.805C108.244 143.611 110.059 145.807 110.826 146.549ZM33.4602 163.516C31.6105 164.576 29.7564 165.115 27.6702 164.314C27.1573 164.104 26.6488 163.883 26.147 163.65C27.5371 161.753 31.6486 162.909 33.4602 163.516ZM186.652 140.316C189.931 141.795 193.438 143.268 196.289 145.499C197.341 146.323 199.694 148.053 199.143 149.622C198.672 150.966 196.068 152.11 194.832 152.52C188.328 154.673 180.926 153.107 174.937 157.059C173.316 158.129 172.788 159.527 171.584 160.933C170.495 162.205 169.117 162.047 167.654 161.52C165.732 160.826 163.962 159.765 162.033 159.084C161.047 158.737 159.371 158.506 159.268 157.174C158.786 150.898 160.124 142.902 165.654 139.062C171.863 134.751 180.427 137.509 186.652 140.316ZM190.168 154.942C190.327 155.738 184.173 157.179 183.505 157.363C179.789 158.387 176.317 160.822 172.468 161.214C171.799 159.721 177.131 157.344 177.974 157.037C181.821 155.639 186.127 155.386 190.168 154.942ZM69.3296 152.155C64.6643 154.068 60.1424 156.409 56.232 159.666C54.8831 160.789 51.6063 155.459 50.8725 154.642C57.0862 154.384 63.2097 153.198 69.3296 152.155ZM156.524 114.666C160.849 117.524 164.616 121.262 169.364 123.453C167.878 123.687 166.256 122.725 164.837 122.387C163.455 122.059 162.058 121.842 160.713 121.376C159.886 121.091 156.474 119.245 155.834 120.496C154.833 122.45 161.88 123.801 162.882 124.134C166.266 125.259 169.628 126.438 172.977 127.662C176.221 128.848 179.463 130.124 182.815 130.976C186.22 131.841 189.83 132.064 193.103 133.407C195.998 134.595 198.485 136.561 201.277 137.948C204.077 139.34 207.259 140.2 209.673 142.271C207.048 145.073 203.945 147.419 200.55 149.205C200.006 144.932 195 142.499 191.575 140.857C184.108 137.276 172.895 131.877 165.285 137.945C159.723 142.38 158.969 150.794 158.969 157.382C157.463 156.902 156.087 156.138 154.688 155.418C153.719 154.918 153.708 153.528 153.586 152.599C153.386 151.079 152.975 149.606 152.503 148.147C151.459 144.92 150.152 141.772 148.906 138.619C146.89 133.519 144.405 128.49 143.166 123.125C142.357 119.623 141.395 113.605 145.615 111.867C149.266 110.364 153.56 112.707 156.524 114.666ZM175.411 100.414C176.116 100.887 175.853 102.306 175.805 103.017C175.63 105.605 175.74 108.204 175.653 110.796C175.548 113.955 175.525 119.747 172.269 121.519C170.042 122.73 167.272 120.915 165.495 119.679C162.488 117.588 159.73 115.16 156.681 113.119C153.067 110.7 146.219 107.353 142.76 111.904C140.889 114.368 141.151 118.038 141.618 120.905C142.235 124.686 143.674 128.273 145.105 131.807C148.059 139.105 151.143 146.521 152.786 154.246C149.04 152.018 146.127 148.808 142.857 145.988C140.434 143.898 136.835 141.498 136.276 138.091C136.149 137.322 135.405 136.774 134.893 136.259C134.226 135.589 133.757 134.911 133.335 134.056C132.403 132.169 131.797 130.13 131.416 128.065C130.615 123.731 130.996 119.418 131.735 115.111C132.069 113.162 131.579 111.072 132.033 109.173C132.348 107.855 133.278 107.933 134.515 107.633C138.971 106.553 143.435 105.506 147.894 104.436C149.705 104.001 151.674 103.186 153.554 103.213C155.098 103.235 156.394 104.156 157.726 104.822C159.913 105.917 163.389 107.832 165.9 106.744C168.826 105.475 165.416 102.611 166.884 101.256C167.89 100.327 170.897 100.884 172.261 100.653C173.008 100.527 174.725 99.9547 175.411 100.414ZM129.365 137.835C131.493 138.171 132.725 139.094 133.897 140.906C135.088 142.748 135.23 143.66 133.532 145.101C131.7 146.655 129.784 148.19 127.84 149.59C125.375 151.364 122.641 152.707 120.205 154.524C119.138 155.32 114.297 149.08 113.456 148.225C112.297 147.044 111.108 145.86 109.864 144.774C109.41 144.377 107.986 143.456 107.985 142.781C107.983 141.074 111.767 139.547 112.984 139.077C115.712 138.025 118.571 137.6 121.478 137.556C124.054 137.517 126.813 137.433 129.365 137.835ZM119.882 130.327C121.88 131.388 123.967 132.282 125.977 133.322C126.69 133.69 131.188 135.58 130.961 136.71C125.9 136.389 120.861 135.532 115.816 136.512C113.55 136.953 111.391 137.691 109.498 139.053C108.064 140.083 106.971 142.064 105.547 140.301C108.454 138.653 111.071 136.469 113.649 134.348C114.777 133.42 115.938 132.547 117.083 131.644C117.764 131.107 118.888 129.799 119.882 130.327ZM239.594 105.653C241.178 105.876 242.721 106.295 244.276 106.655C250.575 108.115 256.898 109.426 263.18 110.97C275.711 114.051 288.617 117.021 300.565 121.957C299.56 123.068 296.898 122.263 295.652 122.045C293.211 121.619 290.842 120.873 288.431 120.311C286.073 119.76 283.706 119.104 281.328 118.646C280.233 118.435 278.301 118.156 278.257 119.799C278.194 122.128 282.717 123.869 284.376 124.721C286.151 125.631 287.87 126.637 289.56 127.695C290.895 128.532 293.359 129.648 293.792 131.311C289.457 129.473 285.12 127.644 280.812 125.744C279.189 125.029 277.545 124.355 276 123.482C274.97 122.9 273.644 121.879 272.425 121.787C270.773 121.662 270.499 123.163 271.195 124.373C272.066 125.888 273.863 126.743 275.185 127.804C276.87 129.156 278.361 130.751 279.878 132.282C281.138 133.552 282.759 134.803 283.417 136.521C281.153 137.278 278.58 134.85 276.917 133.65C274.302 131.764 271.867 129.712 269.373 127.674C268.097 126.631 266.576 124.942 264.897 124.631C262.769 124.236 262.945 126.67 263.461 128.012C264.614 131.011 267.315 133.512 267.508 136.893C267.627 138.975 265.865 138.182 264.689 137.348C262.709 135.941 261.369 133.799 259.571 132.186C255.244 128.302 250.29 124.988 244.937 122.687C243.979 122.275 243.635 120.797 243.343 119.909C242.909 118.582 242.409 117.297 241.886 116C240.741 113.161 239.803 110.093 238.199 107.47C237.751 106.738 236.597 105.993 237.552 105.563C238.071 105.329 239.058 105.578 239.594 105.653ZM193.897 100.85C195.519 101.04 197.16 101.022 198.785 101.194C201.436 101.473 200.279 104.7 200.706 106.644C201.964 112.368 208.028 113.449 212.623 110.748C215.208 109.229 216.76 107.051 218.15 104.504C218.943 103.052 219.533 102.818 221.173 103.182C222.298 103.431 223.322 103.378 224.467 103.461C225.907 103.566 226.033 103.871 226.062 105.243C226.088 106.461 226.263 107.304 227.074 108.291C228.619 110.17 231.209 111.408 233.415 112.352C235.626 113.298 238.13 114.002 239.344 116.238C239.956 117.366 240.612 118.712 240.789 119.994C240.983 121.394 240.508 122.263 241.324 123.555C243.021 126.24 243.799 129.175 244.656 132.227C244.936 133.221 245.047 133.63 243.962 133.904C242.405 134.296 240.195 133.701 238.597 133.638C237.458 133.593 236.792 131.583 236.422 130.769C235.702 129.185 234.819 127.685 233.934 126.187C231.93 122.791 229.788 119.418 227.17 116.451C225.194 114.212 222.278 111.425 219.748 114.571C217.282 117.638 215.505 121.229 212.54 123.902C209.932 126.253 207.245 126.291 204.54 124.063C201.877 121.869 199.854 118.876 198.199 115.89C196.409 112.661 195.059 109.214 193.315 105.965C192.768 104.947 190.243 102.193 191.012 101.013C191.532 100.216 193.168 100.765 193.897 100.85ZM180.318 100.146C181.745 100.213 183.181 100.053 184.609 100.024C187.192 99.9734 189.352 100.064 190.65 102.54C191.795 104.726 192.77 107.051 193.815 109.289C196.085 114.151 198.313 119.125 201.798 123.263C204.886 126.928 208.875 128.774 212.892 125.273C214.673 123.72 216.026 121.718 217.305 119.749C218.329 118.17 219.498 115.393 221.215 114.473C223.129 113.447 225.32 115.8 226.49 117.077C228.457 119.223 230.101 121.748 231.681 124.186C232.826 125.954 233.922 127.759 235.035 129.548C235.486 130.273 237.324 132.646 236.713 133.549C236.099 134.455 233.105 133.836 232.239 133.753C230.171 133.556 228.105 133.484 226.036 133.306C219.599 132.752 213.258 131.338 206.805 130.96C202.554 130.711 198.366 129.889 194.181 129.142C190.113 128.416 186.018 127.92 181.993 126.961C179.626 126.396 177.255 125.831 174.893 125.246C174.076 125.044 170.213 124.492 169.973 123.429C172.633 122.964 174.029 121.932 174.973 119.336C176.154 116.084 176.291 112.46 176.392 109.034C176.431 107.716 176.437 106.397 176.438 105.079L176.438 103.497C176.438 102.551 176.03 100.835 176.882 100.179C177.67 99.5723 179.404 100.102 180.318 100.146ZM127.511 121.144C127.4 125.429 128.165 129.748 129.924 133.662C128.084 133.957 125.896 131.647 124.352 130.874C123.757 130.575 119.82 129.144 121.138 128.05C123.564 126.037 125.154 123.225 127.511 121.144ZM74.7407 124.629C74.201 125.694 74.8676 127.046 75.2286 128.057C72.4205 128.732 69.624 129.395 66.7948 129.968C64.6625 130.4 65.4064 131.68 67.2573 131.591C69.8313 131.469 72.2262 130.378 74.7876 130.236C77.2275 130.101 77.5147 132.232 79.5949 132.643C79.5241 131.47 78.5761 130.656 77.8952 129.776C79.0178 129.2 80.1646 128.664 81.2535 128.029C81.8177 127.7 83.3759 126.321 82.776 125.589C82.1703 124.849 80.5821 126.235 80.0169 126.54C79.2135 126.974 77.6096 127.931 76.6647 127.657C75.3698 127.281 75.6394 125.421 74.7407 124.629ZM115.201 96.7113C116.34 96.7904 117.579 96.407 118.658 96.9086C119.734 97.4088 121.018 98.5039 121.918 99.2633C122.789 99.9985 123.222 100.891 124.305 101.325C125.387 101.759 126.495 101.721 126.912 103.044C125.93 103.313 124.004 102.956 123.235 103.678C122.117 104.728 124.068 105.884 124.877 106.214C126.038 106.688 126.987 106.534 128.174 106.446C128.69 106.407 128.685 106.248 129.108 106.504C130.677 107.453 129.592 110.827 129.083 112.059C126.593 118.084 118.086 116.055 113.181 115.438C114.742 113.865 117.298 112.129 117.427 109.658C117.466 108.922 117.283 107.607 116.339 107.545C115.584 107.497 114.678 108.638 114.208 109.087C112.814 110.421 111.011 112.631 108.995 112.822C106.3 113.078 104.227 108.712 103.109 106.807C104.483 106.549 105.988 106.564 106.786 105.216C107.735 103.614 107.752 101.159 107.735 99.3549C107.721 97.8188 107.232 96.1384 109.284 96.063C111.175 95.9936 113.292 96.579 115.201 96.7113ZM296.14 100.651C296.532 101.508 298.238 101.844 298.987 102.073C301.836 102.943 304.618 104.049 307.396 105.134C313.003 107.324 318.55 109.743 323.67 112.961C324.627 113.563 324.158 112.402 323.91 111.983C323.352 111.045 322.182 110.381 321.307 109.806C318.941 108.25 316.435 107.157 313.818 106.117C308.583 104.034 303.267 101.826 297.898 100.14C297.275 99.9442 295.612 99.4999 296.14 100.651ZM231.105 104.894C232.146 105.002 233.365 104.765 234.366 105.105C235.671 105.548 235.456 106.444 235.842 107.545C236.497 109.415 237.197 111.27 237.881 113.13C235.351 113.012 232.929 111.009 230.785 109.856C229.572 109.203 225.353 107.037 226.625 105.054C227.431 103.798 229.949 104.774 231.105 104.894ZM202.319 101.633C203.885 101.605 205.607 102.079 207.192 102.158C209.318 102.264 211.411 102.668 213.533 102.766C214.93 102.831 216.301 103.118 217.682 103.306C216.308 106.492 213.625 109.279 210.254 110.433C207.594 111.343 203.872 111.498 202.055 108.979C201.009 107.529 199.302 101.688 202.319 101.633ZM120.762 88.473C122.47 89.608 123.839 91.2346 125.266 92.6858C128.839 96.3203 132.537 100.212 134.084 105.194C134.297 105.876 132.685 106.479 132.249 106.506C131.328 106.561 131.14 106.096 130.778 105.317C129.883 103.389 129.54 101.234 128.108 99.5891C126.362 97.5837 124.26 95.6287 122.234 93.906C120.857 92.7354 117.483 91.0871 117.087 89.1518C116.619 86.8639 119.728 87.7858 120.762 88.473ZM164.817 101.712C165.783 101.993 165.86 102.887 166.08 103.851C166.968 107.721 157.99 103.498 156.739 102.865C157.155 101.623 161.247 101.849 162.195 101.801C162.933 101.763 164.104 101.504 164.817 101.712ZM111.78 103.722C113.111 103.774 112.497 98.3366 110.985 98.8834C109.688 99.3528 110.927 103.689 111.78 103.722ZM298.824 97.4708C300.861 99.2301 304.06 99.4661 306.593 100.031C310.325 100.863 314.025 101.924 317.727 102.881C320.065 103.485 318.749 102.044 317.578 101.502C315.566 100.571 313.287 100.075 311.136 99.5628C308.807 99.0083 306.427 98.6379 304.112 98.0329C302.508 97.6137 300.441 96.5417 298.824 97.4708ZM235.443 59.658C233.179 60.074 230.919 60.7984 228.935 61.9851C227.291 62.9675 227.357 64.4959 229.44 63.609C239.156 59.4713 251.212 61.9778 260.7 65.6416C261.747 66.0456 261.669 65.1641 261.353 64.4846C260.917 63.5485 259.986 63.0051 259.092 62.5705C256.407 61.264 253.312 60.5252 250.392 59.9825C245.526 59.078 240.332 58.7602 235.443 59.658ZM234.023 53.7149C232.789 54.0499 231.371 54.8809 230.616 55.9351C229.732 57.1688 230.435 57.7993 231.661 57.0737C233.029 56.264 234.281 55.4567 235.852 55.029C236.681 54.8035 236.647 54.2832 236.052 53.8265C235.494 53.3988 234.629 53.5506 234.023 53.7149Z" fill="black"/>
<g style="mix-blend-mode:overlay">
<path fill-rule="evenodd" clip-rule="evenodd" d="M81.3237 67.4005L120.445 277.151L281.094 142.35L81.3237 67.4005Z" fill="#85A090"/>
</g>
<g style="mix-blend-mode:overlay">
<path fill-rule="evenodd" clip-rule="evenodd" d="M93.8066 107.228L30.6657 88.2432L24.2085 103.249L86.7421 130.278L93.8066 107.228Z" fill="#389DFF"/>
</g>
<g style="mix-blend-mode:overlay">
<path fill-rule="evenodd" clip-rule="evenodd" d="M69.5742 70.7483L6.76167 50.6875L1.00976 63.3929L63.5441 90.425L69.5742 70.7483Z" fill="#389DFF"/>
</g>
<g style="mix-blend-mode:overlay">
<path fill-rule="evenodd" clip-rule="evenodd" d="M382 254.065L318.859 235.081L312.402 250.086L374.935 277.116L382 254.065Z" fill="#389DFF"/>
</g>
<g style="mix-blend-mode:overlay">
<path fill-rule="evenodd" clip-rule="evenodd" d="M357.768 217.586L294.955 197.525L289.203 210.231L351.737 237.263L357.768 217.586Z" fill="#389DFF"/>
</g>
</svg>
