<svg width="1440" height="500" viewBox="0 0 1440 500" fill="none" xmlns="http://www.w3.org/2000/svg">
<mask id="mask0" mask-type="alpha" maskUnits="userSpaceOnUse" x="0" y="0" width="1440" height="500">
<rect width="1440" height="500" fill="#EDF1F7"/>
</mask>
<g mask="url(#mask0)">
<path fill-rule="evenodd" clip-rule="evenodd" d="M254.971 -45.5435L1153.5 659.705L1261.36 512.624L302.488 -186.881L254.971 -45.5435Z" fill="#F6EDEE"/>
<path fill-rule="evenodd" clip-rule="evenodd" d="M821.343 336.041C823.953 362.283 826.563 388.526 829.172 414.767C843.381 406.693 857.591 398.618 871.8 390.544V450.327V466.041C871.8 467.432 870.971 472.208 871.8 473.412C872.503 474.433 877.71 474.462 878.941 474.635C886.975 475.755 895.028 476.752 903.093 477.638C924.347 479.976 947.097 483.325 968.433 480.639C986.979 478.304 1004.96 471.735 1021.9 464.09C1027.85 461.407 1033.72 458.535 1039.47 455.465C1040.7 454.815 1045.13 453.278 1045.79 451.954C1046.33 450.871 1045.06 447.069 1044.89 445.932C1044.17 441.137 1043.46 436.342 1042.74 431.547L1032.74 364.59L1051.63 383.376C1053.11 384.848 1055.92 389.027 1057.97 389.679C1059.47 390.157 1063.19 388.677 1064.67 388.392C1075.37 386.34 1086.07 384.287 1096.77 382.235C1099.26 381.756 1104.87 381.774 1106.97 380.275C1108.1 379.467 1108.16 377.824 1108.56 376.267C1111.17 366.088 1113.78 355.91 1116.38 345.732C1116.85 343.898 1119.48 338.118 1118.81 336.272C1118.57 335.61 1117.41 335.157 1116.71 334.726C1100.56 324.906 1084.42 315.086 1068.27 305.266C1059.43 299.887 1050.58 294.508 1041.74 289.129C1038.04 286.875 1033.49 282.815 1029.29 281.554C1026.68 280.771 1022.89 281.358 1020.19 281.281C1014.71 281.125 1009.24 280.97 1003.76 280.814C1002.9 280.79 999.893 280.181 999.171 280.684C998.57 281.103 998.818 281.687 998.622 282.685C998.14 285.123 998.136 287.752 997.899 290.227C997.708 292.214 998.087 295.856 997.188 297.653C996.614 298.802 997.342 298.345 996.565 298.9C995.64 299.561 992.688 299.348 991.587 299.475C986.218 300.097 980.848 300.718 975.478 301.339C969.095 302.077 962.639 303.463 956.225 302.824C946.502 301.858 936.018 301.906 926.47 299.866C923.989 299.335 923.095 297.943 921.181 296.04C917.445 292.325 913.747 288.567 909.971 284.891C908.119 283.09 908.912 283.395 907.004 284.079C904.612 284.934 902.187 287 900.023 288.314C891.729 293.344 883.436 298.375 875.143 303.406L824.511 334.119C823.455 334.76 822.399 335.4 821.343 336.041Z" fill="#FFAEAD"/>
<path fill-rule="evenodd" clip-rule="evenodd" d="M1305.62 339.301C1295.18 378.762 1274.19 421.789 1231.9 434.367C1221.62 437.424 1211.62 439.733 1200.94 438.569C1199.92 438.458 1199.07 438.6 1198.1 438.618C1196.37 438.651 1197.87 439.271 1195.93 438.674C1194.41 438.208 1192.99 437.043 1191.42 436.528C1187.22 435.161 1182.74 434.896 1178.48 433.792C1168 431.077 1157.2 427.725 1147.05 423.981C1142.26 422.218 1137.87 419.763 1133.37 417.402C1128.8 415.002 1123.96 413.512 1119.33 411.31C1115.68 409.57 1109.42 407.303 1106.85 404.039C1104.11 400.559 1107.9 393.149 1108.99 389.449C1112.67 376.858 1117.06 364.452 1119.82 351.611C1129.38 362.644 1142.65 369.476 1156.39 373.883C1163.84 376.274 1171.5 378.003 1179.26 379.085C1186.29 380.066 1193.89 381.254 1200.94 379.86C1206.27 378.808 1212.95 376.37 1216.75 372.322C1218.11 370.877 1219.74 368.228 1218.98 366.129C1218.01 363.464 1215.2 364.718 1213.68 362.73C1212.35 360.998 1212.56 356.946 1212.14 354.837C1211.39 351.104 1210.36 347.473 1209.11 343.88C1206.68 336.903 1203.64 329.91 1202.92 322.485C1202.29 316.044 1203.76 309.953 1206.99 304.364C1208.51 301.721 1212.34 294.534 1216.08 294.832C1220.18 295.159 1214.65 312.384 1214.47 315.898C1213.75 329.826 1215.62 344.667 1222.8 356.875C1225.55 361.55 1229.52 366.992 1235.39 367.572C1241.61 368.184 1246.62 363.315 1249.58 358.388C1256.79 346.368 1253.15 329.874 1249.5 317.276C1245.02 301.819 1233.31 291.165 1225.91 277.284C1236.96 278.39 1242.88 285.38 1248.55 294.247C1254.79 304.01 1259.65 315.732 1262.05 327.091C1263.26 332.831 1262.42 338.594 1262.43 344.39C1262.43 346.315 1262.43 353.419 1265.58 353.139C1268.95 352.84 1270.11 344.828 1270.6 342.384C1271.74 336.779 1272.97 331.172 1273.95 325.539C1275.7 315.572 1276.47 305.363 1278.56 295.465C1278.92 293.792 1279.62 289.15 1282.14 290.403C1284.08 291.368 1283.76 298.548 1283.84 300.217C1284.01 304.33 1284.25 308.442 1284.29 312.559C1284.34 318.661 1283.12 324.976 1283.71 331.04C1284.11 335.003 1286.24 339.381 1288.89 334.037C1291.51 328.738 1292.05 322.128 1293.51 316.429C1295.05 310.445 1296.64 304.373 1299.9 299.059C1300.81 297.584 1301.78 295.244 1303.79 295.937C1305.25 296.442 1306.33 299.892 1306.78 301.11C1308.82 306.613 1308.48 312.732 1308.35 318.494C1308.19 325.554 1307.43 332.457 1305.62 339.301ZM1102.1 349.542C1101.54 349.362 1099.17 349.139 1098.58 349.088C1097.9 349.028 1098.68 347.764 1097.01 348.123C1097.33 348.918 1097.9 349.447 1098.73 349.713C1096.22 350.558 1094.37 348.473 1092.66 348.204C1091.02 347.948 1090.95 348.204 1089.33 349.928C1087.58 347.799 1087.9 349.127 1086.46 349.128C1085.94 349.129 1085.92 349.918 1085.06 349.824C1084.32 349.74 1084.24 348.615 1083.8 348.482C1081.41 347.761 1078.95 351.388 1076.23 348.242C1075.57 351.516 1068.04 347.415 1065.15 347.991C1062.11 348.592 1063.42 349.677 1060.96 347.823C1058.63 346.058 1059.28 347.23 1056.56 348.676C1056.62 348.642 1055.02 349.718 1055.17 349.735C1053.29 349.516 1053.39 347.576 1051.01 347.68C1048.48 347.789 1047.41 349.759 1045.1 347.335C1044.59 349.151 1044.49 348.368 1043.31 348.826C1042.65 348.98 1042.09 348.809 1041.6 348.315C1041.45 348.814 1041.12 349.12 1040.62 349.233C1039.33 349.348 1036.91 349.527 1035.74 348.909C1033.98 347.98 1035.39 347.624 1034.18 346.58C1033.63 349.459 1032.43 348.846 1029.91 349.115C1027.98 349.321 1027.56 348.732 1025.72 348.446C1023.9 348.164 1021.56 348.865 1019.8 349.163C1019.07 349.287 1018.09 349.793 1017.35 349.615C1016.68 349.455 1016.39 348.938 1015.99 348.802C1015.5 348.639 1015.61 348.216 1014.77 348.012C1014.19 347.871 1013.16 348.411 1012.58 348.505C1008.46 349.171 1004.5 349.178 1000.57 347.563C1002.5 350.951 996.043 349.122 994.891 347.719C993.451 349.966 991.709 348.38 988.807 348.555C986.012 348.724 981.809 349.576 980.676 346.11C980.454 346.814 978.868 348.859 978.237 349.172C976.405 350.076 976.187 348.738 974.483 348.194C972.165 347.452 972.649 348.859 971.211 349.146C968.785 349.629 967.473 347.928 965.328 347.023C965.238 348.43 965.191 349.295 963.97 350.17C962.889 346.249 959.03 350.491 959.692 345.25C958.224 346.202 956.158 346.934 955.74 348.859C958.195 348.187 956.001 349.785 955.899 349.838C955.574 350.007 954.478 348.475 954.223 348.259C954.154 348.982 954.085 349.705 954.015 350.428C953.037 349.941 952.119 349.068 951.325 348.632C950.609 348.238 951.635 347.419 950.426 347.362C949.789 347.332 949.124 348.706 948.456 348.823C947.433 349.002 947.924 347.541 947.497 347.59C946.845 347.665 945.783 348.614 945.29 348.596C943.673 348.536 944.767 347.787 943.534 347.444C941.33 346.829 941.472 348.265 939.888 348.782C936.263 349.967 936.627 344.514 932.939 348.151C932.057 349.022 931.489 350.365 930.281 350.29C927.777 350.134 928.656 347.179 929.165 345.732C929.691 345.991 920.02 350.938 920.097 350.744C920.158 349.557 921.679 348.643 920.32 347.589C919.208 349.964 918.039 350.006 915.476 350.448C914.23 350.663 913.984 350.95 912.651 350.434C911.802 350.106 911.232 348.757 910.387 348.683C910.501 348.693 908.951 349.868 908.714 349.974C907.315 350.601 906.43 349.889 905.071 350.148C903.912 350.368 903.456 351.349 902.303 351.081C900.764 350.723 901.668 348.892 899.551 349.403C898.826 349.577 898.392 350.966 897.251 351.253C895.474 351.701 893.295 350.866 891.416 351.302C889.925 351.648 888.818 351.795 887.514 351.867C886.461 351.926 886.894 351.11 884.955 352.073L884.133 350.009C883.162 350.879 882.191 351.747 881.221 352.617C881.036 351.837 880.92 351.049 880.87 350.249C879.423 351.694 877.599 351.94 875.653 352.07C873.546 352.21 871.975 352.668 869.925 353.052C869.276 353.173 867.607 353.366 867.074 353.14C867.152 353.173 866.077 352.728 866.401 352.813C866.261 352.529 866.131 352.241 866.011 351.948C865.831 351.134 865.242 351.098 864.248 351.841C863.733 351.762 862.736 351.09 862.223 351.256C860.9 351.682 861.08 352.704 859.762 352.554C858.908 352.456 858.471 351.198 857.581 351.113C856.218 350.983 855.037 352.501 853.81 352.833C857.542 351.824 848.968 352.606 851.634 352.676C849.886 352.631 848.072 352.544 846.456 353.324C845.564 352.717 846.648 351.495 845.746 350.992C844.928 350.536 844.865 351.74 844.769 351.767C845.285 351.622 845.028 352.646 844.511 352.828C842.903 353.396 841.616 351.953 841.532 350.521C840.165 352.569 839.782 351.746 837.772 351.872C835.789 351.997 834.08 353.032 832.096 353.013C828.174 352.976 825.513 351.618 824.203 348.13C828.383 348.638 832.59 345.961 836.676 346.592C838.02 346.799 838.859 347.804 840.035 347.625C841.485 347.406 842.497 345.83 844.356 345.66C848.457 345.287 852.499 345.651 856.628 345.025C861.56 344.277 866.706 343.834 871.685 344.198C875.532 344.48 878.648 343.015 882.549 342.733C887.594 342.367 892.681 342.302 897.734 342.038C902.926 341.767 908.513 340.942 913.691 341.206C915.308 341.289 916.699 341.446 918.303 341.35C918.981 341.309 919.624 340.851 920.336 340.919C921.263 341.008 921.661 341.953 922.623 341.921C924.258 341.865 926.004 340.524 927.947 340.487C931.141 340.428 934.322 340.435 937.524 340.253C940.344 340.094 943.365 339.438 946.172 339.474C948.151 339.498 948.64 341.178 949.794 341.352C951.868 341.663 962.363 335.716 963.27 341.054C968.734 337.33 976.061 340.483 982.143 339.784C989.956 338.884 997.912 339.686 1005.78 339.366C1013.78 339.04 1022.02 339.341 1029.99 340.093C1033.29 340.404 1036.48 340.696 1039.79 340.507C1041.27 340.423 1042.97 340.048 1044.45 340.387C1044.81 340.469 1047.55 342.372 1047.21 342.427C1048.7 341.09 1047.69 340.894 1050.32 340.826C1052.35 340.773 1054.27 341.209 1056.28 341.328C1059.9 341.541 1063.55 341.041 1067.16 341.152C1070.18 341.243 1073.13 341.686 1076.16 341.708C1079.42 341.732 1083.28 341.823 1085.65 344.447C1085.4 343.623 1085.15 342.8 1084.9 341.976C1088.55 342.26 1092.15 343.556 1095.84 342.95C1094.9 343.84 1093.96 344.567 1093.6 345.872C1095.59 345.621 1096.94 344.239 1099.03 344.227C1100.79 344.217 1101.15 345.095 1103.01 343.96C1103.24 345.351 1103.47 346.742 1103.7 348.131C1106.27 347.529 1104.58 345.62 1104.77 343.899C1106.86 344.524 1108.63 343.806 1107.8 346.8C1107.17 349.107 1104.27 350.245 1102.1 349.542ZM1098.49 375.249C1097.59 377.757 1089.83 376.324 1088 376.059C1085.63 375.717 1082.92 375.175 1080.74 374.907C1080.48 374.559 1080.16 374.264 1079.8 374.022C1079.52 374.402 1079.18 374.673 1078.76 374.831C1077.76 375.05 1077.75 376.08 1076.44 375.852C1076.37 377.376 1077.44 376.51 1078.25 377.063C1076.2 378.433 1077.14 376.856 1075.99 376.881C1075.7 376.478 1075.3 376.32 1074.8 376.407C1074.15 376.574 1073.55 376.85 1073 377.236C1072.49 377.775 1072.05 377.803 1071.68 377.32C1071.33 376.969 1070.9 376.752 1070.4 376.67C1068.38 376.998 1067.81 377.891 1065.54 377.745C1062.28 377.536 1058.76 378.39 1055.56 377.94C1053.58 377.662 1050.26 374.557 1049.36 377.584C1047.99 375.34 1045.81 373.814 1044.49 371.521C1050.61 371.169 1056.73 370.75 1062.85 370.53C1068.21 370.337 1074.08 370.938 1079.09 370.686C1083.78 370.451 1088.75 369.934 1093.54 369.507C1098.62 369.056 1100.3 370.165 1098.49 375.249ZM938.871 375.619C941.093 376.231 943.208 374.843 945.363 375.282C946.075 375.427 947.55 376.719 947.874 376.744C948.467 376.791 950.211 375.523 950.959 375.353C955.692 374.281 961.424 374.395 966.155 375.054C968.663 375.403 969.047 374.26 971.236 373.705C973.51 373.128 976.743 373.573 979.139 373.413C984.773 373.038 990.406 373.305 996.002 372.895C1001.75 372.473 1007.46 372.245 1013.21 371.95C1017.13 371.75 1026.54 369.526 1029.78 372.42C1032.46 374.807 1029.01 378.951 1026.33 379.897C1024.33 380.603 1023.37 379.115 1021.89 379.257C1020.2 379.418 1020.79 381.41 1019.27 379.563C1018.34 381.399 1012.46 380.616 1010.77 380.738C1007.1 381.002 1003.99 381.736 1001.49 378.323C1001.66 379.307 1001.83 380.292 1002 381.276C998.68 379.511 995.121 380.076 992.242 380.692C990.817 380.996 986.442 383.101 984.897 382.193C983.835 381.569 985.708 380.501 983.915 379.968C982.975 379.689 981.353 381.242 980.206 381.164C977.028 380.947 977.93 378.819 974.809 381.527C973.752 380.616 973.401 379.069 973.54 377.742C971.273 379.667 971.463 382.876 967.41 382.289C965.9 382.07 965.622 380.536 964.835 380.253C963.157 379.65 962.967 380.734 961.514 381.593C960.965 381.916 960.297 382.437 959.651 382.502C958.324 382.634 958.113 382.027 957.932 382.047C957.049 382.144 955.937 382.59 954.889 382.271C953.949 381.984 953.674 380.333 952.018 380.719C950.433 381.089 950.42 382.161 950.708 383.766C949.144 383.605 948.199 382.738 947.03 381.799C945.849 384.541 943.364 382.27 941.989 384.583C940.198 382.454 939.049 383.04 936.828 380.961C936.937 381.828 937.046 382.696 937.155 383.564C935.421 383.231 934.65 382.014 933.171 383.625C931.735 380.961 927.382 384.756 925.147 382.184C924.151 385.442 917.557 384.662 914.772 384.719C912.304 384.769 910.478 384.568 908.066 385.138C905.935 385.643 902.983 386.166 900.978 385.935C899.669 385.784 898.238 385.545 896.606 385.722C894.254 385.976 892.223 387.188 889.787 386.615C886.119 385.751 883.87 380.953 887.956 378.845C890.752 377.403 895.789 377.937 898.866 377.671C903.966 377.229 909.681 376.304 914.788 376.725C918.771 377.053 922.401 376.107 926.465 375.707C929.525 375.406 934.539 374.864 936.535 377.884C937.301 377.002 937.222 375.165 938.871 375.619ZM883.045 416.955C882.497 414.239 905.812 412.743 908.126 412.566C912.984 412.193 917.856 411.927 922.726 411.804C926.729 411.702 930.466 412.463 934.47 411.851C938.21 411.28 942.723 410.109 945.978 412.745C946.457 409.14 960.49 410.896 963.161 410.906C974.783 410.948 985.905 410.975 997.148 410.258C1003.57 409.849 1010.4 409.297 1016.82 409.617C1019.72 409.762 1022.05 410.531 1024.94 409.864C1026.82 409.428 1028.84 408.522 1030.64 409.803C1032.74 411.303 1033.64 416.393 1032.19 418.518C1031.14 420.067 1030.2 419.895 1028.52 419.627C1025.92 419.216 1024 418.619 1021.35 419.669C1021.78 419.498 1019.58 419.987 1019.76 419.973C1016.77 420.196 1012.66 422.279 1010.08 419.878C1011.11 420.058 1012.62 418.22 1011.31 418.068C1010.33 417.956 1009.71 419 1008.95 419.35C1006.34 420.548 1005 420.173 1003.44 417.662C1000.29 420.374 999.953 419.624 998.571 416.283C997.508 417.099 997.279 419.029 996.442 419.662C996.317 419.756 996.832 420.928 996.228 420.88C995.667 420.835 995.484 419.919 995.052 419.847C994.777 419.8 994.633 418.998 994.37 418.949C994.084 418.896 993.79 419.409 993.466 419.394C992.601 419.353 990.128 421.186 991.015 418.614C989.705 420.274 989.141 419.215 988.668 417.705C987.155 418.85 985.643 419.995 984.13 421.14C983.426 419.193 982.216 419.723 980.692 420.403C981.152 419.05 980.864 417.771 979.713 418.711C979.046 419.256 978.598 420.985 977.915 421.719C975.154 418.933 974.149 419.697 970.333 420.06C968.877 420.197 967.067 420.465 965.766 419.589C964.621 418.819 963.975 415.993 962.018 418.276C962.454 417.768 961.771 421.669 961.65 422.288C960.788 421.709 960.055 420.997 959.451 420.152C958.325 422.372 955.37 420.38 952.948 420.834C949.136 421.548 945.203 422.751 941.835 419.925C941.597 420.837 938.838 421.999 938.835 422.034C938.998 420.419 940.022 420.987 937.931 420.68C937.547 420.624 937.11 421.313 936.747 421.389C935.501 421.645 934.045 421.402 932.79 421.366C927.566 421.216 922.784 422.369 917.625 422.787C915.886 422.927 913.824 423.204 912.191 422.551C910.509 421.878 910.555 421.114 908.853 421.547C909.392 421.41 907.79 423.086 907.877 423.023C907.648 423.188 906.694 422.371 906.354 422.432C906.255 422.79 906.157 423.147 906.058 423.504C905.648 423.454 905.237 423.403 904.828 423.353C903.706 423.503 902.694 422.373 901.64 422.334C901.834 422.341 898.796 423.468 898.934 423.536C896.813 422.483 897.422 422.788 894.732 423.429C892.189 424.035 889.657 423.894 887.047 424.272C879.457 425.37 883.98 421.582 883.045 416.955ZM876.342 454.743C874.915 452.728 878.712 452.031 879.925 451.853C881.92 451.56 884.566 452.142 885.895 451.827C887.919 451.347 889.873 450.203 892.152 449.893C895.027 449.501 897.926 449.438 900.814 449.192C901.776 449.11 902.967 448.78 903.902 448.836C905.296 448.919 905.875 449.653 907.001 449.659C908.917 449.668 911.282 448.463 913.246 448.242C915.762 447.958 918.302 447.825 920.83 447.7C926.156 447.437 931.427 447.546 936.75 447.54C939.177 447.536 945.643 445.027 946.853 447.841C948.537 445.709 952.854 445.999 955.26 445.938C959.499 445.829 963.695 445.422 967.93 445.226C971.557 445.058 975.609 445.831 979.171 445.289C981.133 444.991 981.784 444.365 984.01 444.648C985.663 444.857 988.184 443.986 989.604 444.371C989.53 444.351 991.375 445.49 990.8 445.526C991.433 445.485 991.396 445.927 992.095 445.73C993.013 445.472 992.592 444.323 994.494 443.914C997.462 443.277 1001.42 444.015 1004.5 443.851C1007.49 443.692 1010.48 443.624 1013.47 443.638C1014.85 443.644 1016.56 443.316 1017.9 443.584C1018.55 443.715 1019.95 444.569 1020.51 444.483C1022.09 444.238 1022.89 443.146 1025.02 443.214C1027.44 443.29 1029.62 443.257 1032.02 443.073C1034.35 442.897 1034.72 442.565 1035.88 444.494C1037.02 446.408 1037.33 448.899 1035.23 450.2C1036.6 450.11 1038.28 451.934 1036.67 452.943C1035.67 453.567 1033.68 452.159 1032.48 452.26C1031.01 452.386 1029.86 453.159 1028.26 453.207C1026.58 453.258 1024.88 453.68 1023.22 453.712C1021.49 453.745 1020.19 452.977 1018.55 453.304C1017.11 453.593 1016.96 454.768 1015.22 453.736C1014.36 453.222 1014.22 451.32 1013.04 451.302C1011.46 451.278 1012.09 453.306 1011.19 454.245C1010.94 451.346 1008.7 456.143 1007.8 452.624C1006.98 453.792 1003.93 455.427 1002.45 454.488C1001.1 453.633 1001.55 451.696 1000.99 450.301C1000.06 452.808 997.55 455.41 997.777 450.845C996.56 452.337 993.271 452.101 994.095 454.712C993.104 454.693 992.869 453.283 992.034 453.177C991.314 453.085 990.742 453.636 990.632 453.628C991.026 453.66 989.452 454.182 989.427 454.188C990.493 453.972 986.352 453.604 987.057 453.61C986.096 453.602 984.92 454.386 983.797 454.384C982.773 454.381 981.755 453.98 980.745 453.865C978.125 453.567 978.67 454.14 977.026 454.959C976.416 455.263 976.263 455.777 975.398 455.713C974.76 455.665 974.521 454.835 974.449 454.828C973.551 454.738 974.214 454.438 972.82 454.577C972.66 454.851 972.501 455.124 972.341 455.398C971.837 456.039 971.184 456.2 970.383 455.88C968.32 456.32 961.479 458.23 962.149 454.694C961.101 455.204 960.053 455.714 959.004 456.225C958.555 453.374 952.86 457.154 951.588 457.345C949.956 457.589 949.805 456.965 948.262 456.633C947.984 456.573 947.426 457.487 946.774 457.356C945.081 457.017 944.779 456.849 944.489 455.018C943.282 457.265 942.279 456.26 940.089 456.63C939.605 456.712 939.296 457.661 938.6 457.498C938.099 457.38 938.085 456.468 937.74 456.35C937.429 456.243 937.476 455.524 937.017 455.421C936.492 455.303 934.701 456.766 934.187 456.991C933.028 457.5 931.125 458.342 929.994 458.09C928.595 457.778 929.217 456.746 927.241 456.862C924.123 457.044 922.822 459.687 920.882 455.523C920.007 457.191 920.118 457.643 918.712 458.194C917.673 458.6 915.041 458.176 913.673 458.125C907.83 457.91 902.085 459.893 896.291 459.374C893.744 459.146 891.596 458.638 889.026 459.053C886.326 459.49 883.684 460.131 880.944 460.39C879.551 460.521 876.64 460.919 875.957 459.146C875.355 457.584 877.599 456.52 876.342 454.743ZM887.801 518.762C880.222 523.811 873.946 530.705 866.987 536.543C860.01 542.397 854.474 548.903 848.2 555.386C842.398 561.377 837.069 567.046 830.056 571.573C825.618 574.439 821.659 577.966 817.1 580.668C813.686 582.692 808.513 585.353 810.179 579.164C811.887 572.821 815.039 566.41 817.776 560.486C821.667 552.065 825.588 543.723 829.798 535.461C831.381 532.358 832.266 529.268 834.775 526.796C837.506 524.105 839.418 520.592 842.408 518.049C854.985 507.355 873.94 515.617 887.801 518.762ZM911.575 522.387C908.137 524.182 904.289 524.626 900.646 525.813C897.541 526.824 894.654 528.622 891.316 528.756C894.355 526.483 896.966 523.395 900.393 521.669C904.248 519.728 907.747 521.141 911.575 522.387ZM1062.47 537.343C1049.82 533.094 1038.05 526.833 1025.73 521.794C1023.61 520.924 1006.98 515.471 1007.32 512.875C1018.97 510.749 1030.97 507.101 1042.65 511.079C1053.27 514.697 1061.92 523.376 1070.14 530.64C1072.29 532.536 1085.56 541.167 1084.37 543.916C1083.55 545.821 1077.15 545.301 1075.64 544.911C1073.69 544.406 1072.57 543.227 1071.04 541.931C1068.48 539.766 1065.65 538.413 1062.47 537.343ZM1039.12 466.354C1041.04 464.594 1042.19 461.924 1044.03 460.3C1046.39 458.212 1050.19 459.229 1052.77 460.313C1060.5 463.567 1067.11 469.037 1074.79 472.432C1083.31 476.195 1090.68 481.223 1098.36 486.405C1105.38 491.141 1112.97 495.062 1120.14 499.582C1127.44 504.189 1135.62 507.184 1143.02 511.627C1150.56 516.15 1158.06 520.691 1165.3 525.674C1178.21 534.561 1191.65 543.686 1201.2 556.321C1206.11 562.815 1210.71 570.182 1214.31 577.474C1217.59 584.104 1221.14 593.306 1216.89 600.203C1212.82 606.825 1205.87 612.043 1199.99 616.984C1197.77 618.855 1195.65 621.128 1192.76 621.94C1189.25 622.925 1185.16 622.653 1181.55 622.944C1162.24 624.503 1144.26 623.032 1125.24 619.594C1106.9 616.279 1088.48 614.423 1069.99 612.119C1059.57 610.819 1049.14 609.306 1038.86 607.141C1034.46 606.216 1029.99 605.149 1025.68 603.888C1021.93 602.787 1018.77 600.363 1014.9 599.403C998.508 595.325 979.748 593.767 963.516 586.908C977.88 580.964 993.145 577.373 1007.87 572.433C1023.36 567.234 1038.49 562.872 1054.83 561.394C1063.23 560.634 1070.75 558.497 1078.83 556.26C1086.54 554.128 1094.58 553.475 1102.49 552.519C1106.01 552.095 1116.06 552.731 1117.22 548.15C1118.96 541.33 1109.09 540.543 1104.88 541.154C1098.92 542.02 1094 543.503 1089.43 538.628C1084.77 533.65 1080.24 528.553 1075.49 523.637C1066.69 514.523 1057.61 503.982 1045.17 499.893C1029.99 494.904 1012.38 499.64 997.238 502.476C981.239 505.472 965.267 508.341 949.568 512.696C943.067 514.5 934.683 518.473 927.935 517.835C921.286 517.205 913.754 516.121 907.328 514.211C904.421 513.348 902.03 511.746 899.429 510.253C896.046 508.312 892.339 507.067 888.749 505.558C881.488 502.507 874.411 499.696 866.578 498.496C859.982 497.486 852.978 496.887 846.585 499.19C840.314 501.449 834.757 506.049 830.382 510.963C825.629 516.301 821.701 522.284 817.805 528.249C815.935 531.111 813.653 533.61 811.715 536.408C810.089 538.758 809.14 541.37 807.419 543.654C803.568 548.765 800.954 555.302 798.62 561.248C796.027 567.851 793.146 575.705 793.765 582.888C793.999 585.604 794.244 589.2 795.298 591.717C796.64 594.92 798.553 594.838 801.31 596.046C806.047 598.121 807.376 603.856 813.497 602.738C819.239 601.69 824.219 596.978 828.408 593.221C833.869 588.328 839.094 583.167 844.319 578.025C849.68 572.748 854.964 566.895 859.229 560.687C860.908 558.243 862.217 555.483 864.201 553.257C866.728 550.422 869.565 550.082 872.997 548.953C903.003 539.08 933.153 529.557 964.095 523.038C971.509 521.476 978.982 519.461 986.264 517.382C993.988 515.178 997.988 517.508 1004.36 521.704C1017.68 530.473 1033.42 536.649 1048.25 542.37C1052.92 544.172 1060.35 544.286 1064 547.839C1042.37 551.123 1021.75 557.443 1000.88 563.736C990.591 566.838 980.184 569.528 969.856 572.495C959.524 575.463 949.586 579.309 939.396 582.655C929.255 585.985 918.538 587.344 908.299 590.415C897.846 593.551 887.438 595.708 876.709 597.613C865.876 599.539 855.117 601.76 844.247 603.483C839.27 604.272 834.294 605.091 829.371 606.176C824.555 607.239 819.903 609.783 815.062 610.372C793.446 613.006 772.255 618.874 750.723 622.191C734.646 624.668 706.677 628.123 696.252 612.06C685.768 595.906 698.63 577.063 710.106 565.513C717.237 558.335 725.251 552.017 733.659 546.397C742.658 540.382 751.316 533.887 760.316 527.881C780.684 514.289 802.77 503.204 824.653 492.282C835.156 487.039 845.304 481.417 855.522 475.664C860.593 472.809 863.399 477.416 867.408 480.548C870.561 483.012 876.351 489.084 880.762 486.276C880.931 487.287 881.102 488.298 881.271 489.31C882.563 488.723 883.856 488.137 885.148 487.55C886.016 489.817 885.914 491.225 888.339 492.415C889.828 493.147 893.005 494.027 894.425 492.739C894.714 493.634 895.004 494.529 895.294 495.424C896.534 495.329 896.774 491.794 897.008 490.966C899.135 494.059 902.077 496.644 905.815 497.518C905.833 497.316 905.207 494.775 905.234 494.76C906.416 494.038 907.908 497.126 908.535 497.788C910.614 499.978 911.854 499.639 914.15 497.87C914.317 498.05 915.095 500.07 915.208 500.034C915.705 499.877 916.648 498.087 916.752 497.924C916.609 500.278 921.173 500.753 922.785 500.247C922.423 499.557 922.061 498.868 921.7 498.178C927.315 497.431 929.519 503.372 934.908 503.07C938.892 502.846 935.697 501.979 937.951 500.28C939.921 498.795 940.272 502.043 940.465 501.94C940.841 501.548 941.132 501.098 941.339 500.589C942.067 503.37 947.871 505.865 947.271 501.292C949.555 502.201 951.176 503.711 953.702 504.03C956.773 504.417 960.054 503.768 963.117 503.515C969.719 502.968 975.942 501.627 981.893 498.615C985.422 496.829 989.177 495.209 992.493 493.054C995.269 491.251 1000.53 485.777 1004.23 488.134C1003.28 485.354 1007.74 487.931 1007.88 484.349C1008.6 484.887 1009.31 485.423 1010.03 485.961C1010.46 485.024 1010.34 483.547 1010.91 482.731C1011.7 481.609 1012.09 482.27 1012.76 481.638C1013.51 480.933 1014.17 479.042 1015.07 478.503C1016 477.95 1017.1 478.61 1018.1 478.126C1019.62 477.389 1026.18 470.19 1025.07 476.358C1027.89 475.404 1025.71 474.532 1026.07 472.661C1026.77 468.913 1028.49 471.611 1030.21 471.937C1033.02 472.473 1032.96 470.162 1034.53 468.482C1035.96 466.947 1038.64 466.261 1037.72 463.596C1038.78 464.163 1039 465.275 1039.12 466.354ZM869.874 386.285C867.662 388.739 866.005 387.69 863.546 387.33C863.283 386.452 862.833 386.33 862.198 386.965C861.469 387.382 860.686 387.657 859.847 387.788C857.83 388.283 855.736 388.072 853.763 388.822C853.819 388.164 854.513 386.995 854.069 386.326C851.994 387.755 850.708 388.664 848.161 388.691C846.096 388.713 842.473 387.143 840.759 389.02C840.706 388.289 840.653 387.559 840.601 386.828C839.762 387.244 839.032 387.802 838.41 388.5C838.293 387.418 838.227 386.599 837.508 385.724C836.145 388.517 834.651 388.583 832.002 387.516C832.373 387.665 829.35 385.9 829.465 386.389C828.51 382.379 843.597 382.71 845.182 382.551C849.137 382.154 853.092 381.923 857.054 381.56C860.811 381.215 863.615 380.632 866.216 383.754C865.057 379.245 876.019 379.469 869.874 386.285ZM696.886 316.359C697.302 323.176 698.825 330.421 696.164 336.982C694.024 342.256 689.756 348.212 685.158 351.654C675.743 358.7 667.763 350.078 666.452 340.601C665.086 330.717 667.794 318.64 676.34 312.545C681.447 308.904 686.392 309.156 692.271 310.353C693.652 310.635 695.894 310.527 696.683 311.893C696.868 312.213 696.702 316.353 696.886 316.359ZM821.931 407.182C820.305 408 818.604 408.478 817.17 409.59C816.672 409.977 816.502 410.857 815.973 411.182C815.012 411.774 813.637 411.382 812.634 411.87C810.975 412.678 809.786 413.833 807.814 414.577C804.885 415.682 802.318 417.198 799.55 418.635C794.938 421.03 789.989 423.085 785.168 425.035C782.734 426.019 776.003 427.937 776.236 431.485C775.692 431.632 775.135 430.446 773.999 430.54C772.438 430.669 770.377 432.466 768.757 432.909C765.727 433.735 763.381 433.808 763.381 437.655C762.416 437.002 762.171 435.405 760.888 435.194C759.444 434.955 758.836 436.507 757.68 436.99C756.319 437.559 754.627 437.013 753.28 437.619C752.69 438.239 752.035 438.781 751.315 439.243C750.582 439.327 749.852 439.306 749.126 439.176C746.265 439.78 743.633 440.851 740.765 441.408C737.97 441.952 736.057 442.149 737.231 445.44C734.242 446.023 733.512 442.864 730.139 444.019C726.004 445.434 722.14 446.455 717.824 447.319C715.623 447.759 713.324 448.742 711.106 448.973C709.525 449.138 708.048 448.574 706.491 448.749C704.614 448.959 703.105 449.825 701.163 449.857C699.32 449.889 697.386 449.56 695.576 449.236C695.832 449.962 696.152 450.658 696.536 451.325C695.285 451.064 694.708 449.566 693.647 449.344C692.534 449.112 691.536 450.255 690.61 450.002C690.215 449.894 690.477 448.682 689.771 448.45C689.128 448.24 688.857 448.488 688.218 448.389C688.005 448.356 685.336 448.212 684.911 448.435C684.167 448.828 684.92 449.563 684.772 449.673C682.261 451.523 682.231 450.524 681.112 448.591C679.469 445.755 677.487 447.545 674.5 447.048C671.172 446.495 668.549 447.958 665.273 447.75C661.74 447.525 657.587 444.892 654.463 443.354C647.716 440.034 641.138 436.891 635.472 431.862C624.396 422.031 615.386 409.941 610.073 396.099C604.365 381.229 603.283 365.721 603.741 349.945C604.017 340.457 604.779 330.975 606.281 321.599C607.315 315.149 607.531 303.687 614.833 300.75C616.089 315.852 612.128 331.241 614.626 346.245C615.378 350.764 617.212 356.786 620.684 360.133C625.825 365.088 627.027 357.926 627.493 353.969C628.358 346.622 629.965 339.314 631.104 332.002C632.241 324.692 633.044 317.3 634.626 310.067C635.202 307.43 639.852 288.117 643.265 289.032C642.575 303.082 640.741 316.889 640.669 330.991C640.64 336.647 640.132 342.621 640.952 348.24C641.373 351.131 644.017 359.616 648.565 358.908C652.773 358.254 648.147 352.277 647.754 349.973C646.713 343.872 648.04 336.282 649.01 330.226C650.846 318.767 654.944 307.031 661.64 297.454C667.638 288.879 676.873 280.716 687.998 282.228C692.752 282.875 696.46 284.05 698.849 288.373C700.723 291.765 708.105 295.62 703.827 299.867C699.932 303.734 693.634 300.639 689.304 299.717C684.004 298.588 678.324 299.946 673.891 303.039C666.285 308.345 661.951 317.831 660.536 326.727C658.629 338.723 663.726 370.122 682.5 363.085C694.971 358.41 704.364 341.593 703.317 328.718C702.897 323.564 700.874 313.78 708.034 312.388C717.208 310.606 718.503 320.676 717.575 327.22C716.224 336.739 711.172 345.59 705.393 353.116C700.356 359.675 694.497 363.777 688.436 369.194C686.641 370.798 682.064 374.404 682.833 377.387C683.675 380.656 690.869 381.586 693.749 382.123C707.999 384.779 724.068 382.336 738.293 380.481C767.53 376.668 796.383 367.278 820.356 350.013C821.325 360.695 822.546 371.342 822.995 382.063C823.214 387.268 823.269 392.547 823.867 397.723C824.234 400.907 825.564 405.355 821.931 407.182ZM740.862 444.405C739.715 445.002 740.955 441.386 740.636 442.583C742.351 443.195 742.427 443.802 740.862 444.405ZM862.146 315.126C863.968 313.126 868.946 308.368 870.526 312.883C871.114 310.959 871.19 308.108 873.46 310.707C874.363 307.514 884.33 307.813 886.799 307.672C894.703 307.222 902.64 306.981 910.517 306.199C926.703 304.593 943.171 305.421 959.416 305.369C962.934 305.357 966.442 305.167 969.934 305.675C973.304 306.166 976.846 307.542 980.28 307.039C983.334 306.592 985.336 305.753 988.48 306.112C992.241 306.542 995.892 306.847 999.687 306.833C1016.47 306.772 1033.25 307.449 1050.03 307.475C1053.31 307.48 1057.23 306.844 1060.29 308.228C1061.43 308.741 1062.67 310.448 1063.54 310.635C1064.54 310.849 1063.95 309.303 1065.28 310.001C1067.06 310.936 1065.68 313.811 1064.5 314.267C1065.21 313.994 1063.23 313.725 1063.43 313.715C1062.49 313.765 1061.69 314.483 1060.68 314.438C1059.14 314.371 1057.85 313.437 1056.61 312.615C1056.59 312.951 1057.27 315.188 1056.5 315.301C1055.83 315.399 1055.2 313.193 1055.13 312.679C1051.38 315.978 1047.4 314.139 1042.74 314.557C1039.43 314.854 1032.54 317.05 1030.23 313.613C1030.14 314.344 1029.84 314.984 1029.35 315.533C1028.69 316.532 1028.12 316.447 1027.64 315.275C1027.48 315.283 1025.87 315.631 1025.84 315.628C1024.71 315.539 1023.25 315.135 1022.1 315.037C1020.32 314.886 1020.65 316.175 1019.23 316.196C1018.45 316.207 1016.48 315.094 1015.13 315.025C1012.79 314.903 1010.41 315.891 1008.1 315.592C1006.51 315.386 1005.08 314.1 1003.52 314.049C1001.58 313.985 1000.95 315.459 999.414 313.389C999.098 313.304 998.903 314.522 998.778 314.543C998.809 314.537 997.315 314.758 997.138 314.826C996.831 314.943 995.637 315.487 995.274 315.494C994.489 315.508 994.063 314.948 993.231 314.935C991.854 314.912 987.46 316.119 987.582 313.583C982.671 315.396 978.479 314.689 973.436 315.117C971.123 315.315 969.67 315.006 967.469 314.583C964.713 314.054 962.882 314.719 960.133 314.854C957.492 314.983 956.659 313.87 954.429 312.865C953.549 312.469 952.968 311.946 951.889 312.166C951.275 312.292 951.712 313.324 951.53 313.394C950.583 313.758 949.921 313.372 948.622 313.461C946.223 313.624 945.268 315.62 942.802 313.746C943.621 313.647 944.441 313.546 945.261 313.448C942.903 312.452 939.791 311.944 940.362 315.569C938.351 315.288 940.092 313.924 939.103 313.436C938.115 312.949 937.008 313.765 935.763 314.168C932.475 315.23 929.734 314.703 926.305 314.512C922.41 314.295 913.297 317.461 910.507 313.351C910.424 314.217 909.49 316.63 908.247 316.517C907.842 316.479 908.972 313.918 909.099 313.647C908.46 315.004 905.54 315.261 904.101 315.965C904.262 315.236 904.423 314.507 904.584 313.779C903.249 315.195 902.599 314.331 901.027 314.804C900.34 315.012 899.345 316.423 898.758 316.508C898.073 315.717 897.213 315.377 896.176 315.487C895.487 315.316 894.797 315.282 894.108 315.387C891.35 315.586 888.834 317.113 886.09 316.074C883.714 315.172 882.795 312.855 881.379 316.542C881.006 315.886 880.634 315.231 880.261 314.575C879.802 315.287 879.342 315.998 878.882 316.709C877.084 315.537 876.974 314.858 874.905 315.289C874.42 315.481 873.922 315.455 873.413 315.207C873.291 315.569 873.169 315.93 873.047 316.29C872.999 317.198 872.728 317.498 872.236 317.189C871.822 317.041 871.448 316.817 871.115 316.515C869.747 316.619 867.999 316.978 866.53 316.779C865.964 316.704 862.41 314.836 862.146 315.126ZM904.021 290.721C904.182 290.967 904.343 291.213 904.504 291.459C902.283 292.628 901.76 291.957 901.53 289.611C902.616 289.632 902.801 291.533 904.021 290.721ZM905.397 289.344C906.467 289.814 907.694 290.737 908.701 289.5C909.379 291.464 904.342 294.143 905.397 289.344ZM912.306 290.211C914.552 291.723 909.165 290.507 909.173 290.51C910.142 289.62 911.185 289.52 912.306 290.211ZM931.624 281.782C932.394 285.652 934.518 285.542 937.948 283.743C942.948 281.118 943.793 276.821 944.141 271.69C944.476 266.77 945.08 264.865 950.175 265.892C953.731 266.609 956.739 266.007 960.324 265.908C964.149 265.803 965.497 266.385 965.805 270.305C966.114 274.231 966.814 277.211 969.675 280.199C972.583 283.236 976.461 285.049 980.24 286.748C982.184 287.621 984.009 288.561 986.159 288.75C986.992 288.824 991.328 288.278 991.419 289.644C991.486 290.671 985.482 293.569 984.844 293.914C982.059 295.422 979.282 296.775 976.24 297.689C969.241 299.792 961.82 299.916 954.571 299.789C942.882 299.584 926.729 294.661 919.74 284.334C923.701 283.484 927.662 282.632 931.624 281.782ZM930.575 248.265C928.726 246.719 927.529 244.385 925.992 242.554C925.217 241.631 924.65 241.337 923.912 240.875C923.136 240.389 922.698 241.077 922.051 239.934C920.377 236.978 925.542 232.82 920.064 231.682C918.211 231.296 913.75 232.759 913.21 230.115C912.444 226.376 919.611 226.131 921.297 224.233C924.65 220.46 922.374 214.064 924.416 209.711C926.349 205.588 931.339 204.855 935.277 203.617C940.764 201.891 946.318 200.891 951.889 199.51C955.786 198.545 962.258 194.667 965.871 198.093C960.296 199.326 963.536 201.261 967.253 202.353C971.462 203.591 975.923 204.074 980.285 204.419C984.775 204.774 989.35 204.842 993.786 203.95C997.889 203.126 1002.47 199.575 1006.77 200.484C1004.39 204.617 997.276 206.875 992.955 207.957C990.753 208.509 989.344 208.336 989.64 211.07C989.926 213.719 992.239 216.375 992.761 219.135C993.452 222.787 992.848 226.143 991.543 229.578C990.259 232.957 989.959 233.399 991.081 236.628C992.83 241.656 989.071 247.213 985.597 250.865C971.549 265.629 944.663 260.036 930.575 248.265ZM966.274 160.026C966.282 160.12 966.33 160.177 966.274 160.026V160.026ZM970.649 197.285C970.066 197.719 966.712 198.627 966.852 197.322C967.04 195.572 970.063 196.204 970.649 197.285ZM978.295 161.945C977.508 161.36 975.303 161.6 976.915 159.385C977.441 160.36 977.868 161.152 978.295 161.945ZM925.383 147.943C926.386 145.346 927.497 142.931 927.949 140.167C928.229 138.464 927.674 136.52 930.064 136.253C927.018 134.93 926.987 129.708 926.807 127.002C926.56 123.274 925.377 118.283 927.023 114.813C928.711 111.249 930.989 111.308 931.677 115.553C931.947 117.215 930.916 117.752 930.722 118.91C930.34 121.199 931.101 120.697 932.585 118.953C933.197 120.726 933.432 123.39 935.924 123.277C935.758 122.798 934.803 121.74 935.122 121.145C935.611 120.23 938.005 121.627 938.309 121.839C940.495 123.361 940.968 124.751 939.409 126.671C941.568 126.903 939.756 128.784 941.149 129.275C943.274 130.023 941.849 126.478 941.619 125.855C942.913 126.357 943.347 126.931 944.166 127.949C944.646 128.651 945.085 129.381 945.479 130.135C945.919 131.511 946.825 131.856 948.199 131.17C950.952 132.03 954.752 131.896 957.219 133.399C958.346 134.085 958.753 135.588 959.695 136.158C960.754 136.801 962.173 136.509 963.311 136.912C962.895 137.854 963.232 138.364 964.321 138.444C965.167 138.521 965.986 138.711 966.778 139.012C967.37 138.567 968.015 138.216 968.711 137.961C969.179 138.782 969.839 138.984 970.695 138.571C973.233 139.044 974.453 140.001 976.066 141.43C977.514 142.713 976.335 142.817 977.922 142.704C978.56 142.658 979.677 141.581 981.135 141.791C981.974 141.954 982.784 142.211 983.563 142.563C984.405 143.281 985.3 143.371 986.246 142.835C987.783 143.583 987.935 144.908 989.808 145.089C991.881 145.291 991.214 142.718 992.638 146.347C994.554 142.499 995.257 148.628 997.236 149.123C999.285 149.637 999.507 147.982 1001.26 149.79C1001.79 150.332 1001.76 151.227 1002.35 151.802C1003.32 152.743 1004.62 152.555 1005.47 153.838C1005 153.122 1005.58 156.375 1005.57 156.268C1005.7 157.703 1004.42 159.312 1007.04 159.189C1007.01 159.34 1005.75 161.17 1005.5 160.963C1005.44 160.754 1005.39 160.543 1005.35 160.329C1005.07 160.449 1004.95 162.192 1005 162.5C1005.22 162.535 1005.31 162.37 1005.27 162.006C1004.84 163.351 1005.49 164.205 1004.66 165.481C1004.13 166.297 1002.68 166.909 1001.91 167.413C1000.05 168.629 998.226 169.848 996.41 171.141C992.177 174.158 987.436 177.796 982.105 178.425C984.783 175.807 1000.19 165.899 992.461 163.054C991.028 162.527 988.419 162.028 986.92 161.917C985.056 161.779 983.128 162.842 981.072 162.179C978.591 161.379 979.526 159.057 978.01 158.224C974.792 156.456 975.552 160.613 974.539 161.702C973.475 160.59 973.703 160.049 972.023 159.948C970.317 159.846 969.911 161.416 967.92 160.438C965.178 159.09 966.629 156.405 962.739 156.341C962.804 155.752 963.368 154.105 962.626 153.645C961.625 154.938 962.4 156.383 961.471 157.627C961.006 158.251 959.997 158.749 959.261 158.951C957.536 159.423 957.291 160.326 957.572 157.74C956.293 160.033 952.374 159.09 950.043 158.859C946.252 158.484 942.224 157.769 938.59 156.559C935.23 155.439 933.435 153.515 930.663 151.765C929.615 151.103 929.115 151.356 927.613 150.945C926.13 150.539 924.684 149.753 925.383 147.943ZM933.38 107.341C933.952 106.998 934.364 112.121 933.67 113.078C932.4 111.078 930.149 108.144 933.38 107.341ZM935.208 105.298C937.048 103.639 935.77 107.923 935.432 108.642C934.751 108.206 934.069 107.771 933.387 107.336C934.257 106.805 934.474 105.959 935.208 105.298ZM1004.63 98.3943C1021.63 101.947 1038.48 108.588 1052.11 119.516C1064.53 129.471 1073.3 143.594 1078.21 158.617C1083.31 174.211 1081.6 191.512 1069.46 203.446C1063.07 209.732 1054.63 213.525 1046.58 217.226C1042.72 218.999 1038.75 220.476 1034.88 222.208C1032.1 223.452 1028.71 225.443 1025.54 225.098C1027.16 223.402 1029.5 223.367 1031.46 222.33C1033.83 221.077 1035.76 218.671 1037.8 216.953C1039.83 215.247 1044.32 209.874 1047.43 211.175C1047 208.313 1050.27 206.984 1051.75 205.096C1053.31 203.1 1053.42 200.765 1056.3 200.112C1053.21 197.705 1054.15 193.166 1054.83 189.889C1055.69 185.7 1056.08 181.853 1056.42 177.589C1057.03 169.902 1057.52 160.11 1053.26 153.352C1051.88 151.158 1050.11 149.142 1048.88 146.862C1047.39 144.116 1047.72 141.698 1047.72 138.687C1045 140.508 1044.42 136.795 1043.27 134.986C1042.41 133.629 1041.28 132.87 1041 131.162C1040.8 129.919 1042.15 129.709 1041.41 128.406C1040.5 129.091 1040.14 130.152 1039.68 131.137C1038.84 130.802 1039.83 129.637 1039.34 129.258C1039.33 129.248 1037.71 128.547 1037.79 128.648C1036.75 127.331 1036.41 125.146 1035.9 123.578C1033.99 124.542 1034.35 124.429 1032.21 122.818C1031.84 122.534 1029.96 121.232 1029.79 120.806C1028.96 118.816 1030.41 119.995 1030 118.76C1028.84 115.211 1022.33 115.882 1021.81 110.565C1018.63 112.574 1017.42 109.728 1015.54 107.704C1013.62 105.63 1010.39 104.832 1010.56 101.543C1009.56 101.884 1008.56 102.224 1007.56 102.563C1008.08 99.5274 1003.56 99.7207 1001.92 98.1811C1002.83 98.1923 1003.73 98.2634 1004.63 98.3943ZM1007.22 286.381C1008.8 284.977 1008.32 286.845 1009.33 286.631C1010.2 286.448 1010.37 285.796 1011.2 285.595C1014.63 284.771 1019.75 285.807 1023.35 285.629C1027.52 285.424 1034.67 286.286 1036.66 291.147C1037.86 294.075 1036.03 293.079 1034.02 292.861C1032.46 292.693 1031.07 293.008 1029.52 292.992C1028.76 293.109 1028 293.098 1027.24 292.957C1026.87 292.714 1026.65 292.372 1026.58 291.932C1024.43 291.608 1022.15 292.874 1019.77 292.938C1016.59 293.022 1013.77 292.415 1011.35 290.279C1010.39 291.703 1009.74 292.41 1008.01 292.569C1007.97 292.573 1006.28 291.897 1006.02 291.83C1005.68 291.74 1004.8 292.462 1004.14 292.256C1005.32 290.382 1005.49 287.92 1007.22 286.381ZM1224.22 303.297C1224.78 301.355 1225.25 299.387 1225.76 297.431C1233.61 306.322 1240.47 318.224 1243.56 329.627C1245.56 337.037 1248.68 350.463 1239.12 354.285C1231.33 357.398 1226.99 346.239 1225.01 340.742C1220.66 328.61 1220.66 315.643 1224.22 303.297ZM873.334 163.978C873.435 163.958 868.257 166.957 869.963 164.529C870.648 163.553 873.247 162.866 874.4 162.866L873.334 163.978ZM868.354 165.249C867.755 165.751 867.15 166.247 866.539 166.736C865.953 165.814 865.366 164.891 864.78 163.969C865.936 163.483 870.842 163.119 868.354 165.249ZM864.705 258.487C863.621 257.756 862.762 258.145 862.437 259.371C862.437 258.151 863.075 255.315 864.056 254.985C864.69 254.77 861.949 251.541 862.719 250.696C864.678 251.813 863.505 252.884 864.079 254.327C864.338 254.978 865.117 255.593 865.287 256.093C865.576 256.942 866.745 259.861 864.705 258.487ZM859.397 251.22C858.288 251.503 860.23 253.327 860.228 254.133C860.227 254.743 859.492 255.211 859.188 256.045C858.531 257.852 859.662 259.073 857.8 260.452C857.8 256.492 855.131 245.999 860.26 244.069C857.758 242.107 859.813 239.843 861.773 242.19C863.658 244.448 862.458 250.44 859.397 251.22ZM856.725 235.593C855.717 232.033 852.683 230.788 849.215 230.999C849.347 229.177 850.734 226.549 851.736 229.834C852.148 228.863 852.433 227.596 853.372 226.953C854.954 231.891 862.839 234.619 857.929 239.97C857.529 238.511 857.138 237.049 856.725 235.593ZM847.562 231.264C829.303 232.583 803.668 236.356 789.056 222.418C779.529 213.33 780.038 199.177 787.737 189.08C792.131 183.318 798.129 179.261 804.152 175.396C806.477 173.904 808.446 172.919 810.998 172.062C811.411 172.018 811.8 172.109 812.163 172.337C812.307 171.724 812.654 171.269 813.207 170.973C814.192 170.447 815.596 170.26 816.164 169.17C815.558 171.217 815.246 173.326 815.024 175.445C814.532 174.874 814.04 174.304 813.549 173.733C813.139 177.592 809.102 175.256 806.691 175.738C808.279 177.927 809.415 178.722 809.551 181.614C808.369 179.439 805.896 178.01 803.597 177.309C804.845 180.987 805.728 183.17 804.471 187.203C802.953 186.339 802.85 184.266 801.008 183.769C800.522 186.174 800.436 188.842 799.814 191.176C795.097 189.034 795.557 194.803 797.451 197.658C798.458 199.177 798.953 200.935 799.851 202.393C802.055 205.969 800.381 200.621 802.831 200.875C802.28 204.647 802.089 205.023 804.861 207.785C807.566 210.478 808.97 214.216 811.863 216.746C812.701 215.68 811.383 214.564 811.268 213.544C813.96 213.994 815.221 216.682 817.81 214.301C818.938 216.492 820.16 218.904 822.863 219.354C821.076 215.971 826.295 218.265 827.633 218.746C828.649 219.11 830.467 219.399 830.859 219.54C833.064 220.333 831.552 218.909 832.89 221.509C834.855 220.919 835.597 219.295 837.947 220.667C839.859 221.783 839.863 223.693 840.299 225.651C840.755 224.37 841.215 223.091 841.718 221.828C842.231 222.043 844.383 224.401 844.149 224.412C849.185 224.166 849.007 227.28 847.562 231.264ZM821.925 167.427C822.936 166.72 824.171 167.661 825.307 167.408C826.879 167.059 827.772 165.717 829.528 165.574C829.039 167.129 828.122 166.983 827.346 168.205C827.082 168.621 827.219 169.62 826.985 169.859C825.016 171.867 824.336 170.228 822.327 168.708C822.502 170.541 822.855 171.12 821.122 171.612C819.552 172.057 816.962 170.416 816.171 169.157C816.838 167.828 820.715 168.273 821.925 167.427ZM834.454 164.563C836.159 164.725 834.105 169.734 831.662 164.875C832.582 164.675 833.513 164.571 834.454 164.563ZM843.221 163.594C845.909 163.048 854.878 160.503 855.876 164.671C856.056 164.567 856.722 162.214 857.033 162.501C858.275 163.652 858.414 165.176 858.319 166.774C856.817 163.66 857.351 166.395 856.334 166.182C856.069 166.126 855.663 166.62 854.99 166.416C854.108 166.148 853.476 164.28 852.919 163.647C851.992 164.965 850.844 166.662 848.987 166.547C847.674 166.466 845.556 163.098 847.258 166.786C846.259 166.457 845.102 165.713 843.99 165.862C842.744 166.03 842.096 167.255 840.928 167.452C838.339 167.889 837.948 165.408 836.267 164.061C838.586 163.926 840.931 164.059 843.221 163.594ZM859.488 163.554C859.678 162.7 862.031 162.355 862.63 162.626C864.092 163.287 863.552 164.16 863.283 165.613C862.198 165.102 861.113 164.591 860.027 164.08C861.647 166.677 858.713 167.054 859.488 163.554ZM1314.94 315.696C1314.75 309.471 1314.57 303.139 1312.99 297.079C1311.88 292.838 1309.15 285.233 1304 284.497C1296.23 283.386 1291.93 298.681 1289.75 303.931C1289.31 297.75 1289.69 291.171 1287.35 285.304C1285.47 280.603 1280.73 276.15 1276.65 281.43C1273.01 286.129 1272.31 293.065 1271.36 298.718C1270.12 306.044 1269.37 313.426 1268.47 320.796C1264.92 313.965 1264.3 306.146 1261.49 299.047C1258.84 292.348 1254.68 285.95 1250.67 279.991C1247.39 275.124 1243.4 270.549 1238.27 267.573C1233.8 264.984 1225.99 262.183 1221.73 266.484C1218.18 270.072 1218.73 274.874 1218.92 279.402C1219 281.418 1219.32 282.801 1217.54 283.817C1216.66 284.317 1215.29 284.058 1214.33 284.325C1212.78 284.756 1211.59 285.486 1210.28 286.456C1201.09 293.258 1196.86 305.516 1195.55 316.445C1193.89 330.291 1199.31 342.162 1203.97 354.831C1204.72 356.85 1207.08 361.134 1206.75 363.388C1206.39 365.858 1203.28 365.922 1201.18 365.973C1194.84 366.129 1188.2 365.658 1181.89 365.07C1166.86 363.669 1151.85 356.464 1138.39 350.032C1135.94 348.858 1132.46 348.186 1130.46 346.338C1128.58 344.6 1128.08 341.816 1126.45 339.822C1122.46 334.932 1119.92 330.759 1114.04 327.804C1108.06 324.796 1101.95 322.016 1096.11 318.72C1088.89 314.644 1082.22 309.48 1075.3 304.916C1062.45 296.436 1049.67 287.139 1036.04 279.927C1029.71 276.576 1022.63 276.033 1016.05 273.289C1009.65 270.617 1001.78 270.614 995.099 272.301C991.844 273.124 989.628 275.072 986.634 276.344C983.124 277.835 980.262 276.19 977.174 274.41C972.457 271.691 967.78 267.261 974.498 264.328C976.777 263.333 979.633 262.956 981.624 261.391C983.746 259.724 985.45 256.648 987.175 254.56C991.012 249.917 993.303 244.573 998.918 241.686C1005.13 238.493 1012.49 237.624 1019.11 235.537C1026.28 233.277 1033.31 230.59 1040.34 227.951C1053.03 223.196 1066.21 218.063 1075.33 207.598C1083.19 198.568 1086.62 186.914 1086.3 175.077C1085.65 150.878 1072.63 126.319 1053.96 111.189C1031.06 92.637 1001.92 86.4505 972.995 86.7747C959.418 86.9273 943.217 88.6967 931.889 96.911C922.105 104.006 920.477 116.415 921.932 127.617C922.523 132.163 924.542 138.163 921.322 142.169C919.52 144.41 916.286 144.965 913.859 146.362C910.809 148.118 908.12 149.8 904.665 150.729C889.991 154.675 874.535 153.301 859.532 153.083C834.539 152.719 808.921 159.457 790.276 176.995C775.22 191.157 770.705 217.861 789.068 231.667C803.904 242.821 827.175 241.594 844.669 239.648C850.093 239.044 853.824 238.167 853.836 244.776C853.85 251.996 852.649 259.542 854.498 266.63C857.412 277.793 868.183 278.059 877.705 275.655C882.73 274.387 887.587 272.479 892.359 270.482C899.358 267.553 905.773 263.245 912.684 260.321C917.37 258.339 920.879 264.748 925.035 260.305C925.803 259.484 925.944 258.26 927.103 257.839C928.918 257.181 931.963 259.489 933.555 260.219C935.939 261.312 938.343 262.116 939.295 264.748C940.186 267.21 939.796 271.125 938.942 273.554C937.087 278.834 932.093 277.79 927.534 277.437C919.582 276.821 911.684 275.515 903.735 274.966C896.603 274.473 889.924 276.596 883.773 280.098C870.853 287.454 860.282 299.154 849.08 308.777C843.314 313.728 837.74 319.077 831.47 323.39C828.745 325.265 825.792 326.988 823.422 329.319C821.071 331.63 820.813 333.731 820.009 336.807C818.577 342.284 811.465 344.961 807.019 347.85C800.733 351.936 794.068 354.819 787.021 357.326C772.096 362.635 757.053 366.342 741.45 369.083C733.811 370.425 726.235 371.306 718.521 372.031C711.871 372.655 704.801 374.694 698.159 373.065C700.072 369.976 703.462 368.12 706.101 365.732C709.505 362.653 712.399 359.005 714.975 355.225C719.988 347.865 723.505 339.967 724.312 331.04C725.04 323.005 724.205 313.393 719.337 306.606C717.655 304.261 714.329 303.623 712.824 301.511C711.327 299.411 711.898 295.797 711.078 293.348C708.993 287.122 702.803 279.406 697.355 275.79C691.445 271.866 682.8 270.424 675.972 272.469C663.325 276.258 655.556 289.718 649.768 300.597C646.607 293.972 651.901 284.143 645.725 278.718C640.516 274.141 636.381 283.007 634.639 286.8C626.46 304.604 624.603 323.488 621.176 342.538C619.78 341.167 620.496 337.649 620.627 336.014C620.871 332.97 620.849 329.984 620.855 326.928C620.871 319.206 622.313 311.448 621.652 303.734C621.27 299.274 619.843 289.87 613.336 291.352C607.818 292.609 604.362 300.336 602.628 305.06C600.128 311.874 599.55 318.62 599.706 325.818C599.878 333.771 598.356 341.595 597.988 349.537C597.271 364.964 597.979 380.258 602.424 395.146C609.703 419.527 626.438 439.785 648.774 452.018C661.08 458.758 674.732 463.023 688.768 463.94C696.374 464.437 703.717 463.535 711.258 462.752C718.701 461.979 726.182 461.622 733.611 460.715C750.156 458.694 766.277 453.478 781.315 446.459C789.231 442.764 796.675 438.228 804.461 434.289C807.585 432.709 809.696 430.732 812.362 428.534C815.006 426.356 815.738 426.185 818.744 426.185C817.862 423.836 820.436 423.112 821.581 421.625C821.516 422.347 821.452 423.067 821.388 423.787C822.261 421.902 823.074 421.92 823.826 423.842C824.569 421.689 825.12 419.476 826.017 417.378C829.449 419.108 829.16 423.22 833.749 420.217C837.529 417.747 841.005 414.832 844.857 412.411C853.634 406.893 861.201 399.715 870.003 394.261C870.003 399.573 870.38 404.931 869.667 410.215C868.989 415.24 867.104 419.937 865.606 424.748C862.843 433.624 862.652 443.109 859.59 451.895C858.323 455.534 855.023 458.577 854.077 462.119C853.113 465.733 855.341 468.628 851.606 471.001C848.974 472.673 845.682 473.38 842.767 474.392C838.32 475.936 834.097 478.114 829.768 479.962C809.462 488.627 789.654 497.451 770.841 509.102C752.987 520.158 734.859 531.577 718.458 544.707C704.223 556.103 689.834 570.838 686.369 589.428C683.007 607.459 691.965 626.814 709.953 632.752C719.307 635.84 729.881 635.458 739.621 635.591C750.102 635.735 761.208 633.22 771.512 631.4C782.395 629.478 793.091 626.469 804.005 624.753C814.476 623.106 824.081 619.425 834.381 617.156C845.351 614.74 856.603 613.429 867.634 611.256C872.6 610.277 877.466 608.833 882.446 607.927C887.898 606.936 893.409 606.564 898.808 605.25C909.28 602.701 919.306 598.593 929.823 596.222C934.552 595.156 939.208 593.728 943.938 592.732C948.293 591.814 951.686 589.377 956.051 591.378C959.577 592.996 962.389 595.769 965.727 597.701C970.055 600.207 974.618 602.452 979.131 604.608C988.198 608.941 997.602 611.935 1007.08 615.188C1017.04 618.605 1026.82 622.502 1037.14 624.759C1047.71 627.072 1058.5 627.716 1069.15 629.546C1090.96 633.293 1112.59 634.975 1134.73 635.111C1145.92 635.181 1157.11 633.86 1168.27 634.016C1178.15 634.155 1186.75 636.373 1195.78 631.141C1210.23 622.78 1226.98 610.186 1226.62 591.893C1226.3 575.325 1216.32 559.496 1206.96 546.428C1195.59 530.559 1179.38 519.384 1163.5 508.437C1146.57 496.772 1127.55 488.711 1109.76 478.528C1100.66 473.32 1092.27 467.717 1082.38 464.016C1077.67 462.25 1073.07 460.202 1068.4 458.3C1064.65 456.77 1059.24 455.925 1056.03 453.386C1054.02 451.802 1053.83 449.403 1053.3 447.047C1052.13 441.835 1050.29 436.892 1048.51 431.866C1045.06 422.159 1042.77 412.274 1041.29 402.094C1039.88 392.389 1036.75 382.297 1038.37 372.435C1049.04 382.715 1060.01 392.598 1070.93 402.605C1075.02 406.356 1079.03 410.185 1083.15 413.913C1086.24 416.711 1090.1 420.868 1094.4 421.699C1099.9 422.76 1097.89 416.704 1101.67 415.766C1103.97 415.193 1110.93 421.03 1112.76 422.183C1124.32 429.492 1137.12 434.124 1149.83 439.099C1163.17 444.316 1176.88 448.95 1191.23 450.263C1204.48 451.478 1218.03 449.919 1230.82 446.324C1256.29 439.163 1275.03 422.172 1288.79 400.149C1304.46 375.052 1315.87 345.654 1314.94 315.696Z" fill="black"/>
<path fill-rule="evenodd" clip-rule="evenodd" d="M925.678 260.985C925.674 260.993 925.635 261.076 925.635 261.076C925.683 261.043 925.697 261.013 925.678 260.985Z" fill="black"/>
<path fill-rule="evenodd" clip-rule="evenodd" d="M926.907 261.31C926.811 260.511 926.605 259.728 926.289 258.962C925.446 260.293 924.692 260.863 925.799 262.273C926.168 261.952 926.537 261.631 926.907 261.31Z" fill="black"/>
<path fill-rule="evenodd" clip-rule="evenodd" d="M985.64 451.567C986.583 450.568 984.933 450.191 984.307 450.178C984.369 451.25 983.835 453.819 985.308 454.317C984.955 453.347 985.066 452.43 985.64 451.567Z" fill="black"/>
<path fill-rule="evenodd" clip-rule="evenodd" d="M960.759 242.443C959.138 245.56 962.718 246.527 964.791 245.022C966.351 243.889 967.273 241.003 967.529 239.151C968.358 233.159 964.148 227.456 962.049 222.14C961.506 220.765 960.763 216.052 959.016 215.923C957.009 215.774 956.861 220.115 956.835 221.235C956.757 224.612 957.655 228.052 958.708 231.24C959.842 234.677 962.652 238.803 960.759 242.443Z" fill="black"/>
<path fill-rule="evenodd" clip-rule="evenodd" d="M968.469 229.941C974.699 235.466 979.683 226.265 979.248 220.822C979.14 219.473 978.225 214.501 975.657 216.311C974.367 217.22 975.467 220.174 974.852 221.47C971.872 227.759 969.002 218.005 966.996 217.239C964.555 216.306 964.309 219.501 964.313 221.209C964.319 224.598 965.938 227.697 968.469 229.941Z" fill="black"/>
<path fill-rule="evenodd" clip-rule="evenodd" d="M945.854 230.798C947.321 228.497 949.126 225.41 949.325 222.653C949.635 218.368 947.127 218.726 945.063 221.716C943.605 223.828 942.512 227.41 939.293 226.52C935.32 225.422 936.534 220.102 934.31 217.573C928.693 225.086 939.322 241.038 945.854 230.798Z" fill="black"/>
<path fill-rule="evenodd" clip-rule="evenodd" d="M954.27 253.791C956.593 254.291 962.65 254.106 960.551 250.564C957.905 246.102 949.103 252.678 954.27 253.791Z" fill="black"/>
<path fill-rule="evenodd" clip-rule="evenodd" d="M1035.66 120.724C1036.08 119.462 1035.5 119.233 1034.48 118.24C1033.52 119.123 1034.75 120.051 1035.66 120.724Z" fill="black"/>
<path fill-rule="evenodd" clip-rule="evenodd" d="M1078.99 349.146C1080.52 349.389 1081.01 348.582 1080.47 346.724C1078.05 346.568 1077.55 347.375 1078.99 349.146Z" fill="black"/>
<path fill-rule="evenodd" clip-rule="evenodd" d="M995.296 154.29C996.987 155.06 996.339 156.639 996.31 157.973C997.181 157.031 998.94 155.308 998.224 153.955C997.12 151.867 994.237 153.808 995.296 154.29Z" fill="black"/>
<path fill-rule="evenodd" clip-rule="evenodd" d="M937.712 128.022C937.455 127.521 937.197 127.02 936.94 126.52C935.89 127.359 934.269 129.577 935.937 130.658C936.621 129.832 937.213 128.953 937.712 128.022Z" fill="black"/>
<path fill-rule="evenodd" clip-rule="evenodd" d="M957.997 142.746C960.1 144.389 959.091 139.347 959.028 138.936C958.715 139.527 956.934 141.917 957.997 142.746Z" fill="black"/>
<path fill-rule="evenodd" clip-rule="evenodd" d="M956.83 140.186C956.67 139.77 956.508 139.353 956.347 138.936C955.495 139.722 954.45 141.327 955.859 142.247C956.245 141.602 956.569 140.916 956.83 140.186Z" fill="black"/>
<path fill-rule="evenodd" clip-rule="evenodd" d="M970.189 157.499C970.361 157.657 970.533 157.815 970.704 157.974C971.397 156.58 970.609 155.533 969.299 155.49C969.392 156.273 969.689 156.942 970.189 157.499Z" fill="black"/>
<path fill-rule="evenodd" clip-rule="evenodd" d="M913.828 314.285C914.662 313.719 915.42 313.074 916.101 312.35C913.632 310.847 915.112 314.105 912.139 312.104C911.499 312.986 912.545 314.959 913.828 314.285Z" fill="black"/>
<path fill-rule="evenodd" clip-rule="evenodd" d="M1017.59 451.005C1018.53 449.57 1018.7 449.611 1017.42 448.521C1016.35 450.295 1016.46 449.84 1017.59 451.005Z" fill="black"/>
<path fill-rule="evenodd" clip-rule="evenodd" d="M821.343 222.605C821.854 223.136 822.365 223.667 822.876 224.197C823.115 223.502 824.416 221.539 823.533 220.886C822.803 221.459 822.072 222.032 821.343 222.605Z" fill="black"/>
<path fill-rule="evenodd" clip-rule="evenodd" d="M839.524 227.857C838.708 227.721 836.756 227.127 836.305 227.884C837.499 228.861 840.193 227.969 839.524 227.857Z" fill="black"/>
<path d="M368.044 408.591C412.827 398.417 440.856 353.954 430.65 309.281C420.444 264.608 375.868 236.641 331.085 246.815C286.303 256.989 258.274 301.452 268.479 346.125C278.685 390.799 323.262 418.766 368.044 408.591Z" fill="#F6EDEE"/>
</g>
</svg>
