<svg width="310" height="232" viewBox="0 0 310 232" fill="none" xmlns="http://www.w3.org/2000/svg">
<path fill-rule="evenodd" clip-rule="evenodd" d="M258.518 122.385C260.218 121.262 263.759 126.384 262.22 128.176C260.965 130.02 257.191 123.639 258.518 122.385ZM252.496 120.349C253.499 120.874 254.149 121.326 253.347 122.53C248.223 123.586 250.244 117.056 252.496 120.349ZM247.495 109.732C249.616 109.426 252.356 111.64 250.543 113.324C249.625 113.198 248.793 112.885 247.684 113.297C244.171 114.036 243.35 109.701 247.495 109.732ZM245.45 118.84C246.834 120.829 246.699 123.857 246.485 126.548C243.889 125.97 244.369 120.482 245.45 118.84ZM236.316 111.546C234.498 111.376 232.933 108.848 234.702 107.301C236.626 106.313 240.219 108.449 240.217 110.665C240.091 112.872 238.207 112.054 236.316 111.546ZM229.419 93.7809C230.732 94.2143 233.146 99.2989 231.759 100.415C229.906 101.356 227.706 94.8944 229.419 93.7809ZM220.186 99.3306C221.502 95.5451 225.842 102.238 224.804 104.358C223.092 105.834 220.024 101.211 220.186 99.3306ZM221.519 86.5766C223.593 89.3274 220.125 91.0346 217.903 91.9134C212.768 93.1471 219.594 84.8338 221.519 86.5766ZM210.996 85.0672C209.738 82.3961 213.004 77.5386 212.939 82.2585C212.271 83.3172 212.64 89.4156 210.996 85.0672ZM206.15 78.7995C206.046 76.3481 208.39 75.2025 208.121 78.8828C207.68 80.8631 206.442 81.6674 206.15 78.7995ZM206.616 68.2931C206.917 69.2734 206.947 70.2065 205.821 70.557C196.607 74.8092 204.753 64.4212 206.616 68.2931ZM202.415 60.0563C204.175 61.0563 205.341 65.2327 202.155 63.2601C199.949 62.6681 198.111 62.3577 195.638 61.8459C190.849 58.2957 200.258 57.6459 202.415 60.0563ZM191.852 103.353C189.762 99.3524 194.611 100.215 196.835 101.082C200.294 103.749 193.674 104.489 191.852 103.353ZM191.941 67.5256C190.618 67.2776 189.338 66.3841 187.62 66.5743C184.879 60.4746 194.173 63.3866 191.941 67.5256ZM188.714 71.2376C191.189 69.5112 189.771 77.4549 188.78 78.5728C185.203 82.5556 187.88 72.5613 188.714 71.2376ZM210.361 119.189C209.601 123.385 206.928 126.785 207.992 119.978C208.138 117.479 211.201 114.94 210.361 119.189ZM178.711 60.394C179.692 56.9185 181.286 54.2154 182.611 50.7012C184.105 52.1002 184.55 54.5829 183.375 56.5925C182.636 57.7906 179.053 65.2666 178.711 60.394ZM179.182 71.7774C178.783 73.4245 180.381 75.2003 179.711 76.4697C175.167 76.9752 177.196 63.7469 179.182 71.7774ZM169.191 45.336C171.192 45.3377 177.039 44.6572 175.573 47.8075C173.357 48.142 165.173 49.2417 169.191 45.336ZM170.19 52.734C171.54 53.3531 173.559 55.6282 172.316 57.0789C170.235 57.6369 168.223 54.0163 170.19 52.734ZM170.453 79.2463C170.251 80.2818 170.72 84.9229 168.691 84.2748C167.085 80.7018 168.624 72.7377 172.042 79.3875C171.544 79.3434 171.064 79.3006 170.453 79.2463ZM169.276 68.9803C169.631 69.8181 168.283 71.7823 167.473 70.4898C166.779 69.5402 168.367 66.4914 169.276 68.9803ZM161.926 55.1058C163.892 57.959 167.271 59.4181 169.865 62.1546C172.452 67.0816 165.109 63.1358 163.754 61.3707C162.518 60.3169 159.114 55.9208 161.926 55.1058ZM156.218 77.9168C158.109 76.0679 162.325 72.4041 160.329 77.7796C159.426 79.3674 155.402 81.6594 156.218 77.9168ZM159.868 69.8524C157.617 68.4356 156.272 70.7579 154.124 71.0118C151.84 67.1751 161.126 64.6355 159.868 69.8524ZM148.345 57.84C150.006 58.8422 153.954 61.8148 152.448 63.7055C150.427 63.0556 146.604 59.7913 148.345 57.84ZM137.382 95.2596C137.537 93.9025 139.657 93.3997 138.95 95.6311C139.583 96.46 140.974 97.4933 140.615 99.09C139.274 101.545 136.201 97.2149 137.382 95.2596ZM136.655 84.4476C140.079 85.929 137.265 87.76 134.722 87.8487C133.119 86.0337 134.29 83.939 136.655 84.4476ZM137.04 49.3873C133.769 45.772 144.351 46.7065 143.289 49.969C141.431 49.2915 139.214 50.0527 137.04 49.3873ZM254.499 108.047C249.208 102.587 242.6 99.307 237.514 93.6567C219.811 73.1074 225.666 80.5286 217.755 79.8284C216.018 78.2575 218.011 76.606 220.185 77.0901C211.312 62.2027 201.716 56.8014 192.654 47.3456C191.599 45.7702 189.979 50.1244 188.26 47.3456C187.075 45.8459 190.121 45.1217 189.009 43.9561C184.205 38.6038 186.085 40.7176 181.636 43.8751C180.326 42.2084 181.392 40.7969 182.927 39.4986C179.841 39.7774 180.674 37.6449 178.764 37.1562C171.789 38.3223 165.586 41.5447 158.629 41.8423C156.138 42.7148 155.814 48.1255 154.785 50.4402C152.588 51.5243 153.186 44.1042 154.124 42.9408C153.624 42.9368 151.838 41.2904 149.654 41.6289C125.344 40.7239 121.204 37.9858 130.478 52.734C131.461 55.6888 135.38 53.562 136.906 55.8375C137.356 57.0517 136.251 57.1519 135.055 57.0414C135.219 57.2486 135.38 57.4566 135.543 57.6637C132.539 60.3637 138.29 62.9906 139.564 65.6479C140.996 67.621 141.451 71.7222 144.407 69.7277C144.865 71.3391 147.08 69.8573 148.563 70.1468C150.178 71.4353 147.967 73.0227 146.47 73.2352C147.756 74.4703 145.871 75.3254 146.176 76.9814C148.096 79.8507 151.152 91.6875 144.971 87.206C142.894 84.8462 145.483 83.8325 147.908 84.4071C148.086 83.2793 147.602 81.675 147.094 80.3722C145.549 81.6207 143.056 81.9351 144.407 78.5728C141.565 79.2454 138.221 79.9308 134.971 79.9478C136.925 84.3456 132.21 82.593 130.952 80.0043C129.938 79.7496 127.676 79.5726 126.24 79.5045C127.235 83.203 129.816 87.9266 130.952 92.0733C132.268 90.8119 134.878 92.8576 133.669 94.0562C132.372 94.6583 131.466 95.017 130.952 95.1322C132.295 98.7823 132.324 120.679 133.669 114.883C133.99 112.31 137.103 109.661 135.605 108.141C132.29 105.427 136.734 103.683 137.847 106.769C140.443 103.723 144.472 101.681 146.176 97.6447C147.84 98.5992 148.683 97.1646 149.588 95.1322C150.288 96.5985 152.927 96.541 153.698 94.7937C154.326 93.3832 153.225 92.7017 155.137 91.7771C157.031 90.8676 156.186 88.7163 157.453 86.7592C158.528 85.9651 159.147 88.6914 158.568 89.7474C159.353 90.0645 160.421 88.2745 161.226 89.1733C165.86 90.5892 171.206 88.8673 175.967 88.2469C177.82 87.8487 182.16 95.6053 183.736 97.6447C188.248 91.4052 189.28 96.0863 185.592 99.3306C188.663 102.92 192.595 108.033 195.638 112.124C195.233 109.678 199.036 105.897 199.373 108.608C196.76 112.414 200.995 118.061 202.767 121.03C203.856 122.692 204.776 124.652 205.478 126.548C208.558 125.528 212.679 123.664 215.736 121.585C213.993 120.432 215.523 118.835 217.621 119.651C216.659 118.725 217.915 117.633 217.473 116.061C216.385 113.591 214.219 112.677 211.888 111.953C207.902 116.579 201.796 109.287 210.947 110.633C209.189 108.256 206.357 103.994 203.549 102.957C200.731 103.677 197.368 101.09 201.324 99.7604C198.528 96.8363 200.675 96.015 199.278 94.1368C198.194 92.6425 195.802 91.349 195.121 89.2383C195.094 87.1984 193.014 84.6757 196.095 84.2223C194.973 84.4436 195.71 75.6283 197.368 78.9942C198.33 80.2141 196.339 84.9505 198.713 83.466C199.311 86.7655 200.391 86.353 202.415 87.206C203.168 88.0972 203.94 89.2316 204.898 90.3634C206.845 87.0465 211.935 87.5921 209.876 91.6996C209.277 91.0863 208.703 91.4524 207.715 92.0733C214.33 98.7533 218.464 105.706 223.974 109.649C229.485 113.592 233.709 118.355 239.592 121.934C241.778 128.201 240.625 130.003 247.431 131.305C248.74 133.434 248.948 135.432 251.134 134.369C251.396 134.826 251.973 135.299 252.496 136.074C252.612 134.356 256.461 128.302 257.021 132.643C255.773 134.162 254.583 137.159 253.347 138.812C254.257 140.757 255.849 143.197 256.129 145.771C258.978 143.368 262.272 139.821 265.187 137.826C265.016 136.695 265.199 135.627 265.772 134.369C267.193 139.398 267.335 134.946 269.977 135.718C270.726 136.301 271.816 135.734 272.796 135.593C273.047 134.655 273.946 133.322 272.801 132.086C268.546 120.997 260.125 115.619 254.499 108.047Z" fill="#FFAEAD"/>
<path fill-rule="evenodd" clip-rule="evenodd" d="M221.85 140.774C222.537 140.168 221.45 138.225 221.449 136.787C221.727 131.674 225.674 142.86 229.174 142.056C227.761 140.533 227.153 136.735 225.083 137.92C227.101 136.566 224.605 132.8 226.974 131.073C225.692 130.506 223.14 126.692 222.039 128.771C221.077 127.387 220.172 126.087 219.204 124.695C218.017 126.092 214.087 125.805 214.047 128.064C214.259 129.21 215.867 130.488 214.293 131.386C215.042 134.151 215.563 137.807 217.69 140.323C217.438 132.042 219.519 136.619 221.85 140.774ZM265.813 141.363C267.65 143.063 273.728 148.649 272.11 149.692C269.874 150.389 270.717 152.477 270.449 154.752C273.446 150.877 273.171 157.662 274.022 159.629C274.95 162.476 276.902 164.167 279.001 166.537C274.439 151.937 278.461 160.825 284.536 165.31C284.092 163.106 282.479 160.955 280.73 159.155C277.886 152.442 286.841 164.14 289.024 163.406C288.188 162.059 288.276 159.637 286.7 158.593C282.987 156.555 280.771 152.697 278.835 148.638C275.419 146.495 275.516 141.174 272.806 137.39C270.724 137.725 268.046 140.042 265.813 141.363ZM117.321 163.529C117.768 160.745 118.431 157.5 118.994 154.508C117.993 148.492 117.466 142.921 117.008 136.63C115.234 125.994 117.277 122.031 106.701 121.374C105.491 121.304 105.891 124.516 105.528 125.893C104.616 127.018 105.056 128.042 104.467 129.429C103.788 130.563 105.466 132.167 105.896 133.694C110.928 143.248 110.331 154.004 114.898 163.849C114.998 162.682 116.214 162.558 117.321 163.529ZM191.492 47.0642C189.425 44.8549 187.044 42.1746 184.565 39.8915C177.13 38.4108 169.681 41.3753 162.067 43.3124C150.759 45.7449 135.405 44.8411 126.851 41.8513C126.723 48.0076 131.904 52.8473 135.324 57.9076C143.66 68.7577 153.988 81.2425 150.571 94.7751C172.008 78.3171 185.85 91.2333 201.316 81.8047C202.109 82.8223 201.578 83.7368 201.278 85.2567C204.224 88.992 208.007 92.8238 211.875 96.1419C230.195 114.371 252.297 126.874 256.4 144.364C261.816 140.33 267.364 134.302 272.568 135.574C263.56 117.223 244.736 106.123 231.148 91.1425C227.365 86.8895 224.145 83.0656 220.659 78.3309C211.241 62.2034 200.742 56.8077 191.492 47.0642ZM237.316 48.282C232.291 47.573 231.36 47.5792 227.713 44.2082C226.412 48.4995 221.08 43.3729 223.847 51.4293C221.212 53.9455 220.507 49.2796 221.458 47.1482C213.562 47.2029 219.999 54.944 221.213 58.9071C219.344 61.3449 216.883 57.1955 216.451 55.19C213.396 56.1289 210.153 56.6191 206.773 57.4264C231.631 79.5972 214.857 75.5283 228.781 68.5487C229.577 67.9322 228.849 66.4613 230.234 65.5944C230.783 65.2644 231.335 65.5032 231.633 66.3875C233.168 74.5675 239.404 68.0643 234.066 64.4575C234.092 63.1219 236.532 63.8673 236.303 62.2461C236.268 56.044 241.082 51.2763 245.219 46.9458C244.609 46.8226 244.122 46.7239 243.62 46.622C243.908 46.896 244.142 47.1198 244.434 47.3969C243.201 48.2615 241.845 47.8714 240.784 48.4399C240.486 50.783 239.632 51.8336 238.012 51.6757C238.243 50.5864 238.471 49.5145 238.705 48.4105C238.598 48.3861 238.012 48.2584 237.316 48.282ZM134.624 80.0046C132.217 80.2888 129.789 79.9241 127.037 79.9722C133.845 94.9632 131.998 103.22 133.161 114.883C135.461 105.998 143.038 103.39 146.046 95.7069C148.166 90.9593 148.55 86.2032 146.956 80.9876C146.646 79.945 145.94 78.4341 144.499 79.0234C141.351 80.1741 138.115 79.8779 134.624 80.0046ZM133.185 76.3729C136.793 76.646 140.665 76.8409 144.631 76.1648C142.474 72.3423 140.351 68.772 137.404 65.1247C119.927 43.1469 130.681 46.1604 120.369 46.3587C126.327 55.2727 128.129 65.7519 127.677 76.3729H133.185ZM199.153 114.558C209.36 126.479 201.62 127.813 213.145 122.955C214.377 121.521 218.776 121.428 217.106 119.166C212.662 111.916 206.947 106.199 201.034 99.7892C192.736 88.8968 196.409 88.9386 190.113 90.1369C186.574 90.8312 183.437 90.0346 179.648 90.8147C185.727 98.7511 192.832 106.382 199.153 114.558ZM214.164 53.6666C214.456 53.6061 214.747 53.5452 214.981 53.4967C212.413 44.7855 220.195 44.8865 225.595 43.871C226.079 42.683 226.353 41.6044 228.165 41.5613C232.905 44.3607 231.663 45.2041 237.927 45.8392C239.5 46.0879 240.506 46.5429 242.386 46.5251C243.009 46.0398 243.542 45.3344 244.605 45.2103C251.382 44.5996 257.54 49.4896 259.594 55.9199C261.183 59.8006 259.593 63.9167 258.156 67.7645C260.353 73.9889 278.753 73.8474 271.753 83.7595C281.265 88.895 290.61 95.2942 297.894 103.82C301.469 108.292 306.282 118.519 297.303 119.019C296.064 118.96 293.965 119.617 293.941 121.536C294.273 124.762 296.782 126.487 297.966 129.682C309.973 154.484 283.438 139.778 273.89 133.003C274.238 134.036 274.799 135.408 275.146 136.616C274.827 137.194 274.609 137.157 275.497 138.059C278.661 141.673 279.143 145.888 282.379 149.592C284.035 153.534 295.391 158.413 290.322 161.938C292.248 167.153 289.722 166.9 286.096 164.161C288.667 170.27 284.459 168.185 281.256 165.395C286.085 182.31 271.549 165.788 271.167 159.462C266.692 163.508 266.345 157.313 267.03 153.899C266.9 152.843 268.278 151.795 267.003 151.122C268.529 149.257 267.345 146.05 265.608 144.049C263.807 139.656 258.811 147.528 255.378 146.707C252.346 142.88 249.615 137.521 246.488 132.839C244.431 140.261 238.266 143.248 233.828 135.328C231.341 128.828 232.07 121.958 227.196 116.398C221.231 107.948 213.565 101.525 206.113 94.2356C197.822 85.8109 202.661 84.9146 195.636 88.8292C203.241 99.3324 215.411 106.969 220.464 119.477C220.669 121.05 220.64 122.285 221.973 123.572C223.318 126.398 225.656 127.429 228.048 129.258C230.133 131.116 231.131 134.618 227.103 134.16C228.43 137.744 231.891 140.451 233.129 144.216C234.733 149.896 225.495 143.306 224.234 141.723C224.663 145.961 222.908 145.988 220.616 142.352C221.155 149.415 215.554 141.146 214.863 138.733C213.405 135.481 213.871 132.219 211.896 129.097C211.007 127.523 206.847 130.146 205.282 130.044C203.355 129.746 198.662 127.163 203.047 126.331C196.088 113.744 184.367 104.203 177.882 91.098C168.848 88.8639 157.972 94.8627 150.308 100.494C130.392 117.383 137.063 122.957 131.703 118.627C126.657 110.792 130.272 101.071 128.155 92.1927C127.561 89.1806 126.404 84.8337 124.661 82.5421C123.943 82.604 123.464 82.8112 123.055 81.8576C122.703 80.1114 121.932 80.3538 120.294 81.0939C117.322 82.2148 115.144 83.1359 111.83 83.3668C96.1595 83.2311 81.0523 81.5832 65.261 79.9624C79.0334 89.5079 84.8863 99.138 94.1803 107.179C104.268 116.788 106.653 113.82 105.926 118.981C108.692 120.349 114.906 118.257 116.546 122.79C121.06 134.895 119.992 148.141 122.112 160.99C119.359 160.555 121.929 169.315 117.53 166.586C115.061 174.212 109.267 157.095 109.093 155.168C107.534 147.597 106.592 140.075 103.76 132.657C102.941 133.471 102.518 136.275 100.484 135.261C94.6669 132.79 89.144 129.58 83.4802 126.234C69.0504 118.812 56.0665 109.345 44.8326 97.6088C38.5168 91.1412 29.8828 84.5882 30.9728 74.338C32.1742 63.8033 61.3089 55.4097 67.0966 52.8789C75.8862 48.3834 118.472 36.0197 119.364 43.9435C121.424 44.2633 121.484 42.0105 122.923 40.7847C123.805 39.9053 124.641 40.8029 125.288 39.3133C134.332 40.4195 143.696 40.5836 153.092 40.2216C163.071 40.2545 171.34 34.1409 181.533 35.9961C190.506 40.1637 196.29 50.8408 205.384 55.8616C208.144 54.8284 210.864 53.6603 214.164 53.6666Z" fill="black"/>
<path fill-rule="evenodd" clip-rule="evenodd" d="M38.2963 158.736C36.9845 167.237 35.1818 167.637 29.3925 172.714C23.6898 179.232 16.5781 184.714 11.8771 192.341C22.4583 182.563 37.6852 183.802 42.3006 177.049C44.5008 173.582 44.5052 169.723 44.8299 165.49C46.5386 156.433 44.5686 160.328 38.2963 158.736ZM36.7053 158.326C35.7049 157.168 35.5247 159.325 34.2425 158.418C33.3634 154.195 34.7924 149.529 34.8963 144.932C36.4895 129.52 39.3382 114.699 46.3767 100.654C69.986 121.766 67.6176 111.971 60.6736 128.283C57.5957 132.755 56.2224 137.544 54.3808 142.873C52.3849 148.46 49.6366 153.152 50.2824 159.524C50.0014 160.96 47.8035 158.939 47.8954 160.729C47.4636 166.162 47.7116 171.431 45.982 176.837C44.3286 180.892 41.1383 183.709 36.5956 184.608C27.1611 187.874 18.2582 190.369 10.655 197.791C0.35392 199.229 16.5567 179.242 19.3452 177.767C29.062 166.74 35.3486 165.062 36.7053 158.326Z" fill="black"/>
<path fill-rule="evenodd" clip-rule="evenodd" d="M132.9 39.6774C132.093 39.6073 131.286 39.5379 130.479 39.4678C131.286 39.5379 132.093 39.6073 132.9 39.6774Z" fill="black"/>
<path fill-rule="evenodd" clip-rule="evenodd" d="M108.984 83.3652C109.49 83.3719 109.996 83.3785 110.498 83.3852C109.991 83.3785 109.487 83.3719 108.984 83.3652Z" fill="black"/>
<path fill-rule="evenodd" clip-rule="evenodd" d="M111.406 41.2324C110.804 41.5774 110.199 41.6855 109.59 41.262C110.195 41.2518 110.8 41.2421 111.406 41.2324Z" fill="black"/>
<path fill-rule="evenodd" clip-rule="evenodd" d="M116.553 41.4706C115.947 41.4138 115.342 41.3576 114.736 41.3008C115.341 41.3576 115.947 41.4138 116.553 41.4706Z" fill="black"/>
<path fill-rule="evenodd" clip-rule="evenodd" d="M236.738 45.4112C236.133 45.3453 235.527 45.2801 234.922 45.2148C235.528 45.2801 236.133 45.346 236.738 45.4112Z" fill="black"/>
<path fill-rule="evenodd" clip-rule="evenodd" d="M248.242 45.1097C247.738 45.0438 247.233 44.978 246.729 44.9121C247.233 44.978 247.738 45.0438 248.242 45.1097Z" fill="black"/>
<path fill-rule="evenodd" clip-rule="evenodd" d="M214.033 53.4629C213.528 53.4665 213.024 53.4707 212.52 53.4744L214.033 53.4629Z" fill="black"/>
<path fill-rule="evenodd" clip-rule="evenodd" d="M107.168 41.8002C106.663 41.805 106.158 41.8099 105.654 41.8147C106.157 41.4492 106.662 41.5054 107.168 41.8002Z" fill="black"/>
<path fill-rule="evenodd" clip-rule="evenodd" d="M120.844 146.51C120.809 146.007 120.773 145.503 120.738 145C120.774 145.504 120.809 146.008 120.844 146.51Z" fill="black"/>
<path fill-rule="evenodd" clip-rule="evenodd" d="M112.617 83.0828C112.921 83.0762 113.225 83.0695 113.525 83.0635C113.22 83.0701 112.919 83.0768 112.617 83.0828Z" fill="black"/>
<path fill-rule="evenodd" clip-rule="evenodd" d="M289.717 166.145C290.021 166.145 290.325 166.145 290.625 166.146C290.32 166.147 290.019 166.146 289.717 166.145Z" fill="black"/>
<path fill-rule="evenodd" clip-rule="evenodd" d="M94.1504 44.0068C93.7466 44.0721 93.3428 44.1367 92.9395 44.202C93.3437 44.1367 93.747 44.0715 94.1504 44.0068Z" fill="black"/>
<path fill-rule="evenodd" clip-rule="evenodd" d="M87.793 82.176C88.0969 82.1693 88.4014 82.1633 88.7012 82.1572C88.3957 82.1633 88.0943 82.1699 87.793 82.176Z" fill="black"/>
<path fill-rule="evenodd" clip-rule="evenodd" d="M176.901 35.5195C176.469 35.5232 176.036 35.5263 175.604 35.5295C176.037 35.5263 176.469 35.5227 176.901 35.5195Z" fill="black"/>
<path fill-rule="evenodd" clip-rule="evenodd" d="M133.203 76.0186C133.708 76.0892 134.213 76.1605 134.717 76.2312C134.212 76.1605 133.707 76.0892 133.203 76.0186Z" fill="black"/>
<path fill-rule="evenodd" clip-rule="evenodd" d="M238.252 48.0404C237.948 48.0343 237.644 48.0283 237.344 48.0234C237.649 48.0301 237.951 48.0349 238.252 48.0404Z" fill="black"/>
<path fill-rule="evenodd" clip-rule="evenodd" d="M235.527 48.6369C234.767 50.1491 232.647 49.78 234.386 51.9967C236.144 53.4644 233.794 54.3078 232.544 53.388C230.157 50.9812 232.671 48.5762 235.527 48.6369Z" fill="black"/>
</svg>
