<svg width="310" height="232" viewBox="0 0 310 232" fill="none" xmlns="http://www.w3.org/2000/svg">
<path fill-rule="evenodd" clip-rule="evenodd" d="M105.957 106.973C106.908 116.549 107.858 126.126 108.809 135.703C113.984 132.756 119.159 129.809 124.334 126.863V148.68V154.414C124.334 154.922 124.032 156.665 124.334 157.104C124.59 157.477 126.486 157.487 126.935 157.55C129.861 157.959 132.794 158.323 135.731 158.646C143.472 159.499 151.758 160.722 159.528 159.741C166.283 158.889 172.831 156.492 179.003 153.702C181.169 152.723 183.306 151.675 185.402 150.555C185.847 150.317 187.461 149.757 187.702 149.273C187.9 148.878 187.436 147.491 187.375 147.075C187.114 145.326 186.853 143.576 186.592 141.826L182.95 117.391L189.831 124.247C190.37 124.784 191.393 126.309 192.139 126.547C192.686 126.721 194.04 126.181 194.58 126.077C198.476 125.328 202.372 124.579 206.268 123.83C207.175 123.656 209.221 123.662 209.986 123.115C210.398 122.82 210.417 122.221 210.563 121.652C211.513 117.938 212.463 114.223 213.413 110.509C213.584 109.84 214.539 107.73 214.297 107.057C214.21 106.815 213.788 106.65 213.53 106.492C207.651 102.909 201.77 99.3254 195.891 95.7418C192.669 93.7787 189.448 91.8156 186.227 89.8525C184.878 89.03 183.221 87.5484 181.692 87.0884C180.743 86.8027 179.362 87.0167 178.38 86.9886C176.384 86.9318 174.389 86.875 172.393 86.8181C172.081 86.8093 170.986 86.587 170.723 86.7708C170.504 86.9236 170.595 87.1367 170.523 87.501C170.348 88.3907 170.347 89.3502 170.26 90.2534C170.191 90.9783 170.328 92.3074 170.001 92.9635C169.792 93.3828 170.057 93.2157 169.774 93.4184C169.437 93.6596 168.362 93.582 167.961 93.6284C166.006 93.8551 164.05 94.0817 162.094 94.3084C159.769 94.5777 157.418 95.0835 155.082 94.8505C151.541 94.4979 147.723 94.5152 144.245 93.7708C143.342 93.5772 143.016 93.0693 142.319 92.3747C140.958 91.019 139.611 89.6475 138.236 88.3061C137.562 87.6488 137.85 87.7602 137.155 88.0096C136.284 88.3219 135.401 89.0758 134.613 89.555C131.592 91.3909 128.572 93.2268 125.551 95.0627L107.111 106.271C106.726 106.505 106.342 106.739 105.957 106.973Z" fill="#FFAEAD"/>
<path fill-rule="evenodd" clip-rule="evenodd" d="M282.335 108.162C278.533 122.563 270.888 138.265 255.486 142.855C251.741 143.971 248.098 144.813 244.208 144.389C243.838 144.348 243.528 144.4 243.176 144.407C242.545 144.419 243.09 144.645 242.383 144.427C241.831 144.257 241.315 143.832 240.74 143.644C239.211 143.145 237.582 143.048 236.029 142.645C232.212 141.654 228.279 140.431 224.581 139.065C222.839 138.422 221.239 137.526 219.601 136.664C217.936 135.788 216.171 135.244 214.487 134.441C213.157 133.806 210.877 132.978 209.941 131.788C208.944 130.517 210.324 127.813 210.719 126.463C212.06 121.868 213.658 117.341 214.666 112.655C218.148 116.681 222.98 119.174 227.982 120.782C230.696 121.655 233.488 122.286 236.312 122.681C238.875 123.039 241.64 123.473 244.209 122.964C246.149 122.58 248.584 121.69 249.969 120.213C250.463 119.685 251.056 118.719 250.779 117.953C250.428 116.98 249.403 117.438 248.849 116.712C248.366 116.08 248.441 114.602 248.287 113.832C248.015 112.47 247.641 111.145 247.184 109.833C246.298 107.287 245.194 104.735 244.929 102.026C244.699 99.6749 245.236 97.452 246.411 95.4124C246.966 94.448 248.361 91.8249 249.722 91.9338C251.217 92.0534 249.201 98.3392 249.135 99.6214C248.874 104.704 249.557 110.12 252.171 114.576C253.172 116.282 254.619 118.268 256.756 118.479C259.02 118.703 260.845 116.926 261.923 115.128C264.551 110.741 263.226 104.722 261.895 100.124C260.262 94.4838 255.999 90.5958 253.304 85.53C257.328 85.9337 259.483 88.4843 261.548 91.7205C263.821 95.2833 265.591 99.561 266.464 103.706C266.905 105.801 266.601 107.904 266.603 110.019C266.604 110.722 266.604 113.314 267.752 113.212C268.979 113.103 269.4 110.179 269.581 109.287C269.994 107.242 270.442 105.196 270.801 103.14C271.437 99.5025 271.719 95.7771 272.48 92.165C272.609 91.5544 272.865 89.8602 273.781 90.3177C274.488 90.6699 274.374 93.2901 274.4 93.8991C274.463 95.4 274.553 96.9006 274.565 98.4031C274.583 100.63 274.138 102.935 274.356 105.148C274.499 106.594 275.276 108.191 276.241 106.241C277.197 104.307 277.392 101.895 277.925 99.8154C278.485 97.6317 279.063 95.4158 280.252 93.4764C280.581 92.9383 280.936 92.0841 281.669 92.3372C282.201 92.5213 282.594 93.7805 282.759 94.225C283.501 96.2333 283.375 98.4663 283.328 100.569C283.271 103.145 282.994 105.665 282.335 108.162ZM208.21 111.899C208.007 111.834 207.144 111.752 206.93 111.734C206.679 111.712 206.964 111.251 206.357 111.382C206.474 111.672 206.682 111.865 206.982 111.962C206.069 112.27 205.396 111.509 204.771 111.411C204.174 111.318 204.149 111.411 203.559 112.041C202.921 111.263 203.041 111.748 202.516 111.748C202.325 111.749 202.316 112.037 202.005 112.002C201.734 111.972 201.706 111.561 201.545 111.513C200.674 111.25 199.778 112.573 198.79 111.425C198.55 112.62 195.807 111.123 194.752 111.333C193.646 111.553 194.123 111.949 193.229 111.272C192.377 110.628 192.615 111.056 191.624 111.583C191.647 111.571 191.065 111.964 191.119 111.97C190.433 111.89 190.472 111.182 189.603 111.22C188.684 111.26 188.291 111.979 187.45 111.094C187.267 111.757 187.229 111.471 186.798 111.638C186.56 111.694 186.353 111.632 186.175 111.452C186.121 111.634 186.003 111.746 185.819 111.787C185.35 111.829 184.468 111.894 184.042 111.668C183.402 111.33 183.916 111.2 183.472 110.819C183.273 111.869 182.837 111.646 181.918 111.744C181.216 111.819 181.062 111.604 180.392 111.5C179.732 111.397 178.879 111.652 178.235 111.761C177.969 111.806 177.613 111.991 177.343 111.926C177.099 111.868 176.995 111.679 176.849 111.63C176.672 111.57 176.71 111.416 176.404 111.341C176.194 111.29 175.816 111.487 175.606 111.521C174.105 111.764 172.664 111.767 171.232 111.177C171.937 112.414 169.584 111.746 169.164 111.234C168.64 112.054 168.006 111.475 166.949 111.539C165.931 111.601 164.4 111.912 163.987 110.647C163.907 110.904 163.329 111.65 163.099 111.764C162.432 112.094 162.352 111.606 161.732 111.407C160.888 111.137 161.064 111.65 160.54 111.755C159.656 111.931 159.179 111.31 158.398 110.98C158.365 111.493 158.348 111.809 157.903 112.129C157.509 110.698 156.104 112.246 156.345 110.333C155.81 110.681 155.058 110.948 154.905 111.65C155.8 111.405 155.001 111.988 154.963 112.008C154.845 112.069 154.446 111.51 154.353 111.431C154.328 111.695 154.303 111.959 154.277 112.223C153.921 112.045 153.587 111.727 153.298 111.567C153.037 111.424 153.41 111.125 152.97 111.104C152.738 111.093 152.496 111.594 152.252 111.637C151.88 111.702 152.059 111.169 151.903 111.187C151.666 111.214 151.279 111.561 151.099 111.554C150.511 111.532 150.909 111.259 150.46 111.134C149.657 110.909 149.709 111.433 149.132 111.622C147.812 112.055 147.944 110.065 146.601 111.392C146.28 111.71 146.073 112.2 145.633 112.172C144.721 112.116 145.041 111.037 145.227 110.509C145.418 110.604 141.896 112.409 141.924 112.338C141.946 111.905 142.5 111.571 142.005 111.187C141.6 112.053 141.174 112.069 140.241 112.23C139.787 112.308 139.698 112.413 139.212 112.225C138.903 112.105 138.695 111.613 138.388 111.586C138.429 111.59 137.864 112.018 137.778 112.057C137.269 112.286 136.946 112.026 136.451 112.121C136.029 112.201 135.863 112.559 135.443 112.461C134.883 112.33 135.212 111.662 134.441 111.849C134.177 111.912 134.019 112.419 133.603 112.524C132.956 112.688 132.162 112.383 131.478 112.542C130.935 112.668 130.532 112.722 130.057 112.748C129.674 112.769 129.831 112.472 129.125 112.823L128.826 112.07C128.472 112.387 128.118 112.704 127.765 113.022C127.698 112.737 127.655 112.449 127.637 112.158C127.11 112.685 126.446 112.775 125.737 112.822C124.97 112.873 124.398 113.04 123.651 113.18C123.415 113.224 122.807 113.295 122.613 113.213C122.641 113.225 122.249 113.062 122.368 113.093C122.317 112.99 122.269 112.885 122.226 112.778C122.16 112.48 121.945 112.467 121.583 112.738C121.396 112.71 121.033 112.464 120.846 112.525C120.364 112.681 120.43 113.054 119.95 112.999C119.638 112.963 119.479 112.504 119.155 112.473C118.659 112.425 118.229 112.98 117.782 113.1C119.141 112.732 116.018 113.018 116.989 113.043C116.353 113.027 115.692 112.995 115.104 113.28C114.779 113.058 115.173 112.612 114.845 112.429C114.547 112.262 114.524 112.702 114.489 112.712C114.677 112.658 114.583 113.032 114.395 113.099C113.809 113.306 113.341 112.779 113.31 112.257C112.812 113.004 112.673 112.704 111.941 112.75C111.219 112.795 110.596 113.173 109.874 113.166C108.445 113.153 107.476 112.657 106.999 111.384C108.521 111.569 110.053 110.593 111.542 110.823C112.031 110.898 112.336 111.265 112.765 111.2C113.293 111.12 113.662 110.545 114.339 110.483C115.832 110.347 117.304 110.48 118.808 110.251C120.604 109.978 122.479 109.816 124.292 109.949C125.693 110.052 126.828 109.517 128.249 109.415C130.086 109.281 131.939 109.257 133.779 109.161C135.67 109.062 137.705 108.761 139.591 108.857C140.18 108.888 140.686 108.945 141.271 108.91C141.518 108.895 141.752 108.728 142.011 108.753C142.349 108.785 142.494 109.13 142.844 109.118C143.439 109.098 144.076 108.608 144.783 108.595C145.946 108.573 147.105 108.576 148.271 108.51C149.298 108.452 150.398 108.212 151.421 108.225C152.142 108.234 152.32 108.847 152.74 108.911C153.495 109.024 157.318 106.854 157.648 108.802C159.638 107.443 162.307 108.594 164.522 108.338C167.367 108.01 170.265 108.303 173.129 108.186C176.045 108.067 179.043 108.177 181.947 108.451C183.15 108.565 184.312 108.671 185.518 108.602C186.055 108.572 186.677 108.435 187.215 108.558C187.345 108.589 188.342 109.283 188.218 109.303C188.763 108.815 188.394 108.744 189.353 108.719C190.091 108.699 190.79 108.858 191.524 108.902C192.842 108.98 194.171 108.797 195.486 108.838C196.584 108.871 197.658 109.033 198.762 109.041C199.952 109.049 201.358 109.083 202.219 110.04C202.128 109.74 202.037 109.439 201.946 109.138C203.274 109.242 204.587 109.715 205.93 109.494C205.59 109.819 205.245 110.084 205.116 110.56C205.84 110.468 206.33 109.964 207.093 109.96C207.733 109.956 207.866 110.277 208.542 109.863C208.626 110.37 208.709 110.878 208.792 111.385C209.728 111.165 209.114 110.468 209.182 109.84C209.943 110.068 210.588 109.806 210.288 110.899C210.056 111.741 209.003 112.156 208.21 111.899ZM206.894 121.281C206.568 122.196 203.744 121.673 203.076 121.576C202.213 121.452 201.226 121.254 200.431 121.156C200.336 121.029 200.222 120.922 200.089 120.833C199.989 120.972 199.862 121.071 199.709 121.128C199.344 121.208 199.343 121.584 198.864 121.501C198.842 122.057 199.229 121.741 199.525 121.943C198.778 122.443 199.12 121.867 198.7 121.876C198.596 121.729 198.452 121.672 198.266 121.703C198.03 121.764 197.812 121.865 197.613 122.006C197.426 122.203 197.266 122.213 197.133 122.037C197.005 121.909 196.849 121.83 196.665 121.799C195.929 121.919 195.723 122.245 194.894 122.192C193.709 122.116 192.428 122.427 191.262 122.263C190.539 122.161 189.332 121.028 189.004 122.133C188.504 121.314 187.708 120.757 187.23 119.921C189.458 119.792 191.686 119.639 193.916 119.559C195.869 119.488 198.005 119.708 199.829 119.616C201.539 119.53 203.349 119.341 205.094 119.186C206.944 119.021 207.556 119.426 206.894 121.281ZM148.762 121.416C149.571 121.639 150.341 121.133 151.126 121.293C151.385 121.346 151.922 121.817 152.041 121.826C152.257 121.844 152.892 121.381 153.164 121.319C154.888 120.928 156.976 120.969 158.699 121.21C159.612 121.337 159.752 120.92 160.549 120.717C161.378 120.507 162.555 120.669 163.427 120.611C165.479 120.474 167.531 120.571 169.569 120.422C171.662 120.268 173.744 120.185 175.837 120.077C177.263 120.004 180.691 119.192 181.872 120.249C182.847 121.12 181.591 122.632 180.616 122.977C179.887 123.235 179.538 122.692 178.997 122.744C178.381 122.802 178.595 123.529 178.045 122.855C177.705 123.525 175.562 123.24 174.948 123.284C173.61 123.38 172.478 123.648 171.567 122.403C171.629 122.762 171.691 123.121 171.752 123.48C170.544 122.836 169.248 123.043 168.2 123.267C167.681 123.378 166.087 124.146 165.525 123.815C165.138 123.587 165.82 123.198 165.167 123.003C164.825 122.901 164.234 123.468 163.816 123.44C162.659 123.36 162.987 122.584 161.851 123.572C161.466 123.24 161.338 122.675 161.388 122.191C160.563 122.893 160.632 124.064 159.156 123.85C158.606 123.77 158.505 123.21 158.218 123.107C157.607 122.887 157.538 123.283 157.008 123.596C156.809 123.714 156.565 123.904 156.33 123.928C155.846 123.976 155.77 123.754 155.704 123.762C155.382 123.797 154.977 123.96 154.596 123.844C154.253 123.739 154.153 123.136 153.55 123.277C152.973 123.412 152.968 123.803 153.073 124.389C152.503 124.33 152.159 124.014 151.733 123.671C151.303 124.672 150.398 123.843 149.897 124.687C149.245 123.91 148.827 124.124 148.018 123.365C148.057 123.682 148.097 123.999 148.137 124.315C147.505 124.194 147.224 123.75 146.686 124.337C146.163 123.366 144.577 124.75 143.763 123.812C143.4 125.001 140.999 124.716 139.985 124.737C139.086 124.755 138.421 124.682 137.542 124.89C136.766 125.074 135.691 125.265 134.961 125.181C134.484 125.126 133.963 125.038 133.369 125.103C132.512 125.195 131.772 125.638 130.885 125.429C129.549 125.114 128.73 123.362 130.218 122.593C131.236 122.067 133.071 122.262 134.192 122.165C136.049 122.004 138.13 121.666 139.99 121.819C141.441 121.939 142.763 121.594 144.243 121.448C145.358 121.338 147.184 121.14 147.911 122.242C148.19 121.921 148.161 121.25 148.762 121.416ZM128.429 136.501C128.23 135.51 136.721 134.964 137.564 134.899C139.334 134.763 141.108 134.666 142.882 134.621C144.34 134.584 145.7 134.862 147.159 134.638C148.521 134.43 150.165 134.002 151.35 134.965C151.524 133.649 156.636 134.29 157.608 134.294C161.841 134.309 165.892 134.319 169.986 134.057C172.326 133.908 174.811 133.706 177.152 133.823C178.207 133.876 179.057 134.157 180.107 133.913C180.792 133.754 181.53 133.424 182.185 133.891C182.951 134.438 183.278 136.296 182.75 137.071C182.366 137.636 182.026 137.574 181.411 137.476C180.467 137.326 179.765 137.108 178.802 137.491C178.958 137.429 178.157 137.607 178.224 137.602C177.133 137.684 175.637 138.444 174.697 137.567C175.073 137.633 175.62 136.963 175.146 136.907C174.789 136.866 174.563 137.247 174.285 137.375C173.333 137.812 172.846 137.675 172.278 136.759C171.132 137.749 171.008 137.475 170.505 136.256C170.118 136.553 170.034 137.258 169.729 137.489C169.684 137.523 169.872 137.951 169.651 137.933C169.447 137.917 169.38 137.583 169.223 137.556C169.123 137.539 169.071 137.246 168.975 137.229C168.87 137.209 168.763 137.396 168.646 137.391C168.331 137.376 167.43 138.045 167.753 137.106C167.276 137.712 167.07 137.326 166.898 136.775C166.347 137.193 165.796 137.61 165.245 138.028C164.989 137.317 164.548 137.511 163.993 137.759C164.161 137.266 164.056 136.799 163.636 137.142C163.394 137.341 163.23 137.971 162.982 138.239C161.976 137.223 161.61 137.502 160.22 137.634C159.69 137.684 159.031 137.782 158.557 137.462C158.14 137.181 157.905 136.15 157.192 136.983C157.351 136.798 157.102 138.221 157.058 138.447C156.744 138.236 156.477 137.976 156.257 137.668C155.847 138.478 154.771 137.751 153.889 137.916C152.5 138.177 151.068 138.616 149.841 137.585C149.755 137.918 148.75 138.342 148.748 138.355C148.808 137.765 149.181 137.972 148.419 137.86C148.279 137.84 148.12 138.091 147.988 138.119C147.534 138.213 147.004 138.124 146.547 138.111C144.644 138.056 142.903 138.477 141.024 138.629C140.39 138.68 139.639 138.781 139.044 138.543C138.432 138.297 138.449 138.019 137.829 138.177C138.025 138.127 137.442 138.738 137.473 138.715C137.39 138.776 137.042 138.477 136.919 138.5C136.883 138.63 136.847 138.76 136.811 138.891C136.661 138.872 136.512 138.854 136.363 138.836C135.954 138.891 135.586 138.478 135.202 138.464C135.272 138.467 134.166 138.878 134.216 138.903C133.444 138.518 133.666 138.63 132.686 138.864C131.76 139.085 130.837 139.033 129.887 139.171C127.123 139.572 128.77 138.189 128.429 136.501ZM125.988 150.291C125.468 149.556 126.851 149.301 127.293 149.236C128.02 149.129 128.983 149.342 129.467 149.227C130.205 149.052 130.916 148.634 131.746 148.521C132.794 148.378 133.849 148.355 134.901 148.265C135.251 148.235 135.685 148.115 136.026 148.135C136.533 148.166 136.744 148.434 137.154 148.436C137.852 148.439 138.714 147.999 139.429 147.919C140.345 147.815 141.27 147.766 142.191 147.721C144.131 147.625 146.05 147.665 147.989 147.662C148.873 147.661 151.228 146.746 151.669 147.772C152.282 146.994 153.854 147.1 154.731 147.078C156.275 147.038 157.803 146.889 159.345 146.818C160.666 146.757 162.142 147.039 163.439 146.841C164.154 146.732 164.391 146.504 165.201 146.607C165.804 146.683 166.722 146.366 167.239 146.506C167.212 146.499 167.884 146.914 167.674 146.927C167.905 146.913 167.892 147.074 168.146 147.002C168.481 146.908 168.327 146.488 169.02 146.339C170.101 146.107 171.542 146.376 172.665 146.316C173.754 146.258 174.842 146.233 175.932 146.238C176.434 146.241 177.055 146.121 177.543 146.219C177.783 146.267 178.291 146.578 178.494 146.547C179.069 146.457 179.361 146.059 180.138 146.084C181.019 146.112 181.812 146.1 182.687 146.032C183.535 145.968 183.671 145.847 184.091 146.551C184.508 147.249 184.623 148.158 183.856 148.633C184.354 148.6 184.967 149.266 184.38 149.634C184.017 149.862 183.29 149.348 182.856 149.385C182.321 149.431 181.901 149.713 181.319 149.731C180.707 149.749 180.086 149.903 179.482 149.915C178.853 149.927 178.378 149.647 177.782 149.766C177.257 149.871 177.202 150.3 176.57 149.924C176.256 149.736 176.203 149.042 175.775 149.035C175.201 149.027 175.43 149.767 175.1 150.109C175.011 149.051 174.192 150.802 173.867 149.518C173.567 149.944 172.456 150.541 171.918 150.198C171.427 149.886 171.59 149.179 171.386 148.67C171.046 149.585 170.133 150.534 170.216 148.868C169.772 149.413 168.574 149.327 168.875 150.28C168.514 150.273 168.428 149.758 168.124 149.719C167.862 149.686 167.653 149.887 167.613 149.884C167.757 149.896 167.184 150.087 167.175 150.088C167.563 150.01 166.055 149.875 166.311 149.878C165.961 149.875 165.533 150.161 165.124 150.16C164.751 150.159 164.38 150.012 164.012 149.971C163.058 149.862 163.257 150.071 162.658 150.37C162.436 150.481 162.38 150.668 162.065 150.645C161.833 150.628 161.746 150.325 161.719 150.322C161.392 150.289 161.634 150.18 161.126 150.23C161.068 150.33 161.01 150.43 160.952 150.53C160.768 150.764 160.53 150.823 160.238 150.706C159.487 150.867 156.996 151.564 157.24 150.273C156.858 150.459 156.476 150.646 156.094 150.832C155.931 149.791 153.856 151.171 153.393 151.241C152.799 151.33 152.744 151.102 152.182 150.981C152.081 150.959 151.878 151.293 151.64 151.245C151.023 151.121 150.914 151.06 150.808 150.391C150.368 151.212 150.003 150.845 149.205 150.98C149.029 151.01 148.916 151.356 148.663 151.296C148.481 151.253 148.475 150.92 148.35 150.877C148.236 150.839 148.253 150.576 148.087 150.539C147.895 150.496 147.243 151.029 147.056 151.112C146.634 151.297 145.94 151.604 145.528 151.512C145.019 151.399 145.246 151.022 144.526 151.064C143.39 151.131 142.916 152.095 142.21 150.576C141.891 151.184 141.932 151.349 141.42 151.55C141.041 151.699 140.083 151.544 139.584 151.525C137.456 151.447 135.364 152.17 133.254 151.981C132.326 151.898 131.544 151.713 130.608 151.864C129.624 152.023 128.662 152.257 127.664 152.352C127.157 152.4 126.097 152.545 125.848 151.898C125.629 151.328 126.446 150.939 125.988 150.291ZM130.162 173.654C127.401 175.496 125.115 178.012 122.581 180.143C120.04 182.279 118.024 184.654 115.738 187.019C113.626 189.206 111.685 191.274 109.13 192.927C107.514 193.972 106.072 195.26 104.412 196.246C103.168 196.984 101.284 197.955 101.891 195.697C102.513 193.382 103.661 191.042 104.658 188.88C106.075 185.807 107.503 182.763 109.037 179.748C109.613 178.616 109.935 177.488 110.849 176.586C111.844 175.604 112.54 174.322 113.629 173.394C118.21 169.491 125.113 172.506 130.162 173.654ZM138.82 174.977C137.568 175.632 136.167 175.794 134.84 176.227C133.709 176.596 132.658 177.252 131.442 177.301C132.549 176.471 133.5 175.344 134.748 174.715C136.152 174.007 137.426 174.522 138.82 174.977ZM193.776 180.435C189.171 178.884 184.883 176.599 180.397 174.76C179.623 174.443 173.567 172.453 173.69 171.506C177.934 170.73 182.304 169.398 186.558 170.85C190.428 172.171 193.576 175.338 196.571 177.989C197.353 178.68 202.187 181.83 201.754 182.833C201.455 183.529 199.126 183.339 198.576 183.197C197.865 183.012 197.456 182.582 196.898 182.109C195.967 181.319 194.936 180.825 193.776 180.435ZM185.274 154.528C185.974 153.886 186.392 152.912 187.061 152.319C187.919 151.557 189.304 151.928 190.243 152.324C193.059 153.511 195.466 155.508 198.265 156.747C201.366 158.12 204.052 159.955 206.849 161.846C209.406 163.574 212.171 165.005 214.781 166.655C217.441 168.336 220.418 169.429 223.115 171.05C225.859 172.701 228.592 174.358 231.229 176.176C235.931 179.419 240.827 182.75 244.306 187.361C246.093 189.73 247.767 192.419 249.079 195.08C250.272 197.499 251.565 200.858 250.02 203.375C248.536 205.791 246.006 207.695 243.864 209.499C243.053 210.181 242.282 211.011 241.231 211.307C239.952 211.667 238.461 211.567 237.146 211.674C230.115 212.243 223.566 211.706 216.638 210.451C209.957 209.242 203.249 208.564 196.517 207.723C192.72 207.249 188.923 206.697 185.177 205.907C183.575 205.569 181.946 205.18 180.379 204.72C179.011 204.318 177.86 203.433 176.453 203.083C170.482 201.595 163.649 201.026 157.738 198.523C162.969 196.354 168.529 195.043 173.89 193.24C179.534 191.343 185.045 189.751 190.993 189.212C194.054 188.934 196.793 188.155 199.737 187.338C202.543 186.56 205.472 186.322 208.355 185.973C209.636 185.818 213.294 186.05 213.718 184.379C214.351 181.89 210.757 181.602 209.225 181.825C207.052 182.142 205.26 182.683 203.596 180.904C201.898 179.087 200.248 177.227 198.519 175.433C195.313 172.107 192.008 168.26 187.476 166.768C181.947 164.947 175.536 166.675 170.019 167.711C164.193 168.804 158.375 169.851 152.658 171.44C150.29 172.098 147.236 173.548 144.779 173.316C142.357 173.086 139.614 172.69 137.274 171.993C136.215 171.678 135.344 171.094 134.397 170.549C133.164 169.84 131.814 169.386 130.507 168.835C127.863 167.722 125.285 166.696 122.432 166.258C120.03 165.89 117.479 165.671 115.15 166.511C112.867 167.336 110.843 169.014 109.249 170.808C107.518 172.756 106.087 174.939 104.669 177.116C103.987 178.161 103.156 179.072 102.451 180.094C101.858 180.951 101.513 181.904 100.886 182.738C99.4834 184.603 98.5311 186.989 97.6812 189.158C96.7368 191.568 95.6877 194.434 95.9131 197.056C95.9983 198.047 96.0873 199.359 96.4714 200.278C96.9601 201.447 97.6568 201.417 98.661 201.858C100.386 202.615 100.87 204.708 103.1 204.3C105.191 203.917 107.004 202.198 108.53 200.827C110.519 199.041 112.422 197.157 114.325 195.281C116.278 193.355 118.202 191.219 119.756 188.954C120.367 188.062 120.844 187.055 121.566 186.242C122.487 185.208 123.52 185.084 124.77 184.672C135.698 181.069 146.679 177.593 157.949 175.214C160.649 174.644 163.37 173.909 166.023 173.15C168.836 172.346 170.292 173.196 172.614 174.728C177.464 177.928 183.197 180.182 188.598 182.269C190.299 182.927 193.006 182.969 194.335 184.265C186.455 185.464 178.946 187.77 171.346 190.066C167.598 191.199 163.808 192.18 160.047 193.263C156.284 194.346 152.664 195.75 148.953 196.971C145.26 198.186 141.356 198.682 137.627 199.803C133.82 200.947 130.029 201.734 126.122 202.43C122.176 203.132 118.258 203.943 114.299 204.572C112.486 204.86 110.674 205.158 108.881 205.554C107.127 205.942 105.432 206.871 103.67 207.086C95.7969 208.047 88.0788 210.188 80.2369 211.399C74.3815 212.303 64.1949 213.564 60.398 207.702C56.5798 201.807 61.2641 194.93 65.4436 190.715C68.041 188.095 70.9598 185.79 74.0221 183.739C77.2994 181.544 80.4526 179.174 83.7305 176.982C91.1487 172.022 99.1927 167.976 107.163 163.99C110.988 162.077 114.684 160.025 118.405 157.926C120.252 156.884 121.274 158.565 122.734 159.708C123.882 160.607 125.991 162.823 127.598 161.799C127.66 162.168 127.722 162.537 127.783 162.906C128.254 162.692 128.725 162.478 129.195 162.264C129.511 163.091 129.474 163.605 130.358 164.039C130.9 164.306 132.057 164.627 132.574 164.157C132.68 164.484 132.785 164.81 132.89 165.137C133.342 165.102 133.43 163.812 133.515 163.51C134.29 164.639 135.361 165.582 136.722 165.901C136.729 165.828 136.501 164.9 136.511 164.895C136.941 164.631 137.485 165.758 137.713 166C138.47 166.799 138.922 166.675 139.758 166.03C139.819 166.096 140.102 166.833 140.143 166.819C140.324 166.762 140.668 166.109 140.706 166.049C140.653 166.909 142.316 167.082 142.903 166.897C142.771 166.645 142.639 166.394 142.508 166.142C144.553 165.87 145.356 168.037 147.318 167.927C148.769 167.846 147.606 167.529 148.427 166.909C149.144 166.367 149.272 167.552 149.342 167.515C149.479 167.372 149.585 167.208 149.66 167.022C149.926 168.037 152.04 168.947 151.821 167.278C152.653 167.61 153.243 168.161 154.163 168.278C155.282 168.419 156.477 168.182 157.592 168.09C159.997 167.89 162.263 167.401 164.431 166.301C165.716 165.65 167.083 165.058 168.291 164.272C169.302 163.614 171.22 161.617 172.566 162.477C172.221 161.462 173.844 162.402 173.896 161.095C174.156 161.292 174.417 161.487 174.677 161.684C174.834 161.342 174.79 160.803 174.999 160.505C175.287 160.095 175.427 160.336 175.672 160.106C175.947 159.849 176.186 159.159 176.515 158.962C176.854 158.76 177.252 159.001 177.617 158.825C178.172 158.555 180.56 155.928 180.156 158.179C181.182 157.831 180.391 157.513 180.519 156.83C180.776 155.462 181.403 156.447 182.028 156.566C183.05 156.761 183.03 155.918 183.6 155.305C184.121 154.745 185.1 154.494 184.762 153.522C185.147 153.729 185.229 154.135 185.274 154.528ZM123.632 125.308C122.827 126.204 122.223 125.821 121.328 125.69C121.232 125.369 121.068 125.325 120.837 125.556C120.571 125.709 120.286 125.809 119.98 125.857C119.246 126.037 118.483 125.96 117.765 126.234C117.785 125.994 118.038 125.567 117.876 125.323C117.12 125.845 116.652 126.177 115.724 126.186C114.972 126.194 113.653 125.621 113.029 126.306C113.009 126.04 112.99 125.773 112.971 125.506C112.665 125.658 112.399 125.862 112.173 126.117C112.13 125.722 112.106 125.423 111.845 125.103C111.348 126.123 110.804 126.147 109.839 125.757C109.974 125.812 108.873 125.168 108.915 125.346C108.567 123.883 114.062 124.004 114.639 123.946C116.08 123.801 117.52 123.716 118.963 123.584C120.332 123.458 121.353 123.245 122.3 124.385C121.878 122.739 125.871 122.821 123.632 125.308ZM60.6291 99.7897C60.7805 102.277 61.3353 104.922 60.366 107.316C59.5866 109.241 58.0321 111.414 56.3575 112.67C52.9285 115.242 50.022 112.095 49.5448 108.637C49.0473 105.03 50.0334 100.622 53.146 98.398C55.0059 97.0692 56.8068 97.1613 58.9482 97.5982C59.4511 97.701 60.2675 97.6615 60.555 98.1601C60.6225 98.2768 60.562 99.7875 60.6291 99.7897ZM106.171 132.934C105.579 133.233 104.959 133.407 104.437 133.813C104.256 133.954 104.194 134.276 104.001 134.394C103.651 134.61 103.151 134.467 102.785 134.645C102.181 134.94 101.748 135.362 101.03 135.633C99.9631 136.036 99.028 136.59 98.02 137.114C96.3403 137.988 94.5378 138.738 92.7818 139.45C91.8954 139.809 89.444 140.508 89.5289 141.803C89.3307 141.857 89.128 141.424 88.7141 141.459C88.1456 141.506 87.3948 142.162 86.8048 142.323C85.7012 142.624 84.8468 142.651 84.8468 144.055C84.4956 143.817 84.4063 143.234 83.9389 143.157C83.4129 143.07 83.1915 143.636 82.7707 143.812C82.2751 144.02 81.6588 143.821 81.168 144.042C80.9532 144.268 80.7148 144.466 80.4523 144.635C80.1853 144.665 79.9196 144.657 79.6552 144.61C78.6133 144.831 77.6544 145.222 76.61 145.425C75.5922 145.623 74.8952 145.695 75.323 146.896C74.2343 147.109 73.9683 145.956 72.7399 146.378C71.2341 146.894 69.8267 147.267 68.2548 147.582C67.4532 147.742 66.6156 148.101 65.8081 148.185C65.2321 148.245 64.6943 148.04 64.1272 148.104C63.4435 148.18 62.894 148.496 62.1866 148.508C61.5155 148.52 60.8109 148.4 60.1519 148.282C60.245 148.546 60.3615 148.8 60.5015 149.044C60.0458 148.948 59.8355 148.402 59.4492 148.321C59.0438 148.236 58.6806 148.653 58.343 148.561C58.1993 148.521 58.2949 148.079 58.0378 147.995C57.8034 147.918 57.7046 148.009 57.4722 147.972C57.3946 147.96 56.4224 147.908 56.2675 147.989C55.9968 148.133 56.2707 148.401 56.2169 148.441C55.3026 149.116 55.2915 148.751 54.884 148.046C54.2854 147.011 53.5637 147.664 52.4759 147.483C51.2637 147.281 50.3086 147.815 49.1153 147.739C47.8284 147.657 46.3159 146.696 45.1781 146.135C42.721 144.923 40.325 143.776 38.2615 141.941C34.2276 138.353 30.9459 133.941 29.011 128.89C26.932 123.463 26.5381 117.804 26.705 112.047C26.8053 108.584 27.0831 105.124 27.63 101.702C28.0065 99.3481 28.0854 95.1653 30.7448 94.0934C31.2021 99.6047 29.7593 105.221 30.6691 110.696C30.9431 112.346 31.6113 114.543 32.8757 115.765C34.748 117.573 35.1859 114.959 35.3553 113.515C35.6704 110.834 36.256 108.167 36.6705 105.498C37.0847 102.831 37.3773 100.133 37.9534 97.4938C38.1633 96.5314 39.8569 89.4834 41.0999 89.8172C40.8484 94.9444 40.1806 99.9834 40.1543 105.13C40.1438 107.194 39.9586 109.374 40.2572 111.424C40.4108 112.479 41.3738 115.576 43.03 115.318C44.5628 115.079 42.8777 112.898 42.7346 112.057C42.3555 109.83 42.8388 107.06 43.1922 104.851C43.861 100.669 45.3532 96.3855 47.7923 92.8908C49.9767 89.7615 53.3401 86.7825 57.392 87.3343C59.1233 87.5703 60.474 87.9993 61.3439 89.5768C62.0263 90.8148 64.7149 92.2214 63.1569 93.7713C61.7385 95.1823 59.4444 94.0529 57.8677 93.7166C55.9372 93.3046 53.8684 93.8001 52.2539 94.9289C49.484 96.8652 47.9053 100.327 47.3901 103.574C46.6956 107.951 48.552 119.41 55.3894 116.842C59.9315 115.136 63.3526 108.999 62.9713 104.3C62.8183 102.419 62.0814 98.8485 64.6893 98.3407C68.0302 97.6903 68.5021 101.365 68.1639 103.753C67.6721 107.227 65.8322 110.457 63.7272 113.204C61.8927 115.598 59.7589 117.094 57.5513 119.071C56.8977 119.657 55.2307 120.972 55.5107 122.061C55.8175 123.254 58.4374 123.593 59.4866 123.79C64.6763 124.759 70.5288 123.867 75.7097 123.19C86.358 121.799 96.8663 118.372 105.598 112.071C105.951 115.97 106.395 119.855 106.559 123.768C106.638 125.667 106.659 127.594 106.876 129.482C107.01 130.644 107.494 132.267 106.171 132.934ZM76.6455 146.518C76.2275 146.736 76.6794 145.417 76.5631 145.853C77.1876 146.077 77.2152 146.299 76.6455 146.518ZM120.818 99.3399C121.481 98.61 123.294 96.8737 123.87 98.5214C124.084 97.819 124.112 96.7788 124.938 97.7273C125.267 96.5621 128.897 96.6712 129.796 96.6196C132.675 96.4554 135.566 96.3675 138.435 96.0821C144.33 95.4959 150.328 95.7983 156.244 95.779C157.525 95.7749 158.803 95.7056 160.075 95.891C161.303 96.0701 162.592 96.5722 163.843 96.3887C164.955 96.2254 165.685 95.9195 166.829 96.0505C168.199 96.2071 169.529 96.3185 170.911 96.3134C177.024 96.2912 183.134 96.5383 189.248 96.5478C190.439 96.5497 191.867 96.3175 192.985 96.8224C193.399 97.0097 193.852 97.6327 194.168 97.701C194.531 97.7792 194.315 97.2148 194.8 97.4697C195.451 97.8108 194.947 98.8599 194.518 99.0263C194.775 98.9267 194.054 98.8286 194.126 98.8248C193.784 98.8431 193.492 99.1051 193.124 99.0887C192.564 99.0643 192.095 98.7236 191.644 98.4236C191.637 98.5461 191.884 99.3626 191.601 99.4038C191.358 99.4395 191.13 98.6343 191.105 98.447C189.737 99.6509 188.288 98.9798 186.591 99.1323C185.387 99.2405 182.877 100.042 182.037 98.7878C182.002 99.0545 181.895 99.288 181.716 99.4882C181.476 99.853 181.268 99.822 181.093 99.3943C181.033 99.3971 180.449 99.524 180.437 99.523C180.025 99.4905 179.492 99.343 179.073 99.3073C178.425 99.2522 178.545 99.7227 178.029 99.7303C177.747 99.7344 177.028 99.3282 176.536 99.3028C175.685 99.2586 174.815 99.6189 173.976 99.5098C173.397 99.4348 172.875 98.9653 172.308 98.9469C171.601 98.9235 171.372 99.4613 170.812 98.7058C170.697 98.6748 170.626 99.1193 170.58 99.1269C170.591 99.125 170.047 99.2054 169.983 99.2304C169.871 99.2731 169.436 99.4718 169.304 99.474C169.018 99.4794 168.863 99.275 168.56 99.2703C168.059 99.2617 166.458 99.7021 166.503 98.7767C164.714 99.4383 163.187 99.1804 161.351 99.3367C160.508 99.4088 159.979 99.2962 159.177 99.1418C158.173 98.9485 157.507 99.1915 156.505 99.2405C155.543 99.2877 155.24 98.8814 154.428 98.5147C154.108 98.3702 153.896 98.1794 153.503 98.2598C153.279 98.3056 153.438 98.6821 153.372 98.7077C153.027 98.8406 152.786 98.6998 152.313 98.7321C151.439 98.7916 151.092 99.5202 150.193 98.8362C150.492 98.8001 150.79 98.7634 151.089 98.7273C150.23 98.3641 149.097 98.1788 149.305 99.5015C148.572 99.399 149.206 98.9014 148.846 98.7232C148.486 98.5454 148.083 98.8431 147.63 98.9903C146.432 99.3778 145.434 99.1855 144.185 99.1159C142.766 99.0368 139.447 100.192 138.431 98.6922C138.401 99.0083 138.061 99.8888 137.608 99.8473C137.461 99.8337 137.872 98.8992 137.919 98.8001C137.686 99.2953 136.622 99.3892 136.098 99.6461C136.157 99.38 136.216 99.114 136.274 98.8482C135.788 99.3652 135.551 99.0497 134.979 99.2225C134.728 99.2981 134.366 99.8132 134.152 99.8442C133.903 99.5556 133.589 99.4316 133.212 99.4718C132.961 99.4091 132.71 99.3968 132.459 99.4351C131.454 99.5079 130.538 100.065 129.538 99.6857C128.673 99.3566 128.338 98.5109 127.823 99.8565C127.687 99.6173 127.551 99.3781 127.415 99.139C127.248 99.3987 127.081 99.6581 126.913 99.9176C126.259 99.4898 126.218 99.2421 125.465 99.3993C125.288 99.4696 125.107 99.4598 124.921 99.3696C124.877 99.5015 124.833 99.6331 124.788 99.7648C124.77 100.096 124.672 100.205 124.493 100.093C124.342 100.039 124.206 99.9568 124.085 99.8467C123.586 99.8847 122.95 100.016 122.415 99.9432C122.208 99.9157 120.914 99.2339 120.818 99.3399ZM136.069 90.4335C136.128 90.5234 136.186 90.6132 136.245 90.7031C135.436 91.1295 135.246 90.8847 135.162 90.0285C135.557 90.0361 135.625 90.73 136.069 90.4335ZM136.57 89.9311C136.96 90.1026 137.407 90.4395 137.774 89.9881C138.021 90.7047 136.186 91.6826 136.57 89.9311ZM139.087 90.2475C139.905 90.7992 137.942 90.3557 137.946 90.3566C138.298 90.0317 138.678 89.9953 139.087 90.2475ZM146.122 87.1713C146.403 88.5837 147.176 88.5435 148.425 87.887C150.247 86.9293 150.554 85.361 150.681 83.4884C150.803 81.693 151.023 80.9979 152.879 81.3728C154.174 81.6344 155.269 81.4145 156.575 81.3785C157.968 81.3402 158.459 81.5525 158.571 82.9831C158.684 84.4157 158.939 85.5034 159.981 86.5936C161.04 87.7019 162.452 88.3638 163.829 88.9839C164.536 89.3025 165.201 89.6454 165.984 89.7144C166.288 89.7413 167.867 89.542 167.9 90.0406C167.925 90.4155 165.738 91.4728 165.505 91.5987C164.491 92.1492 163.48 92.6431 162.372 92.9766C159.823 93.7441 157.12 93.7893 154.48 93.7428C150.223 93.6682 144.339 91.8715 141.794 88.1028C143.237 87.7924 144.679 87.4817 146.122 87.1713ZM145.74 74.9399C145.067 74.3758 144.631 73.5238 144.071 72.8559C143.789 72.519 143.582 72.4117 143.314 72.2431C143.031 72.0656 142.871 72.3168 142.636 71.8995C142.026 70.821 143.907 69.3033 141.912 68.8882C141.237 68.7474 139.613 69.2811 139.416 68.3162C139.137 66.9517 141.747 66.8624 142.361 66.1699C143.582 64.793 142.753 62.4588 143.497 60.8703C144.201 59.3656 146.018 59.0982 147.453 58.6461C149.451 58.0165 151.474 57.6514 153.503 57.1474C154.922 56.7953 157.279 55.3801 158.595 56.6305C156.565 57.0804 157.745 57.7865 159.098 58.1852C160.631 58.6369 162.256 58.8132 163.845 58.9391C165.48 59.0685 167.146 59.0932 168.762 58.7679C170.256 58.467 171.925 57.1712 173.492 57.503C172.622 59.0112 170.033 59.8351 168.459 60.2302C167.658 60.4314 167.144 60.3685 167.252 61.366C167.356 62.3329 168.199 63.3022 168.389 64.3093C168.64 65.6422 168.42 66.8669 167.945 68.1204C167.477 69.3536 167.368 69.5146 167.777 70.6931C168.414 72.5281 167.045 74.5561 165.78 75.8887C160.663 81.2766 150.871 79.2356 145.74 74.9399ZM158.742 42.7383C158.745 42.7725 158.762 42.7934 158.742 42.7383V42.7383ZM160.335 56.3356C160.123 56.4938 158.901 56.8254 158.952 56.3489C159.021 55.7104 160.122 55.9411 160.335 56.3356ZM163.12 43.4385C162.834 43.2252 162.031 43.3129 162.618 42.5045C162.809 42.8601 162.965 43.1493 163.12 43.4385ZM143.849 38.3287C144.215 37.3811 144.619 36.4997 144.784 35.4911C144.886 34.8697 144.684 34.1601 145.554 34.0626C144.445 33.5798 144.433 31.6743 144.368 30.6866C144.278 29.3261 143.847 27.5048 144.446 26.2386C145.061 24.938 145.891 24.9595 146.142 26.5085C146.24 27.115 145.864 27.3111 145.794 27.7335C145.654 28.5691 145.932 28.3859 146.472 27.7493C146.695 28.3963 146.781 29.3685 147.688 29.3274C147.628 29.1525 147.28 28.7665 147.396 28.5491C147.574 28.2153 148.446 28.7253 148.557 28.8025C149.353 29.3581 149.526 29.8653 148.958 30.566C149.744 30.6505 149.084 31.337 149.591 31.5161C150.365 31.7891 149.846 30.4955 149.762 30.268C150.234 30.4515 150.392 30.6609 150.69 31.0324C150.865 31.2886 151.025 31.5547 151.168 31.83C151.329 32.3324 151.659 32.4583 152.159 32.2077C153.162 32.5216 154.546 32.4725 155.444 33.0211C155.855 33.2717 156.003 33.82 156.346 34.0282C156.732 34.2626 157.248 34.1563 157.663 34.3034C157.511 34.647 157.634 34.833 158.031 34.8621C158.339 34.8903 158.637 34.9596 158.926 35.0697C159.141 34.9074 159.376 34.7792 159.629 34.6859C159.8 34.9855 160.041 35.0595 160.352 34.9086C161.277 35.0814 161.721 35.4303 162.308 35.952C162.836 36.4203 162.406 36.4582 162.984 36.4168C163.217 36.4 163.623 36.0071 164.155 36.0837C164.46 36.1431 164.755 36.2371 165.039 36.3655C165.346 36.6275 165.671 36.6604 166.016 36.4646C166.576 36.7376 166.631 37.2214 167.313 37.2875C168.068 37.3609 167.825 36.4219 168.344 37.7462C169.042 36.3421 169.298 38.5789 170.018 38.7596C170.765 38.9469 170.846 38.3429 171.485 39.0029C171.676 39.2006 171.665 39.5274 171.881 39.7372C172.233 40.0805 172.71 40.0118 173.016 40.48C172.845 40.2187 173.056 41.4061 173.053 41.3668C173.1 41.8908 172.634 42.4776 173.59 42.433C173.579 42.4881 173.12 43.156 173.03 43.0803C173.008 43.0041 172.99 42.9269 172.975 42.8488C172.872 42.8927 172.827 43.529 172.846 43.6413C172.927 43.6539 172.96 43.5938 172.945 43.4609C172.788 43.9516 173.025 44.2633 172.723 44.729C172.53 45.0267 172.001 45.2504 171.72 45.4342C171.043 45.8778 170.379 46.3226 169.718 46.7946C168.176 47.8956 166.449 49.2231 164.508 49.4528C165.483 48.4974 171.094 44.8815 168.28 43.8434C167.758 43.6511 166.807 43.4689 166.261 43.4284C165.582 43.3781 164.88 43.7659 164.132 43.5239C163.228 43.2322 163.568 42.3846 163.016 42.0806C161.844 41.4355 162.121 42.9525 161.752 43.3499C161.365 42.944 161.448 42.7466 160.836 42.7099C160.214 42.6725 160.067 43.2455 159.342 42.8886C158.343 42.3967 158.871 41.4168 157.455 41.3937C157.478 41.1786 157.684 40.5775 157.413 40.4098C157.049 40.8815 157.331 41.4089 156.993 41.8629C156.823 42.0907 156.456 42.2723 156.188 42.346C155.56 42.5181 155.47 42.8478 155.573 41.9041C155.107 42.7409 153.679 42.3967 152.83 42.3125C151.45 42.1755 149.983 41.9148 148.659 41.4731C147.435 41.0644 146.782 40.3623 145.772 39.7236C145.391 39.4819 145.209 39.5742 144.661 39.4243C144.121 39.2762 143.595 38.9893 143.849 38.3287ZM146.762 23.5118C146.97 23.3865 147.12 25.256 146.867 25.6052C146.405 24.8753 145.585 23.8047 146.762 23.5118ZM147.428 22.7661C148.098 22.1608 147.632 23.7241 147.509 23.9863C147.261 23.8275 147.013 23.6687 146.764 23.5099C147.081 23.3159 147.16 23.0075 147.428 22.7661ZM172.712 20.2467C178.903 21.5433 185.039 23.9667 190.004 27.955C194.528 31.5876 197.72 36.7417 199.51 42.2242C201.368 47.9149 200.744 54.2285 196.324 58.5838C193.995 60.8778 190.92 62.262 187.99 63.6126C186.585 64.2596 185.14 64.7987 183.73 65.4308C182.718 65.8848 181.482 66.6112 180.326 66.4853C180.916 65.8665 181.771 65.8538 182.484 65.4754C183.346 65.018 184.05 64.14 184.793 63.513C185.53 62.8903 187.166 60.9297 188.3 61.4043C188.142 60.3599 189.335 59.8749 189.872 59.1862C190.441 58.4576 190.482 57.6055 191.529 57.367C190.404 56.4887 190.749 54.8322 190.993 53.6366C191.306 52.1075 191.451 50.7038 191.574 49.1478C191.797 46.3425 191.976 42.769 190.423 40.3029C189.919 39.5021 189.277 38.7662 188.827 37.9345C188.285 36.9322 188.405 36.0498 188.405 34.951C187.414 35.6154 187.205 34.2607 186.786 33.6004C186.472 33.105 186.059 32.8281 185.958 32.2049C185.884 31.7512 186.378 31.6746 186.107 31.1991C185.776 31.449 185.643 31.8363 185.476 32.1957C185.169 32.0736 185.53 31.6484 185.355 31.5101C185.35 31.5063 184.759 31.2504 184.789 31.2874C184.409 30.8068 184.286 30.0092 184.1 29.4372C183.404 29.789 183.534 29.7476 182.758 29.1597C182.621 29.0563 181.938 28.5811 181.873 28.4257C181.573 27.6993 182.099 28.1296 181.952 27.6788C181.529 26.3838 179.157 26.6287 178.968 24.6884C177.811 25.4214 177.37 24.3828 176.686 23.644C175.985 22.8872 174.809 22.5962 174.872 21.3958C174.508 21.5202 174.144 21.6442 173.78 21.7679C173.969 20.6603 172.32 20.7308 171.723 20.1689C172.054 20.173 172.384 20.199 172.712 20.2467ZM173.655 88.8497C174.229 88.3375 174.055 89.019 174.424 88.9412C174.739 88.8744 174.802 88.6362 175.105 88.5631C176.352 88.2622 178.217 88.6403 179.529 88.5754C181.049 88.5005 183.653 88.8152 184.377 90.5892C184.814 91.6576 184.148 91.2941 183.415 91.2147C182.846 91.1533 182.34 91.2681 181.778 91.2624C181.499 91.3051 181.222 91.301 180.946 91.2495C180.811 91.1609 180.732 91.0362 180.707 90.8755C179.924 90.7572 179.093 91.2194 178.225 91.2425C177.068 91.2732 176.04 91.0517 175.161 90.2722C174.811 90.792 174.573 91.0498 173.944 91.108C173.928 91.1096 173.314 90.8628 173.219 90.8382C173.093 90.8056 172.775 91.0691 172.532 90.9938C172.963 90.3098 173.025 89.4113 173.655 88.8497ZM252.688 95.0232C252.893 94.3142 253.063 93.596 253.249 92.8823C256.106 96.127 258.605 100.471 259.73 104.632C260.461 107.336 261.598 112.236 258.115 113.63C255.277 114.766 253.695 110.694 252.977 108.688C251.392 104.26 251.392 99.5284 252.688 95.0232ZM124.893 44.1807C124.929 44.1734 123.044 45.2678 123.665 44.3816C123.914 44.0254 124.861 43.7748 125.281 43.7748L124.893 44.1807ZM123.079 44.6445C122.861 44.8277 122.64 45.0087 122.418 45.1871C122.204 44.8505 121.991 44.5139 121.777 44.1772C122.198 44.0001 123.985 43.8672 123.079 44.6445ZM121.75 78.6703C121.355 78.4036 121.042 78.5453 120.924 78.993C120.924 78.5475 121.156 77.5127 121.513 77.3921C121.744 77.314 120.746 76.1355 121.027 75.827C121.74 76.2348 121.313 76.6255 121.522 77.152C121.616 77.3896 121.9 77.6142 121.962 77.7968C122.067 78.1065 122.493 79.1717 121.75 78.6703ZM119.817 76.0184C119.413 76.1215 120.12 76.7872 120.119 77.0814C120.119 77.3038 119.851 77.4747 119.741 77.779C119.501 78.4387 119.913 78.8842 119.235 79.3875C119.235 77.9423 118.263 74.1129 120.131 73.4086C119.22 72.6926 119.968 71.8663 120.682 72.723C121.369 73.5469 120.931 75.7337 119.817 76.0184ZM118.844 70.3154C118.476 69.0163 117.371 68.562 116.108 68.6389C116.156 67.9739 116.662 67.0149 117.026 68.2137C117.177 67.8593 117.28 67.3971 117.622 67.1624C118.198 68.9645 121.07 69.9601 119.282 71.9128C119.136 71.3803 118.994 70.8469 118.844 70.3154ZM115.506 68.7357C108.856 69.2169 99.5198 70.5938 94.198 65.5074C90.7282 62.1908 90.9134 57.026 93.7176 53.3411C95.3178 51.2385 97.5022 49.7578 99.6962 48.3474C100.543 47.8029 101.26 47.4435 102.189 47.1306C102.34 47.1145 102.481 47.148 102.614 47.2312C102.666 47.0072 102.792 46.8414 102.994 46.7332C103.353 46.5415 103.864 46.4732 104.071 46.0752C103.85 46.8225 103.737 47.5919 103.656 48.3651C103.476 48.1569 103.297 47.9488 103.119 47.7406C102.969 49.1488 101.499 48.2965 100.621 48.4724C101.199 49.2709 101.613 49.561 101.662 50.6165C101.232 49.823 100.331 49.3013 99.4938 49.0456C99.9486 50.3877 100.27 51.1844 99.8121 52.6561C99.2592 52.341 99.2218 51.5843 98.5511 51.403C98.374 52.2806 98.3427 53.2544 98.116 54.1061C96.3983 53.3243 96.5658 55.4298 97.2555 56.4717C97.6223 57.026 97.8024 57.6676 98.1296 58.1997C98.9324 59.5048 98.3224 57.553 99.2148 57.6457C99.0144 59.0223 98.9447 59.1593 99.9543 60.1673C100.939 61.1502 101.451 62.5141 102.504 63.4377C102.809 63.0485 102.33 62.6413 102.288 62.269C103.268 62.4332 103.727 63.4142 104.67 62.5452C105.081 63.3446 105.526 64.2251 106.511 64.3893C105.86 63.1548 107.761 63.992 108.248 64.1672C108.618 64.3001 109.28 64.4058 109.423 64.457C110.226 64.7465 109.675 64.227 110.163 65.1758C110.878 64.9604 111.149 64.3678 112.005 64.8683C112.701 65.2755 112.702 65.9728 112.861 66.6872C113.027 66.2199 113.195 65.7529 113.378 65.2919C113.565 65.3704 114.349 66.231 114.263 66.2351C116.097 66.1452 116.032 67.2816 115.506 68.7357ZM106.169 45.4393C106.537 45.1814 106.987 45.5247 107.401 45.4323C107.973 45.3048 108.298 44.8154 108.938 44.7628C108.76 45.3304 108.426 45.2773 108.144 45.723C108.047 45.8749 108.097 46.2394 108.012 46.3267C107.295 47.0594 107.047 46.4615 106.315 45.9069C106.379 46.5757 106.508 46.787 105.876 46.9664C105.305 47.129 104.361 46.5301 104.073 46.0707C104.316 45.5854 105.728 45.748 106.169 45.4393ZM110.732 44.3939C111.353 44.4531 110.605 46.2811 109.715 44.5078C110.05 44.4351 110.389 44.3971 110.732 44.3939ZM113.925 44.0406C114.904 43.8412 118.171 42.9123 118.534 44.4335C118.6 44.3955 118.843 43.5369 118.956 43.6416C119.408 44.0614 119.458 44.6179 119.424 45.201C118.877 44.0646 119.072 45.0628 118.701 44.9849C118.604 44.9644 118.457 45.1447 118.211 45.0704C117.89 44.9726 117.66 44.2908 117.457 44.0598C117.12 44.5407 116.701 45.1599 116.025 45.1181C115.547 45.0887 114.776 43.8593 115.396 45.2051C115.032 45.0852 114.61 44.8138 114.205 44.8682C113.751 44.9293 113.515 45.3763 113.09 45.4484C112.147 45.6079 112.005 44.7024 111.393 44.2108C112.237 44.1617 113.091 44.2101 113.925 44.0406ZM119.85 44.026C119.919 43.714 120.776 43.5881 120.994 43.6872C121.527 43.9286 121.33 44.2471 121.232 44.7774C120.837 44.5907 120.441 44.4044 120.046 44.2177C120.636 45.1656 119.567 45.3032 119.85 44.026ZM285.73 99.5477C285.66 97.2761 285.594 94.9653 285.017 92.7538C284.613 91.2061 283.621 88.4308 281.744 88.1622C278.914 87.757 277.346 93.3385 276.554 95.2545C276.395 92.9987 276.534 90.5977 275.68 88.4568C274.996 86.7411 273.269 85.1162 271.782 87.0429C270.458 88.7577 270.203 91.289 269.855 93.3521C269.404 96.0255 269.132 98.7194 268.803 101.409C267.51 98.9162 267.284 96.0628 266.262 93.472C265.298 91.0274 263.781 88.6925 262.32 86.518C261.127 84.7419 259.675 83.072 257.805 81.9862C256.177 81.0412 253.332 80.019 251.781 81.5885C250.486 82.898 250.689 84.6504 250.757 86.3029C250.787 87.0388 250.902 87.5434 250.254 87.9142C249.935 88.0964 249.437 88.0022 249.087 88.0996C248.522 88.2568 248.09 88.5232 247.612 88.8773C244.265 91.3596 242.722 95.8328 242.245 99.8211C241.641 104.874 243.615 109.206 245.314 113.83C245.584 114.566 246.444 116.13 246.325 116.952C246.195 117.854 245.061 117.877 244.296 117.896C241.986 117.953 239.571 117.781 237.272 117.566C231.799 117.055 226.33 114.426 221.429 112.078C220.535 111.65 219.27 111.405 218.54 110.73C217.854 110.096 217.673 109.08 217.081 108.353C215.627 106.568 214.701 105.045 212.561 103.967C210.381 102.869 208.157 101.854 206.031 100.652C203.401 99.164 200.972 97.2796 198.451 95.6139C193.768 92.5191 189.117 89.1262 184.151 86.4946C181.844 85.2715 179.266 85.0734 176.871 84.0721C174.538 83.097 171.675 83.0958 169.24 83.7114C168.055 84.0117 167.248 84.7229 166.157 85.187C164.879 85.7312 163.837 85.1307 162.712 84.4812C160.994 83.489 159.29 81.8723 161.737 80.802C162.567 80.4388 163.607 80.3012 164.332 79.7301C165.105 79.1218 165.726 77.9992 166.354 77.2371C167.752 75.5429 168.586 73.5924 170.631 72.5389C172.893 71.3737 175.573 71.0567 177.984 70.2951C180.597 69.4703 183.155 68.4896 185.719 67.5265C190.338 65.7915 195.141 63.9182 198.46 60.0989C201.323 56.8039 202.571 52.5508 202.456 48.231C202.219 39.3999 197.479 30.4376 190.677 24.9162C182.336 18.1457 171.725 15.888 161.19 16.0063C156.245 16.062 150.344 16.7077 146.219 19.7054C142.655 22.2947 142.062 26.8233 142.592 30.9112C142.808 32.5703 143.543 34.7596 142.37 36.2216C141.714 37.0394 140.536 37.2419 139.652 37.7519C138.541 38.3926 137.562 39.0067 136.304 39.3455C130.959 40.7857 125.33 40.2842 119.866 40.2045C110.763 40.0716 101.433 42.5308 94.6423 48.9311C89.1587 54.0991 87.5142 63.8445 94.2021 68.8828C99.6056 72.953 108.081 72.5053 114.452 71.7954C116.428 71.5749 117.787 71.2547 117.791 73.6668C117.796 76.3016 117.359 79.0553 118.033 81.642C119.094 85.7157 123.016 85.8128 126.485 84.9355C128.315 84.4726 130.084 83.7766 131.822 83.0477C134.371 81.9786 136.707 80.4066 139.224 79.3394C140.931 78.6162 142.209 80.9552 143.722 79.3337C144.002 79.0341 144.054 78.5874 144.475 78.4339C145.137 78.1938 146.246 79.036 146.826 79.3024C147.694 79.7014 148.569 79.9946 148.916 80.9552C149.241 81.8537 149.098 83.2824 148.787 84.1689C148.112 86.0957 146.293 85.7148 144.633 85.586C141.737 85.361 138.86 84.8842 135.965 84.684C133.367 84.5043 130.935 85.2788 128.694 86.5569C123.989 89.2414 120.139 93.5112 116.059 97.0227C113.959 98.8299 111.929 100.782 109.646 102.356C108.653 103.04 107.577 103.669 106.714 104.519C105.858 105.363 105.764 106.13 105.471 107.252C104.95 109.251 102.359 110.228 100.74 111.282C98.4507 112.773 96.0233 113.825 93.4567 114.74C88.0209 116.678 82.5423 118.03 76.8595 119.031C74.0772 119.52 71.318 119.842 68.5084 120.107C66.0868 120.334 63.5115 121.078 61.0928 120.484C61.7894 119.356 63.0239 118.679 63.9853 117.808C65.2248 116.684 66.279 115.353 67.217 113.974C69.043 111.288 70.3236 108.405 70.6178 105.147C70.8829 102.215 70.5789 98.7074 68.8058 96.2305C68.1933 95.3747 66.9817 95.1418 66.4335 94.3711C65.8885 93.6049 66.0963 92.2859 65.798 91.3925C65.0382 89.1202 62.7838 86.3045 60.7998 84.9849C58.6474 83.5526 55.4986 83.0265 53.0121 83.7728C48.4057 85.1554 45.5761 90.0675 43.4683 94.0377C42.3169 91.6199 44.2451 88.0332 41.9958 86.0533C40.0986 84.3831 38.5927 87.6184 37.9581 89.0025C34.9794 95.5 34.303 102.391 33.055 109.343C32.5464 108.843 32.807 107.559 32.8548 106.963C32.9438 105.852 32.9356 104.762 32.9378 103.647C32.9438 100.829 33.4689 97.9978 33.2282 95.1823C33.0892 93.5549 32.5692 90.1232 30.1995 90.6638C28.1899 91.1226 26.9311 93.9425 26.2996 95.6664C25.3888 98.1531 25.1786 100.615 25.2352 103.242C25.2979 106.144 24.7438 108.999 24.6095 111.898C24.3485 117.527 24.6063 123.109 26.2252 128.542C28.8761 137.44 34.9712 144.832 43.106 149.297C47.588 151.756 52.5602 153.313 57.6723 153.647C60.4426 153.829 63.117 153.5 65.8635 153.214C68.574 152.932 71.2987 152.801 74.0044 152.47C80.0301 151.733 85.9017 149.829 91.3786 147.268C94.2617 145.919 96.9727 144.264 99.8086 142.827C100.946 142.25 101.715 141.528 102.686 140.726C103.649 139.932 103.916 139.869 105.01 139.869C104.689 139.012 105.627 138.748 106.044 138.205C106.02 138.468 105.997 138.731 105.973 138.994C106.291 138.306 106.587 138.313 106.861 139.014C107.132 138.229 107.333 137.421 107.659 136.655C108.909 137.286 108.804 138.787 110.476 137.691C111.852 136.79 113.118 135.726 114.521 134.842C117.718 132.829 120.474 130.209 123.68 128.219C123.68 130.158 123.817 132.113 123.557 134.041C123.31 135.875 122.624 137.589 122.078 139.345C121.072 142.584 121.002 146.045 119.887 149.252C119.426 150.58 118.224 151.69 117.879 152.983C117.528 154.302 118.339 155.358 116.979 156.224C116.02 156.835 114.822 157.092 113.76 157.462C112.14 158.025 110.602 158.82 109.026 159.494C101.63 162.656 94.4159 165.877 87.5639 170.129C81.0612 174.163 74.4591 178.33 68.4856 183.122C63.3013 187.281 58.0606 192.658 56.7986 199.442C55.574 206.023 58.8367 213.086 65.3882 215.253C68.7947 216.38 72.6458 216.24 76.1933 216.289C80.0105 216.342 84.0554 215.424 87.8084 214.759C91.7719 214.058 95.6674 212.96 99.6423 212.334C103.456 211.733 106.954 210.389 110.706 209.561C114.701 208.68 118.799 208.201 122.817 207.408C124.625 207.051 126.398 206.524 128.211 206.194C130.197 205.832 132.204 205.696 134.17 205.217C137.984 204.286 141.636 202.787 145.466 201.922C147.188 201.533 148.884 201.012 150.607 200.648C152.193 200.313 153.429 199.424 155.019 200.154C156.303 200.745 157.327 201.757 158.543 202.462C160.119 203.376 161.781 204.195 163.425 204.982C166.727 206.563 170.152 207.656 173.605 208.843C177.231 210.09 180.793 211.512 184.551 212.336C188.403 213.18 192.332 213.415 196.211 214.083C204.154 215.45 212.031 216.064 220.094 216.114C224.17 216.139 228.245 215.657 232.311 215.714C235.91 215.765 239.04 216.574 242.331 214.665C247.591 211.614 253.691 207.018 253.562 200.342C253.445 194.296 249.81 188.519 246.401 183.75C242.26 177.959 236.358 173.881 230.572 169.886C224.406 165.629 217.48 162.687 211 158.971C207.685 157.071 204.629 155.026 201.03 153.675C199.312 153.031 197.636 152.283 195.939 151.589C194.572 151.031 192.6 150.722 191.431 149.796C190.701 149.218 190.631 148.342 190.439 147.483C190.012 145.581 189.341 143.777 188.691 141.942C187.437 138.4 186.603 134.792 186.064 131.078C185.55 127.536 184.409 123.853 185 120.254C188.886 124.006 192.88 127.612 196.857 131.264C198.348 132.633 199.81 134.03 201.308 135.391C202.433 136.412 203.84 137.929 205.408 138.232C207.41 138.619 206.678 136.409 208.053 136.067C208.893 135.858 211.427 137.988 212.092 138.409C216.302 141.076 220.965 142.766 225.596 144.582C230.452 146.486 235.446 148.177 240.672 148.656C245.499 149.099 250.435 148.531 255.093 147.219C264.369 144.605 271.195 138.405 276.204 130.368C281.912 121.209 286.066 110.48 285.73 99.5477Z" fill="black"/>
<path fill-rule="evenodd" clip-rule="evenodd" d="M143.957 79.582C143.955 79.5848 143.941 79.615 143.941 79.615C143.958 79.6029 143.964 79.592 143.957 79.582Z" fill="black"/>
<path fill-rule="evenodd" clip-rule="evenodd" d="M144.404 79.7008C144.37 79.409 144.294 79.1234 144.179 78.8438C143.872 79.3296 143.598 79.5376 144.001 80.0521C144.135 79.935 144.27 79.8179 144.404 79.7008Z" fill="black"/>
<path fill-rule="evenodd" clip-rule="evenodd" d="M165.795 149.132C166.138 148.767 165.537 148.63 165.309 148.625C165.332 149.016 165.138 149.954 165.674 150.135C165.545 149.782 165.586 149.447 165.795 149.132Z" fill="black"/>
<path fill-rule="evenodd" clip-rule="evenodd" d="M156.734 72.8154C156.143 73.953 157.447 74.3059 158.202 73.7563C158.77 73.3432 159.106 72.2899 159.199 71.6141C159.501 69.4274 157.968 67.3461 157.203 65.4059C157.006 64.9043 156.735 63.1844 156.099 63.1371C155.368 63.0828 155.314 64.667 155.304 65.0757C155.276 66.3083 155.603 67.5636 155.987 68.727C156.4 69.9813 157.423 71.4869 156.734 72.8154Z" fill="black"/>
<path fill-rule="evenodd" clip-rule="evenodd" d="M159.541 68.2531C161.81 70.2692 163.625 66.9113 163.467 64.9249C163.428 64.4327 163.095 62.6183 162.159 63.2787C161.689 63.6104 162.09 64.6884 161.866 65.1617C160.781 67.4565 159.735 63.8971 159.005 63.6175C158.116 63.2771 158.026 64.443 158.027 65.0661C158.03 66.303 158.619 67.4338 159.541 68.2531Z" fill="black"/>
<path fill-rule="evenodd" clip-rule="evenodd" d="M151.304 68.5655C151.839 67.7257 152.496 66.5993 152.569 65.5932C152.681 64.0293 151.768 64.1598 151.016 65.251C150.486 66.0218 150.087 67.3292 148.915 67.0042C147.468 66.6035 147.91 64.6619 147.1 63.7393C145.055 66.481 148.926 72.3026 151.304 68.5655Z" fill="black"/>
<path fill-rule="evenodd" clip-rule="evenodd" d="M154.37 76.9565C155.217 77.1389 157.422 77.0716 156.658 75.7789C155.694 74.1504 152.489 76.5503 154.37 76.9565Z" fill="black"/>
<path fill-rule="evenodd" clip-rule="evenodd" d="M184.011 28.3955C184.166 27.9353 183.953 27.8517 183.584 27.4893C183.234 27.8113 183.682 28.1502 184.011 28.3955Z" fill="black"/>
<path fill-rule="evenodd" clip-rule="evenodd" d="M199.793 111.755C200.351 111.844 200.531 111.549 200.332 110.871C199.451 110.814 199.272 111.109 199.793 111.755Z" fill="black"/>
<path fill-rule="evenodd" clip-rule="evenodd" d="M169.312 40.645C169.928 40.9259 169.692 41.5022 169.681 41.9893C169.999 41.6453 170.639 41.0166 170.378 40.5226C169.977 39.761 168.926 40.4693 169.312 40.645Z" fill="black"/>
<path fill-rule="evenodd" clip-rule="evenodd" d="M148.34 31.0589C148.246 30.8762 148.152 30.6935 148.058 30.5107C147.676 30.8169 147.086 31.6266 147.693 32.0212C147.942 31.7195 148.158 31.3988 148.34 31.0589Z" fill="black"/>
<path fill-rule="evenodd" clip-rule="evenodd" d="M155.727 36.4327C156.493 37.0322 156.126 35.1923 156.103 35.042C155.989 35.2578 155.34 36.1299 155.727 36.4327Z" fill="black"/>
<path fill-rule="evenodd" clip-rule="evenodd" d="M155.303 35.4984C155.244 35.3463 155.185 35.1943 155.127 35.042C154.816 35.3289 154.436 35.9147 154.949 36.2503C155.09 36.0152 155.207 35.7647 155.303 35.4984Z" fill="black"/>
<path fill-rule="evenodd" clip-rule="evenodd" d="M160.168 41.8161C160.231 41.8737 160.293 41.9313 160.356 41.9893C160.608 41.4807 160.321 41.0986 159.844 41.083C159.878 41.3686 159.986 41.6129 160.168 41.8161Z" fill="black"/>
<path fill-rule="evenodd" clip-rule="evenodd" d="M139.641 99.0327C139.945 98.8264 140.221 98.5909 140.469 98.3267C139.569 97.778 140.108 98.967 139.026 98.2369C138.792 98.5587 139.173 99.2786 139.641 99.0327Z" fill="black"/>
<path fill-rule="evenodd" clip-rule="evenodd" d="M177.433 148.927C177.775 148.403 177.837 148.418 177.37 148.021C176.98 148.668 177.021 148.502 177.433 148.927Z" fill="black"/>
<path fill-rule="evenodd" clip-rule="evenodd" d="M105.957 65.5755C106.143 65.7693 106.329 65.9631 106.516 66.1566C106.602 65.9031 107.076 65.1867 106.755 64.9482C106.489 65.1573 106.223 65.3664 105.957 65.5755Z" fill="black"/>
<path fill-rule="evenodd" clip-rule="evenodd" d="M112.579 67.492C112.282 67.4424 111.571 67.2256 111.406 67.5019C111.841 67.8583 112.822 67.5329 112.579 67.492Z" fill="black"/>
</svg>
