<svg width="310" height="232" viewBox="0 0 310 232" fill="none" xmlns="http://www.w3.org/2000/svg">
<g clip-path="url(#clip0)">
<path fill-rule="evenodd" clip-rule="evenodd" d="M240.675 34.0352C240.784 34.9798 241.959 34.2584 242.069 34.7704C242.139 35.0921 240.929 35.8906 240.668 36.1105C241.511 36.6174 242.587 35.4495 243.219 34.9601C243.544 35.3127 243.654 35.4978 243.355 35.9011C242.828 36.6131 242.852 35.6697 242.224 36.1651C242.486 36.6032 242.715 36.3521 243.047 36.2343C242.902 37.0771 243.226 36.5437 243.48 37.0774C243.685 37.5115 243.66 37.8323 243.722 38.3172C243.424 38.9999 243.126 39.6829 242.828 40.3656C242.47 41.187 242.577 41.451 241.701 41.1764C241.799 41.006 242.455 40.1729 242.401 39.9681C242.341 39.734 241.445 39.4101 241.208 39.2135C240.791 38.8676 240.796 38.5709 240.53 38.1994C240.636 37.8538 240.554 37.6922 240.283 37.7154L239.985 38.5163C240.01 39.0845 240.491 39.0313 240.774 39.5742C241.209 40.4049 240.966 39.9146 240.61 40.5831C240.262 41.2398 240.223 42.0781 239.649 42.4083C239.957 42.5433 240.265 42.6784 240.574 42.8131C239.854 43.6009 241.35 43.2173 241.598 43.1409C241.345 43.6771 241.092 44.2133 240.839 44.7494C240.08 44.3259 239.706 43.523 239.201 42.8599L238.048 44.9993C238.431 44.9639 238.813 44.9289 239.195 44.8935C239.142 44.9941 238.652 45.6841 238.694 45.8376C238.865 46.4632 240.167 46.1103 240.023 46.9287C240.004 47.0335 238.837 48.2077 238.637 48.321C239.224 48.5838 239.489 48.4747 239.279 49.165L238.462 48.6723C238.23 49.0877 237.962 49.4934 237.814 49.9483C237.842 50.2459 237.789 50.5277 237.654 50.7941C237.494 51.0325 237.313 51.2548 237.112 51.4608C236.953 51.8792 236.901 54.163 237.093 54.5354C237.521 53.9835 238.478 54.9578 236.863 54.9578C236.156 54.9578 236.204 54.8109 235.933 55.4308C235.721 55.9187 235.606 56.3443 236.208 56.3911C235.755 57.282 235.852 57.9683 235.811 58.9178C235.778 59.6869 235.562 60.4514 235.402 61.206C235.545 61.0003 235.689 60.7949 235.832 60.5892C236.219 61.4121 235.924 62.105 235.74 62.9856C235.339 62.4567 235.29 63.4004 234.947 63.3028C234.246 63.1034 234.771 62.9566 234.486 62.4984C234.239 62.1014 234.265 61.9875 233.809 61.745C233.204 61.4232 232.144 61.4112 231.46 61.2976C230.31 61.1061 229.158 61.058 227.994 61.0076C223.638 60.8191 219.296 60.7707 214.941 61.0097C210.933 61.2296 206.829 61.7903 202.899 62.5497C198.716 63.3581 194.624 64.1036 190.572 65.4712C189.79 65.7355 189.006 66.2868 188.223 66.4804C187.481 66.6644 186.736 66.662 185.962 66.9302C184.109 67.5725 182.191 68.0594 180.323 68.6723C178.31 69.333 176.132 69.884 174.216 70.7984C173.384 71.1956 172.629 71.7343 171.797 72.1366C171.013 72.5157 169.696 72.8616 169.282 73.7371C169.121 74.0784 169.148 74.3258 169.248 74.6796C169.449 75.3895 169.608 75.3127 170.154 75.2647C170.914 75.1976 171.897 74.6077 172.635 74.3757C174.655 73.7407 176.699 73.2323 178.753 72.7236C182.442 71.8098 186.145 70.1918 189.785 69.559C191.944 69.1838 193.989 68.1633 196.16 67.7779C196.636 67.6936 198.015 67.0154 198.406 67.2498C198.509 67.3118 198.763 68.0561 198.852 68.234C199.173 68.8732 199.54 69.4904 199.971 70.0628C201.268 71.7889 203.009 73.1791 204.562 74.6666C206.336 76.3658 207.878 78.2402 209.516 80.0642C209.658 79.8996 209.8 79.7349 209.942 79.5706C209.792 80.7224 210.657 81.5532 211.364 82.3353C212.203 83.2645 212.877 84.1378 213.539 85.1972C214.082 86.066 214.776 86.8266 215.389 87.6181C215.992 88.3969 216.394 89.3367 216.949 90.1758C218.223 92.1034 219.476 94.0682 220.761 95.9698C221.366 96.8649 221.844 97.872 222.322 98.8909C222.702 99.6996 223.845 101.353 223.845 102.138C223.763 102.522 224.598 104.834 223.706 103.744C223.564 103.964 223.421 104.184 223.278 104.404C223.522 104.302 223.766 104.2 224.01 104.098C223.269 104.767 224.653 104.853 224.684 105.228C224.56 105.346 224.437 105.465 224.314 105.584C224.103 106.017 223.829 106.073 223.492 105.752C223.121 105.775 223.046 105.568 222.632 105.706C223.028 106.322 223.537 105.933 223.738 106.784C223.914 107.534 223.355 107.695 222.765 108.138L222.728 108.166L222.716 108.21C222.587 108.594 222.222 108.431 221.816 108.347C220.844 108.147 219.77 107.765 218.824 107.47C216.778 106.834 214.717 106.297 212.602 105.862C207.777 104.868 202.99 104.915 198.12 104.601C198.248 104.069 198.249 104.115 198.097 103.786C198.292 104.209 197.116 103.656 198.002 104.591C195.74 104.96 193.296 104.682 191.001 104.805C191.108 104.568 191.353 104.295 191.124 104.123C190.038 105.69 186.407 105.018 184.612 105.243C183.559 105.375 182.518 105.627 181.468 105.794L181.026 105.863C180.657 105.921 180.288 105.986 179.928 106.083C179.464 106.208 178.691 106.72 178.251 106.601C178.895 105.306 178.152 106.427 178.051 106.442C177.745 106.487 177.219 106.59 176.78 106.59C177.28 104.584 178.139 102.735 178.485 100.669C178.701 99.3809 179.294 97.3062 178.017 96.3933C177.318 95.8931 176.172 95.7846 175.362 95.6145C174.475 95.4282 172.924 95.4357 172.151 94.9352C171.548 94.544 171.421 94.1845 170.631 93.8854C169.72 93.5404 169.3 93.1979 168.379 93.4767C168.753 93.0088 169.278 92.6674 168.543 92.1892C168.242 91.9938 167.652 92.2569 167.546 91.8291C167 92.2137 167.13 92.5242 166.984 93.0514C166.997 93.2743 167.056 93.487 167.16 93.6888C166.872 93.8048 166.583 93.9208 166.294 94.0368C166.478 93.5447 165.939 93.838 165.832 93.596C165.672 93.2344 165.767 92.6825 165.767 92.2901C165.172 92.4777 164.549 92.7097 164.289 93.3278C163.56 92.8943 163.849 92.8647 164.223 92.2143C163.611 92.0699 163.482 92.3841 163.389 92.8898C163.066 92.7901 162.743 92.6907 162.42 92.5913C163.148 92.5862 163.322 92.0189 163.34 91.4026C163.057 91.4944 162.774 91.5866 162.49 91.6784C162.432 91.9766 162.374 92.2747 162.316 92.5729C161.87 92.9499 160.71 92.269 160.334 92.0741C159.021 91.3954 158.541 91.199 158.726 89.6566C158.881 88.3636 159.223 87.0644 159.299 85.7648C159.384 84.3212 159.215 82.7772 159.088 81.3381C158.842 78.5532 158.447 75.8088 158.308 73.0124C158.233 71.4983 158.15 69.984 158.09 68.469C158.043 67.2649 157.626 65.94 159.132 65.8331C158.948 65.25 159.499 64.5758 160.068 64.2565C160.267 63.8043 160.484 63.7638 160.72 64.1356C160.926 64.2 161.116 64.1698 161.293 64.0444C162.122 63.8568 163.116 62.6832 163.86 62.26C164.59 61.8453 166.181 61.2423 166.702 60.5439C167.205 59.8681 166.443 59.9442 166.597 59.325C166.807 58.4785 167.573 59.6941 167.691 59.8633C167.946 59.6068 168.924 59.1259 168.912 58.7531C168.673 58.7105 168.433 58.6679 168.194 58.6253C168.456 58.4746 169.036 58.0245 169.34 57.965C169.857 57.8638 169.663 57.733 170.078 58.3018C170.222 58.0789 170.572 57.3463 170.792 57.198C170.897 57.127 171.519 57.0799 171.649 57.034C172.327 56.795 172.259 56.2691 172.757 56.019C172.998 55.8978 173.295 56.0839 173.498 55.9957C173.822 55.8543 173.823 55.3719 174.117 55.197C174.371 55.0454 175.016 55.1713 175.32 55.0611C175.823 54.8777 175.801 54.707 176.176 54.3723C176.703 53.9032 177.187 53.9711 177.774 53.6156C178.382 53.2471 178.288 52.4172 178.84 52.2589C179.577 52.0478 179.765 52.7438 180.166 52.0562C180.256 51.9019 179.847 51.6711 180.104 51.4234C180.42 51.1183 180.55 51.4823 180.695 51.7194L181.196 50.7778C181.997 51.2158 181.661 50.651 182.272 50.3501C182.544 50.2166 182.768 50.4803 183.065 50.319C183.284 50.2005 183.322 49.9426 183.479 49.7828C183.781 49.4755 183.948 49.0538 184.416 48.9076C184.247 48.9602 185.634 48.9203 185.51 48.8611C185.375 48.6635 185.24 48.466 185.105 48.2684C185.831 48.2684 186.464 48.3403 187.166 48.1228C187.415 48.0461 187.803 47.9277 188.01 47.77C188.578 47.3365 188.45 47.4422 188.45 46.6459C189.234 47.1438 190.232 46.9698 191.005 46.3925C191.409 46.091 191.668 45.7303 192.111 45.4578C192.301 45.3597 192.494 45.2678 192.691 45.1826C192.936 44.9289 193.183 44.9265 193.429 45.1757C193.778 45.0823 193.774 45.018 194.044 44.8491C194.122 44.6963 194.204 44.5461 194.293 44.399C194.583 44.3688 194.869 44.3166 195.151 44.2422C196.246 43.9483 196.907 43.2191 197.923 43.8653C198.053 43.6009 198.183 43.3363 198.313 43.0717C198.745 43.7459 199.041 43.1019 199.615 42.8288C199.856 42.7143 200.168 42.6859 200.386 42.5814L200.753 42.6681C200.857 42.3479 200.96 42.0277 201.064 41.7075C201.273 41.7887 202.102 42.2331 202.352 42.2095C202.709 42.176 203.136 41.5727 203.482 41.4589C204.01 41.2852 203.82 41.5147 204.339 41.5184C204.738 41.5211 204.926 41.5776 205.27 41.2435C204.106 40.9417 205.575 40.7994 206.065 40.6973C206.83 40.5384 207.224 40.7082 207.755 40.1055H207.203C207.747 39.6116 207.564 39.7859 208.137 39.8343C208.318 39.8491 209.102 40.2789 209.104 39.7056C209.844 40.1409 209.852 40.1418 210.615 39.9454C210.953 39.8584 211.241 39.5754 211.612 39.5687C211.975 39.5624 212.234 39.7258 212.558 39.6908C212.751 39.6702 213.428 39.4168 213.657 39.3337C214.02 39.2017 214.259 38.9198 214.607 38.8108C214.989 38.6903 215.475 38.8334 215.876 38.7455C217.07 38.4833 217.77 37.7704 219.063 38.1565C219.201 37.0022 220.642 37.259 221.418 37.378C221.958 37.4611 222.234 37.6792 222.793 37.4152C223.248 37.2004 223.508 36.8596 224.014 36.6881C224.403 36.5563 224.927 36.4606 225.333 36.3766C225.584 36.2975 225.84 36.2721 226.102 36.3008C226.365 36.3376 226.586 36.4519 226.763 36.6431L226.796 36.6808C226.837 36.5855 227.448 36.1335 227.378 36.1893C227.835 35.8247 228.049 35.964 228.329 35.2541L227.351 35.048C227.854 35.0142 228.233 34.9562 228.681 35.1517C228.991 35.2867 229.511 36.0023 229.821 36.0029C230.382 36.0035 230.578 35.2148 230.523 34.8043C230.994 35.8981 231.395 36.0803 232.452 35.5211C232.577 35.4552 232.701 35.3897 232.825 35.3238C233.077 35.0607 233.327 35.0656 233.576 35.3386L234.019 35.5794C234.196 35.2843 234.374 34.9894 234.552 34.6943C234.929 35.2127 235.288 35.2381 235.903 35.1169C236.327 35.0332 237.197 34.2662 237.51 34.2666C237.692 34.2666 237.923 34.7076 238.226 34.7937C238.726 34.9369 239.504 34.5768 239.682 34.0989C239.777 34.2983 239.872 34.4979 239.966 34.6976C240.202 34.4771 240.44 34.2572 240.675 34.0352ZM222.712 108.162L222.712 108.179L222.728 108.166L222.729 108.166L222.712 108.162ZM222.098 107.122V108.051L222.413 108.108L222.712 108.162L222.715 108.112C222.729 107.665 222.499 107.334 222.098 107.122ZM194.241 103.426C194.142 103.727 194.044 104.028 193.946 104.329C194.277 104.356 194.608 104.383 194.939 104.41C194.706 104.082 194.473 103.754 194.241 103.426ZM155.361 79.6238C156.085 79.8347 156.075 79.809 156.22 80.4772C157.047 84.2804 154.489 88.6425 156.367 92.2578C150.877 92.2134 145.375 92.3228 139.917 92.9647C139.917 90.8936 139.985 88.8271 139.828 86.7593C139.757 85.8207 139.651 84.8855 139.555 83.9493C139.434 82.7612 139.472 82.8307 140.446 82.6262C140.958 82.5187 141.142 82.1948 141.631 81.9976C141.998 81.8492 142.163 82.0317 142.525 82.0825C143.172 82.1737 143.18 82.0652 143.774 81.939C145.047 81.668 146.129 81.7647 147.135 80.8158C147.657 80.7708 147.488 81.2529 147.851 81.2058C148.116 81.1714 148.284 80.679 148.554 80.5615C149.393 80.195 150.789 80.2845 151.707 80.17C152.645 80.0534 153.474 79.6314 154.372 79.5063C154.742 79.4549 155.011 79.5217 155.361 79.6238ZM165.952 90.6003C165.775 91.2578 164.998 90.4018 164.986 90.9176L164.986 90.9634L164.988 90.9517C165.029 90.8647 165.815 91.9029 165.769 91.8684C166.191 92.1859 166.437 92.156 166.916 91.7917C166.059 91.7594 166.154 91.2319 165.952 90.6003ZM168.34 91.5295C168.652 91.7011 168.748 91.2621 168.91 90.9942C168.561 90.8205 168.509 91.2247 168.34 91.5295ZM167.372 88.6684C167.493 89.0956 167.485 89.4231 167.485 89.8641C168.208 89.762 168.435 89.7094 168.449 88.9418L168.062 89.1844C167.859 88.7835 167.814 88.7524 167.372 88.6684ZM161.775 89.3835C161.939 89.2784 162.102 89.1729 162.266 89.0675C162.025 88.7207 161.595 89.1331 161.775 89.3835ZM163.604 83.0017C163.813 82.8923 164.022 82.783 164.231 82.6736C163.689 81.9833 163.649 82.215 163.604 83.0017ZM162.848 77.5267H162.026C162.187 78.0541 162.848 78.1677 162.848 77.5267ZM243.406 46.8404C243.594 46.9498 243.782 47.0592 243.97 47.1682C243.482 47.612 242.882 48.0593 243.357 48.5795C243.735 48.9925 245.497 49.1894 246.025 49.3399C245.842 49.5501 245.464 50.1247 245.215 50.2694C245.017 50.3839 244.836 49.9305 244.437 50.3821C245.099 50.7246 244.921 50.4651 244.749 51.1917C244.648 51.6203 244.285 52.0807 244.081 52.4652C243.583 53.4008 243.073 54.3303 242.551 55.2526C241.479 57.1439 240.352 59.0038 239.166 60.8266C238.966 59.7971 239.538 58.6434 239.834 57.6502C240.207 56.4002 240.581 55.1508 240.956 53.9016C241.681 51.4946 242.331 49.1127 243.406 46.8404ZM214.651 49.9812C214.115 50.1175 213.764 50.2063 213.211 50.3471C214.015 50.6026 214.015 50.6026 214.651 49.9812ZM238.362 45.3415C237.679 45.6605 237.606 45.8922 238.159 46.2825C238.225 45.9789 238.273 45.7563 238.362 45.3415ZM238.279 37.7928C238.187 38.1979 237.613 37.8082 237.485 38.1042C237.194 38.7815 238.12 38.6897 238.453 38.6489C238.396 38.3634 238.337 38.0782 238.279 37.7928ZM242.15 37.2786C241.967 38.1447 241.967 38.1447 242.813 38.2749C242.591 37.9414 242.405 37.6617 242.15 37.2786ZM226.796 36.6808L226.795 36.69C226.795 36.6935 226.798 36.6958 226.802 36.6967L226.811 36.6971L226.796 36.6808Z" fill="#85A090"/>
<path fill-rule="evenodd" clip-rule="evenodd" d="M119.762 127.394C119.634 128.054 119.313 128.364 119.649 128.97C119.935 129.484 120.753 129.821 121.303 129.691L119.762 127.394ZM104.875 103.939L102.165 104.866C102.906 105.591 103.612 106.353 104.429 106.997L104.875 103.939ZM149.583 106.313C148.29 105.663 146.842 105.589 145.425 105.506C145.64 106.667 145.856 107.828 146.072 108.989C147.242 108.097 148.413 107.205 149.583 106.313ZM118.543 196.181C118.285 195.725 116.525 192.203 116.16 192.384C115.965 192.48 115.95 194.441 115.922 194.72C115.821 195.712 115.72 196.704 115.619 197.696C116.66 197.329 117.772 197.025 118.543 196.181ZM106.249 167.709C106.515 168.487 106.782 169.265 107.048 170.044C107.174 170.414 107.249 170.96 107.473 171.286C107.764 171.71 107.544 171.959 107.932 171.495C108.35 170.997 108.474 169.669 108.655 169.058C108.931 168.131 109.205 167.205 109.48 166.278C108.184 166.267 107.399 167.332 106.249 167.709ZM79.0146 121.871C77.4211 122.957 75.8078 124.036 74.4213 125.387C75.641 125.311 77.3393 126.148 78.4882 125.755C79.0186 125.868 79.1939 125.667 79.0146 125.151V124.081V121.871ZM102.644 129.559V135.905C104.132 134.64 105.698 133.465 107.129 132.134C105.634 131.276 104.139 130.418 102.644 129.559ZM155.834 146.002C155.365 148.827 155.339 151.734 155.21 154.593C155.187 155.101 154.992 155.865 155.33 156.309C155.67 156.755 156.639 157.001 157.131 157.239C158.516 157.909 159.892 158.598 161.273 159.277C159.46 154.852 157.647 150.427 155.834 146.002ZM190.997 128.628C194.414 126.952 197.831 125.276 201.248 123.6C197.898 122.185 194.547 120.77 191.198 119.355C191.131 122.446 191.064 125.537 190.997 128.628ZM155.827 136.519C156.452 136.564 156.55 134.19 156.654 133.562C156.85 132.371 157.052 131.18 157.259 129.991C157.673 127.612 158.107 125.237 158.565 122.867C159.481 118.126 160.49 113.404 161.609 108.707C160.407 108.491 159.302 108.335 158.128 107.986C157.179 107.704 156.05 107.858 155.203 107.271C155.093 109.472 155.644 111.811 155.847 114.012C156.084 116.558 156.21 119.091 156.19 121.649C156.148 126.606 155.96 131.564 155.827 136.519ZM77.1822 203.678C77.7743 203.52 76.9682 195.421 76.9321 194.252C76.8292 190.871 76.8092 187.486 76.8698 184.104C73.6796 186.1 70.4152 187.938 67.0451 189.596C67.9113 190.717 68.7229 191.926 69.6814 192.97C70.6689 194.044 71.8017 194.925 72.7169 196.082C74.5593 198.413 75.8214 201.058 77.1822 203.678ZM153.952 155.762C154.1 153.326 154.237 150.894 154.484 148.465C154.589 147.432 155.59 141.939 153.987 142.068C153.075 142.141 151.476 143.473 150.64 143.94C149.535 144.556 148.43 145.17 147.32 145.777C145.13 146.975 142.925 148.145 140.727 149.329C145.135 151.473 149.544 153.618 153.952 155.762ZM144.434 105.103C142.609 104.967 140.844 104.832 139.043 104.492C138.071 104.309 137.1 104.335 136.124 104.211C135.425 104.123 134.058 103.55 133.406 103.737C132.588 103.973 132.29 108.066 132.178 109.094C131.996 110.748 131.874 112.756 132.615 114.311C134.043 117.307 137.89 114.968 139.761 113.711C141.365 112.633 143.183 111.542 144.605 110.234C145.866 109.075 144.734 106.601 144.434 105.103ZM153.903 137.69C155.279 137.135 155.257 136.438 155.317 135.002C155.389 133.257 155.432 131.51 155.482 129.764C155.571 126.653 155.655 123.541 155.627 120.428C155.6 117.388 155.451 114.352 155.102 111.33C154.979 110.262 155.101 108.437 154.537 107.526C154.022 106.694 152.424 106.685 151.552 106.737C150.568 106.794 149.772 107.726 149.046 108.315C148.242 108.968 146.591 109.887 146.459 110.861C146.312 111.947 146.91 113.498 147.142 114.553C147.99 118.4 149.022 122.21 150.108 125.996C151.236 129.925 152.378 133.893 153.903 137.69ZM118.953 128.48C119.042 127.616 119.364 126.894 118.928 126.07C118.554 125.362 117.944 124.651 117.486 123.98C116.175 122.06 114.705 120.221 113.277 118.387C111.969 116.707 110.629 115.045 109.258 113.416C108.495 112.509 107.708 111.621 106.926 110.73C106.352 110.078 105.809 109.161 104.999 108.82C104.402 112.565 103.908 116.326 103.523 120.099C103.337 121.923 103.177 123.749 103.042 125.577C103.004 126.093 102.603 127.836 102.859 128.316C103.129 128.821 104.777 129.497 105.282 129.806C106.693 130.671 107.789 131.975 109.131 130.552C110.054 129.573 110.798 128.193 111.83 127.338C112.368 126.893 112.875 126.914 113.478 126.649C114.18 126.342 114.202 126.047 115.04 126.464C116.452 127.168 117.31 128.208 118.953 128.48ZM48.2496 147.749C48.2496 150.341 48.0719 152.473 49.8332 154.572C51.3723 156.406 52.9716 156.83 55.1365 157.554C56.4113 157.98 56.5003 157.587 57.5332 156.868C58.515 156.185 59.5839 155.636 60.5521 154.931C62.6388 153.412 64.7241 151.844 66.7521 150.246C67.4338 149.709 67.3333 149.892 67.2298 149.247C67.135 148.66 66.7124 147.912 66.4814 147.353C66.0637 146.342 65.5714 145.363 65.0789 144.387C64.5197 143.279 64.0326 142.075 63.3382 141.042C63.0499 140.613 62.7079 140.225 62.3715 139.835C61.6634 139.011 61.6886 139.042 60.8418 139.715C59.0542 141.135 57.3909 142.673 55.379 143.784C52.9986 145.099 50.6239 146.422 48.2496 147.749ZM102.151 127.665C102.409 123.942 102.701 120.241 103.148 116.535C103.377 114.633 103.645 112.735 103.905 110.837C104.011 110.064 104.42 108.766 104.192 108.015C103.968 107.276 102.981 106.572 102.439 106.038C102.293 105.894 101.845 105.291 101.653 105.264C101.447 105.235 100.671 105.802 100.447 105.93C99.6557 106.382 98.8786 106.859 98.1133 107.354C96.671 108.288 95.2736 109.29 93.9062 110.329C91.0387 112.509 88.3041 114.854 85.4974 117.11C88.0688 119.359 91.2339 121.105 94.109 122.926C95.8088 124.003 97.5175 125.068 99.2482 126.095C100.126 126.615 101.144 127.411 102.151 127.665ZM66.9994 194.226C64.923 195.596 62.9401 197.042 60.5917 197.921C58.254 198.797 55.9436 199.134 53.5274 199.654C52.3089 199.916 51.1637 200.203 49.9201 200.387C49.2232 200.49 48.1445 200.45 47.5091 200.744C46.9433 200.623 46.7416 200.816 46.9048 201.321C46.9109 201.478 46.9169 201.635 46.923 201.792C47.0831 203.977 48.4905 206.607 49.7181 208.383C50.4347 209.42 51.3478 210.385 52.255 211.257C53.2795 212.242 53.8701 212.936 55.2981 212.524C57.7052 211.828 59.8295 210.429 62.2692 209.812C64.1991 209.323 65.8021 208.3 67.6842 207.771C70.0053 207.118 72.3021 206.373 74.6553 205.828C73.6042 203.803 72.6642 201.695 71.3185 199.841C69.9384 197.938 68.4165 196.109 66.9994 194.226ZM79.7345 126.101C84.077 126.963 88.7836 127.762 92.6701 129.999C94.1868 130.872 96.1095 132.221 96.5536 134.027C97.0846 136.185 94.9969 137.521 93.2532 138.195C91.1594 139.004 88.8805 139.314 86.662 139.569C85.4877 139.704 84.308 139.777 83.1282 139.844C82.1734 139.899 80.554 139.689 79.6813 140.067C79.1345 139.958 78.945 140.179 79.1127 140.731C79.1024 140.928 79.0925 141.127 79.0825 141.324L78.9919 143.104C78.9317 144.288 78.8715 145.474 78.8109 146.658C78.6798 149.239 78.5484 151.821 78.4174 154.402C80.6918 152.995 82.5248 150.982 84.7478 149.482C85.8047 148.769 86.854 148.054 87.9066 147.343C88.3479 147.045 88.6177 146.628 89.0521 146.35C89.6282 145.982 90.1389 145.76 90.6793 145.278C92.8862 143.308 95.3405 141.606 97.6813 139.798C98.7445 138.976 99.9085 138.221 100.92 137.34C101.98 136.416 101.833 135.656 101.807 134.329C101.78 132.924 102.297 131.18 102.057 129.825C102.258 129.365 102.104 129.079 101.593 128.967C101.253 128.749 100.912 128.532 100.571 128.314C99.8915 127.881 99.2119 127.447 98.5322 127.013C95.8285 125.288 93.1251 123.563 90.4214 121.837C89.0709 120.975 87.7204 120.114 86.3696 119.252C85.9924 119.011 84.7621 117.924 84.3388 117.956C83.9071 117.988 83.1582 118.829 82.8345 119.097C82.3381 119.507 81.8561 119.939 81.3197 120.298C81.0523 120.483 80.7732 120.648 80.4826 120.793C80.0179 120.838 79.8565 121.093 79.9979 121.557C79.5898 122.863 79.8142 124.729 79.7345 126.101ZM139.952 187.679C138.969 183.092 137.701 177.661 133.865 174.54C129.975 171.376 124.289 172.599 121.246 176.315C119.722 178.176 118.777 180.377 118.075 182.657C117.355 184.998 116.293 188.047 116.487 190.523C116.572 191.608 117.504 192.774 118.037 193.721C118.586 194.699 118.951 196.101 120.246 195.762C122.254 195.237 124.296 194.031 126.176 193.168C128.076 192.294 130.077 191.576 132.048 190.733C133.356 190.173 134.715 189.747 136.02 189.179C137.257 188.641 138.89 188.511 139.952 187.679ZM198.056 160.358C200.799 161.338 202.225 159.77 204.154 158.004C205.983 156.332 207.963 154.724 209.647 152.906C211.383 151.032 212.756 148.817 214.091 146.652C215.441 144.465 217.265 142.102 218.096 139.665C218.519 138.426 218.699 137.052 218.965 135.771C219.03 135.463 219.46 134.315 219.323 134.056C219.135 133.699 217.937 133.661 217.609 133.609C214.991 133.196 212.218 133.176 209.593 133.545C204.514 134.259 200.266 137.101 198.661 142.071C196.779 147.897 197.684 154.373 198.056 160.358ZM180.273 109.825C180.23 110.834 182.653 111.114 183.282 111.349C184.733 111.892 186.176 112.466 187.585 113.109C190.488 114.433 193.582 115.295 196.361 116.896C202.352 120.346 208.856 122.778 214.908 126.078C215.851 126.592 217.694 127.831 218.771 127.726C219.344 127.671 218.917 128.13 219.288 127.222C219.422 126.895 219.466 126.47 219.541 126.12C219.766 125.071 219.939 124.012 220.191 122.969C220.605 121.252 221.029 119.658 221.203 117.893C221.277 117.145 221.359 116.398 221.367 115.646C221.376 114.884 221.552 112.973 221.207 112.313C220.979 111.876 220.933 112.026 220.361 111.902C220.034 111.831 219.69 111.684 219.374 111.586C218.633 111.356 217.891 111.135 217.114 111.067C216.346 111 215.855 110.767 215.135 110.632C214.38 110.49 213.603 110.662 212.834 110.464C212.003 110.249 211.606 110.054 210.738 110.136C209.896 110.215 209.654 110.029 208.829 109.8C208.141 109.609 207.321 109.743 206.604 109.685C205.736 109.614 204.871 109.506 204.002 109.437C200.097 109.129 196.146 109.586 192.231 109.55C190.103 109.53 188.02 109.844 185.894 109.747C184.037 109.662 182.117 109.682 180.273 109.825ZM190.432 130.363C188.532 131.085 186.771 132.258 185.01 133.268C182.978 134.432 181.035 135.67 179.155 137.066C175.995 139.415 172.307 142.23 171.475 146.328C170.621 150.534 174.282 153.98 177.713 155.7C181.626 157.662 186.179 158.677 190.466 159.426C190.008 149.745 190.115 140.048 190.432 130.363ZM133.599 153.156C132.447 153.474 131.471 154.155 130.402 154.658C129.444 155.109 128.517 155.449 127.623 156.03C126.165 156.976 124.475 157.786 122.951 158.518C119.181 160.329 115.52 162.577 111.786 164.584C110.797 165.116 110.473 165.452 110.138 166.546C109.774 167.735 109.431 168.932 109.08 170.126C108.753 171.239 108.231 172.428 108.369 173.603C108.489 174.625 109.018 175.589 109.418 176.521C110.423 178.867 111.513 181.176 112.64 183.466C113.651 185.522 114.573 187.703 115.871 189.593C116.879 184.345 117.784 178.464 121.693 174.465C125.599 170.469 131.831 170.412 135.595 174.537C137.384 176.497 138.472 178.965 139.328 181.445C139.777 182.748 140.079 184.075 140.368 185.421C140.676 186.858 140.601 187.621 142.19 187.185C143.452 186.839 144.79 186.563 146.027 186.169C146.669 185.964 147.295 185.734 147.324 185.228C147.361 184.589 146.499 183.281 146.244 182.68C144.93 179.577 143.615 176.474 142.299 173.372C140.871 170.002 139.443 166.633 138.015 163.264C137.302 161.583 136.589 159.903 135.876 158.222C135.226 156.69 134.684 154.414 133.599 153.156ZM190.539 126.956C190.56 125.424 190.586 123.892 190.606 122.36C190.618 121.447 191.025 119.681 190.229 119.029C189.735 118.625 188.269 118.315 187.644 118.038C186.411 117.493 185.076 117.249 183.836 116.707C178.978 114.584 173.923 112.816 168.921 111.104C167.843 110.735 166.741 110.433 165.655 110.07C165.069 109.874 162.898 108.721 162.356 109.023C161.881 109.287 161.523 112.428 161.371 113.081C161.011 114.625 160.667 116.173 160.336 117.724C159.052 123.745 157.975 129.808 156.974 135.882C159.634 134.874 162.184 133.127 164.698 131.777C167.309 130.375 169.911 128.975 172.54 127.605C173.282 127.218 175.892 125.44 176.503 126.138C177.483 127.258 175.148 128.571 174.535 129.051C172.164 130.906 169.659 132.524 167.124 134.143C164.496 135.82 161.762 137.302 159.121 138.949C158.168 139.544 156.646 140.268 156.271 141.272C155.789 142.564 156.137 144.133 156.576 145.368C157.654 148.4 158.834 151.395 160.082 154.362C160.65 155.711 161.232 157.053 161.825 158.391C162.531 159.984 163.458 160.321 164.997 161.054C171.552 164.178 178.361 167.142 184.658 170.756C183.604 171.968 181.036 169.978 179.996 169.474C178.07 168.541 176.142 167.611 174.217 166.674C170.632 164.93 167.065 163.152 163.459 161.45C165.77 166.694 168.497 171.747 171.521 176.615C170.757 176.873 170.944 176.887 170.464 176.429C170.061 176.043 169.79 175.287 169.516 174.803C168.951 173.802 168.394 172.797 167.824 171.799C166.643 169.727 165.419 167.686 164.34 165.558C163.529 163.957 162.9 161.159 161.233 160.352C159.155 159.346 157.05 158.367 154.972 157.347C154.972 165.321 155.546 173.117 156.389 181.041C156.432 181.441 156.816 182.62 156.042 182.505C155.693 182.453 155.575 180.266 155.514 179.81C155.232 177.717 154.993 175.618 154.798 173.516C154.409 169.32 154.198 165.108 154.17 160.894C153.672 164.991 153.173 169.087 152.674 173.184L151.966 179.007C151.842 180.027 151.718 181.046 151.593 182.066C151.536 182.534 151.573 183.147 151.408 183.593C151.148 184.296 151.235 184.243 150.422 184.563C151.2 179.229 151.918 173.885 152.553 168.532C152.864 165.92 153.154 163.306 153.422 160.689C153.494 159.985 153.565 159.281 153.634 158.577C153.669 158.218 153.979 157.064 153.807 156.766C153.636 156.471 152.506 156.163 152.181 156.012C151.468 155.682 150.756 155.353 150.044 155.021C147.734 153.943 145.425 152.857 143.14 151.727C142.141 151.232 141.092 150.468 140.005 150.205C138.923 149.942 138.136 150.694 137.21 151.172C136.49 151.544 134.793 152.039 134.312 152.67C133.864 153.258 135.255 155.611 135.62 156.478C136.65 158.925 137.681 161.372 138.711 163.819C140.801 168.78 142.89 173.742 144.98 178.704C145.49 179.916 146.001 181.129 146.512 182.342C146.839 183.119 147.385 185.334 148.179 185.421C148.531 185.459 149.108 185.078 149.448 184.968C149.954 184.804 150.422 184.807 150.931 184.721C151.863 184.563 152.83 184.083 153.746 183.747C156.097 182.882 158.536 182.323 160.907 181.515C163.289 180.703 165.632 179.791 168.004 178.979C170.159 178.242 172.333 177.402 174.404 176.442C176.59 175.428 178.832 174.534 180.962 173.41C184.842 171.362 188.679 169.449 192.107 166.938C192.913 166.347 193.772 165.754 194.569 165.122C195.268 164.567 196.602 163.882 197.078 163.152C197.259 162.874 197.415 162.329 197.203 161.998C196.976 161.644 195.969 161.676 195.499 161.613C194.015 161.414 192.532 161.215 191.048 161.016C191.162 161.99 191.277 162.963 191.36 163.94C191.418 164.63 191.826 166.452 191.275 166.993C190.518 166.274 190.761 164.126 190.693 163.169C190.657 162.658 190.788 161.657 190.558 161.203C190.306 160.706 189.611 160.712 188.981 160.576C186.31 160 183.663 159.516 181.078 158.602C176.711 157.059 171.491 154.453 170.516 149.426C169.499 144.186 173.967 139.645 177.729 136.723C179.982 134.973 182.378 133.458 184.857 132.052C186.015 131.395 187.173 130.737 188.339 130.094C188.763 129.86 190.155 129.379 190.379 128.97C190.608 128.551 190.491 127.432 190.539 126.956ZM97.1094 207.432C96.8975 207.535 96.6852 207.639 96.4736 207.742C98.8304 201.04 101.165 194.369 103.136 187.541C104.087 184.246 105.051 180.954 106.034 177.667C106.459 176.25 107.502 174.298 107.212 172.83C106.899 171.24 106.147 169.55 105.565 168.039C101.84 170.375 98.0376 172.591 94.251 174.822C90.8564 176.822 87.4043 178.6 83.9858 180.579C82.2342 181.593 80.4272 182.278 78.599 183.106C77.1135 183.78 77.6902 185.838 77.7117 187.212C77.7868 192.066 77.7831 196.937 78.0783 201.784C78.1858 203.55 78.0471 205.577 79.1736 207.047C80.6143 208.926 81.9506 210.841 83.2644 212.819C83.7567 213.56 85.8247 217.572 86.5957 217.484C87.0992 217.427 87.5627 215.803 87.8145 215.418C88.3573 214.587 89.1508 213.873 89.8731 213.204C92.9925 210.316 96.454 208.282 100.051 206.171C103.706 204.027 107.447 202.031 111.17 199.998C112.012 199.539 112.918 199.207 113.754 198.738C114.084 198.552 114.739 198.258 114.947 197.926C115.258 197.43 115.152 196.056 115.217 195.463C115.35 194.252 115.588 192.993 115.601 191.773C115.613 190.568 114.887 189.532 114.36 188.481C112.049 183.866 109.804 179.239 107.793 174.484C106.208 180.006 104.543 185.501 102.988 191.031C102.176 193.918 101.198 196.758 100.244 199.601C99.758 201.053 99.2685 202.504 98.7826 203.957C98.4042 205.088 98.2077 206.744 97.1094 207.432ZM130.301 103.374C129.076 103.388 127.966 103.208 126.768 102.953C126.328 102.86 125.942 102.82 125.496 102.781C124.991 102.736 124.532 102.463 124.089 102.41C123.754 102.37 123.17 102.51 122.85 102.617C122.109 102.864 122.132 102.739 122.102 103.598C122.053 104.924 122.017 106.251 121.944 107.576C121.657 112.793 121.101 117.959 120.341 123.125C120.187 124.169 119.755 125.539 119.992 126.576C120.206 127.511 121.016 128.51 121.55 129.294C122.65 130.907 125.24 131.704 127.063 132.161C128.984 132.643 130.979 132.821 132.804 133.251C133.31 133.371 133.891 133.16 134.43 133.28C134.929 133.391 135.316 133.664 135.777 133.861C136.906 134.345 138.167 134.434 139.333 134.807C141.644 135.548 144.119 135.503 146.433 136.214C147.025 136.396 147.536 136.854 148.105 137.011C148.625 137.154 149.161 136.985 149.706 137.065C150.86 137.235 151.936 137.628 152.202 138.865C152.908 138.307 153.006 138.454 152.884 137.592C152.806 137.039 152.497 136.366 152.328 135.833C151.898 134.474 151.465 133.116 151.035 131.757C150.184 129.069 149.338 126.378 148.553 123.669C147.851 121.246 147.213 118.804 146.656 116.344C146.372 115.093 146.135 113.837 145.892 112.579C145.821 112.214 145.891 111.634 145.524 111.392C145.19 111.171 144.412 111.962 144.06 112.216C141.601 113.994 135.961 119.251 132.886 116.15C131.231 114.48 131.327 111.544 131.507 109.386C131.617 108.06 131.851 106.751 132.112 105.448C132.177 105.122 132.576 104.077 132.43 103.845C132.272 103.596 130.631 103.447 130.301 103.374ZM216.708 132.391C217.362 132.464 218.017 132.537 218.671 132.611C218.611 132.083 218.665 131.29 218.465 130.798C218.188 130.119 217.51 130.043 216.765 129.761C215.585 129.316 214.382 128.929 213.216 128.45C210.684 127.411 208.165 126.356 205.632 125.317C204.522 124.861 203.217 124.115 202.012 124.488C200.712 124.889 199.429 125.707 198.214 126.306C196.838 126.985 195.462 127.665 194.087 128.345C193.442 128.664 192.797 128.983 192.153 129.302C191.139 129.802 191.005 129.853 190.925 130.997C190.517 136.849 190.548 142.928 190.725 148.788C190.816 151.778 190.714 154.785 190.929 157.77C190.946 158 190.929 159.295 191.073 159.472C191.276 159.721 192.704 159.805 193.045 159.868C194.375 160.11 195.715 160.191 197.059 160.311C196.742 153.504 195.579 145.458 199.082 139.232C202.601 132.977 210.122 131.622 216.708 132.391ZM155.538 65.4281C155.933 64.5315 156.612 63.7745 157.193 62.9879C157.507 62.5625 158.05 62.0541 158.251 61.5566C158.537 60.8485 158.535 61.0002 158.108 60.38C157.704 59.7939 157.712 59.7498 157.087 59.645C156.561 59.5568 156.001 59.7066 155.463 59.6106C154.92 59.5133 153.426 59.0566 153.769 58.1938C153.754 58.2316 154.618 57.8065 154.685 57.7328C154.902 57.4969 154.971 56.9939 155.078 56.7088C155.423 55.7947 155.544 55.2029 155.16 54.2296C154.585 52.7762 152.314 52.3461 150.9 52.8351C150.194 53.0792 149.791 53.597 149.473 54.2477C149.271 54.6609 149.224 55.2582 148.963 55.6179C148.57 56.1596 148.545 56.0995 147.73 56.0037C146.691 55.882 145.839 55.4838 144.855 55.2062C143.783 54.9035 143.086 55.5192 142.149 56.0155C140.458 56.9121 138.825 57.2232 136.93 57.3655C134.821 57.5241 132.866 57.0166 130.777 56.8858C131.319 59.3765 132.721 61.3986 133.841 63.654C134.038 64.0506 134.356 64.456 134.363 64.9149C134.371 65.3471 133.744 65.9353 133.814 66.293C133.965 67.056 135.648 67.6668 136.286 67.8816C138.089 68.4885 140.143 69.6766 142.128 69.1993C143.216 68.9377 143.801 67.2231 144.825 67.0971C146.199 66.9273 145.171 68.6927 144.916 69.2999C146.866 69.5956 149.338 69.3449 151.204 68.6852C152.14 68.3547 152.932 67.8614 153.786 67.3723C154.849 66.7633 155.07 66.596 155.538 65.4281ZM121.416 102.497C117.939 102.554 114.412 102.055 110.928 102.514C110.121 102.62 109.324 102.791 108.531 102.973C107.961 103.104 106.151 103.214 105.77 103.637C105.424 104.023 105.422 105.799 105.35 106.299C105.191 107.414 105.234 107.799 105.946 108.661C108.29 111.497 110.731 114.248 113.04 117.115C115.259 119.87 117.08 122.947 119.322 125.663C120.52 122.184 120.591 118.01 120.92 114.363C121.095 112.418 121.255 110.471 121.405 108.525C121.547 106.671 122.032 104.265 121.416 102.497ZM76.4205 139.157C76.8225 139.157 77.4637 139.282 77.8546 139.157C78.3919 139.327 78.5714 139.126 78.3937 138.553C78.4022 138.353 78.4107 138.153 78.4195 137.952C78.4755 136.66 78.5372 135.368 78.5972 134.076C78.6523 132.895 78.7059 131.714 78.7525 130.532C78.7846 129.726 79.193 127.726 78.8663 126.998C78.6468 126.508 78.127 126.619 77.4946 126.548C76.8931 126.48 76.2897 126.417 75.6915 126.324C74.9323 126.206 74.0907 125.934 73.3181 126.104C72.5419 126.275 71.9776 126.99 71.3685 127.445C70.4046 128.164 69.4198 128.857 68.4477 129.565C66.6809 130.852 64.932 132.163 63.1801 133.471C62.4566 134.01 62.3176 133.823 62.6703 134.599C62.8886 135.078 63.3848 135.62 63.6869 136.053C64.2884 136.915 64.8875 138.222 65.6592 138.921C66.7821 139.939 69.8975 139.293 71.3891 139.286C73.0898 139.277 74.7294 139.303 76.4205 139.157ZM80.8229 139.072C82.2978 138.928 83.7878 138.991 85.2537 138.793C86.8473 138.577 88.4294 138.259 90.02 138.02C91.6057 137.782 96.4297 136.82 95.9535 134.458C95.4504 131.962 91.7573 130.466 89.7139 129.627C86.5225 128.316 83.1906 127.615 79.8335 126.874C79.4124 129.112 79.473 131.514 79.3961 133.782C79.3543 135.013 79.3177 136.246 79.3183 137.479C79.3183 137.776 79.2163 138.392 79.3377 138.667C79.6228 139.316 79.9546 139.072 80.8229 139.072ZM75.9725 140.145H66.5586C67.9518 143.022 69.2687 145.954 70.7706 148.777C72.2664 151.59 74.1924 154.239 75.8895 156.939C76.3194 156.472 77.0051 155.966 77.2972 155.41C77.6209 154.796 77.6118 153.892 77.6648 153.18C77.8022 151.334 77.8649 149.471 77.9115 147.621C77.9524 146 78.0238 144.39 78.1485 142.774C78.1758 142.419 78.5678 140.577 78.3435 140.274C78.1434 140.005 76.3842 140.148 75.9725 140.145ZM114.742 83.6437C116.33 83.6434 117.92 83.6235 119.508 83.6501C120.949 83.6745 122.827 83.4241 124.147 84.1645C126.836 85.6725 121.46 89.5455 120.37 90.5203C122.132 91.1577 124.883 89.8926 126.609 89.3129C128.743 88.5964 130.918 88.1152 133.095 87.5539C133.639 87.4137 135.973 87.1391 136.267 86.7235C136.56 86.3111 135.905 83.8235 135.839 83.2987C135.778 82.8054 135.829 82.0363 135.624 81.5723C135.75 81.015 135.554 80.8195 135.035 80.9869C134.856 80.9863 134.677 80.9854 134.498 80.9848C133.174 80.9954 131.848 81.0567 130.525 81.1005C125.977 81.2515 121.539 81.453 117.03 82.1614C114.933 82.4907 112.818 82.8958 110.733 83.2999C108.977 83.6401 109.273 83.9256 110.912 83.9298C112.195 83.9331 113.466 83.7431 114.742 83.6437ZM245.214 50.2696C245.484 49.9599 245.755 49.65 246.025 49.34C245.367 49.1525 244.708 48.9646 244.05 48.777C243.349 48.5776 242.973 48.6232 243.284 47.8426C243.674 46.8648 245.455 46.7527 246.311 46.7158C249.259 46.5887 252.356 47.5245 255.156 48.3489C256.522 48.7513 257.593 49.3739 258.749 50.2019C259.254 50.5635 259.837 50.903 260.278 51.3374C260.737 51.7887 260.928 52.3669 261.377 52.8194C262.113 53.5614 263.055 53.9308 263.416 55.0017C263.83 56.2309 263.335 57.638 262.722 58.7098C262.101 59.7976 261.177 60.6201 260.427 61.6086C259.831 62.3928 258.588 64.5354 260.531 64.2871C261.558 64.1557 262.891 62.4073 263.631 61.7107C264.69 60.7117 265.733 59.6897 266.856 58.7593C267.851 57.9343 268.998 57.0885 270.329 56.9435C271.732 56.7906 272.433 57.6866 273.116 58.7762C273.761 59.8039 273.865 60.8071 274.318 61.859C274.537 62.3662 274.816 62.6489 274.944 63.2017C275.142 64.0521 275.163 64.9798 275.263 65.8468C275.422 67.2083 275.571 68.2789 275.307 69.6129C275.059 70.8614 274.992 72.1875 274.783 73.4578C274.547 74.8963 274.351 76.3415 274.118 77.7806C273.921 78.9998 273.171 80.7362 273.907 81.8699C275.674 84.5944 277.794 80.5836 278.353 79.0853C279.334 76.4523 279.833 73.5741 280.7 70.887C281.163 69.45 281.568 67.9994 281.834 66.5117C282.054 65.2813 281.946 63.7823 282.621 62.6864C283.147 61.8351 284.081 61.1887 285.106 61.4484C286.389 61.7738 286.882 63.6244 287.26 64.7493C288.256 67.7164 287.889 70.3886 287.484 73.4146C287.296 74.8156 287.117 76.2188 286.794 77.5966C286.577 78.5261 285.675 80.4075 287.015 80.9129C288.915 81.63 290.928 76.1919 291.47 74.964C292.887 71.7477 293.43 68.558 294.014 65.1118C294.148 64.3195 294.251 63.5102 294.452 62.7314C294.626 62.0535 295.148 61.3684 295.195 60.6905C295.242 60.012 294.792 59.5387 295.253 58.8726C295.637 58.3183 296.331 58.2847 296.957 58.2799C298.429 58.2684 299.837 58.9134 301.207 59.3813C302.481 59.8166 304.366 60.7718 305.74 60.4643C301.429 56.097 297.129 51.7794 291.988 48.3782C289.601 46.7986 287.211 45.2806 284.631 43.9926C282.017 42.6879 279.022 41.8067 276.222 41.0173C274.7 40.5878 273.186 40.1011 271.683 39.6084C270.344 39.1698 268.997 39.0867 267.687 38.5892C264.839 37.5086 261.658 37.09 258.71 36.3239C257.408 35.9858 256.092 35.6958 254.787 35.3826C253.416 35.0533 251.489 34.4815 250.092 34.5371C248.899 34.5845 248.496 35.949 247.922 36.8981C247.089 38.2759 246.378 39.7075 245.723 41.1771C244.381 44.1883 242.963 47.2992 242.003 50.4451C241.476 52.1724 240.955 53.9015 240.437 55.6315C239.989 57.1293 238.868 59.2898 239.166 60.8268C241.374 57.4316 243.43 53.9057 245.214 50.2696ZM142.426 80.9262C141.255 80.9793 140.083 81.0322 138.912 81.0854C140.08 84.9158 139.917 88.9945 139.917 92.9648C145.375 92.3229 150.877 92.2135 156.367 92.2579C155.359 90.3161 155.75 87.7971 156.037 85.7178C156.205 84.5007 156.299 83.3283 156.275 82.1004C156.252 80.9485 156.584 79.9801 155.361 79.6239C154.391 79.3415 153.778 79.8121 152.853 80.0269C151.746 80.284 150.54 80.3151 149.413 80.4549C147.068 80.7458 144.805 80.9165 142.426 80.9262ZM110.975 88.3858C114.493 87.4122 118.231 87.7711 121.766 87.031C120.962 86.2987 119.447 86.7325 118.379 86.7935C117.165 86.8624 115.952 86.9129 114.738 86.9718C113.554 87.0295 110.27 86.9401 109.843 88.4432C110.22 88.4242 110.598 88.4049 110.975 88.3858ZM239.68 34.1075C235.077 34.5105 230.257 34.4479 225.687 35.2494C220.454 36.1671 214.998 36.7429 209.924 38.3602C204.947 39.9471 199.871 41.0578 194.964 42.9211C190.194 44.7324 185.6 46.6594 181.108 49.0821C178.909 50.2677 176.77 51.5247 174.674 52.8865C172.628 54.216 170.386 55.3059 168.403 56.7151C166.638 57.9697 165.116 59.1203 163.577 60.6573C161.932 62.3006 160.331 63.9884 158.685 65.629C157.31 66.9977 158.18 70.3442 158.267 72.1658C158.388 74.6912 158.597 77.181 158.907 79.6898C159.202 82.0804 159.506 84.65 159.116 87.0355C158.952 88.0384 158.387 89.7709 158.657 90.772C158.873 91.5737 160.306 92.1616 161.037 92.4229C161.931 92.7425 162.845 92.6077 163.762 93.0144C164.787 93.469 165.651 94.0357 166.739 94.2747C168.081 94.5692 169.589 94.8169 170.967 94.8259C172.242 94.8341 173.521 95.2461 174.793 95.4999C176.86 95.9131 178.879 96.0418 178.75 98.5301C178.601 101.401 177.46 103.865 176.78 106.59C177.699 106.59 178.34 106.649 179.182 106.323C180.164 105.944 181.213 105.843 182.245 105.679C184.527 105.317 186.751 105.201 189.047 104.97C193.254 104.546 197.534 104.597 201.744 104.642C203.876 104.664 206.188 104.829 208.29 105.16C210.447 105.499 212.68 105.712 214.77 106.363C216.534 106.913 218.354 107.288 220.153 107.774C220.963 107.992 221.934 108.17 222.7 108.415C223.81 108.77 224.403 109.526 225.685 109.509C225.324 107.141 224.477 104.944 223.966 102.595C223.433 100.142 222.368 97.9718 221.194 95.6579C220.67 94.6257 220.282 93.5303 219.776 92.4893C219.215 91.3315 218.425 90.3723 217.746 89.2897C216.358 87.0751 214.877 84.9448 213.513 82.7145C212.323 80.7673 210.963 78.9007 209.66 77.0212C208.227 74.9546 206.236 73.3949 204.61 71.4991C203.924 70.6982 203.271 69.9542 202.502 69.2192C201.794 68.5426 200.789 67.0448 199.705 66.9748C199.082 66.9343 198.003 67.2841 197.408 67.4717C196.308 67.8194 195.141 68.0459 194.005 68.352C192.761 68.687 191.54 69.1229 190.294 69.4413C189.796 69.5685 189.204 69.508 188.731 69.6521C188.237 69.8032 187.843 70.1358 187.302 70.2883C184.637 71.0429 181.987 71.8996 179.301 72.5866C176.536 73.294 173.729 73.8964 171.05 74.8984C170.539 75.0896 169.97 75.5415 169.577 75.2446C169.285 75.0229 169.096 74.3966 169.173 74.0311C169.43 72.8143 171.38 72.3748 172.32 71.8863C174.836 70.5771 177.336 69.6539 180.041 68.7649C181.373 68.3275 182.701 67.8605 184.052 67.4826C185.181 67.1669 186.356 66.6328 187.511 66.4712C188.538 66.3274 189.267 65.9238 190.286 65.5665C191.788 65.0399 193.332 64.6076 194.858 64.1578C197.466 63.3887 200.231 63.0655 202.899 62.5498C209.082 61.3551 215.501 60.757 221.809 60.831C224.99 60.8685 228.317 60.7757 231.46 61.2977C232.218 61.4234 233.812 61.3992 234.334 62.078C234.615 62.4423 234.463 62.9845 234.535 63.3794C234.656 64.0458 235.021 64.3563 235.336 64.9635C236.008 61.678 236.779 58.4624 237.645 55.2249C238.429 52.295 239.154 49.312 240.2 46.4231C241.308 43.3666 242.651 40.1259 244.307 37.3286C244.648 36.7528 245.497 35.8381 245.57 35.1941C245.646 34.5295 244.713 34.0148 244.072 33.9407C242.633 33.7749 241.093 34.0589 239.68 34.1075ZM270.6 81.0527C271.068 76.4952 272.437 71.728 271.673 67.1524C271.349 65.2154 271.096 63.3664 270.125 61.6179C269.634 60.7337 269.438 60.0842 268.5 60.6056C267.552 61.1334 266.678 62.4369 265.892 63.1924C264.446 64.5811 262.932 66.0111 261.201 67.0424C259.838 67.8544 257.129 68.6241 256.104 66.8675C255.128 65.1934 256.43 62.8571 257.365 61.4759C258.436 59.8957 260.463 58.4321 259.325 56.4825C258.836 55.6433 258.131 55.4234 257.391 54.8727C256.75 54.396 256.213 53.7786 255.571 53.2934C253.714 51.8872 251.676 51.2849 249.532 50.4813C248.541 50.1101 248.411 49.7608 247.839 50.6094C247.218 51.5311 246.878 52.8228 246.428 53.842C245.529 55.8838 244.569 57.8183 243.409 59.722C242.238 61.6433 241.201 63.6503 240.094 65.6096C239.677 66.3488 239.284 67.1001 238.791 67.794C238.522 68.1716 238.189 68.5081 237.971 68.9214C237.648 69.5325 237.792 70.0895 237.591 70.6979C236.723 73.323 235.458 69.6585 235.216 68.8018C234.941 67.8272 234.277 67.0675 233.848 66.1585C233.492 65.4079 233.25 64.2923 232.393 63.9388C231.691 63.6494 230.785 64.0467 230.069 64.0853C228.752 64.1566 227.425 64.0503 226.103 64.1325C224.866 64.2092 223.632 64.3276 222.396 64.4031C221.158 64.479 219.922 64.2702 218.701 64.4001C216.509 64.6333 214.269 64.5959 212.082 64.9191C209.516 65.2979 206.977 65.7021 204.403 66.0175C205.001 67.1457 206.241 67.6351 207.221 68.4402C208.096 69.1597 208.79 69.9902 209.672 70.6747C210.567 71.3695 211.099 72.3972 211.84 73.2321C212.566 74.0499 213.238 74.7356 213.874 75.6506C216.943 80.0689 220.109 84.324 222.641 89.0993C223.923 91.5163 225.146 94.1022 226.022 96.6952C226.961 99.4765 227.422 102.459 227.98 105.335C228.258 106.769 228.403 107.978 228.099 109.42C228.019 109.763 227.935 110.106 227.849 110.447C227.582 110.856 227.681 111.122 228.146 111.243C228.418 111.639 228.789 111.787 228.812 112.328C228.831 112.739 228.601 113.215 228.247 113.446C227.562 113.893 227.562 113.29 226.857 113.423C226.592 113.566 226.328 113.709 226.063 113.851C225.924 113.639 225.78 113.43 225.633 113.223C225.183 112.796 224.825 112.835 224.237 112.731C224.536 116.165 224.059 119.231 223.302 122.58C222.937 124.191 222.313 125.768 221.998 127.381C221.646 129.184 222.415 130.005 223.603 131.207C223.302 131.364 222.773 131.535 222.524 131.77C222.128 132.144 222.23 132.19 222.23 132.775C222.23 133.848 222.024 134.905 221.855 135.959C221.543 137.912 221.257 139.933 220.584 141.803C219.36 145.2 217.381 148.727 215.366 151.718C214.238 153.392 213.107 155.294 211.693 156.739C210.274 158.188 208.868 159.651 207.452 161.105C204.666 163.967 201.621 165.944 198.284 168.087C196.962 168.935 195.57 169.865 194.433 170.922C193.278 171.996 191.741 172.747 190.361 173.527C189.745 173.875 189.306 174.375 188.641 174.661C188.016 174.928 187.58 175.016 187.056 175.368C185.755 176.24 184.351 176.986 182.919 177.644C181.173 178.446 179.455 179.38 177.662 180.064C176.844 180.377 176.076 180.717 175.284 181.082C174.428 181.476 173.504 181.736 172.626 182.156C171.883 182.512 171.132 182.719 170.376 183.009C169.759 183.247 169.275 183.631 168.645 183.879C167.338 184.394 166.149 184.672 164.879 185.279C163.192 186.086 161.193 186.462 159.416 187.043C157.432 187.691 155.373 188.336 153.337 188.796C152.471 188.992 151.733 189.248 150.896 189.544C150.351 189.737 149.726 189.843 149.122 190.026C147.453 190.534 145.785 191.023 144.107 191.455C140.829 192.299 137.48 193.312 134.301 194.457C132.634 195.057 130.943 195.78 129.344 196.545C127.537 197.409 125.589 197.907 123.775 198.763C120.27 200.415 116.777 202.116 113.313 203.85C111.494 204.761 109.7 205.7 107.924 206.691C107.279 207.05 106.574 207.199 105.934 207.551C105.097 208.012 104.41 208.689 103.552 209.146C100.246 210.908 96.872 212.568 93.8356 214.797C92.2466 215.963 90.5391 217.158 89.1659 218.579C88.7127 219.047 87.9274 219.773 87.8454 220.453C87.7246 221.459 87.8378 220.533 88.1869 221.154C88.6704 221.212 88.7796 221.398 88.516 221.709C88.3943 221.856 88.2384 221.93 88.0485 221.933C87.4379 222.056 86.2957 221.411 85.805 221.141C84.9546 220.673 84.5032 220.082 83.9571 219.297C82.771 217.594 81.6136 215.875 80.3921 214.196C79.2935 212.686 78.2182 211.023 76.9682 209.636C76.1205 208.696 76.0569 209.107 75.1142 209.637C74.4128 210.031 73.5981 210.199 72.8713 210.571C70.1015 211.987 67.0569 213.032 64.2161 214.019C63.5691 214.243 63.2243 214.6 62.6558 214.91C61.9317 215.306 61.0144 215.499 60.24 215.78C58.1066 216.554 55.9838 217.357 53.8656 218.172C52.2302 218.801 50.6587 219.297 49.3785 220.458C48.869 220.92 48.2523 221.251 47.7261 221.718C47.1134 222.262 46.2848 223.146 45.5135 223.454L45.0436 223.82C44.7257 223.599 44.4076 223.379 44.0888 223.159C43.7727 222.941 43.4564 222.724 43.1409 222.505C42.3487 221.955 41.5622 221.398 40.7748 220.841C38.9889 219.578 37.1916 218.328 35.5305 216.902C32.5797 214.37 29.5179 211.974 26.4324 209.603C23.1941 207.114 20.0368 204.509 16.6874 202.17C13.6516 200.049 10.3393 198.259 7.39586 196.021C5.91428 194.894 4.43633 193.761 2.92356 192.67C2.84122 192.61 1.6103 191.857 1.59795 191.773C1.577 191.619 1.98206 191.217 2.10164 191.088C2.66775 190.473 3.29502 189.927 3.85901 189.306C6.48766 186.413 9.91976 186.514 13.5474 186.378C15.1925 186.316 16.9765 187.073 18.5389 187.588C20.4495 188.218 22.2925 189.143 24.138 189.942C27.9412 191.588 31.8665 192.995 35.7082 194.519C37.2188 195.119 38.7237 195.411 40.2595 195.823C41.8177 196.241 43.4228 195.843 45.0893 195.873C45.9542 195.888 46.7719 195.938 47.6429 195.889C48.16 195.86 48.7557 195.763 49.2664 195.771C49.6803 195.779 50.1099 195.949 50.4907 195.906C52.1579 195.717 53.9189 195.453 55.6384 195.237C57.3455 195.022 59.1071 194.915 60.7919 194.579C61.6401 194.41 62.4772 194.171 63.2933 193.884C64.0017 193.634 65.2896 193.351 65.8708 192.847C66.3909 192.395 66.1636 192.389 65.8736 191.652C65.7588 191.361 65.6401 190.919 65.47 190.639C65.0102 189.88 64.5657 189.642 64.8334 188.693C65.3047 187.021 66.9113 185.953 68.2867 185.13C71.3848 183.275 74.2184 180.896 77.4807 179.322C84.2026 176.08 90.3287 171.869 96.8841 168.308C104.09 164.395 110.906 159.803 118.212 156.054C125.013 152.566 131.782 149.056 138.639 145.677C141.987 144.028 145.774 142.518 148.812 140.356C147.129 140.147 145.441 139.878 143.752 139.729C142.968 139.66 142.176 139.724 141.397 139.6C140.525 139.461 139.702 139.109 138.832 138.963C137.337 138.711 135.993 138.199 134.496 138.011C132.892 137.808 131.32 137.338 129.708 137.206C126.336 136.93 123.293 135.689 120.336 134.125C119.605 133.738 119.003 133.96 118.302 133.696C117.916 133.552 117.506 132.973 117.072 132.662C115.877 131.806 114.851 130.795 113.716 129.86C111.329 135.206 106.641 138.842 102.167 142.429C99.9012 144.245 97.4418 145.784 95.1525 147.566C93.3779 148.948 91.7661 150.185 89.8716 151.284C88.0525 152.338 86.3435 153.762 84.6092 155.028C83.4337 155.887 82.0559 156.535 80.8059 157.28C79.7845 157.889 77.7904 158.798 77.5119 159.903C77.2839 160.805 77.7286 161.879 76.3482 161.464C75.1121 161.093 74.216 159.724 73.4961 158.759C71.6343 156.263 69.8975 153.683 68.1689 151.095C67.2404 152.904 65.6389 154.206 64.1586 155.547C63.2591 156.361 62.3255 157.117 61.354 157.844C60.883 158.197 60.4065 158.543 59.9345 158.895C59.7486 159.034 59.3272 159.247 59.2067 159.443C58.9252 159.901 59.0962 159.694 59.1401 160.247C59.2086 161.115 59.4986 161.797 59.0066 162.628C58.5447 163.408 57.5375 163.741 56.8315 164.274C55.1519 165.543 53.3858 166.891 51.5224 167.881C51.0995 168.106 50.6996 168.301 50.3057 168.576C49.6482 169.035 49.7684 169.202 49.1057 168.762C48.0694 168.073 47.1743 166.931 46.2391 166.1C44.2798 164.361 42.2987 162.644 40.2922 160.959C36.4684 157.748 32.5316 154.696 28.7553 151.428C25.1667 148.322 21.3195 145.648 17.6147 142.695C16.5984 141.885 15.5945 141.059 14.5916 140.232C13.6985 139.497 12.2493 138.686 11.5887 137.745C10.6294 136.378 14.3821 134.509 15.5143 134.231C17.4666 133.751 19.9911 134.026 21.9465 134.419C23.999 134.831 26.0891 136.21 28.0057 137.07C30.166 138.038 32.3663 138.875 34.5427 139.789C35.5132 140.196 36.5422 140.522 37.4432 141.071C38.3992 141.654 39.2526 142.318 40.2692 142.807C41.4408 143.369 42.6581 143.894 43.8902 144.311C44.4484 144.499 45.0494 144.688 45.6361 144.765C46.4668 144.872 46.3541 144.491 47.0441 144.277C47.6305 144.096 47.7697 144.575 48.2971 144.708C48.7936 144.834 49.1647 144.707 49.5946 144.44C50.5531 143.847 51.4062 143.028 52.3649 142.41C53.2544 141.836 54.2349 141.3 55.0687 140.651C55.4404 140.361 55.7153 139.965 56.0816 139.671C56.6686 139.2 56.9014 139.387 57.5868 139.062C58.1472 138.797 58.6555 138.302 59.1886 137.975C59.5195 137.772 60.322 137.515 60.5354 137.186C61.0961 136.322 60.1392 135.722 59.2821 135.977C59.1538 135.231 58.4947 133.46 58.7793 132.761C59.0312 132.142 59.6923 132.258 60.2484 131.931C62.3385 130.699 63.881 128.462 65.8363 127.015C67.6797 125.651 69.306 124.023 71.132 122.634C72.6963 121.444 74.4058 120.283 75.8302 118.999C77.5143 117.482 79.6704 116.302 81.5013 114.948C83.3928 113.549 85.1505 111.993 87.0217 110.578C88.822 109.217 90.5903 107.796 92.4403 106.5C94.1029 105.335 95.8458 104.272 97.4739 103.092C98.3657 102.445 99.3408 101.877 100.359 101.453C101.371 101.03 102.257 100.535 103.245 100.081C105.21 99.1772 107.768 98.5527 109.904 98.2939C112.252 98.0093 114.611 97.754 116.982 97.7519C118.245 97.751 119.471 97.9909 120.727 98.067C121.88 98.1365 123.128 98.4277 124.273 98.3893C124.791 98.3721 125.242 98.1531 125.744 98.2238C126.164 98.2827 126.529 98.5352 126.978 98.5793C127.98 98.6778 128.987 98.5796 130 98.7089C132.327 99.0056 134.658 99.4285 136.99 99.6641C139.474 99.9151 141.937 99.9626 144.409 100.385C146.824 100.798 149.254 101.226 151.655 101.704C156.759 102.719 161.915 103.71 166.937 105.217C168.111 105.57 169.292 105.905 170.421 106.388C170.969 106.622 171.495 106.906 172.066 107.081C172.884 107.332 173.045 107.427 173.467 106.742C174.192 105.563 174.592 104.004 175.118 102.722C175.638 101.453 176.27 100.174 176.572 98.8485C175.695 98.7098 174.588 98.9793 173.682 99.0101C172.575 99.0482 171.48 99.0243 170.374 99.0177C168.145 99.0044 166.402 98.3473 164.293 97.6577C162.515 97.0762 160.149 96.7427 158.793 95.4111C158.066 94.6973 157.824 94.5716 156.731 94.6997C155.628 94.8287 154.539 95.051 153.426 95.0879C149.231 95.2268 145.055 95.9572 140.84 96.1016C139.7 96.1406 136.849 96.6798 137.036 94.7504C137.074 94.3499 137.382 94.0025 137.442 93.5901C137.506 93.1482 137.395 92.6996 137.326 92.2676C137.161 91.2457 136.989 90.2243 136.824 89.202C132.981 90.4327 129.09 91.4299 125.174 92.4047C123.55 92.8089 120.941 93.7384 119.263 93.2288C117.641 92.7361 118.58 90.4554 119.085 89.3637C115.862 90.0977 112.424 91.2982 109.138 91.5737C108.138 91.6577 107.164 91.8785 106.932 90.6723C106.746 89.7111 107.442 88.5357 107.797 87.6913C105.274 87.4666 102.662 87.488 103.137 84.2618C103.572 81.3017 106.036 80.7123 108.66 80.1716C111.899 79.5037 115.206 79.281 118.465 78.7406C121.301 78.2703 124.396 77.7458 127.292 77.9833C128.825 78.1087 130.368 78.1373 131.901 78.279C132.624 78.3458 133.319 78.4576 134.019 78.6545C134.665 78.8358 135.568 79.3979 136.23 79.4079C137.229 79.4236 138.433 78.0757 139.507 77.7643C140.838 77.3782 142.272 77.3081 143.647 77.2136C145.206 77.1069 146.767 77.0474 148.324 76.9215C148.679 76.8928 150.021 76.9804 150.301 76.7728C150.709 76.4705 150.438 74.9196 150.409 74.2825C150.383 73.6931 150.497 72.5893 150.087 72.3582C149.703 72.1413 148.582 72.4388 148.204 72.4993C146.635 72.75 145.145 72.7213 143.582 72.6576C142.86 72.6283 142.167 72.8201 141.452 72.7255C140.686 72.6243 139.914 72.3669 139.15 72.2238C137.495 71.9135 135.988 71.5275 134.562 70.6025C133.311 69.7908 131.83 69.2413 131.131 67.8197C130.618 66.7787 130.41 64.7699 131.916 64.4738C130.891 62.9975 130.183 61.3391 129.639 59.6332C129.54 59.3239 129.475 58.8581 129.328 58.5883C128.807 57.6343 129.29 58.4805 128.547 58.0989C127.813 57.7223 127.284 57.4241 126.71 56.7689C125.796 55.724 125.411 54.438 125.295 53.0765C125.138 51.2275 124.845 49.1425 125.116 47.3028C125.584 44.1161 127.918 41.7218 130.29 39.7945C131.577 38.7481 133.272 38.3584 134.782 37.7234C136.24 37.1102 137.868 36.4674 139.404 36.3236C140.79 36.1937 142.142 35.7421 143.529 35.5599C145.437 35.3092 147.346 35.4028 149.263 35.3267C150.145 35.2917 151.025 35.1675 151.903 35.073C152.399 35.0195 153.238 35.0766 153.692 34.8805C154.435 34.5591 154.033 35.234 154.299 34.251C154.804 32.3811 155.216 30.6275 155.981 28.8105C156.694 27.1176 157.559 25.499 158.703 24.0517C159.776 22.6942 161.168 21.7012 162.432 20.5415C163.368 19.6824 164.431 18.9064 165.499 18.2116C166.11 17.8143 166.79 17.5995 167.387 17.2488C168.128 16.8138 168.782 16.4839 169.616 16.2175C171.405 15.646 173.18 15.0391 175.081 15.069C177.129 15.101 179.183 14.6252 181.178 15.2285C184.881 16.3489 186.695 20.3539 186.633 24.0318C187.9 23.7164 189.007 23.1092 190.349 23.0573C191.585 23.0096 193.053 23.1165 194.267 23.3455C196.623 23.7898 199.046 25.0966 200.45 27.0771C201.79 28.966 201.991 31.4739 201.167 33.6169C200.773 34.6428 200.148 35.5554 199.482 36.4221C198.994 37.0576 197.905 37.7612 197.853 38.6128C206.972 35.8623 216.128 33.9235 225.561 32.6687C230.342 32.0328 235.132 32.3512 239.919 31.9878C241.963 31.8325 244.185 32.0497 246.299 32.0579C247.191 32.0615 247.886 31.9376 248.533 31.3612C249.188 30.7782 249.711 30.0641 250.475 30.9057C250.67 31.1205 250.711 31.6401 250.973 31.8017C251.291 31.9974 252.215 31.863 252.595 31.8863C253.925 31.9672 255.222 32.1923 256.527 32.4515C258.922 32.9273 261.301 33.4082 263.667 34.012C268.172 35.1621 272.618 36.2743 277.058 37.6395C281.589 39.0324 286.167 40.7509 290.345 43.0057C292.368 44.0977 294.389 45.461 296.25 46.8119C297.115 47.4402 297.89 48.1199 298.642 48.8776C299.446 49.6874 300.43 50.2339 301.226 51.0498C302.959 52.8246 304.684 54.7072 306.256 56.6299C307.077 57.6337 307.829 58.6925 308.56 59.7625C309.073 60.5132 310.424 61.8877 310.113 62.8574C309.947 63.3751 309.368 63.7373 308.837 63.6105C308.66 63.5682 308.512 63.3386 308.361 63.3168C307.849 63.2443 308.315 63.0643 307.717 63.3063C306.528 63.7875 306.149 64.7526 304.639 64.533C302.072 64.1593 299.658 62.9498 297.323 61.8952C296.657 64.4388 296.562 67.0757 295.979 69.6497C295.41 72.1609 294.46 74.5558 293.315 76.8592C292.31 78.8802 291.019 81.034 289.24 82.4783C287.882 83.5803 284.532 84.9493 283.535 82.603C283.111 81.6065 283.741 80.058 283.92 79.0324C284.159 77.6561 284.423 76.2759 284.567 74.8857C284.684 73.7562 284.743 72.6201 284.852 71.4894C284.946 70.5167 285.206 68.4284 284.658 67.5693C284.328 67.0515 284.299 67.5596 284.107 68.0765C283.874 68.7033 283.68 69.325 283.51 69.9705C283.147 71.3423 282.82 72.7234 282.477 74.1C281.864 76.5596 281.189 78.9654 279.913 81.1769C278.778 83.1408 277.182 85.2952 274.757 85.6169C273.621 85.7674 272.141 85.2493 271.274 84.4859C270.302 83.6295 270.592 82.217 270.6 81.0527Z" fill="black"/>
<path fill-rule="evenodd" clip-rule="evenodd" d="M215.216 181.488C216.549 181.226 217.671 180.164 218.759 179.367C220.148 178.35 221.465 177.241 222.813 176.173C225.353 174.16 227.658 171.951 229.85 169.55C234.175 164.812 237.43 158.713 238.91 152.482C239.659 149.329 240.585 145.635 240.16 142.377C240.012 141.245 239.787 141.037 238.675 140.909C238.172 140.851 236.898 140.707 236.445 140.904C235.273 141.415 234.64 143.589 234.293 144.682C233.266 147.909 232.662 151.251 231.734 154.505C230.824 157.693 229.359 160.929 227.909 163.911C224.684 170.546 220.201 176.097 215.216 181.488ZM241.658 144.857C240.86 153.892 238.346 162.5 232.71 169.776C230.031 173.235 226.88 176.244 223.465 178.977C219.938 181.799 216.337 184.457 212.336 186.562C211.271 187.123 210.205 187.681 209.127 188.215C208.529 188.512 207.021 189.603 206.331 189.43C205.779 189.292 205.635 188.865 205.549 188.311C205.356 187.066 206.166 186.444 206.986 185.645C210.278 182.433 213.58 179.21 216.659 175.794C222.738 169.046 227.305 160.966 229.843 152.248C230.625 149.564 231.323 146.85 232.167 144.185C232.681 142.561 233.41 139.67 235.118 138.861C236.035 138.427 237.102 138.849 238.066 138.589C238.969 138.345 239.568 137.847 240.338 138.682C241.69 140.147 241.75 143.021 241.658 144.857Z" fill="black"/>
<path fill-rule="evenodd" clip-rule="evenodd" d="M0.820454 196.988C0.145659 197.227 0.117505 197.463 -0.191587 196.771C-0.347193 196.421 -0.305112 195.943 -0.268482 195.58C-0.180689 194.712 0.277651 193.909 0.654253 193.139C4.19867 196.056 7.87901 198.686 11.6795 201.263C15.744 204.02 19.6248 207.085 23.4689 210.138C26.9113 212.873 30.3952 215.527 33.8015 218.296C35.4445 219.631 37.3175 220.666 38.8793 222.042C40.1414 223.155 42.2345 223.653 43.3104 224.961C41.6054 225.978 39.3292 226.797 37.4398 225.917C35.3555 224.947 33.7567 223.682 31.9019 222.367C30.9462 221.689 29.9523 221.074 28.9814 220.419C28.128 219.842 27.5253 219.001 26.6613 218.46C24.8455 217.323 22.9827 216.071 21.2599 214.773C19.4901 213.44 17.5338 212.379 15.8264 210.962C14.076 209.509 12.1167 208.547 10.2891 207.225C6.41589 204.422 3.00529 201.27 0.820454 196.988Z" fill="black"/>
<path fill-rule="evenodd" clip-rule="evenodd" d="M105.319 48.1749C105.271 48.4329 105.223 48.6909 105.175 48.9492C105.204 48.9558 107.522 44.488 107.906 43.9485C109.208 42.1194 110.903 40.5975 112.537 39.0698C115.997 35.8339 120.048 33.2221 123.44 29.9285C124.555 28.8449 126.555 27.2031 126.113 25.371C125.675 23.55 121.972 23.9201 120.703 24.4469C118.715 25.2731 117.101 27.001 115.619 28.5066C114.003 30.149 112.374 31.773 111.004 33.6317C109.528 35.6361 108.126 37.8068 107.221 40.1329C106.207 42.7386 105.811 45.4353 105.319 48.1749ZM106.08 56.1693C104.507 56.6532 106.479 56.98 105.863 57.8186C105.187 58.7382 104.052 55.9049 103.882 55.3699C102.881 52.2092 103.328 48.3695 103.875 45.1604C104.151 43.5416 104.329 41.8961 104.702 40.2948C105.065 38.7333 105.856 37.2495 106.587 35.8291C108.05 32.9871 109.988 30.3393 112.186 28.022C114.392 25.6972 116.85 23.3712 119.76 21.9399C122.165 20.7578 125.976 21.578 127.102 24.1599C128.252 26.7983 126.696 29.6723 124.857 31.5274C122.458 33.9468 119.843 36.3499 117.148 38.4361C115.763 39.5085 114.602 40.8053 113.256 41.9242C111.824 43.1153 110.585 44.3134 109.526 45.8537C108.5 47.3463 107.445 48.8377 106.778 50.5321C106.048 52.3875 106.08 54.2063 106.08 56.1693Z" fill="black"/>
<path fill-rule="evenodd" clip-rule="evenodd" d="M43.1731 169.947C39.559 167.624 35.9329 165.586 32.7857 162.624C29.6784 159.701 26.9635 156.403 23.505 153.866C21.7795 152.601 19.9985 151.413 18.3035 150.105C16.6947 148.865 14.8456 147.802 13.3916 146.387C11.4535 144.5 7.82492 140.995 10.301 138.182C13.3743 141.829 17.5911 144.704 21.4356 147.473C25.4892 150.392 29.2098 153.798 33.0548 156.979C36.7588 160.043 40.4503 163.136 44.0646 166.281C45.0137 167.107 45.9292 167.975 46.8895 168.788C47.0069 168.887 48.0023 169.517 48.0023 169.684C48.0023 170.086 47.2309 170.337 46.9561 170.448C46.5222 170.625 45.3488 171.063 44.8569 170.915C44.599 170.837 44.5944 170.627 44.4086 170.503C44.3017 170.302 44.177 170.112 44.0353 169.934C43.7477 169.939 43.4604 169.943 43.1731 169.947Z" fill="black"/>
<path fill-rule="evenodd" clip-rule="evenodd" d="M255.929 129.46C253.353 129.393 249.432 129.386 249.576 132.896C249.647 134.635 250.592 135.911 251.368 137.398C252.183 138.96 252.786 140.574 253.026 142.326C253.993 149.415 251.398 156.34 249.051 162.894C254.092 158.834 257.732 153.185 259.643 146.993C260.57 143.991 260.931 140.131 260.631 137.005C260.481 135.44 259.903 134.038 259.207 132.644C258.857 131.944 258.508 131.144 257.95 130.577C257.391 130.009 256.617 129.82 255.929 129.46ZM246.942 166.954C245.278 164.223 247.899 160.202 248.755 157.538C249.78 154.355 250.725 151.039 251.163 147.719C251.621 144.24 251.029 141.536 249.413 138.463C247.968 135.716 247.111 132.058 248.717 129.152C249.364 127.982 250.319 127.838 251.455 127.372C252.849 126.799 253.232 125.831 254.943 125.984C257.995 126.257 259.407 129.146 260.542 131.606C263.189 137.343 262.469 144.746 260.212 150.507C258.913 153.821 257.431 157.263 255.225 160.085C254.143 161.469 252.872 162.668 251.552 163.823C250.125 165.072 248.846 166.576 246.942 166.954Z" fill="black"/>
<path fill-rule="evenodd" clip-rule="evenodd" d="M72.6653 67.3567C68.6419 68.1636 64.9704 69.973 64.3258 74.485C63.7401 78.5854 66.5391 82.379 69.9764 84.2984C73.694 86.375 78.3521 86.7199 82.0564 84.4187C85.9559 81.996 86.8405 77.1409 84.4671 73.3319C81.8187 69.0813 77.3822 67.8267 72.6653 67.3567ZM75.2509 65.3895C80.042 66.0901 84.4895 69.4924 86.1033 74.0747C87.7672 78.7984 86.2384 83.9918 81.8336 86.5801C72.9317 91.8113 61.0339 83.0934 63.1824 73.0733C63.7279 70.5292 65.277 68.559 67.3816 67.0694C69.7051 65.4246 72.5148 65.3799 75.2509 65.3895Z" fill="black"/>
<path fill-rule="evenodd" clip-rule="evenodd" d="M245.594 17.42C239.821 14.8154 234.048 12.2108 228.275 9.60627C228.039 12.2175 227.802 14.8284 227.565 17.4396C227.501 18.1462 227.238 19.1074 227.35 19.8046C227.47 20.5486 227.214 20.4692 228.187 20.3635C229.43 20.2278 230.677 19.9215 231.907 19.7025C234.119 19.3086 236.471 19.1962 238.636 18.6168C239.741 18.3211 240.799 18.2839 241.92 18.1051C243.152 17.9087 244.35 17.545 245.594 17.42ZM226.066 22.4678C226.066 19.5264 226.393 16.6246 226.663 13.6968C226.906 11.0626 227 8.5517 227.861 6.04199C228.666 7.50075 230.895 8.08377 232.274 8.83445C234.175 9.86878 236.199 10.6303 238.144 11.5725C240.055 12.4978 241.896 13.5602 243.809 14.4834C244.779 14.9516 245.764 15.3885 246.732 15.8603C247.338 16.1557 248.775 16.6312 249.152 17.1798C250.297 18.8449 246.379 19.0059 245.623 19.1527C243.355 19.5941 241.061 19.8427 238.797 20.2964C236.687 20.7199 234.573 21.1129 232.455 21.4969C230.359 21.8769 228.199 22.4678 226.066 22.4678Z" fill="black"/>
<path fill-rule="evenodd" clip-rule="evenodd" d="M48.0638 95.285C50.3367 95.0491 52.6002 94.7095 54.8707 94.4854C57.0208 94.273 58.9225 94.0471 60.8867 93.0641C58.2042 92.2569 55.5156 91.4927 52.8103 90.7634C51.4686 90.4018 50.1296 90.0191 48.7819 89.6814C47.7392 89.4198 46.8304 89.2693 46.4296 88.1338C45.9631 86.8119 47.2603 87.0122 48.0689 87.3481C49.1842 87.8112 50.3991 88.0991 51.5549 88.4842C54.1348 89.3436 56.7304 90.1342 59.3346 90.9157C60.1441 91.1586 64.8346 92.057 63.1445 93.6184C62.4212 94.2869 60.8074 94.654 59.9231 95.134C58.7887 95.7496 57.5539 95.9949 56.2921 96.2399C53.6622 96.7504 50.9331 96.9465 48.2708 97.3893C46.9113 97.6156 45.552 97.8419 44.1927 98.0681C43.3962 98.2004 43.0895 98.1874 42.8816 97.3011C42.7302 96.6571 42.9276 96.0127 43.0729 95.3889C43.4416 93.8039 43.8518 92.227 44.2578 90.6514C44.4122 90.0502 44.6856 87.4076 45.2229 87.1185C46.442 86.4627 45.5014 90.1212 45.4109 90.5692C45.0688 92.259 44.6625 93.9371 44.4797 95.652C45.677 95.5439 46.871 95.4318 48.0638 95.285Z" fill="black"/>
<path fill-rule="evenodd" clip-rule="evenodd" d="M80.2926 108.738C80.7436 109.868 79.9947 110.121 79.0859 110.513C77.907 111.021 76.7475 111.556 75.5472 112.014C73.0221 112.975 70.4788 113.868 68.014 114.981C63.3128 117.102 58.5481 119.14 53.9199 121.411C52.7698 121.976 51.6188 122.538 50.4584 123.082C49.2584 123.645 47.8821 124.591 46.5982 124.912C45.4784 125.193 45.3615 124.397 46.0251 123.664C46.8807 122.719 48.2033 122.013 49.2777 121.356C53.6995 118.652 58.5254 116.45 63.3549 114.59C68.937 112.439 74.5343 110.375 80.2926 108.738Z" fill="black"/>
<path fill-rule="evenodd" clip-rule="evenodd" d="M92.5667 44.6281C92.4051 41.1923 92.8655 37.747 92.591 34.3202C87.8695 38.4968 90.1957 44.9514 92.9119 49.4832L92.5667 44.6281ZM94.6105 44.4318C94.6405 46.1102 94.7358 47.7876 94.5723 49.4576C94.4007 51.2105 95.2247 52.1135 96.2988 53.4046C95.3867 54.3283 93.2936 52.1745 92.7157 51.5395C91.5256 50.2321 90.6401 48.4951 89.8521 46.9252C88.1738 43.5808 87.0179 40.0002 88.3611 36.3284C88.8591 34.9675 89.4682 33.1173 90.7867 32.3249C92.2343 31.4549 93.3417 32.682 93.9424 33.9441C95.4088 37.0235 94.2908 41.1264 94.6105 44.4318Z" fill="black"/>
<path fill-rule="evenodd" clip-rule="evenodd" d="M144.628 215.223C146.805 215.396 148.95 215.565 151.127 215.703C150.752 212.725 150.376 209.747 150 206.768C148.74 207.06 147.48 207.35 146.221 207.641C145.625 207.779 144.712 207.815 144.185 208.111C143.988 208.157 143.79 208.202 143.594 208.248C143.588 208.634 143.584 209.021 143.58 209.408C143.566 210.551 143.533 211.694 143.485 212.837C143.465 213.315 143.298 214.017 143.412 214.491C143.209 214.971 143.338 215.174 143.802 215.103C144.078 215.143 144.353 215.183 144.628 215.223ZM143.13 217.376C141.423 216.528 141.89 213.938 141.892 212.289C141.894 211.24 141.969 210.197 141.996 209.15C142.015 208.43 141.85 207.538 142.098 206.843C142.54 205.605 144.701 205.639 145.813 205.725C146.637 205.789 147.326 205.748 148.171 205.694C148.587 205.667 149.052 205.746 149.461 205.624C149.549 205.597 150.381 205.018 150.344 205.017C151.837 205.074 151.857 208.645 151.954 209.551C152.193 211.785 152.41 214.023 152.605 216.262C152.657 216.854 152.878 217.524 152.314 217.862C151.805 218.167 150.457 217.865 149.894 217.848C147.627 217.78 145.372 217.427 143.13 217.376Z" fill="black"/>
<path fill-rule="evenodd" clip-rule="evenodd" d="M249.657 84.667C250.643 85.553 250.169 86.4671 249.846 87.5739C249.652 88.2382 248.584 90.4193 248.879 91.0407C249.219 91.759 250.818 91.9357 251.502 92.1626C252.693 92.5577 253.89 92.9547 255.017 93.5117C255.517 93.7591 257.321 94.3276 257.659 94.7892C257.853 95.0538 257.923 95.2611 257.778 95.6021C257.522 96.2008 257.157 95.884 256.534 95.7556C253.685 95.1683 250.861 94.4173 248.22 93.1788C247.483 94.8847 246.859 96.6268 246.236 98.3771C246.054 98.89 245.879 100.055 245.186 100.139C244.34 100.239 244.328 99.109 244.385 98.4991C244.467 97.6086 244.929 96.6591 245.208 95.816C245.439 95.12 246.247 93.6709 246.147 92.9537C246.079 92.4601 245.777 92.4946 245.24 92.3006C244.732 92.1176 244.224 91.9354 243.717 91.7502C242.903 91.4533 242.093 91.1554 241.302 90.8032C240.867 90.6099 239.958 90.3839 239.644 89.9828C239.461 89.7502 239.258 88.9119 239.488 88.6799C240.027 88.1364 243.609 89.5991 244.345 89.7988C244.834 89.9314 245.325 90.0326 245.799 90.2063C245.978 90.2725 246.191 90.5407 246.385 90.5507C247.209 90.5924 247.274 89.9601 247.53 89.2819C248.124 87.706 248.768 86.0983 249.657 84.667Z" fill="black"/>
<path fill-rule="evenodd" clip-rule="evenodd" d="M44.2874 116.021C43.8482 114.946 48.5106 113.648 49.3761 113.286C51.4886 112.404 53.7518 111.87 55.9391 111.196C58.09 110.534 60.2315 109.82 62.347 109.053C63.0012 108.816 67.7124 106.527 67.9588 106.861C68.7753 107.969 58.8892 111.448 57.9259 111.794C53.4527 113.401 48.8339 114.635 44.2874 116.021Z" fill="black"/>
<path fill-rule="evenodd" clip-rule="evenodd" d="M244.818 31.9921C243.609 32.0042 241.866 32.3469 240.757 31.8564C242.111 31.9016 243.464 31.947 244.818 31.9921Z" fill="black"/>
<path fill-rule="evenodd" clip-rule="evenodd" d="M75.2513 65.3906L72.564 65.3809C73.4607 65.1729 74.3568 65.0473 75.2513 65.3906Z" fill="black"/>
<path fill-rule="evenodd" clip-rule="evenodd" d="M215.197 64.6734C215.831 64.67 216.465 64.6667 217.094 64.6631C216.459 64.6667 215.828 64.67 215.197 64.6734Z" fill="black"/>
<path fill-rule="evenodd" clip-rule="evenodd" d="M270.6 81.0518C270.595 81.7281 270.591 82.4045 270.585 83.0781C270.59 82.4008 270.595 81.7263 270.6 81.0518Z" fill="black"/>
<path fill-rule="evenodd" clip-rule="evenodd" d="M145.813 205.726C145.14 205.774 144.467 205.823 143.794 205.871C144.468 205.823 145.14 205.774 145.813 205.726Z" fill="black"/>
<path fill-rule="evenodd" clip-rule="evenodd" d="M149.605 76.8164C148.922 76.8718 148.238 76.9275 147.556 76.9829C148.239 76.9272 148.922 76.8718 149.605 76.8164Z" fill="black"/>
<path fill-rule="evenodd" clip-rule="evenodd" d="M220.332 64.451C220.816 64.4501 221.299 64.4491 221.779 64.4482C221.294 64.4495 220.813 64.4504 220.332 64.451Z" fill="black"/>
<path fill-rule="evenodd" clip-rule="evenodd" d="M123.015 78.1367C122.414 78.1909 121.813 78.2451 121.212 78.2993C121.813 78.2451 122.414 78.1909 123.015 78.1367Z" fill="black"/>
<path fill-rule="evenodd" clip-rule="evenodd" d="M149.564 35.324C148.962 35.3276 148.361 35.3312 147.76 35.3349C148.36 35.017 148.961 35.099 149.564 35.324Z" fill="black"/>
<path fill-rule="evenodd" clip-rule="evenodd" d="M39.8314 139.076C39.3312 139.049 38.9238 139.292 38.6416 138.815C39.1033 138.455 39.3697 138.869 39.8314 139.076Z" fill="black"/>
<path fill-rule="evenodd" clip-rule="evenodd" d="M132.585 99.0135L131.024 98.8379L132.585 99.0135Z" fill="black"/>
<path fill-rule="evenodd" clip-rule="evenodd" d="M143.129 217.376C143.474 217.384 143.819 217.391 144.16 217.399C143.814 217.391 143.471 217.384 143.129 217.376Z" fill="black"/>
<path fill-rule="evenodd" clip-rule="evenodd" d="M223.227 32.9717C222.689 33.0198 222.152 33.068 221.615 33.1161C222.152 33.0676 222.689 33.0198 223.227 32.9717Z" fill="black"/>
<path fill-rule="evenodd" clip-rule="evenodd" d="M52.939 195.625C52.4228 195.627 51.907 195.63 51.3911 195.631C51.9073 195.629 52.4231 195.627 52.939 195.625Z" fill="black"/>
<path fill-rule="evenodd" clip-rule="evenodd" d="M11.4521 186.496C10.9311 186.497 10.4104 186.498 9.88965 186.499C10.4107 186.498 10.9311 186.497 11.4521 186.496Z" fill="black"/>
<path fill-rule="evenodd" clip-rule="evenodd" d="M143.089 77.2451C142.56 77.2972 142.031 77.349 141.502 77.401C142.032 77.349 142.56 77.2972 143.089 77.2451Z" fill="black"/>
<path fill-rule="evenodd" clip-rule="evenodd" d="M128.333 78.1027C127.812 78.0428 127.292 77.9828 126.772 77.9229C127.288 78.0237 127.86 77.6256 128.333 78.1027Z" fill="black"/>
<path fill-rule="evenodd" clip-rule="evenodd" d="M175.46 98.946C175.784 98.9094 176.239 98.7958 176.573 98.8488C176.529 99.0395 175.584 98.9454 175.46 98.946Z" fill="black"/>
<path fill-rule="evenodd" clip-rule="evenodd" d="M142.452 139.678C142.801 139.684 143.15 139.691 143.495 139.697C143.145 139.69 142.799 139.684 142.452 139.678Z" fill="black"/>
<path fill-rule="evenodd" clip-rule="evenodd" d="M110.923 98.1943C110.413 98.2437 109.904 98.293 109.394 98.3421C109.904 98.2927 110.413 98.2437 110.923 98.1943Z" fill="black"/>
<path fill-rule="evenodd" clip-rule="evenodd" d="M53.8472 96.4609C54.1251 96.4685 54.403 96.4761 54.6773 96.4837C54.3981 96.4761 54.1227 96.4685 53.8472 96.4609Z" fill="black"/>
<path fill-rule="evenodd" clip-rule="evenodd" d="M128.977 98.5778C128.541 98.569 128.105 98.5602 127.669 98.5518C128.105 98.5602 128.541 98.569 128.977 98.5778Z" fill="black"/>
<path fill-rule="evenodd" clip-rule="evenodd" d="M48.0639 95.2852C47.6231 95.3396 47.1824 95.3938 46.7422 95.448C47.1833 95.3935 47.6234 95.3393 48.0639 95.2852Z" fill="black"/>
<path fill-rule="evenodd" clip-rule="evenodd" d="M108.528 91.5479C108.8 91.5587 109.072 91.5696 109.341 91.5815C109.067 91.5712 108.798 91.5597 108.528 91.5479Z" fill="black"/>
<path fill-rule="evenodd" clip-rule="evenodd" d="M129.294 137.232C129.571 137.214 129.847 137.196 130.12 137.178C129.842 137.196 129.568 137.214 129.294 137.232Z" fill="black"/>
<path fill-rule="evenodd" clip-rule="evenodd" d="M150.438 101.46C149.994 101.405 149.549 101.349 149.105 101.294C149.549 101.349 149.994 101.405 150.438 101.46Z" fill="black"/>
<path fill-rule="evenodd" clip-rule="evenodd" d="M43.1729 169.946C43.4614 169.942 43.7499 169.938 44.035 169.934C43.7456 169.938 43.4589 169.942 43.1729 169.946Z" fill="black"/>
<path fill-rule="evenodd" clip-rule="evenodd" d="M19.4854 134.174C19.0258 134.128 18.5663 134.081 18.1064 134.035C18.566 134.081 19.0255 134.128 19.4854 134.174Z" fill="black"/>
<path fill-rule="evenodd" clip-rule="evenodd" d="M9.67956 186.56C9.22788 186.612 8.7762 186.664 8.32422 186.716C8.7765 186.664 9.22788 186.612 9.67956 186.56Z" fill="black"/>
<path fill-rule="evenodd" clip-rule="evenodd" d="M255.906 64.6006C255.871 64.9903 255.836 65.38 255.799 65.7681C255.835 65.3778 255.87 64.9894 255.906 64.6006Z" fill="black"/>
<path fill-rule="evenodd" clip-rule="evenodd" d="M55.6383 195.236C55.1839 195.288 54.7295 195.341 54.2754 195.393C54.7298 195.34 55.1842 195.288 55.6383 195.236Z" fill="black"/>
<path fill-rule="evenodd" clip-rule="evenodd" d="M51.1803 195.686C50.7205 196.007 50.2609 196.025 49.8008 195.687C50.2606 195.686 50.7205 195.686 51.1803 195.686Z" fill="black"/>
<path fill-rule="evenodd" clip-rule="evenodd" d="M42.4617 196.068C42.0158 196.069 41.5701 196.069 41.1245 196.069C41.5704 196.069 42.0161 196.069 42.4617 196.068Z" fill="black"/>
<path fill-rule="evenodd" clip-rule="evenodd" d="M94.6105 44.4317C94.5724 44.0369 94.5342 43.6423 94.4961 43.249C94.5342 43.6444 94.5724 44.0381 94.6105 44.4317Z" fill="black"/>
<path fill-rule="evenodd" clip-rule="evenodd" d="M143.308 35.6152C142.86 35.6706 142.412 35.7257 141.964 35.7808C142.412 35.7257 142.86 35.6706 143.308 35.6152Z" fill="black"/>
<path fill-rule="evenodd" clip-rule="evenodd" d="M144.895 35.4062C144.44 35.4571 143.984 35.5083 143.529 35.5594C143.985 35.5083 144.44 35.4571 144.895 35.4062Z" fill="black"/>
<path fill-rule="evenodd" clip-rule="evenodd" d="M74.1768 88.0157C74.4571 88.0114 74.7374 88.0072 75.0138 88.0029C74.7323 88.0072 74.4547 88.0114 74.1768 88.0157Z" fill="black"/>
<path fill-rule="evenodd" clip-rule="evenodd" d="M114.742 83.6435C116.229 83.3983 117.716 83.3166 119.202 83.6426L114.742 83.6435Z" fill="black"/>
<path fill-rule="evenodd" clip-rule="evenodd" d="M154.396 66.9535C154.706 66.1469 154.783 65.8442 155.538 65.4268C155.224 66.2107 155.175 66.6299 154.396 66.9535Z" fill="black"/>
<path fill-rule="evenodd" clip-rule="evenodd" d="M190.654 146.776C190.684 147.615 190.714 148.454 190.744 149.291C190.714 148.452 190.684 147.614 190.654 146.776Z" fill="black"/>
<path fill-rule="evenodd" clip-rule="evenodd" d="M244.574 33.9287C243.902 33.9438 243.229 33.9593 242.56 33.9744C243.233 33.9593 243.904 33.9438 244.574 33.9287Z" fill="black"/>
<path fill-rule="evenodd" clip-rule="evenodd" d="M154.972 161.681C154.996 162.38 155.019 163.079 155.042 163.777C155.019 163.078 154.995 162.379 154.972 161.681Z" fill="black"/>
<path fill-rule="evenodd" clip-rule="evenodd" d="M72.5493 139.283C73.2287 139.288 73.9083 139.293 74.5876 139.298C73.908 139.293 73.2287 139.288 72.5493 139.283Z" fill="black"/>
<path fill-rule="evenodd" clip-rule="evenodd" d="M130.302 103.374C129.892 103.378 129.483 103.382 129.078 103.387C129.488 103.383 129.895 103.379 130.302 103.374Z" fill="black"/>
<path fill-rule="evenodd" clip-rule="evenodd" d="M128.968 81.1515C128.631 81.14 128.294 81.1285 127.961 81.1182C128.3 81.13 128.634 81.1406 128.968 81.1515Z" fill="black"/>
<path fill-rule="evenodd" clip-rule="evenodd" d="M80.8232 139.072C81.3545 139.02 81.8855 138.968 82.4168 138.916C81.8855 138.968 81.3545 139.02 80.8232 139.072Z" fill="black"/>
<path fill-rule="evenodd" clip-rule="evenodd" d="M69.248 139.309C69.7684 139.302 70.2888 139.293 70.8089 139.285C70.2888 139.293 69.7684 139.302 69.248 139.309Z" fill="black"/>
<path fill-rule="evenodd" clip-rule="evenodd" d="M74.8037 139.297C75.3426 139.25 75.8814 139.203 76.4206 139.156C75.8817 139.203 75.3426 139.25 74.8037 139.297Z" fill="black"/>
<path fill-rule="evenodd" clip-rule="evenodd" d="M76.7689 140.148C76.501 140.147 76.233 140.145 75.9688 140.144C76.2379 140.145 76.5034 140.147 76.7689 140.148Z" fill="black"/>
<path fill-rule="evenodd" clip-rule="evenodd" d="M190.419 128.135C190.459 127.741 190.499 127.347 190.539 126.954C190.499 127.349 190.459 127.742 190.419 128.135Z" fill="black"/>
<path fill-rule="evenodd" clip-rule="evenodd" d="M109.961 88.2988C110.299 88.3276 110.637 88.3564 110.975 88.3854C110.598 88.4048 110.22 88.4239 109.843 88.4432C109.845 88.3657 109.884 88.3176 109.961 88.2988Z" fill="black"/>
<path fill-rule="evenodd" clip-rule="evenodd" d="M196.793 154.581C196.771 154.222 196.749 153.863 196.729 153.506C196.75 153.866 196.771 154.223 196.793 154.581Z" fill="black"/>
<path fill-rule="evenodd" clip-rule="evenodd" d="M116.028 86.9297C115.756 86.9351 115.485 86.9403 115.217 86.9454C115.49 86.94 115.758 86.9348 116.028 86.9297Z" fill="black"/>
<path fill-rule="evenodd" clip-rule="evenodd" d="M215.351 132.232C215.803 132.285 216.256 132.338 216.708 132.391C216.255 132.338 215.803 132.285 215.351 132.232Z" fill="black"/>
<path fill-rule="evenodd" clip-rule="evenodd" d="M121.416 102.496C121.137 102.5 120.859 102.504 120.584 102.509C120.863 102.505 121.14 102.501 121.416 102.496Z" fill="black"/>
<path fill-rule="evenodd" clip-rule="evenodd" d="M105.319 48.1748C105.611 48.3304 105.46 49.0143 105.175 48.949C105.223 48.6908 105.271 48.4328 105.319 48.1748Z" fill="black"/>
<path fill-rule="evenodd" clip-rule="evenodd" d="M255.929 129.459C255.661 129.452 255.393 129.445 255.128 129.438C255.397 129.446 255.663 129.453 255.929 129.459Z" fill="black"/>
<path fill-rule="evenodd" clip-rule="evenodd" d="M92.5667 44.6281C92.5382 44.0255 92.5101 43.4231 92.4819 42.8223C92.5101 43.4255 92.5385 44.0267 92.5667 44.6281Z" fill="black"/>
<path fill-rule="evenodd" clip-rule="evenodd" d="M143.389 215.042C143.802 215.103 144.215 215.163 144.629 215.224C144.215 215.163 143.802 215.103 143.389 215.042Z" fill="black"/>
<path fill-rule="evenodd" clip-rule="evenodd" d="M140.656 59.897C139.199 60.1963 137.702 60.3528 136.278 60.7936C135.923 60.9035 134.758 61.579 134.332 61.401C133.686 61.1301 134.013 60.435 134.285 60.064C135.013 59.072 136.316 58.5161 137.511 58.5285C138.704 58.5412 140.341 58.4977 140.656 59.897Z" fill="black"/>
<path fill-rule="evenodd" clip-rule="evenodd" d="M136.606 62.5583C138.212 63.6794 139.438 64.2316 139.574 61.7119C141.313 61.9484 140.534 64.7439 139.217 64.9548C137.785 65.1841 136.829 63.7561 136.606 62.5583Z" fill="black"/>
</g>
<defs>
<clipPath id="clip0">
<rect width="310" height="232" fill="white"/>
</clipPath>
</defs>
</svg>
