<svg width="489" height="431" viewBox="0 0 489 431" fill="none" xmlns="http://www.w3.org/2000/svg">
<path fill-rule="evenodd" clip-rule="evenodd" d="M29.1286 73.2534L431.507 393.885L489 315.346L57.493 0.000175281L29.1286 73.2534Z" fill="#F6EDEE"/>
<path fill-rule="evenodd" clip-rule="evenodd" d="M171.076 266.165C172.332 278.79 173.587 291.416 174.843 304.042C181.678 300.157 188.515 296.272 195.35 292.387V321.151V328.711C195.35 329.38 194.951 331.678 195.35 332.257C195.688 332.749 198.193 332.763 198.785 332.846C202.65 333.385 206.525 333.864 210.404 334.291C220.629 335.415 231.574 337.027 241.838 335.734C250.76 334.611 259.41 331.45 267.561 327.772C270.423 326.481 273.245 325.099 276.015 323.623C276.602 323.31 278.733 322.57 279.053 321.933C279.313 321.412 278.702 319.583 278.62 319.036C278.276 316.729 277.931 314.422 277.587 312.115L272.776 279.901L281.864 288.939C282.576 289.647 283.928 291.657 284.913 291.971C285.635 292.201 287.424 291.489 288.138 291.352C293.284 290.365 298.43 289.377 303.576 288.39C304.774 288.159 307.476 288.168 308.487 287.447C309.031 287.058 309.057 286.268 309.249 285.518C310.504 280.621 311.759 275.724 313.014 270.827C313.24 269.945 314.501 267.164 314.181 266.276C314.066 265.957 313.509 265.74 313.169 265.532C305.402 260.808 297.635 256.083 289.868 251.358C285.614 248.77 281.359 246.182 277.104 243.594C275.322 242.51 273.133 240.556 271.114 239.95C269.86 239.573 268.036 239.855 266.739 239.818C264.103 239.743 261.467 239.669 258.831 239.594C258.418 239.582 256.973 239.289 256.625 239.531C256.336 239.733 256.456 240.014 256.361 240.494C256.129 241.667 256.128 242.932 256.013 244.123C255.922 245.078 256.104 246.831 255.671 247.696C255.395 248.248 255.745 248.028 255.372 248.295C254.927 248.613 253.506 248.511 252.977 248.572C250.394 248.871 247.81 249.17 245.227 249.469C242.156 249.824 239.051 250.491 235.965 250.183C231.287 249.718 226.244 249.741 221.651 248.76C220.457 248.505 220.027 247.835 219.106 246.919C217.309 245.132 215.53 243.324 213.713 241.555C212.822 240.689 213.204 240.836 212.286 241.164C211.135 241.576 209.969 242.57 208.927 243.202C204.938 245.622 200.948 248.043 196.958 250.463L172.6 265.24C172.092 265.548 171.584 265.857 171.076 266.165Z" fill="#FFAEAD"/>
<path fill-rule="evenodd" clip-rule="evenodd" d="M404.053 267.734C399.032 286.719 388.933 307.421 368.588 313.472C363.642 314.943 358.829 316.054 353.692 315.494C353.203 315.441 352.794 315.509 352.329 315.518C351.495 315.534 352.215 315.832 351.28 315.544C350.552 315.32 349.87 314.76 349.111 314.512C347.092 313.854 344.939 313.727 342.888 313.196C337.846 311.889 332.651 310.277 327.766 308.475C325.466 307.627 323.352 306.446 321.188 305.31C318.989 304.155 316.658 303.438 314.434 302.379C312.676 301.542 309.665 300.451 308.429 298.881C307.112 297.206 308.935 293.641 309.456 291.861C311.228 285.803 313.338 279.835 314.67 273.657C319.269 278.965 325.651 282.252 332.259 284.372C335.844 285.522 339.532 286.354 343.261 286.875C346.647 287.347 350.3 287.919 353.693 287.248C356.255 286.742 359.471 285.569 361.301 283.621C361.954 282.926 362.737 281.651 362.371 280.641C361.907 279.359 360.554 279.963 359.821 279.006C359.183 278.173 359.283 276.223 359.08 275.209C358.72 273.413 358.226 271.666 357.623 269.937C356.453 266.58 354.994 263.216 354.644 259.643C354.341 256.544 355.049 253.614 356.602 250.925C357.335 249.653 359.177 246.195 360.975 246.339C362.949 246.496 360.287 254.783 360.2 256.474C359.855 263.175 360.757 270.316 364.21 276.189C365.532 278.438 367.444 281.057 370.266 281.335C373.256 281.63 375.668 279.287 377.091 276.917C380.563 271.134 378.812 263.198 377.054 257.137C374.897 249.7 369.266 244.575 365.706 237.896C371.022 238.428 373.868 241.791 376.595 246.057C379.599 250.754 381.937 256.394 383.089 261.86C383.672 264.621 383.27 267.394 383.274 270.182C383.275 271.108 383.274 274.526 384.791 274.391C386.412 274.248 386.967 270.393 387.206 269.217C387.752 266.52 388.343 263.823 388.818 261.112C389.658 256.317 390.031 251.406 391.036 246.643C391.206 245.838 391.544 243.605 392.755 244.208C393.687 244.672 393.538 248.127 393.572 248.93C393.656 250.908 393.774 252.887 393.789 254.868C393.813 257.803 393.226 260.842 393.514 263.759C393.702 265.666 394.729 267.772 396.003 265.201C397.266 262.652 397.524 259.472 398.228 256.73C398.968 253.851 399.731 250.929 401.301 248.372C401.737 247.663 402.205 246.537 403.173 246.87C403.876 247.113 404.395 248.773 404.613 249.359C405.593 252.007 405.427 254.951 405.365 257.723C405.289 261.12 404.923 264.441 404.053 267.734ZM306.142 272.661C305.874 272.575 304.734 272.467 304.452 272.442C304.12 272.414 304.496 271.805 303.695 271.979C303.849 272.361 304.124 272.615 304.52 272.743C303.314 273.15 302.425 272.147 301.6 272.017C300.812 271.894 300.778 272.017 299.999 272.847C299.156 271.823 299.314 272.462 298.621 272.462C298.368 272.462 298.357 272.842 297.947 272.796C297.588 272.756 297.551 272.215 297.338 272.151C296.188 271.804 295.004 273.549 293.699 272.036C293.383 273.611 289.76 271.638 288.366 271.915C286.904 272.204 287.535 272.726 286.354 271.834C285.229 270.985 285.542 271.549 284.234 272.244C284.264 272.228 283.495 272.746 283.566 272.754C282.66 272.648 282.712 271.715 281.564 271.765C280.35 271.818 279.831 272.766 278.72 271.599C278.478 272.473 278.428 272.096 277.859 272.316C277.545 272.391 277.271 272.308 277.036 272.071C276.965 272.311 276.809 272.458 276.567 272.512C275.946 272.568 274.782 272.654 274.218 272.356C273.373 271.91 274.053 271.738 273.466 271.236C273.204 272.621 272.628 272.326 271.413 272.456C270.486 272.555 270.282 272.271 269.397 272.134C268.525 271.998 267.399 272.335 266.548 272.479C266.197 272.538 265.727 272.782 265.37 272.696C265.048 272.619 264.91 272.37 264.718 272.305C264.484 272.227 264.534 272.023 264.13 271.925C263.852 271.857 263.354 272.117 263.076 272.162C261.093 272.482 259.189 272.486 257.298 271.709C258.23 273.339 255.121 272.459 254.567 271.784C253.874 272.865 253.037 272.102 251.64 272.186C250.296 272.268 248.274 272.678 247.729 271.01C247.622 271.349 246.859 272.333 246.555 272.483C245.674 272.918 245.569 272.274 244.75 272.012C243.635 271.655 243.867 272.333 243.176 272.47C242.008 272.703 241.377 271.884 240.345 271.449C240.302 272.126 240.279 272.542 239.692 272.963C239.172 271.077 237.315 273.118 237.634 270.596C236.928 271.054 235.934 271.406 235.732 272.333C236.914 272.009 235.858 272.778 235.809 272.804C235.653 272.885 235.125 272.147 235.003 272.044C234.969 272.391 234.936 272.739 234.903 273.087C234.432 272.853 233.991 272.433 233.609 272.223C233.264 272.034 233.758 271.639 233.176 271.612C232.87 271.598 232.55 272.259 232.228 272.315C231.736 272.401 231.973 271.698 231.767 271.722C231.453 271.758 230.943 272.215 230.705 272.206C229.928 272.177 230.454 271.817 229.861 271.651C228.8 271.356 228.869 272.046 228.106 272.296C226.363 272.866 226.538 270.242 224.764 271.992C224.339 272.411 224.066 273.057 223.485 273.021C222.28 272.946 222.703 271.524 222.948 270.828C223.201 270.952 218.549 273.332 218.586 273.239C218.615 272.668 219.346 272.228 218.693 271.722C218.158 272.864 217.595 272.884 216.362 273.097C215.763 273.2 215.645 273.338 215.004 273.09C214.595 272.932 214.321 272.283 213.914 272.248C213.969 272.253 213.223 272.818 213.11 272.869C212.437 273.171 212.011 272.828 211.357 272.952C210.799 273.058 210.58 273.531 210.025 273.401C209.285 273.229 209.72 272.348 208.701 272.594C208.353 272.678 208.144 273.346 207.595 273.484C206.74 273.7 205.692 273.298 204.788 273.508C204.071 273.674 203.538 273.745 202.911 273.78C202.404 273.808 202.612 273.415 201.68 273.879L201.284 272.886C200.817 273.304 200.35 273.722 199.883 274.14C199.794 273.765 199.738 273.386 199.715 273.001C199.018 273.696 198.141 273.815 197.205 273.877C196.191 273.945 195.435 274.165 194.449 274.35C194.137 274.408 193.334 274.501 193.077 274.392C193.115 274.408 192.598 274.194 192.754 274.235C192.686 274.098 192.624 273.96 192.566 273.819C192.479 273.427 192.196 273.41 191.718 273.767C191.47 273.729 190.99 273.406 190.744 273.486C190.107 273.691 190.194 274.182 189.56 274.11C189.149 274.063 188.939 273.458 188.51 273.417C187.855 273.354 187.287 274.085 186.696 274.244C188.492 273.759 184.367 274.135 185.65 274.169C184.809 274.147 183.936 274.105 183.159 274.481C182.73 274.188 183.251 273.601 182.817 273.359C182.423 273.139 182.393 273.719 182.347 273.732C182.595 273.662 182.471 274.155 182.223 274.242C181.449 274.515 180.83 273.821 180.79 273.132C180.132 274.117 179.948 273.721 178.981 273.782C178.027 273.842 177.205 274.34 176.251 274.331C174.364 274.313 173.083 273.66 172.453 271.982C174.464 272.226 176.488 270.938 178.454 271.241C179.1 271.341 179.504 271.825 180.07 271.739C180.767 271.633 181.254 270.875 182.149 270.794C184.121 270.614 186.066 270.789 188.052 270.488C190.425 270.128 192.9 269.915 195.296 270.09C197.147 270.225 198.645 269.521 200.522 269.385C202.949 269.209 205.396 269.178 207.827 269.051C210.325 268.92 213.013 268.523 215.504 268.65C216.282 268.69 216.951 268.766 217.723 268.72C218.049 268.7 218.358 268.479 218.701 268.512C219.147 268.555 219.338 269.01 219.801 268.994C220.587 268.967 221.428 268.322 222.362 268.305C223.899 268.276 225.429 268.279 226.97 268.192C228.326 268.115 229.779 267.8 231.129 267.817C232.082 267.829 232.317 268.637 232.872 268.72C233.87 268.87 238.919 266.009 239.355 268.577C241.984 266.786 245.509 268.303 248.434 267.966C252.193 267.533 256.021 267.919 259.805 267.765C263.655 267.608 267.616 267.753 271.452 268.115C273.04 268.265 274.575 268.405 276.168 268.314C276.878 268.274 277.699 268.093 278.41 268.256C278.582 268.296 279.899 269.211 279.735 269.238C280.455 268.595 279.968 268.5 281.234 268.467C282.209 268.442 283.132 268.652 284.102 268.709C285.843 268.811 287.598 268.571 289.335 268.624C290.786 268.668 292.204 268.881 293.662 268.892C295.234 268.903 297.091 268.947 298.228 270.21C298.108 269.813 297.988 269.417 297.868 269.021C299.623 269.158 301.357 269.781 303.131 269.49C302.682 269.918 302.226 270.268 302.055 270.895C303.011 270.774 303.659 270.109 304.666 270.104C305.512 270.099 305.688 270.522 306.581 269.976C306.691 270.645 306.801 271.314 306.911 271.982C308.148 271.692 307.336 270.774 307.427 269.946C308.432 270.247 309.283 269.901 308.887 271.342C308.581 272.452 307.189 272.999 306.142 272.661ZM304.404 285.029C303.973 286.236 300.243 285.547 299.361 285.419C298.221 285.255 296.917 284.994 295.867 284.865C295.741 284.697 295.59 284.556 295.415 284.439C295.283 284.622 295.116 284.752 294.914 284.828C294.432 284.933 294.43 285.429 293.797 285.319C293.767 286.053 294.279 285.636 294.671 285.902C293.683 286.561 294.135 285.802 293.581 285.814C293.444 285.62 293.253 285.544 293.007 285.586C292.695 285.667 292.408 285.8 292.144 285.985C291.898 286.245 291.686 286.258 291.51 286.026C291.342 285.857 291.136 285.753 290.893 285.713C289.92 285.871 289.648 286.3 288.553 286.23C286.989 286.13 285.296 286.541 283.756 286.324C282.801 286.19 281.206 284.697 280.773 286.153C280.113 285.073 279.061 284.339 278.43 283.236C281.373 283.066 284.315 282.865 287.261 282.759C289.84 282.666 292.662 282.955 295.072 282.834C297.33 282.721 299.721 282.472 302.026 282.267C304.47 282.05 305.279 282.583 304.404 285.029ZM227.617 285.207C228.686 285.502 229.704 284.834 230.74 285.045C231.083 285.115 231.792 285.736 231.949 285.748C232.234 285.771 233.073 285.161 233.433 285.079C235.709 284.563 238.467 284.618 240.743 284.936C241.95 285.103 242.134 284.553 243.187 284.286C244.282 284.009 245.837 284.223 246.989 284.146C249.7 283.965 252.41 284.094 255.102 283.896C257.866 283.694 260.616 283.584 263.381 283.442C265.265 283.346 269.792 282.276 271.353 283.668C272.641 284.817 270.982 286.81 269.694 287.265C268.731 287.605 268.27 286.889 267.555 286.958C266.741 287.035 267.024 287.993 266.298 287.105C265.848 287.988 263.018 287.612 262.206 287.67C260.439 287.797 258.944 288.151 257.741 286.508C257.822 286.982 257.904 287.456 257.985 287.929C256.39 287.08 254.678 287.352 253.293 287.648C252.607 287.794 250.503 288.807 249.76 288.37C249.248 288.07 250.149 287.556 249.287 287.3C248.835 287.165 248.055 287.913 247.503 287.875C245.974 287.771 246.408 286.747 244.907 288.05C244.398 287.612 244.229 286.867 244.296 286.229C243.205 287.155 243.297 288.699 241.347 288.416C240.62 288.311 240.487 287.573 240.108 287.437C239.301 287.147 239.209 287.668 238.51 288.081C238.246 288.237 237.925 288.488 237.614 288.519C236.976 288.582 236.874 288.29 236.787 288.3C236.362 288.347 235.827 288.561 235.323 288.408C234.871 288.27 234.739 287.475 233.942 287.661C233.18 287.839 233.173 288.355 233.312 289.127C232.56 289.049 232.105 288.632 231.542 288.181C230.974 289.5 229.779 288.407 229.117 289.52C228.256 288.496 227.703 288.778 226.634 287.777C226.687 288.195 226.739 288.612 226.792 289.03C225.958 288.87 225.587 288.284 224.875 289.059C224.184 287.778 222.09 289.603 221.015 288.366C220.536 289.933 217.364 289.558 216.024 289.585C214.837 289.61 213.958 289.513 212.798 289.787C211.773 290.03 210.352 290.282 209.388 290.171C208.758 290.098 208.07 289.983 207.285 290.068C206.153 290.19 205.176 290.773 204.004 290.498C202.239 290.082 201.158 287.773 203.123 286.76C204.468 286.065 206.892 286.322 208.372 286.194C210.825 285.982 213.575 285.537 216.031 285.739C217.948 285.897 219.694 285.442 221.649 285.25C223.121 285.105 225.534 284.844 226.493 286.297C226.862 285.873 226.824 284.989 227.617 285.207ZM200.761 305.095C200.497 303.788 211.713 303.069 212.826 302.983C215.164 302.804 217.508 302.676 219.851 302.617C221.776 302.568 223.574 302.934 225.5 302.64C227.299 302.365 229.471 301.801 231.036 303.07C231.267 301.335 238.018 302.18 239.303 302.185C244.894 302.205 250.244 302.218 255.653 301.873C258.744 301.676 262.026 301.411 265.117 301.565C266.512 301.634 267.635 302.004 269.021 301.683C269.926 301.474 270.9 301.038 271.765 301.654C272.778 302.376 273.21 304.825 272.513 305.847C272.005 306.592 271.555 306.509 270.744 306.381C269.497 306.183 268.57 305.896 267.298 306.401C267.504 306.318 266.446 306.554 266.533 306.547C265.092 306.654 263.116 307.657 261.875 306.501C262.372 306.588 263.095 305.704 262.468 305.631C261.997 305.576 261.698 306.079 261.331 306.248C260.074 306.824 259.43 306.643 258.679 305.435C257.166 306.74 257.002 306.379 256.338 304.772C255.826 305.164 255.716 306.093 255.313 306.397C255.254 306.443 255.501 307.007 255.21 306.983C254.941 306.962 254.852 306.521 254.645 306.487C254.512 306.464 254.443 306.078 254.317 306.054C254.179 306.029 254.038 306.275 253.882 306.268C253.466 306.249 252.276 307.131 252.703 305.893C252.072 306.692 251.801 306.182 251.574 305.456C250.846 306.007 250.119 306.558 249.39 307.108C249.052 306.172 248.47 306.427 247.737 306.754C247.958 306.103 247.819 305.488 247.265 305.94C246.944 306.202 246.729 307.034 246.401 307.387C245.072 306.047 244.589 306.414 242.753 306.589C242.052 306.655 241.182 306.784 240.556 306.362C240.005 305.992 239.694 304.632 238.753 305.731C238.963 305.486 238.634 307.363 238.576 307.661C238.161 307.382 237.808 307.04 237.518 306.633C236.976 307.701 235.555 306.743 234.39 306.961C232.555 307.305 230.664 307.883 229.043 306.524C228.929 306.963 227.602 307.522 227.6 307.539C227.679 306.762 228.171 307.035 227.165 306.887C226.98 306.86 226.77 307.192 226.596 307.228C225.996 307.352 225.296 307.234 224.692 307.217C222.179 307.145 219.878 307.7 217.396 307.901C216.56 307.969 215.568 308.102 214.782 307.788C213.973 307.463 213.995 307.096 213.177 307.305C213.436 307.239 212.665 308.045 212.707 308.014C212.597 308.094 212.138 307.701 211.974 307.73C211.927 307.902 211.879 308.074 211.832 308.246C211.634 308.222 211.437 308.198 211.24 308.173C210.7 308.245 210.213 307.702 209.706 307.683C209.8 307.687 208.338 308.228 208.405 308.261C207.384 307.755 207.677 307.901 206.383 308.21C205.16 308.502 203.941 308.434 202.686 308.615C199.035 309.144 201.21 307.321 200.761 305.095ZM197.536 323.276C196.85 322.306 198.676 321.971 199.26 321.885C200.219 321.744 201.492 322.025 202.132 321.873C203.106 321.642 204.046 321.092 205.142 320.942C206.525 320.754 207.92 320.723 209.309 320.605C209.772 320.566 210.345 320.407 210.795 320.434C211.465 320.474 211.744 320.827 212.285 320.83C213.207 320.834 214.345 320.254 215.29 320.148C216.5 320.011 217.722 319.947 218.938 319.887C221.5 319.761 224.036 319.813 226.597 319.81C227.765 319.809 230.875 318.601 231.457 319.955C232.267 318.929 234.344 319.069 235.502 319.039C237.541 318.987 239.559 318.791 241.597 318.697C243.342 318.616 245.291 318.988 247.005 318.727C247.949 318.584 248.262 318.283 249.333 318.419C250.128 318.519 251.341 318.1 252.024 318.286C251.988 318.276 252.876 318.824 252.599 318.841C252.904 318.822 252.886 319.034 253.222 318.939C253.664 318.815 253.461 318.262 254.376 318.066C255.804 317.759 257.708 318.114 259.191 318.035C260.63 317.959 262.066 317.926 263.507 317.933C264.17 317.936 264.99 317.778 265.635 317.907C265.951 317.97 266.623 318.381 266.891 318.339C267.65 318.221 268.036 317.696 269.062 317.729C270.226 317.766 271.273 317.75 272.429 317.661C273.549 317.576 273.729 317.417 274.284 318.345C274.834 319.265 274.986 320.464 273.973 321.09C274.631 321.047 275.44 321.924 274.665 322.41C274.186 322.71 273.226 322.033 272.652 322.081C271.946 322.142 271.391 322.514 270.622 322.537C269.814 322.561 268.993 322.764 268.196 322.78C267.365 322.796 266.737 322.426 265.95 322.584C265.257 322.722 265.184 323.288 264.349 322.791C263.934 322.544 263.864 321.629 263.299 321.62C262.54 321.609 262.843 322.584 262.407 323.036C262.29 321.641 261.208 323.95 260.778 322.256C260.382 322.818 258.915 323.605 258.204 323.153C257.556 322.742 257.771 321.81 257.501 321.139C257.052 322.345 255.847 323.597 255.956 321.4C255.37 322.118 253.788 322.005 254.184 323.261C253.708 323.252 253.595 322.574 253.193 322.522C252.847 322.478 252.571 322.743 252.518 322.739C252.708 322.755 251.951 323.006 251.939 323.009C252.452 322.905 250.459 322.728 250.799 322.731C250.336 322.727 249.771 323.104 249.23 323.103C248.738 323.102 248.248 322.908 247.762 322.853C246.502 322.71 246.764 322.986 245.973 323.38C245.68 323.526 245.606 323.773 245.19 323.742C244.883 323.719 244.768 323.32 244.733 323.317C244.301 323.273 244.62 323.129 243.949 323.196C243.873 323.328 243.796 323.459 243.719 323.591C243.477 323.899 243.163 323.977 242.777 323.823C241.785 324.035 238.494 324.954 238.816 323.252C238.312 323.497 237.808 323.743 237.303 323.989C237.087 322.617 234.347 324.436 233.735 324.528C232.95 324.645 232.878 324.345 232.135 324.185C232.001 324.156 231.733 324.596 231.419 324.533C230.605 324.37 230.46 324.289 230.32 323.408C229.739 324.489 229.257 324.006 228.204 324.184C227.971 324.223 227.822 324.68 227.487 324.601C227.246 324.544 227.239 324.106 227.073 324.049C226.924 323.998 226.946 323.651 226.726 323.602C226.473 323.545 225.611 324.249 225.364 324.357C224.807 324.602 223.891 325.007 223.347 324.886C222.674 324.736 222.973 324.239 222.022 324.295C220.522 324.383 219.897 325.654 218.963 323.651C218.542 324.453 218.596 324.671 217.919 324.936C217.419 325.132 216.153 324.927 215.495 324.903C212.684 324.8 209.921 325.754 207.133 325.504C205.908 325.394 204.875 325.15 203.638 325.349C202.339 325.56 201.068 325.868 199.75 325.993C199.08 326.056 197.679 326.247 197.351 325.394C197.061 324.643 198.141 324.131 197.536 323.276ZM203.049 354.077C199.403 356.506 196.383 359.823 193.036 362.632C189.679 365.448 187.016 368.579 183.997 371.697C181.207 374.58 178.643 377.307 175.269 379.486C173.134 380.865 171.229 382.561 169.036 383.861C167.393 384.835 164.905 386.115 165.706 383.138C166.528 380.086 168.044 377.001 169.361 374.151C171.233 370.1 173.12 366.086 175.145 362.111C175.906 360.618 176.332 359.132 177.539 357.942C178.853 356.647 179.773 354.957 181.211 353.734C187.262 348.589 196.381 352.564 203.049 354.077ZM214.486 355.821C212.832 356.684 210.981 356.898 209.228 357.469C207.735 357.956 206.346 358.821 204.74 358.885C206.202 357.791 207.458 356.306 209.107 355.476C210.961 354.542 212.644 355.222 214.486 355.821ZM287.076 363.017C280.993 360.972 275.329 357.96 269.404 355.536C268.381 355.117 260.382 352.493 260.545 351.245C266.15 350.222 271.923 348.467 277.542 350.38C282.654 352.121 286.812 356.297 290.769 359.792C291.801 360.704 298.186 364.856 297.615 366.179C297.219 367.096 294.143 366.846 293.416 366.658C292.477 366.415 291.937 365.847 291.201 365.224C289.97 364.182 288.609 363.531 287.076 363.017ZM275.846 328.862C276.77 328.015 277.323 326.731 278.206 325.949C279.34 324.945 281.17 325.434 282.409 325.956C286.129 327.521 289.309 330.153 293.006 331.787C297.103 333.597 300.649 336.016 304.345 338.509C307.722 340.788 311.374 342.674 314.822 344.849C318.335 347.066 322.268 348.506 325.83 350.644C329.454 352.82 333.064 355.005 336.548 357.402C342.758 361.678 349.225 366.069 353.82 372.147C356.182 375.272 358.393 378.816 360.126 382.325C361.701 385.514 363.41 389.942 361.368 393.26C359.408 396.446 356.066 398.957 353.238 401.334C352.166 402.234 351.147 403.328 349.759 403.718C348.07 404.192 346.1 404.061 344.363 404.202C335.077 404.952 326.426 404.244 317.274 402.59C308.45 400.995 299.589 400.102 290.698 398.993C285.681 398.368 280.666 397.64 275.718 396.598C273.603 396.153 271.45 395.64 269.381 395.033C267.573 394.503 266.053 393.337 264.195 392.875C256.307 390.913 247.282 390.164 239.474 386.864C246.384 384.004 253.728 382.276 260.81 379.899C268.264 377.398 275.544 375.299 283.401 374.588C287.444 374.223 291.062 373.194 294.951 372.118C298.657 371.093 302.526 370.778 306.333 370.318C308.026 370.114 312.857 370.42 313.418 368.216C314.254 364.935 309.507 364.556 307.483 364.85C304.612 365.267 302.245 365.98 300.048 363.635C297.805 361.24 295.625 358.788 293.341 356.423C289.106 352.037 284.741 346.966 278.755 344.998C271.452 342.598 262.983 344.877 255.697 346.241C248 347.683 240.316 349.063 232.763 351.159C229.636 352.026 225.603 353.938 222.357 353.631C219.157 353.328 215.534 352.806 212.443 351.887C211.044 351.472 209.894 350.701 208.643 349.983C207.015 349.049 205.232 348.45 203.505 347.724C200.012 346.256 196.607 344.904 192.839 344.326C189.666 343.84 186.296 343.552 183.221 344.66C180.204 345.747 177.531 347.96 175.426 350.324C173.139 352.893 171.249 355.771 169.375 358.641C168.476 360.018 167.378 361.22 166.446 362.567C165.663 363.698 165.207 364.954 164.379 366.053C162.526 368.512 161.268 371.657 160.146 374.518C158.898 377.695 157.512 381.473 157.81 384.93C157.923 386.236 158.04 387.966 158.548 389.177C159.193 390.718 160.113 390.679 161.44 391.26C163.719 392.258 164.358 395.018 167.303 394.48C170.065 393.975 172.461 391.708 174.476 389.901C177.103 387.547 179.617 385.064 182.131 382.59C184.71 380.051 187.252 377.235 189.304 374.248C190.111 373.072 190.741 371.744 191.695 370.673C192.911 369.309 194.276 369.146 195.927 368.602C210.362 363.852 224.867 359.271 239.752 356.134C243.319 355.383 246.914 354.413 250.417 353.413C254.133 352.352 256.057 353.474 259.124 355.492C265.53 359.711 273.103 362.683 280.237 365.435C282.483 366.302 286.059 366.357 287.815 368.066C277.407 369.646 267.488 372.687 257.448 375.715C252.499 377.207 247.492 378.502 242.523 379.929C237.553 381.357 232.772 383.207 227.87 384.817C222.992 386.42 217.836 387.073 212.91 388.551C207.881 390.06 202.874 391.097 197.713 392.014C192.501 392.941 187.325 394.009 182.096 394.838C179.701 395.218 177.308 395.612 174.94 396.134C172.623 396.645 170.384 397.869 168.056 398.153C157.657 399.42 147.462 402.243 137.104 403.839C129.369 405.031 115.914 406.693 110.899 398.965C105.855 391.193 112.043 382.127 117.563 376.57C120.994 373.116 124.85 370.077 128.895 367.373C133.224 364.479 137.389 361.354 141.718 358.464C151.517 351.925 162.142 346.591 172.669 341.337C177.723 338.814 182.604 336.109 187.52 333.342C189.959 331.968 191.31 334.184 193.238 335.691C194.755 336.876 197.54 339.798 199.662 338.447C199.744 338.934 199.826 339.42 199.907 339.907C200.529 339.624 201.151 339.342 201.773 339.06C202.19 340.151 202.141 340.828 203.308 341.401C204.024 341.753 205.552 342.176 206.235 341.556C206.375 341.987 206.514 342.418 206.653 342.848C207.25 342.803 207.366 341.102 207.478 340.703C208.501 342.192 209.916 343.436 211.715 343.856C211.723 343.759 211.422 342.536 211.435 342.529C212.004 342.182 212.722 343.667 213.023 343.986C214.024 345.04 214.62 344.876 215.725 344.025C215.805 344.112 216.179 345.084 216.234 345.066C216.473 344.991 216.927 344.13 216.976 344.051C216.907 345.184 219.103 345.412 219.879 345.169C219.705 344.837 219.531 344.505 219.357 344.173C222.058 343.814 223.118 346.672 225.711 346.527C227.628 346.419 226.09 346.002 227.175 345.185C228.122 344.47 228.291 346.033 228.384 345.983C228.565 345.795 228.705 345.578 228.805 345.333C229.155 346.671 231.947 347.872 231.659 345.672C232.757 346.109 233.537 346.835 234.752 346.989C236.23 347.175 237.808 346.863 239.282 346.741C242.458 346.478 245.452 345.833 248.314 344.384C250.012 343.524 251.818 342.745 253.414 341.708C254.749 340.841 257.282 338.207 259.06 339.341C258.605 338.004 260.748 339.243 260.816 337.52C261.161 337.779 261.505 338.037 261.849 338.295C262.056 337.845 261.998 337.134 262.275 336.741C262.654 336.202 262.84 336.519 263.164 336.216C263.526 335.876 263.842 334.967 264.276 334.708C264.724 334.441 265.25 334.759 265.732 334.526C266.465 334.171 269.619 330.708 269.085 333.675C270.442 333.216 269.396 332.797 269.565 331.897C269.905 330.093 270.733 331.391 271.558 331.548C272.909 331.806 272.882 330.694 273.635 329.886C274.323 329.148 275.616 328.817 275.17 327.535C275.679 327.808 275.787 328.343 275.846 328.862ZM194.424 290.339C193.36 291.52 192.563 291.015 191.38 290.842C191.254 290.419 191.037 290.361 190.732 290.666C190.381 290.867 190.004 290.999 189.601 291.062C188.63 291.3 187.623 291.199 186.674 291.56C186.701 291.243 187.035 290.68 186.821 290.359C185.823 291.046 185.204 291.484 183.979 291.497C182.986 291.507 181.243 290.752 180.418 291.655C180.393 291.303 180.367 290.952 180.342 290.6C179.938 290.8 179.587 291.069 179.288 291.405C179.231 290.884 179.2 290.49 178.854 290.069C178.198 291.413 177.479 291.444 176.205 290.931C176.384 291.003 174.929 290.154 174.985 290.389C174.525 288.46 181.783 288.619 182.545 288.543C184.448 288.351 186.351 288.24 188.257 288.065C190.064 287.9 191.413 287.619 192.665 289.121C192.107 286.952 197.381 287.059 194.424 290.339ZM111.204 256.696C111.404 259.975 112.137 263.462 110.856 266.618C109.827 269.156 107.774 272.021 105.562 273.677C101.032 277.067 97.1931 272.919 96.5628 268.359C95.9056 263.604 97.2082 257.793 101.32 254.861C103.776 253.109 106.155 253.23 108.984 253.806C109.648 253.942 110.726 253.89 111.106 254.547C111.195 254.701 111.115 256.693 111.204 256.696ZM171.36 300.393C170.578 300.786 169.759 301.017 169.07 301.552C168.83 301.738 168.748 302.161 168.494 302.318C168.031 302.602 167.37 302.413 166.888 302.649C166.09 303.037 165.517 303.593 164.569 303.951C163.16 304.483 161.925 305.212 160.593 305.903C158.375 307.055 155.994 308.044 153.674 308.983C152.503 309.456 149.265 310.379 149.377 312.086C149.116 312.156 148.848 311.586 148.301 311.631C147.55 311.693 146.559 312.558 145.779 312.771C144.321 313.168 143.193 313.203 143.193 315.054C142.729 314.74 142.611 313.972 141.994 313.87C141.299 313.755 141.006 314.502 140.451 314.734C139.796 315.008 138.982 314.746 138.334 315.037C138.05 315.335 137.735 315.596 137.388 315.818C137.036 315.859 136.685 315.848 136.335 315.786C134.959 316.077 133.693 316.592 132.313 316.86C130.969 317.122 130.048 317.217 130.613 318.8C129.175 319.08 128.824 317.56 127.201 318.116C125.212 318.797 123.353 319.288 121.277 319.704C120.218 319.916 119.112 320.389 118.045 320.5C117.284 320.579 116.574 320.308 115.825 320.392C114.921 320.493 114.196 320.91 113.261 320.925C112.375 320.941 111.444 320.782 110.574 320.626C110.697 320.976 110.851 321.311 111.035 321.631C110.434 321.506 110.156 320.785 109.645 320.678C109.11 320.566 108.63 321.117 108.184 320.995C107.994 320.943 108.121 320.36 107.781 320.248C107.472 320.147 107.341 320.266 107.034 320.219C106.932 320.203 105.647 320.133 105.443 320.241C105.085 320.43 105.447 320.784 105.376 320.836C104.168 321.726 104.154 321.246 103.615 320.316C102.825 318.951 101.871 319.813 100.435 319.574C98.8333 319.308 97.5717 320.011 95.9955 319.911C94.2956 319.803 92.2978 318.536 90.7949 317.796C87.5493 316.199 84.3844 314.687 81.6588 312.267C76.3305 307.537 71.9957 301.72 69.4399 295.061C66.6938 287.907 66.1734 280.445 66.3939 272.855C66.5265 268.29 66.8933 263.728 67.6157 259.217C68.1131 256.113 68.2172 250.599 71.7301 249.186C72.3341 256.452 70.4284 263.856 71.6301 271.075C71.992 273.249 72.8746 276.146 74.5448 277.757C77.0178 280.14 77.5963 276.695 77.8201 274.791C78.2363 271.256 79.0097 267.74 79.5573 264.222C80.1044 260.705 80.4909 257.149 81.2518 253.669C81.5291 252.4 83.7662 243.108 85.408 243.548C85.0759 250.308 84.1937 256.951 84.159 263.736C84.1452 266.457 83.9005 269.331 84.2949 272.034C84.4978 273.425 85.7698 277.508 87.9575 277.167C89.9821 276.852 87.7563 273.977 87.5673 272.868C87.0666 269.933 87.7049 266.281 88.1717 263.368C89.0552 257.854 91.0262 252.208 94.2479 247.6C97.1333 243.475 101.576 239.547 106.928 240.275C109.215 240.586 110.999 241.151 112.148 243.231C113.05 244.863 116.601 246.718 114.543 248.761C112.669 250.621 109.639 249.132 107.556 248.689C105.007 248.146 102.274 248.799 100.141 250.287C96.4824 252.84 94.3972 257.404 93.7167 261.684C92.7993 267.456 95.2514 282.563 104.283 279.177C110.283 276.927 114.801 268.836 114.298 262.642C114.096 260.162 113.122 255.455 116.567 254.785C120.98 253.928 121.603 258.773 121.157 261.921C120.507 266.501 118.077 270.76 115.296 274.381C112.873 277.536 110.055 279.51 107.139 282.116C106.275 282.888 104.073 284.623 104.443 286.058C104.848 287.631 108.309 288.078 109.695 288.337C116.55 289.615 124.28 288.439 131.124 287.547C145.189 285.712 159.069 281.194 170.603 272.887C171.069 278.027 171.656 283.149 171.872 288.308C171.977 290.812 172.004 293.352 172.291 295.842C172.468 297.374 173.108 299.514 171.36 300.393ZM132.36 318.302C131.808 318.589 132.405 316.85 132.251 317.425C133.076 317.72 133.112 318.012 132.36 318.302ZM190.706 256.103C191.583 255.14 193.978 252.851 194.738 255.024C195.021 254.098 195.058 252.726 196.149 253.977C196.584 252.44 201.379 252.584 202.566 252.516C206.369 252.3 210.187 252.184 213.977 251.808C221.763 251.035 229.686 251.434 237.501 251.408C239.193 251.403 240.881 251.311 242.561 251.556C244.182 251.792 245.886 252.454 247.538 252.212C249.008 251.997 249.971 251.593 251.483 251.766C253.293 251.972 255.049 252.119 256.874 252.113C264.949 252.083 273.019 252.409 281.095 252.422C282.669 252.424 284.555 252.118 286.031 252.784C286.579 253.031 287.176 253.852 287.594 253.942C288.073 254.045 287.789 253.301 288.43 253.637C289.288 254.087 288.624 255.47 288.056 255.689C288.396 255.558 287.443 255.429 287.539 255.424C287.086 255.448 286.701 255.793 286.215 255.771C285.476 255.739 284.856 255.29 284.26 254.895C284.25 255.056 284.578 256.133 284.204 256.187C283.882 256.234 283.581 255.172 283.548 254.926C281.742 256.513 279.828 255.628 277.586 255.829C275.996 255.972 272.68 257.028 271.57 255.375C271.524 255.726 271.383 256.034 271.146 256.298C270.829 256.779 270.555 256.738 270.323 256.174C270.245 256.178 269.472 256.345 269.457 256.344C268.913 256.301 268.209 256.107 267.656 256.06C266.8 255.987 266.958 256.607 266.276 256.617C265.903 256.623 264.954 256.087 264.305 256.054C263.18 255.995 262.032 256.47 260.922 256.327C260.159 256.228 259.468 255.609 258.719 255.585C257.786 255.554 257.483 256.263 256.743 255.267C256.591 255.226 256.498 255.812 256.437 255.822C256.452 255.819 255.733 255.925 255.648 255.958C255.501 256.015 254.926 256.277 254.752 256.279C254.374 256.287 254.169 256.017 253.769 256.011C253.106 256 250.992 256.58 251.051 255.36C248.688 256.232 246.672 255.892 244.246 256.098C243.133 256.194 242.434 256.045 241.375 255.842C240.049 255.587 239.169 255.907 237.846 255.972C236.575 256.034 236.175 255.498 235.102 255.015C234.679 254.824 234.399 254.573 233.88 254.679C233.584 254.739 233.795 255.235 233.707 255.269C233.252 255.444 232.933 255.259 232.308 255.301C231.154 255.38 230.695 256.34 229.509 255.439C229.903 255.391 230.297 255.343 230.692 255.295C229.557 254.816 228.06 254.572 228.335 256.316C227.367 256.181 228.205 255.524 227.729 255.29C227.254 255.055 226.721 255.448 226.122 255.642C224.54 256.153 223.222 255.899 221.572 255.807C219.698 255.703 215.314 257.226 213.972 255.249C213.932 255.665 213.483 256.826 212.885 256.772C212.69 256.754 213.233 255.522 213.295 255.391C212.987 256.044 211.582 256.168 210.89 256.506C210.968 256.156 211.045 255.805 211.123 255.454C210.48 256.136 210.168 255.72 209.411 255.948C209.081 256.048 208.603 256.727 208.32 256.767C207.991 256.387 207.576 256.224 207.078 256.277C206.746 256.194 206.414 256.178 206.083 256.228C204.756 256.324 203.546 257.059 202.226 256.559C201.083 256.125 200.641 255.01 199.959 256.784C199.78 256.468 199.601 256.153 199.421 255.838C199.2 256.18 198.979 256.522 198.758 256.864C197.893 256.3 197.84 255.974 196.845 256.181C196.612 256.274 196.372 256.261 196.127 256.142C196.068 256.316 196.01 256.489 195.951 256.663C195.928 257.099 195.798 257.244 195.561 257.095C195.362 257.024 195.182 256.916 195.022 256.771C194.363 256.821 193.522 256.994 192.816 256.898C192.543 256.862 190.834 255.963 190.706 256.103ZM210.852 244.361C210.929 244.479 211.007 244.598 211.084 244.716C210.016 245.278 209.764 244.955 209.654 243.827C210.176 243.837 210.265 244.751 210.852 244.361ZM211.514 243.698C212.028 243.924 212.619 244.369 213.103 243.773C213.43 244.718 211.006 246.007 211.514 243.698ZM214.838 244.115C215.918 244.843 213.326 244.258 213.331 244.259C213.797 243.831 214.298 243.783 214.838 244.115ZM224.131 240.06C224.502 241.922 225.523 241.869 227.173 241.003C229.579 239.741 229.985 237.673 230.153 235.204C230.314 232.837 230.605 231.921 233.055 232.415C234.766 232.76 236.213 232.47 237.938 232.423C239.778 232.372 240.427 232.652 240.575 234.538C240.723 236.427 241.06 237.861 242.436 239.298C243.836 240.759 245.701 241.632 247.519 242.449C248.454 242.869 249.332 243.322 250.367 243.413C250.767 243.448 252.853 243.185 252.897 243.843C252.929 244.337 250.041 245.731 249.734 245.897C248.394 246.623 247.058 247.274 245.595 247.713C242.228 248.725 238.658 248.785 235.17 248.724C229.547 248.625 221.776 246.256 218.414 241.288C220.319 240.879 222.225 240.469 224.131 240.06ZM223.626 223.934C222.737 223.19 222.161 222.067 221.422 221.187C221.049 220.742 220.776 220.601 220.421 220.379C220.048 220.145 219.837 220.476 219.526 219.926C218.72 218.504 221.205 216.503 218.57 215.956C217.678 215.77 215.532 216.474 215.272 215.202C214.904 213.403 218.352 213.285 219.163 212.372C220.776 210.557 219.681 207.479 220.663 205.385C221.593 203.401 223.994 203.049 225.888 202.453C228.528 201.623 231.2 201.141 233.88 200.477C235.755 200.013 238.868 198.147 240.606 199.795C237.924 200.388 239.483 201.319 241.271 201.845C243.296 202.441 245.442 202.673 247.541 202.839C249.701 203.01 251.902 203.042 254.036 202.613C256.009 202.217 258.214 200.508 260.283 200.946C259.135 202.934 255.715 204.02 253.636 204.541C252.577 204.806 251.899 204.723 252.041 206.039C252.179 207.313 253.291 208.591 253.543 209.919C253.875 211.676 253.585 213.291 252.957 214.943C252.339 216.569 252.195 216.782 252.735 218.335C253.576 220.755 251.767 223.428 250.096 225.185C243.338 232.288 230.404 229.598 223.626 223.934ZM240.8 181.48C240.804 181.525 240.827 181.553 240.8 181.48V181.48ZM242.905 199.407C242.625 199.615 241.011 200.052 241.078 199.424C241.169 198.582 242.623 198.886 242.905 199.407ZM246.584 182.403C246.205 182.122 245.144 182.238 245.92 181.172C246.172 181.641 246.378 182.022 246.584 182.403ZM221.128 175.667C221.611 174.417 222.146 173.255 222.363 171.926C222.498 171.106 222.231 170.171 223.381 170.042C221.915 169.406 221.9 166.894 221.814 165.591C221.695 163.798 221.126 161.397 221.917 159.727C222.73 158.013 223.826 158.041 224.156 160.083C224.286 160.883 223.79 161.141 223.697 161.698C223.513 162.8 223.88 162.558 224.593 161.719C224.888 162.572 225.001 163.854 226.199 163.799C226.12 163.569 225.66 163.06 225.814 162.773C226.049 162.333 227.201 163.006 227.347 163.108C228.398 163.84 228.626 164.509 227.876 165.432C228.915 165.544 228.043 166.449 228.713 166.685C229.736 167.045 229.05 165.339 228.939 165.04C229.562 165.281 229.77 165.558 230.164 166.047C230.396 166.385 230.607 166.736 230.797 167.099C231.008 167.761 231.444 167.927 232.105 167.597C233.429 168.011 235.257 167.946 236.444 168.669C236.986 169 237.182 169.722 237.635 169.997C238.145 170.306 238.827 170.166 239.375 170.36C239.175 170.813 239.337 171.058 239.861 171.096C240.268 171.133 240.662 171.225 241.043 171.37C241.328 171.156 241.638 170.987 241.973 170.864C242.198 171.259 242.516 171.357 242.927 171.158C244.148 171.385 244.735 171.845 245.511 172.533C246.208 173.151 245.641 173.201 246.404 173.146C246.711 173.124 247.248 172.606 247.95 172.707C248.353 172.785 248.743 172.909 249.118 173.078C249.523 173.424 249.953 173.467 250.408 173.209C251.148 173.569 251.221 174.207 252.122 174.294C253.119 174.391 252.799 173.153 253.483 174.899C254.405 173.048 254.743 175.997 255.695 176.235C256.681 176.482 256.788 175.685 257.632 176.555C257.885 176.816 257.871 177.247 258.155 177.524C258.62 177.976 259.25 177.886 259.654 178.503C259.429 178.158 259.708 179.724 259.703 179.672C259.766 180.363 259.15 181.137 260.412 181.078C260.398 181.15 259.792 182.031 259.673 181.931C259.644 181.831 259.62 181.729 259.601 181.626C259.465 181.684 259.405 182.523 259.43 182.671C259.537 182.687 259.581 182.608 259.561 182.433C259.354 183.08 259.667 183.491 259.268 184.105C259.013 184.497 258.315 184.792 257.943 185.034C257.048 185.619 256.172 186.206 255.298 186.828C253.262 188.279 250.981 190.03 248.416 190.332C249.704 189.073 257.116 184.306 253.398 182.937C252.709 182.684 251.454 182.443 250.733 182.39C249.836 182.324 248.908 182.835 247.92 182.516C246.726 182.131 247.175 181.014 246.446 180.613C244.898 179.763 245.264 181.763 244.776 182.286C244.264 181.751 244.374 181.491 243.566 181.443C242.745 181.393 242.55 182.149 241.592 181.678C240.273 181.03 240.971 179.738 239.1 179.708C239.131 179.424 239.403 178.631 239.045 178.41C238.564 179.032 238.937 179.728 238.49 180.326C238.266 180.626 237.781 180.866 237.427 180.963C236.597 181.19 236.479 181.625 236.614 180.38C235.999 181.484 234.113 181.03 232.992 180.919C231.168 180.738 229.23 180.394 227.482 179.812C225.866 179.273 225.002 178.348 223.669 177.506C223.165 177.187 222.924 177.309 222.201 177.111C221.488 176.916 220.793 176.537 221.128 175.667ZM224.976 156.132C225.251 155.967 225.449 158.432 225.115 158.892C224.504 157.93 223.422 156.518 224.976 156.132ZM225.855 155.149C226.74 154.351 226.125 156.412 225.963 156.758C225.635 156.549 225.307 156.339 224.979 156.13C225.398 155.874 225.502 155.467 225.855 155.149ZM259.253 151.828C267.431 153.537 275.535 156.732 282.094 161.99C288.069 166.779 292.286 173.574 294.65 180.802C297.105 188.305 296.28 196.629 290.442 202.371C287.366 205.395 283.304 207.22 279.433 209C277.578 209.853 275.669 210.564 273.807 211.398C272.469 211.996 270.837 212.954 269.311 212.788C270.089 211.972 271.219 211.955 272.161 211.456C273.299 210.853 274.229 209.696 275.211 208.869C276.185 208.048 278.346 205.463 279.843 206.089C279.635 204.712 281.21 204.073 281.92 203.165C282.671 202.204 282.725 201.081 284.108 200.766C282.622 199.608 283.077 197.425 283.4 195.848C283.814 193.832 284.005 191.982 284.168 189.93C284.462 186.232 284.699 181.521 282.647 178.269C281.981 177.214 281.134 176.243 280.54 175.147C279.824 173.825 279.982 172.662 279.982 171.214C278.673 172.089 278.397 170.303 277.844 169.433C277.429 168.78 276.884 168.415 276.75 167.593C276.652 166.995 277.304 166.894 276.947 166.267C276.509 166.597 276.334 167.107 276.112 167.581C275.708 167.42 276.185 166.859 275.953 166.677C275.946 166.672 275.166 166.335 275.205 166.383C274.703 165.75 274.542 164.698 274.296 163.944C273.376 164.408 273.548 164.353 272.523 163.578C272.342 163.442 271.439 162.816 271.354 162.611C270.957 161.653 271.653 162.22 271.458 161.626C270.9 159.919 267.766 160.242 267.517 157.683C265.989 158.65 265.406 157.281 264.503 156.307C263.576 155.309 262.023 154.925 262.107 153.343C261.625 153.507 261.144 153.67 260.664 153.833C260.914 152.373 258.735 152.466 257.947 151.725C258.385 151.731 258.82 151.765 259.253 151.828ZM260.499 242.273C261.257 241.597 261.026 242.496 261.514 242.393C261.931 242.305 262.014 241.991 262.414 241.895C264.062 241.498 266.525 241.996 268.258 241.911C270.265 241.812 273.706 242.227 274.662 244.566C275.238 245.974 274.359 245.495 273.39 245.39C272.639 245.31 271.971 245.461 271.228 245.453C270.86 245.51 270.494 245.504 270.129 245.436C269.951 245.32 269.846 245.155 269.814 244.943C268.78 244.787 267.681 245.397 266.536 245.427C265.007 245.468 263.649 245.176 262.488 244.148C262.026 244.833 261.711 245.173 260.881 245.25C260.859 245.252 260.048 244.927 259.923 244.894C259.757 244.851 259.336 245.199 259.016 245.099C259.584 244.198 259.667 243.013 260.499 242.273ZM364.893 250.412C365.163 249.477 365.388 248.53 365.634 247.589C369.407 251.867 372.709 257.593 374.195 263.08C375.16 266.645 376.662 273.104 372.061 274.943C368.313 276.441 366.223 271.072 365.275 268.427C363.181 262.59 363.181 256.351 364.893 250.412ZM196.089 183.382C196.138 183.372 193.647 184.815 194.467 183.647C194.797 183.177 196.047 182.847 196.602 182.847L196.089 183.382ZM193.693 183.993C193.405 184.235 193.114 184.473 192.82 184.709C192.538 184.265 192.256 183.821 191.974 183.377C192.53 183.144 194.89 182.968 193.693 183.993ZM191.938 228.852C191.416 228.501 191.003 228.687 190.847 229.278C190.847 228.69 191.154 227.326 191.625 227.167C191.93 227.064 190.612 225.51 190.983 225.104C191.925 225.641 191.361 226.156 191.637 226.851C191.761 227.164 192.136 227.46 192.218 227.701C192.357 228.109 192.919 229.513 191.938 228.852ZM189.384 225.356C188.85 225.492 189.785 226.37 189.784 226.758C189.783 227.051 189.43 227.276 189.284 227.677C188.968 228.547 189.512 229.134 188.616 229.798C188.616 227.892 187.332 222.844 189.799 221.915C188.596 220.971 189.584 219.882 190.527 221.011C191.434 222.098 190.857 224.981 189.384 225.356ZM188.099 217.837C187.614 216.125 186.154 215.526 184.486 215.627C184.55 214.75 185.217 213.486 185.699 215.066C185.897 214.599 186.034 213.99 186.486 213.68C187.247 216.056 191.04 217.369 188.678 219.943C188.485 219.241 188.297 218.538 188.099 217.837ZM183.691 215.755C174.907 216.389 162.574 218.204 155.545 211.499C150.962 207.126 151.206 200.317 154.91 195.459C157.024 192.687 159.909 190.735 162.807 188.875C163.925 188.157 164.873 187.683 166.101 187.271C166.299 187.25 166.486 187.294 166.661 187.404C166.73 187.108 166.897 186.89 167.163 186.747C167.637 186.494 168.312 186.404 168.586 185.879C168.294 186.865 168.144 187.879 168.037 188.898C167.8 188.624 167.564 188.35 167.328 188.075C167.13 189.932 165.188 188.808 164.029 189.04C164.793 190.093 165.339 190.475 165.404 191.867C164.836 190.82 163.646 190.133 162.54 189.796C163.141 191.565 163.565 192.615 162.96 194.556C162.23 194.14 162.181 193.143 161.295 192.903C161.061 194.061 161.019 195.344 160.72 196.467C158.451 195.437 158.672 198.212 159.583 199.586C160.068 200.317 160.306 201.163 160.738 201.864C161.798 203.585 160.993 201.012 162.171 201.134C161.907 202.949 161.815 203.129 163.148 204.458C164.45 205.754 165.125 207.552 166.517 208.77C166.92 208.257 166.286 207.72 166.23 207.229C167.526 207.445 168.132 208.739 169.377 207.593C169.92 208.647 170.508 209.808 171.809 210.024C170.949 208.397 173.46 209.501 174.103 209.732C174.592 209.907 175.467 210.046 175.655 210.114C176.716 210.495 175.989 209.81 176.632 211.061C177.578 210.777 177.935 209.996 179.065 210.656C179.985 211.193 179.987 212.112 180.197 213.054C180.416 212.438 180.637 211.822 180.879 211.214C181.126 211.318 182.161 212.452 182.049 212.458C184.471 212.339 184.386 213.838 183.691 215.755ZM171.357 185.041C171.844 184.701 172.438 185.154 172.984 185.032C173.74 184.864 174.17 184.219 175.015 184.149C174.78 184.898 174.338 184.827 173.965 185.415C173.838 185.615 173.904 186.096 173.791 186.211C172.844 187.177 172.517 186.389 171.551 185.658C171.635 186.539 171.805 186.818 170.971 187.054C170.216 187.269 168.97 186.479 168.589 185.874C168.91 185.234 170.775 185.448 171.357 185.041ZM177.385 183.663C178.205 183.741 177.217 186.151 176.041 183.813C176.484 183.717 176.932 183.667 177.385 183.663ZM181.602 183.197C182.896 182.934 187.21 181.71 187.691 183.715C187.777 183.665 188.098 182.533 188.247 182.671C188.844 183.225 188.911 183.958 188.866 184.727C188.143 183.229 188.4 184.545 187.911 184.442C187.783 184.415 187.588 184.653 187.264 184.555C186.84 184.426 186.536 183.527 186.268 183.222C185.822 183.856 185.269 184.673 184.376 184.618C183.744 184.579 182.726 182.958 183.544 184.732C183.064 184.574 182.507 184.216 181.972 184.288C181.373 184.369 181.061 184.958 180.499 185.053C179.253 185.263 179.066 184.07 178.257 183.421C179.372 183.357 180.501 183.421 181.602 183.197ZM189.428 183.178C189.519 182.767 190.651 182.601 190.939 182.731C191.643 183.049 191.383 183.469 191.254 184.168C190.732 183.922 190.21 183.677 189.688 183.431C190.467 184.68 189.055 184.862 189.428 183.178ZM408.537 256.377C408.445 253.382 408.358 250.335 407.595 247.42C407.062 245.379 405.751 241.72 403.272 241.366C399.534 240.832 397.464 248.191 396.416 250.717C396.207 247.743 396.39 244.577 395.262 241.755C394.359 239.493 392.078 237.35 390.113 239.891C388.365 242.151 388.029 245.489 387.569 248.208C386.972 251.733 386.614 255.285 386.179 258.83C384.471 255.544 384.173 251.782 382.823 248.367C381.55 245.144 379.546 242.065 377.615 239.199C376.039 236.857 374.121 234.655 371.652 233.224C369.502 231.978 365.743 230.63 363.694 232.7C361.985 234.426 362.252 236.736 362.341 238.915C362.381 239.885 362.534 240.55 361.677 241.039C361.256 241.279 360.598 241.155 360.136 241.284C359.39 241.491 358.819 241.842 358.188 242.309C353.767 245.582 351.729 251.479 351.099 256.737C350.3 263.399 352.908 269.11 355.152 275.206C355.509 276.177 356.645 278.238 356.488 279.323C356.316 280.511 354.819 280.542 353.808 280.566C350.756 280.641 347.566 280.415 344.53 280.132C337.3 279.458 330.076 275.991 323.603 272.897C322.422 272.332 320.751 272.009 319.787 271.119C318.88 270.283 318.642 268.944 317.859 267.985C315.939 265.632 314.716 263.624 311.889 262.202C309.01 260.755 306.073 259.417 303.264 257.832C299.79 255.871 296.581 253.386 293.252 251.19C287.066 247.11 280.922 242.637 274.363 239.168C271.316 237.555 267.91 237.294 264.746 235.974C261.665 234.688 257.883 234.687 254.668 235.498C253.101 235.894 252.036 236.832 250.595 237.444C248.907 238.161 247.53 237.37 246.044 236.513C243.775 235.205 241.525 233.074 244.757 231.663C245.853 231.184 247.227 231.002 248.185 230.25C249.206 229.447 250.025 227.968 250.856 226.963C252.701 224.729 253.803 222.158 256.505 220.769C259.492 219.233 263.033 218.815 266.218 217.811C269.668 216.723 273.048 215.43 276.434 214.16C282.536 211.873 288.879 209.403 293.264 204.368C297.046 200.024 298.694 194.417 298.541 188.722C298.229 177.079 291.967 165.263 282.982 157.984C271.965 149.058 257.95 146.081 244.034 146.237C237.502 146.311 229.708 147.162 224.259 151.114C219.551 154.528 218.768 160.498 219.469 165.888C219.753 168.075 220.724 170.961 219.175 172.889C218.308 173.967 216.752 174.234 215.585 174.906C214.117 175.751 212.824 176.56 211.162 177.007C204.102 178.906 196.667 178.245 189.449 178.14C177.426 177.964 165.101 181.207 156.132 189.645C148.888 196.458 146.716 209.306 155.55 215.949C162.688 221.315 173.883 220.724 182.299 219.788C184.908 219.498 186.703 219.076 186.709 222.256C186.715 225.729 186.138 229.36 187.028 232.77C188.429 238.141 193.611 238.269 198.192 237.112C200.609 236.502 202.946 235.584 205.241 234.623C208.608 233.214 211.695 231.141 215.02 229.734C217.274 228.781 218.962 231.865 220.961 229.727C221.33 229.332 221.399 228.743 221.956 228.541C222.829 228.224 224.294 229.334 225.06 229.686C226.207 230.212 227.363 230.598 227.821 231.865C228.25 233.049 228.062 234.933 227.651 236.102C226.759 238.642 224.357 238.14 222.163 237.97C218.338 237.673 214.538 237.045 210.714 236.781C207.283 236.544 204.07 237.565 201.111 239.25C194.895 242.789 189.81 248.418 184.421 253.048C181.647 255.43 178.966 258.004 175.949 260.078C174.638 260.981 173.217 261.81 172.078 262.931C170.947 264.043 170.822 265.054 170.435 266.534C169.746 269.169 166.325 270.457 164.186 271.847C161.162 273.813 157.956 275.2 154.566 276.406C147.385 278.96 140.149 280.744 132.643 282.062C128.967 282.708 125.323 283.132 121.612 283.481C118.413 283.781 115.011 284.762 111.816 283.979C112.737 282.492 114.367 281.599 115.637 280.45C117.274 278.969 118.667 277.214 119.906 275.395C122.318 271.854 124.009 268.054 124.398 263.759C124.748 259.893 124.347 255.269 122.004 252.003C121.195 250.875 119.595 250.568 118.871 249.552C118.151 248.542 118.425 246.803 118.031 245.625C117.028 242.629 114.05 238.917 111.429 237.177C108.586 235.289 104.427 234.595 101.143 235.579C95.0581 237.402 91.3207 243.878 88.5365 249.112C87.0155 245.925 89.5625 241.196 86.5914 238.586C84.0854 236.384 82.0964 240.649 81.2581 242.474C77.3236 251.04 76.4301 260.126 74.7816 269.291C74.1098 268.632 74.4541 266.939 74.5172 266.152C74.6348 264.688 74.6239 263.251 74.6268 261.781C74.6348 258.066 75.3283 254.333 75.0104 250.621C74.8268 248.476 74.1399 243.951 71.0098 244.664C68.3553 245.269 66.6925 248.987 65.8585 251.26C64.6554 254.538 64.3777 257.784 64.4526 261.247C64.5354 265.073 63.8034 268.837 63.626 272.658C63.2813 280.081 63.6218 287.439 65.7602 294.602C69.2617 306.333 77.3127 316.079 88.0579 321.965C93.9781 325.208 100.546 327.259 107.298 327.701C110.958 327.94 114.49 327.506 118.118 327.129C121.698 326.757 125.297 326.585 128.871 326.149C136.831 325.177 144.586 322.667 151.821 319.29C155.629 317.512 159.21 315.33 162.956 313.435C164.459 312.675 165.474 311.723 166.757 310.666C168.028 309.618 168.381 309.536 169.827 309.536C169.403 308.406 170.641 308.057 171.192 307.342C171.161 307.689 171.13 308.036 171.099 308.382C171.519 307.475 171.91 307.484 172.272 308.409C172.629 307.373 172.894 306.308 173.326 305.299C174.977 306.131 174.838 308.109 177.046 306.665C178.864 305.476 180.536 304.074 182.389 302.909C186.612 300.254 190.252 296.801 194.487 294.176C194.487 296.732 194.668 299.31 194.325 301.852C193.998 304.27 193.092 306.53 192.371 308.844C191.042 313.115 190.95 317.678 189.477 321.906C188.868 323.656 187.28 325.12 186.825 326.825C186.361 328.563 187.433 329.956 185.636 331.098C184.37 331.903 182.786 332.242 181.384 332.729C179.244 333.472 177.213 334.52 175.13 335.409C165.361 339.578 155.833 343.824 146.782 349.429C138.193 354.749 129.472 360.242 121.582 366.56C114.734 372.043 107.811 379.132 106.144 388.076C104.527 396.751 108.836 406.063 117.49 408.92C121.99 410.406 127.077 410.222 131.762 410.286C136.805 410.356 142.148 409.146 147.105 408.27C152.34 407.345 157.486 405.898 162.736 405.072C167.774 404.279 172.394 402.508 177.349 401.417C182.627 400.254 188.04 399.623 193.347 398.578C195.736 398.107 198.077 397.412 200.472 396.977C203.095 396.499 205.747 396.32 208.344 395.689C213.382 394.462 218.205 392.486 223.265 391.345C225.539 390.832 227.779 390.145 230.055 389.665C232.15 389.224 233.782 388.051 235.882 389.014C237.578 389.793 238.932 391.127 240.537 392.056C242.619 393.262 244.815 394.342 246.985 395.379C251.347 397.464 255.871 398.905 260.432 400.47C265.223 402.114 269.927 403.989 274.891 405.075C279.979 406.188 285.169 406.497 290.293 407.378C300.785 409.181 311.189 409.99 321.839 410.055C327.223 410.089 332.606 409.453 337.977 409.529C342.731 409.595 346.865 410.663 351.213 408.145C358.16 404.122 366.218 398.063 366.047 389.262C365.892 381.291 361.091 373.675 356.588 367.388C351.119 359.753 343.322 354.376 335.68 349.109C327.535 343.497 318.387 339.619 309.827 334.719C305.449 332.214 301.412 329.518 296.658 327.737C294.389 326.888 292.175 325.902 289.933 324.987C288.128 324.251 285.523 323.844 283.978 322.623C283.015 321.861 282.922 320.707 282.668 319.573C282.104 317.066 281.219 314.687 280.36 312.269C278.703 307.599 277.602 302.843 276.889 297.945C276.21 293.276 274.703 288.42 275.484 283.675C280.618 288.621 285.893 293.376 291.146 298.191C293.115 299.996 295.047 301.838 297.026 303.631C298.511 304.978 300.369 306.978 302.44 307.377C305.085 307.888 304.119 304.974 305.935 304.523C307.045 304.247 310.392 307.055 311.269 307.61C316.831 311.127 322.99 313.355 329.107 315.749C335.521 318.259 342.118 320.488 349.021 321.12C355.396 321.705 361.916 320.955 368.069 319.225C380.322 315.78 389.338 307.605 395.955 297.009C403.495 284.935 408.981 270.79 408.537 256.377Z" fill="black"/>
<path fill-rule="evenodd" clip-rule="evenodd" d="M221.271 230.055C221.269 230.058 221.25 230.098 221.25 230.098C221.273 230.082 221.28 230.068 221.271 230.055Z" fill="black"/>
<path fill-rule="evenodd" clip-rule="evenodd" d="M221.863 230.211C221.817 229.826 221.717 229.45 221.565 229.081C221.16 229.722 220.797 229.996 221.33 230.674C221.507 230.52 221.685 230.366 221.863 230.211Z" fill="black"/>
<path fill-rule="evenodd" clip-rule="evenodd" d="M250.116 321.748C250.57 321.267 249.776 321.086 249.475 321.079C249.505 321.595 249.248 322.831 249.957 323.071C249.787 322.604 249.84 322.163 250.116 321.748Z" fill="black"/>
<path fill-rule="evenodd" clip-rule="evenodd" d="M238.148 221.133C237.368 222.632 239.091 223.098 240.088 222.373C240.839 221.828 241.282 220.44 241.405 219.549C241.804 216.666 239.779 213.922 238.769 211.364C238.508 210.703 238.15 208.435 237.31 208.373C236.344 208.301 236.273 210.39 236.26 210.929C236.223 212.554 236.655 214.209 237.161 215.743C237.707 217.396 239.059 219.381 238.148 221.133Z" fill="black"/>
<path fill-rule="evenodd" clip-rule="evenodd" d="M241.855 215.118C244.853 217.777 247.251 213.349 247.041 210.73C246.989 210.081 246.549 207.689 245.314 208.56C244.693 208.997 245.222 210.418 244.926 211.042C243.493 214.068 242.112 209.375 241.147 209.006C239.972 208.558 239.854 210.095 239.855 210.916C239.858 212.547 240.638 214.038 241.855 215.118Z" fill="black"/>
<path fill-rule="evenodd" clip-rule="evenodd" d="M230.976 215.531C231.682 214.423 232.55 212.938 232.646 211.612C232.795 209.549 231.589 209.722 230.595 211.16C229.894 212.177 229.368 213.9 227.82 213.472C225.908 212.944 226.492 210.384 225.422 209.167C222.72 212.782 227.834 220.458 230.976 215.531Z" fill="black"/>
<path fill-rule="evenodd" clip-rule="evenodd" d="M235.026 226.593C236.144 226.834 239.059 226.745 238.049 225.04C236.775 222.893 232.54 226.057 235.026 226.593Z" fill="black"/>
<path fill-rule="evenodd" clip-rule="evenodd" d="M274.178 162.571C274.382 161.964 274.101 161.854 273.613 161.376C273.151 161.801 273.743 162.247 274.178 162.571Z" fill="black"/>
<path fill-rule="evenodd" clip-rule="evenodd" d="M295.025 272.471C295.763 272.587 296 272.199 295.737 271.305C294.573 271.23 294.336 271.618 295.025 272.471Z" fill="black"/>
<path fill-rule="evenodd" clip-rule="evenodd" d="M254.763 178.721C255.576 179.091 255.265 179.851 255.251 180.493C255.67 180.04 256.517 179.211 256.172 178.56C255.641 177.555 254.253 178.489 254.763 178.721Z" fill="black"/>
<path fill-rule="evenodd" clip-rule="evenodd" d="M227.061 166.082C226.937 165.841 226.813 165.6 226.689 165.359C226.184 165.763 225.404 166.831 226.207 167.351C226.536 166.953 226.821 166.53 227.061 166.082Z" fill="black"/>
<path fill-rule="evenodd" clip-rule="evenodd" d="M236.819 173.167C237.831 173.957 237.346 171.531 237.315 171.333C237.165 171.618 236.308 172.767 236.819 173.167Z" fill="black"/>
<path fill-rule="evenodd" clip-rule="evenodd" d="M236.259 171.935C236.182 171.734 236.104 171.534 236.027 171.333C235.616 171.711 235.114 172.484 235.791 172.926C235.977 172.616 236.133 172.286 236.259 171.935Z" fill="black"/>
<path fill-rule="evenodd" clip-rule="evenodd" d="M242.684 180.264C242.767 180.34 242.85 180.416 242.932 180.493C243.266 179.822 242.886 179.318 242.256 179.298C242.301 179.674 242.443 179.997 242.684 180.264Z" fill="black"/>
<path fill-rule="evenodd" clip-rule="evenodd" d="M215.57 255.698C215.972 255.426 216.336 255.115 216.664 254.767C215.476 254.044 216.188 255.611 214.757 254.649C214.449 255.073 214.953 256.022 215.57 255.698Z" fill="black"/>
<path fill-rule="evenodd" clip-rule="evenodd" d="M265.49 321.477C265.942 320.787 266.023 320.806 265.406 320.282C264.891 321.136 264.945 320.916 265.49 321.477Z" fill="black"/>
<path fill-rule="evenodd" clip-rule="evenodd" d="M171.076 211.588C171.322 211.843 171.568 212.099 171.814 212.354C171.929 212.02 172.555 211.075 172.13 210.761C171.779 211.036 171.427 211.312 171.076 211.588Z" fill="black"/>
<path fill-rule="evenodd" clip-rule="evenodd" d="M179.825 214.115C179.432 214.05 178.493 213.763 178.275 214.129C178.85 214.6 180.147 214.17 179.825 214.115Z" fill="black"/>
</svg>
