<svg width="444" height="333" viewBox="0 0 444 333" fill="none" xmlns="http://www.w3.org/2000/svg">
<path fill-rule="evenodd" clip-rule="evenodd" d="M131.488 182.575C133.546 198.008 135.604 213.44 137.661 228.873L139.323 241.335C139.533 242.908 139.335 246.01 140.134 247.417C140.416 247.914 141.158 248.15 141.703 248.442C143.581 249.451 145.459 250.459 147.336 251.467C163.219 259.994 179.101 268.521 194.983 277.048C210.225 285.231 225.468 293.415 240.71 301.598C242.288 302.445 244.839 304.655 246.542 304.073C248.16 303.519 249.814 302.154 251.284 301.294C254.105 299.64 256.925 297.987 259.746 296.334C276.815 286.331 293.883 276.328 310.952 266.325C317.995 262.198 325.037 258.071 332.079 253.943C334.006 252.814 335.933 251.685 337.86 250.556C338.867 249.965 338.998 249.986 339.395 248.984C340.878 245.236 341.565 240.943 342.614 237.055C343.771 232.769 344.927 228.484 346.083 224.199C346.599 222.287 346.357 222.04 345.516 220.194C343.852 216.541 342.188 212.888 340.523 209.235C336.83 201.127 333.136 193.018 329.442 184.91C327.948 181.631 324.35 179.324 321.76 176.912L281.541 139.468C280.52 138.516 279.498 137.566 278.477 136.614C278.308 142.331 277.179 148.476 278.836 153.998C281.555 163.061 284.273 172.123 286.992 181.186C288.306 185.567 289.62 189.947 290.934 194.327C291.178 195.141 292.665 198.368 292.267 199.084C292.047 199.481 290.17 199.882 289.763 200.036C288.016 200.701 286.269 201.366 284.522 202.031C279.654 203.882 274.787 205.734 269.919 207.586C265.541 209.252 261.163 210.917 256.785 212.582C255.301 213.147 253.557 214.193 251.989 214.106C250.587 214.028 248.992 213.334 247.635 212.984C245.249 212.37 242.862 211.755 240.476 211.14C235.789 209.933 231.101 208.726 226.414 207.519C221.141 206.16 216.687 202.171 212.177 199.218C204.426 194.142 196.674 189.067 188.923 183.991C187.148 182.829 187.141 182.166 186.434 180.045C184.845 175.277 183.255 170.509 181.666 165.741C180.818 163.196 179.774 160.639 179.133 158.033C178.076 153.732 177.449 149.279 176.612 144.93C176.36 143.618 176.107 142.306 175.854 140.994C172.608 142.311 169.362 143.629 166.115 144.946C165.645 145.137 163.352 145.706 163.148 146.174C163.019 146.47 163.701 147.812 163.798 148.1C166.49 156.073 169.182 164.045 171.874 172.017C172.721 174.525 173.567 177.032 174.414 179.54C172.391 176.361 170.367 173.181 168.344 170.001C166.754 175.348 165.164 180.696 163.574 186.044C159.817 181.708 156.059 177.372 152.301 173.036C151 177.372 149.699 181.708 148.398 186.044C144.352 180.696 140.305 175.348 136.258 170.001C135.777 172.792 135.296 175.582 134.814 178.373C134.669 179.215 134.698 181.632 134.138 182.299C133.676 182.847 132.346 182.575 131.488 182.575Z" fill="#FFAEAD"/>
<path fill-rule="evenodd" clip-rule="evenodd" d="M387.714 215.935C387.486 223.199 387.644 232.629 383.669 239.017C383.027 240.047 380.853 243.258 380.611 240.434C380.372 237.66 381.055 234.914 380.379 232.109C380.017 230.608 378.801 227.329 376.722 228.685C375.663 229.376 375.384 231.082 374.969 232.159C374.356 233.752 373.669 235.321 373.023 236.902C370.769 242.422 368.433 249.01 363.421 252.663C364.077 247.903 365.864 242.82 364.663 238.009C364.253 236.369 363.012 233.374 360.876 234.335C358.794 235.271 357.444 239.449 356.462 241.309C353.483 246.948 350.436 252.482 347.082 257.911C345.395 260.642 343.573 263.137 341.366 265.473C339.985 266.934 338.264 269.404 336.089 269.621C336.089 265.458 337.459 261.435 338.71 257.514C340.056 253.298 341.282 249.045 342.603 244.821C343.749 241.157 344.689 237.521 345.452 233.763C345.768 232.209 346.018 230.6 347.342 229.596C348.533 228.695 350.414 228.265 351.741 227.602C355.228 225.861 358.813 223.981 362.051 221.816C363.381 220.928 364.526 219.779 365.918 218.982C367.505 218.074 368.986 217.309 370.454 216.202C376.787 211.425 382.496 205.549 386.343 198.555C386.967 201.365 387.794 204.111 387.886 207.007C387.979 209.978 387.807 212.966 387.714 215.935ZM335.592 249.325C334.579 247.615 333.036 248.316 331.676 249.14C329.567 250.42 327.451 251.69 325.33 252.954C321.015 255.525 316.779 258.23 312.563 260.96C303.98 266.516 295.098 271.063 286.049 275.766C277.303 280.31 268.903 285.719 260.709 291.185C258.74 292.499 256.784 293.844 254.893 295.268C253.215 296.533 251.873 298.309 250.106 299.435C248.266 300.608 247.001 299.656 245.241 298.792C243.04 297.711 240.746 296.804 238.496 295.829C229.417 291.893 220.312 287.807 211.48 283.339C202.702 278.899 194.384 273.783 185.973 268.702C181.967 266.282 178.029 263.709 174.078 261.2C169.873 258.53 165.519 256.53 161.108 254.26C159.157 253.256 157.428 251.892 155.424 250.979C153.316 250.02 151.09 249.331 149.203 247.947C148.357 247.326 147.644 246.584 146.677 246.145C145.883 245.784 144.982 245.723 144.198 245.341C142.603 244.562 142.147 242.981 141.838 241.338C139.852 230.785 138.796 219.941 137.645 209.271C136.998 203.271 136.276 197.294 135.382 191.326C134.978 188.635 135.789 186.55 136.215 183.932C136.712 180.875 136.908 177.754 137.241 174.676C138.813 177.587 140.172 180.642 142.171 183.299C143.645 185.256 146.162 188.033 148.876 187.967C153.094 187.865 152.901 180.631 153.071 177.759C154.992 179.474 155.575 182.267 157.17 184.259C158.626 186.078 160.607 188.334 162.843 189.149C167.551 190.863 167.098 182.124 166.839 179.646C166.709 178.403 166.007 176.436 167.673 177.003C169.206 177.525 170.699 179.689 171.988 180.681C174.216 182.398 176.66 183.824 178.946 185.462C181.782 187.494 184.842 188.963 187.734 190.857C189.543 192.041 191.516 192.306 193.487 193.177C196.376 194.453 198.927 196.355 201.677 197.885C207.121 200.912 213.161 203.628 219.117 205.453C221.044 206.044 223.611 207.709 225.073 205.998C225.973 204.945 226.565 203.337 227.329 202.156C228.295 200.662 229.321 199.208 230.387 197.782C234.176 192.718 238.381 187.935 243.05 183.663C248.482 178.694 254.423 174.222 260.776 170.497C263.506 168.897 274.906 161.724 277.411 166.772C275.352 166.644 273.568 167.397 271.807 168.34C271.377 168.57 269.161 170.153 269.679 168.758C269.036 168.879 268.471 169.718 267.984 170.091C267.141 170.736 265.863 171.481 264.888 172.016C263.924 172.543 262.732 172.672 261.853 173.312C261.532 173.546 261.338 173.925 261.031 174.178L260.154 174.185C260.022 174.671 259.891 175.157 259.76 175.643C259.264 174.053 258.556 176.12 257.727 176.792C257.229 177.196 256.441 177.612 255.854 177.872C255.416 178.067 255.348 177.614 254.922 177.958C254.544 178.264 254.303 178.937 253.896 179.321C253.397 179.79 252.758 180.155 252.202 180.555C251.136 181.323 250.009 181.925 248.929 182.653C247.477 183.632 246.715 185.316 245.305 186.339C244.637 186.824 243.599 186.881 243.238 187.191C242.331 187.971 242.63 189.152 240.939 189.204C241.093 189.45 241.185 189.717 241.217 190.006C240.814 189.936 240.456 189.77 240.142 189.505C240.212 191.191 238.554 191.794 237.56 192.832C236.986 193.43 236.272 194.272 235.868 194.992C235.801 195.113 235.673 196.074 235.645 196.087C235.491 196.161 234.557 195.34 234.646 195.408C234.385 196.967 232.877 198.44 232.217 199.883C231.869 200.643 231.515 201.865 230.83 202.399C230.643 202.544 230.07 202.393 229.596 202.898C229.248 203.268 228.847 203.953 228.706 204.444C228.612 204.772 228.725 205.621 228.59 205.818C228.342 206.178 227.956 205.816 227.567 206.083C226.849 206.574 226.831 207.343 225.78 207.444C226.504 209.203 230.877 209.746 232.466 210.246C236.96 211.66 241.675 213.073 245.876 215.239C246.963 215.799 247.991 216.261 248.183 217.552C248.452 219.348 247.536 221.736 247.362 223.55C246.888 228.45 246.792 233.493 246.891 238.413C246.984 243.073 247.135 247.777 247.352 252.432C247.554 256.748 248.424 260.978 248.893 265.263C249.022 266.439 248.936 271.743 250.959 271.476C252.647 271.253 251.581 267.63 251.549 266.592C251.479 264.293 251.962 261.947 251.942 259.628C251.932 258.513 252.42 257.553 252.467 256.486C252.513 255.432 251.989 254.599 252.146 253.507C252.297 252.458 255.396 246.428 252.42 247.134C252.594 246.272 252.747 245.403 252.977 244.553C253.295 244.839 253.552 245.174 253.745 245.555C254.01 243.703 253.922 241.854 254.086 240.001C254.16 239.161 254.5 238.241 254.384 237.395C254.406 237.044 254.361 236.7 254.25 236.363C254.067 236.169 253.841 236.067 253.571 236.057C253.43 235.593 253.393 235.466 253.645 235.011C253.753 234.703 253.967 234.51 254.287 234.434C254.898 234.362 254.968 234.011 254.496 233.382C254.742 232.14 254.774 231.356 254.596 230.117C254.447 229.076 254.996 227.06 254.437 226.133C253.784 225.049 253.46 226.1 253.339 224.598C253.313 224.281 253.292 223.618 253.42 223.301C253.56 222.956 253.981 223.097 254.035 222.975C254.4 222.14 254.424 220.497 253.131 220.639C253.182 220.043 253.232 219.447 253.283 218.851C254.217 219.926 253.891 219.016 254.42 218.418C255.134 217.612 255.832 217.474 256.852 217.155C259.572 216.307 262.191 215.031 264.848 213.995C270.475 211.803 276.205 209.845 281.667 207.254C293.154 201.803 304.413 195.888 315.971 190.581C315.145 189.048 315.659 188.974 316.262 187.535C317.068 188.095 316.898 187.704 317.471 187.67C317.419 187.19 317.569 187.045 317.919 187.236C318.198 187.321 318.483 187.351 318.777 187.326C319.492 187.449 320.077 187.843 320.727 187.992C320.94 188.15 321.175 188.268 321.431 188.347C321.66 188.294 321.856 188.181 322.019 188.006C323.071 188.201 323.426 188.994 323.472 190.142C323.48 190.342 322.869 190.547 323.044 190.815C323.35 191.284 324.173 191.172 324.644 191.232C324.54 191.719 324.437 192.206 324.334 192.693C326.4 191.74 325.862 194.724 326.488 195.705C326.663 195.978 327.052 195.76 327.254 196.077C327.518 196.49 327.439 197.076 327.664 197.488C328.172 198.42 328.681 198.307 329.188 199.374C331.837 204.945 335.361 210.135 337.903 215.826C339.114 218.535 340.206 221.29 341.47 223.975C342.633 226.446 343.297 228.547 342.468 231.245C340.546 237.505 338.49 243.879 335.97 249.925C335.844 249.725 335.718 249.525 335.592 249.325ZM201.485 296.05C201.304 296.357 201.124 296.664 200.944 296.972C200.543 294.667 201.61 295.736 201.485 296.05ZM193.004 291.735C192.426 291.562 192.676 290.618 192.695 290.215C193.06 290.67 193.419 291.135 193.723 291.635C193.484 291.668 193.244 291.702 193.004 291.735ZM169.763 282.876C170.37 282.536 170.806 282.291 171.494 281.905C170.795 283.268 170.795 283.268 169.763 282.876ZM133.198 162.798C132.271 165.074 135.098 179.13 132.466 179.588C132.088 178.355 132.041 174.958 130.478 174.553C128.538 174.049 128.729 177.546 128.464 178.627C124.483 175.857 122.714 170.508 120.812 166.268C118.387 160.864 116.48 155.243 114.658 149.613C113.1 144.798 111.811 139.899 110.237 135.093C109.248 132.074 108.182 129.048 107.517 125.937C107.372 125.261 106.804 123.547 107.287 122.904C107.989 121.97 110.516 123.04 111.33 123.285C116.613 124.875 122.092 125.559 127.52 126.483C133.55 127.508 139.566 128.568 145.633 129.363C147.148 129.562 148.665 129.75 150.183 129.933C151.167 130.052 152.657 129.933 153.592 130.375C155.484 131.267 155.887 134.684 156.59 136.457C159.211 143.07 162.297 149.474 165.058 156.027C167.545 161.931 169.43 168.211 173.005 173.587C170.339 172.405 166.96 166.156 163.981 169.757C162.7 171.306 163.023 173.347 163.126 175.2C163.274 177.88 163.32 180.579 163.32 183.263C160.405 182.506 158.446 179.196 156.915 176.852C154.824 173.65 153.508 170.632 152.582 166.962C152.181 165.372 151.118 165.333 150.173 164.381C149.566 163.77 149.261 162.946 148.39 163.835C147.295 164.953 148.023 168.049 148.213 169.368C148.661 172.509 150.133 177.342 148.702 180.293C146.771 184.276 141.596 174.255 140.99 172.808C140.682 172.071 135.176 157.942 133.198 162.798ZM129.583 94.5458C129.909 94.5957 130.234 94.6456 130.56 94.6954C130.298 94.9274 129.751 95.7408 129.304 95.5258C129.397 95.1993 129.49 94.8728 129.583 94.5458ZM146.853 90.8399C146.751 90.9522 146.648 91.0641 146.546 91.1764C146.078 90.5919 146.244 89.7399 146.244 89.0639C146.862 89.4372 147.013 90.1839 146.853 90.8399ZM148.248 97.3247V99.2352C146.954 98.6741 146.928 98.3844 148.248 97.3247ZM149.821 99.7537C148.914 99.5048 148.805 99.3041 148.933 97.9101C149.309 98.691 149.556 99.2057 149.821 99.7537ZM155.042 113.902C154.662 114.88 152.44 112.549 152.521 111.851C152.599 111.186 152.94 110.987 153.411 111.415C153.567 111.557 153.335 112.069 153.435 112.247C153.793 112.89 154.516 113.417 155.042 113.902ZM155.067 119.795C154.51 121.185 153.518 118.996 154.972 118.936C155.068 119.216 155.099 119.502 155.067 119.795ZM153.987 117.603C153.771 117.316 153.562 117.025 153.358 116.728C154.108 116.879 154.703 117.971 155.493 117.243C155.399 118.354 154.61 118.384 153.987 117.603ZM105.535 99.5469C104.33 98.2318 112.187 97.3087 113.135 97.0828C120.013 95.4425 126.508 93.069 132.939 90.1566C136.007 88.7673 139.06 87.3612 142.056 85.8211C143.35 85.1564 145.123 84.5927 146.204 83.5946C146.975 82.8822 146.944 82.3432 147.947 81.9187C148.798 81.5593 148.84 81.8988 149.23 81.2484C149.464 80.8582 149.729 79.4282 149.592 79.005C149.219 77.8503 148.667 78.7864 147.892 77.9908C147.334 77.4172 147.469 75.786 147.622 75.1104C147.819 75.4322 147.933 75.7816 147.963 76.158C148.804 75.7435 148.465 74.32 149.385 74.0867C150.354 73.8413 150.253 74.5962 150.506 75.368C151.239 74.2927 150.651 73.3756 150.255 72.3255C152.27 71.9482 154.435 71.5827 156.432 72.2531C157.876 72.7374 159.113 73.9285 160.638 74.1587C162.131 74.3837 162.418 73.6757 163.519 72.9572C164.412 72.374 165.18 73.0608 165.64 72.6203C165.356 74.1075 162.918 73.9042 163.218 75.7626C163.354 76.599 164.379 77.3504 164.845 78.0012C165.431 78.8181 165.898 79.7213 166.297 80.6418C167.849 84.2224 168.512 88.3775 169.163 92.2066C170.77 101.658 170.974 111.296 172.485 120.778C173.205 125.294 173.927 129.813 174.301 134.374C174.395 135.514 175.091 138.1 174.522 139.197C174.04 140.123 172.968 140.126 172.027 140.35C170.186 140.788 168.457 141.382 166.691 142.041C165.108 142.631 164.648 142.993 163.632 141.504C162.649 140.062 162.163 138.344 161.46 136.764C160.564 134.751 159.482 132.809 158.443 130.867C160.484 130.867 161.658 129.765 161.604 127.691C161.545 125.394 159.656 124.849 158.877 122.961C158.12 123.945 158.056 123.973 157.516 123.039C156.899 121.971 156.482 120.016 156.104 118.805C156.374 119.093 156.645 119.382 156.915 119.67C157.596 118.732 156.529 117.254 156.172 116.372C155.621 115.008 155.524 113.535 155.002 112.175C154.717 111.433 154.057 110.849 153.895 110.075C153.787 109.557 154.22 109.064 154.117 108.538C153.939 107.623 152.903 106.64 152.581 105.709C152.085 104.276 151.547 103.015 150.932 101.619C150.1 99.7299 150.293 97.7475 150.141 95.7369C149.983 93.6522 149.316 91.6577 149.08 89.5821C148.917 88.1482 149.427 86.3427 148.342 85.1941C148.215 87.1032 148.762 87.0737 146.969 87.4171C144.926 87.8078 143.445 89.3293 141.514 89.7832C141.116 89.8769 140.826 88.1382 140.981 90.5099C140.055 89.8262 138.079 90.6751 138.816 91.081C138.257 91.6789 137.156 91.2653 136.972 92.1611C135.073 90.3144 132.027 96.6002 129.765 93.3214C129.392 95.5435 127.782 96.8573 125.622 97.1513C124.536 97.2987 123.867 97.6608 122.903 97.9864C122.707 98.0519 122.635 98.3333 122.404 98.4092C122.05 98.5245 121.53 98.1763 121.275 98.244C120.756 98.3818 120.179 99.0648 119.455 99.2005C118.624 99.3561 117.718 99.2846 116.886 99.1883C115.846 99.0678 115.389 98.9446 114.371 99.2872C113.455 99.5955 112.474 100.459 111.625 99.5187C110.29 101.828 107.107 101.264 105.535 99.5469ZM167.254 71.6742C166.244 71.5532 166.945 70.6843 167.413 70.4233C168.685 69.7148 168.345 71.8051 167.254 71.6742ZM111.312 79.9628C117.242 71.408 127.384 65.5302 136.309 60.5846C141.183 57.8833 146.159 55.2648 151.277 53.054C153.821 51.9552 156.396 50.899 158.994 49.9338C160.382 49.4183 161.786 48.9496 163.191 48.483C163.58 48.3542 164.287 47.9588 164.693 47.9974C164.623 47.9904 165.704 48.2844 165.492 48.3768C166.188 48.0737 166.519 47.2833 167.338 46.9672C168.258 46.6116 169.43 46.4646 170.416 46.4325C171.288 46.4039 172.042 46.7642 172.873 46.7924C173.419 46.8106 173.883 46.5513 174.418 46.5132C174.691 46.4941 174.667 46.9034 174.832 46.9273C174.903 46.9377 175.632 46.6641 175.639 46.6689C175.904 46.8393 176.139 47.5044 176.379 47.7641C177.066 48.509 178.076 49.028 178.993 49.42C180.109 49.897 182.832 50.3765 181.57 52.1412C182.466 52.0125 182.883 52.8224 181.761 53.0275C181.153 53.1389 180.893 52.5822 180.442 52.2024C179.399 51.3265 176.868 50.0795 175.366 50.1359C174.521 50.1675 173.868 50.8088 173.089 51.0416C172.322 51.2706 171.942 50.9155 171.269 50.9718C170.482 51.0373 169.976 51.7029 169.226 51.8212C168.524 51.9322 168.133 51.4536 167.506 51.4869C166.76 51.5264 166.038 52.1742 165.326 52.3919C164.193 52.7379 163.361 52.9737 162.256 53.5474C160.113 54.6595 157.72 55.0819 155.512 56.0392C153.746 56.8045 151.744 57.2073 150.11 58.0537C148.294 58.9942 146.469 59.9312 144.69 60.9532C143.404 61.6916 140.792 61.9457 139.375 61.7579C139.354 64.3673 138.07 62.538 136.776 63.6809C137.082 63.951 137.429 64.1496 137.818 64.2767C136.415 64.8369 135.118 65.5341 133.76 66.178C132.355 66.844 130.857 66.9905 129.934 68.2501C129.084 69.4108 129.372 68.8121 128.104 69.2691C127.522 69.4789 127.016 70.1189 126.597 70.5486C125.876 71.2874 125.716 72.4061 125.305 70.8877C125.185 71.0728 124.712 72.2518 124.62 72.2817C124.105 71.7345 124.031 72.3831 123.742 72.6151C123.894 73.1194 123.677 73.4498 123.092 73.6063C122.796 73.8266 122.496 74.0425 122.193 74.2537C121.093 75.0163 119.693 75.6706 118.919 76.8071C118.348 76.4702 118.136 75.8887 118.484 75.2951C117.393 76.3011 116.091 77.3343 115.795 78.8827C115.66 78.7518 115.501 78.6572 115.322 78.5991C114.879 78.8983 115.456 79.7898 115.737 79.9905C116.962 79.5144 115.431 79.687 116.254 79.7638C116.489 79.7854 116.73 79.961 116.989 79.9641C117.748 79.9741 118.461 79.9376 119.214 79.8219C120.874 79.566 122.505 79.0895 124.112 78.6117C125.862 78.0914 127.612 77.5719 129.323 76.9337C130.733 76.4082 132.118 75.8224 133.504 75.2388C134.057 75.0055 134.61 74.7692 135.164 74.5377C136.216 74.098 136.771 73.3756 136.624 74.6131C137.462 74.4739 138.189 73.2893 138.832 72.8059C139.737 72.1264 140.756 71.6196 141.828 71.2727C142.263 71.1322 142.582 70.9536 143.031 70.9523C143.251 70.9518 143.383 71.5727 143.522 71.5389C144.484 71.3056 144.046 70.7723 144.478 70.004C145.425 68.3247 147.974 67.3959 149.54 66.442C150.534 65.8363 151.239 65.0216 152.157 64.3508C152.586 64.0373 152.898 63.8986 153.348 63.7659C153.692 63.664 154.114 64.4549 154.337 63.6601C153.537 63.3327 152.876 62.9291 152.106 62.6901C151.561 62.5206 152.215 61.9409 151.351 62.286C151.004 62.4248 150.885 63.096 150.757 63.377C149.793 62.5154 147.08 63.4082 145.935 63.7689C145.856 63.7936 145.503 63.6072 145.336 63.6185C144.676 63.6627 144.216 64.552 143.781 64.9353C142.624 65.9538 141.37 66.3796 139.946 66.961C140.325 64.8906 143.11 64.0425 144.736 63.2495C147.112 62.09 149.324 60.6102 151.925 59.9867C153.658 59.5709 155.954 59.2366 156.702 61.251C157.15 62.4586 157.207 65.4586 155.691 66.0158C155.531 65.4521 156.044 64.9704 156.198 64.4813C154.69 65.0571 154.441 66.8691 153.296 67.8148C152.652 68.3459 152.421 68.5163 152.11 69.0297C151.801 69.5396 151.653 70.0153 150.928 70.5577C149.744 68.0424 149.944 71.4878 149.344 71.9201C149.585 71.7462 148.365 72.2539 148.511 72.2001C148.454 72.221 147.923 71.3598 147.578 71.3781C146.951 71.411 147.071 72.1017 146.769 72.4495C145.744 73.6262 144.421 74.398 142.772 74.2129C142.733 75.0502 142.992 76.0505 141.848 76.1268L141.698 74.2706C141.076 74.9001 140.257 75.4981 139.75 76.2269C139.174 77.0564 139.236 77.5672 138.28 78.12C137.281 78.698 135.155 79.8366 133.966 79.935C134.26 79.5179 134.208 79.1411 133.811 78.8055C133.213 79.4221 132.33 79.4828 131.694 80.0395C133.903 80.9626 129.996 80.915 129.501 81.0194C129.169 81.0897 128.879 81.3919 128.543 81.46C128.097 81.5506 128.04 81.0815 127.655 81.2302C127.093 81.4478 127.322 82.0622 126.734 82.371C126.311 82.593 125.595 82.5899 125.118 82.8006C123.983 83.3036 121.564 84.4175 120.796 83.0664C120.407 85.3844 116.435 83.9735 114.965 83.8174C112.951 83.6037 109.444 82.6584 111.312 79.9628ZM119.77 56.2461C120.054 56.0028 120.34 56.0206 120.625 56.2998C120.228 54.2021 123.3 53.1836 124.64 52.2917C126.418 51.1089 128.51 48.8138 130.837 48.9955C130.44 49.2895 130.044 49.5835 129.648 49.8774C130.214 49.9507 130.779 50.024 131.344 50.0973C131.025 50.5656 130.706 51.0334 130.387 51.5013C129.865 48.6239 127.141 52.2566 126.352 52.786C125.559 53.3189 124.767 53.7161 124.061 54.366C123.362 55.0099 122.731 56.1693 121.576 55.59C121.471 57.2334 120.149 56.7876 119.236 57.6977C119.198 57.1267 119.525 56.723 119.77 56.2461ZM131.838 48.0429C134.65 46.9897 137.098 45.0424 139.748 43.6515C142.279 42.3225 144.861 41.1293 147.434 39.8896C148.739 39.2605 151.13 37.6336 152.622 38.4627C154.635 39.5822 151.863 39.9434 151.144 40.331C150.877 38.607 149.945 40.1688 150.502 41.128C148.966 40.4646 145.615 43.0601 144.15 43.7759C143.818 43.9381 143.967 44.0317 143.59 44.2225C143.497 44.2693 142.535 44.4883 142.26 44.5807C140.88 45.0424 139.971 44.6756 139.376 46.3411C139.252 45.9491 139.127 45.5567 139.003 45.1643C138.139 47.1037 135.514 47.9527 133.835 49.0996C133.402 49.3953 132.166 50.5421 131.618 50.305C130.854 49.9746 131.16 48.2966 131.838 48.0429ZM182.563 53.8904C183.75 53.9688 182.606 54.5225 182.932 54.8885C182.895 54.8473 183.647 55.4886 183.548 55.3125C183.681 55.5493 184 55.5406 184.163 56.0219C184.724 57.6769 182.272 59.387 181.445 60.3262C179.838 62.1529 178.908 64.4661 177.233 66.2343C176.476 67.033 175.724 67.5845 174.675 67.8824C173.941 68.091 173.164 67.8677 172.489 68.5736C171.946 69.142 172.069 69.465 171.469 69.7673C170.411 70.3001 169.945 69.8327 168.915 70.9844C168.029 68.5762 170.575 68.5801 171.903 67.2342C173.736 65.3763 175.745 63.5018 177.464 61.5142C178.991 59.7482 179.603 58.1998 180.328 56.0544C180.556 55.378 180.805 53.9276 181.435 53.5032C182.417 52.8424 181.828 53.8414 182.563 53.8904ZM188.401 116.449C191.515 112.967 195.377 109.84 199.564 107.742C201.06 106.992 203.19 106.007 204.741 107.162C206.262 108.294 205.935 110.552 205.322 112.087C204.734 111.857 205.289 109.698 204.984 109.165C204.319 108.001 202.884 108.619 201.907 109.009C200.764 109.466 199.743 109.971 198.837 110.8C198.469 111.136 197.766 111.438 197.53 111.669C197.177 111.522 196.968 111.629 196.906 111.99C196.978 112.211 196.97 112.429 196.879 112.643C196.827 112.711 196.367 112.432 196.302 112.488C196.004 112.743 195.724 113.043 195.431 113.281C194.842 113.757 194.34 113.983 193.798 114.647C192.75 115.931 191.365 116.683 190.312 117.906C190.075 118.183 189.79 118.892 189.736 118.954C189.204 119.575 188.416 120.066 187.816 120.723C186.778 121.859 185.67 122.621 184.473 123.595C183.958 124.014 183.356 124.465 183.013 125.048C182.857 125.314 182.769 126.771 182.763 126.777C181.589 128.063 181.818 125.477 181.906 125.152C182.86 121.662 186.083 119.042 188.401 116.449ZM181.992 140.048C182.138 140.597 182.258 141.05 182.407 141.606C181.476 140.842 181.476 140.842 181.992 140.048ZM180.987 141.844C180.644 142.188 180.301 142.531 179.954 142.871C179.192 142.066 181.126 141.706 180.987 141.844ZM180.503 127.985C180.139 129.458 178.806 131.244 177.889 132.407C177.99 132.279 177.107 132.537 177.006 132.595C176.68 132.784 177.461 134.01 176.33 133.462C175.929 133.689 176.719 134.615 176.174 135.029C174.597 131.436 178.902 128.324 180.569 125.657C181.384 126.406 180.708 127.159 180.503 127.985ZM170.263 147.407C171.412 147.703 172.01 147.517 172.786 146.388C173.253 145.71 173.423 144.509 174.49 145.523L174.679 144.219C176.202 144.844 176.074 147.102 176.74 148.353C177.063 146.937 177.83 142.983 180.179 143.617C182.816 144.329 178.427 148.864 178.02 149.975C177.124 148.584 177.476 149.878 176.792 150.074C176.206 150.242 175.289 149.81 174.576 149.849C172.407 149.967 170.502 150.943 168.521 151.769C168.02 150.417 167.518 149.064 167.017 147.712C168.183 147.802 170.595 144.697 170.937 146.953C170.072 146.803 169.828 146.841 169.407 147.629C169.676 147.492 169.962 147.418 170.263 147.407ZM175.131 165.059C175.128 165.049 177.375 165.187 177.575 165.114C179.113 164.553 178.544 162.809 178.858 161.576C179.492 162.159 179.156 163.222 179.352 163.976C179.581 164.863 180.246 165.618 180.307 166.566C180.447 168.707 178.69 168.232 177.358 168.925C176.22 169.517 176.093 170.262 175.132 168.666C174.872 168.234 174.313 167.109 174.37 166.557C174.426 166.009 175.293 165.555 175.131 165.059ZM176.942 174.326L176.321 173.63C178.172 174.197 177.08 173.345 177.506 172.18C178.927 173.126 180.086 174.099 181.21 172.204L183.153 180.039C181.848 180.346 180.165 178.33 179.27 177.638C178.753 177.238 175.885 175.696 177.607 175.247C177.385 174.94 177.164 174.633 176.942 174.326ZM189.622 149.723C188.544 150.749 187.458 151.323 186.283 152.129C185.254 152.836 185.608 153.649 184.715 154.438C184.123 154.962 182.733 155.497 182.001 155.897C180.696 156.61 179.528 156.745 178.186 155.947C178.551 158.888 176.537 159.118 174.03 159.7C172.835 159.978 172.127 160.403 171.266 159.308C170.676 158.559 170.445 157.202 171.179 156.516C172.345 155.427 175.451 155.803 176.947 155.118C178.082 154.599 179.238 151.671 180.639 152.737C179.916 151.586 180.758 151.275 181.386 150.455C182.074 149.555 182.497 148.503 183.209 147.611C184.562 145.915 186.638 144.208 188.56 143.186C190.25 142.286 191.138 142.923 191.391 144.812C191.519 145.762 191.514 147.178 190.982 148.021C190.812 148.289 190.252 148.292 190.083 148.545C189.788 148.986 190.059 149.308 189.622 149.723ZM209.46 126.919C210.809 127.963 210.678 130.157 210.89 131.651C211.19 133.757 210.973 135.795 210.941 137.94C210.907 140.188 209.804 141.651 209.285 143.758C208.708 146.101 207.964 147.342 206.67 149.308C208.073 149.529 205.985 153.719 205.641 154.262C205.267 154.85 202.253 157.564 203.545 157.564C202.832 158.504 202.056 159.469 201.346 160.383C201.066 160.743 200.576 160.884 200.356 161.138C199.907 161.654 199.88 162.115 199.558 162.718C199.07 163.632 198.91 163.388 198.269 164.051C197.826 164.51 197.536 165.115 197.101 165.554C195.699 166.969 195.521 165.81 194.737 164.72C194.617 165.012 194.404 165.195 194.097 165.269C193.852 164.036 195.541 162.79 196.251 162.041C197.415 160.813 198.478 159.46 199.506 158.117C201.709 155.24 203.688 152.183 205.25 148.909C206.912 145.424 208.239 141.652 208.928 137.851C209.454 134.953 209.953 129.982 206.081 129.245C203.265 128.709 200.161 130.42 197.839 131.805C196.424 132.649 195.002 133.488 193.654 134.437C192.191 135.467 190.927 136.924 189.339 137.75C190.207 137.298 187.342 138.657 187.781 138.275C187.575 138.454 187.752 139 187.617 139.246C187.44 139.566 186.825 139.883 186.549 140.09C185.821 140.637 184.657 141.197 184.326 142.101C179.705 138.804 188.894 132.953 191.249 131.462C195.921 128.507 204.05 122.731 209.46 126.919ZM221.923 94.8624C221.879 92.4889 223.812 89.2486 225.118 87.3131C225.756 86.3657 226.777 86.4034 227.151 85.286C227.367 84.6426 227.084 83.9679 227.148 83.3218C227.235 82.4481 227.613 81.7475 228.051 80.9965C232.002 74.2077 236.803 68.199 241.916 62.2761C244.437 59.3562 246.828 56.3241 249.547 53.5812C250.683 52.4356 253.736 48.3174 255.482 48.7293C256.407 48.9474 256.945 50.3587 257.363 51.0789C258.053 52.27 258.812 53.3857 259.651 54.4809C261.866 57.3725 264.42 59.9108 267.436 61.9604C269.32 63.2412 271.223 64.4861 273.065 65.8281C274.581 66.9324 276.874 68.195 277.956 69.7456C279.039 71.2965 277.449 72.6099 276.58 73.8977C275.229 75.9004 273.986 77.9756 272.629 79.9762C272.09 79.5886 272.229 78.8012 271.86 78.3047C271.532 77.8646 271.069 77.6855 270.616 77.4137C269.748 76.8938 268.897 76.2582 268.113 77.1292C266.742 78.6538 268.628 82.2574 270.66 81.8619C270.9 83.3665 266.841 85.8445 265.824 86.6726C262.702 89.2126 259.481 91.4209 255.357 91.6507C253.689 91.7435 251.952 91.6169 250.366 91.0584C249.607 90.7909 248.767 90.4237 248.184 89.8405C247.487 89.1424 247.31 88.1035 246.633 87.4124C246.046 86.8127 245.241 86.7203 244.655 86.1185C244.068 85.5163 243.777 84.5649 243.539 83.7849C243.074 82.2608 242.986 80.6535 242.538 79.1259C242.269 78.2072 242.048 76.9788 241.17 77.8616C239.895 79.1442 240.535 83.177 240.862 84.7137C241.329 86.9059 242.423 88.6732 243.57 90.5594C244.814 92.6055 245.273 94.5033 245.496 96.8708C245.913 101.303 247.185 105.555 249.164 109.543C249.996 111.221 250.994 112.8 251.893 114.44C252.314 115.206 253.255 117.817 254.397 117.803C256.223 117.78 253.623 112.457 253.262 111.564C251.262 106.614 249.352 101.412 248.924 96.0526C251.79 96.791 254.915 97.4917 257.883 97.0238C255.967 101.309 257.969 105.575 257.724 109.985C257.601 112.197 257.513 114.237 257.558 116.443C257.599 118.377 256.725 120.31 255.971 122.058C254.471 125.531 252.584 129.815 249.799 132.475C247.471 134.699 244.357 134.873 241.316 134.361C234.396 133.195 229.85 127.876 226.946 121.835C225.08 117.955 223.654 113.812 222.769 109.598C221.744 104.72 222.015 99.8097 221.923 94.8624ZM230.909 61.9912C224.452 57.3192 233.835 52.0138 238.611 52.7361C239.732 52.9052 241.793 53.3683 241.688 54.8304C241.602 56.0254 239.609 57.3574 238.844 58.0949C236.661 60.1996 234.44 64.5455 230.909 61.9912ZM277.882 165.801C277.661 165.602 275.853 166.09 276.569 165.02C277.164 164.132 278.814 165.245 279.413 165.474C278.919 165.815 278.489 166.344 277.882 165.801ZM250.995 222.306C250.44 222.375 249.86 220.878 251.861 221.996C251.573 222.1 251.284 222.203 250.995 222.306ZM250.938 246.701C251.007 247.372 251.212 247.814 250.736 248.302C250.333 247.805 250.281 247.105 250.938 246.701ZM251.75 256.78C251.691 257.145 251.632 257.51 251.574 257.875C251.112 257.641 250.651 257.408 250.189 257.173C250.709 257.042 251.23 256.912 251.75 256.78ZM252.316 248.281C253.004 248.538 252.684 247.715 253.184 247.599C253.363 248.456 253.142 249.191 252.65 249.898C252.603 249.73 252.351 248.293 252.316 248.281ZM269.913 187.458C268.947 187.335 268.801 188.356 268.08 188.752C267.616 189.008 266.2 188.816 265.936 189.305C266.285 189.406 266.634 189.507 266.983 189.607C266.184 190.037 265.386 190.468 264.588 190.898C266.508 190.898 268.508 189.981 270.415 190.25C271.221 190.364 271.812 190.637 272.318 191.292C272.625 191.69 272.895 192.331 272.944 192.818C272.997 193.345 272.586 193.71 272.659 193.961C273.519 193.984 273.417 195.394 273.224 195.969C272.806 197.214 271.144 199.165 269.654 198.375C270.277 199.259 270.119 199.764 269.197 200.277C269.281 199.985 269.343 199.473 268.872 199.524C268.751 200.014 268.797 200.791 268.397 201.16C267.949 201.574 267.549 201.091 267.121 201.359C266.613 201.679 266.766 202.179 266.366 202.525C265.838 202.982 265.763 202.658 265.132 202.747C264.175 202.882 264.785 202.288 264.02 203.062C263.755 203.329 263.799 204.024 263.37 204.415C262.546 205.166 260.345 205.948 259.555 204.986C257.655 207.996 251.962 208.718 249.312 206.342C245.085 202.552 252.966 194.844 255.568 192.401C258.18 189.949 261.08 187.832 264.015 185.788C265.683 184.627 267.394 183.573 269.142 182.538C270.22 181.899 271.573 180.733 272.898 180.845C274.086 180.946 275.101 181.868 276.352 182.05C277.257 182.182 279.014 182.4 277.873 183.627C277.339 184.2 275.243 185.127 274.529 185.267C274.11 185.349 273.668 185.192 273.253 185.277C272.549 185.421 272.066 186.015 271.301 185.939C271.543 187.075 271.101 187.609 269.913 187.458ZM282.421 145.3C282.422 146.189 280.8 145.967 280.462 145.665C279.904 145.169 279.885 143.684 279.678 143.009C280.62 143.246 282.421 144.114 282.421 145.3ZM269.358 115.99C272.764 113.19 276.346 110.623 280.132 108.363C281.488 107.553 283.402 105.92 285.086 106.124C285.793 106.21 287.253 107.021 286.721 107.916C286.622 108.083 285.836 108.15 285.593 108.272C285.317 108.409 285.102 108.788 284.846 108.975C283.077 110.273 280.952 111.071 279.177 112.399C277.718 113.491 276.358 114.712 274.788 115.648C273.282 116.546 271.708 117.115 270.278 118.109C270.306 118.09 268.418 118.769 268.788 118.892C267.13 118.338 268.881 116.382 269.358 115.99ZM292.069 114.947C294.093 114.141 296.072 113.162 298.191 112.62C299.248 112.35 300.333 112.146 301.428 112.268C301.614 111.942 301.861 111.871 302.171 112.052C302.412 112.423 302.731 112.708 303.126 112.907C303.73 113.371 305.952 113.978 305.508 115.002C305.214 115.68 302.986 115.736 302.375 115.889C300.531 116.348 298.813 117.381 296.914 117.634C296.736 117.658 296.154 117.442 296.147 117.443C295.406 117.605 294.79 118.374 294.153 118.743C292.783 119.536 290.815 119.669 289.831 121.038C293.017 123.197 295.781 121.055 298.582 119.425C300.26 118.448 302.061 117.744 303.895 117.117C304.853 116.79 305.82 116.451 306.791 116.164C307.193 116.017 307.606 115.912 308.03 115.847C308.425 115.769 308.707 115.912 308.878 116.278C310.052 116.239 310.152 115.502 310.859 116.876C311.856 118.814 310.331 118.715 308.898 118.953C306.912 119.283 304.891 120.025 302.934 120.517C302.482 120.631 298.523 121.549 298.518 121.581C298.339 122.831 309.701 121.674 310.677 121.486C312.398 121.155 314.245 120.215 316.027 120.441C317.395 120.615 320.512 122.623 318.33 123.956C317.9 121.9 316.425 123.598 315.655 124.293C314.629 125.217 313.159 125.128 311.752 125.49C309.828 125.984 304.902 127.839 303.535 125.474C303.967 127.547 296.115 126.493 295.035 126.425C293.983 126.358 292.624 126.581 291.607 126.281C290.944 126.086 290.575 125.654 289.95 125.557C289.797 125.722 289.614 125.834 289.401 125.894C289.084 125.734 288.798 125.53 288.543 125.283C286.44 124.317 283.187 123.783 284.355 120.704C285.458 117.8 289.396 116.013 292.069 114.947ZM311.78 116.742C311.832 116.561 311.885 116.38 311.937 116.199C311.943 116.754 313.266 116.99 313.113 117.709C312.774 119.3 311.248 116.909 311.117 116.649C311.338 116.68 311.559 116.711 311.78 116.742ZM319.854 119.385C320.007 120.037 321.766 121.424 321.33 121.744C320.637 120.802 318.72 121.23 319.854 119.385ZM290.189 178.848C290.833 177.571 292.779 179.746 292.574 177.566C293.632 177.661 292.971 178.467 294.24 178.113C294.715 177.98 295.036 177.453 295.615 177.332C295.77 177.299 296.437 177.352 296.667 177.345C297.43 177.322 300.419 177.237 298.362 176.237C299.513 175.475 299.655 175.862 300.694 176.559C300.428 175.117 301.957 175.936 302.669 176.116C302.161 175.293 303.421 174.418 303.83 173.862C303.684 174.719 303.761 175.677 305 175.13C305.309 174.994 305.239 174.388 305.484 174.289C305.933 174.109 306.183 174.438 306.344 174.419C306.502 174.401 306.836 174.49 307.168 174.365C307.601 174.202 307.392 173.622 307.94 173.536C308.297 173.48 308.558 174.004 308.993 174.009C309.217 174.011 309.59 173.784 309.76 173.796C309.79 173.798 310.003 173.285 310.265 173.272C310.647 173.254 310.803 174.278 310.942 174.477C311.612 175.427 312.502 176.046 313.529 176.552C311.671 178.255 307.924 178.075 305.588 178.649C304.323 178.96 303.244 179.409 302.086 179.988C301.807 180.169 301.566 180.392 301.365 180.656C301.201 180.547 301.037 180.439 300.873 180.33C300.239 180.369 299.639 180.055 298.924 180.175C296.719 180.547 294.992 182.2 292.75 182.568C291.743 182.734 290.915 182.965 290.259 182.091C289.683 181.326 289.779 179.662 290.189 178.848ZM287.165 168.67C287.665 169.093 287.063 170.469 288.031 170.32C288.718 170.214 288.581 169.148 289.12 168.922C289.829 168.626 290.256 169.329 290.922 169.264C292.163 169.142 292.092 168.058 291.044 167.582C292.134 167.294 292.483 168.583 293.449 168.572C294.717 168.556 294.415 167.06 295.494 166.812C295.961 166.704 295.805 167.391 296.108 167.476C296.715 167.647 297.138 167.354 297.675 167.096C298.155 166.866 298.497 166.421 299.022 166.27C299.261 166.202 299.868 166.328 300.044 166.2C300.397 165.942 300.714 164.939 301.061 164.806C300.99 164.833 302.13 165.405 302.294 165.458C302.194 165.882 301.962 165.932 301.598 165.61C301.598 166.566 304.255 166.864 303.71 165.682C305.147 166.277 304.076 166.583 303.933 167.413C303.876 167.747 303.681 167.738 303.739 168.091C303.766 168.254 304.519 168.114 304.509 168.335C304.446 169.762 299.898 170.201 299.036 170.327C297.253 170.587 295.565 171.026 293.845 171.566C292.565 171.967 290.358 173.119 288.995 173.047C287.036 172.944 286.78 170.388 287.165 168.67ZM282.787 154.109C282.309 152.522 283.842 149.243 285.838 149.653C286.329 149.754 286.45 150.16 286.83 150.341C287.362 150.593 288.226 150.46 288.687 150.721C289.721 151.306 289.2 152.796 290.235 153.335C288.601 153.731 283.546 156.633 282.787 154.109ZM284.678 160.277C285.382 159.898 286.524 159.85 287.004 159.122C287.243 159.287 287.696 160.293 288.125 160.139C288.325 160.067 288.532 159.522 288.517 159.523C288.899 159.512 288.975 158.995 289.559 159.053C290.095 159.107 290.695 159.751 291.173 159.991C291.091 158.394 291.5 158.241 292.795 157.386C293.079 157.199 293.316 156.496 293.578 156.211C293.328 157.887 293.959 157.896 295.298 158.148C296.976 158.464 298.021 159.365 298.694 160.986C297.264 160.707 295.419 161.043 294.856 162.58C293.714 160.495 289.567 163.372 288.225 163.962C287.229 164.399 286.07 164.987 285.235 163.968C284.647 163.25 284.984 162.386 284.997 161.748C285 161.548 285.207 161.536 285.188 161.238C285.164 160.857 284.668 160.705 284.678 160.277ZM299.945 193.066C299.568 193.209 297.624 193.289 297.611 192.645C297.601 192.076 301.042 192.649 299.945 193.066ZM296.788 190.983C295.317 191.889 293.672 188.695 293.131 187.775C294.674 187.972 295.427 186.681 296.336 185.701C297.2 187.595 298.513 186.594 299.894 185.961C301.523 185.215 303.307 185.209 304.976 184.611C305.496 184.424 305.976 184.146 306.485 183.932C306.894 183.779 307.302 183.622 307.708 183.461C307.997 183.201 308.099 182.881 308.015 182.501C307.879 182.182 307.972 181.98 308.295 181.897C308.679 182.011 309.071 182.078 309.472 182.096C310.115 181.968 311.039 181.362 310.263 180.708C311.094 179.953 311.927 180.704 312.728 181.034C312.538 180.492 312.348 179.949 312.158 179.407C312.555 179.576 313.734 181.223 313.854 181.214C314.617 181.157 314.537 180.134 314.975 179.721C315.228 180.033 315.3 182.358 316.294 181.575C316.719 181.24 315.804 180.1 315.579 179.84C316.716 180.096 317.708 181.454 318.016 182.507C317.476 182.585 316.977 182.477 316.518 182.181C316.225 183.648 318.941 183.054 319.381 183.821C320.242 185.321 314.641 186.364 313.911 186.503C312.451 186.781 310.727 186.885 309.389 187.532C308.106 188.152 307.803 188.329 306.304 188.445C304.594 188.578 302.925 189.142 301.27 189.58C299.834 189.961 298.061 190.198 296.788 190.983ZM328.05 137.264C329.401 136.778 333.95 134.256 335.108 135.378C334.986 135.259 335.943 137.237 335.933 137.113C336.015 138.142 335.99 138.556 334.724 139.049C333.817 139.402 333.027 138.651 332.211 138.949C331.314 139.277 331.941 139.856 331.48 140.26C330.974 140.704 330 140.896 329.371 141.09C327.83 141.566 326.278 141.963 324.745 142.476C321.627 143.519 318.324 144.489 315.119 145.226C312.724 145.778 308.658 147.147 306.451 145.53C306.236 146.449 305.709 146.323 304.978 146.457C304.405 146.562 303.368 146.846 302.858 146.861C302.009 146.886 299.65 146.663 299.975 145.473C299.885 145.801 301.81 144.679 301.477 144.609C302.294 144.781 302.029 144.37 302.698 144.141C303.573 143.842 304.487 143.858 305.38 143.541C307.631 142.744 309.518 141.708 311.894 141.208C317.321 140.067 322.815 139.148 328.05 137.264ZM110.517 260.228C110.077 260.24 109.735 258.991 111.073 259.882C110.888 259.998 110.703 260.113 110.517 260.228ZM99.9505 258.612C99.3526 258.765 99.1141 258.431 99.2359 257.611C100.07 257.281 100.308 257.615 99.9505 258.612ZM91.7929 256.938C91.6398 256.207 92.1818 256.043 92.673 255.714C92.6236 256.683 92.6236 256.683 91.7929 256.938ZM71.2674 250.923C70.4405 250.741 69.3388 249.932 69.1493 251.29C69.011 250.976 68.3051 249.497 68.6082 249.155C68.7664 248.976 69.3656 249.804 69.3019 249.722C70.0256 248.258 71.273 250.025 71.9702 250.547C71.7361 250.673 71.5015 250.798 71.2674 250.923ZM286.25 89.1506C286.535 88.5471 286.872 88.3554 287.259 88.5761C286.651 89.9879 284.592 90.7532 286.25 89.1506ZM300.554 75.8983C301.064 76.8543 300.297 77.2585 299.75 78.0532C300.07 77.196 300.292 76.602 300.554 75.8983ZM362.723 169.227C364.562 169.226 368.48 168.255 369.589 170.358C370.323 168.929 371.157 171.608 371.794 172.038C371.866 172.087 372.325 171.736 372.538 171.865C372.86 172.06 373.137 172.59 373.321 172.905C373.877 173.856 374.116 174.986 374.424 176.032C371.211 176.032 367.917 175.284 364.707 175.012C362.6 174.833 360.535 174.828 358.425 174.941C358.006 174.964 357.173 174.826 356.814 174.905C356.45 174.985 355.79 175.727 355.388 175.607C356.012 176.779 364.003 179.614 364.613 178.317C363.89 177.88 362.286 177.544 362.287 176.488C362.289 175.305 363.792 175.307 364.589 175.342C366.332 175.418 369.251 175.998 369.966 177.811C370.272 178.588 370.366 180.544 370.03 181.294C369.812 181.778 369.445 182.361 368.862 182.459C368.623 182.499 368.279 182.182 368.242 182.189C367.046 182.443 364.833 183.403 363.529 182.049C362.588 183.266 358.058 181.937 356.671 181.478C354.245 180.675 350.905 179.572 349.432 177.309C347.636 174.55 351.287 172.219 353.384 171.098C356.25 169.565 359.524 169.228 362.723 169.227ZM374.963 175.605C375.527 175.764 376.091 175.924 376.655 176.083C376.504 177.071 374.28 176.289 374.963 175.605ZM392.008 211.54C392.181 207.579 391.036 204.091 390.375 200.26C390.211 199.31 390.378 197.65 389.657 196.869C388.968 196.123 387.43 196.73 387.369 195.41C386.69 196.204 386.758 196.371 385.922 195.457C386.075 195.849 386.097 196.247 385.988 196.653C385.469 196.355 383.588 195.368 383.747 196.718C382.2 196.376 382.648 195.409 381.766 194.67C381.64 194.565 381.137 194.938 380.94 194.779C380.586 194.492 380.41 194.231 380.111 193.86C379.731 194.32 379.213 194.652 378.748 195.016C378.478 194.427 377.952 193.995 377.32 193.852C377.911 195.089 379.372 196.691 377.368 197.394C376.172 197.814 374.212 197.299 372.945 197.397C368.25 197.762 363.106 196.738 358.566 195.619C353.902 194.47 349.185 192.848 344.991 190.477C344.097 189.972 343.533 189.373 342.763 188.746C342.015 188.137 341.471 188.04 340.571 187.651C338.952 186.949 337.471 185.824 336.239 184.57C333.59 181.873 331.129 178.347 331.866 174.399C332.602 170.464 335.306 167.389 338.201 164.798C341.619 161.738 345.478 159.183 349.574 157.123C351.405 156.202 356.09 152.743 357.899 154.767C359.056 156.06 358.405 157.71 356.825 157.997C356.436 158.068 356.028 157.807 355.634 157.986C355.066 158.244 355.266 158.549 355.032 158.765C354.624 159.139 354.192 159.723 353.583 160.047C351.46 161.179 349.407 162.076 347.378 163.455C346.442 164.09 345.541 164.364 344.717 164.918C343.896 165.469 343.71 166.381 342.607 165.819C343 167.423 340.641 169.141 339.717 170.124C338.284 171.646 336.567 173.588 337.236 175.84C338.544 180.248 344.454 183.596 348.236 185.533C352.956 187.951 358.162 189.876 363.417 190.672C366.03 191.068 368.73 191.313 371.363 191.564C373.412 191.759 376.558 191.043 378.032 192.889C378.078 190.737 384.8 190.927 386.231 190.651C383.363 180.846 377.73 172.127 371.708 163.982C368.753 159.983 365.85 155.871 362.482 152.206C358.793 148.193 354.58 144.606 350.576 140.914C342.724 133.672 333.843 127.208 324.806 121.514C315.79 115.834 306.453 110.243 296.575 106.193C285.293 101.567 273.416 98.5245 261.525 95.9333C263.138 93.8781 265.762 92.8756 267.827 91.3719C268.55 90.8456 269.528 89.5821 270.467 89.4095C271.484 89.2222 272.285 90.3166 273.009 90.8659C275.087 92.4425 276.525 91.773 278.905 91.678C280.329 91.6212 283.702 92.4143 284.303 90.4878C285.102 91.551 283.943 92.4035 283.351 93.1831C283.782 93.7849 284.13 93.1605 284.556 93.0664C284.687 92.9576 284.818 92.8483 284.95 92.7395C285.161 92.4334 285.352 92.4316 285.522 92.7334C285.776 93.1158 286.032 93.0313 286.289 92.4793C286.36 92.4351 286.43 92.3904 286.501 92.3462C286.809 92.1823 287.106 91.923 287.392 91.7188C289.555 90.173 291.483 88.8562 293.871 87.7176C295.876 86.762 294.798 84.9335 296.12 83.6423C296.419 83.35 296.922 83.4966 297.242 83.249C297.555 83.0057 297.602 82.73 297.831 82.4694C298.38 81.8428 297.726 81.1157 299.128 81.8827L298.622 79.0379C301.37 81.7037 301.359 74.0325 301.735 72.8974C301.685 73.0474 301.981 71.8858 301.981 71.8958C302.062 69.5938 302.376 67.9254 299.68 67.7918C300.701 67.1497 301.013 68.4036 301.484 67.1054C301.72 66.455 300.983 65.3372 302.157 65.7565C302.405 64.3742 302.16 63.2555 301.853 61.9123C301.537 60.5373 301.722 59.6199 301.737 58.2449C301.753 56.6853 301.023 55.1179 300.789 53.5821C300.606 52.3793 300.795 50.4823 299.24 50.9241C299.021 50.582 299.789 49.5297 299.758 49.0094C299.709 48.2012 298.832 47.3799 298.584 46.6038C298.218 46.981 297.703 47.1068 297.206 46.9364C297.673 45.8819 297.234 45.5276 296.787 44.6184C296.531 44.0976 296.686 43.5227 296.137 43.1494C295.823 42.9352 295.287 43.2959 295.041 43.0449C294.513 42.5072 294.708 41.794 294.344 41.0855C293.889 40.197 292.848 39.5185 292.131 38.8516C288.098 35.1032 283.717 32.2384 278.353 30.7737C272.941 29.2961 266.632 28.7666 261.239 30.4711C259.083 31.1523 257.169 31.0825 255.229 32.3546C254.6 32.7674 254.532 32.6568 254.212 33.345C254.139 33.5054 254.809 33.9325 254.398 34.1948C253.953 34.4797 253.46 33.9004 253.233 33.4195C250.426 35.4513 247.796 38.16 246.197 41.2658C244.609 44.3522 244.463 47.9779 243.856 51.3317C241.058 48.1353 237.274 46.6029 233.16 48.1396C229.573 49.4785 226.794 52.4218 226.093 56.2348C225.665 58.5593 226.132 60.9133 227.188 63.0106C227.645 63.9168 228.198 64.9201 229.037 65.5302C229.701 66.0123 230.838 65.9447 231.15 66.8145C231.629 68.1469 228.862 71.0247 228.144 72.191C226.844 74.3018 225.637 76.4815 224.718 78.7869C221.422 74.1314 218.267 69.0466 214.519 64.754C210.983 60.7025 206.766 57.069 202.631 53.6445C194.049 46.537 185.124 39.8597 175.524 34.1974C166.584 28.9249 155.786 25.9977 145.368 27.0327C135.188 28.0443 127.395 34.4823 120.837 41.9076C108.227 56.1845 100.504 76.5335 99.7493 95.5383C99.5225 101.247 99.9574 106.882 101.367 112.419C102.039 115.056 101.942 117.649 102.332 120.32C102.772 123.333 103.534 126.334 104.271 129.285C107.077 140.527 110.652 151.76 114.664 162.63C116.751 168.282 119.274 173.808 122.689 178.792C124.266 181.094 126.309 182.895 128.006 185.081C129.653 187.202 130.087 189.804 130.449 192.406C131.318 198.644 131.893 204.908 132.415 211.183C132.637 213.842 132.896 216.478 133.248 219.119C133.555 221.421 132.783 221.308 130.846 222.09C131.239 220.021 121.985 221.428 121.111 221.57C120.16 221.723 119.153 221.725 118.405 221.848C117.567 221.984 116.748 222.181 115.784 222.153C114.366 222.113 111.712 221.751 111.171 223.56C110.799 221.462 108.338 223.756 110.159 223.367C108.29 223.576 106.384 223.228 104.493 223.404C102.326 223.605 100.14 223.797 97.988 224.123C96.49 224.349 95.0604 224.927 93.5597 225.094C91.6394 225.309 89.6353 225.289 87.6963 225.459C80.5441 226.09 73.131 227.65 66.1787 229.437C64.6039 229.841 62.7945 230.129 61.29 230.778C60.8872 230.952 60.5247 231.34 60.1388 231.489C59.4918 231.739 59.5803 231.567 59.0058 231.681C55.5635 232.369 52.0124 233.493 48.5705 234.375C46.6614 234.865 43.556 235.306 41.9985 236.638C41.3004 237.235 40.6904 238.293 41.809 238.972C42.7027 239.513 43.9783 238.649 44.7015 238.181C44.0572 239.86 42.8418 240.697 43.4983 242.608C44.0165 244.117 45.1863 245.978 46.9861 245.004C47.2272 245.565 47.3248 246.68 48.0346 246.886C48.6724 247.071 49.1342 246.263 49.759 246.453C49.9827 246.521 49.8977 246.944 50.098 247.055C50.4432 247.245 50.7931 247.325 51.1885 247.459C51.5285 247.574 52.0757 247.811 52.4303 247.836C52.6554 247.852 53.1857 247.467 53.1839 247.467C53.7008 247.546 53.9787 248.535 54.3507 248.821C54.8337 249.192 55.2327 249.276 55.8375 249.411C57.0949 249.69 58.7157 250.169 59.5456 248.881C59.3557 249.801 60.6058 249.71 61.1573 249.827C61.0961 249.343 60.8286 248.899 60.4158 248.633C61.649 248.715 61.149 249.941 62.0605 250.264C62.71 250.495 62.6363 249.909 63.1332 249.844C63.7879 249.759 64.2848 250.234 65.3072 249.796C65.5288 250.78 65.6099 251.773 66.8192 251.92C67.5289 252.007 69.184 250.725 69.0903 251.792C70.676 251.327 71.2778 251.641 72.1064 253.039C72.2464 252.181 72.9242 252.429 73.5459 252.377C74.5315 252.292 74.5566 252.372 75.3206 251.814C75.3904 251.763 75.9914 250.386 76.2585 251.242C76.3786 251.625 75.5847 252.527 75.2907 252.756C75.6558 252.941 76.8521 253.588 77.3121 253.469C77.7102 253.366 77.7115 252.686 78.1897 252.651C78.0726 253.042 77.956 253.433 77.8385 253.824C78.769 253.96 79.5464 253.337 80.2814 252.881C80.9821 254.652 82.9848 253.654 84.074 254.988C84.6503 255.693 84.6771 256.229 85.775 256.413C86.8984 256.602 87.8797 256.109 88.8344 257.036C88.5318 256.461 87.7778 255.984 88.527 255.366C89.0369 256.089 89.3001 256.961 89.8881 257.634C89.9692 257.292 90.0502 256.95 90.1313 256.607C91.6641 258.247 93.5936 258.261 95.5569 259.17V257.97C96.9626 260.115 97.0376 258.758 98.7169 257.881C98.6029 258.512 98.4884 259.143 98.3744 259.774C99.5828 259.683 100.712 261.114 101.704 259.898C102.303 260.903 103.029 260.408 104.012 260.728C104.57 260.909 104.986 261.459 105.529 261.658C106.344 261.956 106.587 261.943 107.354 262.202C108.036 262.433 108.424 262.882 109.278 263.026C109.832 263.12 110.335 263.113 110.866 263.087C111.071 263.077 111.003 262.616 111.459 262.723C112.164 262.89 112.688 263.774 113.195 264.227C113.959 262.309 116.095 264.878 117.128 265.22C117.227 264.729 117.209 264.136 117.565 263.732C117.983 264.648 118.143 265.417 119.01 266.007C119.511 266.347 120.247 266.591 120.825 266.715C121.191 266.794 121.855 266.7 122.085 266.813C122.477 267.005 122.621 267.518 123.017 267.566C123.25 267.594 123.595 266.981 123.769 267.029C124.567 267.247 125.01 268.216 125.816 268.74C128.213 270.3 131.23 270.451 133.901 270.793C134.571 270.878 134.668 270.695 135.213 271.089C135.503 271.299 135.372 271.938 135.729 272.117C137.075 272.792 137.076 271.352 137.358 270.458C137.804 271.045 137.88 271.821 138.49 272.288C138.822 272.279 139.155 272.286 139.487 272.311C139.675 272.525 139.798 272.771 139.855 273.051C140.661 273.596 141.575 273.406 142.408 273.815C142.681 273.949 143.165 274.76 143.502 274.992C144.104 275.409 145.035 275.632 145.723 275.814C147.166 276.193 149.235 275.689 150.094 277.195C151.234 275.974 150.793 277.433 151.567 277.739C152.024 277.92 152.711 277.201 153.218 277.272C154.131 277.401 154.459 278.389 154.752 279.107C155.307 278.983 154.926 277.411 154.91 277.066C155.601 276.984 155.754 278.803 155.874 279.203C156.964 278.678 155.174 277.044 156.347 276.519C156.239 277.912 157.349 279.058 155.367 279.258C155.641 280.096 162.032 281.028 162.476 280.287C162.574 281.656 163.494 280.378 163.833 279.909C163.871 280.708 163.599 281.841 164.495 282.212C165.104 282.464 166.476 281.812 166.715 281.215C166.988 282.127 167.445 282.097 168.013 282.676C168.403 283.074 168.66 283.763 169.07 284.096C169.823 284.709 171.224 284.615 172.101 284.478C173.818 284.21 173.615 283.881 174.227 285.666C174.366 284.988 174.799 283.572 175.555 284.625C176.037 285.294 175.012 286.769 174.716 287.356C175.378 286.993 176.034 286.562 176.787 286.405C176.829 286.637 176.868 287.13 176.757 287.344C176.779 287.301 177.582 287.839 177.88 287.988C177.809 287.952 178.116 286.612 178.107 286.656C179.166 287.309 178.431 288.56 179.37 289.204C179.612 289.371 180.181 289.177 180.474 289.278C180.984 289.455 181.426 289.933 181.879 290.213C181.517 289.727 181.569 288.912 181.594 288.351C181.825 288.479 181.989 288.956 182.222 288.994C182.31 289.008 183.223 289.129 183.217 289.124C184.167 289.79 183.971 289.873 183.156 290.673C183.447 291.131 184.665 290.336 184.995 290.203C185.064 290.382 185.081 291.033 185.211 291.149C185.29 291.341 185.368 291.534 185.447 291.726C185.691 291.545 185.952 291.485 186.23 291.545C186.406 291.606 187.78 292.165 187.873 291.974C187.573 291.876 187.3 291.727 187.056 291.527C187.849 290.814 188.371 290.435 189.102 291.464C189.194 291.594 188.878 292.059 188.971 292.229C189.32 292.858 190.037 293.359 190.524 293.872C190.726 293.164 190.257 291.391 191.376 291.455C192.271 291.507 192.951 293.674 192.642 294.348C192.997 293.959 195.12 293.572 195.521 293.694C196.654 294.037 196.336 295.085 197.73 293.55C198.68 294.206 197.843 294.454 198.014 295.254C198.265 295.306 198.502 295.244 198.727 295.068C198.559 298.466 201.067 295.869 202.695 296.388C203.334 296.592 203.497 297.318 204.183 297.53C204.546 297.642 204.95 297.377 205.303 297.441C205.586 297.401 205.867 297.351 206.146 297.292C206.5 297.114 206.666 297.312 206.644 297.887C207.213 298.181 206.998 298.297 207.663 298.354C208.091 298.391 208.486 297.946 208.972 298.021C209.812 298.153 209.701 298.798 210.238 299.135C210.721 299.438 211.266 299.428 211.861 299.37C212.164 299.34 213.015 298.949 213.117 298.948C213.753 298.939 213.408 298.804 214.171 299.35C214.765 299.776 215.015 300.051 215.744 300.247C216.58 300.472 218.064 300.962 218.627 300.358C219.387 301.497 219.982 300.661 220.986 300.736C221.499 300.775 221.58 300.975 222.037 301.055C222.778 301.184 223.702 301.072 224.49 301.325C225.731 301.724 225.871 301.924 227.14 301.978C227.369 301.889 227.598 301.799 227.826 301.71C227.895 302.092 228.075 302.403 228.367 302.645C229.076 302.794 229.543 302.435 230.128 302.043C230.564 303.401 231.979 303.52 233.19 303.699C235.143 303.987 237.011 304.145 238.895 304.787C240.486 305.329 242.079 305.938 243.61 306.632C244.956 307.243 246.227 308.156 247.751 307.727C251.203 306.755 254.549 303.211 257.437 301.177C260.858 298.767 264.547 296.781 268.122 294.614C282.353 285.988 297.387 278.691 311.418 269.745C319.078 264.86 326.186 259.056 334.412 255.105C333.241 259.944 331.248 264.857 331.608 269.923C331.753 271.965 332.354 274.377 333.938 275.802C335.895 277.565 338.076 276.443 339.948 275.184C343.96 272.486 346.635 268.55 349.638 264.854C353.19 260.482 355.944 255.784 358.552 250.801C359.177 251.678 358.702 253.147 358.711 254.12C358.723 255.361 359.058 256.557 359.633 257.665C361.119 260.524 363.946 261.217 366.5 259.258C371.416 255.488 374.269 248.774 376.903 243.367C378.406 246.162 380.538 249.68 384.146 247.684C387.123 246.037 388.872 242.356 389.783 239.238C392.442 230.138 391.599 220.868 392.008 211.54Z" fill="black"/>
<path fill-rule="evenodd" clip-rule="evenodd" d="M387.493 156.877C387.154 156.052 387.004 156.187 387.629 155.388C388.115 155.867 387.726 156.263 387.493 156.877ZM402.539 206.789C401.584 204.075 402.174 201.127 401.594 198.343C401.328 197.066 400.908 195.827 400.756 194.526C400.689 193.949 400.175 191.352 400.525 190.943C399.448 190.291 399.445 189.808 399.196 188.529C399.579 188.122 399.531 187.775 399.051 187.487C398.737 187.107 398.423 186.726 398.108 186.347C399.482 187.018 398.669 185.299 398.529 184.308C398.418 183.525 398.344 182.708 398.083 181.958C397.761 181.035 397.047 180.569 398.533 180.569C398.044 180.012 397.313 179.438 397.069 178.757C396.719 177.777 397.297 176.481 396.582 175.615C396.184 175.132 394.13 174.943 394.49 173.9C394.673 173.368 395.506 173.765 395.763 173.393C396.776 171.929 393.787 171.322 393.64 170.7C393.45 169.892 394.53 169.712 394.596 168.957C394.661 168.218 393.512 167.004 393.209 166.343C392.795 166.444 392.341 167.098 391.868 166.785C391.778 166.726 391.913 164.169 391.806 163.829C391.7 163.495 391.483 162.61 391.406 162.446C391.1 161.795 390.223 161.478 390.083 160.71C390 160.251 391.798 159.556 389.736 159.534C390.477 158.229 389.12 157.436 388.626 156.321C387.991 154.887 387.617 153.338 386.965 151.897C386.331 150.496 385.622 149.167 384.708 147.928C383.881 146.806 383.523 145.728 382.862 144.543C382.73 144.439 382.597 144.335 382.465 144.231C381.914 144.311 381.737 144.06 381.934 143.477C381.512 142.852 381.199 142.186 380.827 141.533C380.395 140.775 379.811 140.156 379.365 139.419C378.772 138.441 378.597 137.338 377.927 136.358C377.104 135.151 376.178 134.087 375.414 132.835C374.457 131.267 373.398 130.292 372.195 129.078C371.622 128.499 371.553 127.054 370.851 126.233C370.086 125.339 369.332 125.096 368.802 123.922C368.112 122.395 367.101 121.665 366.116 120.345C365.303 119.256 364.907 118.004 364.012 116.95C363.242 116.045 362.368 115.219 361.547 114.361C360.51 113.277 359.744 111.96 358.664 110.93C358.82 111.079 357.725 110.211 357.78 110.238C357.537 110.115 356.755 110.015 356.869 110.083C355.24 109.125 353.198 105.619 350.746 107.477C349.456 108.454 350.075 110.245 350.975 111.218C351.362 111.636 353.372 113.697 353.806 112.828C354.275 113.492 355.718 116.703 356.919 115.783C356.796 116.881 357.432 116.516 357.852 117.258C358.128 117.748 357.993 117.988 358.195 118.752C358.748 120.852 360.861 122.904 361.986 124.735C364.787 129.293 367.876 133.617 370.679 138.18C373.351 142.53 376.342 146.657 378.905 151.065C381.82 156.077 385.452 160.808 387.648 166.212C387.722 166.393 388.332 166.681 388.484 166.954C388.748 167.428 388.691 168.247 388.861 168.784C389.45 170.645 390.406 172.477 391.494 174.018C392.449 175.371 392.518 177.209 393.175 178.795C394.101 181.031 395.08 183.244 395.98 185.491C397.381 188.989 398.33 192.341 399.299 195.993C399.926 198.36 400.425 200.725 400.625 203.169C400.809 205.416 400.854 207.757 401.685 209.885C402.253 209.009 402.921 207.874 402.539 206.789Z" fill="black"/>
<path fill-rule="evenodd" clip-rule="evenodd" d="M82.0527 254.944C81.0459 254.741 80.0985 254.469 79.8852 253.313C79.7391 253.858 79.5934 254.404 79.4473 254.949C80.673 255.226 81.8992 255.504 83.125 255.781C82.8388 255.277 82.6298 255.061 82.0527 254.944Z" fill="black"/>
<path fill-rule="evenodd" clip-rule="evenodd" d="M84.754 65.2294C84.8304 64.9034 84.9292 64.5838 85.0511 64.2721C85.1339 64.576 85.5397 65.2333 85.3034 65.52C85.0025 65.8837 84.6981 65.6778 84.754 65.2294ZM89.6896 55.8387C90.02 55.9844 90.735 56.0125 91.1452 56.1357C90.0812 57.051 89.8939 56.7817 88.5181 56.6755C88.4569 55.7494 88.8333 55.4619 89.6896 55.8387ZM80.4667 78.7662C80.6093 78.7701 80.7524 78.7736 80.8959 78.7771C80.9046 78.3738 80.8942 77.971 80.8638 77.5687C82.3146 77.8856 81.4934 75.3504 81.0377 74.8249C82.453 74.8721 83.1424 70.3914 83.5907 69.5281C83.9888 68.7615 84.4397 68.4649 84.7306 67.5301C84.9851 66.7119 85.2605 65.9757 85.6277 65.2017C86.4715 63.4222 87.5785 61.8062 87.3743 59.7323C88.0892 61.2885 88.718 59.7349 89.1715 58.9909C89.9021 57.792 91.6846 56.2623 91.8741 54.8384C92.0415 53.5849 91.1101 53.5185 91.6599 52.356C92.2158 51.1793 92.6728 51.2972 93.6466 50.9209C94.2944 50.6702 94.4232 50.9746 94.8802 50.1569C95.1763 49.6274 95.0718 49.2329 95.4512 48.7988C95.6078 48.935 95.786 48.9914 95.9854 48.9679C96.2933 48.5617 96.4953 48.109 96.5912 47.6099C96.8422 46.9361 96.9636 46.3174 97.3417 45.6757C97.7003 45.0678 98.3368 43.4414 98.6741 43.1483C99.0323 42.8369 101.064 42.9952 101.055 43.0065C101.894 41.9511 100.354 40.8996 102.486 41.1221C102.065 40.3381 103.544 39.3651 103.974 38.929C105.046 37.8402 105.131 37.3364 105.358 35.9671C105.472 35.269 104.722 35.3496 105.728 35.1905C106.144 35.125 106.543 35.6566 106.843 35.5786C108.167 35.2352 106.781 35.3006 107.147 34.7608C107.262 34.5895 107.852 33.8984 107.846 33.9058C107.817 33.9405 107.979 33.3044 108.112 33.1409C108.365 33.1192 108.615 33.075 108.86 33.0082C108.984 32.7567 109.094 32.4992 109.19 32.2356C110.148 31.436 111.583 31.0783 112.246 30.1998C112.674 29.6318 112.546 29.0755 113.1 28.5093C113.628 27.9699 114.326 28.3605 114.431 27.1421C114.564 25.592 112.899 24.9022 112.217 26.4666C110.37 24.1915 102.65 32.5387 101.758 33.6291C97.8837 38.3631 94.0759 43.2142 90.8981 48.4489C87.8018 53.5497 85.2605 58.9168 83.2742 64.5426C82.3164 67.2552 81.7332 69.9556 81.1483 72.7614C80.9519 73.701 79.4841 77.8882 80.0951 78.8252C80.2187 78.8057 80.3427 78.7857 80.4667 78.7662Z" fill="black"/>
<path fill-rule="evenodd" clip-rule="evenodd" d="M385.415 194.857C386.068 194.422 386.068 194.422 386.182 193.599C385.307 193.758 385.307 193.758 385.415 194.857Z" fill="black"/>
<path fill-rule="evenodd" clip-rule="evenodd" d="M63.7595 250.194C63.7677 250.193 63.7737 250.195 63.7785 250.2C63.7647 250.182 63.7147 250.13 63.7595 250.194Z" fill="black"/>
<path fill-rule="evenodd" clip-rule="evenodd" d="M63.3227 250.635C63.5244 251.071 63.8484 251.179 64.2952 250.96C64.4713 251.211 62.7674 249.39 63.3227 250.635Z" fill="black"/>
<path fill-rule="evenodd" clip-rule="evenodd" d="M92.7745 51.748C91.752 53.7526 93.0326 52.2946 92.9671 52.9457C93.01 52.518 93.1874 51.9086 92.7745 51.748Z" fill="black"/>
<path fill-rule="evenodd" clip-rule="evenodd" d="M258.923 82.7586C259.366 86.3514 264.281 84.6521 265.387 82.479C266.192 80.8968 268.225 74.6448 266.038 73.3241C264.416 72.345 264.069 76.5647 263.67 77.5074C263 79.0861 262.476 77.9674 260.987 78.3724C259.343 78.8194 258.74 81.2688 258.923 82.7586Z" fill="black"/>
<path fill-rule="evenodd" clip-rule="evenodd" d="M253.553 76.1831C255.31 76.5734 257.032 76.3722 258.28 74.9847C258.971 74.2163 259.891 72.6923 258.646 71.9486C257.519 71.2753 256.24 72.8523 255.052 72.5262C253.437 72.0826 254.269 70.3509 253.715 69.207C251.679 70.3795 250.543 75.5145 253.553 76.1831Z" fill="black"/>
<path fill-rule="evenodd" clip-rule="evenodd" d="M255.375 85.2549C253.681 85.2514 253.667 87.3344 254.552 88.2272C255.398 89.0814 257.537 89.9459 258.684 89.2817C260.946 87.9705 256.746 85.3902 255.375 85.2549Z" fill="black"/>
<path fill-rule="evenodd" clip-rule="evenodd" d="M156.833 168.088C157.194 168.263 158.26 169.167 158.709 168.759C158.075 168.12 157.441 167.481 156.807 166.843C156.457 167.227 156.217 167.788 156.833 168.088Z" fill="black"/>
<path fill-rule="evenodd" clip-rule="evenodd" d="M148.83 76.7021C148.65 76.8366 148.469 76.9707 148.289 77.1047C148.897 77.6109 148.882 77.7615 149.494 77.2821C149.312 77.0427 149.091 76.8496 148.83 76.7021Z" fill="black"/>
<path fill-rule="evenodd" clip-rule="evenodd" d="M263.613 195.904C263.273 195.293 262.63 196.42 262.195 196.604C261.487 196.902 260.907 195.323 261.11 197.215C259.51 196.483 258.539 198.163 257.508 199.038C256.051 200.275 254.268 200.945 253.296 202.701C257.872 203.772 262.899 199.827 266.311 197.236C266.868 196.813 269.651 194.678 267.764 194.472C266.993 194.388 264.186 196.932 263.613 195.904Z" fill="black"/>
<path fill-rule="evenodd" clip-rule="evenodd" d="M262.257 192.2C263.154 191.494 261.22 191.43 260.914 191.355C260.941 191.917 260.966 192.478 260.993 193.04C261.426 192.777 261.847 192.497 262.257 192.2Z" fill="black"/>
<path fill-rule="evenodd" clip-rule="evenodd" d="M258.89 194.555C259.158 194.388 259.905 193.865 259.397 193.476C258.937 193.768 258.609 194.245 258.537 194.79C258.655 194.711 258.772 194.633 258.89 194.555Z" fill="black"/>
<path fill-rule="evenodd" clip-rule="evenodd" d="M184.784 149.024C184.211 149.249 183.954 149.604 184.014 150.091C184.895 149.911 184.727 149.08 184.784 149.024Z" fill="black"/>
</svg>
