<svg width="1920" height="462" viewBox="0 0 1920 462" fill="none" xmlns="http://www.w3.org/2000/svg">
<path fill-rule="evenodd" clip-rule="evenodd" d="M1253.3 256.808C1256.67 282.066 1260.04 307.323 1263.4 332.58L1266.13 352.977C1266.47 355.55 1266.14 360.627 1267.45 362.931C1267.91 363.744 1269.13 364.13 1270.02 364.609C1273.1 366.259 1276.17 367.909 1279.25 369.559C1305.25 383.514 1331.26 397.47 1357.26 411.426C1382.22 424.819 1407.18 438.212 1432.14 451.605C1434.72 452.992 1438.9 456.608 1441.68 455.655C1444.33 454.75 1447.04 452.516 1449.45 451.107C1454.07 448.401 1458.69 445.696 1463.3 442.99C1491.25 426.619 1519.2 410.247 1547.15 393.876C1558.68 387.121 1570.21 380.367 1581.74 373.612C1584.9 371.764 1588.05 369.916 1591.21 368.068C1592.86 367.101 1593.07 367.135 1593.72 365.495C1596.15 359.361 1597.27 352.335 1598.99 345.971C1600.89 338.958 1602.78 331.944 1604.67 324.931C1605.52 321.802 1605.12 321.398 1603.74 318.377C1601.02 312.398 1598.29 306.419 1595.57 300.44C1589.52 287.17 1583.47 273.9 1577.42 260.63C1574.98 255.263 1569.09 251.487 1564.85 247.54L1498.99 186.257C1497.32 184.7 1495.65 183.144 1493.97 181.587C1493.7 190.943 1491.85 201 1494.56 210.038C1499.01 224.87 1503.47 239.703 1507.92 254.535C1510.07 261.704 1512.22 268.873 1514.37 276.042C1514.77 277.374 1517.2 282.655 1516.55 283.827C1516.19 284.476 1513.12 285.133 1512.45 285.386C1509.59 286.474 1506.73 287.562 1503.87 288.65C1495.9 291.68 1487.93 294.711 1479.96 297.741C1472.79 300.468 1465.62 303.194 1458.46 305.919C1456.03 306.844 1453.17 308.556 1450.6 308.413C1448.31 308.285 1445.7 307.149 1443.47 306.577C1439.57 305.572 1435.66 304.565 1431.75 303.559C1424.08 301.583 1416.4 299.608 1408.73 297.631C1400.09 295.408 1392.8 288.879 1385.42 284.046C1372.72 275.739 1360.03 267.432 1347.34 259.126C1344.43 257.224 1344.42 256.139 1343.26 252.667C1340.66 244.864 1338.06 237.061 1335.46 229.257C1334.07 225.091 1332.36 220.907 1331.31 216.641C1329.58 209.602 1328.55 202.315 1327.18 195.197C1326.77 193.05 1326.35 190.902 1325.94 188.754C1320.63 190.91 1315.31 193.067 1309.99 195.223C1309.22 195.536 1305.47 196.467 1305.14 197.233C1304.92 197.717 1306.04 199.913 1306.2 200.385C1310.61 213.433 1315.02 226.481 1319.42 239.528C1320.81 243.632 1322.2 247.736 1323.58 251.841C1320.27 246.637 1316.96 241.433 1313.64 236.229C1311.04 244.981 1308.44 253.733 1305.83 262.485C1299.68 255.389 1293.53 248.293 1287.37 241.196C1285.25 248.293 1283.12 255.389 1280.99 262.485C1274.36 253.733 1267.73 244.981 1261.11 236.229C1260.32 240.796 1259.53 245.363 1258.74 249.93C1258.51 251.309 1258.55 255.264 1257.63 256.356C1256.88 257.254 1254.7 256.808 1253.3 256.808Z" fill="#FFAEAD"/>
<path fill-rule="evenodd" clip-rule="evenodd" d="M1672.84 311.406C1672.46 323.296 1672.72 338.729 1666.21 349.183C1665.16 350.87 1661.6 356.125 1661.21 351.502C1660.82 346.963 1661.93 342.468 1660.83 337.877C1660.23 335.42 1658.24 330.054 1654.84 332.273C1653.1 333.404 1652.65 336.197 1651.97 337.959C1650.96 340.567 1649.84 343.134 1648.78 345.722C1645.09 354.757 1641.27 365.538 1633.06 371.517C1634.13 363.726 1637.06 355.408 1635.09 347.533C1634.42 344.849 1632.39 339.949 1628.89 341.521C1625.48 343.053 1623.27 349.89 1621.67 352.934C1616.79 362.164 1611.8 371.221 1606.31 380.106C1603.54 384.575 1600.56 388.66 1596.95 392.483C1594.69 394.874 1591.87 398.916 1588.31 399.272C1588.31 392.457 1590.55 385.873 1592.6 379.456C1594.8 372.556 1596.81 365.596 1598.97 358.683C1600.85 352.686 1602.39 346.735 1603.64 340.585C1604.15 338.042 1604.56 335.408 1606.73 333.765C1608.68 332.289 1611.76 331.587 1613.94 330.502C1619.64 327.651 1625.51 324.576 1630.82 321.032C1632.99 319.578 1634.87 317.699 1637.15 316.394C1639.75 314.907 1642.17 313.656 1644.58 311.844C1654.94 304.026 1664.29 294.409 1670.59 282.961C1671.61 287.56 1672.97 292.055 1673.12 296.796C1673.27 301.657 1672.99 306.548 1672.84 311.406ZM1587.49 366.055C1585.83 363.255 1583.31 364.402 1581.08 365.752C1577.63 367.846 1574.16 369.925 1570.69 371.993C1563.62 376.201 1556.69 380.629 1549.79 385.097C1535.73 394.19 1521.19 401.631 1506.37 409.328C1492.05 416.766 1478.3 425.617 1464.88 434.564C1461.66 436.714 1458.45 438.915 1455.36 441.247C1452.61 443.317 1450.41 446.224 1447.52 448.066C1444.51 449.985 1442.43 448.428 1439.55 447.013C1435.95 445.244 1432.19 443.76 1428.51 442.164C1413.64 435.722 1398.74 429.035 1384.27 421.723C1369.9 414.457 1356.28 406.083 1342.51 397.767C1335.95 393.806 1329.5 389.595 1323.03 385.489C1316.15 381.119 1309.02 377.847 1301.8 374.132C1298.6 372.487 1295.77 370.256 1292.49 368.761C1289.04 367.191 1285.39 366.064 1282.3 363.798C1280.92 362.782 1279.75 361.568 1278.17 360.849C1276.87 360.259 1275.39 360.16 1274.11 359.533C1271.5 358.259 1270.75 355.672 1270.24 352.982C1266.99 335.711 1265.26 317.963 1263.38 300.5C1262.32 290.68 1261.14 280.898 1259.67 271.13C1259.01 266.726 1260.34 263.314 1261.04 259.03C1261.85 254.027 1262.17 248.918 1262.72 243.88C1265.29 248.645 1267.51 253.645 1270.79 257.993C1273.2 261.197 1277.32 265.741 1281.77 265.633C1288.67 265.467 1288.36 253.626 1288.64 248.926C1291.78 251.733 1292.74 256.305 1295.35 259.565C1297.73 262.542 1300.98 266.234 1304.64 267.567C1312.35 270.374 1311.6 256.071 1311.18 252.015C1310.97 249.98 1309.82 246.761 1312.54 247.689C1315.06 248.543 1317.5 252.085 1319.61 253.709C1323.26 256.518 1327.26 258.852 1331 261.533C1335.65 264.86 1340.66 267.264 1345.39 270.362C1348.35 272.3 1351.58 272.735 1354.81 274.16C1359.54 276.249 1363.72 279.361 1368.22 281.865C1377.14 286.82 1387.03 291.264 1396.78 294.252C1399.93 295.218 1404.14 297.943 1406.53 295.143C1408 293.42 1408.97 290.788 1410.22 288.856C1411.81 286.411 1413.49 284.03 1415.23 281.697C1421.44 273.408 1428.32 265.581 1435.97 258.59C1444.86 250.456 1454.59 243.137 1464.99 237.041C1469.46 234.422 1488.13 222.683 1492.23 230.945C1488.86 230.735 1485.93 231.968 1483.05 233.511C1482.35 233.888 1478.72 236.478 1479.57 234.195C1478.51 234.392 1477.59 235.766 1476.79 236.377C1475.41 237.433 1473.32 238.652 1471.72 239.527C1470.14 240.39 1468.19 240.602 1466.75 241.649C1466.23 242.032 1465.91 242.652 1465.41 243.066L1463.97 243.077C1463.76 243.872 1463.54 244.667 1463.33 245.463C1462.51 242.86 1461.36 246.245 1460 247.344C1459.18 248.005 1457.89 248.685 1456.93 249.112C1456.21 249.43 1456.1 248.689 1455.41 249.253C1454.79 249.753 1454.39 250.855 1453.73 251.483C1452.91 252.25 1451.86 252.847 1450.95 253.503C1449.21 254.759 1447.36 255.745 1445.59 256.936C1443.21 258.538 1441.97 261.294 1439.66 262.969C1438.56 263.763 1436.87 263.856 1436.27 264.364C1434.79 265.64 1435.28 267.573 1432.51 267.658C1432.76 268.061 1432.91 268.498 1432.96 268.97C1432.3 268.857 1431.72 268.583 1431.2 268.15C1431.32 270.91 1428.6 271.896 1426.98 273.596C1426.04 274.575 1424.87 275.952 1424.21 277.131C1424.1 277.328 1423.89 278.901 1423.84 278.923C1423.59 279.043 1422.06 277.7 1422.2 277.812C1421.78 280.363 1419.31 282.774 1418.23 285.135C1417.66 286.379 1417.08 288.379 1415.96 289.254C1415.65 289.491 1414.71 289.243 1413.94 290.07C1413.37 290.676 1412.71 291.796 1412.48 292.6C1412.32 293.137 1412.51 294.527 1412.29 294.849C1411.88 295.438 1411.25 294.846 1410.61 295.282C1409.44 296.087 1409.41 297.344 1407.69 297.51C1408.87 300.389 1416.03 301.277 1418.64 302.096C1425.99 304.411 1433.71 306.723 1440.59 310.268C1442.37 311.185 1444.06 311.941 1444.37 314.053C1444.81 316.993 1443.31 320.901 1443.03 323.87C1442.25 331.889 1442.09 340.143 1442.25 348.195C1442.41 355.822 1442.66 363.521 1443.01 371.139C1443.34 378.202 1444.77 385.125 1445.53 392.139C1445.74 394.064 1445.6 402.744 1448.92 402.307C1451.68 401.942 1449.93 396.013 1449.88 394.314C1449.77 390.552 1450.56 386.711 1450.53 382.916C1450.51 381.092 1451.31 379.52 1451.38 377.774C1451.46 376.049 1450.6 374.686 1450.86 372.898C1451.11 371.182 1456.18 361.312 1451.31 362.468C1451.59 361.057 1451.84 359.635 1452.22 358.244C1452.74 358.713 1453.16 359.26 1453.48 359.884C1453.91 356.853 1453.77 353.827 1454.04 350.794C1454.16 349.419 1454.71 347.914 1454.52 346.529C1454.56 345.955 1454.49 345.391 1454.31 344.839C1454.01 344.522 1453.63 344.355 1453.19 344.339C1452.96 343.58 1452.9 343.372 1453.31 342.627C1453.49 342.123 1453.84 341.808 1454.37 341.683C1455.37 341.564 1455.48 340.99 1454.71 339.961C1455.11 337.928 1455.16 336.645 1454.87 334.617C1454.63 332.913 1455.53 329.614 1454.61 328.097C1453.54 326.324 1453.01 328.044 1452.81 325.586C1452.77 325.065 1452.74 323.981 1452.95 323.462C1453.17 322.897 1453.86 323.129 1453.95 322.928C1454.55 321.562 1454.59 318.872 1452.47 319.106C1452.56 318.13 1452.64 317.154 1452.72 316.179C1454.25 317.939 1453.72 316.449 1454.58 315.47C1455.75 314.152 1456.9 313.925 1458.57 313.403C1463.02 312.015 1467.31 309.927 1471.66 308.232C1480.87 304.643 1490.25 301.439 1499.2 297.199C1518.01 288.278 1536.44 278.596 1555.37 269.911C1554.01 267.403 1554.85 267.281 1555.84 264.927C1557.16 265.842 1556.88 265.203 1557.82 265.147C1557.74 264.362 1557.98 264.125 1558.56 264.436C1559.01 264.576 1559.48 264.626 1559.96 264.585C1561.13 264.785 1562.09 265.43 1563.15 265.675C1563.5 265.932 1563.89 266.125 1564.31 266.255C1564.68 266.169 1565 265.983 1565.27 265.697C1566.99 266.016 1567.57 267.314 1567.65 269.193C1567.66 269.52 1566.66 269.855 1566.95 270.294C1567.45 271.062 1568.8 270.879 1569.57 270.977C1569.4 271.775 1569.23 272.571 1569.06 273.368C1572.44 271.808 1571.56 276.692 1572.59 278.297C1572.87 278.745 1573.51 278.387 1573.84 278.906C1574.27 279.583 1574.14 280.541 1574.51 281.216C1575.34 282.741 1576.18 282.555 1577.01 284.302C1581.34 293.42 1587.11 301.915 1591.28 311.229C1593.26 315.662 1595.05 320.171 1597.12 324.565C1599.02 328.609 1600.11 332.047 1598.75 336.464C1595.6 346.709 1592.24 357.14 1588.11 367.036C1587.91 366.709 1587.7 366.382 1587.49 366.055ZM1367.91 442.526C1367.61 443.029 1367.32 443.531 1367.02 444.034C1366.37 440.263 1368.11 442.012 1367.91 442.526ZM1354.02 435.464C1353.08 435.181 1353.48 433.636 1353.52 432.975C1354.11 433.721 1354.7 434.481 1355.2 435.3C1354.81 435.355 1354.41 435.409 1354.02 435.464ZM1315.97 420.965C1316.96 420.408 1317.67 420.007 1318.8 419.376C1317.66 421.607 1317.66 421.607 1315.97 420.965ZM1256.1 224.44C1254.58 228.166 1259.21 251.17 1254.9 251.92C1254.28 249.901 1254.2 244.342 1251.64 243.679C1248.47 242.855 1248.78 248.578 1248.35 250.348C1241.83 245.814 1238.93 237.058 1235.82 230.12C1231.84 221.275 1228.72 212.077 1225.74 202.861C1223.19 194.982 1221.08 186.964 1218.5 179.098C1216.88 174.157 1215.13 169.205 1214.05 164.112C1213.81 163.006 1212.88 160.201 1213.67 159.149C1214.82 157.62 1218.96 159.371 1220.29 159.773C1228.94 162.374 1237.91 163.494 1246.8 165.006C1256.67 166.684 1266.52 168.419 1276.46 169.721C1278.94 170.046 1281.42 170.354 1283.91 170.653C1285.52 170.847 1287.96 170.653 1289.49 171.375C1292.59 172.837 1293.25 178.428 1294.4 181.329C1298.69 192.153 1303.74 202.634 1308.26 213.36C1312.34 223.021 1315.42 233.3 1321.28 242.098C1316.91 240.163 1311.38 229.936 1306.5 235.831C1304.4 238.366 1304.93 241.705 1305.1 244.739C1305.34 249.124 1305.42 253.543 1305.42 257.935C1300.64 256.696 1297.44 251.279 1294.93 247.442C1291.51 242.201 1289.35 237.263 1287.83 231.255C1287.18 228.654 1285.44 228.589 1283.89 227.032C1282.9 226.031 1282.4 224.683 1280.97 226.139C1279.18 227.968 1280.37 233.034 1280.68 235.194C1281.42 240.334 1283.83 248.244 1281.48 253.074C1278.32 259.592 1269.85 243.192 1268.85 240.823C1268.35 239.617 1259.33 216.494 1256.1 224.44ZM1250.18 112.737C1250.71 112.818 1251.24 112.9 1251.78 112.982C1251.35 113.361 1250.45 114.693 1249.72 114.341C1249.87 113.806 1250.02 113.272 1250.18 112.737ZM1278.45 106.672C1278.29 106.855 1278.12 107.038 1277.95 107.222C1277.19 106.266 1277.46 104.871 1277.46 103.765C1278.47 104.376 1278.72 105.598 1278.45 106.672ZM1280.74 117.285V120.411C1278.62 119.493 1278.58 119.019 1280.74 117.285ZM1283.31 121.26C1281.83 120.853 1281.65 120.524 1281.86 118.243C1282.48 119.521 1282.88 120.363 1283.31 121.26ZM1291.86 144.416C1291.24 146.017 1287.6 142.202 1287.74 141.06C1287.86 139.97 1288.42 139.645 1289.19 140.346C1289.45 140.578 1289.07 141.416 1289.23 141.707C1289.82 142.76 1291 143.622 1291.86 144.416ZM1291.9 154.061C1290.99 156.336 1289.37 152.753 1291.75 152.655C1291.9 153.113 1291.96 153.581 1291.9 154.061ZM1290.13 150.474C1289.78 150.003 1289.44 149.526 1289.11 149.041C1290.33 149.289 1291.31 151.076 1292.6 149.883C1292.45 151.701 1291.16 151.752 1290.13 150.474ZM1210.8 120.922C1208.83 118.769 1221.69 117.259 1223.24 116.889C1234.51 114.204 1245.14 110.32 1255.67 105.553C1260.7 103.279 1265.69 100.978 1270.6 98.4575C1272.72 97.3696 1275.62 96.4471 1277.39 94.8135C1278.65 93.6476 1278.6 92.7655 1280.25 92.0708C1281.64 91.4825 1281.71 92.0381 1282.35 90.9737C1282.73 90.335 1283.16 87.9946 1282.94 87.302C1282.33 85.4123 1281.42 86.9444 1280.16 85.6422C1279.24 84.7033 1279.46 82.0337 1279.71 80.9281C1280.04 81.4546 1280.22 82.0266 1280.27 82.6426C1281.65 81.9642 1281.09 79.6344 1282.6 79.2526C1284.19 78.851 1284.02 80.0865 1284.44 81.3496C1285.64 79.5897 1284.67 78.0888 1284.02 76.3701C1287.32 75.7527 1290.87 75.1545 1294.14 76.2516C1296.5 77.0443 1298.53 78.9936 1301.02 79.3704C1303.47 79.7387 1303.94 78.5799 1305.74 77.404C1307.21 76.4496 1308.46 77.5736 1309.22 76.8527C1308.75 79.2867 1304.76 78.9539 1305.25 81.9954C1305.47 83.3643 1307.15 84.5941 1307.91 85.6592C1308.87 86.9962 1309.64 88.4744 1310.29 89.9809C1312.83 95.8411 1313.92 102.642 1314.98 108.908C1317.62 124.377 1317.95 140.151 1320.42 155.669C1321.6 163.061 1322.79 170.456 1323.4 177.92C1323.55 179.787 1324.69 184.02 1323.76 185.815C1322.97 187.331 1321.21 187.335 1319.67 187.702C1316.66 188.418 1313.83 189.391 1310.94 190.469C1308.35 191.435 1307.59 192.027 1305.93 189.59C1304.32 187.231 1303.52 184.419 1302.37 181.833C1300.9 178.538 1299.13 175.359 1297.43 172.181C1300.77 172.181 1302.7 170.378 1302.61 166.983C1302.51 163.224 1299.42 162.332 1298.14 159.242C1296.9 160.852 1296.8 160.898 1295.91 159.369C1294.9 157.621 1294.22 154.423 1293.6 152.44C1294.04 152.912 1294.49 153.384 1294.93 153.855C1296.04 152.321 1294.3 149.903 1293.71 148.458C1292.81 146.227 1292.65 143.815 1291.8 141.59C1291.33 140.376 1290.25 139.42 1289.99 138.153C1289.81 137.305 1290.52 136.498 1290.35 135.637C1290.06 134.139 1288.36 132.531 1287.83 131.006C1287.02 128.662 1286.14 126.597 1285.13 124.313C1283.77 121.221 1284.09 117.977 1283.84 114.686C1283.58 111.274 1282.49 108.01 1282.1 104.613C1281.83 102.266 1282.67 99.3112 1280.89 97.4314C1280.68 100.556 1281.58 100.508 1278.64 101.07C1275.3 101.709 1272.87 104.199 1269.71 104.942C1269.06 105.095 1268.59 102.25 1268.84 106.131C1267.32 105.012 1264.09 106.402 1265.29 107.066C1264.38 108.045 1262.58 107.368 1262.28 108.834C1259.17 105.811 1254.18 116.099 1250.47 110.733C1249.86 114.37 1247.23 116.52 1243.69 117.001C1241.91 117.242 1240.82 117.835 1239.24 118.368C1238.92 118.475 1238.8 118.935 1238.42 119.06C1237.84 119.248 1236.99 118.679 1236.57 118.789C1235.72 119.015 1234.78 120.133 1233.59 120.355C1232.23 120.609 1230.75 120.492 1229.39 120.335C1227.68 120.138 1226.94 119.936 1225.27 120.497C1223.77 121.001 1222.16 122.414 1220.77 120.876C1218.59 124.656 1213.37 123.732 1210.8 120.922ZM1311.86 75.3042C1310.2 75.1062 1311.35 73.6841 1312.12 73.2569C1314.2 72.0974 1313.65 75.5185 1311.86 75.3042ZM1220.26 88.8696C1229.97 74.8685 1246.58 65.2487 1261.19 57.1546C1269.17 52.7336 1277.32 48.4481 1285.7 44.8296C1289.86 43.0314 1294.08 41.3028 1298.33 39.7231C1300.61 38.8794 1302.91 38.1122 1305.21 37.3487C1305.84 37.1379 1307 36.4907 1307.67 36.5539C1307.55 36.5425 1309.32 37.0237 1308.97 37.1748C1310.11 36.6788 1310.66 35.3851 1312 34.8678C1313.5 34.2859 1315.42 34.0453 1317.04 33.9928C1318.46 33.946 1319.7 34.5357 1321.06 34.5818C1321.95 34.6116 1322.71 34.1872 1323.59 34.1248C1324.04 34.0936 1324 34.7635 1324.27 34.8025C1324.38 34.8195 1325.58 34.3717 1325.59 34.3796C1326.02 34.6584 1326.41 35.747 1326.8 36.1721C1327.93 37.3912 1329.58 38.2407 1331.08 38.8822C1332.91 39.6628 1337.37 40.4476 1335.3 43.3359C1336.77 43.1251 1337.45 44.4507 1335.61 44.7864C1334.62 44.9687 1334.19 44.0576 1333.45 43.4359C1331.74 42.0025 1327.6 39.9615 1325.14 40.0538C1323.76 40.1056 1322.69 41.1552 1321.41 41.5362C1320.16 41.9109 1319.53 41.3297 1318.43 41.422C1317.14 41.5291 1316.32 42.6184 1315.09 42.8122C1313.94 42.9938 1313.3 42.2104 1312.27 42.265C1311.05 42.3296 1309.87 43.3898 1308.7 43.746C1306.85 44.3123 1305.48 44.6984 1303.67 45.6372C1300.17 47.4574 1296.25 48.1486 1292.63 49.7155C1289.74 50.968 1286.46 51.6272 1283.79 53.0125C1280.81 54.5516 1277.82 56.0852 1274.91 57.7578C1272.81 58.9663 1268.53 59.3821 1266.21 59.0749C1266.18 63.3455 1264.07 60.3515 1261.95 62.2221C1262.45 62.6642 1263.02 62.9892 1263.66 63.1971C1261.36 64.114 1259.24 65.2551 1257.02 66.3089C1254.72 67.3989 1252.26 67.6388 1250.75 69.7002C1249.36 71.5999 1249.83 70.6199 1247.75 71.3679C1246.8 71.7113 1245.97 72.7588 1245.29 73.462C1244.11 74.6712 1243.85 76.5021 1243.17 74.017C1242.97 74.32 1242.2 76.2495 1242.05 76.2984C1241.21 75.4029 1241.09 76.4645 1240.61 76.8441C1240.86 77.6694 1240.51 78.2102 1239.55 78.4664C1239.06 78.8269 1238.57 79.1803 1238.08 79.5258C1236.28 80.7741 1233.98 81.8449 1232.72 83.7049C1231.78 83.1535 1231.43 82.2019 1232 81.2304C1230.22 82.8767 1228.08 84.5678 1227.6 87.1019C1227.38 86.8876 1227.12 86.7329 1226.83 86.6378C1226.1 87.1275 1227.04 88.5865 1227.5 88.915C1229.51 88.1359 1227 88.4183 1228.35 88.5439C1228.74 88.5794 1229.13 88.8668 1229.55 88.8717C1230.8 88.8881 1231.97 88.8285 1233.2 88.639C1235.92 88.2203 1238.59 87.4404 1241.22 86.6584C1244.08 85.8068 1246.95 84.9567 1249.75 83.9121C1252.06 83.052 1254.33 82.0933 1256.6 81.1381C1257.5 80.7564 1258.41 80.3696 1259.31 79.9907C1261.04 79.2711 1261.95 78.0888 1261.71 80.1141C1263.08 79.8863 1264.27 77.9476 1265.32 77.1564C1266.8 76.0444 1268.47 75.2148 1270.23 74.6471C1270.94 74.4172 1271.46 74.1248 1272.2 74.1227C1272.56 74.122 1272.77 75.1382 1273 75.0828C1274.58 74.701 1273.86 73.8282 1274.57 72.5707C1276.12 69.8223 1280.29 68.3023 1282.85 66.7411C1284.48 65.7497 1285.64 64.4163 1287.14 63.3185C1287.84 62.8054 1288.35 62.5783 1289.09 62.3612C1289.65 62.1944 1290.34 63.4888 1290.71 62.188C1289.4 61.6523 1288.32 60.9916 1287.06 60.6006C1286.16 60.3231 1287.23 59.3743 1285.82 59.9392C1285.25 60.1663 1285.06 61.2648 1284.85 61.7246C1283.27 60.3146 1278.83 61.7757 1276.95 62.3662C1276.82 62.4066 1276.24 62.1015 1275.97 62.1199C1274.89 62.1923 1274.14 63.6478 1273.42 64.2751C1271.53 65.942 1269.48 66.6389 1267.14 67.5905C1267.77 64.202 1272.33 62.8139 1274.99 61.516C1278.88 59.6184 1282.5 57.1965 1286.76 56.176C1289.6 55.4955 1293.36 54.9483 1294.58 58.2453C1295.31 60.2216 1295.41 65.1316 1292.93 66.0435C1292.66 65.121 1293.5 64.3326 1293.76 63.5321C1291.29 64.4745 1290.88 67.44 1289 68.9878C1287.95 69.8571 1287.57 70.136 1287.06 70.9762C1286.56 71.8107 1286.31 72.5892 1285.13 73.4769C1283.19 69.3603 1283.52 74.9991 1282.53 75.7066C1282.93 75.422 1280.93 76.253 1281.17 76.165C1281.08 76.1991 1280.21 74.7897 1279.64 74.8195C1278.61 74.8735 1278.81 76.0039 1278.32 76.5731C1276.64 78.499 1274.47 79.7622 1271.77 79.4591C1271.71 80.8295 1272.13 82.4666 1270.26 82.5915L1270.01 79.5535C1269 80.5839 1267.65 81.5625 1266.82 82.7554C1265.88 84.1129 1265.98 84.9489 1264.42 85.8537C1262.78 86.7996 1259.3 88.6631 1257.35 88.8242C1257.84 88.1415 1257.75 87.5249 1257.1 86.9756C1256.12 87.9847 1254.68 88.0841 1253.63 88.9952C1257.25 90.506 1250.85 90.428 1250.04 90.599C1249.5 90.714 1249.02 91.2086 1248.47 91.32C1247.74 91.4683 1247.65 90.7005 1247.02 90.9439C1246.1 91.3001 1246.47 92.3057 1245.51 92.8109C1244.82 93.1743 1243.65 93.1693 1242.87 93.5142C1241.01 94.3374 1237.05 96.1604 1235.79 93.9492C1235.15 97.7429 1228.65 95.4337 1226.24 95.1783C1222.94 94.8284 1217.2 93.2814 1220.26 88.8696ZM1234.11 50.054C1234.57 49.6559 1235.04 49.685 1235.51 50.142C1234.86 46.7088 1239.89 45.0418 1242.08 43.5821C1244.99 41.6462 1248.42 37.8901 1252.23 38.1875C1251.58 38.6686 1250.93 39.1497 1250.28 39.6309C1251.21 39.7508 1252.13 39.8707 1253.06 39.9906C1252.54 40.757 1252.02 41.5227 1251.49 42.2884C1250.64 37.5793 1246.18 43.5246 1244.89 44.3911C1243.59 45.2632 1242.29 45.9133 1241.14 46.977C1239.99 48.0308 1238.96 49.9284 1237.07 48.9803C1236.89 51.6698 1234.73 50.9403 1233.23 52.4298C1233.17 51.4953 1233.71 50.8346 1234.11 50.054ZM1253.87 36.6284C1258.47 34.9047 1262.48 31.7177 1266.82 29.4412C1270.96 27.2662 1275.19 25.3133 1279.41 23.2844C1281.54 22.2547 1285.46 19.5922 1287.9 20.949C1291.2 22.7813 1286.66 23.3724 1285.48 24.0068C1285.04 21.1853 1283.52 23.7414 1284.43 25.3111C1281.91 24.2254 1276.43 28.4733 1274.03 29.6449C1273.48 29.9103 1273.73 30.0636 1273.11 30.3758C1272.96 30.4524 1271.38 30.8108 1270.93 30.9619C1268.67 31.7177 1267.19 31.1174 1266.21 33.8431C1266.01 33.2016 1265.8 32.5593 1265.6 31.9171C1264.19 35.0913 1259.89 36.4808 1257.14 38.3578C1256.43 38.8417 1254.41 40.7187 1253.51 40.3306C1252.26 39.7898 1252.76 37.0435 1253.87 36.6284ZM1336.93 46.1985C1338.87 46.327 1337 47.2332 1337.53 47.8321C1337.47 47.7647 1338.7 48.8142 1338.54 48.5261C1338.76 48.9136 1339.28 48.8994 1339.54 49.6871C1340.46 52.3958 1336.45 55.1946 1335.1 56.7317C1332.46 59.7213 1330.94 63.5073 1328.2 66.4011C1326.96 67.7083 1325.73 68.6109 1324.01 69.0985C1322.81 69.4398 1321.54 69.0743 1320.43 70.2296C1319.54 71.16 1319.74 71.6886 1318.76 72.1833C1317.03 73.0554 1316.26 72.2904 1314.58 74.1752C1313.13 70.2339 1317.3 70.2403 1319.47 68.0376C1322.47 64.9968 1325.76 61.929 1328.58 58.6761C1331.08 55.7857 1332.08 53.2516 1333.27 49.7403C1333.64 48.6333 1334.05 46.2596 1335.08 45.5648C1336.69 44.4833 1335.72 46.1183 1336.93 46.1985ZM1346.48 148.585C1351.58 142.885 1357.91 137.767 1364.76 134.334C1367.21 133.106 1370.7 131.495 1373.24 133.385C1375.73 135.237 1375.19 138.932 1374.19 141.446C1373.23 141.068 1374.14 137.536 1373.64 136.663C1372.55 134.758 1370.2 135.769 1368.6 136.408C1366.73 137.156 1365.06 137.982 1363.57 139.34C1362.97 139.89 1361.82 140.383 1361.43 140.761C1360.85 140.52 1360.51 140.696 1360.41 141.286C1360.53 141.648 1360.51 142.004 1360.37 142.355C1360.28 142.466 1359.53 142.009 1359.42 142.101C1358.93 142.519 1358.48 143.011 1358 143.399C1357.03 144.179 1356.21 144.548 1355.32 145.635C1353.61 147.736 1351.34 148.967 1349.61 150.969C1349.22 151.422 1348.76 152.582 1348.67 152.684C1347.8 153.7 1346.51 154.504 1345.53 155.58C1343.83 157.438 1342.01 158.686 1340.05 160.28C1339.21 160.965 1338.22 161.704 1337.66 162.658C1337.41 163.093 1337.26 165.477 1337.25 165.487C1335.33 167.593 1335.71 163.359 1335.85 162.829C1337.41 157.117 1342.69 152.828 1346.48 148.585ZM1335.99 187.208C1336.23 188.105 1336.43 188.847 1336.67 189.757C1335.14 188.507 1335.14 188.507 1335.99 187.208ZM1334.34 190.146C1333.78 190.71 1333.22 191.271 1332.65 191.828C1331.41 190.51 1334.57 189.92 1334.34 190.146ZM1333.55 167.465C1332.96 169.876 1330.77 172.799 1329.27 174.702C1329.44 174.492 1327.99 174.914 1327.83 175.01C1327.29 175.32 1328.57 177.325 1326.72 176.429C1326.06 176.801 1327.36 178.315 1326.46 178.993C1323.88 173.113 1330.93 168.02 1333.66 163.655C1334.99 164.88 1333.89 166.113 1333.55 167.465ZM1316.79 199.252C1318.67 199.736 1319.65 199.432 1320.92 197.584C1321.68 196.474 1321.96 194.508 1323.71 196.169L1324.02 194.033C1326.51 195.056 1326.3 198.752 1327.39 200.8C1327.92 198.483 1329.18 192.01 1333.02 193.048C1337.34 194.214 1330.15 201.636 1329.49 203.454C1328.02 201.177 1328.6 203.295 1327.48 203.616C1326.52 203.892 1325.02 203.185 1323.85 203.249C1320.3 203.442 1317.18 205.038 1313.93 206.39C1313.11 204.177 1312.29 201.963 1311.47 199.75C1313.38 199.897 1317.33 194.816 1317.89 198.509C1316.47 198.263 1316.07 198.325 1315.38 199.614C1315.82 199.39 1316.29 199.27 1316.79 199.252ZM1324.76 228.142C1324.75 228.124 1328.43 228.351 1328.76 228.231C1331.28 227.312 1330.34 224.458 1330.86 222.441C1331.9 223.394 1331.35 225.135 1331.67 226.369C1332.04 227.82 1333.13 229.056 1333.23 230.607C1333.46 234.112 1330.58 233.334 1328.4 234.468C1326.54 235.438 1326.33 236.657 1324.76 234.045C1324.33 233.338 1323.42 231.496 1323.51 230.592C1323.6 229.697 1325.02 228.952 1324.76 228.142ZM1327.72 243.308L1326.7 242.169C1329.74 243.097 1327.95 241.702 1328.65 239.796C1330.97 241.344 1332.87 242.936 1334.71 239.835L1337.89 252.658C1335.75 253.161 1333 249.862 1331.53 248.728C1330.69 248.073 1325.99 245.551 1328.81 244.816C1328.45 244.313 1328.08 243.811 1327.72 243.308ZM1348.48 203.042C1346.72 204.72 1344.94 205.66 1343.02 206.979C1341.33 208.137 1341.91 209.466 1340.45 210.758C1339.48 211.617 1337.2 212.491 1336 213.146C1333.87 214.313 1331.96 214.535 1329.76 213.229C1330.36 218.041 1327.06 218.418 1322.95 219.371C1321 219.826 1319.84 220.52 1318.43 218.729C1317.46 217.502 1317.08 215.282 1318.28 214.16C1320.19 212.377 1325.28 212.993 1327.73 211.871C1329.59 211.021 1331.48 206.231 1333.77 207.974C1332.59 206.09 1333.97 205.583 1335 204.239C1336.12 202.767 1336.82 201.045 1337.98 199.585C1340.2 196.809 1343.6 194.016 1346.74 192.342C1349.51 190.87 1350.97 191.912 1351.38 195.005C1351.59 196.56 1351.58 198.876 1350.71 200.255C1350.43 200.695 1349.52 200.7 1349.24 201.113C1348.75 201.835 1349.2 202.362 1348.48 203.042ZM1380.97 165.72C1383.18 167.429 1382.96 171.02 1383.31 173.465C1383.8 176.912 1383.44 180.247 1383.39 183.758C1383.33 187.436 1381.53 189.832 1380.68 193.279C1379.74 197.114 1378.52 199.145 1376.4 202.363C1378.7 202.724 1375.28 209.582 1374.71 210.47C1374.1 211.434 1369.17 215.874 1371.28 215.874C1370.11 217.413 1368.84 218.992 1367.68 220.488C1367.22 221.077 1366.42 221.308 1366.06 221.724C1365.32 222.569 1365.28 223.323 1364.75 224.309C1363.95 225.806 1363.69 225.406 1362.64 226.492C1361.92 227.242 1361.44 228.232 1360.73 228.951C1358.43 231.266 1358.14 229.37 1356.86 227.586C1356.66 228.064 1356.31 228.363 1355.81 228.485C1355.41 226.466 1358.18 224.428 1359.34 223.201C1361.24 221.192 1362.98 218.978 1364.67 216.78C1368.27 212.071 1371.52 207.068 1374.07 201.709C1376.79 196.005 1378.97 189.833 1380.1 183.611C1380.96 178.868 1381.77 170.733 1375.43 169.527C1370.82 168.65 1365.74 171.45 1361.94 173.717C1359.62 175.098 1357.29 176.471 1355.09 178.025C1352.69 179.709 1350.62 182.094 1348.02 183.446C1349.44 182.706 1344.75 184.932 1345.47 184.306C1345.13 184.598 1345.42 185.491 1345.2 185.895C1344.91 186.419 1343.9 186.937 1343.45 187.276C1342.26 188.172 1340.35 189.088 1339.81 190.567C1332.25 185.172 1347.29 175.595 1351.15 173.156C1358.8 168.318 1372.11 158.866 1380.97 165.72ZM1401.37 113.255C1401.3 109.37 1404.47 104.067 1406.6 100.899C1407.65 99.3488 1409.32 99.4105 1409.93 97.5818C1410.29 96.5287 1409.82 95.4245 1409.93 94.3672C1410.07 92.9373 1410.69 91.7905 1411.41 90.5614C1417.88 79.4506 1425.74 69.6165 1434.11 59.9229C1438.24 55.1442 1442.15 50.1817 1446.6 45.6926C1448.46 43.8177 1453.46 37.0776 1456.32 37.7517C1457.84 38.1087 1458.72 40.4186 1459.4 41.5973C1460.53 43.5466 1461.78 45.3725 1463.15 47.1651C1466.77 51.8976 1470.96 56.0518 1475.9 59.4063C1478.98 61.5025 1482.1 63.5399 1485.11 65.7362C1487.59 67.5437 1491.35 69.6101 1493.12 72.1478C1494.89 74.6861 1492.29 76.8356 1490.87 78.9432C1488.65 82.221 1486.62 85.6174 1484.4 88.8916C1483.52 88.2572 1483.74 86.9685 1483.14 86.156C1482.6 85.4357 1481.84 85.1426 1481.1 84.6977C1479.68 83.8468 1478.29 82.8065 1477 84.2322C1474.76 86.7272 1477.85 92.625 1481.17 91.9778C1481.57 94.4403 1474.92 98.4958 1473.26 99.8512C1468.14 104.008 1462.87 107.622 1456.12 107.999C1453.39 108.15 1450.54 107.943 1447.95 107.029C1446.7 106.591 1445.33 105.99 1444.37 105.036C1443.23 103.893 1442.94 102.193 1441.83 101.062C1440.87 100.08 1439.55 99.9293 1438.59 98.9443C1437.63 97.9586 1437.16 96.4017 1436.77 95.1251C1436 92.6307 1435.86 90.0001 1435.13 87.5C1434.69 85.9963 1434.33 83.9859 1432.89 85.4307C1430.8 87.5298 1431.85 94.1301 1432.38 96.6451C1433.15 100.233 1434.94 103.125 1436.82 106.212C1438.85 109.561 1439.61 112.667 1439.97 116.542C1440.65 123.795 1442.74 130.755 1445.98 137.281C1447.34 140.029 1448.97 142.612 1450.45 145.297C1451.13 146.549 1452.68 150.823 1454.55 150.8C1457.54 150.763 1453.28 142.051 1452.69 140.589C1449.41 132.488 1446.29 123.974 1445.58 115.203C1450.28 116.411 1455.39 117.558 1460.25 116.792C1457.12 123.805 1460.39 130.787 1459.99 138.005C1459.79 141.625 1459.65 144.965 1459.72 148.574C1459.79 151.739 1458.36 154.903 1457.12 157.765C1454.67 163.448 1451.58 170.459 1447.02 174.813C1443.21 178.453 1438.11 178.737 1433.13 177.899C1421.8 175.992 1414.35 167.286 1409.6 157.4C1406.54 151.049 1404.21 144.269 1402.76 137.371C1401.08 129.388 1401.52 121.352 1401.37 113.255ZM1416.09 59.4567C1405.51 51.8103 1420.88 43.1272 1428.7 44.3095C1430.53 44.5862 1433.91 45.3441 1433.74 47.737C1433.6 49.6928 1430.33 51.8728 1429.08 53.0799C1425.51 56.5244 1421.87 63.6371 1416.09 59.4567ZM1493 229.355C1492.64 229.03 1489.68 229.828 1490.85 228.078C1491.82 226.624 1494.52 228.446 1495.51 228.82C1494.7 229.379 1493.99 230.244 1493 229.355ZM1448.98 321.834C1448.07 321.947 1447.12 319.497 1450.39 321.327C1449.92 321.496 1449.45 321.665 1448.98 321.834ZM1448.88 361.759C1448.99 362.857 1449.33 363.581 1448.55 364.379C1447.89 363.567 1447.81 362.421 1448.88 361.759ZM1450.21 378.255C1450.12 378.853 1450.02 379.45 1449.92 380.047C1449.17 379.665 1448.41 379.282 1447.65 378.899C1448.51 378.685 1449.36 378.47 1450.21 378.255ZM1451.14 364.345C1452.27 364.767 1451.74 363.419 1452.56 363.23C1452.85 364.632 1452.49 365.834 1451.69 366.991C1451.61 366.717 1451.2 364.366 1451.14 364.345ZM1479.95 264.801C1478.37 264.599 1478.13 266.27 1476.95 266.918C1476.19 267.337 1473.87 267.022 1473.44 267.823C1474.01 267.988 1474.58 268.153 1475.15 268.318C1473.85 269.022 1472.54 269.727 1471.23 270.431C1474.38 270.431 1477.65 268.93 1480.77 269.37C1482.09 269.557 1483.06 270.003 1483.89 271.076C1484.39 271.727 1484.83 272.775 1484.91 273.573C1485 274.436 1484.33 275.032 1484.45 275.443C1485.85 275.482 1485.69 277.789 1485.37 278.729C1484.69 280.768 1481.97 283.96 1479.53 282.667C1480.55 284.114 1480.29 284.94 1478.78 285.78C1478.92 285.302 1479.02 284.465 1478.25 284.548C1478.05 285.35 1478.12 286.622 1477.47 287.226C1476.74 287.902 1476.08 287.112 1475.38 287.552C1474.55 288.074 1474.8 288.894 1474.14 289.46C1473.28 290.208 1473.16 289.677 1472.12 289.822C1470.56 290.043 1471.56 289.071 1470.3 290.339C1469.87 290.776 1469.94 291.913 1469.24 292.553C1467.89 293.782 1464.28 295.062 1462.99 293.487C1459.88 298.414 1450.56 299.596 1446.22 295.706C1439.3 289.503 1452.2 276.888 1456.46 272.89C1460.74 268.878 1465.49 265.412 1470.29 262.067C1473.03 260.166 1475.83 258.441 1478.69 256.748C1480.45 255.703 1482.67 253.795 1484.84 253.978C1486.78 254.142 1488.45 255.651 1490.49 255.95C1491.98 256.165 1494.85 256.522 1492.98 258.53C1492.11 259.468 1488.68 260.985 1487.51 261.214C1486.82 261.348 1486.1 261.091 1485.42 261.23C1484.27 261.466 1483.48 262.438 1482.22 262.314C1482.62 264.173 1481.9 265.048 1479.95 264.801ZM1500.43 195.803C1500.43 197.257 1497.78 196.895 1497.22 196.401C1496.31 195.588 1496.28 193.158 1495.94 192.053C1497.48 192.442 1500.43 193.862 1500.43 195.803ZM1479.04 147.833C1484.62 143.251 1490.48 139.05 1496.68 135.35C1498.9 134.025 1502.04 131.353 1504.8 131.686C1505.95 131.827 1508.34 133.154 1507.47 134.618C1507.31 134.892 1506.02 135.002 1505.63 135.201C1505.17 135.426 1504.82 136.046 1504.4 136.353C1501.51 138.477 1498.03 139.782 1495.12 141.957C1492.73 143.743 1490.5 145.741 1487.93 147.274C1485.47 148.744 1482.89 149.674 1480.55 151.302C1480.59 151.269 1477.5 152.381 1478.11 152.583C1475.39 151.675 1478.26 148.475 1479.04 147.833ZM1516.23 146.127C1519.54 144.807 1522.78 143.205 1526.25 142.318C1527.98 141.875 1529.76 141.542 1531.55 141.742C1531.86 141.209 1532.26 141.091 1532.77 141.388C1533.17 141.996 1533.69 142.462 1534.33 142.788C1535.32 143.547 1538.96 144.54 1538.23 146.217C1537.75 147.326 1534.1 147.418 1533.1 147.667C1530.09 148.419 1527.27 150.109 1524.16 150.524C1523.87 150.563 1522.92 150.21 1522.91 150.212C1521.69 150.477 1520.68 151.735 1519.64 152.338C1517.4 153.636 1514.18 153.854 1512.56 156.094C1517.78 159.629 1522.31 156.123 1526.89 153.454C1529.64 151.856 1532.59 150.703 1535.59 149.678C1537.16 149.143 1538.74 148.587 1540.34 148.117C1540.99 147.877 1541.67 147.705 1542.36 147.599C1543.01 147.471 1543.47 147.705 1543.75 148.304C1545.67 148.241 1545.84 147.035 1547 149.284C1548.63 152.454 1546.13 152.293 1543.79 152.683C1540.53 153.222 1537.22 154.437 1534.02 155.243C1533.28 155.428 1526.8 156.931 1526.79 156.984C1526.5 159.029 1545.1 157.135 1546.7 156.829C1549.52 156.286 1552.54 154.747 1555.46 155.118C1557.7 155.403 1562.8 158.689 1559.23 160.871C1558.52 157.505 1556.11 160.285 1554.85 161.421C1553.17 162.934 1550.76 162.788 1548.46 163.381C1545.31 164.19 1537.24 167.225 1535 163.355C1535.71 166.747 1522.85 165.023 1521.09 164.911C1519.36 164.801 1517.14 165.167 1515.47 164.676C1514.39 164.356 1513.78 163.65 1512.76 163.491C1512.51 163.761 1512.21 163.945 1511.86 164.042C1511.34 163.78 1510.87 163.447 1510.46 163.043C1507.01 161.461 1501.69 160.587 1503.6 155.548C1505.4 150.795 1511.85 147.871 1516.23 146.127ZM1548.5 149.064C1548.59 148.768 1548.67 148.472 1548.76 148.175C1548.77 149.083 1550.94 149.47 1550.69 150.646C1550.13 153.25 1547.63 149.338 1547.42 148.911C1547.78 148.962 1548.14 149.013 1548.5 149.064ZM1561.72 153.39C1561.97 154.456 1564.85 156.727 1564.14 157.251C1563.01 155.708 1559.87 156.408 1561.72 153.39ZM1513.15 250.709C1514.2 248.619 1517.39 252.178 1517.06 248.61C1518.79 248.767 1517.71 250.085 1519.78 249.506C1520.56 249.288 1521.09 248.426 1522.04 248.227C1522.29 248.174 1523.38 248.261 1523.76 248.249C1525.01 248.211 1529.9 248.072 1526.53 246.435C1528.42 245.189 1528.65 245.821 1530.35 246.963C1529.92 244.603 1532.42 245.942 1533.59 246.237C1532.75 244.891 1534.82 243.459 1535.49 242.549C1535.25 243.95 1535.37 245.519 1537.4 244.623C1537.91 244.4 1537.79 243.41 1538.2 243.248C1538.93 242.952 1539.34 243.491 1539.6 243.46C1539.86 243.431 1540.41 243.577 1540.95 243.371C1541.66 243.105 1541.32 242.156 1542.22 242.015C1542.8 241.923 1543.23 242.782 1543.94 242.789C1544.31 242.792 1544.92 242.421 1545.2 242.44C1545.25 242.444 1545.59 241.604 1546.02 241.583C1546.65 241.553 1546.9 243.229 1547.13 243.555C1548.23 245.109 1549.69 246.123 1551.37 246.952C1548.33 249.739 1542.19 249.444 1538.37 250.383C1536.29 250.893 1534.53 251.627 1532.63 252.574C1532.17 252.871 1531.78 253.236 1531.45 253.668C1531.18 253.49 1530.91 253.312 1530.64 253.134C1529.61 253.198 1528.62 252.684 1527.45 252.881C1523.84 253.49 1521.01 256.195 1517.34 256.797C1515.7 257.068 1514.34 257.446 1513.27 256.017C1512.32 254.764 1512.48 252.042 1513.15 250.709ZM1508.2 234.052C1509.02 234.744 1508.03 236.996 1509.62 236.751C1510.74 236.577 1510.52 234.834 1511.4 234.464C1512.56 233.979 1513.26 235.13 1514.35 235.023C1516.38 234.823 1516.27 233.049 1514.55 232.27C1516.34 231.799 1516.91 233.909 1518.49 233.89C1520.57 233.865 1520.07 231.416 1521.84 231.01C1522.6 230.834 1522.35 231.958 1522.84 232.097C1523.84 232.376 1524.53 231.897 1525.41 231.476C1526.19 231.099 1526.75 230.371 1527.61 230.124C1528.01 230.011 1529 230.218 1529.29 230.008C1529.87 229.587 1530.38 227.945 1530.95 227.728C1530.84 227.772 1532.7 228.707 1532.97 228.795C1532.81 229.488 1532.43 229.57 1531.83 229.042C1531.83 230.607 1536.18 231.095 1535.29 229.161C1537.64 230.135 1535.89 230.636 1535.65 231.995C1535.56 232.541 1535.24 232.526 1535.34 233.104C1535.38 233.37 1536.61 233.141 1536.6 233.503C1536.49 235.839 1529.05 236.557 1527.64 236.763C1524.72 237.189 1521.95 237.907 1519.14 238.79C1517.04 239.448 1513.43 241.332 1511.2 241.215C1507.99 241.047 1507.57 236.863 1508.2 234.052ZM1501.03 210.221C1500.25 207.623 1502.76 202.257 1506.03 202.927C1506.83 203.092 1507.03 203.757 1507.65 204.053C1508.52 204.466 1509.94 204.249 1510.69 204.675C1512.38 205.632 1511.53 208.071 1513.23 208.953C1510.55 209.601 1502.27 214.35 1501.03 210.221ZM1504.13 220.315C1505.28 219.695 1507.15 219.616 1507.94 218.424C1508.33 218.695 1509.07 220.341 1509.77 220.089C1510.1 219.972 1510.44 219.08 1510.41 219.081C1511.04 219.063 1511.16 218.216 1512.12 218.311C1513 218.399 1513.98 219.454 1514.76 219.847C1514.63 217.233 1515.3 216.983 1517.42 215.584C1517.88 215.277 1518.27 214.126 1518.7 213.66C1518.29 216.404 1519.32 216.419 1521.52 216.831C1524.26 217.348 1525.98 218.822 1527.08 221.476C1524.74 221.019 1521.71 221.569 1520.79 224.084C1518.92 220.672 1512.13 225.381 1509.93 226.345C1508.3 227.061 1506.41 228.023 1505.04 226.355C1504.08 225.18 1504.63 223.766 1504.65 222.722C1504.65 222.395 1504.99 222.375 1504.96 221.887C1504.92 221.264 1504.11 221.015 1504.13 220.315ZM1529.13 273.978C1528.51 274.212 1525.32 274.343 1525.3 273.29C1525.29 272.359 1530.92 273.297 1529.13 273.978ZM1523.96 270.569C1521.55 272.053 1518.85 266.824 1517.97 265.318C1520.49 265.641 1521.73 263.529 1523.22 261.924C1524.63 265.025 1526.78 263.386 1529.04 262.351C1531.71 261.129 1534.63 261.12 1537.36 260.14C1538.22 259.834 1539 259.379 1539.83 259.03C1540.5 258.779 1541.17 258.522 1541.84 258.259C1542.31 257.833 1542.48 257.309 1542.34 256.687C1542.12 256.165 1542.27 255.835 1542.8 255.698C1543.43 255.886 1544.07 255.995 1544.72 256.024C1545.78 255.816 1547.29 254.823 1546.02 253.753C1547.38 252.516 1548.74 253.746 1550.06 254.287C1549.74 253.399 1549.43 252.512 1549.12 251.624C1549.77 251.9 1551.7 254.596 1551.9 254.582C1553.15 254.488 1553.02 252.814 1553.74 252.138C1554.15 252.648 1554.27 256.453 1555.9 255.171C1556.59 254.623 1555.09 252.757 1554.72 252.332C1556.59 252.752 1558.21 254.973 1558.71 256.698C1557.83 256.825 1557.01 256.648 1556.26 256.164C1555.78 258.565 1560.23 257.593 1560.95 258.847C1562.36 261.303 1553.19 263.009 1551.99 263.237C1549.6 263.693 1546.78 263.862 1544.59 264.922C1542.49 265.936 1541.99 266.226 1539.54 266.416C1536.74 266.633 1534 267.556 1531.3 268.274C1528.94 268.897 1526.04 269.284 1523.96 270.569ZM1575.14 182.651C1577.36 181.856 1584.8 177.728 1586.7 179.564C1586.5 179.369 1588.07 182.607 1588.05 182.403C1588.19 184.087 1588.15 184.765 1586.07 185.572C1584.59 186.149 1583.29 184.922 1581.96 185.409C1580.49 185.945 1581.52 186.893 1580.76 187.555C1579.93 188.281 1578.34 188.595 1577.31 188.913C1574.78 189.691 1572.24 190.342 1569.73 191.181C1564.63 192.887 1559.22 194.475 1553.97 195.683C1550.05 196.584 1543.39 198.826 1539.78 196.179C1539.43 197.684 1538.56 197.478 1537.37 197.697C1536.43 197.869 1534.73 198.334 1533.89 198.358C1532.5 198.398 1528.64 198.034 1529.17 196.086C1529.03 196.623 1532.18 194.786 1531.63 194.672C1532.97 194.954 1532.54 194.28 1533.63 193.906C1535.07 193.417 1536.56 193.443 1538.02 192.925C1541.71 191.619 1544.8 189.925 1548.69 189.106C1557.58 187.238 1566.57 185.735 1575.14 182.651ZM1218.96 383.898C1218.24 383.918 1217.68 381.873 1219.87 383.333C1219.57 383.522 1219.26 383.71 1218.96 383.898ZM1201.66 381.253C1200.68 381.503 1200.29 380.957 1200.49 379.615C1201.85 379.076 1202.24 379.621 1201.66 381.253ZM1188.3 378.514C1188.05 377.318 1188.94 377.048 1189.74 376.511C1189.66 378.096 1189.66 378.096 1188.3 378.514ZM1154.69 368.669C1153.34 368.372 1151.53 367.048 1151.22 369.27C1151 368.755 1149.84 366.336 1150.34 365.776C1150.6 365.483 1151.58 366.838 1151.47 366.704C1152.66 364.308 1154.7 367.199 1155.84 368.054C1155.46 368.259 1155.07 368.465 1154.69 368.669ZM1506.7 103.907C1507.17 102.919 1507.72 102.605 1508.35 102.967C1507.36 105.277 1503.99 106.53 1506.7 103.907ZM1530.12 82.2175C1530.96 83.7822 1529.7 84.4436 1528.81 85.7444C1529.33 84.3414 1529.69 83.3692 1530.12 82.2175ZM1631.92 234.962C1634.93 234.962 1641.34 233.373 1643.16 236.814C1644.36 234.475 1645.73 238.86 1646.77 239.564C1646.89 239.643 1647.64 239.069 1647.99 239.28C1648.51 239.599 1648.97 240.467 1649.27 240.983C1650.18 242.538 1650.57 244.388 1651.08 246.099C1645.82 246.099 1640.42 244.875 1635.17 244.43C1631.72 244.138 1628.33 244.129 1624.88 244.315C1624.19 244.352 1622.83 244.126 1622.24 244.255C1621.65 244.386 1620.56 245.6 1619.91 245.405C1620.93 247.322 1634.01 251.962 1635.01 249.84C1633.83 249.124 1631.2 248.575 1631.2 246.847C1631.21 244.91 1633.67 244.913 1634.97 244.97C1637.83 245.095 1642.61 246.045 1643.78 249.011C1644.28 250.283 1644.43 253.484 1643.88 254.712C1643.53 255.505 1642.92 256.458 1641.97 256.619C1641.58 256.685 1641.01 256.165 1640.95 256.177C1639 256.593 1635.37 258.164 1633.24 255.948C1631.7 257.94 1624.28 255.764 1622.01 255.013C1618.04 253.699 1612.57 251.894 1610.15 248.19C1607.21 243.675 1613.19 239.859 1616.63 238.024C1621.32 235.516 1626.68 234.964 1631.92 234.962ZM1651.96 245.401C1652.88 245.661 1653.81 245.923 1654.73 246.183C1654.48 247.801 1650.84 246.521 1651.96 245.401ZM1679.87 304.213C1680.15 297.731 1678.28 292.022 1677.19 285.752C1676.93 284.198 1677.2 281.481 1676.02 280.203C1674.89 278.981 1672.37 279.974 1672.27 277.814C1671.16 279.115 1671.27 279.387 1669.9 277.891C1670.15 278.532 1670.19 279.185 1670.01 279.849C1669.16 279.362 1666.08 277.745 1666.34 279.956C1663.81 279.396 1664.54 277.813 1663.1 276.604C1662.89 276.433 1662.07 277.042 1661.75 276.782C1661.17 276.312 1660.88 275.885 1660.39 275.279C1659.77 276.031 1658.92 276.575 1658.16 277.169C1657.71 276.206 1656.85 275.499 1655.82 275.265C1656.79 277.289 1659.18 279.911 1655.9 281.062C1653.94 281.749 1650.73 280.907 1648.66 281.067C1640.97 281.663 1632.54 279.988 1625.11 278.157C1617.47 276.277 1609.75 273.622 1602.88 269.741C1601.42 268.914 1600.5 267.935 1599.24 266.909C1598.01 265.911 1597.12 265.753 1595.65 265.115C1592.99 263.967 1590.57 262.126 1588.55 260.073C1584.21 255.66 1580.19 249.889 1581.39 243.427C1582.6 236.988 1587.03 231.955 1591.76 227.714C1597.36 222.705 1603.68 218.524 1610.39 215.152C1613.39 213.646 1621.06 207.984 1624.02 211.297C1625.91 213.413 1624.85 216.113 1622.26 216.583C1621.62 216.7 1620.96 216.272 1620.31 216.565C1619.38 216.988 1619.71 217.487 1619.32 217.84C1618.66 218.453 1617.95 219.408 1616.95 219.939C1613.48 221.791 1610.11 223.26 1606.79 225.516C1605.26 226.556 1603.78 227.003 1602.43 227.911C1601.09 228.813 1600.79 230.306 1598.98 229.385C1599.62 232.01 1595.76 234.822 1594.25 236.43C1591.9 238.921 1589.09 242.1 1590.18 245.786C1592.33 253 1602 258.479 1608.2 261.65C1615.93 265.607 1624.45 268.757 1633.05 270.061C1637.33 270.709 1641.75 271.109 1646.06 271.52C1649.42 271.84 1654.57 270.668 1656.98 273.689C1657.06 270.167 1668.07 270.477 1670.41 270.027C1665.71 253.978 1656.49 239.71 1646.63 226.379C1641.79 219.834 1637.04 213.104 1631.52 207.105C1625.48 200.537 1618.58 194.668 1612.03 188.624C1599.17 176.771 1584.63 166.193 1569.83 156.874C1555.07 147.577 1539.78 138.427 1523.61 131.798C1505.13 124.228 1485.69 119.248 1466.22 115.008C1468.86 111.644 1473.15 110.003 1476.54 107.542C1477.72 106.681 1479.32 104.613 1480.86 104.33C1482.52 104.024 1483.83 105.815 1485.02 106.714C1488.42 109.294 1490.78 108.199 1494.67 108.043C1497.01 107.95 1502.53 109.248 1503.51 106.095C1504.82 107.835 1502.92 109.23 1501.95 110.506C1502.66 111.491 1503.23 110.47 1503.93 110.316C1504.14 110.137 1504.36 109.959 1504.57 109.78C1504.92 109.279 1505.23 109.277 1505.51 109.771C1505.92 110.396 1506.34 110.258 1506.77 109.355C1506.88 109.282 1507 109.209 1507.11 109.137C1507.62 108.869 1508.1 108.444 1508.57 108.11C1512.11 105.58 1515.27 103.425 1519.18 101.561C1522.46 99.9974 1520.7 97.0049 1522.86 94.8916C1523.35 94.4133 1524.18 94.6532 1524.7 94.248C1525.21 93.8498 1525.29 93.3985 1525.66 92.972C1526.56 91.9466 1525.49 90.7565 1527.79 92.0119L1526.96 87.356C1531.46 91.7188 1531.44 79.1639 1532.06 77.3061C1531.97 77.5516 1532.46 75.6505 1532.46 75.6669C1532.59 71.8994 1533.11 69.1687 1528.69 68.9502C1530.36 67.8992 1530.87 69.9514 1531.65 67.8268C1532.03 66.7623 1530.83 64.9329 1532.75 65.6191C1533.15 63.3568 1532.75 61.5259 1532.25 59.3275C1531.73 57.0772 1532.04 55.5757 1532.06 53.3254C1532.09 50.7728 1530.89 48.2075 1530.51 45.694C1530.21 43.7255 1530.52 40.6208 1527.97 41.3439C1527.61 40.784 1528.87 39.0617 1528.82 38.2102C1528.74 36.8874 1527.3 35.5434 1526.9 34.2731C1526.3 34.8905 1525.45 35.0963 1524.64 34.8174C1525.4 33.0916 1524.69 32.5118 1523.95 31.0237C1523.54 30.1714 1523.79 29.2304 1522.89 28.6194C1522.38 28.2689 1521.5 28.8593 1521.1 28.4484C1520.23 27.5685 1520.55 26.4011 1519.95 25.2416C1519.21 23.7875 1517.5 22.677 1516.33 21.5855C1509.73 15.4507 1502.55 10.7622 1493.77 8.36503C1484.91 5.9466 1474.58 5.08013 1465.75 7.86971C1462.22 8.98454 1459.08 8.87029 1455.91 10.9524C1454.88 11.6279 1454.77 11.447 1454.24 12.5732C1454.12 12.8357 1455.22 13.5347 1454.55 13.9641C1453.82 14.4303 1453.01 13.4822 1452.64 12.6952C1448.04 16.0206 1443.74 20.4537 1441.12 25.5368C1438.52 30.588 1438.28 36.5219 1437.29 42.011C1432.7 36.7795 1426.51 34.2717 1419.77 36.7866C1413.9 38.978 1409.35 43.795 1408.2 50.0355C1407.5 53.8399 1408.27 57.6925 1409.99 61.125C1410.74 62.6081 1411.65 64.2502 1413.02 65.2487C1414.11 66.0378 1415.97 65.9271 1416.48 67.3506C1417.27 69.5313 1412.74 74.2412 1411.56 76.1501C1409.43 79.6046 1407.45 83.172 1405.95 86.9451C1400.55 79.3257 1395.39 71.0038 1389.25 63.9784C1383.46 57.3476 1376.56 51.4009 1369.78 45.7962C1355.73 34.1638 1341.12 23.2354 1325.4 13.9683C1310.76 5.33915 1293.08 0.548398 1276.02 2.2423C1259.35 3.89788 1246.59 14.4345 1235.86 26.587C1215.21 49.9532 1202.56 83.2571 1201.33 114.361C1200.96 123.705 1201.67 132.927 1203.98 141.989C1205.08 146.305 1204.92 150.549 1205.56 154.92C1206.28 159.85 1207.52 164.763 1208.73 169.593C1213.33 187.991 1219.18 206.376 1225.75 224.165C1229.16 233.416 1233.3 242.46 1238.89 250.617C1241.47 254.385 1244.82 257.333 1247.59 260.911C1250.29 264.381 1251 268.64 1251.6 272.898C1253.02 283.107 1253.96 293.36 1254.81 303.629C1255.18 307.982 1255.6 312.295 1256.18 316.617C1256.68 320.385 1255.42 320.2 1252.24 321.48C1252.89 318.094 1237.74 320.397 1236.3 320.629C1234.75 320.88 1233.1 320.883 1231.87 321.084C1230.5 321.306 1229.16 321.629 1227.58 321.584C1225.26 321.517 1220.92 320.925 1220.03 323.886C1219.42 320.453 1215.39 324.207 1218.37 323.569C1215.31 323.911 1212.19 323.342 1209.09 323.63C1205.55 323.96 1201.97 324.273 1198.44 324.807C1195.99 325.178 1193.65 326.123 1191.19 326.397C1188.05 326.748 1184.77 326.715 1181.59 326.995C1169.88 328.027 1157.74 330.581 1146.36 333.504C1143.78 334.166 1140.82 334.637 1138.35 335.7C1137.69 335.984 1137.1 336.62 1136.47 336.864C1135.41 337.273 1135.56 336.99 1134.61 337.177C1128.98 338.304 1123.16 340.143 1117.53 341.586C1114.4 342.388 1109.32 343.11 1106.77 345.291C1105.62 346.267 1104.62 347.999 1106.46 349.109C1107.92 349.996 1110.01 348.581 1111.19 347.816C1110.14 350.564 1108.15 351.934 1109.22 355.06C1110.07 357.531 1111.99 360.576 1114.93 358.982C1115.33 359.9 1115.49 361.725 1116.65 362.062C1117.69 362.365 1118.45 361.042 1119.47 361.354C1119.84 361.465 1119.7 362.157 1120.03 362.338C1120.59 362.649 1121.17 362.781 1121.81 363C1122.37 363.189 1123.27 363.577 1123.85 363.618C1124.22 363.644 1125.08 363.014 1125.08 363.014C1125.93 363.142 1126.38 364.761 1126.99 365.229C1127.78 365.836 1128.44 365.974 1129.43 366.194C1131.49 366.651 1134.14 367.435 1135.5 365.328C1135.19 366.832 1137.23 366.685 1138.14 366.876C1138.04 366.083 1137.6 365.357 1136.92 364.922C1138.94 365.055 1138.12 367.062 1139.62 367.592C1140.68 367.968 1140.56 367.01 1141.37 366.904C1142.44 366.764 1143.26 367.542 1144.93 366.825C1145.3 368.436 1145.43 370.061 1147.41 370.302C1148.57 370.443 1151.28 368.345 1151.13 370.091C1153.72 369.33 1154.71 369.845 1156.07 372.132C1156.29 370.728 1157.4 371.135 1158.42 371.048C1160.04 370.911 1160.08 371.041 1161.33 370.127C1161.44 370.044 1162.43 367.791 1162.86 369.191C1163.06 369.819 1161.76 371.295 1161.28 371.67C1161.88 371.972 1163.84 373.03 1164.59 372.836C1165.24 372.668 1165.24 371.554 1166.03 371.497C1165.83 372.137 1165.64 372.778 1165.45 373.418C1166.97 373.639 1168.25 372.62 1169.45 371.874C1170.6 374.773 1173.88 373.14 1175.66 375.322C1176.6 376.476 1176.65 377.353 1178.45 377.655C1180.29 377.964 1181.89 377.157 1183.46 378.673C1182.96 377.732 1181.73 376.952 1182.95 375.941C1183.79 377.125 1184.22 378.551 1185.18 379.653C1185.31 379.093 1185.45 378.533 1185.58 377.972C1188.09 380.655 1191.25 380.679 1194.46 382.166V380.203C1196.76 383.714 1196.89 381.492 1199.64 380.058C1199.45 381.09 1199.26 382.123 1199.08 383.155C1201.05 383.006 1202.9 385.349 1204.53 383.358C1205.51 385.003 1206.7 384.194 1208.31 384.716C1209.22 385.013 1209.9 385.913 1210.79 386.239C1212.13 386.727 1212.52 386.704 1213.78 387.129C1214.9 387.507 1215.53 388.242 1216.93 388.478C1217.84 388.631 1218.66 388.62 1219.53 388.578C1219.87 388.561 1219.75 387.806 1220.5 387.982C1221.65 388.256 1222.51 389.702 1223.34 390.443C1224.59 387.304 1228.09 391.509 1229.78 392.069C1229.95 391.264 1229.92 390.294 1230.5 389.633C1231.18 391.132 1231.44 392.391 1232.87 393.356C1233.69 393.913 1234.89 394.312 1235.84 394.516C1236.43 394.644 1237.52 394.49 1237.9 394.675C1238.54 394.989 1238.78 395.829 1239.43 395.908C1239.81 395.954 1240.37 394.951 1240.66 395.029C1241.96 395.385 1242.69 396.971 1244.01 397.829C1247.93 400.382 1252.87 400.629 1257.25 401.189C1258.34 401.329 1258.5 401.03 1259.39 401.673C1259.87 402.018 1259.65 403.064 1260.24 403.357C1262.44 404.461 1262.45 402.105 1262.91 400.641C1263.64 401.602 1263.76 402.872 1264.76 403.637C1265.3 403.621 1265.85 403.633 1266.39 403.674C1266.7 404.024 1266.9 404.427 1267 404.885C1268.32 405.776 1269.81 405.466 1271.18 406.136C1271.62 406.355 1272.42 407.681 1272.97 408.062C1273.95 408.745 1275.48 409.11 1276.6 409.406C1278.97 410.028 1282.36 409.202 1283.76 411.668C1285.63 409.668 1284.91 412.056 1286.17 412.558C1286.92 412.854 1288.05 411.676 1288.88 411.793C1290.37 412.003 1290.91 413.621 1291.39 414.797C1292.3 414.594 1291.67 412.02 1291.65 411.456C1292.78 411.322 1293.03 414.299 1293.22 414.953C1295.01 414.094 1292.08 411.419 1294 410.561C1293.82 412.84 1295.64 414.716 1292.4 415.043C1292.84 416.415 1303.31 417.94 1304.04 416.728C1304.2 418.968 1305.7 416.876 1306.26 416.109C1306.32 417.416 1305.87 419.27 1307.34 419.878C1308.34 420.29 1310.59 419.223 1310.98 418.247C1311.42 419.739 1312.17 419.69 1313.1 420.638C1313.74 421.288 1314.16 422.417 1314.83 422.962C1316.06 423.964 1318.36 423.811 1319.8 423.587C1322.61 423.148 1322.27 422.61 1323.28 425.531C1323.5 424.422 1324.21 422.104 1325.45 423.827C1326.24 424.922 1324.56 427.336 1324.08 428.297C1325.16 427.703 1326.24 426.997 1327.47 426.741C1327.54 427.121 1327.6 427.926 1327.42 428.278C1327.46 428.207 1328.77 429.088 1329.26 429.332C1329.14 429.273 1329.64 427.079 1329.63 427.151C1331.36 428.221 1330.16 430.267 1331.7 431.322C1332.09 431.595 1333.03 431.276 1333.5 431.443C1334.34 431.732 1335.06 432.515 1335.81 432.973C1335.21 432.178 1335.3 430.844 1335.34 429.926C1335.72 430.135 1335.99 430.915 1336.37 430.977C1336.51 431 1338.01 431.198 1338 431.191C1339.55 432.28 1339.23 432.417 1337.9 433.726C1338.37 434.476 1340.37 433.173 1340.91 432.957C1341.02 433.25 1341.05 434.314 1341.26 434.505C1341.39 434.82 1341.52 435.135 1341.65 435.45C1342.05 435.153 1342.47 435.054 1342.93 435.153C1343.22 435.253 1345.47 436.167 1345.62 435.854C1345.13 435.695 1344.68 435.451 1344.28 435.123C1345.58 433.956 1346.44 433.336 1347.63 435.021C1347.78 435.233 1347.26 435.995 1347.42 436.272C1347.99 437.302 1349.16 438.122 1349.96 438.961C1350.29 437.802 1349.52 434.901 1351.36 435.006C1352.82 435.09 1353.93 438.637 1353.43 439.74C1354.01 439.103 1357.49 438.471 1358.14 438.669C1360 439.231 1359.48 440.946 1361.76 438.434C1363.32 439.508 1361.94 439.914 1362.22 441.223C1362.64 441.309 1363.02 441.207 1363.39 440.918C1363.12 446.48 1367.22 442.23 1369.89 443.08C1370.94 443.413 1371.2 444.601 1372.33 444.948C1372.92 445.131 1373.58 444.697 1374.16 444.803C1374.62 444.737 1375.08 444.655 1375.54 444.558C1376.12 444.268 1376.39 444.592 1376.36 445.532C1377.29 446.014 1376.93 446.203 1378.02 446.297C1378.73 446.358 1379.37 445.628 1380.17 445.752C1381.54 445.968 1381.36 447.023 1382.24 447.575C1383.03 448.071 1383.92 448.055 1384.9 447.959C1385.39 447.91 1386.79 447.271 1386.95 447.269C1388 447.255 1387.43 447.033 1388.68 447.927C1389.65 448.624 1390.06 449.075 1391.26 449.396C1392.62 449.762 1395.05 450.565 1395.98 449.576C1397.22 451.441 1398.2 450.072 1399.84 450.195C1400.68 450.259 1400.81 450.586 1401.56 450.717C1402.77 450.928 1404.29 450.745 1405.58 451.159C1407.61 451.812 1407.84 452.14 1409.92 452.228C1410.29 452.082 1410.66 451.935 1411.04 451.788C1411.15 452.414 1411.45 452.924 1411.92 453.319C1413.09 453.563 1413.85 452.976 1414.81 452.334C1415.52 454.558 1417.84 454.752 1419.82 455.044C1423.02 455.516 1426.08 455.774 1429.16 456.825C1431.77 457.712 1434.38 458.708 1436.88 459.844C1439.09 460.844 1441.17 462.339 1443.66 461.638C1449.32 460.047 1454.79 454.247 1459.52 450.916C1465.12 446.972 1471.17 443.722 1477.02 440.176C1500.32 426.059 1524.94 414.116 1547.91 399.473C1560.45 391.479 1572.09 381.981 1585.56 375.513C1583.64 383.434 1580.38 391.474 1580.97 399.766C1581.21 403.108 1582.19 407.055 1584.78 409.388C1587.99 412.272 1591.56 410.436 1594.63 408.375C1601.2 403.96 1605.58 397.518 1610.49 391.469C1616.31 384.314 1620.82 376.625 1625.09 368.469C1626.11 369.905 1625.33 372.31 1625.35 373.902C1625.37 375.933 1625.92 377.89 1626.86 379.703C1629.29 384.382 1633.92 385.517 1638.1 382.311C1646.15 376.141 1650.82 365.152 1655.14 356.303C1657.6 360.877 1661.09 366.635 1666.99 363.368C1671.87 360.672 1674.73 354.648 1676.22 349.546C1680.58 334.652 1679.2 319.481 1679.87 304.213Z" fill="black"/>
<path fill-rule="evenodd" clip-rule="evenodd" d="M1672.47 214.75C1671.92 213.4 1671.67 213.621 1672.7 212.313C1673.49 213.097 1672.86 213.745 1672.47 214.75ZM1697.11 296.438C1695.55 291.996 1696.51 287.172 1695.56 282.615C1695.13 280.525 1694.44 278.497 1694.19 276.369C1694.08 275.424 1693.24 271.173 1693.81 270.503C1692.05 269.436 1692.04 268.646 1691.64 266.554C1692.26 265.887 1692.19 265.319 1691.4 264.847C1690.88 264.225 1690.37 263.603 1689.86 262.981C1692.11 264.08 1690.77 261.267 1690.54 259.645C1690.36 258.364 1690.24 257.027 1689.81 255.798C1689.29 254.288 1688.12 253.525 1690.55 253.525C1689.75 252.614 1688.55 251.675 1688.15 250.56C1687.58 248.955 1688.53 246.835 1687.36 245.418C1686.7 244.627 1683.34 244.318 1683.93 242.61C1684.23 241.74 1685.59 242.39 1686.02 241.78C1687.67 239.384 1682.78 238.392 1682.54 237.373C1682.23 236.051 1684 235.756 1684.1 234.521C1684.21 233.311 1682.33 231.324 1681.83 230.243C1681.16 230.408 1680.41 231.478 1679.64 230.967C1679.49 230.87 1679.71 226.684 1679.54 226.128C1679.36 225.582 1679.01 224.133 1678.88 223.865C1678.38 222.8 1676.94 222.281 1676.72 221.023C1676.58 220.272 1679.52 219.135 1676.15 219.1C1677.36 216.964 1675.14 215.666 1674.33 213.84C1673.29 211.494 1672.68 208.959 1671.61 206.6C1670.57 204.307 1669.41 202.131 1667.91 200.104C1666.56 198.268 1665.97 196.503 1664.89 194.564C1664.67 194.394 1664.46 194.223 1664.24 194.053C1663.34 194.184 1663.05 193.773 1663.37 192.82C1662.68 191.797 1662.17 190.706 1661.56 189.638C1660.85 188.396 1659.9 187.385 1659.17 186.177C1658.19 184.577 1657.91 182.773 1656.81 181.167C1655.46 179.192 1653.95 177.451 1652.7 175.402C1651.13 172.836 1649.4 171.24 1647.42 169.253C1646.49 168.306 1646.37 165.941 1645.22 164.597C1643.97 163.133 1642.74 162.737 1641.87 160.815C1640.74 158.315 1639.08 157.121 1637.47 154.961C1636.14 153.178 1635.49 151.129 1634.03 149.405C1632.77 147.924 1631.34 146.571 1629.99 145.166C1628.29 143.393 1627.04 141.238 1625.27 139.552C1625.53 139.795 1623.73 138.374 1623.82 138.42C1623.43 138.217 1622.14 138.055 1622.33 138.165C1619.66 136.597 1616.32 130.86 1612.31 133.9C1610.19 135.499 1611.21 138.431 1612.68 140.023C1613.31 140.708 1616.6 144.08 1617.32 142.658C1618.08 143.745 1620.45 149 1622.41 147.494C1622.21 149.291 1623.25 148.694 1623.94 149.909C1624.39 150.71 1624.17 151.103 1624.5 152.353C1625.41 155.791 1628.87 159.148 1630.71 162.146C1635.3 169.606 1640.35 176.682 1644.94 184.151C1649.32 191.269 1654.22 198.023 1658.41 205.238C1663.19 213.441 1669.13 221.184 1672.73 230.028C1672.85 230.325 1673.85 230.796 1674.1 231.242C1674.53 232.018 1674.44 233.359 1674.71 234.237C1675.68 237.283 1677.24 240.281 1679.03 242.804C1680.59 245.018 1680.7 248.026 1681.78 250.622C1683.29 254.282 1684.9 257.903 1686.37 261.581C1688.66 267.306 1690.22 272.793 1691.8 278.769C1692.83 282.642 1693.65 286.513 1693.98 290.513C1694.28 294.191 1694.35 298.022 1695.71 301.505C1696.64 300.071 1697.74 298.214 1697.11 296.438Z" fill="black"/>
<path fill-rule="evenodd" clip-rule="evenodd" d="M1172.35 375.251C1170.7 374.918 1169.15 374.474 1168.8 372.582C1168.56 373.474 1168.33 374.366 1168.09 375.258C1170.09 375.712 1172.1 376.167 1174.11 376.621C1173.64 375.796 1173.3 375.442 1172.35 375.251Z" fill="black"/>
<path fill-rule="evenodd" clip-rule="evenodd" d="M1176.77 64.7566C1176.9 64.2229 1177.06 63.6999 1177.26 63.1897C1177.4 63.6872 1178.06 64.763 1177.67 65.232C1177.18 65.8274 1176.68 65.4903 1176.77 64.7566ZM1184.86 49.3873C1185.4 49.6257 1186.57 49.6719 1187.24 49.8734C1185.5 51.3714 1185.19 50.9308 1182.94 50.7569C1182.84 49.2411 1183.45 48.7706 1184.86 49.3873ZM1169.75 86.9114C1169.99 86.9178 1170.22 86.9235 1170.46 86.9291C1170.47 86.2692 1170.45 85.6099 1170.41 84.9514C1172.78 85.4701 1171.44 81.3209 1170.69 80.4608C1173.01 80.5382 1174.14 73.2048 1174.87 71.7919C1175.52 70.5373 1176.26 70.0519 1176.74 68.5219C1177.15 67.1828 1177.6 65.9779 1178.21 64.7112C1179.59 61.7988 1181.4 59.154 1181.07 55.7598C1182.24 58.3067 1183.27 55.7641 1184.01 54.5463C1185.2 52.5842 1188.12 50.0806 1188.43 47.7502C1188.71 45.6986 1187.18 45.59 1188.08 43.6875C1188.99 41.7616 1189.74 41.9546 1191.34 41.3386C1192.4 40.9284 1192.61 41.4266 1193.36 40.0882C1193.84 39.2218 1193.67 38.576 1194.29 37.8657C1194.55 38.0885 1194.84 38.1807 1195.16 38.1424C1195.67 37.4775 1196 36.7366 1196.16 35.9198C1196.57 34.8171 1196.77 33.8044 1197.39 32.7542C1197.97 31.7592 1199.02 29.0974 1199.57 28.6177C1200.15 28.1082 1203.48 28.3672 1203.47 28.3856C1204.84 26.6584 1202.32 24.9375 1205.81 25.3016C1205.12 24.0185 1207.54 22.4261 1208.24 21.7122C1210 19.9303 1210.14 19.1057 1210.51 16.8647C1210.7 15.7222 1209.47 15.8542 1211.12 15.5938C1211.8 15.4866 1212.45 16.3566 1212.94 16.2289C1215.11 15.6668 1212.84 15.774 1213.44 14.8905C1213.63 14.6102 1214.59 13.479 1214.59 13.4911C1214.54 13.5479 1214.8 12.5068 1215.02 12.2393C1215.44 12.2038 1215.84 12.1314 1216.25 12.0222C1216.45 11.6106 1216.63 11.189 1216.79 10.7576C1218.36 9.44902 1220.7 8.86357 1221.79 7.42585C1222.49 6.49623 1222.28 5.58577 1223.19 4.65898C1224.05 3.7762 1225.2 4.41558 1225.37 2.4215C1225.58 -0.115444 1222.86 -1.24447 1221.74 1.31589C1218.72 -2.40757 1206.08 11.2536 1204.62 13.0384C1198.27 20.7862 1192.04 28.7256 1186.84 37.293C1181.77 45.6411 1177.6 54.425 1174.35 63.6325C1172.78 68.072 1171.83 72.4916 1170.87 77.0837C1170.55 78.6214 1168.15 85.4744 1169.15 87.0079C1169.35 86.976 1169.55 86.9433 1169.75 86.9114Z" fill="black"/>
<path fill-rule="evenodd" clip-rule="evenodd" d="M1669.07 276.91C1670.14 276.197 1670.14 276.197 1670.33 274.851C1668.9 275.112 1668.9 275.112 1669.07 276.91Z" fill="black"/>
<path fill-rule="evenodd" clip-rule="evenodd" d="M1142.4 367.477C1142.41 367.475 1142.42 367.479 1142.43 367.487C1142.41 367.457 1142.33 367.372 1142.4 367.477Z" fill="black"/>
<path fill-rule="evenodd" clip-rule="evenodd" d="M1141.68 368.199C1142.01 368.913 1142.54 369.09 1143.27 368.73C1143.56 369.142 1140.77 366.161 1141.68 368.199Z" fill="black"/>
<path fill-rule="evenodd" clip-rule="evenodd" d="M1189.91 42.6924C1188.23 45.9731 1190.33 43.5869 1190.22 44.6526C1190.29 43.9526 1190.58 42.9551 1189.91 42.6924Z" fill="black"/>
<path fill-rule="evenodd" clip-rule="evenodd" d="M1461.96 93.4461C1462.68 99.3261 1470.73 96.5451 1472.54 92.9884C1473.86 90.3989 1477.19 80.1667 1473.61 78.0051C1470.95 76.4028 1470.38 83.3089 1469.73 84.8517C1468.63 87.4355 1467.78 85.6046 1465.34 86.2674C1462.65 86.999 1461.66 91.0078 1461.96 93.4461Z" fill="black"/>
<path fill-rule="evenodd" clip-rule="evenodd" d="M1453.16 82.6839C1456.04 83.3226 1458.86 82.9933 1460.9 80.7225C1462.04 79.465 1463.54 76.9707 1461.5 75.7536C1459.66 74.6516 1457.56 77.2325 1455.62 76.6989C1452.98 75.9729 1454.34 73.1386 1453.43 71.2666C1450.1 73.1855 1448.24 81.5897 1453.16 82.6839Z" fill="black"/>
<path fill-rule="evenodd" clip-rule="evenodd" d="M1456.15 97.5313C1453.37 97.5256 1453.35 100.935 1454.8 102.396C1456.18 103.794 1459.69 105.209 1461.56 104.122C1465.27 101.976 1458.39 97.7527 1456.15 97.5313Z" fill="black"/>
<path fill-rule="evenodd" clip-rule="evenodd" d="M1294.8 233.098C1295.39 233.385 1297.13 234.864 1297.87 234.196C1296.83 233.151 1295.79 232.106 1294.75 231.061C1294.18 231.689 1293.79 232.608 1294.8 233.098Z" fill="black"/>
<path fill-rule="evenodd" clip-rule="evenodd" d="M1281.69 83.5342C1281.39 83.7543 1281.1 83.9736 1280.8 84.193C1281.8 85.0216 1281.77 85.2679 1282.78 84.4834C1282.48 84.0915 1282.12 83.7756 1281.69 83.5342Z" fill="black"/>
<path fill-rule="evenodd" clip-rule="evenodd" d="M1469.64 278.623C1469.08 277.623 1468.03 279.468 1467.32 279.768C1466.16 280.256 1465.21 277.672 1465.54 280.769C1462.92 279.57 1461.33 282.32 1459.64 283.752C1457.25 285.776 1454.34 286.874 1452.74 289.748C1460.24 291.5 1468.47 285.043 1474.06 280.803C1474.97 280.11 1479.52 276.617 1476.43 276.279C1475.17 276.141 1470.57 280.305 1469.64 278.623Z" fill="black"/>
<path fill-rule="evenodd" clip-rule="evenodd" d="M1467.41 272.562C1468.88 271.407 1465.72 271.301 1465.22 271.18C1465.26 272.099 1465.3 273.017 1465.35 273.936C1466.05 273.507 1466.74 273.048 1467.41 272.562Z" fill="black"/>
<path fill-rule="evenodd" clip-rule="evenodd" d="M1461.9 276.417C1462.34 276.142 1463.56 275.287 1462.73 274.649C1461.98 275.128 1461.44 275.909 1461.32 276.8C1461.52 276.672 1461.71 276.544 1461.9 276.417Z" fill="black"/>
<path fill-rule="evenodd" clip-rule="evenodd" d="M1340.56 201.897C1339.62 202.265 1339.2 202.847 1339.3 203.643C1340.74 203.349 1340.47 201.988 1340.56 201.897Z" fill="black"/>
</svg>
