<svg width="40" height="40" viewBox="0 0 40 40" fill="none" xmlns="http://www.w3.org/2000/svg">
<rect width="40" height="40" rx="20" fill="#5181B8"/>
<path fill-rule="evenodd" clip-rule="evenodd" d="M32.7208 13.7794C32.9063 13.1613 32.7208 12.707 31.8386 12.707H28.9212C28.1794 12.707 27.8376 13.0994 27.6522 13.5322C27.6522 13.5322 26.1685 17.1483 24.0667 19.4972C23.3868 20.1771 23.0778 20.3932 22.7068 20.3932C22.5214 20.3932 22.253 20.1771 22.253 19.559V13.7794C22.253 13.0375 22.0377 12.707 21.4195 12.707H16.8351C16.3716 12.707 16.0928 13.0513 16.0928 13.3776C16.0928 14.0809 17.1435 14.243 17.2518 16.221V20.5172C17.2518 21.4591 17.0818 21.6299 16.7109 21.6299C15.7219 21.6299 13.3163 17.9974 11.8893 13.8413C11.6097 13.0334 11.3292 12.707 10.5836 12.707H7.66625C6.83272 12.707 6.66602 13.0994 6.66602 13.5322C6.66602 14.3049 7.6552 18.1375 11.2713 23.2061C13.6822 26.6674 17.0784 28.5441 20.1692 28.5441C22.0238 28.5441 22.253 28.1273 22.253 27.4094V24.7932C22.253 23.9597 22.4287 23.7934 23.0157 23.7934C23.4487 23.7934 24.1903 24.0097 25.9213 25.6786C27.8993 27.6564 28.2252 28.5441 29.338 28.5441H32.2553C33.0889 28.5441 33.5056 28.1273 33.2651 27.3048C33.0022 26.485 32.0578 25.296 30.8046 23.8861C30.1246 23.0824 29.1046 22.217 28.7958 21.7844C28.363 21.228 28.4865 20.9808 28.7958 20.4866C28.7958 20.4866 32.3499 15.4796 32.7208 13.7796V13.7794Z" fill="white"/>
</svg>
