<svg width="876" height="688" viewBox="0 0 876 688" fill="none" xmlns="http://www.w3.org/2000/svg" preserveAspectRatio="none"><path d="M589.393 646.636c80.013 0 144.877-64.864 144.877-144.877 0-80.014-64.864-144.877-144.877-144.877-80.014 0-144.877 64.863-144.877 144.877 0 80.013 64.863 144.877 144.877 144.877z" fill="#F6EDEE"/><path d="M213.367 278.104c45.058 0 81.585-36.526 81.585-81.584s-36.527-81.584-81.585-81.584c-45.057 0-81.584 36.526-81.584 81.584s36.527 81.584 81.584 81.584z" fill="#fff"/><path d="M294.119 307.828c36.046 0 65.267-29.221 65.267-65.268 0-36.046-29.221-65.267-65.267-65.267-36.046 0-65.267 29.221-65.267 65.267 0 36.047 29.221 65.268 65.267 65.268z" fill="#fff"/><path d="M314.091 422.804c79.956 0 144.774-64.817 144.774-144.773s-64.818-144.773-144.774-144.773-144.773 64.817-144.773 144.773 64.817 144.773 144.773 144.773zm283.917-123.291c63.253 0 114.53-51.277 114.53-114.53s-51.277-114.53-114.53-114.53-114.529 51.277-114.529 114.53 51.276 114.53 114.529 114.53z" fill="#fff"/><path d="M761.176 229.465c63.253 0 114.53-51.276 114.53-114.529 0-63.254-51.277-114.53-114.53-114.53s-114.53 51.276-114.53 114.53c0 63.253 51.277 114.529 114.53 114.529z" fill="#fff"/><path fill-rule="evenodd" clip-rule="evenodd" d="M328.921 469.41l-1.669 27.264c3.578-1.03 26.341-7.725 24.935-.937-1.009 4.869-7.409 10.136-10.669 13.526a235.406 235.406 0 01-9.26 9.111 432.5 432.5 0 0117.612-6.313c4.475-1.494 8.984-2.953 13.57-4.072 1.702-.416 6.299-2.113 7.907-.956 4.226 3.04-18.703 25.433-21.844 28.589 4.441-2.064 8.989-3.94 13.614-5.549 3.339-1.162 13.656-5.603 16.611-1.811 3.164 4.057-4.672 13.374-6.846 16.328-3.114 4.233-6.488 8.293-10.028 12.176 14.715 13.213 32.008 24.973 50.411 32.283 13.494 5.359 26.749 6.723 40.988 3.782 14.628-3.022 28.657-8.817 41.993-15.442 7.831-3.892 15.56-8.103 22.923-12.833a315.224 315.224 0 01-8.846-11.284c-4.086-5.462-9.109-11.43-11.439-17.932-2.281-6.364 6.275-5.121 10.379-4.776 5.943.501 11.869 1.563 17.693 2.833a287.49 287.49 0 01-12.123-8.916c-5.164-4.006-12.052-8.537-15.432-14.301-2.972-5.069 3.551-3.788 6.568-3.124 7.191 1.584 14.189 4.282 21.048 6.915a405.878 405.878 0 0114.96 6.072 155.883 155.883 0 01-8.885-8.358c-3.832-3.895-8.999-8.651-10.717-14.013-3.498-10.922 20.034-2.683 24.052-.998-.743-11.313-1.484-22.627-2.226-33.941L450.723 487.6c-3.367.896-7.581 2.847-11.093 2.951-3.181.095-7.023-1.337-10.125-1.929l-56.386-10.77-44.198-8.442z" fill="#85A090"/><path fill-rule="evenodd" clip-rule="evenodd" d="M663.817 858.544c-3.364 1.924-7.305 3.41-11.042 4.406-2.195.587-5.821 2.395-7.749.737-.926-.796-1.138-2.603-1.684-3.651-.865-1.658-2.094-3.091-3.245-4.557a187.519 187.519 0 00-8.731-10.321c-1.439-1.584-4.069-5.282-6.605-5.038-3.161.303-3.085 4.677-2.293 6.912 2.522 7.115 10.158 13.318 15.146 18.679-1.268 1.95-8.233 1.718-10.167 1.262-2.953-.697-3.251-2.799-4.599-5.204-3.152-5.618-9.547-8.762-14.803-12.065-1.917-1.206-5.99-4.544-8.487-3.704-2.367.796-2.265 3.819-1.511 5.793 1.139 2.983 4.378 5.051 6.774 6.937 3.194 2.513 6.115 5.247 8.778 8.324-3.837.313-7.661.853-11.488 1.168-4.629.382-8.486-2.157-12.747-3.596-3.959-1.337-7.905-2.468-11.798-4.009-4.371-1.731-8.95-2.333-13.359-3.851-17.304-5.958-34.26-13.451-50.935-21.004-7.946-3.6-15.729-7.201-24.008-10.018-6.033-2.053-15.515-6.145-16.958-13.33-.761-3.796 2.013-7.878 2.422-11.671.48-4.462.102-9.371-1.258-13.653-1.198-3.771-3.184-7.264-4.75-10.885-1.823-4.22-.19-4.151 3.352-4.631 4.24-.575 9.188-2.961 13.173-4.515 4.591-1.791 9.142-4.293 13.347-6.866 3.804-2.327 7.113-5.326 10.14-8.583 3.08-3.314 5.074-7.24 8.052-10.635 10.989 13.51 21.435 27.227 33.112 40.154 5.512 6.101 11.505 11.147 18.297 15.786 2.836 1.938 5.649 4.151 8.739 5.682 3.864 1.918 8.184 3.107 12.155 4.856 15.227 6.707 29.759 14.039 43.965 22.693 6.873 4.186 12.64 8.986 18.692 14.238 1.883 1.634 17.313 11.162 12.073 14.16zM485.192 747.859c-2.461 1.114-4.806 2.562-7.432 3.277.744-4.527 4.97-11.355 10.388-10.604 2.071.286 3.632 1.893 2.722 4.109-.827 2.013-3.925 2.425-5.678 3.218zM313.91 625.074c-2.79 1.54-5.389 2.436-7.025-.868 1.212-.244 6.716-.977 7.025.868zm-4.645-9.343c-2.156-.654-.431-1.341.31-2.129.578-.614 2.491-2.767 3.161-3.123 2.957-1.566 5.243 4.261 6.657 6.152-3.348-.297-6.869.088-10.128-.9zm23.05 20.175c-4.086.692-3.632-4.419-3.51-7.008.862 1.051 6.697 6.468 3.51 7.008zm13.542-8.828c-4.982.84-8.273-7.764-7.38-11.527.786-3.316 4.646-5.167 7.72-5.656 2.979-.474 7.126.173 8.011 3.607.782 3.036-5.03 13.016-8.351 13.576zm117.924 129.886c-3.58 1.1-7.088 1.238-10.687 2.318-4.082 1.225-7.86 1.116-11.951 1.95-1.665.338-6.154 2.762-7.778 2.221-1.607-.536-3.935-5.525-4.859-6.822 7.238-3.008 13.412-6.891 18.182-13.228 3.794-5.039 7.862-12.589 5.476-19.093-2.692-7.333-11.97-8.925-18.156-5.862-2.927 1.448-5.827 3.249-8.24 5.456-2.759 2.524-3.844 5.279-5.631 8.391-1.807 3.149-3.075 1.398-4.881-1.276-1.544-2.285-1.342-4.592-3.271-6.847-.984-1.15-2.508-2.26-3.021-3.745-.326-.942.36-2.612-.257-3.354-.869-1.042-1.925.182-2.652-.748-.528-.676-.356-2.216-.902-3.062a7.576 7.576 0 00-1.581-1.231c-.707-.349-.835-.786-.388-1.31-.561-1.039-.02-1.39-1.223-2.655-1.875-1.97-3.584-3.859-4.918-6.185-.61-1.065-.55-2.644-1.308-3.565-1.039-1.266-2.772-1.076-3.666-2.642-.796-1.395-.263-3.836-1.576-5.103-.693-.197-1.386-.391-2.079-.583a2.993 2.993 0 01-.912-1.844c-.73-1.123-.874-2.441-1.795-3.627-1.763-2.268-4.134-4.364-5.691-6.756-1.637-2.513-.769-2.937 2.075-3.836 2.564-.813 4.905-1.566 7.282-2.949 10.988-6.392 21.405-23.349 3.964-28.529-6.472-1.922-11.789-7.092-18.966-5.06-3.111.881-6.062 2.757-8.383 4.982-1.604 1.539-3.089 5.654-5.058 6.443-3.54 1.417-2.043-2.124-3.048-3.751-.479-.776-2.411-1.67-3.126-2.377a13.854 13.854 0 01-2.235-2.899c-1.082-1.902-1.745-2.962-3.306-4.51-.588-.585-3.527-3.606-.877-3.211-1.073-3.27.493-3.761 2.658-6.15 2.542-2.805 5.166-6.703 5.181-10.634.03-7.546-8.916-10.927-14.534-6.448-1.143.912-7.904 9.711-6.52 4.099.745-3.026 7.652-10.926 10.854-8.882-3.589-5.228-11.831 7.465-13.755 10.063-1.638-3.015-1.754-5.374-4.465-7.708-2.206 3.538-1.041-.329-1.528-1.115-1.051-1.697-.474.244-1.043-.359-.71-.751-1.828-1.343-2.582-2.337-1.294 1.754-.777-.134-1.174-.789-.926-1.532-.568-2.42-2.156-3.753-1.156-.969-3.433-2.473-4.988-2.611-1.794-.159-2.291.528-4.118.02-2.325-.646-5.251-1.639-4.125 2.248.817 2.825 4.139 4.43 4.867 7.316.732 2.906-2.141 5.834-3.535 8.215-1.791 3.056-3.255 2.806-6.498 3.495-2.073.441-4.839 1.383-3.062 3.896 1.27 1.796 4.245 1.418 5.921 2.482 2.349 1.491 2.317 5.169 5.316 5.809 3.303.704 5.196-2.973 7.981-3.86 1.981-.632 8.116-.562 9.675.925 2.124 2.025.289 5.895.823 8.411.795 3.732 3.321 3.96 6.514 4.079 3.932.147 5.314 3.921 7.429 6.915 4.953 7.011 9.257 14.486 14.331 21.404 2.245 3.063 5.531 5.788 7.369 9.113 2.271 4.106-.881 6.474-3.602 9.42-3.554 3.852-6.209 8.233-9.292 12.442-2.74 3.741-6.145 2.81-10.523 2.81.976-2.011 2.15-3.265 4.55-3.021-2.51-3.064-4.517.441-6.145 2.382-2.356 2.807-5.427 3.485-8.452 5.331-1.071.653-6.902 4.886-5.13 6.332.201.164 9.852-6.183 10.952-6.765 0 2.343-.513 4.777-.184 7.107.24 1.709 1.442 3.491 1.186 5.267-.485 3.354-4.82 5.995-6.681 8.608-1.401 1.966-1.063 3.517-1.776 5.628-.65 1.926-.308 1.343-1.929 1.938-3.299 1.211-8.851.558-11.838-1.165-1.855-1.069-3.277-2.758-4.783-4.247-1.135-1.123-3.989-3.041-4.304-4.611-.541-2.705 4.83-7.73 5.894-10.52 3.002-7.873-2.147-13.993-10.158-14.441 2.469-1.904 5.53-.469 8.132.258-4.449-6.164-12.048-1.092-15.822 3.096-2.579-6.516-3.822-13.39-5.397-20.186-1.074-4.627-5.158-12.886-3.337-17.651.881-2.303 3.368-3.587 5.088-5.184 1.954-1.815 3.627-3.985 5.056-6.231 3.366-5.292 5.31-11.972.675-17.187l4.225-.694c-2.29-2.152-5.904-1.104-8.877-1.742-1.886-.404-7.313-.142-8.572-1.209-1.514-1.283-.543-7.187-.489-8.934.124-4.083.465-8.008.917-12.067.427-3.833.341-7.975 1.133-11.742.644-3.057 2.7-3.988 5.072-5.789 5.67-4.307 10.291-9.546 8.355-16.968l2.058-.327c-2.219-1.603-5.09-1.02-7.557-1.868 2.266-6.376 7.278-17.585 15.415-18.188.28 2.85.089 6.24 2.012 8.6 2.19 2.685 6.035 2.956 9.002 1.535 2.691-1.29 5.219-4.025 6.46-6.727.839-1.829.687-4.922 2.161-6.372 1.976-1.944 15.601-.771 15.183 2.511-.246 1.929-3.889 5.173-4.907 6.883-1.863 3.13-3.355 6.515-4.039 10.109-1.039 5.458-.437 12.664 5.107 15.534 6.307 3.265 13.992-.886 19.164-4.472a91.033 91.033 0 008.185-6.423c1.382-1.214 2.77-2.466 3.988-3.847.899-1.019 1.618-2.663 2.725-3.426 2.615-1.804 5.178 1.256 7.391 2.801 3.604 2.518 7.191 4.909 11.06 7.004 7.851 4.252 15.03 9.883 21.972 15.475 6.982 5.625 14.181 11.411 19.837 18.419-3.426 2.107-2.814 2.654-4.338 6.412-1.082 2.666-2.572 4.936-2.744 7.899-.297 5.113 2.987 9.471 7.971 10.603 2.787.633 5.443.127 8.025-1.013 2.007-.885 4.008-3.065 6.104-3.606 3.898-1.005 7.017 6.356 9.202 8.949 9.704 11.515 19.961 22.576 29.098 34.561 1.012 1.328 4.018 3.921 4.262 5.679.351 2.524-3.621 4.929-5.268 6.376-.866.759-10.04 9.386-6.959 10.757.878.391 3.448-4.902 4.091-5.355 2.406-1.694.586 1.628.443 3.307-.359 4.174 2.509 6.448 6.54 5.919 4.302-.564 8.132-3.959 10.794-7.166 3.337 3.863 8.551 9.702 9.516 14.862.616 3.296-2.237 11.364 3.089 12.036.813.103 3.756-2.079 4.304-.841.458 1.034-2.723 2.802-3.182 3.144-1.96 1.463-3.144 3.03-4.726 4.802-1.858 2.079-4.396 3.831-6.486 5.824-2.203 2.099-6.558 7.8-9.463 5.046-1.461-1.384-1.077-3.194-3.416-4.007-2.13-.74-4.828.198-6.808 1.019-2.228.923-9.568 4.293-10.382 7.068-1.124 3.827 4.943-.774 6.021-1.446-1.23 3.121-1.91 7.64-5.042 9.46-2.603 1.513-6.346 2.403-9.2 3.28zm-41.604-23.607c2.083-6.693 14.366-18.625 22.13-14.893-9.048 1.896-16.228 8.086-22.13 14.893zm4.594 19.164c-3.027-1.686-2.865-6.585-3.921-9.451-.607-1.645-1.82-2.846-1.463-4.671.417-2.14 3.147-4.518 4.6-6.061 4.573-4.857 12.62-11.494 19.981-10.381 9.369 1.418 3.018 13.992-.173 18.321-2.719 3.692-13.196 15.491-19.024 12.243zm-21.856-8.184c-10.132-.677-20.229-1.582-30.223-3.441-3.543-.659-6.512-.562-4.484-4.634.669-1.344 4.705-9.768 5.616-9.526.541.143.417 5.933.576 6.596.715 2.981 2.724 5.758 6.111 5.569 5.542-.309 9.114-7.471 12.031-11.316 2.338 3.142 4.03 6.632 6.38 9.721 1.123 1.477 5.033 4.912 3.993 7.031zm-59.4-39.758c-1.7 3.9-5.118 7.608-7.496 11.141-1.344-2.845-2.29-9.375.899-11.478 1.207-.796 7.672-2.128 6.597.337zm35.14 11.612a62.947 62.947 0 011.563-4.453c.992 3.119 1.498 3.212-1.563 4.453zm8.673 3.194c1.229 2.084 3.279 4.133 2.957 6.75-.244 1.982-2.036 4.014-3.317 5.396-2.119 2.286-6.813 6.674-9.883 3.638-2.565-2.535-1.672-9.507-.479-12.36 1.704-4.076 7.79-8.388 10.722-3.424zm-6.018-4.271c.705-.28-.776-4.828.599-5.281 1.198 2.733 2.328 3.472-.599 5.281zm-19.36-61.208c-.456-1.678-1.503-1.607-1.126-3.682.247-1.361 1.327-2.813 2.146-3.891 1.633-2.148 3.787-3.919 6.116-5.259 4.917-2.829 11.669-4.005 16.071.425-4.115.649-16.732 4.71-16.812 10.338 4.576-.882 8.175-5.477 12.766-6.925 3.767-1.19 7.853-1.106 11.601.15 10.259 3.435 5.993 12.299.203 18.057-3.438 3.418-7.56 5.971-12.066 7.731-2.085.815-3.364.906-5.414.496-.384-.077-.833-.789-1.293-.941-1.144-.379-.812.904-1.754.328-.822-.503-2.576-3.746-3.135-4.675-.89-1.477-1.305-2.915-2.397-4.264-1.094-1.349-1.626-3.159-2.638-4.38-.485-.588-1.816-.564-2.174-1.137-.536-.862.146-1.489-.094-2.371zm-15.756 66.11c2.332-4.051 6.321-7.489 9.408-11.029.19 5.819-3.984 9.802-9.408 11.029zm3.151 1.87c4.816-1.694 7.469-5.746 7.96-10.66.623-6.223 4.532-9.49 6.886-15.081.902-2.143 1.954-9.194 5.452-7.176 1.201.692 1.912 3.296 2.538 4.472 1.512 2.845 3.232 5.604 4.837 8.398 1.307 2.275 3.265 4.562 2.689 7.301-.503 2.387-2.121 4.931-3.068 7.183-2.237 5.318-5.175 10.215-7.63 15.416-.991 2.099-2.163 7.066-5.187 7.041-2.394-.021-2.126-2.637-3.702-3.534-1.989-1.132-4.251 1.022-5.886 1.915 1.882-3.176 5.172-4.975 8.87-4.377-4.428-4.408-7.42 1.54-11.22 2.864-3.6 1.256-9.989-4.664-13.02-6.341 1.16-1.964 2.208-4.365 4.202-5.657 1.892-1.226 4.214-1.037 6.279-1.764zm-39.15 40.284c.527-2.539 2.017-4.039 2.962-6.344 1.095 2.795-1.47 4.444-2.962 6.344zm76.508 15.574c-.259 8.548-.957 17.072-1.209 25.622-.117 3.943-.815 7.704-1.278 11.601-.392 3.296-.193 6.533-2.268 9.349-3.272 4.439-9.633 5.715-14.572 7.359-3.627 1.208-7.295 2.304-10.877 3.645-3.222 1.207-5.82 3.036-8.884 4.471-2.741 1.285-5.701 2.045-8.429 3.413-2.822 1.415-5.053 3.14-7.952 4.399-3.47 1.508-6.33 4.191-9.416 6.321-2.718 1.875-5.592 3.323-7.929 5.68-2.192 2.212-4.966 3.182-7.45 5.147-2.626 2.077-5.375 3.428-8.277 5.057-5.943 3.339-13.962 9.041-21.115 5.798 2.046-2.612 6.233-5.122 6.551-8.721.414-4.688-3.668-2.962-6.031-1.465-3.58 2.267-5.56 5.004-8.286 8.026-3.186 3.533-7.211 1.156-11.109.162 2.665-2.398 5.31-4.82 7.97-7.223 2.247-2.028 5.684-4.221 7.052-7.025.977-2.006.93-4.755-1.43-5.796-2.639-1.164-5.624 1.291-7.579 2.753-5.19 3.881-8.608 8.804-12.015 14.205-1.812 2.873-2.647 2.652-5.982 2.078-3.533-.608-7.067-1.257-10.63-1.684 4.719-4.845 9.994-10.094 13.721-15.764 1.208-1.837 2.783-6.678-.896-7.124-1.516-.183-4.535 2.916-5.704 3.752-5.111 3.652-10.025 8.258-13.413 13.59-1.118 1.76-1.469 3.717-3.635 3.863-2.831.192-8.091-2.509-10.822-3.344 5.219-6.578 10.402-13.203 16.501-19.003 5.603-5.331 11.192-9.203 17.744-13.291 7.024-4.382 13.566-9.427 20.014-14.604 6.171-4.956 12.619-9.63 18.301-15.164 11.348-11.052 21.456-23.764 29.827-37.205 1.959-3.145 3.802-6.372 5.396-9.719 1.497-3.142 2.187-6.901 4.207-9.759.699-.988 1.682-1.722 2.304-2.752.587-.971.388-2.144 1.283-3.003 2.069-1.986 5.838-.789 7.772.604 3.111 2.238 5.628 4.956 9.047 6.83 3.439 1.884 7.159 3.255 10.966 4.181 8.9 2.163 17.723 3.938 26.79 5.252-.934 3.459 1.358 4.004 2.117 7.116.922 3.777-.26 8.526-.375 12.372zm-85.694-57.677c-2.018-2.997-3.819-6.13-5.802-9.147-1.208-1.837-2.705-3.81-1.673-6.057 1.739-3.788 7.873-4.462 11.202-2.811 7.568 3.755.538 14.489-3.727 18.015zm-20.031-68.542c-.697-5.857 1.544-10.013 6.844-13.085 3.779-2.189 6.821.803 6.305 4.793-.785 6.08-7.284 12.842-12.243 16.014-.324-2.571-.599-5.148-.906-7.722zm-.809-16.76c1.564-1.24 5.752.343 7.563.451l-7.475 6.528c-.163-1.493-1.53-5.834-.088-6.979zm8.408-56.57c12.609-1.638-1.906 11.888-5.559 14.008.594-2.878 2.054-13.551 5.559-14.008zm33.566-23.68c-1.693 6.932-14.855 14.495-14.993 3.139-.05-4.231 2.327-3.889 5.797-4.295 1.98-.231 10.163-2.808 9.196 1.156zm-45.462 10.736c-1.478 3.876-2.662 7.853-4.11 11.735-.642 1.718-1.397 2.899-2.592 4.261-1.001 1.139-2.191 1.426-2.152 3.226 1.254-.242 2.234-.989 3.247-1.709-.246 3.568-1.507 7.407-2.118 10.964-.732 4.264-1.341 8.531-1.567 12.855-.49 9.404-.494 18.773-.288 28.182.106 4.795.153 9.592.412 14.381.129 2.383.275 4.775.57 7.143.119.956.813 2.991.384 3.887-1.684 3.517-9.143-6.144-12.383-4.726.466-2.676-.609-2.091-2.404-3.407-.87-.638-1.435-1.723-2.342-2.292a5.762 5.762 0 00-.906-.789c-.375-.511-.77-.456-1.186.163-3.65-2.181-4.593-6.829-6.552-9.956-1.008-1.608-1.981-1.859-2.153-4.082-.149-1.937.142-3.911.064-5.856-.089-2.194-.218-4.613-.834-6.738-.714-2.467-1.697-2.265-3.612-3.58.59-.258.979-.691 1.167-1.3-.611.109-2.47.867-2.932.322-.907-1.07 1.235-1.212 1.798-1.639-2.403-1.066-1.885-1.943-1.018-3.897.245-.553.48-1.379.688-1.845.456-1.019.718-.374.869-1.639.143-1.206-.927-3.579-1.242-4.864-.529-2.157-.821-4.02-.346-6.267.384-1.819 1.419-3.466 1.491-5.336.021-.525-.78-.7-.791-1.207-.015-.741.677-1.067.857-1.752.459-1.753.252-3.606 1.038-5.27.707-1.493 2.136-3.426 3.147-4.73.701-.904 2.42-1.922 2.608-3.114.125-.791-1.106-.7-1.051-1.295.074-.806.751-1.067.936-1.666.512-1.644.641-3.224 1.963-4.483 1.665-1.586 2.389-.922 2.457-3.537.034-1.276-.987-1.473-.44-2.944.297-.798 1.174-1.27 1.735-1.836 1.665-1.679 2.787-3.17 3.973-5.245 1.049-1.833 2.721-2.899 3.795-4.483 1.399-2.063-.692-3.086 2.147-3.668-.404-1.281-.833-2.316.229-3.401.67-.684 2.369-.265 2.962-1.056.679-.909-.325-3.061.699-3.651.833-.478 2.079.998 3.388.267.997-.557 2.502-3.632 2.181-4.762 2.578 1.449 1.936.451 3.169-1.409.277-.417 1.116-.51 1.354-.931.476-.841.367-1.698 1.053-2.382 1.144-1.139 3.015-.846 4.273-1.66 1.04-.671.985-1.395 1.814-2.029.709-.541 1.873-.645 2.563-1.207 1.35-1.099 1.363-2.259 3.052-3.206 2-1.12 3.771-2.074 5.59-3.56 1.187-.968 2.312-2.684 3.7-3.323 1.919-.884 3.414-.946 5.291-2.207 1.356-.911 2.639-2.415 3.971-3.183 1.005-.579 1.71-.454 2.976-.813 2.279-.646 2.834-2.793 4.694-3.667 1.276-.6 3.134-.05 4.536-.366 4.362-.978 8.67-3.09 13.047-4.26 5.343-1.426 10.723-2.676 16.106-3.937-4.947 6.703-11.248 12.75-17.639 18.074-2.097 1.748-13.592 9.715-7.396 13.117 2.487 1.365 7.89-3.045 9.898-4.123 4.044-2.171 8.232-3.909 12.467-5.665 6.848-2.84 15.767-7.89 23.377-7.484-4.633 5.682-10.416 10.243-15.714 15.262-4.87 4.613-12.207 8.939-9.91 16.489-6.84-1.74-12.984-3.796-20.095-3.34-3.185.204-6.372-.18-9.543.267-3.448.487-6.695 1.64-10.008 2.653-2.621.8-5.518.863-7.93 2.194-1.165.644-2.606 1.563-3.653 2.361-1.396 1.065-1.714 1.77-2.81 3.173-3.911 5.006-7.695 9.699-10.019 15.798zm-21.392 94.747c-.213-.866-.407-1.657-.652-2.646 2.177 1.34 2.177 1.34.652 2.646zm-16.451-27.595c-.268.371-1.396.49-1.723.17-.408-.398.664-1.948.836-2.277.425.326 1.402 1.393.887 2.107zm-4.661-10.043l.866-3.173c.353.98 1.949 2.064 1.984 2.999.022.619-2.534.311-2.85.174zm.926 1.452c2.497 1.643 2.758 3.583 2.833 6.42-2.989-.989-2.56-3.882-2.833-6.42zM280.54 511.85c-.253.683-1.323 2.808-2.107 1.321-.25-.475 1.585-1.125 2.107-1.321zm-.718-2.317c.618-.556 1.862.136 2.56-.313.49-.316.328-.635.558-.822.046-.038.711-1.384.984-1.69.481-.537 1.532-.872 2.117-1.357 1.636-1.355 2.559-3.137 3.588-4.95 1.228-2.165 1.62-2.415 3.6-3.406 1.365-.683 2.424-1.52 3.535-2.681 1.28-1.338 1.186-2.295 2.237-3.757.519-.722 1.267-.811 1.872-1.392.725-.697 1.094-1.67 1.764-2.373.29-.304 1.22-.303 1.395-.564.224-.329.398-1.646.607-1.888l1.201 1.621c1.579-2.774 2.731-5.067 5.37-6.914 2.772-1.939 5.165-4.776 8.03-6.513.644-.39 1.956-.554 2.448-1.129.832-.973.112-1.839.718-2.665.689-.937 2.022-.179 2.898-.583 1.107-.511 1.424-2.004 2.85-1.839-4.689 5.545-4.63 14.174-4.879 21.1-.108 2.985 1.772 4.49-1.004 6.68-2.361 1.863-5.69 1.31-8.482 2.536-3.506 1.54-7.255 2.359-10.832 3.701-3.699 1.388-6.674 3.818-10.235 5.426-3.139 1.417-5.284 3.432-8.155 5.181-1.068.65-2.722 1.595-3.995.817-.797-.487-1.79-1.287-.75-2.226zm52.961-46.499c.204-.788 4.206-2.858 5.191-3.534 1.478-1.016 3.665-3.496 5.315-2.51.571-2.289 2.801-4.835 4.772-5.32 2.186-.539 5.936-2.413 8.087-4.048.628-.478.835-1.177 1.574-1.625 1.287-.78 2.564-.354 3.804-1.418.189-.162 1.905-2.994 1.973-2.967.087.304.167.611.237.92 1.302-.722 2.461-1.296 3.272-2.216.184-.209-1.008-.752-.632-1.166.461-.506 1.49.06 1.956-.421-1.449 7.191-.37 16.447 6.928 20.093-8.679.938-17.156-1.671-25.942-.069-4.205.767-8.48 2.026-12.306 3.96-2.344 1.185-5.341 5.429-7.674 3.369.926-1.234 2.338-2.001 3.445-3.048zm42.111-20.688c3.245-3.968 8.167-5.538 13.125-4.117 5.805 1.664 3.357 5.718 2.48 10.22-1.675-2.455-5.303-4.89-8.393-4.964-4.38-.104-2.724 3.544-.094 4.852 2.391 1.187 6.492 1.518 8.204 3.678 1.666 2.102 1.027 5.538 1.296 8.017l-3.886-.578c1.087-5.784-3.698-6.064-8.159-7.695-4.508-1.647-8.266-4.897-4.573-9.413zm14.537-14.243v5.368l-5.415-3.085 5.415-2.283zm14.507 42.892c6.026 1.633 12.01 3.36 17.803 5.612 2.104.818 4.409 1.108 6.47 2.031 1.963.879 2.258.788 1.56 2.507-1.956 4.819-6.59 3.987-10.65 3.25-6.354-1.154-12.577-2.754-18.852-4.259-6.133-1.471-12.396-2.435-18.437-4.277-6.199-1.891-12.24-3.681-18.617-4.929-1.861-.365-16.581-1.715-16.47-3.253 9.272-1.204 18.817-.018 28.129.108 9.678.13 19.677.666 29.064 3.21zm-8.181-18.639c.116-3.313.162-6.636.573-9.93 2.759 3.404 5.248 4.422 8.725 1.232 3.329-3.053 4.071-4.645 8.291-1.775 3.659 2.49 7.12 2.376 11.006.196 2.37-1.329 6.178-6.761 8.67-5.643 1.187.533 2.057 2.682 3.255 3.472 1.504.99 3.817 1.677 5.57 2.061 4.14.907 6.606-1.755 9.205-4.602 3.768-4.129 3.658-1.73 7.152 1.132 3.897 3.194 7.155 1.633 10.683-1.092 2.15 6.296 2.954 13.172 3.562 19.773.204 2.228.97 5.393-1.033 6.969-1.411 1.111-4.407 1.155-6.107 1.769-6.075 2.196-11.912 5.311-16.992 9.298-1.98 1.554-3.706 3.457-6.41 3.103-2.578-.337-5.084-2.495-7.157-3.919-2.25-1.545-4.527-3.299-7.156-4.16-1.54-.504-4.007-.322-5.354-1.247-2.505-1.719.443-6.228-.181-9.255-.473-2.299-1.796-7.091-4.962-5.744-4.712 2.005-1.97 9.829.621 12.271-5.301-.941-11.17-2.315-16.282-4.061-3.95-1.349-5.82-5.806-5.679-9.848zm88.905 16.137c10.882-3.054 21.065-5.114 32.389-5.67 5.013-.247 9.866-.091 14.823-.046 2.854.026 5.028-2.274 2.748-4.921-3.155-3.664-12.779-2.269-17.043-2.434-11.431-.441-21.911.858-32.737 4.624 1.145-2.108 3.895-2.381 5.78-3.472 2.312-1.338 3.884-3.542 4.872-5.988 2.57-6.363-.017-12.358-2.706-18.17 5.282 1.42 10.745 4.53 16.054 5.32 1.113.165 1.827.059 2.812.464.604.248.795 1.108 1.544 1.295.362.091 1.231-.726 1.641-.611 1.616.457.338.578 1.36 1.24.811.525.746 1.201 2.234.953.66-.109 1.376-1.13 1.724-1.158.442-.036.34-.575 1.018-.417 1.233.286 1.124 1.874 1.535 2.656.439.832-.184 1.938 1.146 2.394.995.341 1.245-.709 2.09-.634.514.046 1.579.785 2.033 1.236 1.461 1.451 3.462 3.054 5.427 3.998-.193-.194.926-.661.658-.771-.18-.073.996.21.978.206 1.134.258 1.734 1.999 2.307 2.634 1.054 1.164 2.692 2.393 4.17 2.906 2.555.889 2.477-.173 3.41 2.862 1.816-2.855 2.513 1.926 4.766 2.453 1.167.273 1.031-.227 2.091.383.728.419 1.213 1.7 1.762 2.319l.705-2.676c1.623 3.073 5.125 7.946 8.966 7.065 0 .839-.345 1.841.304 2.557.454.501 1.188-.068 1.543.223.31.254 1.051 1.264 1.288 1.431.468.327 1.317.567 1.723.893.357.288.534 1.661.931 2.158.746.933 2.035 1.118 2.645 2.236.14-1.103.279-2.207.417-3.31 1.21.934 1.314 1.66 1.611 3.027.423 1.947-.138 1.491 1.205 2.312 1.32.809 2.008.718 3.218 2.12 1.187 1.374 1.197 2.221 2.909.789.319 1.059.421 2.43 1.271 3.241.642.614 3.3.64 3.554 2.089-4.994-4.212-1.708 2.185.002.011.361 2.327 2.066 3.079 4.012 4.737 1.815 1.545 2.112 1.432 2.731 4.028-.013-.057.912.517.98.631-1.769.253.973 2.228 1.436 2.589.338.264.779-.366 1.34.061.643.488 1.166 1.598 1.689 2.267 1.418 1.814 2.466 3.373 3.958 4.848 1.609 1.592 2.392 3.604 3.938 5.465 1.714 2.067 2.641 4.443 4.075 6.686 1.363 2.134 3.173 3.846 4.752 5.8 2.515 3.109 3.371 9.956 8.061 10.136-.275.284.107 2.406.152 2.798.222 1.927.075 3.781 1.215 5.527.261-1.991 1.303-1.224 2.209-.178 1.505 1.74.183 1.302.263 3.066.096 2.137.339.484 1.154 2.35.638 1.462.987 2.411 1.33 4.033-2.65.21-3.863-1.954-4.842-4.051-.409-.877-.551-2.318-1.276-3.004-.771-.73-1.83-.787-2.623-1.601-1.521-1.565-2.18-4.004-3.973-5.526-2.025-1.72-2.474-2.533-4.148-4.589-1.852-2.275-4.409-3.872-6.352-6.072-1.946-2.204-1.788-1.001-4.232-1.798-2.6-.85-6.803-9.02-10.077-5.873.129-2.058-2.955-3.994-4.514-4.74-.673-.322-1.458-.031-2.132-.514-.731-.524-.784-1.535-1.521-2.164 0 .001-1.131.274-1.36.159-.468-.237-.471-1.074-.884-1.349a46.844 46.844 0 00-3.712-2.211c-2.944-1.579-5.546-3.522-8.387-5.422-2.433-1.629-5.378-4.569-8.191-5.427-2.457-.75-4.002-.368-6.013-1.869-1.097-.818-.774-1.092-2.535-1.601-1.677-.484-2.618-.235-3.506-2.012-1.554-3.11-.573-9.18-.874-12.667-.319-3.702-.698-7.494-1.663-11.093-1.142-4.254-2.65-6.477-7.215-5.476-9.043 1.987-17.976 3.878-27.06 5.622-18.101 3.476-35.892 9.149-53.596 14.185-1.348.384-8.871 2.106-7.334-1.783.708-1.794 5.469-2.462 7.063-3.025 8.75-3.096 17.54-6.25 26.484-8.76zm-3.041-7.915l-3.966 1.512v-3.675l3.966 2.163zm-5.494-19.432c1.149.939 3.484-1.32 4.461-1.778 1.668-.781 3.793-1.452 5.657-1.291 3.437.297 5.952 3.68 5.322 7.11-1.066 5.804-9.338 8.549-13.899 10.817-.146-2.056-.812-4.529.631-6.308 1.252-1.545 3.681-1.432 4.837-3.075 2.909-4.13-4.974-4.504-6.736-1.221l-2.085-6.295c1.678-.277.941 1.33 1.812 2.041zm8.136-11.36l-4.924 3.182c-.813-3.672 1.959-4.155 4.924-3.182zm149.55 127.796c-2.15 1.025-2.687-1.424-4.232-1.529 1.825-1.122 1.825-1.122 4.232 1.529zm8.741 53.47c.268 3.519.058 7.08.527 10.585.357 2.667 1.438 5.149 1.553 7.846.253 5.907-1.743 11.922-5.772 16.252-3.812 4.096-9.266 7.621-14.411 9.343-2.319.775-4.739 2.494-6.991 3.13-2.491.703-4.858-.827-6.913 1.918-1.37-11.776-.369-24.081-.477-35.932-.108-11.876.02-23.756-1.99-35.504-1.79-10.463-5.318-22.232-11.822-30.792-2.641-3.476-5.894-6.323-9.324-8.988-1.78-1.383-3.561-2.861-5.543-3.953-3.051-1.68-5.649-1.448-8.967-1.927-4.749-.685-9.164-1.264-13.93.072-4.437 1.245-9.324 2.663-13.298 4.825-3.959 2.155-8.557 3.043-12.667 4.973-2.796 1.312-8.603 5.698-11.705 4.909-3.003-.765-7.448-5.86-9.365-8.141-2.45-2.917-4.477-6.297-6.651-9.435-.763-1.101-2.319-2.804-2.517-4.219-.345-2.455.639-1.653 2.985-1.378 6.034.708 11.708 1.826 17.491 3.725 2.877.944 8.504 4.766 11.381 2.476 4.394-3.497-2.282-9.506-4.727-11.525-4.167-3.44-9.011-5.994-13.452-9.051-4.718-3.248-10.957-6.706-13.993-11.708 8.867 2.617 17.725 5.614 26.333 8.987 3.939 1.543 7.831 3.174 11.53 5.226 2.078 1.153 6.276 4.27 8.778 2.777 5.439-3.246-7.053-12.672-8.856-14.599-2.8-2.993-5.545-5.958-8.623-8.674-2.077-1.832-5.339-3.12-6.304-5.823 3.446 1.247 6.233 3.69 9.461 5.35 1.69.87 3.231 1.371 5.098 1.637 1.989.285 2.227.602 3.794 1.392 1.221.617 2.475 1.441 3.846 1.86.976.299 2.682.351 3.536.905.437.622.887 1.234 1.353 1.835.52.153 1.033.329 1.538.53.757.675 1.206 1.605 1.943 2.301 5.346 5.054 12.496 8.671 18.489 12.904 5.67 4.005 11.688 7.629 17.134 12 6.266 5.031 12.771 10.439 18.101 16.472 3.013 3.409 5.489 7.275 8.02 11.045 1.832 2.73 4.497 4.995 6.08 7.81 3.453 6.137 6.319 12.771 10.036 18.809 3.788 6.152 8.722 12.266 9.291 19.755zm-50.942 35.608c1.032-4.259 6.858-9.232 10.582-11.11-1.877 4.641-6.876 7.805-10.582 11.11zm9.607 14.858c-3.176 6.586-17.14 7.34-15.245-2.408.928-4.775 4.868-7.706 8.25-10.831 1.564-1.444 5.393-6.611 7.813-5.779-.113 3.715-.332 7.445-.324 11.161.005 2.48.63 5.526-.494 7.857zm-4.036-75.917c1.288 2.893 2.572 5.302.181 7.89-1.078 1.168-4.593 3.723-6.183 3.156-5.104-1.82 4.627-9.744 6.002-11.046zm-30.873-25.739c1.23-.067 2.423.116 3.638.041 1.21-.075 1.338-.29 2.459-.137l.356.516c.153 1.154.759 1.28 1.818.377 1.473.328 2.431.546 3.839 1.342-3.801 2.739-8.427 5.925-13.087 6.844-7.365 1.453-5.33-8.636.977-8.983zm-112.907 61.61c-.764 1.535-2.96-2.302-3.504-3.017 1.014-.003 4.276 1.467 3.504 3.017zm59.177-40.427c5.722-3.338 12.518-6.269 18.664-8.754 1.08 5.205-4.19 11.924-7.436 15.486-2.625 2.88-5.79 5.867-9.349 7.525-3.847 1.792-8.053 1.005-7.866-4.024.069-1.838.487-4.795 1.235-6.475.965-2.165 2.789-2.615 4.752-3.758zm-77.351-94.677c.852-.05 10.104-1.246 10.055-.095-.146 3.458-9.126.743-10.055.095zm-65.423 66.784c4.887-6.027 12.776-12.533 12.891-20.957.17-12.395-13.591-6.211-20.509-5.695 3.658-3.594 22.042-18.668 11.168-24.022-3.126-1.539-7.568-.035-10.704.771-5.564 1.431-10.738 3.908-16.205 5.632 3.906-4.156 10.655-8.88 10.434-15.176-.27-7.662-6.562-5.81-12.003-4.685-2.091.432-11.431 4.146-13.186 1.625-.642-.924.397-2.098.618-2.92.389-1.456.268-1.963.281-3.45.027-2.999 2.021-6.85.395-9.64-.372.634-.69 1.293-.955 1.979-.536-1.624-.176-3.345-.712-4.969 13.583 3.473 27.402 5.374 41.07 8.338 6.92 1.501 13.432 4.085 20.447 5.248 7.074 1.172 14.025 2.966 21.112 4.084 6.467 1.02 12.662 2.718 19.065 4.02 6.243 1.27 12.645-1.513 18.737-2.921 13.647-3.155 27.288-6.387 40.953-9.449 15.768-3.534 32.171-6.555 47.264-12.449.292 7.855.921 15.696 1.881 23.497-6.666-3.15-16.558-7.257-23.296-1.621-2.697 2.255-3.528 6.149-2.462 9.46 1.16 3.605 4.714 5.279 7.059 7.992-7.137-1.828-25.546-14.723-28.823-1.689-2.314 9.205 8.975 15.151 14.495 20.332-5.482-1.073-12.823-5.454-16.042 1.588-2.781 6.087.569 12.71 4.001 17.731 1.86 2.72 3.952 5.28 5.929 7.916 1.046 1.394 2.066 2.808 3.165 4.161 1.102 1.357 3.181 2.778 3.953 4.238 1.554 2.945-1.583 3.126-4.023 4.189-3.046 1.329-5.661 3.56-8.447 5.338-6.379 4.072-11.955 7.853-19.493 9.154-7.761 1.34-15.234 2.738-22.892 4.607-7.635 1.862-13.868 3.652-21.672 1.245-3.558-1.098-6.456-2.073-10.23-1.867-3.964.217-6.282.012-9.541-2.443-14.025-10.559-29.248-19.224-43.723-29.192zm-25.283-10.601c5.42-2.718 10.876-5.451 16.475-7.787 4.635-1.934 11.672-4.187 16.745-3.34-1.43 3.673-4.04 6.686-6.839 9.391-2.475 2.391-5.568 6.001-8.564 7.67-2.72 1.515-5.885-.885-8.568-1.89-2.948-1.104-7.005-1.62-9.249-4.044zm1.362 13.716c2.701-1.122 8.506 2.643 10.963 3.621 4.827 1.925 9.682 3.935 13.937 6.971-5.196 6.002-11.079 11.49-18.071 15.345-4.6 2.536-12.353 5.446-16.692.84-5.451-5.787 1.102-17.58 4.961-22.539l.385 2.545c1.232-1.971 2.171-5.809 4.517-6.783zm99.161 51.37c-3.369.709-4.515.068-6.739-2.515-1.504-1.746-2.982-3.559-4.677-5.13-1.731-1.602-6.004-5.465-.559-3.24 4.962 2.027 9.214 3.041 14.674 2.246 6.243-.907 12.064-3.546 18.22-4.882-3.375 2.952-6.725 5.933-10.106 8.877-3.572 3.109-6.274 3.688-10.813 4.644zm.771 23.74c-7.385 5.556-22.252 4.954-17.248-7.269.76-1.857 1.824-3.604 3.054-5.185.41-.528 1.141-1.623 1.725-1.977 1.633-.991 1.181-1.11 2.751.541 1.355 1.424 11.943 13.062 9.718 13.89zm-2.19-21.239c.677-.22 3.527-1.872 4.176-.958.658.926-4.93 4.128-4.176.958zm53.761 84.727c-1.66 3.971-14.949 9.721-12.473 1.715 1.096-3.547 2.13-6.232 6.266-6.501 2.388-.155 7.669 1.288 6.207 4.786zm23.837-53.822c2.187-3.184 9.411-7.49 12.496-2.741 1.486 2.288-2.12 3.46-4.301 2.872-1.171-.317-2.129-1.017-3.402-1.069-1.636-.067-3.236 1.216-4.793.938zm5.799 3.161c-1.487 1.505-10.459 9.052-11.912 7.888 2.93-4.187 6.294-8.863 11.912-7.888zm-14.652 76.368c-3.115.176-1.56-4.517-1.258-6.394.754 1.307 4.719 6.198 1.258 6.394zm7.916-8.412c-1.008-1.793-3.724-4.461-3.11-6.767.47-1.764 4.708-4.135 6.483-3.123 2.357 1.344-1.06 10.187-3.373 9.89zm73.921-18.798c-1.332 4.59-2.714 3.405-6.892 4.295-4.192.892-7.091 4.45-10.781 6.359 1.282-2.71 2.077-6.011 4.223-8.21.497-.507 3.539-1.51 1.806-2.686-1.516-1.028-3.694 2.308-4.344 3.217-3.197 4.475-5.433 9.938-7.279 15.087-.908 2.528-1.635 5.104-2.065 7.759-.383 2.367.031 4.843-.36 7.147-.629 3.712-5.672 3.731-8.705 4.688-2.746.866-5.479 1.806-8.329 2.272-2.471.405-5.035-.332-7.429.154-2.593.527-3.758 2.065-6.705 1.717-2.403-.282-4.651-1.387-7.087-1.498-2.279-.102-4.552.686-6.818.044-2.286-.647-2.176-.898-1.656-3.144l.977 1.818c.911-.715 1.541-2.892 2.1-3.915.866-1.584 1.572-2.132 1.251-4.105-.473-2.915-3.101-4.988-3.697-7.759-.623-2.892 1.517-5.257 2.781-7.671 1.728-3.305 1.705-5.756.257-9.173l3.277.865c-1.498-3.249-6.575-1.932-9.121-.969-1.28.483-3.307 2.384-4.684 2.335-1.892-.066-2.879-2.553-3.692-3.922-2.353-3.962-5.039-7.874-7.822-11.552-.766-1.012-1.769-1.662-1.504-2.815.225-.978 2.419-2.366 3.131-2.969 2.67-2.256 6.067-3.507 8.575-5.882 3.79-3.589 8.16-6.161 12.034-9.679 4.037-3.666 8.195-7.032 12.402-10.495 4.26-3.508 7.951-7.642 12.18-11.186 1.096 1.985 3.219 9.094 5.647 9.644 2.831.641 2.747-2.708 2.606-4.722-.201-2.872-1.795-5.662-1.973-8.402-.191-2.931 2.63-4.242 4.76-5.937 3.288-2.62 10.567-8.585 6.655-13.496-3.371-4.229-14.331 3.88-17.352 6.318-2.567 2.073-4.551 3.947-7.442 5.581-2.033 1.149-5.442 5.567-7.852 5.159-2.866-.485-3.986-3.614-7.491-3.511-3.426.1-6.337 2.567-8.461 5.044-4.803 5.598-6.454 13.089-10.83 18.925-2.158 2.877-4.957 5.252-7.298 7.975-2.571 2.987-3.117 6.43-5.651 9.354-7.254-9.66-15.156-18.806-22.805-28.149-3.82-4.665-7.561-9.386-11.299-14.117-1.4-1.773-2.98-3.436-4.263-5.299-1.757-2.55-1.441-4.599-2.131-7.443-.306-1.261-1.737-2.771-1.354-3.976.515-1.619 4.136-2.89 5.442-3.552 5.332-2.706 10.169-6.088 15.141-9.394 9.207-6.12 18.521-11.86 28.313-17.088-.168 2.252-1.635 4.587-.65 6.846.459-1.299 1.185-7.091 2.921-7.34-.332.048-.059 7.427.21 8.48.801 3.145 3.126 5.295 6.453 5.273 6.336-.041 12.015-6.93 15.532-11.495 2.381-3.09 4.668-6.684 5.507-10.551.754-3.473-.076-5.888 3.535-7.652 7.41-3.618 14.879-6.565 22.804-8.483-.356 3.413-1.345 7.616 1.758 10.071 3.426 2.71 7.909.295 11.135-1.498 3.195-1.775 8.122-6.654 11.875-5.237 3.691 1.394 6.26 6.022 8.326 9.095 1.821 2.708 3.803 4.662 1.694 7.681-2.363 3.383-3.902 6.686-5.795 10.361-.728 1.412-1.422 2.334-.908 3.781.167.47 2.065 3.267 2.58 3.668 3.287 2.558 7.727-2.307 10.074-4.154.828 7.952 1.013 15.87 1.347 23.847.245 5.843 2.507 11.596-2.289 15.867-4.795 4.269-8.798 8.653-11.72 14.434-1.561 3.089-2.961 6.259-4.65 9.283-1.128 2.021-3.508 4.984-2.052 7.363 1.537-1.458 1.994-3.674 3.275-5.318.767 3.411 1.539 7.196 5.148 8.641 4.153 1.664 8.281-1.214 11.96-2.816-1.319 9.12-3.892 17.982-6.456 26.812zm-4.245 10.483c-2.85 6.089-5.425 13.432-10.688 17.916-1.156.984-6.066 4.828-7.935 4.184-1.586-.547-.713-3.751-.437-5.124 1.403-6.969 3.828-11.354 9.481-15.8 2.34-1.84 5.344-4.192 8.361-4.646 3.247-.489 2.312 1.13 1.218 3.47zm80.396 144.547c-7.39-10.046-17.834-17.853-27.705-25.399-4.471-3.419-9.398-5.982-13.915-9.402-5.107-3.866-10.294-7.595-16.014-10.508-10.846-5.524-22.677-9.376-32.912-15.908-4.992-3.186-10.452-6.265-15.145-9.842-2.061-1.571-3.882-3.581-5.744-5.38-1.731-1.672-5.447-4.1-6.135-6.547 2.88-.471 4.518-3.265 7.088-3.55.847-.094 6.153 1.309 5.427-1.264 1.925-.048 2.149-.077 3.762-.498.668-.174 1.46.099 2.135-.141 1.033-.364 1.737-1.417 2.78-1.821.742-.287 3.497.033 3.914-.324 1.141-.974-.071-.888-.751-2.104 2.216-.056 3.738 1.063 5.96-.127.676-.363 1.248-1.198 1.904-1.63 1.163-.769 1.583.422 2.379-1.172.745 2.199.725 1.591 2.521.944 1.789-.645 3.08-1.11 5.118-1.271 4.867-.385 9.752.205 14.597-.14 1.772-.127 3.287-.529 5.048-.298 1.551.204 1.083 1.282 2.372-.17.3-.337-.668-1.261-.204-1.746.204-.215.872-.064 1.125-.174 2.265-.988 2.275.392 2.677 2.192 1.328-.311 2.683-.593 3.838-1.372-.583-.52-1.559-1.094-.996-2.044 1.916.725 3.168.39 2.211 2.493 1.927.636 2.288-.193 4.019-.375 1.024-.108 2.454.528 3.307-.289.931-.893-.538-1.863 1.173-2.63.351.178.611.448.781.807.924.28.758.643-.499 1.091 3.366 1.744 2.575-.205 3.988-2.268.327-.475 1.789-1.951 2.454-1.238 1.011 1.081-1.051 1.425-.609 2.5.766 1.865 3.44-.525 4.26-1.469.621-.713.874-2.081 1.544-2.614.929-.741 2.267.404 3.431.199 5.317-.932 10.339-8.079 6.333-12.863-1.076-1.286-1.988-1.031-3.27-1.842-1.269-.802-1.98-2.189-2.998-3.335a21.503 21.503 0 00-8.416-5.827c-7.535-2.906-15.654-5.026-23.566-6.585-3.665-.722-7.566-1.827-11.318-1.819-2.21.004-5.539 1.722-7.605.899-4.017-1.6 1.88-9.792 2.854-12.438 2.858-7.774 5.016-16.063 6.43-24.223.277-1.598.171-3.666.746-5.188.661-1.75.802-1.502 2.216-1.645 2.555-.258 5.348 1.081 8.008.619 2.948-.513 6.134-.275 9.11-1.186 1.368-.419 2.636-.874 3.536-2.028.285-.362-.031-.678.148-.931.056-.08 1.073-1.177 1.106-1.24a8.052 8.052 0 01.148-1.689c1.032.856.523 2.652 2.261 2.693.31-1.914.314-2.3 1.57-3.377-.095.083.947-.802.813-.708.063-.341.189-.659.375-.954a4.504 4.504 0 011.862-.451c1.358-1.397.794-2.141.794-4.021l3.289 1.708c.265-5.569 3.657-8.618 5.91-13.131.961-1.923 1.939-3.426 2.168-5.746.133-1.338-.213-2.518.342-3.78.502-1.144 1.627-1.761 2.097-3.007.925-2.453.235-5.584.286-8.131.07-3.533.423-7.054.539-10.585.226-6.931-.471-14.054-1.508-20.906-.497-3.277-1.327-6.456-1.978-9.699-.537-2.665-1.819-5.165-2.278-7.644-.191-1.03.104-1.955-.207-3.094-.409-1.498-1.094-2.971-1.603-4.442-1.189-3.436-2.364-6.867-3.701-10.249-2.591-6.556-5.624-12.915-8.506-19.344-2.772-6.183-5.068-12.558-8.658-18.331-3.537-5.687-7.345-11.277-11.242-16.721-4.06-5.668-9.193-10.539-13.13-16.26-7.393-10.742-17.704-19.593-28.492-26.902-22.26-15.083-46.316-30.143-73.008-35.314-4.023-.779-8.098-1.32-12.198-1.42-2.543-.064-6.759 1.166-9.167.305-2.698-.964-2.451-3.993-3.126-6.369-.869-3.054-2.828-5.055-5.052-7.214-2.341-2.273-4.467-4.927-7.387-6.473-2.959-1.565-6.45-2.15-9.729-2.624-2.927-.423-7.302-.028-9.976-1.303-2.436-1.162-1.233-2.372 1.048-1.377.167-1.006.302-1.655.947-2.432.323-.391 1.853-.939 1.889-1.303.044-.427-1.239-1.643-1.422-2.193-.395-1.185-.171-2.826.298-3.939 2.299 2.044 2.966 2.949 5.533.995 1.085-.824 1.417-1.188 2.673-1.604.34-.113 1.104.236 1.401.04 1.135-.747.091-.571.631-1.454-.136.223.817-2.123.772-1.633.115-1.25.485-.866-.269-2.401-1.479-3.005-5.244-3.127-3.325-6.556.755-1.349 1.419-1.214 1.632-3.17.114-1.052-.028-2.258-.032-3.327-.009-2.188.402-3.72-1.648-4.833-1.971-1.072-3.789.104-4.589-2.553-.838-2.788.006-6.363-3.015-8.272-2.208-1.395-5.396-.202-7.836-.884-2.444-.683-4.692-3.184-7.174-1.264-1.762 1.364-2.698 4.719-6.019 2.905-1.499-.818-2.325-3.565-3.27-5.106-1.506-2.455-2.714-3.342-5.032-.951-1.428 1.475-4.441 5.066-4.625 7.108-.202 2.254 1.765 3.196-.705 4.529-2.457 1.327-3.835.354-5.83 3.047-1.978 2.672-.447 4.148-2.738 6.704-2.865 3.195-4.389 4.574-4.349 8.879.028 2.953-2.582 5.503-1.059 8.304 1.706 3.139 6.685 4.445 9.704 5.723-1.008 1.861-2.39 3.055-1.214 4.971 1.066 1.736 4.079 2.096 5.946 1.781 1.256-.211 1.301-.021 2.29-.904.647-.579-.241-1.3 1.093-1.62 1.419-.343 3.686 2.439 4.608 3.134-2.06 2.673-7.717 3.172-10.711 4.527-1.824.826-3.5 2.048-5.358 2.787-1.685.67-3.735.514-5.263 1.551-2.639 1.791-3.736 6.227-5.353 8.834-1.831 2.952-3.606 4.323-7.118 4.936-4.381.764-7.91 1.071-11.996 2.979-4.989 2.329-9.908 4.789-14.809 7.3-7.905 4.05-15.247 8.207-22.588 13.106-7.679 5.125-15.148 10.475-22.557 15.831-7.329 5.297-13.482 11.813-19.848 18.219-5.146 5.178-9.662 10.767-14.788 15.943-6.052 6.113-10.503 13.827-16.114 20.311-3.07 3.548-6.008 7.036-7.934 11.215-1.561 3.387-4.276 6.711-6.088 10.265-2.316 4.544-4.508 9.015-7.108 13.408-1.067 1.803-2.335 3.35-3.461 5.071-1.442 2.204-1.357 4.332-1.745 6.873l-1.215-1.859c-.734 1.603-1.623 3.181-2.259 4.823-.406 1.048-.342 2.535-.75 3.451-.511 1.151-1.134.998-1.772 1.956-.682 1.025-.901 2.402-1.62 3.501-3.107 4.75-4.302 10.778-5.899 16.199-2.141 7.272-1.803 15.63-1.687 23.128.124 7.921.557 15.841 1.748 23.677 1.079 7.097 3.386 13.904 6.998 20.127 3.147 5.422 7.487 8.582 13.045 11.359 2.553 1.276 4.922.882 7.602 1.086 2.935.222 4.936 1.019 8.042.318 1.49-.336 2.194-1.421 3.378-1.782.733-.224 1.128.142 1.831.056 1.006-.122 3.098-.615 4.19-.496 3.395.37 2.825 5.502 3.159 8.121.514 4.036.891 8.115 1.584 12.125 1.458 8.434 4.606 16.313 6.466 24.602-8.622 1.052-16.018 2.66-24.099 5.923-8.107 3.272-16.304 4.382-24.836 6.009-7.982 1.522-15.66 4.365-22.049 9.517-2.994 2.414-6.105 5.239-3.906 9.213 1.406 2.543 3.941 3.189 6.129 4.666.442-.559-.837-1.744-1.071-2.073 1.84.378 1.783 1.236 3.127 1.983 1.174.653 2.135.63 3.42 1.091 3.138 1.127 4.68 3.939 7.782 4.729.975.248 2.252.841 3.25 1.01 1.198.202 2.096-.322 3.31-.1a6.724 6.724 0 002.127.926c.5-.232.993-.477 1.48-.735 1.745.181 2.823 1.279 4.241 2.18.095-1.136-.042-2.316 1.034-3.057.42 1.105-.258 1.804.888 2.564 1.452.964 3.359-.239 4.66-.848.367 3.672 8.871 3.455 11.567 3.403 3.733-.072 7.462-1.553 11.228-.727 1.922.421 3.973.861 5.885 1.408 2.303.658 5.087 1.246 7.354 2.076.901.33 2.006 1.387 2.965 1.316.764-.057.969-1.184 1.858-1.152 1.006.037 1.344 1.158 2.215 1.495 1.303.504 2.502-.454 3.741.03.445.173 1.048.919 1.618 1.163.865.368 2.577.373 3.54.551 1.365.253 2.587.083 3.756.166.943.068.923.702 1.374.743.517.047 1.419-1.732 2.114-1.993 1.012-.38 2.85.525 3.883.684-7.481 10.137-16.501 19.097-26.279 26.942-10.547 8.463-21.347 16.914-32.657 24.337-10.268 6.74-20.208 12.569-28.17 22.083-6.713 8.022-17.399 16.606-15.752 28.234 1.646 11.618 14.266 16.346 24.378 18.564 12.718 2.79 25.811 1.667 38.563 3.235 5.438.669 11.481.312 16.955-.258 6.466-.673 12.008-4.891 17.567-7.941 9.998-5.487 18.547-12.828 28.395-18.486 12.331-7.084 24.532-14.591 38.051-19.336 6.289-2.207 12.764-4.726 17.837-9.266.755-.676 1.317-1.696 2.17-2.252 1.45-.946 1.839.013 2.681-.274.647-.22 1.274-.92 1.834-1.129 1.419-.532 2.052-.313 3.64-.313-1.363-.785-2.61-2.81-1.196-4.461 2.423-2.827 2.84 1.691 3.75 2.737.772-.991.476-1.873.279-2.999l1.956 1.291c-.449-2.18-.022-4.187 1.134-6.086 1.065-1.751 1.327-1.504 1.621-3.93 3.309 3.019 3.955-4.309 4.253-6.981.288-2.59.004-4.45 1.708-6.716 1.83-2.432 4.612-3.97 6.935-5.859 3.669-2.986 7.706-6.757 12.78-3.894 4.006 2.261 6.185 7.804 9.944 10.652 2.279 1.728 4.685 1.902 6.138 4.581 1.175 2.166 1.556 4.758 2.666 6.982 2.687 5.39 6.555 11.558 10.967 15.693 4.108 3.848 9.381 3.828 14.187 6.215 4.758 2.364 9.702 4.924 14.739 6.637 5.501 1.871 11.433 2.666 16.789 4.932 2.755 1.166 5.218 2.922 7.998 4.038 2.997 1.203 6.154 2.052 9.192 3.154 12.033 4.37 23.81 9.728 36.452 12.15 5.607 1.073 10.798 3.992 16.446 4.606 2.422.264 4.399.597 6.769 1.203 3.72.95 2.932 1.455 4.302 4.555 2.254 5.104 7.759 2.082 12.002 2.209 6.792.205 13.48-.892 20.261-.945 11.86-.091 23.278-1.426 34.75-5.319 11.518-3.907 24.63-13.324 15.058-26.334z" fill="#000"/><path fill-rule="evenodd" clip-rule="evenodd" d="M533.277 449.649c.163.163.543.261 0 0zM324.385 667.013c2.576-2.609 13.535-2.082 14.363 2.586.923 5.21-8.869 13.079-12.452 15.285-4.612 2.839-10.241 3.372-9.424-3.757.619-5.385 3.845-10.399 7.513-14.114zm9.05-5.371c.334 1.443-2.129.952-2.807.61-.319-.657 2.473-2.059 2.807-.61zm-18.898 9.554c2.186.196 4.69-3.309 6.339-4.503.729 1.126-4.077 7.316-4.606 8.729-1.321 3.529-2.055 7.989-.255 11.509 5.262 10.287 18.728-4.403 22.096-9.535 2.356-3.589 3.988-8.039.659-11.556-1.185-1.252-3.142-1.6-4.243-2.791-1.449-1.565-.309-3.587-3.222-3.245-2.01.236-4.424 2.049-6.379 2.705-2.355.79-4.473 1.609-6.529 3.074-.463.33-6.561 5.37-3.86 5.613zm154.484 3.453c-1.373 7.068-8.379 14.318-15.751 14.6-7.342.28-9.719-7.409-8.423-13.538 1.106-5.227 5.624-14.307 12.072-13.307 5.068.786 13.28 6.186 12.102 12.245zm-4.675-11.813c-4.654-3.601-11.085-5.267-16.481-2.41-1.768.936-8.829 5.068-6.681 7.865 2.897-2.245 5.399-5.359 9.163-6.106-.633 2.918-4.249 5.542-5.523 8.383-1.489 3.319-2.304 7.118-2.06 10.765.435 6.492 4.784 11.536 11.518 10.643 6.165-.817 11.554-5.54 14.496-10.85 3.926-7.092 1.714-13.537-4.432-18.29zm-43.224 27.88c-3.315 4.905-8.368 9.52-14.211 11.035-7.564 1.961-5.439-4.288-3.179-8.773 1.999-3.964 5.428-10.785 10.649-10.748 1.772.011 5.073.868 6.626 1.815 3.061 1.868 1.86 4.089.115 6.671zm-7.06-10.782c1.189-1.324 6.456-7.002 7.162-2.576 1.512-1.753.319-3.207-1.617-3.392-2.336-.224-4.889 2.376-6.575 3.668-3.469 2.658-6.139 5.379-8.438 9.105-2.534 4.108-8.997 13.392-3.341 17.468 6.113 4.406 15.011-3.731 18.839-7.927 2.448-2.684 5.691-6.626 4.76-10.562-1.143-4.834-6.769-5.342-10.79-5.784zm-26.087-79.058c-3.421 3.902-10.37 9.587-16.096 8.917-5.222-.611-3.184-6.471-1.335-9.306 2.776-4.262 6.496-8.264 11.871-8.497 2.319-.1 5.326-.053 7.124 1.703 2.454 2.399.244 5.122-1.564 7.183zm-.363-10.841c-4.008-1.384-5.582-1.911-9.477.289-3.127 1.767-5.901 4.265-8.047 7.1-3.212 4.245-6.452 13.794 1.796 14.988 9.047 1.31 30.566-17.248 15.728-22.377zm12.331 24.362c-2.602 2.657-5.851 4.825-9.56 5.565 1.569-3.499 5.072-11.144 9.226-12.209 1.913-.491 4.094.152 3.937 2.331-.114 1.576-2.576 3.263-3.603 4.313zm3.351-9.25c-2.155-1.08-1.476-1.817-3.983-.97-1.976.666-4.468 1.824-6.113 3.158-.898.728-3.692 3.308-3.35 4.621.62 2.387 2.704-1.27 3.252-1.973.939.765-3.863 7.634-4.148 8.764-1.065 4.21 2.24 4.655 5.48 3.278 4.368-1.857 17.305-12.649 8.862-16.878zm15.786 51.79c.962-1.971 2.062-2.624 4.012-3.487a72.098 72.098 0 01-4.012 3.487zm1.407-4.856c-1.381 1.385-4.546 3.497-4.103 5.877.405 2.172 2.064 2.047 3.569 1.37 3.157-1.418 4.913-7.628 8.215-8.21-3.662-2.32-4.517-2.212-7.681.963zm.484-123.326c.176 6.613.331 13.225.477 19.839.051 2.324-.504 5.637.194 7.863.308.981 3.094 5.232 4.083 5.507 3.459.962 2.223-7.706 2.247-9.84.084-7.201-.022-14.41-.051-21.612-.016-3.711 1.032-34.828-3.785-34.676-.829.026-2.874 3.584-3.181 4.297-.968 2.24-.612 5.561-.589 7.948.065 6.888.423 13.786.605 20.674zm29.166 19.277c.271 1.829.129 4.878 2.188 5.826 1.791.824 2.478-.157 3.148-1.689 1.541-3.524.985-8.913.956-12.557-.056-7.222-.87-14.414-1.432-21.609-.247-3.157.266-6.328-.129-9.631-.173-1.45-.346-7.282-3.034-7.01-2.431.245-2.212 6.357-2.344 7.932-1.102 13.109-1.294 25.652.647 38.738zm114.728 150.54c-1.031 5.265-17.839 23.6-22.071 13.345-2.511-6.083 2.932-12.706 7.176-16.228 2.627-2.18 5.908-4.318 9.489-3.658 3.039.561 6.059 3.197 5.406 6.541zm-8.68-9.444c-1.187.281-11.11 7.246-11.201 7.155-.862-.865 5.397-10.19 6.041-11.007 5.306-6.72 8.827-1.631 12.146 3.651-.707-3.155-2.651-7.735-5.9-9.07-4.101-1.684-7.301 2.474-9.274 5.463-2.79 4.225-4.327 8.813-5.877 13.581-.739 2.274-1.581 4.335-2.833 6.385-1.235 2.023-3.397 4.253-3.077 6.813 1.756-.976 2.689-2.886 3.795-4.46 1.234.499.81 4.434 1.061 5.436.63 2.516 2.35 4.485 5.01 4.919 4.959.806 10.311-3.78 13.626-6.894 3.493-3.282 7.253-7.781 7.223-12.832-.032-5.277-5.223-10.445-10.74-9.14zm13.442-84.6c-2.814 4.304-7.75 9.463-12.973 10.463-3.834.734-6.363-2.107-4.823-5.941 1.301-3.241 5.734-5.287 8.639-6.713 2.305-1.131 13.05-3.765 9.157 2.191zm-2.07-7.04c-5.763-.217-10.41 3.947-14.708 7.271.971-3.818 3.166-7.972 6.257-10.457 4.206-3.383 8.194-1.283 12.623.409-1.093-3.446-5.997-4.686-9.121-4.199-3.951.616-6.791 3.987-8.788 7.248-2.382 3.89-3.198 8.475-6.002 12.124-1.284 1.67-9.235 7.92-7.435 10.475l8.91-9.454c.77 3.725 1.619 7.966 6.376 7.603 3.799-.289 8.132-3.518 10.91-5.985 3.588-3.187 10.649-14.669.978-15.035zm-80.722 36.75c-2.441 1.122-7.815 2.648-9.18-.724-1.896-4.682 4.205-12.895 7.109-16.014 1.786-1.92 2.998-2.913 5.489-1.671 1.987.993 4.909 3.811 5.672 5.979 1.638 4.652-5.272 10.675-9.09 12.43zm5.6-22.487c1.988.448 2.232 2.972-.254 2.003-1.863-.726-2.296-2.577.254-2.003zm2.496 3.555c-.742-2.264.768-5.814-2.888-5.978-2.071-.092-5.866 2.013-7.675 2.869-2.506 1.186-4.865 2.996-6.174 5.546-1.213 2.362-.347 2.984 1.501 1.024.226.153-4.18 11.513-4.219 12.652-.172 5.202 3.512 8.628 8.685 7.705 4.755-.848 9.04-4.734 11.656-8.657 1.324-1.986 2.411-4.259 2.511-6.691.152-3.731-2.336-5.231-3.397-8.47zm22.806-1.908c-2.006-3.862 2.643-10.362 6.805-8.461 8.665 3.959-4.173 13.525-6.805 8.461zm7.785-5.042c-.93.038-6.809 2.308-5.944 3.847 1.188 2.111 5.479-2.998 5.944-3.847zm-284.248-7.138c-.232-1.645-3.921.743-3.899 1.803.61-1.22 4.383 1.625 3.899-1.803zm201.72-124.302c4.696-.345-1.287-24.027-4.709-21.932-3.71 2.269.4 22.249 4.709 21.932zm8.77-11.058c4.399.63 3.7-9.468 1.333-11.276-4.367-3.336-6.674 10.511-1.333 11.276z" fill="#000"/><path d="M114.323 242.561c63.253 0 114.53-51.277 114.53-114.53s-51.277-114.53-114.53-114.53S-.207 64.778-.207 128.031s51.277 114.53 114.53 114.53z" fill="#fff"/></svg>