<svg width="1440" height="500" viewBox="0 0 1440 500" fill="none" xmlns="http://www.w3.org/2000/svg" preserveAspectRatio="none"><mask id="a" maskUnits="userSpaceOnUse" x="0" y="0" width="1440" height="500"><path fill="#FBF4F2" d="M0 .998h1440V500H0z"/></mask><g clip-path="url(#clip0)" mask="url(#a)"><path d="M1204.22 557.414c128.8 0 233.21-104.415 233.21-233.217 0-128.802-104.41-233.216-233.21-233.216C1075.41 90.98 971 195.394 971 324.197c0 128.802 104.41 233.217 233.22 233.217z" fill="#fff" fill-opacity=".5"/><path d="M728.902 12.015c58.026 0 105.065-47.039 105.065-105.065 0-58.025-47.039-105.064-105.065-105.064-58.025 0-105.064 47.039-105.064 105.064 0 58.026 47.039 105.065 105.064 105.065z" fill="#fff"/><path d="M761.049 197.099c128.71 0 233.05-104.34 233.05-233.05C994.099-164.66 889.759-269 761.049-269 632.34-269 528-164.66 528-35.95c0 128.709 104.34 233.049 233.049 233.049z" fill="#fff"/><path fill-rule="evenodd" clip-rule="evenodd" d="M784.923 272.124l-2.687 43.889c5.76-1.658 42.403-12.436 40.14-1.508-1.624 7.838-11.926 16.316-17.175 21.773a379.014 379.014 0 01-14.906 14.667 696.308 696.308 0 0128.351-10.163c7.204-2.405 14.462-4.753 21.844-6.555 2.74-.67 10.14-3.402 12.729-1.539 6.802 4.894-30.108 40.941-35.164 46.022 7.149-3.323 14.47-6.342 21.916-8.933 5.375-1.871 21.983-9.019 26.74-2.915 5.091 6.531-7.523 21.529-11.021 26.285-5.012 6.813-10.444 13.349-16.144 19.6 23.689 21.269 51.525 40.2 81.151 51.967 21.722 8.627 43.059 10.823 65.98 6.089 23.543-4.865 46.133-14.194 67.593-24.859 12.61-6.265 25.05-13.043 36.91-20.658a501.371 501.371 0 01-14.24-18.165c-6.58-8.792-14.67-18.399-18.42-28.866-3.67-10.243 10.1-8.243 16.71-7.687 9.57.805 19.11 2.515 28.48 4.56a456.15 456.15 0 01-19.51-14.352c-8.32-6.449-19.4-13.742-24.85-23.021-4.78-8.16 5.72-6.099 10.58-5.03 11.57 2.55 22.84 6.894 33.88 11.131a653.642 653.642 0 0124.08 9.776 252.054 252.054 0 01-14.3-13.455c-6.17-6.269-14.49-13.925-17.25-22.558-5.63-17.581 32.25-4.319 38.71-1.606-1.19-18.212-2.38-36.424-3.58-54.636-50.16 13.342-100.32 26.685-150.475 40.029-5.42 1.442-12.204 4.582-17.858 4.75-5.12.153-11.305-2.152-16.298-3.105l-90.768-17.337-71.148-13.59z" fill="#85A090"/><path fill-rule="evenodd" clip-rule="evenodd" d="M1324.02 898.535c-5.41 3.097-11.76 5.489-17.77 7.093-3.53.944-9.37 3.855-12.48 1.187-1.49-1.282-1.83-4.191-2.71-5.878-1.39-2.67-3.37-4.976-5.22-7.336a301.836 301.836 0 00-14.05-16.615c-2.32-2.55-6.55-8.501-10.64-8.109-5.09.487-4.96 7.529-3.69 11.127 4.06 11.454 16.35 21.438 24.38 30.067-2.04 3.141-13.25 2.767-16.36 2.032-4.76-1.122-5.24-4.505-7.41-8.376-5.07-9.045-15.36-14.105-23.83-19.422-3.08-1.941-9.64-7.315-13.66-5.962-3.81 1.282-3.64 6.147-2.43 9.324 1.83 4.802 7.05 8.132 10.9 11.167 5.15 4.045 9.85 8.448 14.13 13.4-6.17.503-12.33 1.373-18.49 1.881-7.45.614-13.66-3.473-20.52-5.789-6.37-2.153-12.72-3.973-18.99-6.454-7.04-2.786-14.41-3.755-21.51-6.199-27.85-9.591-55.14-21.653-81.99-33.812-12.79-5.794-25.32-11.592-38.64-16.126-9.72-3.305-24.98-9.892-27.3-21.458-1.23-6.111 3.24-12.682 3.9-18.787.77-7.183.16-15.086-2.03-21.978-1.93-6.071-5.12-11.693-7.64-17.522-2.94-6.794-.31-6.683 5.39-7.456 6.83-.925 14.79-4.766 21.21-7.267 7.39-2.883 14.71-6.911 21.48-11.052 6.12-3.746 11.45-8.574 16.32-13.818 4.96-5.334 8.17-11.655 12.97-17.12 17.69 21.749 34.5 43.829 53.3 64.638 8.87 9.823 18.52 17.944 29.45 25.412 4.57 3.121 9.1 6.682 14.07 9.148 6.22 3.086 13.17 5 19.57 7.817 24.51 10.796 47.9 22.599 70.77 36.53 11.06 6.738 20.35 14.465 30.09 22.918 3.03 2.632 27.87 17.969 19.43 22.795zm-287.54-178.176c-3.96 1.794-7.74 4.124-11.96 5.275 1.2-7.287 8-18.279 16.72-17.07 3.33.461 5.85 3.048 4.38 6.615-1.33 3.24-6.32 3.903-9.14 5.18zM760.758 522.705c-4.491 2.479-8.675 3.922-11.308-1.398 1.95-.391 10.81-1.571 11.308 1.398zm-7.477-15.04c-3.47-1.052-.695-2.158.499-3.427.931-.988 4.011-4.454 5.089-5.026 4.76-2.521 8.439 6.858 10.715 9.902-5.389-.478-11.057.142-16.303-1.449zm37.106 32.477c-6.578 1.114-5.848-7.114-5.651-11.281 1.387 1.693 10.78 10.412 5.651 11.281zm21.798-14.211c-8.019 1.353-13.318-12.497-11.88-18.556 1.265-5.337 7.48-8.316 12.427-9.103 4.796-.764 11.472.278 12.897 5.806 1.258 4.886-8.099 20.951-13.444 21.853zm189.825 209.085c-5.76 1.771-11.407 1.993-17.199 3.731-6.572 1.973-12.654 1.797-19.239 3.139-2.679.545-9.906 4.447-12.52 3.576-2.588-.864-6.335-8.894-7.822-10.983 11.651-4.841 21.59-11.092 29.269-21.293 6.107-8.112 12.655-20.265 8.814-30.735-4.333-11.804-19.268-14.367-29.226-9.436-4.712 2.331-9.381 5.23-13.264 8.783-4.442 4.062-6.188 8.498-9.065 13.508-2.909 5.068-4.951 2.249-7.858-2.055-2.484-3.678-2.16-7.392-5.265-11.022-1.584-1.851-4.036-3.637-4.863-6.029-.524-1.516.58-4.205-.414-5.399-1.398-1.677-3.098.294-4.269-1.204-.85-1.088-.572-3.568-1.451-4.928a12.199 12.199 0 00-2.546-1.983c-1.138-.562-1.345-1.264-.624-2.108-.904-1.673-.033-2.238-1.969-4.273-3.018-3.173-5.769-6.213-7.917-9.957-.982-1.714-.885-4.256-2.105-5.739-1.674-2.037-4.462-1.732-5.901-4.252-1.283-2.247-.425-6.176-2.539-8.216-1.114-.318-2.229-.63-3.346-.938a4.824 4.824 0 01-1.468-2.968c-1.174-1.808-1.407-3.931-2.89-5.84-2.837-3.65-6.654-7.024-9.16-10.874-2.635-4.047-1.238-4.728 3.339-6.176 4.128-1.308 7.897-2.521 11.723-4.746 17.688-10.291 34.458-37.587 6.382-45.926-10.419-3.094-18.979-11.416-30.531-8.145-5.008 1.419-9.759 4.438-13.495 8.02-2.581 2.477-4.972 9.101-8.141 10.371-5.699 2.281-3.29-3.419-4.907-6.037-.772-1.25-3.881-2.69-5.033-3.828-1.352-1.333-2.659-3.016-3.597-4.666-1.743-3.061-2.809-4.767-5.322-7.26-.948-.942-5.677-5.804-1.411-5.169-1.728-5.263.793-6.054 4.277-9.9 4.092-4.516 8.317-10.79 8.341-17.117.048-12.148-14.353-17.591-23.396-10.38-1.84 1.467-12.724 15.631-10.497 6.598 1.201-4.871 12.318-17.589 17.473-14.298-5.777-8.416-19.045 12.017-22.142 16.198-2.637-4.853-2.824-8.65-7.187-12.408-3.552 5.696-1.677-.528-2.459-1.794-1.693-2.732-.763.393-1.681-.578-1.142-1.209-2.941-2.162-4.156-3.762-2.082 2.824-1.251-.215-1.889-1.27-1.492-2.467-.914-3.896-3.471-6.041-1.861-1.56-5.526-3.982-8.03-4.203-2.887-.256-3.687.85-6.629.031-3.742-1.04-8.452-2.638-6.64 3.619 1.315 4.548 6.663 7.132 7.834 11.778 1.18 4.677-3.446 9.39-5.69 13.224-2.882 4.919-5.239 4.517-10.46 5.626-3.337.709-7.79 2.225-4.929 6.272 2.044 2.891 6.833 2.282 9.531 3.995 3.782 2.401 3.73 8.32 8.558 9.35 5.318 1.134 8.365-4.785 12.848-6.214 3.188-1.016 13.064-.903 15.573 1.49 3.42 3.261.465 9.49 1.326 13.541 1.28 6.006 5.345 6.373 10.486 6.565 6.33.236 8.554 6.312 11.958 11.131 7.973 11.287 14.903 23.319 23.069 34.456 3.615 4.931 8.904 9.318 11.864 14.669 3.656 6.609-1.419 10.421-5.799 15.165-5.722 6.199-9.994 13.253-14.957 20.028-4.411 6.022-9.892 4.523-16.94 4.523 1.571-3.237 3.461-5.256 7.324-4.863-4.04-4.932-7.271.71-9.893 3.834-3.791 4.52-8.734 5.61-13.605 8.582-1.724 1.051-11.11 7.866-8.258 10.193.324.264 15.86-9.953 17.63-10.89 0 3.772-.825 7.69-.296 11.441.387 2.75 2.322 5.619 1.909 8.479-.781 5.398-7.759 9.65-10.755 13.856-2.254 3.165-1.71 5.662-2.858 9.06-1.046 3.1-.497 2.162-3.105 3.119-5.311 1.95-14.249.898-19.057-1.874-2.985-1.721-5.275-4.441-7.699-6.838-1.827-1.808-6.421-4.894-6.928-7.423-.871-4.353 7.775-12.443 9.487-16.934 4.832-12.674-3.456-22.526-16.352-23.245 3.975-3.066 8.902-.756 13.092.414-7.163-9.922-19.395-1.758-25.471 4.985-4.151-10.49-6.153-21.556-8.688-32.496-1.728-7.448-8.303-20.743-5.371-28.413 1.418-3.707 5.421-5.774 8.19-8.345 3.145-2.922 5.839-6.415 8.139-10.031 5.419-8.519 8.547-19.272 1.087-27.666 2.267-.374 4.535-.745 6.801-1.119-3.687-3.463-9.504-1.776-14.289-2.803-3.037-.651-11.773-.229-13.799-1.947-2.439-2.065-.876-11.568-.789-14.38.201-6.573.75-12.892 1.476-19.425.688-6.172.55-12.839 1.826-18.902 1.036-4.921 4.345-6.42 8.164-9.319 9.127-6.934 16.565-15.367 13.449-27.315l3.313-.526c-3.572-2.581-8.193-1.642-12.166-3.007 3.648-10.264 11.716-28.307 24.816-29.279.45 4.588.142 10.046 3.239 13.844 3.525 4.323 9.714 4.76 14.49 2.472 4.333-2.078 8.401-6.48 10.399-10.83 1.351-2.944 1.107-7.922 3.479-10.256 3.182-3.13 25.113-1.242 24.441 4.041-.395 3.106-6.26 8.328-7.899 11.08-2.999 5.038-5.401 10.487-6.502 16.274-1.673 8.786-.704 20.386 8.222 25.006 10.151 5.255 22.523-1.427 30.848-7.199 4.572-3.17 9-6.667 13.176-10.341 2.225-1.954 4.46-3.968 6.421-6.191 1.447-1.642 2.604-4.288 4.386-5.516 4.209-2.904 8.335 2.022 11.897 4.51 5.803 4.053 11.576 7.901 17.804 11.274 12.639 6.844 24.195 15.91 35.369 24.911 11.24 9.055 22.829 18.37 31.934 29.65-5.515 3.391-4.53 4.272-6.984 10.321-1.741 4.293-4.14 7.946-4.416 12.717-.479 8.231 4.807 15.246 12.83 17.068 4.488 1.019 8.763.203 12.919-1.631 3.23-1.425 6.451-4.933 9.826-5.805 6.275-1.618 11.296 10.231 14.813 14.405 15.618 18.538 32.128 36.342 46.838 55.636 1.63 2.137 6.47 6.312 6.86 9.141.57 4.064-5.83 7.935-8.48 10.264-1.39 1.222-16.16 15.11-11.2 17.317 1.41.629 5.55-7.891 6.59-8.62 3.87-2.728.94 2.619.71 5.322-.58 6.719 4.04 10.38 10.53 9.529 6.92-.909 13.09-6.374 17.37-11.535 5.37 6.217 13.77 15.617 15.32 23.923.99 5.307-3.6 18.293 4.97 19.376 1.31.164 6.05-3.348 6.93-1.354.74 1.665-4.38 4.51-5.12 5.061-3.15 2.355-5.06 4.877-7.61 7.729-2.99 3.347-7.07 6.168-10.44 9.375-3.54 3.38-10.56 12.557-15.23 8.123-2.35-2.228-1.74-5.142-5.5-6.449-3.43-1.191-7.77.319-10.96 1.64-3.59 1.486-15.4 6.911-16.71 11.378-1.81 6.16 7.95-1.246 9.69-2.329-1.98 5.025-3.07 12.299-8.12 15.23-4.19 2.435-10.21 3.867-14.81 5.279zm-66.968-38.002c3.353-10.773 23.126-29.981 35.623-23.973-14.565 3.051-26.122 13.016-35.623 23.973zm7.395 30.851c-4.873-2.715-4.611-10.602-6.313-15.215-.976-2.648-2.929-4.582-2.355-7.519.672-3.444 5.066-7.273 7.405-9.757 7.362-7.818 20.317-18.502 32.165-16.71 15.082 2.282 4.858 22.523-.278 29.492-4.376 5.943-21.242 24.936-30.624 19.709zm-35.183-13.176c-16.31-1.089-32.564-2.546-48.651-5.538-5.704-1.062-10.482-.905-7.219-7.46 1.078-2.164 7.575-15.724 9.041-15.335.87.231.671 9.551.927 10.619 1.152 4.798 4.386 9.268 9.838 8.964 8.92-.497 14.67-12.027 19.367-18.216 3.762 5.058 6.486 10.676 10.269 15.649 1.808 2.377 8.102 7.907 6.428 11.317zm-95.62-64c-2.736 6.277-8.239 12.247-12.066 17.934-2.164-4.579-3.686-15.091 1.447-18.477 1.943-1.28 12.35-3.425 10.619.543zm56.567 18.692a101.216 101.216 0 012.517-7.167c1.596 5.021 2.412 5.169-2.517 7.167zm13.961 5.142c1.98 3.354 5.279 6.653 4.762 10.865-.393 3.192-3.279 6.463-5.34 8.688-3.411 3.679-10.968 10.742-15.91 5.856-4.128-4.082-2.691-15.304-.771-19.897 2.743-6.562 12.54-13.503 17.259-5.512zm-9.686-6.875c1.135-.45-1.249-7.772.963-8.501 1.93 4.399 3.748 5.589-.963 8.501zm-31.165-98.53c-.735-2.701-2.421-2.588-1.813-5.927.398-2.19 2.136-4.528 3.455-6.263 2.628-3.458 6.095-6.309 9.845-8.467 7.915-4.554 18.784-6.446 25.87.684-6.624 1.046-26.934 7.583-27.063 16.642 7.367-1.419 13.16-8.817 20.549-11.148 6.065-1.914 12.643-1.78 18.676.241 16.515 5.53 9.648 19.8.326 29.068-5.533 5.503-12.169 9.612-19.422 12.446-3.357 1.312-5.416 1.457-8.716.798-.618-.124-1.341-1.27-2.081-1.515-1.841-.61-1.308 1.456-2.824.528-1.324-.809-4.146-6.03-5.047-7.525-1.432-2.378-2.1-4.692-3.858-6.864-1.761-2.173-2.618-5.085-4.246-7.051-.782-.946-2.925-.908-3.501-1.831-.863-1.387.236-2.397-.15-3.816zm-25.363 106.42c3.753-6.52 10.175-12.054 15.143-17.753.306 9.366-6.413 15.779-15.143 17.753zm5.072 3.011c7.752-2.726 12.023-9.25 12.814-17.159 1.003-10.019 7.295-15.277 11.084-24.278 1.452-3.449 3.146-14.8 8.777-11.551 1.932 1.114 3.077 5.306 4.084 7.199 2.436 4.58 5.204 9.021 7.787 13.518 2.104 3.662 5.256 7.344 4.328 11.752-.809 3.844-3.413 7.939-4.938 11.563-3.6 8.561-8.33 16.445-12.282 24.817-1.595 3.378-3.482 11.375-8.35 11.334-3.854-.033-3.423-4.244-5.96-5.688-3.202-1.822-6.843 1.645-9.474 3.082 3.029-5.112 8.325-8.008 14.278-7.045-7.128-7.096-11.944 2.478-18.061 4.61-5.796 2.022-16.079-7.508-20.959-10.208 1.867-3.161 3.554-7.026 6.764-9.106 3.046-1.973 6.783-1.67 10.108-2.84zm-63.022 64.847c.848-4.086 3.247-6.501 4.768-10.211 1.763 4.498-2.366 7.152-4.768 10.211zm123.159 25.072c-.417 13.759-1.541 27.481-1.947 41.245-.187 6.347-1.311 12.401-2.057 18.674-.631 5.306-.31 10.516-3.651 15.049-5.267 7.146-15.507 9.2-23.457 11.847-5.839 1.944-11.744 3.708-17.509 5.868-5.188 1.943-9.369 4.887-14.302 7.197-4.412 2.067-9.176 3.292-13.569 5.494-4.542 2.278-8.133 5.053-12.8 7.081-5.586 2.427-10.19 6.747-15.158 10.175-4.374 3.018-9.001 5.349-12.763 9.143-3.528 3.561-7.994 5.122-11.993 8.285-4.228 3.345-8.653 5.519-13.323 8.142-9.568 5.375-22.476 14.554-33.991 9.333 3.294-4.205 10.033-8.246 10.546-14.039.667-7.547-5.904-4.769-9.709-2.359-5.763 3.65-8.951 8.056-13.338 12.921-5.129 5.687-11.607 1.861-17.883.261 4.291-3.861 8.548-7.759 12.831-11.627 3.616-3.265 9.148-6.795 11.35-11.31 1.574-3.229 1.497-7.653-2.301-9.329-4.248-1.874-9.053 2.078-12.2 4.431-8.354 6.248-13.856 14.172-19.341 22.867-2.918 4.624-4.262 4.269-9.63 3.345-5.688-.979-11.377-2.024-17.112-2.71 7.597-7.8 16.088-16.25 22.088-25.377 1.944-2.957 4.48-10.75-1.443-11.468-2.44-.295-7.299 4.694-9.183 6.039-8.227 5.879-16.137 13.294-21.59 21.877-1.8 2.833-2.366 5.984-5.851 6.219-4.557.309-13.026-4.04-17.422-5.383 8.402-10.589 16.746-21.254 26.562-30.591 9.02-8.58 18.017-14.814 28.565-21.394 11.306-7.055 21.837-15.176 32.216-23.509 9.936-7.978 20.315-15.503 29.461-24.41 18.268-17.793 34.54-38.255 48.015-59.892 3.152-5.063 6.12-10.257 8.686-15.645 2.409-5.059 3.52-11.109 6.772-15.71 1.124-1.59 2.707-2.772 3.709-4.43.945-1.563.624-3.451 2.065-4.834 3.331-3.197 9.397-1.269 12.512.972 5.007 3.603 9.059 7.978 14.562 10.995 5.536 3.033 11.525 5.239 17.654 6.73 14.326 3.482 28.529 6.339 43.124 8.455-1.502 5.568 2.187 6.445 3.408 11.455 1.484 6.079-.418 13.725-.603 19.917zM743.21 675.621c-3.249-4.824-6.147-9.868-9.34-14.724-1.944-2.958-4.354-6.134-2.692-9.75 2.799-6.098 12.674-7.183 18.032-4.525 12.182 6.044.866 23.323-6 28.999zm-32.246-110.335c-1.121-9.43 2.486-16.12 11.019-21.064 6.082-3.524 10.979 1.292 10.149 7.716-1.264 9.786-11.725 20.672-19.709 25.778-.522-4.139-.964-8.288-1.459-12.43zm-1.3-26.98c2.517-1.997 9.258.551 12.174.725l-12.033 10.51c-.262-2.404-2.463-9.392-.141-11.235zm13.534-91.064c20.296-2.638-3.068 19.136-8.949 22.548.956-4.633 3.307-21.813 8.949-22.548zm54.032-38.12c-2.725 11.159-23.912 23.334-24.134 5.054-.081-6.811 3.746-6.26 9.332-6.914 3.187-.372 16.36-4.52 14.802 1.86zm-73.182 17.282c-2.378 6.241-4.285 12.643-6.617 18.891-1.033 2.766-2.248 4.667-4.172 6.86-1.61 1.833-3.527 2.295-3.463 5.192 2.017-.389 3.596-1.591 5.226-2.75-.395 5.743-2.426 11.924-3.409 17.648-1.178 6.866-2.159 13.733-2.522 20.695-.79 15.137-.796 30.22-.464 45.366.17 7.718.246 15.441.663 23.15.208 3.835.442 7.686.917 11.498.192 1.538 1.31 4.815.619 6.257-2.711 5.661-14.719-9.89-19.934-7.607.75-4.309-.98-3.366-3.87-5.485-1.4-1.027-2.31-2.774-3.771-3.689a9.13 9.13 0 00-1.457-1.271c-.604-.823-1.24-.735-1.91.262-5.875-3.511-7.393-10.993-10.546-16.027-1.623-2.588-3.19-2.991-3.466-6.57-.24-3.118.229-6.295.102-9.427-.143-3.532-.35-7.426-1.341-10.846-1.151-3.972-2.733-3.647-5.816-5.763.95-.416 1.576-1.113 1.879-2.093-.984.176-3.976 1.395-4.719.518-1.461-1.721 1.987-1.951 2.894-2.638-3.868-1.716-3.035-3.127-1.639-6.273.395-.89.772-2.22 1.108-2.97.734-1.641 1.156-.602 1.398-2.639.231-1.942-1.492-5.761-1.999-7.83-.851-3.471-1.322-6.471-.557-10.087.619-2.929 2.285-5.58 2.401-8.591.033-.845-1.256-1.126-1.273-1.942-.025-1.194 1.088-1.718 1.378-2.821.739-2.821.406-5.805 1.671-8.482 1.139-2.405 3.439-5.517 5.066-7.616 1.128-1.454 3.896-3.093 4.199-5.013.2-1.272-1.781-1.125-1.692-2.084.12-1.297 1.208-1.718 1.507-2.682.824-2.646 1.031-5.189 3.159-7.217 2.681-2.552 3.846-1.483 3.956-5.693.054-2.054-1.589-2.371-.709-4.738.479-1.286 1.89-2.045 2.793-2.956 2.68-2.703 4.487-5.104 6.395-8.444 1.689-2.95 4.381-4.667 6.11-7.216 2.252-3.321-1.115-4.967 3.455-5.905-.649-2.062-1.34-3.728.369-5.474 1.078-1.101 3.814-.427 4.768-1.701 1.094-1.462-.523-4.927 1.126-5.876 1.34-.77 3.347 1.606 5.453.43 1.605-.897 4.029-5.848 3.512-7.667 4.15 2.333 3.116.726 5.102-2.268.445-.671 1.795-.82 2.178-1.498.767-1.354.592-2.734 1.696-3.835 1.841-1.833 4.853-1.362 6.878-2.671 1.674-1.081 1.586-2.247 2.921-3.267 1.141-.872 3.015-1.039 4.124-1.942 2.174-1.77 2.195-3.638 4.913-5.162 3.22-1.804 6.072-3.338 9-5.73 1.91-1.558 3.722-4.322 5.955-5.35 3.089-1.423 5.496-1.523 8.518-3.552 2.183-1.468 4.249-3.888 6.393-5.125 1.617-.931 2.751-.73 4.79-1.308 3.669-1.04 4.563-4.496 7.555-5.903 2.055-.966 5.046-.081 7.303-.589 7.021-1.576 13.957-4.974 21.002-6.857 8.601-2.297 17.262-4.309 25.928-6.339-7.964 10.79-18.108 20.525-28.395 29.095-3.376 2.814-21.88 15.638-11.907 21.115 4.004 2.198 12.702-4.902 15.935-6.637 6.509-3.495 13.251-6.293 20.068-9.12 11.024-4.571 25.381-12.7 37.631-12.046-7.457 9.146-16.767 16.488-25.296 24.568-7.838 7.425-19.649 14.389-15.953 26.543-11.01-2.801-20.899-6.11-32.346-5.377-5.128.328-10.259-.289-15.363.43-5.55.784-10.777 2.641-16.11 4.27-4.22 1.288-8.883 1.39-12.765 3.532-1.877 1.037-4.196 2.516-5.882 3.801-2.247 1.714-2.758 2.85-4.523 5.108-6.295 8.058-12.386 15.613-16.128 25.43zm-34.435 152.521l-1.051-4.26c3.505 2.157 3.505 2.157 1.051 4.26zm-26.483-44.421c-.432.597-2.247.788-2.774.273-.656-.641 1.069-3.136 1.346-3.666.684.525 2.257 2.243 1.428 3.393zm-7.502-16.167l1.393-5.109c.569 1.578 3.138 3.324 3.194 4.828.036.997-4.08.501-4.587.281zm1.489 2.336c4.021 2.646 4.441 5.769 4.561 10.336-4.811-1.593-4.121-6.25-4.561-10.336zm69.923-180.23c-.406 1.098-2.128 4.52-3.391 2.127-.403-.766 2.551-1.812 3.391-2.127zm-1.155-3.73c.994-.895 2.997.219 4.121-.505.789-.508.528-1.022.898-1.322.074-.061 1.145-2.229 1.584-2.72.775-.865 2.466-1.404 3.408-2.185 2.633-2.182 4.12-5.051 5.776-7.969 1.977-3.484 2.607-3.888 5.795-5.483 2.198-1.1 3.902-2.446 5.69-4.315 2.061-2.153 1.91-3.695 3.602-6.048.835-1.162 2.039-1.305 3.013-2.241 1.167-1.121 1.76-2.689 2.84-3.82.466-.489 1.963-.488 2.245-.907.36-.53.641-2.65.978-3.04.644.87 1.29 1.74 1.933 2.61 2.541-4.467 4.395-8.157 8.644-11.13 4.462-3.122 8.315-7.689 12.927-10.485 1.036-.627 3.148-.892 3.94-1.818 1.339-1.566.18-2.96 1.156-4.29 1.108-1.508 3.255-.287 4.664-.937 1.783-.823 2.293-3.227 4.589-2.962-7.549 8.928-7.454 22.818-7.855 33.968-.174 4.804 2.854 7.226-1.615 10.752-3.801 2.999-9.161 2.109-13.655 4.083-5.643 2.478-11.678 3.797-17.436 5.958-5.956 2.233-10.745 6.145-16.476 8.733-5.054 2.281-8.505 5.525-13.129 8.341-1.718 1.047-4.38 2.567-6.429 1.316-1.284-.785-2.883-2.073-1.208-3.584zm85.254-74.852c.328-1.269 6.771-4.602 8.357-5.689 2.378-1.635 5.9-5.627 8.555-4.041.92-3.684 4.51-7.783 7.682-8.564 3.519-.867 9.556-3.884 13.018-6.517 1.01-.768 1.344-1.893 2.534-2.614 2.072-1.257 4.127-.571 6.123-2.284.305-.261 3.066-4.819 3.176-4.775.141.489.27.983.382 1.48 2.095-1.161 3.961-2.085 5.267-3.567.297-.336-1.623-1.211-1.017-1.876.742-.815 2.398.096 3.148-.678-2.332 11.576-.595 26.476 11.152 32.344-13.971 1.51-27.616-2.69-41.759-.111-6.77 1.236-13.652 3.262-19.81 6.375-3.773 1.908-8.598 8.74-12.354 5.423 1.491-1.987 3.764-3.221 5.546-4.906zm67.788-33.303c5.224-6.388 13.148-8.915 21.129-6.628 9.344 2.679 5.403 9.206 3.992 16.452-2.696-3.951-8.537-7.871-13.511-7.99-7.05-.167-4.386 5.705-.151 7.809 3.849 1.912 10.45 2.445 13.206 5.921 2.682 3.384 1.654 8.916 2.086 12.905l-6.256-.929c1.75-9.311-5.951-9.762-13.132-12.387-7.258-2.651-13.308-7.883-7.363-15.153zm23.401-22.928v8.641c-2.904-1.656-5.81-3.31-8.716-4.966l8.716-3.675zm23.353 69.046c9.7 2.628 19.334 5.408 28.659 9.034 3.387 1.317 7.097 1.783 10.415 3.27 3.16 1.415 3.635 1.267 2.511 4.036-3.149 7.756-10.608 6.417-17.143 5.23-10.229-1.858-20.246-4.433-30.348-6.856-9.873-2.367-19.955-3.918-29.679-6.885-9.979-3.043-19.703-5.925-29.968-7.934-2.996-.587-26.692-2.76-26.513-5.236 14.925-1.938 30.29-.029 45.28.173 15.58.209 31.675 1.073 46.786 5.168zm-13.168-30.004c.185-5.333.259-10.683.922-15.985 4.44 5.479 8.448 7.119 14.044 1.983 5.359-4.915 6.554-7.478 13.348-2.857 5.889 4.008 11.461 3.824 17.716.315 3.815-2.14 9.946-10.883 13.956-9.084 1.911.859 3.312 4.317 5.241 5.589 2.421 1.594 6.144 2.7 8.965 3.319 6.665 1.459 10.635-2.826 14.818-7.409 6.066-6.646 5.888-2.786 11.513 1.822 6.273 5.141 11.514 2.629 17.194-1.757 3.46 10.135 4.76 21.203 5.74 31.829.33 3.587 1.56 8.682-1.67 11.218-2.27 1.789-7.09 1.859-9.83 2.848-9.775 3.535-19.171 8.549-27.35 14.968-3.186 2.501-5.964 5.564-10.319 4.995-4.149-.544-8.182-4.016-11.52-6.309-3.622-2.487-7.287-5.311-11.52-6.697-2.478-.812-6.449-.518-8.618-2.006-4.033-2.768.713-10.027-.292-14.9-.76-3.7-2.89-11.414-7.987-9.245-7.586 3.226-3.171 15.821 1 19.753-8.533-1.515-17.981-3.727-26.211-6.538-6.357-2.172-9.368-9.347-9.14-15.852zm143.117 25.976c17.51-4.916 33.91-8.232 52.14-9.127 8.07-.397 15.88-.147 23.86-.074 4.59.042 8.09-3.662 4.42-7.921-5.08-5.899-20.57-3.654-27.43-3.919-18.4-.71-35.28 1.381-52.7 7.444 1.84-3.394 6.27-3.834 9.3-5.589 3.72-2.154 6.25-5.702 7.84-9.64 4.14-10.242-.02-19.893-4.35-29.249 8.5 2.286 17.29 7.293 25.84 8.564 1.79.266 2.94.095 4.53.747.97.4 1.28 1.783 2.48 2.085.59.146 1.99-1.17 2.64-.984 2.61.736.55.931 2.19 1.996 1.31.845 1.21 1.933 3.6 1.534 1.06-.176 2.21-1.819 2.77-1.863.72-.058.55-.926 1.64-.673 1.99.462 1.81 3.018 2.48 4.276.7 1.339-.3 3.121 1.84 3.854 1.6.548 2-1.142 3.36-1.021.83.074 2.55 1.265 3.28 1.99 2.35 2.336 5.57 4.916 8.73 6.436-.31-.312 1.49-1.065 1.06-1.242-.29-.117 1.61.339 1.58.333 1.82.415 2.79 3.218 3.71 4.24 1.7 1.873 4.33 3.851 6.71 4.678 4.12 1.43 3.99-.28 5.49 4.606 2.93-4.596 4.05 3.101 7.67 3.949 1.88.439 1.66-.365 3.37.617 1.17.674 1.95 2.737 2.84 3.733.38-1.436.75-2.873 1.13-4.308 2.61 4.947 8.25 12.792 14.44 11.373 0 1.35-.56 2.964.48 4.116.73.806 1.92-.109 2.49.359.5.409 1.69 2.036 2.07 2.303.75.528 2.12.913 2.77 1.439.58.463.87 2.674 1.5 3.473 1.2 1.501 3.28 1.799 4.26 3.6.23-1.776.45-3.553.67-5.329 1.95 1.504 2.12 2.673 2.6 4.873.68 3.134-.23 2.4 1.94 3.722 2.12 1.301 3.23 1.155 5.18 3.412 1.91 2.213 1.92 3.576 4.68 1.271.51 1.705.68 3.911 2.04 5.217 1.04.988 5.32 1.03 5.73 3.362-8.04-6.78-2.75 3.518 0 .017.58 3.747 3.32 4.958 6.46 7.626 2.92 2.487 3.4 2.306 4.39 6.484-.02-.092 1.47.832 1.58 1.017-2.85.406 1.57 3.586 2.31 4.168.55.424 1.26-.59 2.16.097 1.04.786 1.88 2.572 2.72 3.65 2.28 2.92 3.97 5.429 6.37 7.804 2.59 2.563 3.85 5.802 6.34 8.797 2.76 3.327 4.25 7.152 6.56 10.763 2.19 3.435 5.11 6.191 7.65 9.336 4.05 5.005 5.43 16.027 12.98 16.317-.45.458.17 3.874.24 4.504.36 3.102.12 6.087 1.96 8.897.42-3.205 2.09-1.97 3.55-.286 2.43 2.801.3 2.096.42 4.935.16 3.441.55.779 1.86 3.783 1.03 2.354 1.59 3.881 2.14 6.493-4.26.337-6.21-3.146-7.79-6.522-.66-1.412-.89-3.732-2.05-4.836-1.25-1.174-2.95-1.267-4.23-2.577-2.45-2.518-3.51-6.445-6.39-8.896-3.26-2.768-3.98-4.076-6.68-7.387-2.98-3.661-7.1-6.232-10.22-9.774-3.14-3.548-2.88-1.611-6.82-2.895-4.18-1.367-10.95-14.519-16.22-9.453.21-3.313-4.76-6.43-7.27-7.631-1.08-.518-2.34-.049-3.43-.827-1.17-.844-1.26-2.471-2.45-3.483 0 .001-1.82.441-2.19.255-.75-.381-.75-1.728-1.42-2.171-1.83-1.228-4.03-2.514-5.97-3.56-4.74-2.541-8.93-5.669-13.5-8.728-3.92-2.621-8.66-7.354-13.19-8.736-3.96-1.206-6.44-.592-9.68-3.009-1.77-1.316-1.25-1.757-4.08-2.576-2.7-.779-4.21-.378-5.64-3.239-2.51-5.007-.93-14.778-1.41-20.391-.52-5.959-1.13-12.064-2.68-17.858-1.84-6.846-4.26-10.426-11.61-8.813-14.56 3.198-28.94 6.241-43.56 9.049-29.14 5.596-57.78 14.728-86.279 22.835-2.17.618-14.28 3.389-11.806-2.871 1.14-2.887 8.804-3.963 11.37-4.87 14.085-4.984 28.235-10.061 42.635-14.101zm-4.9-12.741c-2.13.811-4.25 1.621-6.38 2.434v-5.916c2.13 1.16 4.25 2.32 6.38 3.482zm-8.84-31.28c1.85 1.511 5.61-2.126 7.18-2.863 2.68-1.258 6.1-2.337 9.11-2.079 5.53.479 9.58 5.925 8.56 11.447-1.71 9.342-15.03 13.76-22.37 17.413-.24-3.311-1.31-7.291 1.01-10.155 2.02-2.487 5.93-2.306 7.79-4.951 4.68-6.647-8.01-7.25-10.84-1.964l-3.36-10.134c2.7-.447 1.52 2.141 2.92 3.286zm13.09-18.287l-7.92 5.122c-1.31-5.911 3.15-6.689 7.92-5.122zm240.74 205.72c-3.46 1.65-4.32-2.292-6.81-2.462 2.94-1.806 2.94-1.806 6.81 2.462zm14.08 86.073c.43 5.666.09 11.397.84 17.04.58 4.293 2.32 8.288 2.5 12.629.41 9.509-2.8 19.192-9.29 26.162-6.13 6.594-14.91 12.268-23.2 15.041-3.73 1.247-7.62 4.015-11.25 5.038-4.01 1.132-7.82-1.332-11.13 3.088-2.2-18.957-.59-38.765-.77-57.842-.17-19.117.04-38.242-3.2-57.153-2.88-16.843-8.56-35.788-19.03-49.567-4.25-5.596-9.49-10.179-15.01-14.469-2.87-2.226-5.73-4.605-8.92-6.363-4.91-2.705-9.1-2.331-14.44-3.102-7.64-1.104-14.75-2.036-22.42.116-7.14 2.004-15.01 4.286-21.41 7.767-6.37 3.469-13.77 4.898-20.39 8.004-4.5 2.114-13.85 9.174-18.84 7.903-4.83-1.231-11.99-9.432-15.08-13.105-3.94-4.695-7.2-10.137-10.7-15.188-1.23-1.773-3.74-4.514-4.05-6.791-.56-3.953 1.02-2.661 4.8-2.219 9.71 1.139 18.85 2.94 28.16 5.996 4.63 1.521 13.69 7.672 18.32 3.986 7.07-5.628-3.68-15.302-7.61-18.552-6.71-5.537-14.51-9.65-21.66-14.57-7.59-5.229-17.63-10.795-22.52-18.847 14.27 4.212 28.53 9.036 42.39 14.467 6.34 2.484 12.6 5.109 18.56 8.413 3.34 1.855 10.1 6.873 14.13 4.47 8.75-5.225-11.35-20.399-14.26-23.5-4.5-4.819-8.92-9.592-13.88-13.964-3.34-2.949-8.59-5.023-10.15-9.374 5.55 2.008 10.04 5.941 15.23 8.613 2.72 1.4 5.21 2.206 8.21 2.635 3.2.458 3.59.969 6.11 2.241 1.96.993 3.98 2.319 6.19 2.994 1.57.481 4.32.564 5.69 1.456.7 1.002 1.43 1.987 2.18 2.954.84.247 1.66.53 2.48.853 1.21 1.087 1.94 2.584 3.12 3.705 8.61 8.135 20.12 13.957 29.77 20.772 9.12 6.448 18.81 12.28 27.58 19.317 10.08 8.099 20.56 16.803 29.14 26.515 4.85 5.489 8.83 11.712 12.91 17.781 2.94 4.394 7.23 8.04 9.78 12.571 5.56 9.879 10.18 20.559 16.16 30.278 6.1 9.904 14.04 19.745 14.96 31.801zm-82.01 57.321c1.66-6.856 11.04-14.862 17.03-17.885-3.02 7.471-11.06 12.565-17.03 17.885zm15.47 23.917c-5.12 10.603-27.6 11.816-24.55-3.875 1.5-7.688 7.84-12.406 13.29-17.437 2.51-2.324 8.68-10.641 12.57-9.301-.18 5.979-.53 11.984-.52 17.965.01 3.992 1.01 8.895-.79 12.648zm-6.5-122.207c2.07 4.657 4.14 8.534.29 12.7-1.73 1.881-7.39 5.994-9.95 5.08-8.22-2.929 7.45-15.685 9.66-17.78zm-49.7-41.434c1.98-.108 3.9.186 5.86.066 1.94-.121 2.15-.467 3.96-.22l.57.831c.24 1.857 1.22 2.059 2.92.606 2.38.527 3.92.88 6.18 2.16-6.11 4.41-13.56 9.537-21.06 11.018-11.86 2.339-8.58-13.902 1.57-14.461zm-181.752 99.177c-1.229 2.472-4.765-3.705-5.64-4.856 1.631-.006 6.883 2.361 5.64 4.856zm95.262-65.078c9.21-5.372 20.15-10.091 30.04-14.091 1.74 8.378-6.74 19.195-11.97 24.928-4.22 4.637-9.32 9.445-15.05 12.114-6.19 2.884-12.96 1.617-12.66-6.478.11-2.959.78-7.718 1.99-10.422 1.55-3.486 4.49-4.21 7.65-6.051zM956.053 299.422c1.371-.08 16.264-2.005 16.185-.153-.235 5.568-14.69 1.196-16.185.153zM850.738 406.928c7.866-9.702 20.565-20.175 20.751-33.735.274-19.953-21.878-9.998-33.015-9.168 5.889-5.784 35.482-30.05 17.978-38.669-5.032-2.477-12.182-.057-17.231 1.241-8.957 2.303-17.286 6.291-26.086 9.067 6.288-6.692 17.152-14.296 16.796-24.43-.434-12.335-10.563-9.353-19.322-7.543-3.366.696-18.401 6.675-21.225 2.616-1.035-1.487.639-3.377.993-4.7.626-2.343.433-3.161.454-5.554.043-4.828 3.252-11.027.635-15.518a21.876 21.876 0 00-1.537 3.186c-.863-2.614-.283-5.385-1.146-7.998 21.866 5.59 44.11 8.65 66.113 13.422 11.138 2.415 21.622 6.575 32.913 8.447 11.388 1.887 22.578 4.775 33.986 6.575 10.41 1.642 20.382 4.375 30.691 6.471 10.048 2.044 20.354-2.435 30.161-4.703 21.963-5.078 43.923-10.281 65.923-15.209 25.38-5.69 51.79-10.553 76.08-20.041a447.297 447.297 0 003.03 37.825c-10.73-5.071-26.65-11.683-37.5-2.609-4.34 3.63-5.68 9.897-3.96 15.228 1.87 5.802 7.59 8.497 11.36 12.865-11.49-2.944-41.12-23.7-46.4-2.72-3.72 14.818 14.45 24.39 23.34 32.731-8.83-1.727-20.64-8.78-25.83 2.555-4.47 9.799.92 20.461 6.44 28.543 3 4.379 6.37 8.5 9.55 12.743 1.68 2.244 3.33 4.52 5.09 6.698 1.78 2.184 5.12 4.472 6.37 6.823 2.5 4.741-2.55 5.031-6.48 6.743-4.9 2.139-9.11 5.73-13.6 8.593-10.27 6.554-19.24 12.641-31.38 14.736-12.49 2.156-24.52 4.408-36.847 7.415-12.29 2.998-22.323 5.879-34.886 2.004-5.728-1.767-10.393-3.337-16.468-3.005-6.381.35-10.112.019-15.358-3.933-22.577-16.997-47.082-30.945-70.383-46.992zm-40.701-17.064c8.726-4.376 17.509-8.775 26.522-12.535 7.46-3.114 18.789-6.741 26.955-5.377-2.302 5.912-6.503 10.763-11.009 15.116-3.985 3.85-8.964 9.661-13.786 12.348-4.379 2.439-9.474-1.424-13.793-3.043-4.745-1.778-11.275-2.607-14.889-6.509zm2.193 22.078c4.348-1.806 13.693 4.255 17.647 5.83 7.772 3.099 15.587 6.334 22.436 11.222-8.363 9.661-17.835 18.495-29.089 24.701-7.405 4.083-19.886 8.766-26.87 1.353-8.776-9.317 1.774-28.3 7.986-36.283l.619 4.097c1.982-3.173 3.495-9.351 7.271-10.92zm159.625 82.693c-5.424 1.142-7.268.111-10.848-4.047-2.421-2.811-4.8-5.73-7.529-8.258-2.786-2.579-9.665-8.798-.9-5.217 7.989 3.263 14.832 4.896 23.622 3.617 10.05-1.461 19.42-5.709 29.33-7.86-5.43 4.752-10.825 9.551-16.268 14.29-5.75 5.006-10.1 5.937-17.407 7.475zm1.241 38.217c-11.887 8.943-35.82 7.975-27.765-11.701 1.224-2.989 2.936-5.802 4.917-8.348.66-.85 1.836-2.611 2.777-3.182 2.629-1.594 1.9-1.787 4.428.871 2.181 2.293 19.225 21.027 15.643 22.36zm-3.524-34.19c1.088-.353 5.677-3.013 6.722-1.541 1.058 1.489-7.937 6.643-6.722 1.541zm86.538 136.389c-2.67 6.393-24.06 15.649-20.08 2.761 1.77-5.709 3.43-10.031 10.09-10.464 3.84-.25 12.35 2.074 9.99 7.703zm38.37-86.639c3.53-5.126 15.15-12.057 20.12-4.413 2.39 3.683-3.41 5.569-6.92 4.623-1.89-.51-3.43-1.636-5.48-1.721-2.63-.108-5.21 1.958-7.72 1.511zm9.34 5.088c-2.39 2.423-16.84 14.571-19.18 12.698 4.72-6.74 10.14-14.267 19.18-12.698zm-23.59 122.933c-5.01.284-2.51-7.271-2.02-10.291 1.21 2.104 7.6 9.976 2.02 10.291zm12.75-13.54c-1.63-2.886-6-7.182-5.01-10.894.76-2.839 7.58-6.656 10.44-5.028 3.79 2.165-1.71 16.4-5.43 15.922zm118.99-30.261c-2.14 7.388-4.37 5.482-11.09 6.914-6.75 1.436-11.42 7.164-17.36 10.236 2.07-4.361 3.35-9.676 6.8-13.215.8-.817 5.7-2.431 2.91-4.324-2.44-1.655-5.95 3.715-7 5.179-5.14 7.203-8.74 15.998-11.71 24.286-1.46 4.07-2.63 8.216-3.33 12.491-.61 3.809.05 7.794-.58 11.504-1.01 5.976-9.13 6.006-14.01 7.547-4.42 1.394-8.82 2.906-13.41 3.658-3.97.651-8.1-.536-11.96.247-4.17.848-6.05 3.324-10.79 2.764-3.87-.455-7.49-2.234-11.41-2.412-3.67-.164-7.33 1.104-10.97.072-3.68-1.043-3.51-1.447-2.67-5.062.52.976 1.05 1.951 1.57 2.926 1.47-1.15 2.49-4.656 3.38-6.302 1.4-2.55 2.53-3.432 2.02-6.608-.76-4.692-4.99-8.029-5.95-12.49-1.01-4.656 2.44-8.462 4.47-12.349 2.78-5.32 2.75-9.264.42-14.766 1.75.464 3.51.928 5.27 1.393-2.41-5.23-10.58-3.11-14.68-1.561-2.06.778-5.32 3.838-7.54 3.76-3.05-.106-4.63-4.109-5.94-6.314-3.79-6.377-8.11-12.675-12.6-18.596-1.23-1.629-2.84-2.675-2.42-4.532.37-1.574 3.9-3.807 5.04-4.778 4.3-3.632 9.77-5.645 13.81-9.469 6.1-5.777 13.13-9.917 19.37-15.581 6.5-5.9 13.19-11.319 19.96-16.895 6.86-5.647 12.8-12.301 19.61-18.006 1.77 3.196 5.18 14.639 9.09 15.525 4.56 1.031 4.42-4.359 4.2-7.602-.33-4.623-2.89-9.114-3.18-13.525-.31-4.719 4.23-6.828 7.66-9.558 5.3-4.216 17.01-13.819 10.71-21.724-5.42-6.808-23.06 6.246-27.93 10.171-4.13 3.336-7.32 6.352-11.98 8.984-3.27 1.848-8.76 8.96-12.64 8.303-4.61-.78-6.41-5.817-12.06-5.65-5.51.16-10.2 4.132-13.62 8.119-7.73 9.011-10.38 21.07-17.43 30.464-3.47 4.631-7.98 8.455-11.75 12.837-4.14 4.81-5.01 10.351-9.09 15.058-11.68-15.549-24.4-30.273-36.71-45.312-6.15-7.51-12.18-15.109-18.193-22.725-2.254-2.854-4.798-5.532-6.863-8.53-2.828-4.106-2.319-7.403-3.43-11.982-.492-2.029-2.797-4.461-2.18-6.4.83-2.607 6.659-4.653 8.761-5.718 8.585-4.356 16.365-9.8 24.375-15.121 14.82-9.853 29.81-19.093 45.58-27.508-.28 3.625-2.64 7.383-1.05 11.02.74-2.092 1.91-11.415 4.7-11.815-.53.076-.09 11.955.34 13.651 1.29 5.061 5.03 8.522 10.39 8.488 10.2-.066 19.34-11.157 25-18.504 3.83-4.975 7.51-10.76 8.86-16.986 1.22-5.59-.12-9.478 5.7-12.317 11.92-5.824 23.95-10.569 36.7-13.656-.57 5.495-2.16 12.26 2.83 16.212 5.52 4.363 12.74.475 17.93-2.411 5.14-2.858 13.07-10.711 19.11-8.43 5.95 2.244 10.08 9.693 13.41 14.64 2.93 4.36 6.12 7.505 2.72 12.364-3.8 5.447-6.28 10.763-9.32 16.679-1.18 2.274-2.29 3.757-1.47 6.087.27.757 3.33 5.259 4.16 5.904 5.29 4.117 12.44-3.714 16.21-6.687 1.34 12.802 1.63 25.547 2.17 38.389.4 9.406 4.04 18.665-3.68 25.541-7.72 6.873-14.16 13.929-18.87 23.236-2.51 4.972-4.77 10.075-7.49 14.944-1.81 3.252-5.64 8.022-3.3 11.851 2.48-2.347 3.21-5.914 5.27-8.561 1.24 5.492 2.48 11.584 8.29 13.911 6.69 2.678 13.33-1.955 19.25-4.534-2.12 14.681-6.26 28.947-10.39 43.161zm-6.83 16.875c-4.59 9.802-8.73 21.622-17.21 28.841-1.86 1.584-9.76 7.772-12.77 6.736-2.55-.881-1.15-6.039-.7-8.249 2.25-11.218 6.16-18.277 15.26-25.434 3.76-2.962 8.6-6.749 13.46-7.479 5.22-.787 3.72 1.818 1.96 5.585zm129.42 232.686c-11.9-16.171-28.71-28.738-44.6-40.886-7.2-5.504-15.13-9.63-22.4-15.135-8.22-6.223-16.57-12.226-25.78-16.916-17.46-8.893-36.51-15.092-52.98-25.608-8.04-5.129-16.83-10.085-24.38-15.842-3.32-2.53-6.25-5.765-9.25-8.661-2.78-2.692-8.77-6.6-9.87-10.54 4.63-.758 7.27-5.255 11.41-5.714 1.36-.152 9.9 2.107 8.73-2.034 3.1-.078 3.46-.124 6.06-.802 1.07-.281 2.35.158 3.44-.227 1.66-.586 2.79-2.282 4.47-2.932 1.2-.461 5.63.054 6.3-.521 1.84-1.567-.11-1.429-1.21-3.387 3.57-.091 6.02 1.712 9.6-.204 1.08-.584 2.01-1.929 3.06-2.625 1.87-1.237 2.55.68 3.83-1.887 1.2 3.541 1.17 2.562 4.06 1.52 2.88-1.037 4.96-1.786 8.24-2.046 7.83-.62 15.7.331 23.5-.225 2.85-.205 5.29-.852 8.12-.479 2.5.328 1.75 2.063 3.82-.274.48-.543-1.08-2.031-.33-2.811.33-.346 1.4-.103 1.81-.28 3.65-1.591 3.66.632 4.31 3.528 2.14-.501 4.32-.954 6.18-2.208-.94-.837-2.51-1.761-1.6-3.291 3.08 1.168 5.1.629 3.56 4.014 3.1 1.024 3.68-.312 6.47-.604 1.64-.173 3.95.85 5.32-.466 1.5-1.437-.87-2.998 1.89-4.233.56.287.98.721 1.25 1.3 1.49.449 1.22 1.035-.8 1.756 5.42 2.807 4.15-.331 6.42-3.651.53-.765 2.88-3.142 3.95-1.993 1.63 1.74-1.69 2.294-.98 4.025 1.23 3.001 5.54-.845 6.86-2.365 1-1.149 1.41-3.351 2.48-4.209 1.5-1.192 3.65.65 5.53.32 8.56-1.5 16.64-13.005 10.19-20.706-1.73-2.07-3.2-1.658-5.26-2.965-2.04-1.291-3.19-3.524-4.83-5.369-3.74-4.209-8.32-7.363-13.55-9.379-12.13-4.678-25.2-8.09-37.93-10.6-5.9-1.163-12.18-2.942-18.22-2.929-3.56.007-8.92 2.773-12.24 1.448-6.47-2.576 3.02-15.763 4.59-20.023 4.6-12.514 8.08-25.856 10.35-38.993.45-2.571.28-5.902 1.2-8.351 1.07-2.817 1.29-2.418 3.57-2.648 4.11-.415 8.61 1.741 12.89.996 4.75-.826 9.88-.442 14.67-1.909 2.2-.674 4.24-1.407 5.69-3.265.46-.583-.05-1.09.24-1.498.09-.129 1.72-1.894 1.78-1.996-.02-.914.06-1.821.24-2.719 1.66 1.378.84 4.268 3.64 4.336.49-3.082.5-3.703 2.52-5.436-.15.133 1.53-1.293 1.31-1.141.1-.548.3-1.061.6-1.536a7.292 7.292 0 013-.726c2.19-2.248 1.28-3.447 1.28-6.473 1.76.917 3.53 1.833 5.29 2.749.43-8.964 5.89-13.872 9.52-21.137 1.54-3.096 3.12-5.515 3.49-9.249.21-2.154-.34-4.054.55-6.085.81-1.841 2.62-2.834 3.37-4.841 1.49-3.949.38-8.989.46-13.089.12-5.687.69-11.355.87-17.039.37-11.158-.76-22.624-2.43-33.653-.79-5.275-2.13-10.393-3.18-15.613-.86-4.29-2.93-8.314-3.67-12.305-.3-1.659.17-3.147-.33-4.981-.66-2.412-1.76-4.782-2.58-7.15-1.91-5.531-3.81-11.054-5.96-16.499-4.17-10.553-9.05-20.79-13.69-31.139-4.46-9.953-8.16-20.215-13.94-29.509-5.69-9.153-11.82-18.153-18.1-26.916-6.53-9.125-14.79-16.965-21.13-26.175-11.9-17.291-28.5-31.54-45.87-43.305-35.83-24.281-74.55-48.523-117.52-56.848-6.48-1.254-13.04-2.124-19.64-2.286-4.09-.102-10.88 1.877-14.75.492-4.35-1.552-3.95-6.428-5.04-10.253-1.39-4.916-4.55-8.137-8.13-11.612-3.77-3.659-7.19-7.932-11.89-10.42-4.763-2.52-10.382-3.462-15.66-4.224-4.713-.682-11.754-.045-16.06-2.098-3.92-1.871-1.984-3.818 1.687-2.216.269-1.619.487-2.665 1.525-3.916.521-.629 2.982-1.511 3.042-2.098.069-.687-1.996-2.643-2.291-3.529-.635-1.908-.274-4.55.48-6.341 3.702 3.29 4.774 4.747 8.907 1.602 1.746-1.328 2.281-1.913 4.303-2.583.548-.182 1.778.38 2.256.065 1.827-1.203.147-.919 1.015-2.34-.219.358 1.315-3.419 1.243-2.629.186-2.012.781-1.394-.434-3.866-2.38-4.836-8.441-5.034-5.352-10.553 1.215-2.171 2.286-1.955 2.628-5.104.183-1.692-.045-3.633-.053-5.355-.014-3.522.649-5.987-2.652-7.78-3.172-1.725-6.099.167-7.387-4.11-1.35-4.488.009-10.242-4.854-13.315-3.554-2.245-8.686-.326-12.613-1.424-3.935-1.1-7.554-5.125-11.548-2.034-2.838 2.196-4.344 7.597-9.69 4.676-2.413-1.317-3.742-5.739-5.264-8.219-2.425-3.953-4.369-5.38-8.1-1.53-2.299 2.374-7.149 8.154-7.445 11.441-.326 3.628 2.841 5.144-1.135 7.291-3.955 2.136-6.174.57-9.385 4.905-3.184 4.3-.719 6.676-4.408 10.791-4.611 5.143-7.065 7.364-7 14.293.045 4.753-4.157 8.859-1.706 13.368 2.747 5.054 10.762 7.155 15.622 9.212-1.622 2.997-3.848 4.918-1.954 8.003 1.716 2.794 6.565 3.374 9.571 2.866 2.022-.34 2.095-.034 3.687-1.455 1.042-.931-.388-2.093 1.759-2.608 2.285-.551 5.934 3.926 7.418 5.046-3.316 4.302-12.423 5.106-17.241 7.287-2.937 1.33-5.636 3.297-8.626 4.486-2.712 1.079-6.013.828-8.472 2.497-4.248 2.883-6.015 10.023-8.618 14.221-2.947 4.752-5.804 6.959-11.457 7.945-7.053 1.23-12.733 1.725-19.311 4.795-8.032 3.75-15.95 7.709-23.839 11.752-12.725 6.519-24.545 13.212-36.361 21.098-12.361 8.25-24.385 16.862-36.312 25.484-11.797 8.526-21.702 19.016-31.95 29.327-8.284 8.336-15.553 17.333-23.806 25.665-9.741 9.84-16.907 22.258-25.939 32.696-4.942 5.711-9.671 11.326-12.771 18.053-2.514 5.453-6.884 10.803-9.801 16.524-3.729 7.314-7.256 14.512-11.442 21.584-1.717 2.902-3.759 5.392-5.571 8.162-2.322 3.548-2.185 6.975-2.809 11.065l-1.956-2.993c-1.182 2.582-2.612 5.121-3.636 7.764-.654 1.687-.551 4.081-1.207 5.556-.824 1.853-1.827 1.606-2.853 3.149-1.098 1.649-1.451 3.865-2.608 5.635-5.002 7.647-6.926 17.351-9.495 26.076-3.448 11.707-2.904 25.161-2.717 37.232.199 12.749.897 25.498 2.814 38.113 1.737 11.425 5.451 22.382 11.265 32.4 5.066 8.728 12.052 13.815 21 18.285 4.109 2.053 7.923 1.419 12.236 1.747 4.725.359 7.947 1.642 12.946.513 2.398-.542 3.533-2.287 5.439-2.869 1.179-.36 1.814.228 2.946.091 1.62-.196 4.988-.99 6.745-.799 5.465.596 4.548 8.856 5.086 13.073.827 6.497 1.434 13.063 2.55 19.518 2.347 13.577 7.414 26.261 10.408 39.603-13.879 1.693-25.785 4.283-38.794 9.534-13.05 5.267-26.245 7.055-39.979 9.674-12.85 2.449-25.208 7.027-35.493 15.32-4.821 3.885-9.829 8.433-6.289 14.831 2.264 4.093 6.344 5.133 9.867 7.511.712-.9-1.347-2.808-1.724-3.337 2.962.608 2.871 1.99 5.033 3.192 1.89 1.051 3.437 1.014 5.506 1.757 5.052 1.814 7.533 6.34 12.526 7.611 1.571.399 3.626 1.355 5.232 1.627 1.93.326 3.374-.518 5.33-.161a10.824 10.824 0 003.424 1.49 49.71 49.71 0 002.381-1.183c2.81.292 4.545 2.058 6.828 3.51.153-1.829-.067-3.729 1.664-4.922.676 1.779-.416 2.905 1.429 4.128 2.338 1.552 5.408-.385 7.501-1.366.592 5.911 14.282 5.563 18.621 5.478 6.01-.116 12.013-2.499 18.075-1.169 3.093.678 6.394 1.386 9.472 2.266 3.708 1.059 8.19 2.006 11.839 3.341 1.451.532 3.229 2.234 4.773 2.119 1.23-.092 1.559-1.905 2.99-1.854 1.62.06 2.164 1.863 3.566 2.407 2.098.81 4.028-.732 6.022.047.717.28 1.688 1.481 2.605 1.872 1.393.593 4.149.601 5.699.887 2.196.408 4.164.134 6.046.268 1.518.11 1.485 1.13 2.211 1.196.833.075 2.284-2.789 3.403-3.208 1.63-.612 4.589.845 6.251 1.101-12.043 16.319-26.563 30.741-42.302 43.369-16.978 13.624-34.364 27.229-52.57 39.178-16.53 10.849-32.531 20.233-45.347 35.548-10.807 12.914-28.009 26.731-25.357 45.449 2.65 18.702 22.965 26.314 39.243 29.884 20.473 4.491 41.548 2.683 62.076 5.208 8.755 1.077 18.482.502 27.295-.415 10.408-1.084 19.329-7.874 28.277-12.784 16.095-8.832 29.856-20.649 45.71-29.757 19.849-11.405 39.491-23.488 61.252-31.126 10.124-3.553 20.547-7.609 28.714-14.917 1.215-1.088 2.12-2.729 3.494-3.626 2.334-1.523 2.959.021 4.314-.44 1.043-.355 2.052-1.481 2.954-1.818 2.283-.856 3.302-.503 5.859-.503-2.194-1.264-4.203-4.525-1.926-7.181 3.9-4.551 4.572 2.721 6.037 4.406 1.242-1.595.766-3.015.449-4.828l3.149 2.078c-.723-3.509-.035-6.74 1.824-9.798 1.715-2.817 2.138-2.42 2.611-6.326 5.325 4.86 6.366-6.936 6.846-11.237.464-4.17.005-7.164 2.749-10.811 2.946-3.916 7.425-6.39 11.164-9.432 5.906-4.807 12.405-10.877 20.573-6.268 6.448 3.64 9.956 12.562 16.006 17.146 3.669 2.782 7.543 3.063 9.882 7.376 1.891 3.486 2.505 7.659 4.291 11.238 4.325 8.677 10.552 18.606 17.655 25.262 6.614 6.195 15.104 6.163 22.834 10.005 7.66 3.805 15.62 7.927 23.73 10.684 8.85 3.011 18.4 4.291 27.03 7.939 4.43 1.878 8.4 4.703 12.87 6.5 4.82 1.937 9.91 3.303 14.8 5.078 19.37 7.034 38.32 15.659 58.68 19.558 9.02 1.728 17.38 6.426 26.47 7.415 3.9.424 7.08.961 10.9 1.936 5.98 1.53 4.72 2.343 6.92 7.333 3.63 8.216 12.49 3.351 19.32 3.556 10.94.33 21.7-1.437 32.62-1.521 19.09-.146 37.47-2.297 55.94-8.562 18.54-6.29 39.64-21.449 24.24-42.392z" fill="#000"/><path fill-rule="evenodd" clip-rule="evenodd" d="M1113.89 240.314c.26.262.87.42 0 0zM879.987 483.752c-5.507 6.282-16.693 15.433-25.911 14.355-8.407-.983-5.125-10.416-2.149-14.981 4.469-6.861 10.456-13.302 19.108-13.677 3.735-.162 8.575-.086 11.469 2.741 3.95 3.862.392 8.245-2.517 11.562zm-.586-17.45c-6.451-2.228-8.984-3.077-15.254.465-5.035 2.844-9.5 6.865-12.955 11.43-5.171 6.833-10.385 22.203 2.892 24.126 14.562 2.109 49.204-27.765 25.317-36.021zm19.849 39.216c-4.189 4.278-9.419 7.768-15.389 8.959 2.525-5.632 8.165-17.939 14.85-19.654 3.08-.791 6.592.245 6.338 3.753-.182 2.537-4.147 5.253-5.799 6.942zm5.393-14.89c-3.469-1.738-2.375-2.925-6.411-1.562-3.18 1.073-7.192 2.937-9.84 5.084-1.445 1.172-5.944 5.326-5.393 7.439.998 3.842 4.353-2.045 5.235-3.176 1.512 1.231-6.218 12.289-6.678 14.108-1.714 6.777 3.606 7.494 8.822 5.276 7.032-2.988 27.857-20.361 14.265-27.169zm28.459-122.974c.283 10.646.532 21.29.767 31.936.083 3.741-.811 9.075.312 12.658.496 1.579 4.981 8.422 6.572 8.865 5.569 1.549 3.579-12.405 3.618-15.841.136-11.592-.035-23.196-.082-34.789-.026-5.974 1.662-56.065-6.092-55.821-1.336.043-4.627 5.77-5.122 6.918-1.558 3.606-.985 8.951-.948 12.794.105 11.089.681 22.193.975 33.28zm46.95 31.032c.436 2.943.207 7.852 3.522 9.377 2.883 1.328 3.988-.251 5.067-2.717 2.481-5.674 1.585-14.348 1.54-20.214-.092-11.626-1.401-23.203-2.306-34.786-.398-5.082.428-10.186-.208-15.504-.279-2.334-.556-11.721-4.884-11.284-3.913.394-3.56 10.234-3.773 12.769-1.774 21.102-2.082 41.294 1.042 62.359zm192.348 90.945c-4.53 6.929-12.47 15.234-20.88 16.844-6.17 1.181-10.24-3.392-7.76-9.564 2.09-5.217 9.23-8.511 13.9-10.806 3.71-1.822 21.01-6.061 14.74 3.526zm-3.33-11.332c-9.28-.35-16.76 6.354-23.67 11.705 1.56-6.146 5.09-12.833 10.07-16.834 6.77-5.445 13.19-2.064 20.32.659-1.76-5.548-9.66-7.544-14.69-6.76-6.36.991-10.93 6.418-14.14 11.668-3.84 6.262-5.15 13.643-9.67 19.517-2.06 2.688-14.86 12.749-11.96 16.862l14.34-15.22c1.24 5.997 2.61 12.824 10.26 12.241 6.12-.467 13.09-5.664 17.57-9.636 5.77-5.13 17.14-23.613 1.57-24.202zm-129.94 59.16c-3.93 1.806-12.58 4.261-14.78-1.166-3.05-7.537 6.77-20.757 11.44-25.779 2.88-3.09 4.83-4.689 8.84-2.689 3.2 1.597 7.9 6.134 9.13 9.623 2.64 7.489-8.49 17.185-14.63 20.011zm9.01-36.199c3.2.721 3.6 4.784-.41 3.223-3-1.168-3.69-4.148.41-3.223zm4.02 5.722c-1.19-3.645 1.24-9.36-4.65-9.623-3.33-.148-9.44 3.241-12.35 4.618-4.04 1.909-7.84 4.823-9.94 8.928-1.95 3.802-.56 4.804 2.41 1.648.37.247-6.73 18.534-6.79 20.367-.27 8.374 5.66 13.889 13.98 12.403 7.66-1.364 14.56-7.621 18.77-13.936 2.13-3.197 3.88-6.855 4.04-10.771.24-6.005-3.76-8.419-5.47-13.634zm36.71-3.072c-3.23-6.217 4.26-16.68 10.96-13.619 13.95 6.372-6.72 21.77-10.96 13.619zm12.53-8.116c-1.49.061-10.96 3.715-9.56 6.192 1.91 3.399 8.82-4.825 9.56-6.192zm-457.567-11.491c-.374-2.648-6.311 1.196-6.276 2.901.981-1.964 7.056 2.616 6.276-2.901zm324.72-200.095c7.559-.556-2.072-38.678-7.581-35.306-5.971 3.653.645 35.815 7.581 35.306zm14.117-17.801c7.082 1.014 5.956-15.242 2.147-18.152-7.031-5.37-10.745 16.921-2.147 18.152z" fill="#000"/></g><defs><clipPath id="clip0"><path fill="#fff" d="M315-168h1295.24v792H315z"/></clipPath></defs></svg>