<svg width="1440" height="500" viewBox="0 0 1440 500" fill="none" xmlns="http://www.w3.org/2000/svg" preserveAspectRatio="none"><mask id="a" maskUnits="userSpaceOnUse" x="0" y="0" width="1440" height="500"><path fill="#EDF1F7" d="M0 0h1440v500H0z"/></mask><g mask="url(#a)" fill-rule="evenodd" clip-rule="evenodd"><path d="M1229.89-68.384L1088.51 689.75 507.92 202.518l721.97-270.902z" fill="#F6EDEE"/><path d="M1185 75.399L1412.71 6.75 1436 61.01l-225.52 97.74L1185 75.399zm87-131.953l227.2-72.696 20.8 46.042-226.19 97.958L1272-56.554zm-1041 531l227.195-72.696L479 447.792 252.811 545.75 231 474.446z" fill="#FDE1DF"/><path d="M996.322 685.516c-1.825 7.407-3.083 15.007-5.247 22.327-.91 3.079-2.746 5.781-3.475 8.924-.772 3.314 1.548 4.407 3.992 6.177-1.353-1.837-2.956-3.003-2.892-5.403 4.054.924 7.903 5.089 11.001 7.645 4.059 3.346 8.039 6.788 12.029 10.211 7.38 6.324 14.69 12.717 22 19.116 6.86 6.004 14.2 11.395 21.48 16.876 6.4 4.822 12.45 9.91 17.74 15.945 1.09 1.241 4.52 6.709 6.56 5.798 1.01-.448 1.33-2.102 1.68-3.014.63-1.632 1.28-3.246 1.87-4.895 1.32-3.745 2.57-7.518 3.92-11.253 1.12-3.1 2.98-5.482.03-8.135-5.52-4.971-10.58-10.354-16.2-15.251-6.44-5.611-13.11-10.938-19.62-16.466-6.24-5.309-12.17-10.992-18.51-16.191-6.26-5.124-12.43-10.182-18.45-15.594-6.09-5.474-11.7-11.474-17.908-16.817zm-402.819-53.295c1.256 1.87 2.31 2.791 4.064 4.195 1.935 1.547 3.487 3.558 5.186 5.346 3.236 3.403 6.764 6.533 10.299 9.621 7.453 6.511 15.738 11.939 23.237 18.355 3.59 3.071 6.103 7.14 9.66 10.207 3.283 2.83 7.584 4.036 11.15 6.437 1.806 1.216 3.252 3.017 5.222 3.968 1.933.935 4.221 1.265 6.238 2 2.57.936 4.919 1.411 7.61 1.807 2.274.333 4.218.969 6.537.589-1.125-.669-2.237-1.622-3.48-2.061-1.104-.388-2.087-.186-3.225-.21-2.335-.049-4.324-1.297-6.659-1.415 2.122-1.756 5.362-.475 7.641.212 2.951.892 5.952 1.613 8.911 2.485 13.791 4.066 27.695 7.454 41.708 10.662 13.886 3.18 27.738 6.705 41.723 9.378 13.499 2.581 27.176 4.277 40.72 6.82 14.318 2.688 28.675 5.493 42.888 8.683 6.725 1.509 13.456 2.749 20.104 4.586 6.395 1.766 12.841 3.437 19.253 5.15 1.739.465 3.537.832 5.224 1.464 1.582.592 2.94 1.47 4.635 1.738 2.924.459 5.644 1.207 8.538 1.857 6.614 1.485 13.001 3.772 19.543 5.522a537.768 537.768 0 0120.986 6.073c6.481 2.017 13.177 3.406 19.588 5.641 1.526.532 2.949 1.266 4.562 1.496 1.314.187 2.64.074 3.924.482 1.354.431 2.468 1.289 3.892 1.501 1.575.234 2.089.398 3.49 1.135 2.877 1.511 6.336 1.665 9.458 2.388 3.062.71 6.02 1.711 9.01 2.649 6.5 2.036 13.06 3.87 19.6 5.757 3.43.99 6.77 2.28 10.15 3.409.85.28 5.58 2.18 4.62.304-.39-.772-2.5-1.871-3.11-2.329-1.28-.968-2.57-1.923-3.86-2.881-2.58-1.917-5.16-3.834-7.67-5.841-5.55-4.439-10.6-9.459-16.02-14.049-5.04-4.265-10.336-8.178-14.963-12.916-4.706-4.823-8.853-10.325-13.186-15.486-1.821-2.17-2.696-4.595-4.194-6.916-1.463-2.266-3.532-2.159-5.908-2.15h-.464c-6.968-.042-14.191-2.485-20.811-4.451-6.306-1.873-12.689-3.823-19.118-5.235-3.261-.717-6.497-1.112-9.72-2.043-3.188-.922-6.435-1.55-9.688-2.203-6.879-1.384-13.517-3.466-20.219-5.513-6.539-1.998-13.202-3.475-19.81-5.218-3.628-.957-7.231-1.998-10.86-2.951-3.008-.789-6.219-1.947-9.333-2.169-6.692-.476-13.007-1.386-19.471-3.287-3.365-.991-6.803-1.547-10.197-2.404-3.179-.801-6.069-2.531-9.272-3.19-6.62-1.362-13.117-2.716-19.677-4.409-13.188-3.403-26.347-6.293-39.817-8.288-3.42-.506-6.725-1.537-10.113-2.202-3.242-.636-6.55-.932-9.817-1.418-7.089-1.054-14.034-2.87-21.069-4.212-6.868-1.31-13.812-2.179-20.672-3.535-3.493-.69-7.055-1.243-10.502-2.135-3.136-.811-5.831-2.229-9.084-2.537-3.41-.323-6.606-1.367-9.863-2.367-3.062-.941-6.007-1.401-9.129-1.985-1.775-.331-3.105-1.449-4.791-1.954-1.379-.412-2.858-.16-4.272-.32-3.283-.368-6.447-1.619-9.678-2.264-6.66-1.329-13.358-2.481-19.971-4.037-6.618-1.556-13.123-3.538-19.678-5.336zm138.634 35.967c2.653.071 5.293.181 7.937.422 5.732.522 11.44 1.299 17.12 2.214 11.628 1.875 23.217 4.957 34.649 7.775 20.541 5.062 40.899 10.333 60.958 17.117 10.036 3.394 20.047 6.86 30.095 10.218 8.255 2.759 17.291 5.418 24.472 10.504 1.773 1.254 5.359 4.006 3.268 6.41-1.262 1.451-3.564 1.394-5.295 1.681-2.349.392-4.159.486-6.539.276-5.115-.449-10.256.129-15.369-.523-4.884-.624-9.812-1.374-14.593-2.558-2.367-.585-4.687-1.364-7.073-1.871-2.526-.537-5.133-.479-7.652-1.036-2.246-.497-4.47-1.09-6.712-1.585-1.683-.372-3.219-.838-4.704-1.618-1.712-.898-3.702-.482-5.598-.833-2.244-.415-4.476-.912-6.711-1.376-2.804-.58-5.605-1.172-8.404-1.764-1.899-.402-3.771-.753-5.274-2.073 2.535-2.051 4.869-.808 7.813-.104 3.358.804 6.729 1.548 10.091 2.328 6.335 1.468 12.644 3.057 19.05 4.192 6.296 1.117 12.554 2.538 18.916 3.242 6.418.711 12.887.971 19.283 1.899 3.022.439 5.312.759 8.328.192 1.804-.338 4.286-.246 2.167-2.316-1.38-1.348-3.54-1.625-4.448-3.367-.5-.959-.344-1.559-1.513-1.901-.635-.186-1.855-.246-2.535-.294-.961-.067-1.716.316-2.652.118-.894-.188-1.874-.845-2.717-1.21-2.144-.929-4.511-.967-6.637-1.862-.863-.363-1.881-1.654-2.776-1.786-.581-.087-1.23.393-1.871.346-1.843-.135-3.788-1.553-5.395-2.374-1.262-.646-1.608-.682-2.887-.543-1.197.129-1.227.184-2.361-.447-2.252-1.249-4.043-1.439-6.573-1.789-2.638-.365-5.258-1.2-7.691-2.269-1.033-.453-1.957-1.123-2.982-1.576-.734-.325-1.561-.276-2.246-.575-1.226-.535-.152-.713-.681-1.197-.571-.522-1-.023-1.648.06-.996.129-.815-.136-1.581-.388-.891-.293-.999-.21-2.149-.156-2.593.122-5.046-1.523-7.393-2.412-.894-.338-2.041-.495-2.845-1.025-.613-.404-1.008-1.338-1.859-1.219-.911.127-1.108 1.253-2.309 1.135-.841-.084-1.496-.844-2.183-1.246-1.918-1.121-4.271-.681-6.38-1.452-1.089-.397-1.985-.838-3.121-1.084-.753-.163-1.223-.471-1.94-.687-2.106-.635-3.767.043-5.848-1.299-.858-.553-1.438-1.191-2.497-1.286-.84-.077-1.624.243-2.481.143-2.21-.258-4.653-1.446-6.714-2.231-2.497-.948-4.889-1.861-7.578-2.104-2.555-.23-4.966-.23-7.437-1.051-2.49-.824-4.945-1.647-7.393-2.561-2.283-.852-4.703-.742-7.08-1.132-2.392-.393-5.51-.525-7.676-1.502-1.659-.748-3.445-.784-5.089-1.542-1.203-.554-1.935-1.28-3.326-1.287-1.07-.004-1.929.214-3.017.008-1.009-.191-1.858-.512-2.908-.405-1.358.14-1.345.078-2.51-.451-2.175-.986-4.905-.759-7.219-1.129-2.561-.409-5.012-1.274-7.527-1.885a4.08 4.08 0 01-1.183-.78c1.903-1.333 4.427-1.178 6.633-1.119zM589.41 597.255c-1.512 3.483-2.214 7.691-3.304 11.337-1.06 3.551-2.13 7.1-3.184 10.654-.784 2.641 1.283 2.851 3.296 3.093 3.337.401 6.532 1.273 9.737 2.263 7.076 2.187 14.284 3.56 21.551 4.946 7.462 1.421 14.825 3.253 22.345 4.358 7.024 1.033 13.825 3.193 20.82 4.412 3.556.621 7.271 1.356 10.638 2.684 1.527.603 2.866 1.222 4.529 1.349 1.684.127 3.287.062 4.95.442 6.937 1.584 14.187 2.545 21.26 3.47 7.45.973 14.802 2.554 22.2 3.839 3.643.632 7.287 1.242 10.926 1.89 3.17.567 6.468 1.977 9.664 2.096 2.121.079 4.033-.205 6.164.16 1.649.283 3.294.622 4.937.946 3.595.71 7.111 1.723 10.692 2.483 14.507 3.076 29.077 5.991 43.474 9.597 3.59.898 7.15 1.944 10.788 2.636 3.343.635 6.383 1.838 9.664 2.642 6.877 1.685 13.977 2.182 20.744 4.107 6.823 1.941 13.903 1.899 20.76 3.64 7.396 1.879 14.711 4.028 22.001 6.282 14.329 4.428 28.999 7.234 43.505 10.984 7.148 1.847 14.145 4.103 21.216 6.208 3.672 1.093 7.379 2.066 11.128 2.854 2.535.535 5.891 1.735 8.49 1.469 2.35-.242 3.871-4.449 4.851-6.349 1.453-2.817 1.758-5.431 2.067-8.524.144-1.444.357-2.933.948-4.273.377-.858 1.967-2.059 2.103-2.816.278-1.557-5.041-1.546-6.197-1.786-3.345-.693-6.537-2.333-9.892-3.149-3.388-.823-6.542-2.002-9.784-3.278-6.652-2.619-13.462-4.808-20.3-6.885-3.596-1.092-7.047-2.532-10.615-3.688-2.907-.942-5.898-.938-8.833-1.877-6.931-2.219-14.15-3.622-21.176-5.515-3.842-1.035-7.805-1.409-11.69-2.238-3.473-.741-6.909-1.609-10.43-2.107-3.264-.463-6.165-1.323-9.314-2.222-3.3-.943-6.774-1.116-10.136-1.766-3.706-.719-7.396-1.513-11.124-2.115-3.215-.52-6.449-.866-9.487-2.117-3.016-1.24-5.975-1.283-9.132-1.964-3.354-.724-6.667-1.191-10.05-1.751-3.967-.655-7.869-1.652-11.829-2.349-3.127-.549-6.452-.587-9.491-1.537-1.695-.529-2.981-1.361-4.789-1.534-1.52-.145-2.941-.255-4.449-.539-3.549-.669-7.157-.948-10.723-1.565-7.233-1.251-14.564-2.091-21.744-3.631-3.901-.836-7.732-1.887-11.675-2.529-3.432-.558-6.926-.908-10.277-1.864-3.712-1.059-7.219-2.11-11.062-2.65-3.201-.449-6.367-.96-9.533-1.617-7.625-1.583-15.394-1.986-23.083-3.188-6.937-1.084-14.051-2.321-20.638-4.811-3.425-1.294-7.127-1.828-10.658-2.837-3.427-.979-6.85-1.973-10.273-2.969-14.314-4.165-28.896-7.629-43.489-10.688-3.537-.74-7.069-1.505-10.603-2.264-1.475-.317-3.048-.914-4.536-1.102-1.328-.166-1.409.013-1.948 1.253zm208.367 97.365a758.17 758.17 0 0114.25 1.778c4.485.601 9.21.986 13.266 3.173-7.249-.485-14.535-.704-21.739-1.706-6.54-.911-13.312-2.951-19.893-1.196 2.982 2.331 6.747 3.117 10.266 4.28 4.396 1.452 8.753 3.021 13.139 4.502-1.362 1.756-3.508.514-5.127-.066-2.002-.718-4.09-1.193-6.115-1.846-4.708-1.518-9.218-3.58-13.771-5.5-1.287-.544-3.272-1.984-1.819-3.484.861-.887 2.601-.676 3.696-.709 4.654-.138 9.224.245 13.847.774zm254.493-461.336c-2.29 2.855.03 5.05-.17 8.079-.2 2.876-3.18 1.445-5.02 1.066l-.12-.023 1.73 8.461c.62-.74-.05-1.409 1.16-1.35.15.008 1.07.698 1.29.793.67.298 1.41.407 2.1.649-.57.376-1.58 1.612-2.11 1.79-1.14.384-1.35-.739-2.25-1.267 1.18 15.518 4.09 32.922-2.11 47.788-.75 1.812-1.79 3.596-2.45 5.442-.51 1.456-.25 1.308.72 2.204.37.347 1.05.971.91 1.581-.27 1.176-1.14.571-1.81 1.09-1.03.781-.89 2.099-1.06 3.315-.18 1.213-.72 2.166-1 3.301-.16.652.5.526-.24 1.095-.56.427-1.27-.112-1.87-.04-1.07.129-.38-.197-.86.607-.21.351-.65 1.791-.57 2.212.24 1.34 1.5 1.178 2.66 1.554-.76.732-1.65 1.307-2.33 2.134-.2.251-.2.958-.55 1.073-.68.217-2.04-.661-2.58-.993-.79-.472-1.6-1.603-2.52-1.707-1.39-.157-1.83 1.277-2.86 1.807-1.29.667-2.84.039-4.25.156-1.64.136-3.19.721-4.75 1.215-3.67 1.165-7.35 1.511-11.19 1.2-6.25-.504-12.647-3.065-18.268-5.765-5.468-2.627-9.035-7.587-12.451-12.403-3.751-5.288-7.49-10.392-10.19-16.33-2.868-6.307-4.642-12.908-5.714-19.741-.558-3.563-.898-7.016-.971-10.614-.052-2.587-1.914-5.107-4.709-5.223-1.677-.07-2.851 1.102-4.434 1.251-1.091.101-2.228-1.041-3.099-.9-.881.143-1.83 2.233-2.308 2.905-.912 1.282-1.841 2.552-2.755 3.833a145.74 145.74 0 00-5.555 8.345c-.82 1.334-.759 2.689-1.392 4.026-.579 1.219-1.584 1.579-1.915 2.985-.342 1.445-.198 2.161-1.394 3.125-1.05.847-1.573.761-1.931 2.255-.3 1.254-.39 2.711-.459 4.002-.075 1.372.8 3.524.039 4.738-.525-1.028-.975-2.949-2.435-2.911-.756.02-1.158.951-1.949 1.038-.757.084-1.352-.784-2.114-.424-1.765.835-.502 2.6.264 3.342 1.49 1.44 1.973 3.027.935 4.956-1.753-2.062-3.454-.642-4.807 1.021 1.379.42 3 .536 1.693 2.189-.281.355-2.112 1.962-2.472 1.908-.652-.098-.323-.904-1.13-1.074-.503-.106-1.281.535-1.49.922-.628 1.162 1.089 3.595 1.555 4.736-1.204-.612-2.071-2.432-3.511-2.533-1.496-.106-2.994 1.646-2.911 3.013.068 1.109 1.207 1.943.001 2.75-1.547 1.035-3.916-.693-5.526-.287-1.652.417-1.825 2.737-3.072 3.912-1.197 1.127-1.54 2.523-2.986 3.341-3.639 2.059-3.663 6.813-6.275 9.892-1.313-1.211-1.458-1.592-3.139-1.663-.754-.033-1.934-.322-2.628.071-1.076.61-.675 1.751-1.265 2.621-.651.962-1.661.97-2.689 1.151l-.182.034.868 4.714c-.918-.639-1.512-2.729-2.498-.858-1.17-1.254-.607-3.329-3.111-2.463-1.587.547-2.778 2.133-4.05 3.158-3.79 3.053-8.714 4.575-13.421 5.529-1.066.216-2.98-.002-3.946.411-.798.341-.569.462-.954 1.127-.271.466.043 1.213-.73 1.135-.592-.062-.634-1.296-.862-1.678-1.052-1.753-2.765-1.148-4.484-.712-2.166.549-2.381 2.287-3.25 4.257-1.062-1.125-1.915-2.407-3.395-3.014-1.659-.68-3.675-.746-5.406-1.196-1.864-.483-3.544-1.3-5.321-2.01-1.512-.607-3.226-.875-4.667-1.631-1.516-.795-2.621-2.04-4.223-2.724-1.76-.75-3.528-1.467-5.262-2.279-3.534-1.654-6.972-3.557-9.983-6.055-3.145-2.61-5.86-5.732-8.499-8.838-1.239-1.459-4.281-6.16-1.117-7.552 1.366-.602 2.525.885 3.333 1.756 1.413 1.519 2.823 3.013 4.417 4.351 2.883 2.418 6.166 4.378 9.712 5.653-1.883-3.229-5.025-5.644-7.432-8.47-2.494-2.924-5.177-6.054-8.419-8.172-2.371-1.55-5.364-2.176-7.253-4.411-1.411-1.669-4.126-6.425-6.598-5.729-1.894.532-3.403 1.653-5.492 1.565-1.333-.056-2.404-.613-3.724-.162-1.288.441-2.513 1.472-3.708 2.14-1.585.886-3.103 1.6-4.399 2.895-4.811 4.808-9.103 11.416-11.571 17.758-1.344 3.45.831 6.195 2.485 9.118 1.661 2.938 3.319 5.829 5.325 8.547 4.496 6.09 8.941 12.129 13.209 18.377 4.045 5.921 8.191 11.792 12.927 17.202 2.456 2.806 4.995 5.639 7.731 8.176 2.268 2.105 4.968 3.673 7.483 5.458a3941.367 3941.367 0 0019.734 13.954c5.786 4.058 12.279 6.742 18.971 8.924.178-1.197.93-.486 1.817-.6 1.097-.141 2.255-1.255 3.154-1.887.755-.531 1.505-1.397 2.312-1.823.841-.445 1.2-.014 1.951-.18 1.883-.418 3.602-4.6 4.594-6.077a874.853 874.853 0 005.206-7.855c6.756-10.286 14.529-21.253 24.786-28.366 9.141-6.338 20.952-7.006 31.502-4.32 4.036 1.028 11.039 4.912 14.375 1.142.782-.885 2.375-2.439 2.784-3.496.321-.831-.534-2.11-.788-3.144-.566-2.293-.476-4.708-.157-7.029.695-5.052 2.455-9.971 3.814-14.87 1.634-5.892 3.256-11.797 4.377-17.812 1.07-5.745 2.549-12.241 2.198-18.105-.104-1.729-1.865-4.917.469-5.782 2.218-.823 3.571 1.559 3.898 3.333.908 4.931.19 10.766-.383 15.685-.668 5.724-1.877 11.368-3.213 16.968-1.342 5.621-2.805 11.202-4.273 16.788-.651 2.472-1.074 4.87-.12 7.315.89 2.283 2.479 4.264 3.497 6.499 1.126 2.468 2.055 5.229 3.755 7.381 1.017 1.287 2.678 2.195 2.894 3.962.237 1.935-1.711 2.844.067 4.232 1.749 1.367 3.716 2.469 5.62 3.599 4.77 2.83 9.926 5.26 14.535 8.323 1.113.739 6.068 5.173 7.342 3.42-.279 1.611 6.311 4.48 7.422 5.165 4.286 2.642 8.554 5.307 12.814 8.003 8.58 5.443 17.29 10.771 25.55 16.71 3.99 2.876 8.12 4.924 12.45 7.231 2.3 1.226 4.5 2.616 6.76 3.908 2.19 1.25 3.27 1.656 5.67 1.588 1.82-.051 2.81.883 4.13 2.018 1.85 1.595 3.8 3.074 5.76 4.526 4.1 3.03 8.34 5.856 12.59 8.651 3.14 2.057 6.25 4.157 9.21 6.458 2.5 1.945 4.94 4.088 7.93 5.254l1.26-3.728c.46.931.92 1.912 1.01 2.962.05.572-.41 1.561-.35 1.996.16 1.078 2.3 2.542 3.15 3.22 3.15 2.506 6.33 4.981 9.46 7.513 3.15 2.55 5.71 5.701 8.8 8.306 1.41 1.192 3.03 2.656 4.73 3.438 1.55.717 1.98.144 2.92-1.155.99 1.979.9 2.666 3.11 3.114 1.75.357 2.75.934 3.16-1.186.86-4.487 1.39-9.297 1.62-13.861.23-4.701.08-9.538-.2-14.236-.13-2.225-.3-4.508-.85-6.678-.46-1.83-.34-2.188.29-3.879.76-2.054-.77-1.773-1.2-3.43-.35-1.387 1.55-2.37.97-3.969-.24-.651-.96-.908-1.12-1.623-.18-.733.34-1.331.48-2.014.16-.798.32-1-.12-1.716-.32-.529-.97-.075-.97-.805 0-1.24 1.83-1.848 1.33-3.534-.19-.653-.88-1.061-1.01-1.536-.13-.441.26-1.056 0-1.642-.4-.917-.93-1.208-1.09-2.233-.12-.809-.15-1.451-.43-2.245-.63-1.744-1.13-3.084-1.18-4.974-.05-2.11.39-4.223-.27-6.278-.43-1.339-1.39-2.619-1.4-4.073 0-1.778 1.82-2.806 2.33-4.501.59-1.927.43-4.116-.35-5.967-.32 1.06-.64 2.119-.97 3.179-.26-.921-.79-1.999-.59-2.985.15-.752.66-.885.95-1.49.65-1.336-.09-.77-.61-1.969-.26-.619.07-1.442.02-2.097-.05-.8-.34-1.446-.53-2.204-.38-1.522-.04-2.51-1.17-3.701-2.35-2.48-5.44-4.566-8.01-6.847-1.44-1.279-2.91-2.521-4.34-3.806-1.35-1.209-1.31-1.894-1.24-3.69 4.19 1.539 7.2 5.163 10.53 7.965 3.57 3.009 7.58 5.551 11.3 8.39 7.26 5.553 15.04 10.636 22.95 15.195 3.9 2.243 7.86 4.379 11.77 6.591 3.63 2.053 7.18 4.069 11.25 5.123 3.46.896 7.81 1.851 10.58-1.168 1.32-1.451.83-3.129 1.7-4.714.45-.812.95-.594 1.48-1.109.75-.729.52-.2.25-1.266-.24-.933-.7-.797-.41-1.965.2-.784.7-1.587.98-2.362.6-1.646 1-3.257 2.29-4.475.91-.858.63-.422.88-1.432.13-.54-.02-.757.32-1.329.67-1.107 2.35-1.732 3.34-2.481-.26.147-.53.294-.79.442.09-1.447.91-2.714 1-4.16.08-1.392-.23-1.959.57-3.224.66-1.053 1.69-1.816 2.33-2.904.7-1.211.99-2.649 1.55-3.929.99-2.221 2.98-3.808 3.32-6.259.11-.74-.04-1.33.43-1.972.18-.247.69-.267.85-.494.58-.847.31-1.883.99-2.682.61-.719 1.89-.67 2.44-1.451.67-.94.09-1.67-.31-2.612-1.16-2.665.94-3.093 2.11-5.201 1.19-2.149 1.55-4.716 2.35-7.022.45-1.319.94-1.771 1.77-2.785.74-.897.7-.461.28-1.742 2.5.125 2.34-5.127 2.84-6.79.18-.596.52-1.93 1.06-2.318.31-.214 1.33-.035 1.46-.009l.01.003.27-.238c.56-.516 1.09-2.105 1.02-2.702-.04-.465-.51-.555-.46-1.168.05-.538.79-1.15 1.13-1.516 1.78-1.901 4.92-5.711 3.8-8.611-5.23 5.399-10.06 11.316-15.61 16.394-4.66 4.257-10.11 6.301-16.31 7.003-3.71.42-7.47.667-11.2.438-3.1-.19-6.22-.698-9.33-.548-1.3.061-2.07.132-2.59 1.314-.47 1.048.21 1.655-1.25 1.674-1.94.024-3.27-2.001-4.3.386l-.08.18-.07-.262c-.8-2.596-3.33-3.812-5.73-4.681l-.24-.086a82.43 82.43 0 01-10.15-4.409c-6.26-3.218-11.99-7.426-16.71-12.658-8.43-9.335-13.98-20.814-19.52-31.98-5.89-11.863-12.64-23.541-20.24-34.402-3.55-5.084-7.69-9.467-12.64-13.222-4.84-3.67-10.33-8.004-16.41-9.148-3.1-.582-6.25-1.06-9.36-1.563-2.93-.473-5.97-1.108-8.06 1.485zm186.49 94.463l-2.1-4.112c-12.75 28.425-25.5 56.85-38.26 85.275 2.17-.503 4.39-1.004 6.4-1.98 1.06-.516 3.24-2.337 4.48-1.883.35.124.25.719.53.805.66.199.9.196 1.65.06 1.85-.335 3.55-1.4 5.31-2.033-1.05-1.735-.19-3.218.92-4.595.52-.646 1.36-1.958 2.33-1.717 1.15.284.87 2.009 2.41 1.207.39-.203.31-.887.81-1.075.54-.207.83.4 1.36.296 1.23-.239 1.5-2.165 2.75-2.185.86-.015 1.15 1.144 2.09 1.246 1.4.151 1.51-.876 1.6-1.885l.02-.232c.16-1.628.14-2.52 1.71-3.47.41 1.471.1 3.508 2.01 3.134 1.39-.274 3.01-1.751 3.62.541 8.47-4.171 16.03-9.783 23.05-16.048 6.56-5.852 11.31-12.902 16.09-20.22 2.17-3.332 4.82-6.683 6.6-10.234.96-1.907.43-3.188-.13-5.132-.24-.807-.43-1.56-.37-2.41.02-.376.45-1.154.28-1.514-.6-1.247-3.05-.549-4.12-.521-1.93.052-3.9-.122-5.83-.3-4.11-.38-8.23-1.01-12.13-2.4-8.13-2.894-14.64-7.577-21.64-12.432l-.72 1.908-.72 1.906-2.1-4.112 2.1 4.112zm-5.57 62.968c.48.274.37.489-.35.646.12-.215.24-.43.35-.646zm-245.077-6.087c-.173 2.056-1.827 1.572-3.066 1.799.579-1.338 1.686-1.798 3.066-1.799zm1.517.9a.38.38 0 01.019.17 12.639 12.639 0 00-.019-.17zm-199.36-35.927c.404 1.382 1.216 2.718 2.307 3.671 1.183 1.032 2.494 1.053 3.805 1.765 2.271 1.236 2.518 4.103 3.473 6.246.014.419-.066.82-.238 1.202-1.341-.531-1.786-1.987-3.226-2.395-.632-.18-1.058.022-1.657-.34-.54-.325-.876-1.12-1.333-1.571-1.181-1.163-2.629-1.809-3.616-3.189-.966-1.351-1.517-3.001-2.224-4.491.723-.271.994.716 1.639.652.904-.091.79-.885 1.07-1.55zm191.058-3.32c.279.057 1.228-.031 1.339.331.457 1.473.711 2.998 1.037 4.501-2.066-.918-2.142-2.853-2.376-4.832zm290.802-4.751c.25.931.54 1.757-.47 2.333-.35.07-.7.075-1.05.017.51-.783 1.01-1.567 1.52-2.35zm-352.658-14.011l.742 2.832c-2.767-1.144-2.779-1.202-.742-2.832zm.754-7.18c.571.045 1.139.116 1.703.215-.611.648-1.442 1.34-1.73 2.217-.131.398.221 1.385-.049 1.714-.83 1.013-2.47-.06-3.394-.385.944-.533 1.882-1.081 2.495-1.992.172-.257.581-1.787.975-1.769zm-2.837-5.29l.056.198c.393 1.256 1.411 2.531.975 3.902-.345 1.081-.997 1.443-1.872.991-1.281-.662-1.495-1.974-.756-2.901.172-.215.594-.109.792-.353.398-.491.477-1.075.709-1.631l.096-.206zm-126.275-2.789c-.251.428-.787.808-.853 1.334-.048.383.443.709.388 1.117-.117.867-.282 1.105-1.245 1.217-2.027.236-3.517-2.327-1.259-3.268.938-.392 1.983-.285 2.969-.4zm131.503-1.043c.395.598 2.818 3.99.91 3.426-.538-.159-1.667-1.523-1.94-2.053-.09-.174-.511-.496-.484-.743.056-.497 1.142-1.194 1.514-.63zm7.958-.689l.044.005c.112.217.191.447.236.685 1.555 1.09-2.197 2.993-2.845 3.458-.581-1.661-.204-1.613.934-2.576.223-.188 1.208-1.373 1.571-1.551l.06-.021zm-157.664-4.65l.583.585c-.764.131-.295 1.084-.816 1.345-.904.455-1.267.049-1.826-.71l2.059-1.22zm171.525-31.618l.104.27c-.085-.089-.275.054-.104-.27zm-.629-4.366l.493.089.492.09-.512 2.694c-1.253-.402-.578-1.977-.473-2.873z" fill="#85A090"/><path d="M1237.85 198.459l-.33.552c.19-1.039.3-1.222.33-.552zM819.683 322.09a.034.034 0 01-.025-.017l.025.017z" fill="#000"/><path d="M584.709 622.177c7.172.441 13.826 3.579 20.756 5.196 7.353 1.716 14.851 2.769 22.243 4.309 3.554.74 7.143 1.486 10.744 1.969 3.575.479 6.92 1.379 10.439 2.142 6.986 1.513 14.422 2.614 21.206 4.852 6.652 2.195 13.774 2.635 20.678 3.807 7.464 1.268 14.981 2.15 22.43 3.493 7.349 1.326 14.687 2.706 22.034 4.034 3.517.636 6.969 1.925 10.545 2.084 4.009.177 7.775.634 11.716 1.411 15.11 2.981 30.143 6.559 45.138 10.079 3.656.858 7.308 1.738 10.952 2.64 3.727.922 7.603 1.458 11.276 2.551 6.745 2.007 13.535 4.035 20.556 4.498 3.512.231 6.74 1.759 10.148 2.497 3.583.774 7.28.915 10.909 1.357 7.302.889 14.686 3.533 21.737 5.588 7.031 2.049 14.011 4.54 21.118 6.286 7.446 1.83 14.99 3.225 22.431 5.085 14.448 3.613 28.45 8.928 43.11 11.544 1.124.201 2.95.784 4.085.357 1.19-.447 1.735-1.962 2.359-2.967 1.828-2.944 3.465-5.735 3.855-9.254.353-3.173.297-6.236 2.421-8.833.619-.756 1.423-.898.327-1.743-.711-.548-3.058-.414-3.953-.566-3.193-.544-5.894-2.056-9.027-2.818-3.495-.851-6.908-1.775-10.294-2.996-6.84-2.464-13.68-4.716-20.611-6.908-3.397-1.074-6.769-2.221-10.073-3.555-1.579-.637-3.152-1.393-4.852-1.649-1.849-.28-3.486-.233-5.304-.823-7.158-2.319-14.575-3.974-21.899-5.694-6.947-1.633-14.118-3.406-21.193-4.316-3.532-.455-6.768-1.3-10.184-2.27-3.621-1.029-7.399-1.308-11.078-2.06-6.473-1.323-13.727-1.588-19.86-4.108-2.897-1.19-5.626-1.212-8.677-1.765-3.755-.681-7.497-1.392-11.261-2.05-3.604-.63-7.17-1.46-10.764-2.147-3.623-.691-7.655-.725-11.133-1.981-6.144-2.222-13.018-2.164-19.434-3.452-7.541-1.514-15.189-2.394-22.729-3.929-7.282-1.481-14.776-2.508-21.966-4.363-3.364-.869-6.482-1.866-9.958-2.268-3.794-.439-7.512-1.282-11.261-1.993-6.97-1.323-14.056-1.641-21.045-2.846-14.231-2.456-28.02-6.739-41.894-10.676-7.126-2.022-14.19-3.994-21.46-5.423-3.417-.671-6.62-1.889-9.975-2.782-3.734-.994-7.538-1.682-11.331-2.396-3.435-.647-6.866-1.328-10.272-2.105-1.643-.375-4.456-1.885-6.05-1.493-1.483.364-1.433 2.811-1.727 4.117-.747 3.321-1.813 6.582-2.813 9.833a606.952 606.952 0 01-2.625 8.348c-.563 1.747-1.035 3.996 1.49 4.152zm10.565 12.585c3.731 2.225 6.303 5.936 9.348 8.948 3.408 3.369 7.055 6.525 10.701 9.633a231.516 231.516 0 0011.617 9.288c3.693 2.758 7.6 5.33 10.94 8.528 3.137 3.006 5.496 6.818 8.957 9.485 3.397 2.618 7.559 3.866 11.027 6.405 1.618 1.185 3.088 2.586 4.973 3.342 2.167.869 4.471 1.522 6.673 2.317 2.156.778 4.254 1.023 6.507 1.375 2.442.382 4.176 1.074 6.689.663-1.151-.685-2.282-1.593-3.55-2.044-1.078-.384-2.033-.194-3.155-.227-2.341-.069-4.319-1.296-6.66-1.415 2.062-1.705 5.205-.567 7.448.125 3.498 1.082 7.053 1.978 10.563 3.022 7.003 2.085 14.03 4.019 21.131 5.743 14.856 3.608 29.764 7.013 44.67 10.413 7.32 1.67 14.77 2.704 22.084 4.366 6.935 1.575 14.147 2.152 21.181 3.488 14.832 2.815 29.676 5.564 44.482 8.515 14.591 2.908 29.375 5.86 43.67 10.013 6.692 1.944 13.333 4.315 20.08 5.786 6.968 1.52 13.653 3.852 20.506 5.769 7.12 1.991 14.314 3.513 21.359 5.789 7.113 2.298 14.238 4.471 21.449 6.442 1.508.413 2.884.922 4.339 1.481 1.801.692 3.362.695 5.236.943 1.44.19 2.558.838 3.893 1.339 1.566.591 3.132.286 4.584 1.125 2.912 1.682 5.828 2.074 9.145 2.743 3.879.781 7.629 1.963 11.389 3.179 6.92 2.233 13.95 4.004 20.88 6.155 1.04.323 12.15 4.814 12.35 3.484.12-.853-2.84-2.466-3.51-2.954a441.196 441.196 0 01-9.16-6.884c-5.48-4.22-10.42-8.99-15.59-13.568-5.36-4.744-11.24-8.824-16.356-13.851-4.885-4.798-8.827-10.419-13.361-15.533-1.935-2.182-3.447-4.323-4.725-6.939-1.388-2.845-3.07-3.474-6.197-3.437-6.888.081-14.203-2.075-20.746-4.107-6.64-2.06-13.535-4.481-20.425-5.481-6.98-1.014-13.684-3.155-20.589-4.615-7.301-1.544-14.312-3.852-21.45-5.984-7.105-2.123-14.366-3.765-21.528-5.69-3.323-.893-6.619-1.848-9.925-2.804-3.648-1.053-7.058-.96-10.782-1.406-6.932-.831-13.381-2.948-20.172-4.372-3.363-.704-6.33-1.561-9.496-2.878-3.236-1.344-6.668-1.641-10.075-2.362-7.38-1.56-14.641-3.799-21.968-5.601-6.998-1.721-14.152-3.116-21.217-4.546-3.377-.683-6.776-.946-10.179-1.426-3.785-.535-7.45-1.71-11.215-2.367-14.563-2.547-29.084-5.339-43.667-7.775-7.495-1.252-14.927-2.63-22.16-5-3.121-1.023-6.395-1.057-9.572-1.942-3.324-.926-6.565-2.289-9.981-2.855-1.784-.295-3.65-.257-5.379-.845-1.17-.399-2.177-1.173-3.363-1.523-3.447-1.018-7.336-1.076-10.864-1.94-7.212-1.766-14.561-2.826-21.798-4.471-7.013-1.594-13.894-3.702-20.827-5.603.558.83.859 1.997 1.771 2.541zm451.306 130.155c5.43 4.141 11.03 8.079 16.29 12.436 4.76 3.936 8.87 8.567 12.93 13.202 1.37 1.569 3 3.908 4.63 1.336 1.59-2.517 2.36-5.87 3.33-8.666 1.09-3.125 2.11-6.278 3.27-9.378.86-2.322 2.47-4.71.78-7.036-1.58-2.159-4.11-4.02-6.01-5.906-2.46-2.443-4.92-4.895-7.5-7.211-4.95-4.44-10.19-8.559-15.29-12.826-5.47-4.576-10.82-9.288-16.19-13.984-4.67-4.088-9.16-8.407-14.19-12.066-11.79-8.583-21.29-19.823-32.308-29.303-1.825 7.41-3.092 15.004-5.246 22.328-.873 2.969-2.601 5.584-3.395 8.583-.934 3.532 1.299 4.626 3.911 6.518-1.372-1.863-2.956-2.979-2.891-5.404 2.764.631 4.908 2.767 7.057 4.477a314.465 314.465 0 016.832 5.578c5 4.212 9.95 8.483 14.9 12.753 9.61 8.284 18.99 16.871 29.09 24.569zm22.24-48.607c4.73.319 9.3 1.738 14.04 2.029 2.27.139 4.52.613 6.79.683 2.58.081 5.11-.33 7.71-.189 5.07.278 10.07-.152 15.13-.438 5.03-.286 10.02-.406 15.01-1.165 2.03-.309 4.04-.625 6.08-.876 1.66-.206 4.25-.26 4.94-2.055.65-1.679.09-4.47.06-6.243-.02-1.604-.11-3.21-.11-4.813-.01-2.24.14-5.786 3.02-6.125 1.68-.199 3.37.97 4.8 1.691 2.38 1.203 4.72 2.45 6.99 3.852 2.23 1.375 4.45 2.81 6.55 4.378 1.67 1.243 3.38 2.927 5.63 2.639 1.93-.245 3.6-1.586 5.36-2.315 2.49-1.035 5.34-1.531 8.03-1.587-.34-4.041-.68-8.08-1.03-12.12-.12-1.48-.25-2.961-.37-4.442-.13-1.563.1-3.621-.29-5.134-.63-2.437-5.28-.949-7.32-.789-3.94.31-7.88.594-11.81.954-1.87.172-5.75 1.328-7.37.022-2.02-1.624-1.47-7.661-1.61-9.946-.1-1.745.51-6.583-1.1-7.741-1.05-.753-3.27-.166-4.43-.102a74.75 74.75 0 01-5.66.118c-14.88-.31-29.69-3.62-44.17-6.842-3.22-.715-5.92-1.806-7.53 1.736-1.63 3.554-3.1 7.194-4.65 10.779-1.21 2.78-3.43 5.441-1.96 8.486 1.63 3.354 3.64 6.605 5.53 9.818 1.23 2.095 5.1 7.307.27 7.745-3.43.31-7.55-.97-10.92-1.55-1.46-.25-2.89-.577-4 .559-1.23 1.263-1.82 3.727-2.54 5.313-1.85 4.066-3.83 8.065-5.51 12.206 2.12.573 4.23 1.315 6.44 1.464zm73.13-1.204l12.48-2.045c1.05-.172 7.2-.314 6.28-2.106-.36-.699-2.55-1.494-3.18-1.895-1.8-1.134-3.6-2.266-5.44-3.336-3.4-1.984-6.94-3.775-10.7-4.978.19 4.787.37 9.573.56 14.36zm34.81-39.049c-.15-2.698.03-6.051-.65-8.665-.63-2.428-2.75-2.884-5.01-2.652-2.81.288-5.56 1.187-8.38 1.512-3.5.402-7.03.458-10.55.29 0 4.015-.57 8.477.41 12.414.8 3.235 4.03 2.041 6.54 1.875 4.19-.277 8.38-.404 12.55-.868 2.52-.279 5.26-.737 5.09-3.906zm-90.21-31.149zm6.5-18.156c.41-1.196 1.12-2.283 1.47-3.497.31-1.069.27-2.129.75-3.156 1.06-2.307 2.77-4.231 3.71-6.65 1.05-2.723 1.35-5.987 3.03-8.439.73-1.065 1.33-1.624 1.74-2.857.44-1.34.99-2.322 1.59-3.593.95-1.996 1.42-3.862 2.54-5.835a89.055 89.055 0 003.85-7.53c.52-1.157.73-4.315 2.01-5.015 1.02-.559 1 .495 1.81-.67.65-.939.62-1.494-.57-1.944.47-.673 1.4-.346 1.96-.929.55-.564.42-1.533.63-2.229-.76.238-1.51.472-2.27.707 2.2-4.737 4.19-9.572 6.56-14.227 2.06-4.02 3.43-8.397 6.31-11.86 1.44-1.73.36-3.514 1.35-5.361.37-.705 1.03-1.205 1.35-1.949.34-.769.2-1.868.67-2.559.65-.971 1.2-.352 2.02-.9.59-.391.89-1.108 1.23-1.693.18-.302.89-1.306.81-1.67-.24-1.142-.97-.055-1.52-.625 1.2-3.045 2.52-6.038 3.84-9.033.61-1.378 1.67-6.321 3.85-4.811 1.19-2.894.93-5.292 2.2-8.177 1.81-4.078 3.46-8.222 5.18-12.336.84-1.999 1.59-4.054 2.48-6.027.76-1.654 2.06-2.466 3.03-3.904.89-1.327.91-3.615 1.45-5.291 2.2-6.811 5.92-12.724 9-19.129 1.92-4 3.65-8.075 5.49-12.114.89-1.967 1.91-3.863 2.85-5.804.37-.766.7-1.48.84-2.329.09-.49-.12-1.484.1-1.886.31-.562 1.15-1.996 1.58-2.89.65-1.309 2-2.08 2.32-3.432.2-.855-.14-1.249.39-2.08.65-1.013 1.03-1.117 1.22-2.433.29-1.984.91-3.201 2.13-4.816 1.17-1.544 1.8-3.006 2.55-4.771.56-1.325 2.18-3.264 1.63-4.762-.47-1.263-1.94-1.435-3.08-1.716a65.85 65.85 0 01-5.83-1.696c-4.07-1.398-7.63-3.449-11.18-5.842-3.26-2.188-6.63-4.974-10.17-6.638-3.15-1.474-6.42-4.625-9.44-6.872-3.56-2.64-7.25-6.183-11.43-7.766 4.28 9.661 5.83 19.874 6.77 30.343.98 10.911 1.01 21.573.76 32.502-.24 10.606.11 21.195-1.64 31.725-.84 5.055-2.12 9.987-2.78 15.076-.31 2.367-1.21 8.923-4.37 9.331-1.99.256-3.25-1.693-4.92.319-1.21 1.455-1.38 3.426-1.96 5.135-.62 1.857-2.59 2.808-2.26 4.867.17 1.021.69 1.32-.07 2.25-.43.534-1.53 1.249-2.08 1.876-.01-.334.21-1.169 0-1.438-.27-.364-.82-.03-1.16-.349.34.322.8.13 1.04.466.55.768-.23 2.238-.51 2.95-.68 1.756-1.59 3.26-2.73 4.762-1.08 1.426-2.02 3.275-3.28 4.536-1.26 1.252-2.81 1.714-3.93 3.207-.97 1.29-1.63 2.75-3.02 3.65-1.58 1.022-2.4 1.898-3.53 3.388-2.47 3.273-7.06 5.205-10.53 7.279-3.72 2.221-7.96 4.077-12.37 3.772-.67-.047-1.39-.212-2.06-.084-1.15.218-.96.681-1.69 1.229-1.07.816-2.29.741-3.67.845-4.52.339-9.23.414-13.7 1.047-2.21.312-8.73 2.389-9.6-.731-3.05 2.188-5.94.976-9.29.22-3.32-.748-7.38.194-10.34-1.763-1.54-1.013-1.74-1.365-3.68-1.454-1.64-.075-3.29-.035-4.82-.729-1.49-.678-2.18-1.224-3.86-1.495-1.94-.316-3.49-1.168-5.28-1.93-3.55 11.623-9.49 22.084-10.77 34.348-.65 6.203-.22 12.047.83 18.178.45 2.644.81 5.12 2.27 7.424 1.51 2.379 3.61 4.478 5.68 6.37 4.04 3.696 8.69 6.648 13.45 9.327 5.01 2.822 10.09 5.664 15.41 7.865a443.746 443.746 0 0116.08 7.015c5.69 2.624 11.22 3.895 17.37 4.91 1.55.255 3.08.562 4.58.995 1.2.343 3.08 1.23 4.31.471 1.47-.913 2.1-4.304 2.75-5.864 1.12-2.699 1.97-5.761 3.64-8.188.57-.836.86-1.339 1.2-2.263.36-1.017.48-1.986 1.73-2.354.22.981.84 2.747-.55 3.194 1.07-.344 1.03-1.025.55-3.194zm9.04-15.449zm19.74-46.907c.14-.22.29-.441.43-.661-.53-.214-.62-.053-.94.369l.51.292zm36.12-81.484c.53-.627.49-.465.14-.957-.62.268-.67.587-.14.957zm-.38 1.241c.24-.152.24-.303 0-.451-.27.153-.27.304 0 .451zm.5 3.175c-.08.456-.3.759-.62.964.32-.204.54-.508.62-.964zm3.6-9.378c.06.405.13.809.19 1.214-.13-.801-.26-1.568-.14-2.382-.14.934.12.976-.58 1.745.18-.192.35-.384.53-.577zm-31.76 12.139l-.21-.481.21.481zm-46.15 58.323l-.11-.577.11.577zm-22.52 4.535c0 .378-.04.769-.06 1.146l.06-1.146zm7.23 1.402zm-18.33.181c.62.241 1.11.767 1.65 1.136-.09-.321-1.34-1.016-1.65-1.136zm-198.643 54.219c1.084-.487 2.405-1.542 1.522-2.84 1.284-.198 1.271-1.478 1.627-2.455.591-1.628 1.628-3 2.481-4.49-3.195-1.436-6.742-1.732-10.149-2.366l4.519 12.151zm2.707 3.986c-.947-1.299-1.815-2.652-2.707-3.986.303 1.212 1.984 2.995 2.707 3.986zm35.086-74.693l-.327-.28c.308.023.416.116.324.28h.003zm7.342-16.359c.191-.045.343-.211.434-.487-.091.276-.243.442-.434.487zm2.9-6.302c1.212-.841 2.147-1.966 2.857-3.295-.71 1.328-1.645 2.453-2.857 3.295zm3.115-3.802zm-1.243-2.537c.461-.052 1.15-.129 1.594.093-.295-.147-.814-.159-1.594-.093zm-7.91 13.077c.336-.14.333-.563.567-.754.283-.231.72-.204.91-.366.682-.582.504-.252.593-1.386.113-1.424.972-2.224 1.275-3.376.378-1.443-.166-2.172 1.001-3.346 1.405-1.412 3.222-2.639 3.706-4.725.221-.951-.095-1.776-.096-2.713-.001-.685.681-2.063.386-2.677-.521-1.081-3.731-1.205-4.844-1.463-5.266-1.218-10.536-2.425-15.805-3.636 3.35 8.48 6.955 16.999 12.307 24.442zm-1.957 12.377a56.327 56.327 0 00.384-.515c-.145.19-.271.362-.384.515zm9.902 97.625c-.211-2.679-1.2-5.216-1.775-7.823-.649-2.932-.882-5.923-.876-8.921.011-5.706.605-11.427.936-17.123.683-11.759 2.594-23.422 4.349-35.056 1.676-11.104 3.876-22.053 8.946-32.167 2.292-4.573 5.246-9.172 6.499-14.176.28-1.116.239-2.373.614-3.452.411-1.189 1.232-1.762 1.965-2.71 1.714-2.216 2.717-5.197 3.943-7.708 1.133-2.316 2.066-4.781 3.386-6.999.528-.889 1.1-1.67 1.87-2.359.549-.493 1.71-.952 2.04-1.625.671-1.362-1.144-2.421-2.056-3.432-2.184-2.422-4.164-5.072-6.236-7.594-1.547 8.065-3.115 15.951-6.249 23.577-3.031 7.375-6.277 14.627-9.823 21.771-6.908 13.91-13.683 27.895-20.229 41.972-1.534 3.296-3.341 6.288-5.102 9.454-1.968 3.538-3.613 7.266-5.511 10.847-3.616 6.825-6.626 13.961-10.326 20.73-3.672 6.72-8.169 12.863-12.252 19.324-1.053 1.666-4.901 6.03-4.284 8.13.279.947 1.164.936 1.985 1.089 2.163.406 4.383.536 6.552.925 4.227.761 8.317 2.023 12.578 2.709 3.688.594 7.433.847 10.989 2.064 2.096.717 4.019.776 6.186 1.127 2.029.33 3.998 1.003 5.989 1.501 4.402 1.101 8.902 1.736 13.352 2.607-3.192-5.185-6.967-10.414-7.46-16.682zm9.293-69.676a88940.18 88940.18 0 01-2.861 17.281c4.971-1.907 10.265-3.308 14.692-6.375-3.345-4.236-7.754-7.43-11.831-10.906zM927.3 516.1c-1.962.704-1.471 1.543-.591 3.274.892 1.756 1.713 3.465 2.416 5.318 1.848 4.852 3.433 9.812 5.073 14.737 1.546 4.642 3.114 9.283 4.577 13.952.178.568.588 2.992 1.46 2.934.986-.065 1.903-4.341 2.192-5.139a118.895 118.895 0 016.108-14.029c.715-1.387 2.389-3.383 2.213-5.059-.169-1.608-1.867-2.387-3.071-3.141-4.283-2.675-8.575-5.342-12.833-8.059-1.468-.937-2.869-1.897-4.23-2.977-.69-.548-2.294-2.177-3.314-1.811zm68.989 81.616zm.026-.676zm82.335 66.935zm-1.44 18.336c-.96 2.059-1.86 4.156-2.9 6.176-.58 1.139-2.03 2.999-1.24 4.315.72 1.204 2.7.989 3.88 1.102 2.24.213 4.47.539 6.7.818-2.15-4.137-4.29-8.273-6.44-12.411zm1.08-18.113c-.23.345-.03.961-.22 1.304.19-.342-.01-.959.22-1.304zm-12.1 26.469c.52-.523-.07-1.855-.03-2.467.08-1.443.43-.99 1.38-1.695 1.83-1.37-1.02-2.401.07-4.285.2-.336.78-.398.93-.743.13-.295.05-.641.15-.922.31-.808.57-1.75.89-2.6.51-1.343 1.21-4.37 3.23-3.963-1.85-3.83-3.69-7.66-5.53-11.489-4.15 10.612-8.72 21.22-15.55 30.42 4.78 0 9.59.25 14.36-.318-.92-.626.1-1.196.1-1.938zm-11.16 23.066c.39.165.73.05 1.09-.256-.36.306-.7.421-1.09.256zm-52.49-32.561a288.125 288.125 0 0116.16 12.565c2.26-6.364 2.46-13.182 2.75-19.858-5.98 3.238-12.77 4.452-18.91 7.293zm-45.284-20.646c1.654.186 3.007-.731 4.464-1.324 1.713-.696 3.513-.923 5.325-1.222 3.84-.633 7.673-1.314 11.511-1.952l-16.841-21.475c.016 8.861-2.824 17.349-4.459 25.973zm-22.822-25.358a1513.354 1513.354 0 01-3.24 6.176c-.7 1.328-1.375 3.745-2.449 4.793-1.31 1.279-2.777.149-2.448-1.471.356-1.756 1.918-3.781 2.77-5.314.9-1.618 2.219-2.477.483-3.534-1.427-.869-3.396-1.398-4.993-1.834-4.706-1.288-9.635-1.266-14.473-1.09 1.753 3.976 3.976 7.805 6.373 11.428a24.912 24.912 0 003.516 4.244c1.048 1.01 1.428 2.34 2.43 3.331 1.152 1.137 2.885 1.464 4.398 1.832 1.793.436 3.373 1.091 5.103 1.724 1.843.675 4.001.428 5.704 1.215 1.599.739 2.91 1.339 4.685 1.737 3.517.79 6.646 2.841 10.154 3.488 1.696.312 1.678-.024 2.192-1.686.439-1.425.616-2.881.874-4.345 1.562-8.917 2.874-17.873 4.424-26.792 4.021 4.623 7.608 9.606 11.635 14.218 2.021 2.311 4.196 4.477 6.263 6.742 1.263 1.383 3.899 3.519 3.905 5.583.009 2.97-4.834 3.717-7.008 4.073-5.645.924-11.436 1.112-16.641 3.759 1.591 1.769 4.104 2.144 6.239 2.901 2.893 1.025 5.726 2.244 8.583 3.364 1.443.566 2.881 1.264 4.365 1.708 1.571.47 3.205.321 4.767.748 1.218.333 2.209 1.135 3.375 1.578 1.333.508 2.624.504 4.022.682 2.988.379 5.669 1.506 8.431 2.625 2.737 1.108 5.027.828 7.767-.132 5.86-2.058 11.91-3.678 17.62-6.135.78 5.843 1.07 12.453-.54 18.192-.58 2.076-2.38 4.77-.98 6.837 1.14 1.672 3.91 2.89 5.5 4.087 4.85 3.644 9.65 7.568 15.09 10.308a27.194 27.194 0 008.37 2.651c1 .146 3.12.748 3.92.28.17-.102.08-.651.28-.765.68-.405.89-.43 1.7-.546-1.55-2.015.88-2.008 1.8-3.31-3.43-2.742 2.32-5.587 3.17-7.934-2.06.214-1.41-1.257-.68-2.468 1.06-1.763 2.7-1.722 4.65-2.156-1.46.325-2.87.853-4.38.898-1.45.043-2.91-.306-4.35-.48-1.69-.204-6.46.301-7.39-1.377-.96-1.723 1.54-4.585 2.4-5.96 1.77-2.867 3.76-5.571 5.34-8.551 3.01-5.665 5.58-11.662 7.96-17.616 1.14-2.863 2.59-4.178 4.56-.984 1.44 2.353 1.9 5.249 3.76 7.362 1.26-1.4 1.4-2.537 2.01-4.272.67-1.925 1.9-3.533 2.72-5.373 1.79-3.992-3.07-3.017-5.54-3.294-4.09-.459-7.76-2.233-11.61-3.582-4.1-1.44-8.12-2.988-12.09-4.768-7.89-3.537-15.96-6.757-23.31-11.373-6.75-4.236-13.98-8.089-19.48-13.963-2.98-3.183-5.25-6.842-6.688-10.961-.78-2.233-1.313-4.519-1.949-6.793-.552-1.972-1.482-4.044-1.312-6.132l-.022.343c-2.487-1.772-1.69-4.753-1.64-7.332.009-.459.201-1.086-.043-1.52-.31-.55-.903-.011-1.165-.748-.268-.75.84-2.061 1.043-2.774-.349.179-.698.356-1.048.531-.377-2.27-.972-4.489-.901-6.806.072-2.303.625-4.631 1.103-6.876.445-2.091.924-4.197 1.496-6.259.117-.419-.021-1.043.391-1.337.689-.491 1.564.207 1.714.899-.146-.676-.473-.892-.471-1.631.001-.747.311-1.59.44-2.33a217.96 217.96 0 011.109-5.997c.351-1.754.658-3.541 1.119-5.27.155-.582.483-1.203.517-1.809.052-.898-.178-.765-.465-1.422-.072-.167-.447-.369-.549-.591-.182-.393.17-1.002-.028-1.407-.253-.517-.645-.663-1.151-.848-1.633-.596-2.226-.153-3.541-1.529-1.071-1.12-2.494-1.526-3.82-2.35-1.586-.987-2.905-1.576-4.333-2.884-1.501-1.375-3.215-2.59-4.563-4.12-.923-1.047-1.206-2.909-2.399-3.664-.725-.461-1.674-.435-2.438-.919-.777-.49-1.466-1.227-2.21-1.769-1.849-1.345-3.805-2.542-5.686-3.841-7.537-5.209-14.865-10.961-21.318-17.477-3.254-3.284-6.308-6.768-9.399-10.205-.325-.361-2.235-3.091-2.964-2.952-.802.154-1.465 3.604-1.822 4.34-1.792 3.687-3.436 7.305-4.82 11.176-.537 1.505-1.197 2.395-.033 3.486 1.426 1.339 3.773 2.205 5.472 3.198 4.065 2.379 8.139 4.749 12.181 7.171 2.154 1.292 7.378 3.243 8.126 5.913.958 3.417-2.969 8.178-4.402 11.013-1.994 3.944-3.455 8.058-4.918 12.216-.615 1.745-2.601 9.243-5.403 8.568-1.432-.346-1.985-2.119-2.446-3.317a285.598 285.598 0 01-2.251-6.054c-3.554-9.912-6.741-19.951-10.665-29.727-3.213 5.759-5.787 11.87-8.499 17.874-1.181 2.617-2.055 5.203-2.623 8.02-.547 2.717-1.579 6.089-1.436 8.878.284 5.55 22.92 13.836 12.604 20.528-4.509 2.924-10.378 3.407-14.944 6.165-2.416 1.459-2.337 3.897-2.256 6.418.101 3.151-.141 6.323-.315 9.469-.38 6.831-1.556 14.162-.121 20.907.473 2.225.608 5.114 1.404 7.221 1.068 2.829 5.374 1.79 7.797 1.734 2.397-.056 21.466 1.083 18.835 6.124zm-87.068-9.284c-.884-.547-.917-.335-.244.479l.244-.479zm-6.302 9.075c.47.649 1.396.679 1.838.552-.442.126-1.367.097-1.838-.552zm265.046-154.463c-6.31-5.724-14.07-9.855-20.75-15.174-7.24-5.764-14.79-11.107-22.34-16.449-15.04-10.633-29.77-21.625-45.03-31.95-15.1-10.217-30.813-19.42-46.743-28.275-7.331-4.076-14.152-9.092-21.74-12.665-3.978-1.875-7.92-3.822-11.944-5.601-1.949-.861-3.084-1.182-4.552.571-1.042 1.245-1.762 2.755-2.682 4.09-2.709 3.932-5.494 7.778-8.876 11.165-1.479 1.481-6.46 6.543-8.776 4.385-.925-.861-1.058-2.633-1.415-3.793-.742-2.409-1.596-4.799-2.429-7.179-1.696-4.849-3.658-9.597-5.53-14.38-3.917 1.969-7.986 3.583-11.391 6.414-3.269 2.716-6.263 5.606-9.186 8.678-1.153 1.212-1.463 1.248-.848 2.724.282.676.73.967.353 1.768-.304.65-1.287.71-1.272 1.623.016.894 1.576 2.272 2.246 2.73 1.816 1.242 4.165 2.015 6.149 2.97 2.203 1.06 8.058 2.662 8.743 5.403.494 1.977-1.39 3.197-2.754 4.243-1.829 1.404-3.694 2.764-5.482 4.222a57.101 57.101 0 00-9.565 9.98c-2.555 3.407-4.279 7.305-6.716 10.758-.807 1.145-2.628 3.687-4.185 2.314-1.276-1.126-1.356-4.563-1.695-6.117-1.128-5.165-2.381-10.417-4.197-15.387-4.711 7.64-8.056 15.739-11.637 23.944-3.728 8.54-7.701 16.965-11.322 25.553-.899 2.13-3.98 6.225-2.238 8.393.838 1.045 2.361 1.62 3.458 2.35 1.824 1.214 3.567 2.579 5.322 3.887 3.417 2.544 7.873 5.063 10.577 8.391 2.485 3.056-.952 5.89-3.424 7.491-3.739 2.421-8.182 3.363-12.35 4.768-4.568 1.539-9.002 3.76-13.828 4.396.151-2.056.148-3.94 2.145-5.048 2.293-1.271 5.119-1.733 7.601-2.517 5.668-1.789 11.246-3.931 16.779-6.095-5.859-5.419-12.078-10.437-18.456-15.229-6.069 13.606-8.196 28.494-14.209 42.074-6.013 13.585-11.914 27.43-14.818 42.088l1.928-1.48c5.548 7.658 6.955 17.613 13.181 24.852.98-4.653 3.652-8.47 5.941-12.538 1.066-1.894 3.466-5.875 1.881-8.012-.997-1.345-3.824-1.464-5.325-1.83-2.526-.616-4.935-1.633-7.332-2.628-1.667-.692-3.687-1.123-5.237-2.039-1.227-.722-2.426-2.49-.258-2.487 1.866.004 4.085 1.273 5.839 1.837 2.555.82 5.128 1.583 7.726 2.255 1.676.434 3.513.472 5.147 1.005 2.162.705 2.376 2.334 2.185 4.421-.423 4.596-2.519 8.511-4.879 12.386-1.218 2.001-2.408 3.975-3.112 6.225-.461 1.479-.695 3.463-2.152 4.358-3.399 2.089-6.463-6.557-7.468-8.582-2.847-5.725-5.522-11.535-8.267-17.308-1.373 1.157-1.695 3.062-2.217 4.677-.579 1.796-1.209 3.578-1.812 5.367-.702 2.083-1.322 4.219-2.133 6.263-.529 1.331-1.547 2.793-1.361 4.281.224 1.779 2.041 3.324 3.095 4.666 1.147 1.461 2.19 3.004 3.267 4.516 2.461 3.459 5.009 6.862 7.355 10.401 2.36 3.557 4.314 7.357 6.624 10.944 2.206 3.421 4.626 6.705 6.987 10.019 2.254 3.163 3.963 6.53 6.056 9.77 2.448 3.789 5.356 7.307 8.038 10.93 0-.325 1.055-.959 1.276-1.254.477-.635.103-1.044 1.024-1.207.893-.158.953.94 1.903.036.575-.546.512-1.544.289-2.074-.295-.695-.855-.468-.785-1.395.025-.324.576-.598.691-.891.19-.484.039-1.06.155-1.552.447-1.899 2.363-3.113 3.532-1.182l.398-1.335c-.37.029-.742.06-1.114.091.271-1.622-.059-3.232.525-4.654.525-1.278 1.089-2.072.702-3.432-.415-1.463-1.446-3.452-2.098-5.066-.847-2.096-1.593-4.234-2.326-6.37-1.03-2.995-3.213-7.504-1.166-10.508 1.012-1.486 2.251-1.389 3.853-1.009 2.258.536 4.526 1.166 6.748 1.836 1.459.441 3.25 1.184 4.73.411 1.55-.81 2.23-3.263 2.845-4.74.948-2.279 1.837-4.538 3.05-6.695 1.02-1.814 1.713-3.889 3.069-5.464 1.093-1.269 2.157-2.574 2.46-4.275.104-.578-.141-1.301.163-1.84.342-.605 1.092-.71 1.463-1.439.873-1.714.177-3.547 2.218-4.747.785-.461 3.791-1.3 1.213-2.05 1.143-3.014 2.528-5.926 3.894-8.843.684-1.456 1.369-2.912 2.016-4.385.307-.699.529-1.665.932-2.303.313-.499.761-.665 1.05-1.079.687-.981.48-1.577.763-2.704.303-1.209 1.279-2.201 1.976-3.199 1.899-2.717 2.591-5.913 3.541-9.041.414-1.368 1.157-2.929 1.324-4.355.151-1.303-.249-1.558-1.014-2.789-1.841-2.961-3.592-5.978-5.176-9.084-1.334-2.616-2.412-5.341-3.687-7.982-1.091-2.257-2.489-4.412-3.155-6.852-.573-2.103-.48-4.417 1.191-6.016 2.221-2.128 5.485-.695 8.021-.014 3.225.865 6.449 1.733 9.672 2.604 1.566.423 5.813 2.599 7.211 1.121.57-.603.426-1.613.507-2.367.12-1.116.434-1.992.923-3.008.54-1.124 1.245-2.156 1.59-3.366.312-1.09.139-2.092.934-2.949.751-.81.876-.387.939-1.63.061-1.155-.186-1.863.403-3.021.536-1.054 1.355-1.947 1.813-3.045.356-.853.242-1.509.38-2.416.362-2.38 2.979-4.811 2.52-7.231-.418-2.206-2.966-3.313-3.261-5.728-.744-6.104 6.422-2.007 8.624-.345.698.526 1.487 1.562 2.471 1.312.767-.195.975-1.314 1.676-1.537 1.938-.619 1.033 3.225 1.547 4.384 1.175 2.649 4.011 4.708 5.898 6.848 2.322 2.633 4.406 5.47 6.659 8.162.715.854 2.903 4.313 4.258 4.529 2.206.352-.73-3.213-1.093-3.768-1.617-2.477-2.623-5.44-3.74-8.161-1.275-3.11-2.737-6.121-4.24-9.126-1.439-2.876-2.896-5.747-4.144-8.713-.787-1.868-2.689-4.906-2.319-7.009.409-2.321 2.881-2.168 4.748-1.948 3.098.368 6.192.883 9.274 1.369 7.74 1.221 15.606 1.801 23.272 3.411 1.38.29 8.386 1.227 7.536 3.142-.644 1.446-6.289-.284-7.31-.429-3.754-.535-7.51-.998-11.283-1.363-3.997-.386-7.983-.765-11.939-1.473-3.891-.697-7.735-2.039-11.696-2.268 2.095 6.909 6.174 13.288 9.02 19.918 1.404 3.273 2.902 6.49 4.395 9.723.694 1.5 1.455 4.561 3.291 5.039 2.06.538 4.044-2.385 5.137-3.742 2.146-2.665 3.928-5.565 5.641-8.52.964-1.664 9.155-17.077 10.872-16.009.636.395-11.295 20.504-12.585 22.361-1.929 2.781-4.802 7.623-8.265 8.666-.674.203-2.597-.056-2.703.789-.102.821 2.219 1.637 2.731 1.952 3.419 2.098 6.203 5.313 9.106 8.041 3.307 3.107 6.954 5.757 10.621 8.419 1.381 1.002 2.77 1.987 4.051 3.116 1.023.904 2.242 2.372 3.606 2.736 1.273.342 1.573-.26 2.201-1.291 1.2-1.969 2.441-3.915 3.656-5.874 4.762-7.682 9.924-14.786 16.558-20.99.809-.755 2.03-1.874 2.731-.538.922 1.747-.973 2.354-2.01 3.054-3.414 2.305-6.171 6.451-8.615 9.701-2.836 3.775-5.388 7.731-7.908 11.72-1.206 1.91-4.582 4.945-1.433 6.457 3.369 1.618 7.715 1.673 11.297 2.789 4.281 1.333 8.334 3.285 12.621 4.621 3.67 1.144 7.42 1.874 11.12 2.858.93.245 2.93.657 3.28 1.757.4 1.278-.84 1.453-1.78 1.485-3.25.115-7.15-.887-10.25-1.678-2.49-.637-4.97-1.412-7.411-2.226-1.597-.533-2.829-1.62-3.742.159 2.702 1.184 5.149 2.55 7.903 3.552.98.355 1.52 1.121 2.39 1.66 1.21.753 2.74 1.028 4.07 1.543 2.86 1.107 5.52 2.625 8.44 3.576 3.09 1.008 6.3 1.614 9.41 2.566 2.42.739 4.3 2.17 6.9 2.28 1.37.058 2.77-.114 4.13.097 1.24.191 2.28.922 3.49 1.104.87.129 2.14-.02 2.99-.091.39-.032.67.061 1.09.019.3-.03.65-.504 1.01-.56 1.22-.188 2.8.47 4.07.464 1.35-.007 2.7-.157 4.05-.275 2.52-.222 5.31-.377 7.51-1.747 2.06-1.29 4.15-.683 6.43-1.626 2.45-1.019 4.75-.179 7.16-.956 1-.322 1.41.024 2.42-.041 1.23-.08 2.64-1.612 3.76-2.149 5.4-2.594 10.32-5.435 14.58-9.73 1.8-1.809 3.13-4.004 5.47-5.105 2.21-1.046 2.79-3.247 4.42-5.033 1.51-1.66 7.71-6.806 5.75-9.14-.65-.783-2.29-1.062-3.2-1.419-1.48-.576-2.92-1.24-4.38-1.852-3.33-1.392-6.7-2.623-10.14-3.702 1.2 3.531 2.25 7.143 3.66 10.597.41 1.019 1.31 2.33 1.22 3.486-.12 1.42-1.43 1.814-2.13 2.906-1.12-2.928-2.17-5.889-3.32-8.801-.96-2.405-2.39-5.114-2.22-7.781.42-6.578 7.51-2.266 10.76-.858 2.58 1.115 5.16 2.217 7.74 3.33 1.47.637 3.64 1.933 5.28 1.178 2.08-.959 2.02-3.946 1.5-5.779-.85-2.98-.49-3.885 2-5.77-4.16-3.575-8.39-7.067-12.46-10.749zM941.696 355.535c-.56 1.46-2.928 5.442-1.884 6.755.57.718 3.015 1.306 3.869 1.685l4.897 2.173a24000.45 24000.45 0 01-6.882-10.613zm-35.095 9.276c1.828 4.759 3.461 9.579 4.984 14.442.54 1.724 1.517 8.665 4.106 8.299 1.375-.194 2.76-2.027 3.719-2.917a50.829 50.829 0 004.432-4.672c2.955-3.527 6.132-7.044 8.237-11.169-8.04-3.383-16.885-3.684-25.478-3.983zm-29.347 21.294l.577-.582-.577.582zm-2.472 4.724c-1.788 2.812-3.523 5.672-5.325 8.482 1.167-1.817 2.295-3.663 3.468-5.475 1.12-1.731 1.007-2.011 3.015-1.339-.917 2.354-1.326 4.725-3.677 6.078-2.733 1.573-5.192 2.137-5.959 5.689-.702 3.257.969 6.568 1.841 9.619 1.125 3.931 1.873 7.976 2.845 11.947 2.258-.949 3.134-3.66 4.11-5.683 1.364-2.827 3.097-5.541 5.024-8.017 4.151-5.335 9.598-9.469 14.806-13.703-3.974-2.04-7.954-4.071-11.925-6.121-2.448-1.262-6.226-4.612-8.223-1.477zm-83.586 232.079c-4.772-7.944-9.308-16.057-14.381-23.816-2.455-3.753-5.181-7.321-7.87-10.909-2.217-2.958-4.166-6.415-6.822-8.99-2.859-2.771-5.402-5.897-8.075-8.851-1.246-1.377-2.244-2.955-3.589-4.24-1.513-1.444-3.226-2.668-4.775-4.075-3.112-2.824-5.865-6.037-9.057-8.771-3.193-2.736-6.681-5.286-10.128-7.695-2.663-1.863-6.212-4.96-9.621-4.962-3.624-.002-3.145 4.309-3.201 6.956-.093 4.36.578 8.711 1.127 13.025.565 4.432 1.239 8.836 2.457 13.143 2.323 8.222 4.794 16.773 7.986 24.698 1.599 3.971 3.651 7.723 5.396 11.627 1.159 2.597 1.981 5.927 4.557 7.525 1.75 1.083 4.14 1.187 6.128 1.54 2.571.457 5.151.869 7.721 1.336 4.755.864 9.577 1.277 14.328 2.152 4.997.921 9.891 1.599 14.947 2.147 2.648.288 5.188.907 7.8 1.402 2.392.454 4.899.343 7.235 1.075-.715-1.441-1.333-2.936-2.163-4.317zm36.77 9.311c-.929-.6-.974-1.634-1.327-2.564-.388-1.024-1.056-1.77-1.592-2.706-1.059-1.848-1.146-3.641-2.565-5.268-3.218-3.69-4.321-9.036-6.778-13.223-5.952-10.146-11.832-20.316-17.546-30.607-1.849 3.741-3.641 7.517-5.569 11.219-1.561 2.998-4.354 6.403-5.011 9.754-.553 2.823 2.806 6.316 4.1 8.639 1.918 3.438 3.858 6.922 5.369 10.564 1.255 3.024 1.924 6.536 3.865 9.23 1.931 2.683 5.12 2.249 8.055 2.624 3.831.49 7.602 1.374 11.396 2.08 1.734.322 3.365.68 5.027 1.273.812.29 3.978 1.19 2.576-1.015zm21.079-215.809c-9.162.585-16.177-3.352-23.92-7.591-3.93-2.151-7.543-4.749-11.309-7.162-3.734-2.392-7.603-4.682-11.13-7.377-1.549-1.185-2.772-2.7-4.259-3.952-1.403-1.18-3.088-1.97-4.403-3.265-2.548-2.512-5.356-5.474-7.237-8.509-4.59-7.408-10.184-14.148-15.554-20.985-3.004-3.823-5.472-8.019-8.108-12.094-2.735-4.228-5.515-8.429-7.947-12.841-16.671 35.424-33.671 70.689-50.476 106.047a70530.698 70530.698 0 00-25.746 54.221c-4.109 8.661-8.476 17.184-12.804 25.735-4.225 8.347-7.842 17.096-11.712 25.618-2.124 4.678-4.931 8.982-6.947 13.718-1.99 4.675-4.291 9.22-6.759 13.66-2.43 4.37-4.419 8.957-6.864 13.302-2.393 4.254-3.712 9.064-6.443 13.134 7.888 1.62 15.813 3.049 23.644 4.927 3.888.934 7.842 1.542 11.724 2.485 3.826.931 7.471 2.512 11.37 3.133 8.064 1.282 16.147 2.653 24.24 3.732 4.06.542 8.153.663 12.224 1.081 4.224.436 8.341 1.461 12.516 2.193-.229-2.814-1.801-5.344-2.891-7.886-1.266-2.959-2.458-5.97-3.435-9.037-1.944-6.104-3.531-12.442-5.157-18.642-3.149-12.008-6.271-25.654-3.479-38.048.931-4.133 3.164-8.542 7.187-10.408 5.24-2.43 10.279 1.447 14.55 4.174 5.451 3.481 10.421 7.683 15.237 11.983 2.325 2.077 4.579 4.146 6.596 6.529 1.946 2.3 4.283 3.899 6.316 6.063 9.744 10.369 18.196 21.877 25.571 34.029 1.31-3.351 2.346-6.699 4.285-9.766 1.48-2.342 3.119-4.571 4.788-6.78 1.123-1.487 2.79-3.409 1.894-5.344-.929-2-3.914-2.953-3.34-5.586 1.206.705 2.412 1.41 3.62 2.114 3.545-11.301 7.825-22.324 11.366-33.621 1.753-5.591 3.434-11.209 5.3-16.763 1.73-5.154 4.299-9.936 6.537-14.874 4.608-10.159 6.138-21.315 10.051-31.715.794-2.107 1.979-4.041 2.757-6.144.347-.942.642-1.638.174-2.524-.286-.538-1.285-.826-1.405-1.437-.292-1.49 2.328-.878 3.188-1.68.691-.645.971-1.99 1.337-2.846.668-1.559 1.302-3.133 1.953-4.7 5.154-12.405 10.694-24.653 16.468-36.781-1.188.163-2.369.403-3.568.48zm-88.417-117.993c.534-.804.506-2.035 1.225-2.725.723-.694 1.558-.511 2.201-1.302.236-.291 1.125-1.911 1.245-2.281.056-.177-.113-.832.006-1.221.218-.712.879-1.045 1.237-1.645 1.542-2.587-1.049-3.379-1.635-5.78-.341-1.398-.183-2.283-1.307-3.347-.859-.812-2.23-1.718-3.255-2.337-.731-.441-.764-.315-1.516-.552-.339-.107-.512.099-.927-.066-.795-.318-1.548-1.422-2.119-2.012-1.681-1.741-2.621-3.065-2.032-5.536.285-1.195.769-3.301 2.329-3.035.858.145 1.955 1.689 2.562 2.27 1.167 1.119 2.324 2.469 3.677 3.377.944.636 2.103.565 3.007 1.122 1.135.701 1.01 1.851 1.546 2.947 1.11 2.276 4.211 4.098 6.124 5.661 1.945 1.589 3.945 3.145 6.194 4.286 2.017 1.023 5.488 2.501 7.795 1.771 3.941-1.249-2.535-10.349-3.928-12.074-2.828-3.504-9.473-6.345-8.555-11.644.415-2.397 1.86-4.037 4.339-2.988 3.077 1.302 5.792 3.775 8.81 5.288 3.154 1.581 6.418 2.937 9.657 4.332 1.774.764 3.56 1.503 5.323 2.288 1.353.603 2.781 1.486 4.313.987-4.787-6.619-9.578-13.27-15.012-19.383-2.556-2.876-5.481-5.302-8.473-7.707-2.238-1.8-4.771-3.671-4.618-6.857.116-2.419 1.473-5.652 4.342-5.098 1.842.356 3.42 1.957 5.151 2.65a28.25 28.25 0 014.011 1.952c1.532.893 3.502 1.024 5.186 1.46 1.848.479 3.672 1.061 5.539 1.466 3.984.867 8.021.628 12.067.628-3.383-5.82-8.743-10.021-13.834-14.263-2.869-2.39-5.528-5.02-8.419-7.384-2.856-2.333-5.952-4.355-8.794-6.706l-.639 2.469c-1.339-.638-1.686-2.373-2.996-3.117-1.609-.915-3.584-.533-5.287-.133-3.703.874-6.988 2.669-9.846 5.155-5.889 5.119-10.183 11.747-13.599 18.699a109.878 109.878 0 00-4.818 11.395c-.677 1.888-1.316 3.861-1.343 5.887-.029 2.229.967 4.138 1.518 6.247 1.052 4.021 1.3 8.304 1.854 12.418.59 4.367.914 8.742 1.284 13.13.196 2.326.487 4.634.854 6.94.113.705.106 1.698.437 2.331.303.584 1.092.811 1.368 1.387.316.66.07.631-.136 1.494-.265 1.107-.113 1.927.205 3.027.692 2.402 1.414 4.791 2.069 7.205 1.83-.757 4.13-2.662 4.842-4.588.387-1.046.021-1.673-.131-2.706-.208-1.41.118-2.602.902-3.782zm49.836-101.068zm18.376-40.91zm.081 1.642c.158-.439-.374-1.144-.143-1.557-.073.13.183 1.557.143 1.557zM719.819 396.087l-.788 1.169.788-1.169zm-3.773.155c.11-.206.221-.414.339-.622-.118.208-.229.416-.339.622zm-2.267 3.768l-.139-.245c.107.375.282.342.526-.097-.128.115-.26.226-.387.342zm-1.684 2.576zm493.205 4.136c.93-.45 2.24-1.814 3.33-1.821.47-.003 1.5.315.93.882-.27.272 1.88.001 1.91-.006 1.29-.32 2.55-.806 3.8-1.235 2.2-.758 4.39-1.569 6.59-2.344 4.42-1.56 8.56-3.679 12.86-5.507 8.32-3.532 15.37-8.42 22.43-14.005 14.48-11.456 23.68-28.202 32.2-44.226-8.66.767-17.65 1.132-26.03-1.571-8.72-2.813-15.69-7.805-23.12-12.956l-1.44 3.814-2.1-4.112c-12.75 28.424-25.5 56.85-38.26 85.275 2.35-.546 4.72-1.126 6.9-2.188zm84.09-43.562c-2.3 1.043-2.85 2.069-2.86 4.84.01-2.769.56-3.796 2.86-4.84zm-1.61-112.794zm8.94 19.591c-.29-1.076-.59-2.15-.89-3.225-.16 2.1-1.34 2.855 1.21 3.812-.1-.196-.21-.392-.32-.587zm-1.93 2.361c.23.364.31.276.23-.264-.07.088-.15.176-.23.264zm-11.6-28.806c-5.24-6.663-10.31-13.446-16.08-19.663-4.57-4.918-9.78-10.411-16.71-11.61.58 6.344 4.95 11.475 8.41 16.519 1.94 2.821 3.84 5.543 6.11 8.11 2.05 2.319 3.19 4.9 1.84 7.918-.81 1.809-2.55 4.376-4.81 4.068-1.34-.183-2.58-1.494-3.63-2.255-1.5-1.086-3.08-2.058-4.63-3.067a334.21 334.21 0 00-8.83-5.594c-2.66-1.627-5.48-4.113-8.73-4.353 1.19 3.176 2.85 6.14 4.43 9.134 1.61 3.053 3.06 6.239 5.14 9.015 2.03 2.712 4.61 4.468 7.16 6.62 2.18 1.837 2.01 4.442.82 6.865-1.39 2.831-3.46 4.417-5.97 2.063-2.72-2.544-5.31-4.747-8.38-6.866-2.57-1.78-5.04-2.864-7.92-4.101-1.15-.493-3.48-2.104-4.79-1.417-1.79.944-.25 5.555.11 7.052.83 3.5 2.14 6.9 3.89 10.045 2.98 5.376 6.15 10.956 11.25 14.541 4.17 2.923 13.85 6.024 10.67 12.588-1.38 2.868-2.95 5.67-4.41 8.499-.92 1.756-4.11 5.637-2.95 7.74.78 1.414 3.4 2.396 4.74 3.199 1.82 1.09 3.64 2.158 5.5 3.178 3.41 1.876 6.91 3.615 10.54 5.036 7.37 2.886 15.48 3.241 22.77 6.353-.43-.177-.86-.343-1.3-.498 1.26-.22 1.78-2.213 2.22-3.219.22-.49.69-1.153.79-1.671.12-.601-.3-1.023-.26-1.366.08-.759.46-.613.74-1.112.49-.862.28-.717.41-1.659.1-.666.43-1.155.59-1.796.29-1.146-.1-2.261-.3-3.388 3.11.259-1.06-3.403-.68-4.487.36-1.028 1.54-1.229 1.71-2.489.18-1.331.01-2.773.19-4.151.18-1.398.48-2.855.19-4.255-.26-1.239-.97-2.1-.08-3.273.54-.72 1.59-.921 2.08-1.708.76-1.207.1-2.506-1.15-3.031 1.07-.613 1.82-1.56 1.73-2.846-.09-1.191-.66-1.253-1.33-2.079-2.13-2.622 2.33-2.657 1.72-5.424-.28-1.312-1.48-2.342-1.92-3.612-.47-1.346-.68-3.063-.75-4.476-.05-1.11.54-1.816.62-2.768.09-1.075-.68-1.458-.86-2.405-.19-1.059.71-2.153.47-3.225-.24-1.085-1.31-1.543-1.63-2.671-.36-1.292.29-2.196.25-3.39-.07-1.771-.83-.726-1.75-1.456-.6-.478-.27-1.011-.41-1.665-.19-.839-.4-1.144-.93-1.828-.68-.9-1.5-1.678-2-2.711-.59-1.214-.75-2.532-1.38-3.711-.88-1.66-.73-2.191.1-3.839.48 1.113 1.55 1.88 1.9 3.066-.65-2.261-3.1-4.655-4.52-6.474zm22.46 56.205c.4-.35-.22-.475-.4-.18.14.06.27.12.4.18zm-122.46-79.185c-.05-.025-.08-.054-.12-.085.04.031.07.06.12.085zm8.7-106.016zm-.28-.181zm-.96-.21c.27.071.55.102.82.168-.27-.065-.57-.073-.82-.168zm19.79 103.818zm-194.58 17.938c-.35-6.32-.26-12.898-2.58-18.89-.72-1.866-1.55-4.725-3.64-5.469-2.91-1.029-7.36.307-10.38.494-6.257.388-12.486-.313-18.615-1.556-3.279-.664-6.326-2.121-9.489-3.169-3.199-1.061-6.319-2.218-9.301-3.808-1.237 3.68-3.572 6.998-6.303 9.73-2.424 2.423-5.868 4.475-3.605 8.174 2.027 3.318 2.995 6.852 4.616 10.352 1.825 3.942 4.715 7.303 7.328 10.731.324-1.109.397-2.212.373-3.361 1.805.393 4.591 2.659 5.506.118.33-.92-.315-2.831 1.028-3.004 2.021-.261 2.145 3.444 1.934 4.565-.485 2.569-2.125 3.842-4.379 4.899 6.892 3.742 12.801 8.887 19.895 12.363 3.538 1.734 7.588 2.383 11.45 3.064 2.442.431 5.002.328 7.292-.697 8.52-3.808 9.3-16.565 8.87-24.536zM572.204 621.024c2.098-3.086 2.482-6.891 3.079-10.476.677-4.065 1.611-8.054 3.177-11.875a93.362 93.362 0 014.95-10.218c.522-.932 1.155-2.188 2.374-2.283 1.365-.105 1.974 1.252 2.874 1.991 1.269 1.042 2.963 1.303 4.485 1.823 1.88.643 3.7 1.451 5.591 2.068 3.601 1.176 7.56 1.291 11.268 2.109 1.743.384 3.492.747 5.237 1.123 1.169.251 3.165 1.187 4.355.99 2.515-.416 4.34-6.31 5.201-8.377 1.406-3.384 3.53-6.486 4.803-9.892 1.33-3.552 2.497-7.057 4.11-10.508 1.683-3.598 3.452-7.168 5.04-10.809.606-1.388 1.031-2.926 1.869-4.201.904-1.376 2.063-1.636 2.439-3.32.121-.539.11-1.474.506-1.907.691-.754.935-.05 1.597-.288.69-.249.56.012.804-.654.044-.12-.337-.447-.311-.637.046-.331.262-.626.324-.94.274-1.41-.118-2.404.502-3.835.787-1.813 1.411-3.695 2.095-5.551 2.73-7.412 6.737-14.185 10.015-21.273.396-.856 1.084-1.487 1.384-2.394.263-.795.059-1.747.448-2.509.431-.844 1.133-.802 1.691-1.414.478-.525.523-1.011.678-1.702.748-3.352 2.669-6.115 3.572-9.434.512-1.882 1.543-3.255 2.492-4.927 1.113-1.956 1.842-4.122 2.77-6.17.865-1.913 1.738-3.853 2.717-5.71.9-1.71 1.453-1.954 2.768-.386 1.028-1.487 2.157-2.758 2.86-4.435.598-1.429 1.562-1.491 2.935-2.391-.877.575-1.473 1.343-2.38.374-.412 1.657-2.461.092-2.113-1.23.386-1.464 2.343-1.728 3.549-2.148-.591-1.548-1.549-.17-1.525-1.915.021-1.451 1.448-3.155 2.093-4.373 1.781-3.359 3.161-6.953 4.666-10.44 1.511-3.502 2.878-7.086 4.591-10.498.706-1.408 1.426-2.901 2.305-4.213.379-.566.797-1.215 1.371-1.612.354-.246 1.361-.332 1.561-.709.402-.759-.468-2.151-.347-3.102.188-1.462.975-3.165 1.593-4.478 1.597-3.386 3.135-6.838 4.81-10.185 1.623-3.245 3.364-6.347 4.661-9.749.663-1.743 1.564-3.261 2.406-4.915.665-1.307 1.047-2.732 2.202-3.726-.101.704-.095 1.416-.152 2.123.066-.798-.149-1.853.341-2.545.586-.826 1.748-.64 2.433-1.368-.555.589-1.388.9-2.186.919 1.604-4.281 2.833-9.022 5.748-12.647.373-.465.874-1.231 1.397-1.506.319-.169 1.476-.08 1.623-.243.937-1.041-.587-2.927-.279-4.175.327-1.322 1.606-2.516 2.072-3.882.735-2.153 1.274-3.59 2.633-5.391.855-1.134 1.147-2.463 1.648-3.806.873-2.341 1.777-4.676 2.76-6.972 1.855-4.336 4.312-8.3 6.333-12.541.942-1.979 1.406-4.234 2.517-6.122.855-1.455 2.214-2.506 2.88-4.082.812-1.927 1.201-3.976 2.079-5.903.617-1.354 1.28-2.671 1.838-4.048.752-1.861 2.157-6.074 4.938-4.553-.998-3.341-2.128-6.676-2.991-10.054-.228-.895-.244-2.053-.895-2.769-.683-.75-1.089-.619-1.564-1.572-1.276-2.558-.59-6.775-.801-9.535-.26-3.42-.861-6.802-.936-10.236-.076-3.423-.059-6.786-.287-10.205-.21-3.155-.422-6.29-.091-9.428.311-2.955-1.901-4.782-2.491-7.615-.639-3.066-.257-6.351.187-9.419 1.625-11.243 6.728-23.14 13.75-32.098 5.351-6.828 15.283-15.607 24.622-11.459 1.284.57 1.915 1.174 3.183.262 1.013-.729 1.088-1.896 2.544-1.97 1.416-.071 2.879 1.235 4.019 1.923 1.58.951 3.22 1.806 4.837 2.694 2.957 1.624 5.588 3.461 7.684-.208.567-.992 1.026-3.318 2.15-3.808.916-.398 1.345.505 1.957-.34l.233.281c-.473-.573.045-1.146-.052-1.763l.126-.649a3.81 3.81 0 01-.634-.709c-.112-.939.731-2.179 1.141-2.96 1.334-2.55 2.209-5.298 3.546-7.841 1.593-3.032 2.794-6.087 4.16-9.214 1.416-3.244 3.447-6.208 4.95-9.424 3.103-6.645 5.942-13.421 9.12-20.03.656-1.368 4.211-11.192 6.583-10.088-.538-2.402 1.058-3.842 2.432-5.673.821-1.094 1.315-2.182 1.957-3.363.538-.989 1.394-1.691 1.943-2.646.49-.851.41-1.708.681-2.619.307-1.037.959-1.71 1.61-2.545 1.552-1.993 2.723-4.295 4.781-5.846 1.277 5.093-1.659 10.162-3.568 14.691-2.33 5.529-4.396 11.172-6.604 16.751-4.358 11.013-9.289 21.787-14.429 32.453-2.692 5.585-5.545 11.096-8.013 16.785-.991 2.283-2 4.486-3.228 6.654-1.35 2.387-2.013 5.028-3.159 7.5-.826 1.782-2.427 3.595-1.797 5.677.609 2.013 3.346 4.495 4.841 5.918 3.406 3.245 8.011 4.203 9.296 9.148 1.216 4.675.615 11.32-3.418 14.624-4.199 3.44-11.741 1.5-16.457.85 2.886 4.312 5.868 8.561 8.708 12.905 2.627 4.02 4.921 8.263 4.261 13.22-1.602 12.027-17.188 1.595-22.756-1.072 1.475 4.836 2.473 11.658-.815 16.064-2.389 3.204-7.367 2.907-10.776 2.014-2.607-.682-3.366-.441-4.92 1.934-1.322 2.022-2.865 3.607-4.511 5.381-3.914 4.214-6.304 8.711-8.838 13.79-1.396 2.802-2.219 4.687-.757 7.731 1.307 2.722 2.846 5.43 4.408 8.014 2.976 4.929 6.914 9.2 10.31 13.833 6.882 9.392 12.858 19.344 20.743 28 7.785 8.544 17.78 14.935 27.236 21.491 4.928 3.416 9.651 7.046 15.182 9.461 2.808 1.227 5.716 2.207 8.639 3.12 1.39.435 2.802.818 4.185 1.273.784.258 2.039.968 2.878.59.608-.273 1.224-2.208 1.47-2.679.627-1.194 1.238-2.387 1.983-3.512 1.558-2.358 3.35-4.549 4.903-6.915 3.44-5.242 6.604-10.68 10.388-15.688 3.57-4.726 7.615-9.108 11.805-13.288 4.025-4.015 8.413-7.732 13.769-9.823 5.383-2.102 11.007-2.455 16.716-2.028 5.374.402 10.279 2.082 15.441 3.486 1.822.495 4.259 1.288 5.974.143.836-.559 1.214-1.514 1.816-2.278.616-.784 1.694-1.389 2.12-2.291.691-1.468-.598-3.338-.837-4.846-.478-3.008-.027-6.17.637-9.111 2.797-12.388 6.711-24.38 8.621-36.984.445-2.934.987-5.932 1.074-8.901.056-1.851-.85-3.66-.76-5.421.089-1.757 1.925-2.304 3.402-1.353 1.591 1.024 1.589 3.443 1.685 5.109.741 12.918-2.193 25.252-5.334 37.657-.763 3.012-1.479 6.034-2.269 9.04-.684 2.606-1.456 5.248-.421 7.858.935 2.352 2.502 4.488 3.585 6.784 1.144 2.425 2.076 5.432 3.844 7.488 1.655 1.925 3.277 2.343 2.531 5.299-.17.67-.628 1.275-.414 1.953.302.962 2.394 1.873 3.188 2.384 5.257 3.381 10.872 6.172 16.231 9.378 2.331 1.395 4.636 3.341 7.152 4.354 2.421.973 4.458 1.95 6.634 3.452 4.957 3.42 10.182 6.467 15.272 9.686 5.25 3.321 10.49 6.66 15.7 10.042 4.89 3.174 9.45 6.968 14.51 9.85 5.07 2.885 10.27 5.65 15.4 8.446 1.17.638 2.18 1.297 3.54 1.295 1.04-.001 1.86-.384 2.9.014 2.44.929 4.74 3.672 6.76 5.288 4.82 3.858 10.06 7.108 15.25 10.433a97.75 97.75 0 017.29 5.132c2.01 1.561 3.86 3.43 6.08 4.713 2.33 1.346 4.35 2.408 6.37 4.241 2.12 1.908 4.28 3.74 6.52 5.501 2.34 1.844 4.72 3.639 6.94 5.64 2.02 1.828 3.74 3.97 5.8 5.759 2.05 1.782 4.31 3.25 6.11 5.316 1.95 2.239 3.39 4.862 4.99 7.348 0-.264 1.2-1.107 1.33-1.302.65-.931.46-2.028.96-3.023 1.73 1.756.34 6.004.22 8.115.26-4.49.09-8.996.69-13.464.58-4.401 1.46-8.758 1.55-13.211.1-4.504-.2-9.019-.34-13.52-.06-1.929-.2-3.851-.59-5.747-.16-.78-.55-1.609-.61-2.399-.07-1.079.29-1.186.7-2.138.65-1.481.06-1.657-.7-2.869-.89-1.417 0-1.871.42-3.251.54-1.785-1.08-2.202-1.07-3.806 0-.664.62-1.32.62-1.947-.01-1.338-.61-.598-1.05-1.415-.44-.809.75-1.464 1.04-2.331.27-.795.25-1.455-.14-2.21-.1-.201-.36-.423-.43-.618-.16-.412-.06-.476-.14-.777-.68-2.524-1.75-4.947-2.57-7.493-.73-2.306-.17-4.699-.22-7.055-.05-2.024-1.06-3.602-1.46-5.536-.45-2.131.89-2.994 1.74-4.736.99-2.033.81-4.662-.05-6.703l-.96 3.178c-.24-.826-.69-1.727-.6-2.609.09-1.007.64-1.106.95-1.866.56-1.344-.07-.747-.6-1.961-.27-.623.06-1.458.01-2.117-.05-.846-.4-1.526-.57-2.339-.26-1.306-.01-2.278-.91-3.352-.8-.968-2.03-1.611-2.99-2.403-1.8-1.474-3.5-3.1-5.24-4.646-2.43-2.161-5.72-3.92-5.58-7.494 3.67 1.347 6.34 4.448 9.24 6.92 3.23 2.753 6.94 4.876 10.22 7.565 7 5.728 14.61 10.792 22.4 15.372 3.88 2.278 7.82 4.448 11.74 6.646 3.56 1.99 6.92 4.426 10.77 5.831 3.5 1.274 7.9 2.834 11.56 1.392 1.45-.572 2.9-1.6 3.48-3.093.49-1.256.01-3.22 1.24-4.132.48-.353 1.41.013 1.58-.747.14-.598-.96-1.253-1.04-1.848-.22-1.475 1.57-4.015 2.14-5.381.32-.78.59-1.802 1.25-2.386.24-.216.72-.229.89-.452.2-.271.02-.502.15-.751.4-.752.29-1.29.97-2.017.74-.785 1.77-1.313 2.62-1.957-.04-.039-.72.399-.8.442.09-1.234.75-2.305.93-3.512.18-1.265-.22-2.364.4-3.548.64-1.204 1.88-2.038 2.58-3.225.7-1.213.99-2.652 1.55-3.933 1.09-2.434 2.86-3.954 3.33-6.616.11-.598.07-1.124.43-1.646.32-.445.94-.361 1.21-.896.38-.79-.14-1.387.59-2.19 1.36-1.517 3.62-1.04 2.46-3.656-1.17-2.653-.42-2.732 1.21-4.748 1.66-2.052 2.1-5.128 2.84-7.583.3-.969.47-1.994 1.2-2.702 1.18-1.154 1.53-.429.96-2.182 2.16.109 2.29-3.93 2.55-5.479.18-1.007.4-2.392 1.14-3.158.52-.528 1.64-.442 1.66-.459.48-.34 1.34-2.06 1.42-2.545.09-.554-.45-.931-.35-1.594.09-.682.8-1.362 1.23-1.82 1.71-1.794 4.52-5.61 3.48-8.294-4.4 4.542-8.62 9.263-13.02 13.808-3.49 3.606-7.33 6.834-12.21 8.341-5.52 1.705-11.56 1.961-17.3 1.772-3.01-.098-6-.73-9.02-.575-3.12.159-6.07.002-9.15-.681-1.32-.295-2.63-.846-3.98-.969-1.04-.095-2.06.09-3.1-.093-2.63-.461-5-2.13-7.34-3.335-5.08-2.616-9.9-5.561-14.21-9.324-8.31-7.236-13.72-16.972-18.9-26.527-5.85-10.778-11.02-21.747-17.51-32.186-3.2-5.15-6.3-10.41-10.03-15.209-3.43-4.424-7.63-8.061-12.16-11.322-4.27-3.074-8.63-6.668-13.91-7.765-2.86-.596-5.8-.801-8.68-1.29-3.09-.524-5.99-.885-9.06-.027-2.72.76-5.38 1.744-8.09 2.515-2.96.84-6.04 1.246-8.81 2.646-2.48 1.253-4.68 2.984-7.09 4.357-2.16 1.228-5.39 1.843-6.54 4.237-1.15 2.42-.99 5.38-1.92 7.91-1.07 2.892-2.57 5.592-4.31 8.127-2.93 4.244-6.75 7.937-12.09 8.555-6.377.736-12.761-1.666-18.563-4.024-5.994-2.434-10.774-6.926-16.601-9.66 0 2.108-.264 4.206-.043 6.312.243 2.321.888 4.598 1.425 6.862 1.055 4.448 2.121 8.927 3.943 13.136 1.759 4.067 4.235 7.645 6.776 11.247 2.448 3.471 4.748 7.136 7.694 10.218 5.227 5.467 12.679 8.734 20.099 9.858 7.61 1.154 16.23.898 22.21-4.45 5.78-5.163 10.29-11.848 11.62-19.567 1.54-8.984 1.19-18.217.61-27.275-.29-4.589-.71-9.174-1.47-13.712-.66-3.933-2.48-8.125-1.06-12.047.33-.906.48-1.779 1.38-1.83 1.57-.087 2.9 2.268 3.53 3.344 2.11 3.6 2.67 7.651 3.42 11.689 1.79 9.772 2.16 19.899 1.59 29.792-.28 4.89-.47 9.856-1.82 14.596-1.34 4.719-3.39 9.317-5.69 13.641.94-.186 1.47.352 1.19 1.278-.41-.407-.81-.815-1.22-1.222-4.65 5.977-10.14 13.156-17.63 15.628-4.41 1.451-8.64 2.643-13.33 2.509-4.61-.132-8.89-1.396-13.141-3.117-3.844-1.559-7.815-2.909-11.016-5.637-3.267-2.784-5.939-6.486-8.535-9.879-5.622-7.349-10.356-15.36-13.125-24.231-1.362-4.363-1.942-8.814-2.667-13.308-.36-2.227-.707-4.464-.726-6.725-.016-1.836.453-3.628.44-5.457-.024-3.47-3.39-4.699-6.415-5.139-3.894-.568-5.869 2.879-7.882 5.621-2.685 3.656-5.263 7.358-7.679 11.198-1.068 1.699-1.675 3.923-2.81 5.505-.789 1.099-2.149 1.645-3.067 2.778-2.795 3.449-5.731 7.169-7.983 10.988-2.162 3.665-5.315 6.948-8.086 10.184-3.062 3.574-6.419 6.879-9.486 10.446-2.413 2.807-5.624 4.438-8.065 7.171-2.471 2.768-6.514 4.474-9.518 6.696a89.436 89.436 0 00-5.071 4.032c-1.622 1.391-2.956 3.195-4.656 4.469-6.258 4.686-12.514 8.946-20.681 9.237-1.77.063-3.285-.537-4.97-.634-1.826-.104-3.552.791-5.488.626-4.312-.367-8.835-1.337-12.974-2.576-8.354-2.498-17.174-5.532-24.288-10.699-3.584-2.604-6.464-5.87-9.445-9.112-1.578-1.716-5.28-5.759-2.608-8.226 2.26-2.086 6.38 3.742 7.801 5.082 3.128 2.949 6.915 4.976 10.875 6.585 4.001 1.625 8.155 2.826 12.224 4.26 4.266 1.502 8.411 3.208 12.937 3.755 2.319.28 4.652.427 6.975.669 2.376.247 4.773.907 7.159.556 4.34-.637 8.986-1.156 12.861-3.334 7.538-4.238 13.269-11.472 20.157-16.647 3.463-2.603 7.201-4.795 10.462-7.669 3.367-2.967 6.224-6.47 9.133-9.872a968.63 968.63 0 0018.885-22.76c2.744-3.414 5.825-6.732 8.298-10.347.993-1.45 1.742-3.087 1.464-4.884-.331-2.141-1.724-3.929-1.987-6.111-.5-4.153 1.66-8.214 3.356-11.869.658-1.417 1.598-3.026.468-4.439-1.127-1.41-2.969-2.508-4.22-3.875-3.009-3.287-5.949-6.64-8.714-10.134-1.233-1.559-2.544-3.094-3.542-4.82-1.221-2.11-1.723-4.51-2.423-6.824-2.715-8.98-3.681-18.232-2.629-27.569.963-8.55 1.602-18.2 5.428-26.024 3.661-7.486 9.56-13.419 15.859-18.728 3.631-3.06 7.314-6.061 10.982-9.073 3.565-2.928 7.432-4.752 11.329-7.119 7.736-4.699 16.21-5.449 25.084-4.713 4.608.381 9.239.221 13.7 1.64 4.23 1.346 8.15 3.639 11.87 6.023 7.46 4.781 14.8 9.763 22.34 14.422 15.26 9.428 34.42 17.248 52.5 12.691 8.95-2.257 17.83-5.836 25.97-10.174 8.16-4.353 15.76-9.343 24.43-12.718 4.46-1.733 8.99-3.266 13.42-5.074 1.91-.78 3.86-1.914 5.92-2.202.76-.105 1.77.179 2.47-.171.62-.313.41-.687.89-1.004 1.02-.665 2.81-.55 4.07-1.018 1.17-.435 3.28-1.992 4.55-1.831.68.086.93.758 1.68.732.68-.024 1.32-.808 1.89-1.11 1.91-1.004 4.27-1.248 6.37-1.549 4.07-.582 7.68-1.121 11.61.31 3.69 1.342 7.51 2.489 11.26 3.71 1.97.639 3.14 1.229 4.79 2.381.99.685 2.2.816 3.34 1.288 3.31 1.372 6.88 4.393 8.37 7.621.76 1.649 1.82 1.247 2.79 2.444 1.01 1.24.61 3.027 1.85 4.306 1.02 1.06 1.38 2.146 2.44 3.224 1.38 1.409 2.14 3.333 2.94 5.104 3.85 8.544 6.52 17.8 7.72 27.099.59 4.604.64 9.18.27 13.803-.34 4.346-.17 9.025-1.62 13.189-.15-.323-.29-.648-.42-.976-.29.397-.97.837-.98 1.388-.01.806.52 1.248 1.11.498-1.04 3.687-2.51 7.105-4.4 10.454-.81 1.436-1.4 1.79-2.72 2.305-1.33.519-.98.743-1.84 1.961-.7 1.013-1.13 1.159-2.33.711-.52-.195-.54-.683-1.15-.564-.43.086-1.05 1.101-1.34 1.39-.55.545-1.06 1.09-1.85 1.283-.93.228-1.44-.479-2.12-.398-1.42.17-2.1 1.544-3.62 1.752-1.53.209-2.25.264-3.7.842-2.05.817-4.28 1.098-6.48 1.063-1.78-.029-3.77-.14-5.48-.657-.92-.279-1.64-.716-2.61-.84-.83-.105-1.66.089-2.5-.1-1.73-.393-3.25-1.113-5.06-1.42-1.65-.282-3.22-.806-4.82-1.302-.96-.296-2.32-.996-2.91.17-.69 1.392 1.16 3.792 1.66 4.965l-.98-.058c1.36.512 1.29.495 1.94 1.876.66 1.398 1.58 2.675 2.1 4.14 1.2 3.361 1.6 7.108 2.34 10.595 1.61 7.544 3.27 14.829 2.84 22.595-.37 6.745-.98 13.966-5.8 19.144-.99 1.071-2.12 2.088-2.82 3.393-.7 1.307-.95 2.673-1.89 3.874-1.81 2.316-4.79 4.225-7.66 4.89-3.24.75-6.79 1.504-10.11 1.053-3.23-.439-6.54-.898-9.74-1.522-6.97-1.36-12.35-6.722-16.85-11.878-2.35-2.685-4.81-5.318-7.03-8.112-.61-.779-1.3-2.293-2.29-2.661-1.24-.458-2.19.555-3.31.997-1.74.682-3.81.988-5.64 1.367-1.35.281-2.48.047-2.41 1.609.07 1.426 1.87 3.747 2.52 5.037a568.75 568.75 0 012.61 5.248c3.41 6.889 6.97 13.658 10.87 20.285 3.68 6.257 7.74 12.152 13.46 16.721 5.45 4.354 11.91 8.056 18.33 10.791 3.56 1.518 7.32 1.979 11.14 2.39 1.68.18 3.36.306 5.04.493.72.08 1.47.259 2.19.258.73-.002 1.5-.433 2.16-.413 1.06.033 1.79.756 2.97.745 1.68-.017 3.39-.216 5.07-.282 3.8-.148 7.68-.237 11.43-.927 7.3-1.341 12.02-5.668 17.26-10.557 2.23-2.079 4.67-4.186 6.67-6.489.58-.671.96-.996.68-1.829-.13-.371-.75-.73-1-1.041-.71-.884-1.49-2.142-1.84-3.224-.59-1.82.88-5.853 3.41-5.07 1.72.532 1.94 3.247 3.61 3.9 1.49.579 1.83-.577 2.13-1.743.39-1.513.48-2.634 1.65-3.834 1.07-1.108 2.43-1.55 2.46-3.318.01-.655-.32-1.264-.26-1.929.06-.691.84-1.525.76-2.173-.19-1.36-2.97-2.098-3.98-2.765-1.49-.981-2.79-2.18-3.97-3.506-2.75-3.095-4.94-6.78-6.83-10.448-3.19-6.188-5.82-13.285-5.11-20.357.27-2.66 1.01-5.461 2.8-7.522 2.79-3.21 6.48-2.622 10.31-2.622-3.05-5.777-7.38-14.238-3.1-20.487 3.48-5.071 10.3-2.265 15.04-1.08-.94-4.689-2.25-9.472-1.38-14.279.56-3.098 2-6.95 5.14-8.264 3.55-1.482 7.96.696 10.9 2.628 3.53 2.311 6.57 5.646 9.07 9.011 1.21 1.627 3.9 6.681 5.9 3.125.65-1.148.79-2.626 1.25-3.859.85-2.263 1.96-3.93 3.36-5.819.92-1.24.63-2.575 1.39-3.933.46-.818 1.18-1.464 1.62-2.298.57-1.055.75-2.228 1.1-3.356.62-1.98 1.83-3.498 2.84-5.271 1.17-2.06 1.08-4.37 1.9-6.545 1.96-5.156 4.75-10.084 7.03-15.107 1.92-4.223 3.9-8.428 7.88-11.091 1.03 3.009.83 4.829-.15 7.844-.98 2.987-1.98 5.972-3.09 8.912-2.14 5.605-4.73 11.009-7.19 16.472-2.48 5.507-4.55 11.179-6.99 16.703-1.19 2.685-2.41 5.353-3.59 8.04-.85 1.914-3.17 5.189-1.96 7.219.5.829 1.45 1.464 2.08 2.209.89 1.059 1.61 2.231 2.39 3.369 1.55 2.267 3.23 4.442 4.83 6.674 3.39 4.718 6.45 9.732 9.56 14.64 6.23 9.86 9.4 22.082 7.9 33.657-.79 6.098-.66 12.252-1.52 18.349a128.78 128.78 0 01-3.89 17.903c-1.56 5.323-4.81 10.397-4.47 16.047.27 4.529.38 9.079-.48 13.564-.35 1.837-.87 3.662-1.74 5.326-.44.847-.96 1.655-1.59 2.378-.67.777-1.88 1.296-2.45 2.064-.36.491-.31 1.349-.47 1.911-.26.919-.69 1.732-1.16 2.557-1.42 2.502-3.02 5.191-4.94 7.341-3.54 3.957-7.09 8.079-10.96 11.715-3.98 3.727-7.91 7.768-12.17 11.159-1.16.927-2.39 1.79-3.69 2.521-.53.299-1.2.767-1.8.891-.42.087-1-.092-1.37.031-.98.325-.07.065-.99.922-.8.739-1.56.877-2.55 1.368-5.47 2.727-10.36 6.185-16.17 8.178-6.37 2.18-12.85 4.618-19.53 5.644-2.93.452-9.98-1.143-10.57 3.085-2.04-2.027-4.35-.358-6.61.212 0-.576.42-2.103 0-2.556-.54-.584-2.92.021-3.46.41-1.12.815-1.5 2.668-2.01 3.873-.88 2.058-1.87 4.076-2.79 6.115-3.63 8.032-7.24 16.07-10.91 24.084-7.34 16.026-14.31 32.217-21.36 48.368-1.64 3.751-3.11 7.563-4.69 11.338-1.44 3.433-3.43 6.582-5.02 9.938-1.78 3.752-3.05 7.724-4.78 11.5-1.77 3.871-3.54 7.745-5.3 11.623-7.18 15.856-14.05 31.85-20.95 47.825-7.85 18.14-15.87 36.202-23.91 54.254 8.6 1.874 17.19 4.151 25.92 5.374 4.09.573 8.26.479 12.32 1.212 2.13.382 3.97.884 6.15.819a92.55 92.55 0 016.3.037c8.44.317 17.17.206 25.53-1.052 3.38-.508 7.1-1.516 10.3.23 2.79 1.526 3.64 4.378 4.14 7.326 5.58-1.315 10.33-4.747 15.78-6.395 5.2-1.571 11.1-2.038 16.29-.213 5.22 1.834 10.89 4.471 15.34 7.768 4.6 3.402 7.83 8.219 10.65 13.111 3.14 5.429 5.93 11.048 9.02 16.503 3.19 5.628 6.37 11.203 9.07 17.087a189.862 189.862 0 0112.55 36.938c1.09 4.788 1.69 9.965-1.51 14.124-3.3 4.299-8.67 4.343-13.44 2.78-2.64-.864-5.01-2.236-7.43-3.573-2.32-1.283-4.66-2.314-6.7-4.036-4.4-3.712-9.26-6.945-13.73-10.622-8.42-6.937-17.79-12.226-24.69-20.863-3.49-4.358-7.93-8.535-10.41-13.602-.78-1.602-1.28-4.881 1.4-4.941 1.71-.04 3.29 2.081 4.33 3.195 4.78 5.12 10.04 9.879 15.65 14.096 2.65 1.994 5.5 3.686 8.28 5.477 2.79 1.796 5.25 3.908 7.91 5.86 2.63 1.926 5.44 3.453 7.97 5.518a83.293 83.293 0 007.97 5.766c5.59 3.554 11.28 7.21 17.66 9.169 0-4.35-2.42-7.962-3.81-11.906-1.46-4.139-2.66-8.144-4.45-12.186-1.93-4.336-3.86-8.671-5.9-12.951-1.93-4.031-4.37-7.787-6.29-11.821-1.75-3.665-4.34-6.695-5.87-10.388-.78-1.906-2.12-3.555-3.13-5.346-1.11-1.984-2.13-4.016-3.27-5.987-4.43-7.672-10.56-12.777-18.45-16.766-4.26-2.158-8.99-3.434-13.77-3.569-5.5-.154-10.86 1.425-16.35 1.425.17 3.455-.27 7.489.82 10.815.38 1.178 1.08 1.782.88 2.979-.08.477-.71.972-.83 1.584-.15.863.11 1.915.15 2.792.38 7.606.22 15.196-.18 22.795-.13 2.471-.13 5.857-2.65 7.267-1.08.601-1.25.287-2.29-.08-1.48-.527-2.43-.178-3.86.476-.93.426-1.85.835-2.79 1.236-.46.195-1.39.361-1.63.907-.12.278.12.92.01 1.093-.58.873-.27.474-1.56.35-1.7-.162-2.67.489-4.14 1.353-12.7 7.462-27.73 8.211-42.05 9.866-7.55.873-14.95 2.196-22.57 2.326-7.56.128-15.18.204-22.71-.523-3.33-.322-6.65-.865-9.96-1.325-1.1-.153-5.5-1.908-4.2.945.57 1.229 2.26 1.987 3.21 2.868 1.07.991 1.82 2.298 3.02 3.152 1.58 1.119 3.12 1.949 4.6 3.253 5.15 4.545 9.86 9.416 15.27 13.696 2.21 1.752 4.8 3.525 6.24 6.029 1.42 2.473 1.44 5.692 1.14 8.45-.33 3.086-1.63 5.742-2.84 8.553-1.5 3.493-2.57 7.187-3.83 10.771-1.2 3.393-2.46 6.768-3.86 10.082-.9 2.132-1.71 5.082-3.41 6.753-.77.751-1.83 1.404-2.94.922-1.08-.472-1.14-1.742-1.91-2.443-1.1-1.007-1.78-.277-3.16-.008-1.91.373-2.56-.524-4.22-1.099-1.16-.406-2.36.096-3.55-.445-1.08-.489-1.79-1.557-2.82-2.133-2.74-1.537-7.04-1.408-10.11-1.945-15.2-2.653-29.99-7.198-44.97-10.834-7.48-1.817-15.038-3.397-22.485-5.369a258.085 258.085 0 01-10.386-3c-1.835-.569-3.737-1.07-5.515-1.802-1.667-.686-3.077-1.6-4.889-1.851-3.434-.479-6.426-1.843-9.802-2.629-3.645-.85-7.033-2.45-10.606-3.526-3.626-1.09-7.36-1.795-10.998-2.848-3.714-1.076-7.321-2.487-11.038-3.553-7.194-2.063-14.67-3.15-21.666-5.914-1.443-.57-2.826-1.332-4.357-1.648-1.865-.384-3.719-.342-5.577-.862-3.741-1.044-7.329-2.483-11.104-3.443-7.139-1.815-14.331-3.492-21.449-5.368-6.75-1.779-13.682-2.594-20.522-4.059-7.438-1.593-14.885-3.205-22.29-4.944-3.391-.797-6.707-1.702-10.16-2.2-3.601-.519-6.837-2.072-10.434-2.576-14.311-2.001-28.516-4.269-42.585-7.584a1350.601 1350.601 0 00-22.134-5.015c-3.357-.73-7.06-1.11-10.249-2.391-3.355-1.348-6.681-1.658-10.118-2.682-7.201-2.148-14.68-3.071-21.976-4.855-7.151-1.749-14.51-2.95-21.576-4.979-1.315-.378-3.493-1.694-4.87-1.271-1.065.325-1.283 1.521-2.116 2.089-2.271 1.544-4.681-1.456-6.153-2.902-2.097-2.059-4.206-2.83-6.61-4.282-2.954-1.784-5.792-4.909-8.096-7.476-9.565-10.666-22.642-16.956-32.982-26.807-5.324-5.073-10.098-10.483-14.788-16.135-2.178-2.623-4.563-5.066-6.976-7.472-1.32-1.316-2.655-2.616-3.975-3.931-.817-.813-2.214-2.993-3.39-3.258-1.093-.246-2.287.751-3.49.499-1.097-.231-1.891-1.006-2.496-1.905-1.482-2.197-2.041-5.601-.478-7.901z" fill="#000"/><path d="M680.381 473.827a.65.65 0 01-.07.011c.048-.054.138-.022.07-.011zm224.149-157.28c-.808-.103-1.614-.206-2.421-.306 1.198-.966 1.43-.523 2.421.306zm249.38 172.456c.34.065.67.131 1.01.197-.53.783-.5.4-1.01-.197zm-156.187-52.381c.915.796 1.712 1.673 2.357 2.7l-3.455-.667c5.295 9.459 8.735 19.796 11.965 30.1 4.97-4.669 9.73-9.541 14.44-14.471 1.54-1.606 4.25-3.394 5.19-5.437.43-.926.27-1.505 1.03-2.241.92-.889 2.81-1.254 3.96-1.744-11.46-4.173-23.61-5.747-35.487-8.24zm41.727 9.929c-1.34-.406-3.08-1.592-4.52-1.399-1.66.223-1.83 2.067-2.74 3.277-3 4-7.03 7.507-10.55 11.052-3.54 3.573-6.96 7.325-10.71 10.682-.96.855-2.65 3.005-3.97 2.054-1.42-1.029-2.13-5.002-2.74-6.64-1.77-4.757-3.21-9.649-5.238-14.305-2.059-4.725-4.386-9.397-6.7-14.002-.618-1.23-1.846-2.967-.859-4.313 1.162-1.589 3.655-.451 5.13-.032 5.007 1.424 10.207 2.28 15.317 3.219 5.61 1.03 11.05 2.631 16.49 4.343 2.59.819 5.19 1.643 7.77 2.526 2.15.734 4.66 1.392 6.06 3.342-.99.358-1.71.508-2.74.196zm-69.605-20.606c-7.105-2.32-14.406-4.239-21.855-5.025-3.757-.397-7.545-.363-11.318-.34-2.687.017-6.56-.207-4.316-3.785 1.636-2.609 5.097-4.375 7.389-6.391 2.405-2.117 3.986-4.799 5.541-7.559 1.795-3.19 3.7-6.315 5.439-9.537 1.296-2.399 2.336-5.855 4.951-7.12-1.975 6.701-5.94 12.595-9.45 18.559-1.586 2.696-3.213 5.663-5.598 7.754-1.892 1.66-5.054 2.721-5.912 5.307 6.965 0 14.027.13 20.93 1.135 5.837.851 11.91 4.468 17.841 3.98-3.541-8.042-7.634-15.777-11.495-23.662-1.397-2.852-2.913-5.945-3.62-9.077-.678-2.992.976-1.695 1.925.161a1677.232 1677.232 0 0010.549 20.318 93.13 93.13 0 012.767 5.652c.807 1.815 2.042 3.858 2.109 5.9.108 3.313-3.005 4.667-5.877 3.73zm108.965 79.037c-6.79-1.823-13.34-4.502-20.24-5.914-6.3-1.289-13.51-.622-19.44-3.266 2-3.746 6.08-4.593 9.11-7.428 3.28-3.078 6.05-6.907 8.86-10.415 2.91-3.65 5.27-7.614 8.01-11.381 1.5-2.059 4.41-6.398 7.34-6.252 1.53.076 2.55 1.735 1.4 3.022-.84.94-2.7.756-3.8 1.336-3.31 1.764-5.06 6.324-7.17 9.256-2.76 3.827-5.81 7.469-8.84 11.084-3.33 3.975-6.97 6.892-11.23 9.804 12.97.166 25.56 3.804 37.79 7.839-2.13-6.317-3.14-12.941-4.08-19.519-.46-3.268-.9-6.538-1.2-9.825-.26-2.895-.87-6.183-.15-9.05 1.87 3.262 1.9 7.333 2.3 10.974.49 4.413.96 8.85 1.76 13.219.76 4.15 2.11 8.165 2.9 12.295.49 2.568-.12 5.079-3.32 4.221zm-197.24-48.863c-.1 7.938-1.532 15.869-4.44 23.266 8.379-1.72 15.902-5.999 23.161-10.345l-18.721-12.921zm19.46 16.369c-3.796 2.178-7.546 4.7-11.551 6.478-3.47 1.539-7.249 2.082-10.798 3.373-1.975.719-6.207 2.802-5.102-1.215.405-1.476 1.332-2.819 1.939-4.218a36.45 36.45 0 002.078-6.413c.992-4.362 1.299-8.911 1.433-13.373.101-3.407-2.514-5.515-5.791-6.361-1.077-.277-3.498-1.203-1.208-2.381 1.239-.638 3.137.438 4.247.974 3.723 1.799 7.02 4.325 10.459 6.59 4.318 2.844 8.721 5.554 13.042 8.397 1.355.891 3.184 1.857 3.639 3.546.519 1.924-.782 3.683-2.387 4.603zm101.32 10.376c3.84 7.993 7.43 16.099 10.68 24.35 1.47 3.739 3 7.489 4.21 11.325.34 1.088 1.52 7.088-1.2 4.798-.88-.743-1.98-2.471-2.41-3.477-.69-1.609-.08-3.165-.67-4.82-1.39-3.919-3.03-7.784-4.51-11.676-1.49-3.931-3-7.858-4.52-11.78-1.27-3.273-4.116-7.031-3.17-10.712.53.651 1.22 1.221 1.59 1.992zm289.08-164.815c.22.109.14.117.19.372-.15-.003-.21-.127-.19-.372zm-305.118-68.762c-1.279 5.156-6.084 1.317-7.893-1.03-2.61-3.387-4.163-7.686-4.981-11.851-.337-1.722-.6-3.884.173-5.538.897-1.921 2.586-1.494 3.736-.072 1.416 1.75 1.956 4.41 2.805 6.46.953 2.297 2.02 4.57 3.382 6.657 1.105-1.177 2.798-2.46 3.473-.263.52 1.702-.285 3.991-.695 5.637zm8.019-10.726c-2.334-.21-5.943-1.763-6.785-4.163-1.628-4.649 5.365-2.466 7.47-2.192-.105-1.678-1.381-6.957.941-7.792 1.744-.625 2.652 2.964 2.894 4.135.679 3.297.388 10.453-4.52 10.012zm9.379 9.779c.04 1.617-2.81 9.433-5.409 6.333-1.195-1.421.194-2.479 1.018-3.554 1.311-1.715 1.911-3.858 3.141-5.639.39.8 1.25 1.95 1.25 2.86zm-107.585 74.019c.873.99 1.676 1.805 1.023 3.121-.299.603-1.476 2.001-2.309 1.768-.777-.218-.708-1.333-.538-1.93.35-1.232 1.585-1.525.937-3.001l.887.042zm145.385-7.174a1.02 1.02 0 01-.22.466c-1.03-.914.15-.899.22-.466zm185.75 81.887c.1-.158.19-.316.29-.472.32.294.33.592.01.895l-.3-.423z" fill="#000"/></g></svg>