<svg width="402" height="381" viewBox="0 0 402 381" fill="none" xmlns="http://www.w3.org/2000/svg" preserveAspectRatio="none"><path fill-rule="evenodd" clip-rule="evenodd" d="M306.438 90.892l-46.366 248.625-190.4-159.784 236.766-88.84z" fill="#F6EDEE"/><path fill-rule="evenodd" clip-rule="evenodd" d="M291.717 138.045l74.677-22.513 7.637 17.795-73.958 32.053-8.356-27.335zm28.531-43.272l74.507-23.84 6.823 15.099-74.177 32.124-7.153-23.383z" fill="#FDE1DF"/><path fill-rule="evenodd" clip-rule="evenodd" d="M-50 312.182l74.974-22.513 7.668 17.794-74.253 32.053L-50 312.182z" fill="#FFAEAD"/><path fill-rule="evenodd" clip-rule="evenodd" d="M-21.142 268.909l74.507-23.84 6.823 15.099-74.177 32.125-7.153-23.384z" fill="#FDE1DF"/><path fill-rule="evenodd" clip-rule="evenodd" d="M229.841 324.009c-.599 2.429-1.011 4.921-1.721 7.322-.298 1.01-.9 1.896-1.139 2.926-.253 1.087.507 1.446 1.309 2.026-.444-.602-.969-.985-.948-1.772 1.329.303 2.591 1.669 3.607 2.507 1.331 1.098 2.635 2.226 3.945 3.349a932.832 932.832 0 017.215 6.269c2.249 1.969 4.658 3.737 7.044 5.534 2.098 1.582 4.083 3.25 5.819 5.229.357.407 1.48 2.201 2.151 1.902.33-.147.434-.69.549-.989.207-.535.421-1.064.613-1.605.434-1.228.842-2.466 1.286-3.69.369-1.017.976-1.798.011-2.668-1.81-1.63-3.47-3.396-5.313-5.001-2.111-1.841-4.299-3.588-6.433-5.401-2.049-1.741-3.993-3.604-6.073-5.309-2.051-1.681-4.075-3.339-6.05-5.114-1.997-1.795-3.835-3.763-5.872-5.515zM97.739 306.531c.412.613.758.915 1.333 1.376.635.507 1.144 1.167 1.701 1.753 1.061 1.116 2.218 2.143 3.377 3.155 2.444 2.135 5.162 3.915 7.621 6.02 1.177 1.007 2.001 2.341 3.168 3.347 1.076.928 2.487 1.323 3.656 2.111.592.399 1.067.989 1.713 1.301.634.307 1.384.415 2.045.656.843.307 1.614.463 2.496.593.746.109 1.383.317 2.144.193-.369-.22-.734-.532-1.141-.676-.363-.127-.685-.061-1.058-.069-.766-.016-1.418-.425-2.184-.464.696-.576 1.759-.156 2.506.07.968.292 1.952.529 2.922.815 4.523 1.333 9.083 2.444 13.678 3.496 4.554 1.043 9.097 2.199 13.683 3.075 4.427.847 8.912 1.403 13.354 2.237 4.695.882 9.403 1.801 14.065 2.847 2.205.495 4.412.902 6.593 1.504 2.097.58 4.211 1.128 6.314 1.689.57.153 1.159.273 1.713.48.518.195.964.483 1.52.57.958.151 1.85.396 2.8.609 2.169.487 4.263 1.237 6.409 1.811 2.31.618 4.599 1.281 6.882 1.992 2.125.661 4.321 1.117 6.424 1.85.5.174.967.415 1.496.49.431.062.866.025 1.287.159.444.141.809.422 1.276.492.516.076.685.13 1.144.372.944.495 2.078.546 3.102.783 1.004.233 1.974.561 2.956.869 2.132.668 4.281 1.269 6.427 1.888 1.125.324 2.219.748 3.329 1.118.277.092 1.83.715 1.515.1-.13-.254-.821-.614-1.02-.764-.421-.318-.844-.631-1.267-.945-.846-.629-1.692-1.258-2.515-1.916-1.821-1.455-3.475-3.102-5.254-4.607-1.653-1.399-3.389-2.682-4.906-4.236-1.544-1.581-2.904-3.385-4.325-5.078-.597-.712-.884-1.507-1.375-2.268-.48-.743-1.159-.708-1.938-.705h-.152c-2.285-.014-4.654-.815-6.825-1.46-2.068-.614-4.161-1.254-6.269-1.717-1.07-.235-2.131-.364-3.188-.67-1.045-.302-2.11-.508-3.177-.722-2.256-.454-4.433-1.137-6.631-1.808-2.144-.655-4.329-1.14-6.496-1.711-1.19-.314-2.372-.656-3.562-.968-.986-.259-2.039-.639-3.06-.712-2.195-.156-4.266-.454-6.386-1.077-1.103-.325-2.231-.508-3.344-.789-1.042-.263-1.99-.83-3.041-1.046-2.17-.446-4.301-.891-6.452-1.446-4.325-1.116-8.641-2.063-13.058-2.718-1.122-.166-2.205-.504-3.317-.722-1.063-.208-2.148-.306-3.219-.465-2.325-.346-4.602-.941-6.91-1.381-2.252-.43-4.529-.715-6.779-1.159-1.145-.227-2.313-.408-3.444-.701-1.028-.265-1.912-.731-2.979-.832-1.118-.106-2.166-.448-3.234-.776-1.004-.308-1.97-.459-2.994-.651-.582-.109-1.018-.475-1.571-.641-.453-.135-.938-.052-1.401-.104-1.077-.121-2.114-.532-3.174-.743-2.184-.436-4.381-.814-6.55-1.324-2.17-.51-4.303-1.16-6.453-1.75zm45.464 11.795c.87.024 1.736.06 2.603.139 1.88.171 3.752.425 5.615.726 3.813.615 7.613 1.625 11.363 2.549 6.736 1.66 13.412 3.389 19.99 5.614 3.292 1.113 6.575 2.25 9.87 3.351 2.707.905 5.67 1.777 8.025 3.445.582.411 1.758 1.313 1.072 2.102-.414.475-1.169.457-1.736.551a7.868 7.868 0 01-2.145.091c-1.677-.148-3.364.042-5.04-.172-1.602-.205-3.218-.451-4.786-.839-.776-.192-1.537-.447-2.319-.614-.829-.176-1.684-.157-2.51-.339-.736-.163-1.466-.358-2.201-.52-.552-.122-1.056-.275-1.543-.531-.561-.294-1.214-.158-1.835-.273-.736-.136-1.468-.299-2.201-.451-.92-.19-1.838-.384-2.756-.579-.623-.132-1.237-.247-1.73-.68.831-.672 1.597-.264 2.562-.033 1.102.263 2.207.507 3.31.763 2.077.481 4.146 1.002 6.247 1.375 2.065.366 4.117.832 6.203 1.063 2.105.233 4.226.318 6.324.623.991.143 1.742.248 2.731.063.592-.111 1.406-.081.711-.76-.453-.442-1.161-.533-1.459-1.104-.164-.315-.113-.511-.496-.624-.208-.061-.608-.08-.831-.096-.315-.022-.563.104-.87.039-.293-.062-.615-.277-.891-.397-.703-.305-1.479-.317-2.177-.611-.283-.119-.616-.542-.91-.585-.191-.029-.403.128-.613.113-.605-.044-1.243-.509-1.77-.779-.414-.211-.527-.223-.947-.178-.392.043-.402.061-.774-.146-.738-.41-1.326-.472-2.156-.587-.865-.12-1.724-.394-2.522-.744-.339-.149-.641-.368-.978-.517-.24-.106-.511-.09-.736-.188-.402-.176-.05-.234-.224-.393-.187-.171-.327-.008-.54.02-.326.042-.267-.045-.518-.127-.293-.097-.328-.069-.705-.052-.85.04-1.655-.499-2.425-.791-.293-.111-.669-.162-.933-.336-.201-.132-.33-.439-.609-.4-.299.042-.364.411-.757.373-.276-.028-.491-.277-.717-.409-.628-.368-1.4-.223-2.092-.476-.357-.13-.651-.275-1.023-.356-.247-.053-.401-.154-.637-.225-.69-.208-1.235.014-1.917-.426-.282-.181-.472-.39-.819-.422-.276-.025-.533.08-.814.047-.725-.084-1.526-.474-2.202-.731-.819-.311-1.603-.611-2.485-.69-.837-.076-1.628-.076-2.439-.345-.816-.27-1.621-.54-2.424-.84-.749-.279-1.542-.243-2.322-.371-.784-.129-1.807-.172-2.517-.493-.544-.245-1.13-.257-1.669-.505-.395-.182-.635-.42-1.091-.422-.351-.002-.632.07-.989.002-.331-.062-.61-.168-.954-.133-.445.046-.441.026-.823-.148-.713-.323-1.609-.248-2.367-.37-.84-.134-1.644-.418-2.469-.618a1.342 1.342 0 01-.388-.256c.624-.437 1.452-.386 2.175-.367zm-46.806-23.262c-.496 1.143-.726 2.522-1.083 3.718-.348 1.165-.699 2.329-1.045 3.494-.257.866.421.935 1.081 1.014 1.095.132 2.142.418 3.193.742 2.321.718 4.685 1.168 7.068 1.622 2.447.467 4.862 1.067 7.328 1.43 2.303.339 4.534 1.047 6.828 1.447 1.166.203 2.384.444 3.488.88.501.198.94.401 1.485.442.553.042 1.078.021 1.624.145 2.275.52 4.652.835 6.972 1.138 2.443.319 4.854.838 7.28 1.259 1.195.207 2.39.407 3.583.62 1.04.186 2.121.648 3.17.687.695.026 1.322-.067 2.021.053.541.092 1.08.204 1.619.31 1.179.233 2.332.565 3.507.814 4.757 1.009 9.535 1.965 14.256 3.148 1.178.294 2.345.637 3.538.864 1.097.208 2.093.603 3.17.866 2.255.553 4.583.716 6.803 1.347 2.237.637 4.559.623 6.808 1.194 2.425.616 4.824 1.321 7.215 2.06 4.699 1.452 9.51 2.373 14.267 3.602 2.344.606 4.638 1.346 6.957 2.036 1.205.358 2.42.678 3.65.936.831.175 1.932.569 2.784.482.771-.079 1.269-1.459 1.591-2.082.476-.924.576-1.781.678-2.796.047-.473.117-.962.31-1.401.124-.281.646-.675.69-.924.091-.51-1.653-.506-2.032-.585-1.097-.228-2.144-.765-3.244-1.033-1.111-.27-2.145-.657-3.209-1.075-2.181-.859-4.414-1.577-6.657-2.258-1.179-.358-2.311-.83-3.481-1.209-.953-.309-1.934-.308-2.897-.616-2.273-.728-4.64-1.187-6.944-1.808-1.26-.34-2.56-.462-3.834-.734-1.139-.243-2.266-.528-3.42-.691-1.071-.152-2.022-.434-3.055-.729-1.082-.309-2.221-.366-3.324-.579-1.215-.236-2.425-.496-3.648-.694-1.054-.17-2.115-.284-3.111-.694-.989-.407-1.959-.421-2.995-.644-1.1-.237-2.186-.391-3.296-.574-1.301-.215-2.58-.542-3.879-.771-1.025-.18-2.116-.192-3.113-.504-.555-.173-.977-.446-1.57-.503-.499-.047-.964-.083-1.459-.177-1.164-.219-2.347-.31-3.517-.513-2.372-.41-4.776-.685-7.13-1.19-1.28-.275-2.536-.619-3.829-.83-1.126-.183-2.271-.297-3.37-.611-1.218-.347-2.368-.692-3.628-.869a49.245 49.245 0 01-3.126-.53c-2.501-.52-5.049-.652-7.57-1.046-2.275-.356-4.608-.761-6.768-1.578-1.123-.424-2.337-.599-3.496-.93a678.19 678.19 0 01-3.368-.974c-4.695-1.366-9.477-2.502-14.262-3.505-1.16-.243-2.319-.493-3.478-.742-.483-.104-.999-.3-1.487-.362-.436-.054-.462.005-.639.411zm68.332 31.931c1.56.178 3.118.374 4.674.583 1.47.197 3.02.323 4.35 1.04-2.377-.159-4.766-.231-7.129-.559-2.145-.299-4.365-.968-6.524-.393.978.765 2.213 1.023 3.367 1.404 1.441.476 2.871.991 4.309 1.476-.447.576-1.151.169-1.681-.021-.657-.236-1.342-.392-2.006-.606-1.544-.497-3.023-1.174-4.516-1.803-.422-.179-1.073-.651-.597-1.143.283-.291.854-.222 1.213-.232 1.526-.046 3.025.08 4.54.254zm83.461-151.293c-.752.937.009 1.657-.058 2.65-.063.943-1.041.474-1.647.35l-.039-.008.568 2.775c.205-.243-.017-.462.382-.443.049.002.352.229.422.26.22.098.461.134.687.213-.185.123-.517.529-.691.587-.372.126-.44-.243-.737-.416.387 5.089 1.34 10.797-.69 15.672-.248.595-.59 1.179-.804 1.785-.169.477-.082.429.234.723.123.113.345.318.299.518-.089.386-.372.187-.595.357-.335.257-.289.689-.347 1.088-.057.398-.235.71-.327 1.082-.053.214.163.173-.079.359-.182.14-.415-.036-.612-.013-.353.043-.127-.065-.283.199-.069.115-.214.587-.188.726.08.439.494.386.872.509-.249.24-.541.429-.761.7-.067.082-.066.314-.184.352-.221.071-.666-.217-.845-.326-.258-.154-.524-.525-.826-.56-.456-.051-.6.419-.937.593-.424.219-.931.013-1.395.051-.538.045-1.047.237-1.557.399-1.204.382-2.411.495-3.67.393-2.048-.165-4.147-1.005-5.991-1.89-1.793-.862-2.962-2.489-4.083-4.068-1.23-1.734-2.456-3.408-3.342-5.355-.94-2.068-1.522-4.233-1.873-6.474a25.577 25.577 0 01-.319-3.481c-.017-.848-.627-1.674-1.544-1.713-.55-.023-.935.362-1.454.41-.358.034-.731-.341-1.017-.294-.288.046-.6.732-.756.952-.3.421-.604.837-.904 1.257a48.137 48.137 0 00-1.822 2.737c-.268.437-.249.882-.456 1.32-.19.4-.519.518-.628.979-.112.474-.065.709-.457 1.025-.345.278-.516.249-.634.739-.098.412-.127.889-.15 1.313-.025.45.262 1.155.013 1.554-.172-.337-.32-.968-.799-.955-.248.007-.38.312-.639.34-.248.028-.443-.257-.693-.139-.579.274-.165.853.087 1.096.488.473.646.993.306 1.626-.575-.677-1.133-.211-1.576.334.452.138.983.176.555.718-.092.117-.693.644-.811.626-.214-.032-.106-.297-.37-.352-.165-.035-.421.175-.489.302-.206.381.357 1.179.51 1.553-.395-.2-.679-.797-1.151-.83-.491-.035-.982.539-.955.988.022.363.396.637 0 .901-.507.34-1.284-.227-1.812-.094-.542.137-.598.898-1.007 1.283-.393.37-.505.828-.98 1.096-1.193.675-1.201 2.234-2.058 3.244-.43-.397-.478-.522-1.029-.545-.247-.011-.634-.106-.862.023-.353.2-.221.574-.415.859-.213.316-.545.319-.882.378l-.059.011.285 1.546c-.302-.209-.496-.895-.82-.281-.383-.412-.199-1.092-1.02-.808-.52.179-.911.699-1.328 1.036-1.243 1.001-2.858 1.5-4.401 1.813-.35.071-.978-.001-1.295.135-.261.111-.186.151-.313.369-.088.153.015.398-.239.372-.194-.02-.208-.425-.283-.55-.344-.575-.906-.376-1.47-.233-.71.18-.781.75-1.066 1.396-.348-.369-.628-.79-1.113-.989-.544-.223-1.205-.245-1.773-.392-.611-.158-1.162-.426-1.745-.659-.496-.199-1.058-.287-1.531-.535-.497-.261-.859-.669-1.384-.893-.578-.246-1.157-.481-1.726-.748-1.159-.542-2.286-1.166-3.274-1.986-1.031-.856-1.922-1.879-2.787-2.898-.406-.478-1.404-2.02-.366-2.477.448-.197.828.291 1.093.576.463.499.925.989 1.448 1.427a10.53 10.53 0 003.185 1.854c-.617-1.059-1.648-1.851-2.437-2.777-.818-.96-1.698-1.986-2.761-2.681-.778-.508-1.759-.713-2.379-1.446-.462-.547-1.353-2.107-2.163-1.879-.621.175-1.116.542-1.802.513-.437-.018-.788-.2-1.221-.053-.422.145-.824.483-1.216.702-.519.291-1.017.525-1.442.95-1.578 1.576-2.986 3.743-3.795 5.823-.441 1.131.273 2.032.815 2.99.545.964 1.088 1.912 1.746 2.803 1.475 1.997 2.932 3.978 4.332 6.027 1.327 1.942 2.686 3.867 4.239 5.641.806.92 1.639 1.849 2.536 2.681.744.691 1.629 1.205 2.454 1.79 2.153 1.53 4.308 3.06 6.471 4.576 1.898 1.331 4.027 2.212 6.222 2.927.058-.393.305-.159.596-.197.359-.046.739-.411 1.034-.619.248-.174.493-.458.758-.598.276-.146.394-.004.64-.058.617-.138 1.181-1.509 1.507-1.993a337.54 337.54 0 001.707-2.576c2.215-3.373 4.764-6.97 8.128-9.303 2.998-2.078 6.871-2.297 10.331-1.417 1.324.338 3.62 1.611 4.714.375.257-.29.779-.8.913-1.147.106-.272-.175-.691-.258-1.03-.186-.752-.156-1.544-.052-2.306.228-1.656.806-3.27 1.251-4.876.536-1.932 1.068-3.869 1.435-5.842.351-1.884.836-4.014.721-5.937-.034-.567-.611-1.612.154-1.896.728-.27 1.171.511 1.278 1.093.298 1.617.063 3.53-.125 5.144-.219 1.877-.616 3.728-1.054 5.564a252.03 252.03 0 01-1.401 5.506c-.214.811-.352 1.597-.039 2.399.291.748.813 1.398 1.146 2.131.369.809.674 1.715 1.232 2.42.333.423.878.72.949 1.3.078.634-.561.932.022 1.388.573.448 1.218.809 1.843 1.18 1.564.928 3.255 1.725 4.767 2.729.365.243 1.99 1.697 2.407 1.122-.091.528 2.07 1.469 2.434 1.694 1.406.866 2.807 1.74 4.201 2.624 2.816 1.785 5.672 3.533 8.379 5.48 1.311.944 2.666 1.615 4.084 2.372.754.402 1.476.858 2.217 1.281.717.41 1.073.543 1.861.521.596-.017.92.29 1.352.662a31.903 31.903 0 001.892 1.484c1.342.994 2.732 1.92 4.128 2.837 1.028.675 2.048 1.363 3.02 2.118.82.638 1.618 1.341 2.599 1.723l.413-1.223c.151.306.302.627.332.972.016.187-.135.512-.114.654.05.354.754.834 1.034 1.056 1.032.822 2.075 1.634 3.1 2.464 1.033.836 1.872 1.87 2.885 2.724.464.391.996.871 1.551 1.127.511.236.651.048.961-.378.325.649.295.874 1.017 1.021.575.117.903.306 1.036-.389a33.06 33.06 0 00.532-4.546c.075-1.541.027-3.127-.063-4.668-.043-.73-.101-1.479-.279-2.19-.151-.6-.114-.718.092-1.272.251-.674-.25-.582-.39-1.125-.118-.455.505-.777.315-1.302-.077-.213-.312-.298-.367-.532-.057-.241.113-.437.157-.66.053-.262.105-.328-.038-.563-.106-.174-.317-.025-.318-.264-.002-.407.599-.606.437-1.159-.063-.214-.289-.348-.333-.504-.042-.144.085-.346.001-.538-.131-.301-.304-.397-.357-.733-.042-.265-.049-.475-.143-.736-.206-.572-.37-1.011-.385-1.631-.018-.692.128-1.385-.089-2.059-.142-.439-.457-.859-.458-1.336-.002-.583.595-.92.763-1.476a2.939 2.939 0 00-.114-1.957l-.318 1.043c-.086-.302-.262-.656-.195-.979.05-.247.217-.29.313-.489.213-.438-.03-.252-.2-.645-.088-.203.02-.473.007-.688-.016-.262-.113-.474-.175-.723-.124-.499-.015-.823-.385-1.214-.77-.813-1.784-1.497-2.626-2.245-.471-.419-.956-.827-1.424-1.248-.441-.397-.429-.621-.406-1.21 1.374.504 2.362 1.693 3.453 2.612 1.171.987 2.487 1.82 3.705 2.751 2.381 1.821 4.933 3.488 7.529 4.983 1.277.736 2.575 1.436 3.858 2.162 1.19.673 2.356 1.334 3.69 1.68 1.134.294 2.562.607 3.468-.383.435-.476.275-1.026.56-1.546.146-.266.312-.195.486-.364.245-.239.169-.065.079-.415-.078-.306-.228-.261-.132-.644.064-.257.228-.521.32-.775.195-.54.328-1.068.752-1.467.297-.282.205-.139.287-.47.045-.177-.006-.248.107-.436.219-.363.768-.568 1.095-.814l-.262.146c.031-.475.301-.891.33-1.365.028-.456-.074-.642.187-1.057.217-.345.555-.596.763-.952.231-.398.324-.869.511-1.289.323-.728.977-1.249 1.089-2.053.033-.242-.016-.436.139-.646.06-.081.227-.088.278-.162.19-.278.103-.618.325-.88.199-.236.62-.219.801-.476.218-.308.031-.547-.103-.856-.379-.874.31-1.014.692-1.706.39-.705.511-1.547.771-2.303.149-.432.31-.58.582-.913.241-.294.227-.151.091-.571.819.041.767-1.682.931-2.227.059-.195.171-.633.349-.76.099-.07.436-.012.476-.003l.004.001.089-.078c.185-.169.356-.69.336-.886-.015-.153-.169-.182-.15-.383.016-.177.256-.377.368-.497.584-.624 1.614-1.873 1.248-2.824-1.718 1.77-3.299 3.711-5.121 5.376-1.528 1.396-3.314 2.066-5.35 2.297-1.214.137-2.448.218-3.67.143-1.016-.062-2.04-.229-3.061-.18-.427.02-.679.044-.85.431-.153.344.071.543-.408.549-.639.008-1.073-.656-1.411.127l-.025.059-.024-.086c-.263-.851-1.093-1.25-1.879-1.535l-.078-.028a26.89 26.89 0 01-3.329-1.446c-2.053-1.055-3.932-2.436-5.481-4.151-2.765-3.062-4.583-6.826-6.4-10.488-1.932-3.89-4.146-7.72-6.638-11.282-1.166-1.667-2.521-3.105-4.145-4.336-1.587-1.203-3.389-2.625-5.383-3-1.016-.191-2.049-.347-3.069-.513-.96-.155-1.959-.363-2.642.487zm61.156 30.979l-.686-1.348-12.548 27.965c.71-.165 1.438-.329 2.098-.65.348-.169 1.062-.766 1.47-.617.113.041.082.236.174.264.215.065.293.064.539.02.609-.11 1.166-.46 1.742-.667-.345-.569-.063-1.055.302-1.507.172-.212.445-.642.764-.563.376.093.287.659.791.396.127-.067.103-.291.265-.353.178-.068.271.131.445.097.403-.078.494-.71.903-.716.281-.005.377.375.686.408.46.05.496-.287.525-.618l.007-.076c.05-.534.045-.826.559-1.138.135.482.034 1.151.66 1.028.457-.09.986-.574 1.188.177 2.777-1.367 5.256-3.208 7.558-5.263 2.151-1.919 3.71-4.231 5.275-6.63.712-1.093 1.581-2.192 2.167-3.357.315-.625.142-1.045-.044-1.683-.078-.264-.142-.511-.122-.79.009-.123.149-.378.093-.497-.196-.408-1.002-.179-1.351-.17-.634.017-1.28-.04-1.912-.099-1.347-.124-2.7-.331-3.98-.787-2.663-.949-4.8-2.485-7.094-4.077l-.237.626-.237.625-.686-1.348.686 1.348zm-1.824 20.65c.157.09.118.16-.115.212l.115-.212zm-80.373-1.996c-.057.674-.599.515-1.006.59.19-.439.553-.59 1.006-.59zm.498.295a.118.118 0 01.005.056l-.005-.056zm-65.379-11.782c.132.453.399.891.756 1.204.388.338.818.345 1.248.579.745.405.826 1.345 1.139 2.048a.863.863 0 01-.078.394c-.44-.174-.586-.651-1.058-.785-.207-.059-.347.007-.543-.112-.178-.107-.288-.367-.437-.515-.388-.381-.863-.593-1.186-1.046-.317-.443-.498-.984-.73-1.473.237-.089.326.235.538.214.296-.03.259-.29.351-.508zm62.656-1.089c.091.019.402-.01.439.109.15.483.233.983.34 1.476-.678-.301-.702-.936-.779-1.585zm95.366-1.558c.083.305.179.576-.154.765a.952.952 0 01-.345.006l.499-.771zm-115.651-4.595l.243.929c-.907-.375-.911-.394-.243-.929zm.247-2.355c.187.015.373.039.558.071-.2.213-.473.44-.567.727-.043.131.072.454-.016.562-.272.332-.81-.019-1.113-.126.309-.175.617-.355.818-.653.057-.085.191-.586.32-.581zm-.931-1.734l.019.065c.129.412.462.83.319 1.279-.112.355-.326.474-.613.325-.42-.217-.49-.647-.248-.951.056-.07.195-.036.259-.116.131-.161.157-.352.233-.535l.031-.067zm-41.41-.915c-.083.14-.258.265-.28.438-.016.125.145.232.127.366-.038.284-.093.362-.408.399-.665.077-1.154-.763-.413-1.072.307-.128.65-.093.974-.131zm43.125-.342c.129.196.924 1.309.298 1.124-.176-.053-.546-.5-.636-.674-.029-.057-.168-.162-.158-.243.018-.163.374-.392.496-.207zm2.61-.226l.014.002a.812.812 0 01.078.225c.509.357-.721.981-.934 1.133-.19-.544-.066-.528.307-.844.073-.062.396-.45.515-.509l.02-.007zm-51.705-1.525l.191.192c-.25.043-.097.355-.268.441-.296.149-.415.016-.598-.233l.675-.4zm56.25-10.369l.034.089c-.027-.029-.09.018-.034-.089zm-.206-1.432l.162.03.161.029-.168.884c-.411-.132-.189-.649-.155-.943z" fill="#85A090"/><path fill-rule="evenodd" clip-rule="evenodd" d="M309.048 164.283l-.109.182c.063-.342.098-.402.109-.182zm-137.135 40.543c-.004 0-.007-.002-.009-.006l.009.006z" fill="#000"/><path fill-rule="evenodd" clip-rule="evenodd" d="M94.855 303.238c2.352.144 4.534 1.173 6.807 1.703 2.411.563 4.87.909 7.295 1.414 1.165.242 2.342.487 3.523.645 1.172.158 2.269.453 3.423.703 2.291.496 4.73.857 6.955 1.591 2.181.72 4.517.864 6.781 1.249 2.448.415 4.913.705 7.356 1.145 2.41.435 4.816.888 7.225 1.323 1.154.209 2.286.631 3.459.683a25.22 25.22 0 013.842.463c4.955.978 9.885 2.151 14.803 3.305 1.199.282 2.396.57 3.591.866 1.222.303 2.493.479 3.698.837 2.212.658 4.439 1.323 6.741 1.475 1.152.076 2.211.577 3.328.819 1.175.254 2.388.3 3.578.445 2.395.291 4.816 1.158 7.128 1.832 2.306.672 4.595 1.489 6.926 2.062 2.442.6 4.916 1.057 7.356 1.667 4.738 1.185 9.33 2.928 14.137 3.786.369.066.968.257 1.34.117.39-.146.569-.643.774-.973.599-.965 1.136-1.881 1.264-3.035.116-1.04.097-2.045.794-2.896.203-.248.467-.295.107-.572-.233-.179-1.003-.136-1.296-.185-1.047-.179-1.933-.675-2.961-.925-1.146-.279-2.265-.582-3.376-.982a180.38 180.38 0 00-6.759-2.266 45.38 45.38 0 01-3.303-1.165c-.518-.209-1.034-.457-1.591-.541-.607-.092-1.143-.077-1.74-.27-2.347-.76-4.779-1.303-7.181-1.867-2.279-.536-4.63-1.117-6.95-1.416-1.159-.149-2.22-.426-3.34-.744-1.188-.338-2.427-.429-3.633-.676-2.123-.434-4.502-.521-6.513-1.347-.95-.39-1.845-.398-2.846-.579-1.231-.223-2.458-.456-3.692-.672-1.182-.207-2.352-.479-3.53-.704-1.189-.227-2.511-.238-3.652-.65-2.014-.728-4.269-.71-6.373-1.132-2.473-.497-4.981-.785-7.454-1.288-2.388-.486-4.845-.823-7.203-1.431-1.103-.285-2.126-.612-3.266-.744-1.244-.144-2.463-.421-3.693-.654-2.285-.433-4.609-.538-6.901-.933-4.667-.805-9.189-2.21-13.739-3.501-2.337-.663-4.654-1.31-7.038-1.778-1.12-.22-2.171-.62-3.271-.913-1.224-.326-2.472-.551-3.716-.786a89.358 89.358 0 01-3.369-.69c-.538-.123-1.461-.618-1.984-.49-.486.12-.47.922-.566 1.351-.245 1.089-.594 2.158-.923 3.224a194.85 194.85 0 01-.86 2.738c-.185.573-.34 1.311.488 1.362zm3.465 4.127c1.223.729 2.067 1.946 3.066 2.934 1.117 1.105 2.313 2.14 3.509 3.159a75.795 75.795 0 003.809 3.046c1.212.905 2.493 1.748 3.588 2.797 1.029.986 1.803 2.236 2.938 3.111 1.114.858 2.478 1.267 3.616 2.1.53.389 1.013.848 1.631 1.096.71.285 1.466.499 2.188.76.707.255 1.395.335 2.134.451.801.125 1.369.352 2.194.217-.378-.224-.749-.522-1.164-.67-.354-.126-.667-.064-1.035-.075-.768-.022-1.417-.425-2.184-.464.676-.559 1.707-.186 2.442.041 1.148.355 2.313.649 3.464.991 2.297.684 4.601 1.318 6.93 1.884 4.872 1.183 9.761 2.3 14.649 3.415 2.401.547 4.844.886 7.243 1.431 2.274.517 4.639.706 6.946 1.144 4.864.924 9.732 1.825 14.587 2.793 4.785.953 9.633 1.921 14.322 3.283 2.194.638 4.372 1.415 6.584 1.898 2.286.498 4.478 1.263 6.725 1.892 2.335.653 4.695 1.152 7.005 1.898 2.333.754 4.669 1.466 7.034 2.113.495.135.946.302 1.423.486.591.226 1.103.227 1.717.309.472.062.839.275 1.277.439.513.194 1.027.094 1.503.369.955.552 1.911.68 2.999.899 1.272.256 2.501.644 3.735 1.043 2.269.732 4.574 1.313 6.847 2.019.341.105 3.986 1.578 4.052 1.142.039-.28-.932-.809-1.151-.969a146.281 146.281 0 01-3.006-2.257c-1.797-1.384-3.418-2.948-5.113-4.45-1.757-1.556-3.685-2.894-5.363-4.542-1.602-1.574-2.895-3.417-4.382-5.094-.634-.716-1.13-1.418-1.549-2.276-.455-.933-1.007-1.139-2.032-1.127-2.259.027-4.658-.681-6.804-1.347-2.177-.675-4.439-1.469-6.698-1.797-2.289-.333-4.488-1.035-6.752-1.514-2.395-.506-4.694-1.263-7.035-1.962-2.329-.696-4.711-1.235-7.059-1.866-1.09-.293-2.171-.606-3.255-.92-1.196-.345-2.315-.314-3.536-.461-2.273-.272-4.388-.967-6.616-1.433a16.796 16.796 0 01-3.114-.944c-1.061-.441-2.186-.539-3.304-.775-2.42-.511-4.801-1.246-7.204-1.837-2.295-.564-4.641-1.021-6.958-1.491-1.107-.224-2.222-.31-3.338-.467-1.241-.176-2.443-.561-3.678-.776-4.776-.836-9.538-1.751-14.32-2.55-2.458-.411-4.895-.863-7.267-1.64-1.024-.335-2.097-.347-3.139-.637-1.09-.303-2.153-.751-3.274-.936-.585-.097-1.197-.084-1.763-.277-.384-.131-.714-.385-1.103-.5-1.131-.333-2.406-.353-3.563-.636-2.365-.579-4.775-.927-7.149-1.466-2.3-.523-4.556-1.214-6.83-1.837.183.272.282.654.581.833zm148.002 42.683c1.781 1.358 3.617 2.65 5.343 4.079 1.56 1.29 2.91 2.809 4.24 4.329.45.514.984 1.282 1.518.438.522-.825.773-1.925 1.092-2.842.357-1.025.694-2.059 1.072-3.075.283-.762.81-1.545.256-2.308-.516-.708-1.348-1.318-1.971-1.937-.807-.801-1.612-1.605-2.459-2.364-1.624-1.456-3.342-2.807-5.014-4.207-1.793-1.5-3.549-3.045-5.309-4.585-1.532-1.341-3.004-2.758-4.653-3.958-3.866-2.814-6.982-6.5-10.596-9.609-.599 2.43-1.014 4.92-1.721 7.322-.286.974-.852 1.832-1.113 2.815-.306 1.158.426 1.517 1.283 2.138-.45-.611-.97-.977-.948-1.773.906.207 1.609.908 2.314 1.468a100.81 100.81 0 012.239 1.83c1.641 1.381 3.265 2.782 4.889 4.182 3.152 2.717 6.226 5.533 9.538 8.057zm7.294-15.94c1.553.105 3.049.57 4.606.665.743.046 1.479.201 2.223.224.849.027 1.679-.108 2.531-.062 1.663.092 3.302-.049 4.962-.143 1.649-.094 3.285-.134 4.921-.382.665-.102 1.326-.205 1.994-.288.544-.067 1.395-.085 1.622-.674.211-.55.028-1.465.02-2.047-.008-.526-.037-1.053-.039-1.578-.002-.735.047-1.898.99-2.009.551-.065 1.108.318 1.576.554a30.769 30.769 0 014.441 2.699c.546.408 1.108.96 1.845.866.632-.08 1.182-.52 1.758-.759.818-.34 1.75-.502 2.633-.521l-.336-3.974-.122-1.457c-.044-.512.034-1.187-.095-1.684-.206-.799-1.733-.311-2.4-.258-1.292.101-2.585.194-3.875.313-.612.056-1.885.435-2.417.007-.661-.533-.48-2.513-.526-3.262-.035-.572.166-2.159-.363-2.539-.345-.247-1.071-.054-1.453-.033-.618.034-1.237.052-1.856.039-4.879-.102-9.737-1.188-14.484-2.244-1.055-.235-1.94-.593-2.471.569-.532 1.166-1.014 2.359-1.525 3.535-.395.911-1.123 1.784-.64 2.783.532 1.1 1.194 2.166 1.812 3.22.404.687 1.672 2.396.088 2.539-1.124.102-2.476-.318-3.581-.508-.477-.082-.947-.189-1.311.183-.405.415-.596 1.223-.832 1.743-.606 1.333-1.257 2.645-1.808 4.003.696.188 1.387.431 2.112.48zm23.983-.395l4.092-.67c.346-.057 2.362-.104 2.06-.691-.117-.229-.836-.49-1.045-.622a58.967 58.967 0 00-1.781-1.094c-1.116-.65-2.277-1.238-3.51-1.632l.184 4.709zm11.414-12.806c-.047-.884.01-1.984-.213-2.841-.206-.797-.899-.946-1.642-.87-.922.094-1.822.389-2.748.496-1.148.132-2.305.15-3.459.095 0 1.317-.187 2.78.134 4.071.263 1.061 1.321.669 2.144.615 1.374-.091 2.747-.133 4.117-.285.826-.091 1.723-.242 1.667-1.281zm-29.582-10.215zm2.131-5.954c.134-.392.367-.749.483-1.147.102-.351.089-.698.244-1.035.347-.756.911-1.388 1.217-2.181.347-.893.443-1.963.995-2.767.24-.349.436-.533.569-.937.146-.44.325-.762.522-1.178.311-.655.465-1.267.834-1.914.454-.797.885-1.634 1.262-2.469.172-.38.24-1.415.658-1.645.334-.183.329.162.595-.22.214-.308.202-.49-.187-.637.156-.221.459-.114.644-.305.178-.185.138-.503.204-.731l-.744.232c.722-1.554 1.374-3.139 2.153-4.666.673-1.318 1.125-2.753 2.069-3.889.471-.568.119-1.152.441-1.758.122-.231.338-.395.444-.639.11-.253.065-.613.218-.84.216-.318.395-.115.664-.295.192-.128.292-.363.403-.555.058-.099.291-.428.266-.547-.078-.375-.319-.019-.499-.206.395-.998.828-1.98 1.261-2.962.199-.452.547-2.073 1.26-1.578.392-.949.305-1.735.724-2.681.591-1.338 1.134-2.696 1.699-4.046.274-.655.52-1.329.813-1.976.247-.543.673-.809.992-1.281.293-.434.298-1.185.476-1.735.721-2.233 1.943-4.172 2.951-6.273.63-1.312 1.198-2.648 1.8-3.973.293-.644.628-1.266.936-1.903.121-.251.228-.485.276-.764.027-.16-.04-.487.032-.618.1-.184.376-.655.52-.948.21-.429.654-.682.758-1.125.066-.281-.044-.41.129-.682.213-.333.337-.367.399-.798.095-.651.301-1.05.7-1.58.383-.506.59-.986.836-1.564.185-.435.716-1.071.533-1.562-.154-.414-.634-.471-1.009-.563a22 22 0 01-1.913-.556c-1.334-.458-2.501-1.131-3.667-1.916-1.067-.718-2.171-1.631-3.334-2.177-1.031-.483-2.105-1.516-3.097-2.253-1.165-.866-2.375-2.028-3.748-2.547 1.404 3.168 1.915 6.517 2.222 9.951.321 3.578.332 7.074.249 10.659-.08 3.478.036 6.95-.538 10.403-.275 1.658-.695 3.275-.912 4.944-.1.777-.397 2.927-1.434 3.06-.652.084-1.065-.555-1.613.105-.397.477-.452 1.124-.64 1.684-.205.609-.853.921-.743 1.596.055.335.225.433-.021.738-.142.175-.503.41-.684.615-.002-.109.068-.383.001-.471-.089-.12-.271-.01-.383-.115.114.106.265.043.343.153.179.252-.076.734-.167.968a6.314 6.314 0 01-.896 1.561c-.354.468-.662 1.074-1.076 1.488-.412.41-.921.562-1.289 1.051-.319.423-.533.902-.991 1.198-.519.334-.787.622-1.156 1.111-.811 1.073-2.315 1.707-3.454 2.386-1.219.729-2.609 1.338-4.058 1.237-.219-.015-.455-.069-.673-.027-.377.072-.317.223-.554.403-.352.268-.752.243-1.206.277-1.482.111-3.025.136-4.493.343-.724.103-2.862.784-3.147-.239-.999.717-1.947.32-3.047.072-1.088-.245-2.419.063-3.391-.578-.504-.332-.569-.448-1.207-.477-.536-.025-1.079-.012-1.578-.239-.489-.223-.718-.402-1.266-.49-.637-.104-1.146-.383-1.735-.633-1.162 3.811-3.112 7.242-3.532 11.264-.212 2.034-.071 3.951.273 5.961.149.867.267 1.679.747 2.435.494.78 1.183 1.468 1.862 2.089 1.326 1.212 2.848 2.18 4.409 3.059 1.644.925 3.311 1.857 5.055 2.579 1.778.736 3.525 1.495 5.272 2.3 1.867.861 3.681 1.278 5.697 1.61.508.084 1.009.185 1.503.327.393.112 1.011.403 1.412.154.484-.299.689-1.411.901-1.923.369-.885.648-1.889 1.194-2.685.188-.274.285-.439.394-.742.12-.334.158-.651.568-.772.072.322.275.901-.181 1.048.352-.114.339-.337.181-1.048zm2.966-5.067zM271 284.289l.141-.217c-.174-.07-.202-.017-.307.121l.166.096zm11.847-26.722c.173-.206.159-.153.045-.314-.204.088-.219.192-.045.314zm-.126.407c.08-.05.08-.1-.002-.148-.086.05-.085.099.002.148zm.164 1.041zm1.18-3.076l.064.398c-.043-.262-.087-.514-.047-.781-.046.307.04.32-.189.573l.172-.19zm-10.414 3.981l-.07-.157.07.157zm-15.134 19.127l-.037-.189.037.189zm-7.388 1.487c0 .124-.013.252-.019.376l.019-.376zm2.373.46c-.012-.012-.024-.024-.039-.035a.333.333 0 01.039.035zm-6.011.059c.203.079.364.252.54.373-.03-.105-.439-.334-.54-.373zm-65.145 17.781c.356-.16.789-.506.5-.931.421-.065.417-.485.533-.805.194-.534.534-.984.814-1.473-1.048-.471-2.211-.568-3.328-.776l1.481 3.985zm.888 1.307c-.31-.426-.595-.869-.888-1.307.1.398.651.982.888 1.307zm11.507-24.495l-.108-.092c.101.008.137.038.106.092h.002zm2.407-5.365c.063-.014.113-.069.143-.159-.03.09-.08.145-.143.159zm.951-2.066zm1.022-1.247zm-.408-.832c.151-.017.377-.042.523.03-.097-.048-.267-.052-.523-.03zm-2.594 4.288c.11-.045.109-.184.186-.247.093-.076.236-.067.299-.12.223-.191.165-.083.194-.455.037-.466.319-.729.418-1.107.124-.473-.054-.712.328-1.097.461-.463 1.057-.865 1.216-1.549.072-.312-.032-.583-.032-.89 0-.225.224-.677.127-.878-.171-.355-1.224-.395-1.589-.48-1.727-.399-3.455-.795-5.183-1.192 1.099 2.781 2.281 5.574 4.036 8.015zm-.642 4.059a16.923 16.923 0 00.126-.169l-.126.169zm3.248 32.016c-.07-.879-.394-1.711-.583-2.566-.212-.961-.289-1.942-.287-2.925.004-1.872.199-3.748.307-5.616.224-3.856.851-7.681 1.426-11.496.55-3.642 1.271-7.232 2.934-10.549.752-1.5 1.72-3.008 2.132-4.649.091-.366.078-.778.201-1.132.135-.39.404-.578.644-.889.562-.726.891-1.704 1.293-2.528.372-.759.678-1.567 1.111-2.295.173-.291.361-.547.613-.774.18-.161.561-.312.669-.532.22-.447-.375-.794-.674-1.126-.717-.794-1.366-1.663-2.045-2.49-.508 2.644-1.022 5.231-2.049 7.732a111.182 111.182 0 01-3.222 7.139 597.888 597.888 0 00-6.634 13.765c-.503 1.081-1.096 2.062-1.673 3.1-.646 1.16-1.185 2.383-1.807 3.557-1.186 2.238-2.173 4.579-3.387 6.798-1.204 2.204-2.679 4.219-4.018 6.338-.345.546-1.607 1.977-1.405 2.666.092.311.382.307.651.357.71.133 1.438.176 2.149.304 1.386.249 2.727.663 4.125.888 1.209.195 2.438.277 3.604.677.687.235 1.318.254 2.028.369.666.108 1.312.329 1.964.493 1.444.36 2.92.569 4.379.855-1.047-1.701-2.285-3.416-2.446-5.471zm3.047-22.85l-.938 5.667c1.63-.625 3.366-1.085 4.818-2.091-1.097-1.389-2.543-2.436-3.88-3.576zm5.434-15.199c-.644.231-.483.506-.194 1.074.292.576.561 1.136.792 1.744.606 1.591 1.126 3.218 1.664 4.833.507 1.522 1.021 3.044 1.501 4.575.058.187.193.982.478.963.324-.022.625-1.424.719-1.686a38.916 38.916 0 012.004-4.6c.234-.455.783-1.11.725-1.66-.055-.527-.612-.782-1.007-1.029-1.405-.878-2.812-1.752-4.209-2.643-.481-.308-.94-.623-1.387-.977-.226-.179-.752-.714-1.086-.594zm22.624 26.766zm.009-.222zm27.001 21.951zm-.473 6.013c-.313.675-.611 1.363-.95 2.026-.19.373-.666.983-.408 1.415.236.394.885.324 1.274.361.733.07 1.466.177 2.197.268l-2.113-4.07zm.355-5.94c-.075.113-.011.315-.071.428.06-.112-.004-.315.071-.428zm-3.969 8.68c.171-.171-.021-.608-.009-.809.027-.473.141-.324.451-.555.602-.45-.334-.788.025-1.406.064-.11.256-.13.305-.243.042-.097.015-.21.05-.303.101-.265.186-.574.291-.852.165-.441.395-1.434 1.057-1.3l-1.811-3.768c-1.362 3.48-2.859 6.959-5.102 9.976 1.569 0 3.146.082 4.709-.104-.299-.205.035-.392.034-.636zm-3.659 7.565c.126.054.24.016.356-.084-.116.1-.229.138-.356.084zm-17.214-10.678a95.361 95.361 0 015.301 4.12c.741-2.087.806-4.323.899-6.512-1.959 1.062-4.186 1.46-6.2 2.392zm-14.85-6.771c.542.061.986-.24 1.463-.434.562-.229 1.152-.303 1.746-.401 1.26-.208 2.517-.431 3.776-.64l-5.523-7.043c.005 2.906-.926 5.69-1.462 8.518zm-7.485-8.316a486.05 486.05 0 01-1.062 2.025c-.23.436-.451 1.228-.804 1.572-.429.42-.91.049-.802-.482.116-.576.629-1.24.908-1.743.295-.531.728-.812.158-1.159-.468-.285-1.113-.458-1.637-.601-1.543-.423-3.16-.415-4.746-.358.575 1.304 1.304 2.56 2.09 3.748a8.18 8.18 0 001.153 1.392c.343.331.468.767.797 1.092.377.373.946.48 1.442.601.588.143 1.106.358 1.673.565.605.221 1.312.141 1.871.399.524.242.954.439 1.536.569 1.154.26 2.18.932 3.33 1.144.557.103.551-.008.719-.553.144-.467.202-.945.287-1.425.512-2.924.942-5.861 1.451-8.786 1.318 1.516 2.494 3.15 3.815 4.663.663.758 1.376 1.468 2.054 2.211.414.453 1.279 1.154 1.281 1.831.003.974-1.585 1.219-2.298 1.335-1.852.304-3.751.365-5.458 1.233.522.58 1.346.703 2.046.951.949.337 1.878.736 2.815 1.104.473.185.945.414 1.432.56.515.154 1.05.105 1.563.245.399.109.724.372 1.107.518.437.166.86.165 1.319.223.979.125 1.859.494 2.765.861.898.364 1.649.272 2.546-.043 1.921-.675 3.908-1.206 5.78-2.012.255 1.916.349 4.084-.177 5.966-.19.681-.783 1.564-.321 2.242.373.549 1.279.948 1.802 1.34 1.592 1.195 3.164 2.482 4.95 3.381a8.894 8.894 0 002.745.869c.326.048 1.021.245 1.283.092.057-.034.029-.213.092-.251.223-.133.293-.141.559-.179-.509-.661.289-.659.588-1.086-1.122-.899.761-1.832 1.041-2.601-.676.07-.461-.412-.223-.81.348-.578.887-.564 1.524-.707-.479.107-.939.28-1.434.295-.477.014-.956-.101-1.428-.158-.554-.067-2.117.099-2.423-.451-.315-.565.506-1.504.785-1.955.581-.94 1.234-1.827 1.754-2.804.988-1.858 1.83-3.825 2.61-5.777.375-.939.85-1.37 1.493-.323.474.772.626 1.722 1.234 2.415.413-.459.461-.833.659-1.401.219-.632.625-1.159.894-1.762.586-1.31-1.006-.99-1.818-1.081-1.342-.15-2.545-.732-3.805-1.174a50.762 50.762 0 01-3.966-1.564c-2.589-1.16-5.236-2.216-7.646-3.73-2.212-1.389-4.583-2.652-6.388-4.579a10.094 10.094 0 01-2.193-3.594c-.256-.733-.43-1.482-.639-2.228-.181-.647-.486-1.326-.43-2.011l-.007.112c-.816-.581-.554-1.558-.538-2.404.003-.15.066-.356-.014-.499-.102-.18-.297-.003-.382-.245-.088-.246.275-.676.342-.909l-.344.173c-.124-.744-.319-1.472-.295-2.231.023-.756.204-1.519.361-2.255a34.41 34.41 0 01.491-2.053c.038-.137-.007-.342.128-.438.226-.161.513.068.562.294-.048-.221-.155-.292-.154-.534 0-.246.102-.522.144-.764.113-.658.233-1.313.364-1.967.115-.575.216-1.162.367-1.728.051-.191.158-.395.169-.594.017-.294-.058-.25-.152-.466-.024-.055-.147-.121-.18-.194-.06-.129.056-.328-.009-.461-.083-.17-.212-.218-.378-.278-.535-.196-.73-.051-1.161-.502-.351-.367-.818-.5-1.253-.77-.52-.324-.953-.517-1.421-.946-.492-.451-1.054-.849-1.496-1.351-.303-.344-.396-.954-.787-1.202-.238-.151-.549-.143-.8-.301-.254-.161-.48-.403-.724-.58-.607-.442-1.248-.834-1.865-1.26-2.472-1.708-4.875-3.595-6.991-5.731-1.067-1.078-2.069-2.22-3.083-3.347-.106-.118-.732-1.014-.971-.968-.264.05-.481 1.182-.598 1.423-.588 1.209-1.127 2.396-1.581 3.665-.176.494-.392.786-.011 1.143.468.439 1.238.723 1.795 1.049 1.333.78 2.669 1.557 3.995 2.352.706.423 2.419 1.063 2.664 1.939.315 1.12-.973 2.682-1.443 3.611-.654 1.294-1.133 2.643-1.613 4.007-.201.572-.853 3.031-1.772 2.809-.469-.113-.651-.694-.802-1.087a92.649 92.649 0 01-.738-1.986c-1.166-3.25-2.211-6.542-3.498-9.748-1.053 1.888-1.898 3.892-2.787 5.861a12.121 12.121 0 00-.86 2.63c-.179.891-.518 1.997-.471 2.912.093 1.82 7.517 4.537 4.133 6.732-1.478.959-3.403 1.117-4.9 2.021-.792.479-.767 1.278-.74 2.105.033 1.034-.046 2.074-.104 3.106-.124 2.24-.51 4.644-.039 6.856.155.729.199 1.677.46 2.368.351.928 1.763.587 2.557.568.786-.018 7.04.356 6.177 2.009zm-28.553-3.045c-.29-.179-.301-.11-.08.157l.08-.157zm-2.067 2.976c.154.213.458.223.603.181-.145.042-.449.032-.603-.181zm86.921-50.655c-2.072-1.877-4.614-3.231-6.805-4.976-2.374-1.89-4.85-3.642-7.327-5.394-4.933-3.487-9.764-7.092-14.769-10.478-4.952-3.351-10.103-6.369-15.327-9.273-2.404-1.336-4.641-2.981-7.13-4.153-1.305-.615-2.597-1.253-3.917-1.837-.639-.282-1.011-.388-1.493.187-.341.409-.577.904-.879 1.342-.889 1.289-1.802 2.55-2.911 3.661-.485.486-2.118 2.146-2.878 1.438-.303-.282-.347-.863-.464-1.244-.243-.79-.523-1.573-.796-2.354-.557-1.59-1.2-3.147-1.814-4.716-1.284.646-2.619 1.175-3.736 2.104a34.92 34.92 0 00-3.012 2.846c-.378.397-.48.409-.278.893.092.222.239.317.115.58-.099.213-.422.233-.416.532.005.293.516.745.736.895.595.408 1.366.661 2.016.974.723.348 2.643.873 2.868 1.772.162.648-.456 1.049-.903 1.392-.6.46-1.212.906-1.798 1.384a18.768 18.768 0 00-3.137 3.273c-.838 1.117-1.403 2.396-2.203 3.528-.264.376-.861 1.209-1.372.759-.419-.369-.445-1.496-.556-2.006-.37-1.694-.781-3.416-1.376-5.046-1.545 2.505-2.642 5.161-3.817 7.852-1.222 2.801-2.525 5.564-3.712 8.38-.295.698-1.306 2.041-.734 2.753.275.342.774.531 1.134.77.598.398 1.169.846 1.745 1.275 1.121.834 2.582 1.66 3.469 2.751.815 1.003-.313 1.932-1.123 2.457-1.226.794-2.684 1.103-4.05 1.564-1.498.504-2.952 1.233-4.535 1.442.049-.675.048-1.293.703-1.656.752-.417 1.679-.568 2.493-.825 1.859-.587 3.688-1.29 5.502-1.999-1.921-1.777-3.96-3.423-6.052-4.995-1.99 4.462-2.688 9.345-4.66 13.798-1.972 4.456-3.907 8.996-4.859 13.803l.632-.486c1.819 2.512 2.281 5.777 4.323 8.151.321-1.526 1.197-2.778 1.948-4.112.35-.621 1.137-1.927.617-2.628-.327-.441-1.254-.48-1.746-.6-.829-.202-1.619-.535-2.405-.862-.547-.226-1.209-.368-1.717-.668-.403-.237-.796-.817-.085-.816.612.001 1.34.418 1.915.602.838.27 1.682.52 2.534.74.549.142 1.152.155 1.688.33.709.231.779.765.716 1.449-.138 1.508-.826 2.792-1.6 4.062-.399.656-.79 1.304-1.02 2.042-.152.485-.228 1.135-.706 1.429-1.115.685-2.12-2.15-2.449-2.815-.934-1.877-1.811-3.782-2.712-5.675-.45.379-.555 1.004-.726 1.533-.19.589-.397 1.174-.595 1.76-.23.683-.433 1.384-.699 2.054-.174.437-.508.916-.446 1.404.073.583.669 1.09 1.014 1.53.377.479.719.985 1.072 1.481.807 1.135 1.642 2.251 2.412 3.411.774 1.167 1.414 2.413 2.172 3.589.724 1.122 1.517 2.199 2.292 3.286.739 1.037 1.299 2.141 1.985 3.204.803 1.243 1.757 2.396 2.637 3.584 0-.106.345-.314.418-.411.156-.208.034-.342.336-.396.293-.051.312.309.624.012.188-.179.168-.506.095-.68-.097-.228-.281-.153-.258-.457.008-.107.189-.197.227-.293.062-.158.013-.347.051-.509.146-.622.774-1.021 1.158-.387l.13-.438-.365.03c.089-.532-.019-1.06.172-1.527.173-.418.357-.679.231-1.125-.136-.48-.475-1.132-.689-1.661a42.408 42.408 0 01-.762-2.089c-.338-.983-1.054-2.461-.383-3.446.332-.488.738-.456 1.264-.331.74.176 1.484.382 2.213.602.478.144 1.065.388 1.551.135.508-.266.731-1.071.933-1.555.311-.747.603-1.488 1-2.195.335-.595.562-1.276 1.007-1.792.358-.416.707-.844.807-1.402.033-.19-.047-.427.053-.604.112-.198.358-.232.48-.472.286-.562.058-1.163.727-1.556.257-.152 1.243-.427.398-.673.375-.988.829-1.943 1.277-2.899.224-.478.449-.955.661-1.439.101-.229.173-.546.305-.755.103-.164.25-.218.345-.354.225-.322.157-.517.25-.886.1-.397.42-.722.648-1.049.623-.892.85-1.94 1.161-2.965.136-.449.38-.961.435-1.429.049-.427-.082-.511-.333-.914a40.36 40.36 0 01-1.697-2.979c-.438-.858-.791-1.752-1.21-2.618-.357-.74-.816-1.447-1.034-2.247-.188-.69-.158-1.449.39-1.973.729-.698 1.799-.228 2.631-.004 1.057.283 2.115.568 3.172.853.513.139 1.906.853 2.365.368.186-.198.139-.529.166-.776.039-.366.142-.653.302-.987.177-.368.409-.707.522-1.104.102-.357.046-.686.306-.967.246-.265.288-.126.308-.534.02-.379-.061-.611.132-.991.176-.345.445-.638.595-.998.117-.28.079-.495.124-.793.119-.78.977-1.578.827-2.371-.137-.724-.973-1.087-1.069-1.879-.244-2.001 2.105-.658 2.828-.113.228.173.487.513.81.43.251-.063.32-.43.55-.504.635-.202.338 1.058.507 1.438.385.869 1.315 1.544 1.934 2.246.762.864 1.445 1.794 2.184 2.677.234.28.952 1.414 1.396 1.485.724.115-.239-1.054-.358-1.236-.531-.812-.86-1.784-1.227-2.676-.418-1.02-.897-2.007-1.39-2.993-.472-.943-.95-1.885-1.359-2.857-.258-.613-.882-1.609-.761-2.299.135-.761.945-.711 1.557-.639 1.016.121 2.031.29 3.042.449 2.538.401 5.118.591 7.632 1.119.452.095 2.75.402 2.471 1.03-.211.474-2.062-.093-2.397-.141a82.22 82.22 0 00-3.7-.446c-1.311-.127-2.618-.251-3.916-.484-1.276-.228-2.536-.668-3.835-.743.687 2.266 2.024 4.357 2.958 6.532.46 1.073.951 2.128 1.441 3.188.228.492.477 1.496 1.079 1.653.676.176 1.326-.782 1.685-1.227.704-.874 1.288-1.826 1.85-2.795.316-.545 3.002-5.6 3.565-5.25.209.13-3.704 6.725-4.127 7.334-.633.912-1.575 2.5-2.71 2.841-.221.067-.852-.018-.887.259-.033.269.728.537.896.64 1.121.688 2.034 1.743 2.986 2.637 1.085 1.02 2.281 1.888 3.483 2.761.453.329.908.652 1.329 1.022.335.297.735.778 1.182.898.418.112.516-.086.722-.424.393-.646.801-1.284 1.199-1.926 1.562-2.519 3.255-4.849 5.43-6.884.266-.247.666-.614.896-.176.301.573-.319.772-.659 1.001-1.12.756-2.024 2.116-2.826 3.182-.93 1.238-1.767 2.535-2.593 3.843-.395.627-1.503 1.622-.47 2.118 1.105.531 2.53.548 3.705.914 1.404.437 2.733 1.078 4.139 1.516 1.204.375 2.433.614 3.648.937.304.081.958.216 1.073.576.132.419-.273.477-.582.487-1.067.038-2.345-.291-3.362-.55a35.35 35.35 0 01-2.43-.73c-.524-.175-.928-.531-1.228.052.886.388 1.689.836 2.593 1.165.319.116.498.368.783.544.398.247.9.338 1.335.506.937.364 1.809.861 2.768 1.173 1.014.331 2.066.529 3.086.842.792.242 1.41.711 2.261.747.45.019.908-.037 1.356.032.406.063.748.303 1.145.362.284.042.7-.006.979-.03.129-.01.221.02.357.007.1-.01.216-.166.333-.184.4-.062.917.154 1.333.152.443-.002.888-.051 1.328-.09.829-.073 1.743-.124 2.463-.573.677-.423 1.362-.224 2.108-.533.806-.334 1.561-.059 2.35-.314.326-.105.462.008.793-.013.404-.026.867-.529 1.233-.705 1.771-.851 3.386-1.782 4.783-3.191.588-.593 1.026-1.313 1.791-1.674.727-.343.918-1.065 1.451-1.65.495-.545 2.528-2.233 1.887-2.998-.214-.257-.751-.348-1.051-.465-.484-.189-.957-.407-1.436-.608a38.39 38.39 0 00-3.325-1.214c.393 1.158.739 2.343 1.2 3.476.136.334.431.764.399 1.143-.039.466-.469.595-.699.953-.366-.961-.708-1.931-1.088-2.886-.312-.789-.783-1.678-.727-2.552.137-2.157 2.462-.743 3.53-.282.844.366 1.692.727 2.537 1.092.483.209 1.195.635 1.732.387.682-.315.663-1.294.491-1.895-.28-.977-.161-1.275.655-1.893-1.363-1.172-2.75-2.317-4.084-3.525zm-53.919-40.98c-.184.479-.961 1.785-.618 2.216.187.235.988.428 1.269.552l1.606.713-2.257-3.481zm-11.51 3.042a79.273 79.273 0 011.635 4.737c.177.565.497 2.841 1.346 2.721.451-.064.906-.665 1.22-.957.52-.482.998-.987 1.454-1.532.968-1.156 2.01-2.31 2.701-3.663-2.637-1.109-5.538-1.208-8.356-1.306zm-9.624 6.983l.19-.19-.19.19zm-.81 1.55c-.587.922-1.156 1.86-1.747 2.781.383-.596.753-1.201 1.138-1.795.367-.568.33-.66.988-.439-.3.772-.434 1.549-1.205 1.993-.897.516-1.703.701-1.955 1.866-.23 1.068.318 2.153.604 3.154.369 1.289.614 2.616.933 3.918.741-.311 1.028-1.2 1.348-1.864a14.826 14.826 0 011.647-2.629c1.362-1.749 3.148-3.105 4.856-4.494-1.303-.669-2.608-1.335-3.911-2.007-.802-.414-2.042-1.512-2.696-.484zm-27.412 76.108c-1.565-2.605-3.052-5.265-4.716-7.81-.805-1.231-1.699-2.401-2.581-3.578-.727-.97-1.366-2.103-2.237-2.948-.938-.909-1.772-1.933-2.648-2.902-.409-.452-.736-.969-1.177-1.391-.496-.473-1.058-.875-1.566-1.336-1.021-.926-1.923-1.98-2.97-2.877-1.048-.897-2.191-1.733-3.322-2.523-.873-.611-2.037-1.627-3.155-1.627-1.188-.001-1.031 1.413-1.05 2.281-.03 1.43.19 2.857.37 4.271.185 1.454.406 2.898.806 4.311.762 2.696 1.572 5.5 2.619 8.099.524 1.302 1.197 2.533 1.769 3.813.381.852.65 1.944 1.495 2.468.574.355 1.357.389 2.009.505.844.15 1.69.285 2.532.438 1.56.283 3.141.419 4.699.706 1.639.302 3.244.524 4.902.704.868.094 1.701.297 2.558.459.784.149 1.607.113 2.373.353-.235-.473-.438-.963-.71-1.416zm12.059 3.054c-.305-.197-.32-.536-.435-.841-.128-.336-.347-.581-.522-.887-.348-.607-.376-1.194-.842-1.728-1.055-1.21-1.417-2.963-2.223-4.336a485.477 485.477 0 01-5.753-10.038c-.607 1.227-1.195 2.465-1.827 3.679-.512.984-1.428 2.1-1.643 3.199-.182.926.92 2.072 1.344 2.833.629 1.128 1.265 2.27 1.761 3.465.412.991.631 2.143 1.267 3.027.634.879 1.68.737 2.642.86 1.257.161 2.493.451 3.737.682.569.106 1.104.223 1.649.418.266.095 1.304.39.845-.333zm6.913-70.773c-3.005.192-5.306-1.1-7.845-2.49-1.289-.705-2.474-1.557-3.709-2.348-1.224-.785-2.493-1.536-3.65-2.42-.508-.388-.909-.885-1.396-1.295-.461-.388-1.013-.647-1.444-1.071-.836-.824-1.757-1.795-2.374-2.791-1.505-2.429-3.339-4.639-5.1-6.882-.986-1.253-1.795-2.63-2.66-3.966-.896-1.386-1.808-2.764-2.606-4.211-5.467 11.617-11.042 23.182-16.553 34.777-2.817 5.927-5.631 11.854-8.443 17.782-1.347 2.84-2.78 5.635-4.199 8.44-1.386 2.737-2.572 5.606-3.841 8.401-.696 1.534-1.617 2.945-2.278 4.499a47.644 47.644 0 01-2.217 4.479c-.797 1.433-1.449 2.937-2.251 4.362-.784 1.395-1.217 2.973-2.113 4.308 2.587.531 5.186.999 7.754 1.615 1.275.307 2.572.506 3.845.815 1.255.306 2.45.824 3.729 1.028 2.644.42 5.295.87 7.949 1.224 1.332.177 2.674.217 4.009.354 1.385.143 2.735.479 4.105.719-.076-.922-.591-1.752-.949-2.586a33.1 33.1 0 01-1.126-2.963c-.638-2.002-1.158-4.081-1.691-6.114-1.033-3.938-2.057-8.413-1.141-12.478.305-1.355 1.037-2.801 2.357-3.413 1.718-.797 3.371.475 4.771 1.369 1.788 1.142 3.418 2.52 4.997 3.93.762.681 1.502 1.359 2.163 2.141.638.754 1.405 1.278 2.072 1.988 3.195 3.401 5.967 7.175 8.385 11.16.43-1.099.77-2.197 1.405-3.203a32.855 32.855 0 011.571-2.223c.368-.488.915-1.118.621-1.753-.305-.656-1.284-.968-1.095-1.832l1.187.694c1.162-3.707 2.566-7.321 3.727-11.026.575-1.834 1.126-3.676 1.738-5.498.568-1.69 1.41-3.258 2.144-4.877 1.511-3.332 2.013-6.991 3.296-10.401.26-.691.649-1.325.904-2.015.114-.309.211-.537.057-.828-.094-.176-.421-.271-.46-.471-.096-.489.763-.288 1.045-.551.227-.211.318-.653.438-.933.22-.512.428-1.028.641-1.542a261.16 261.16 0 015.401-12.062c-.39.054-.777.132-1.17.158zm-28.996-38.695c.175-.264.166-.668.401-.894.237-.228.511-.167.722-.427a5.14 5.14 0 00.408-.748c.019-.058-.037-.273.003-.4.071-.234.288-.343.405-.54.506-.848-.344-1.108-.536-1.895-.112-.459-.06-.749-.429-1.098-.281-.266-.731-.563-1.067-.766-.24-.145-.251-.104-.497-.181-.112-.035-.168.032-.304-.022-.261-.104-.508-.466-.695-.66-.551-.571-.86-1.005-.667-1.815.094-.392.253-1.083.764-.996.282.048.641.554.84.745.383.367.763.809 1.206 1.107.31.209.69.186.986.368.373.23.332.607.507.967.365.746 1.381 1.344 2.009 1.856.637.521 1.293 1.032 2.031 1.406.661.335 1.8.82 2.556.58 1.293-.409-.831-3.393-1.288-3.959-.927-1.149-3.107-2.081-2.806-3.818.137-.787.611-1.325 1.424-.98 1.009.427 1.899 1.237 2.889 1.734 1.034.518 2.105.963 3.167 1.42.581.251 1.167.493 1.745.751.444.197.912.487 1.415.323-1.57-2.17-3.141-4.352-4.924-6.356-.838-.943-1.797-1.739-2.778-2.527-.734-.591-1.565-1.205-1.514-2.249.038-.794.482-1.854 1.423-1.672.605.116 1.122.642 1.69.869.488.195.863.377 1.315.64.503.293 1.148.336 1.701.479.606.157 1.204.348 1.816.481 1.307.284 2.631.205 3.957.205-1.109-1.908-2.867-3.286-4.536-4.677-.941-.784-1.813-1.646-2.761-2.421-.937-.766-1.952-1.429-2.884-2.2l-.21.81c-.439-.209-.553-.778-.982-1.022-.528-.3-1.176-.175-1.734-.044-1.214.287-2.292.875-3.229 1.691-1.931 1.678-3.339 3.852-4.46 6.132a36.146 36.146 0 00-1.58 3.737c-.222.619-.431 1.266-.44 1.93-.01.731.317 1.358.498 2.049.345 1.319.426 2.724.608 4.072.193 1.433.299 2.867.421 4.306.064.763.159 1.52.28 2.276.037.232.035.557.143.765.099.191.358.266.449.455.103.216.023.207-.045.489-.087.364-.037.632.067.993.227.788.464 1.571.679 2.363.6-.248 1.354-.873 1.588-1.504.127-.344.007-.549-.043-.888-.068-.462.039-.853.296-1.24zm16.343-33.145zm6.026-13.416zm.027.538c.052-.143-.123-.375-.047-.51-.024.043.06.51.047.51zm-35.779 78.053l-.259.383.259-.383zm-1.238.051zm-.743 1.235l-.046-.08c.036.123.093.112.173-.032l-.127.112zm-.552.845zm161.744 1.357c.303-.148.733-.595 1.09-.597.156-.001.493.103.305.289-.089.089.618 0 .628-.002.421-.105.835-.265 1.244-.405.724-.249 1.442-.515 2.164-.769 1.449-.511 2.805-1.206 4.216-1.806 2.727-1.158 5.04-2.761 7.355-4.593 4.748-3.757 7.767-9.248 10.56-14.503-2.84.251-5.787.371-8.536-.516-2.861-.922-5.147-2.559-7.581-4.248l-.474 1.25-.687-1.348-12.547 27.965c.771-.179 1.548-.369 2.263-.717zm27.577-14.286c-.756.342-.937.678-.941 1.587.004-.908.185-1.245.941-1.587zm-.528-36.99zm2.931 6.425c-.096-.353-.194-.706-.291-1.058-.054.689-.442.936.396 1.25l-.105-.192zm-.634.774c.075.119.101.09.077-.087l-.077.087zm-3.805-9.447c-1.716-2.185-3.38-4.409-5.273-6.448-1.497-1.613-3.206-3.414-5.478-3.808.188 2.081 1.621 3.764 2.757 5.418.635.925 1.258 1.818 2.003 2.659.673.761 1.048 1.607.604 2.597-.266.593-.837 1.435-1.577 1.334-.44-.06-.846-.49-1.19-.739-.492-.357-1.011-.675-1.52-1.006-.957-.625-1.917-1.24-2.893-1.835-.876-.534-1.799-1.349-2.865-1.427.391 1.041.934 2.013 1.451 2.995.528 1.001 1.005 2.046 1.687 2.956.667.89 1.513 1.466 2.349 2.171.714.603.66 1.457.269 2.252-.457.928-1.134 1.448-1.959.676-.891-.834-1.74-1.557-2.746-2.252-.846-.583-1.655-.939-2.6-1.344-.376-.162-1.14-.69-1.568-.465-.588.31-.082 1.822.034 2.313a13.004 13.004 0 001.275 3.294c.978 1.763 2.017 3.593 3.692 4.769 1.366.958 4.541 1.975 3.499 4.128-.455.94-.967 1.859-1.449 2.787-.299.576-1.346 1.849-.966 2.538.255.464 1.116.786 1.554 1.049.596.358 1.196.708 1.805 1.043 1.119.615 2.266 1.185 3.456 1.651 2.418.946 5.077 1.063 7.468 2.083a9.228 9.228 0 00-.429-.163c.416-.072.585-.726.731-1.055.071-.161.224-.379.258-.548.039-.198-.099-.336-.086-.448.027-.25.152-.202.245-.365.16-.283.09-.236.133-.544.032-.219.14-.379.193-.589.095-.376-.033-.742-.099-1.111 1.022.085-.347-1.116-.223-1.472.118-.337.507-.403.562-.816.059-.437.002-.909.061-1.361.06-.459.159-.937.063-1.396-.085-.406-.319-.688-.028-1.073.179-.236.522-.302.684-.56.249-.396.034-.822-.376-.994.35-.201.596-.512.566-.934-.028-.39-.216-.411-.436-.681-.697-.86.763-.872.565-1.779-.093-.431-.486-.768-.631-1.185-.155-.441-.222-1.004-.245-1.468-.017-.363.177-.595.204-.907.029-.353-.225-.478-.282-.789-.064-.347.232-.706.154-1.058-.079-.355-.43-.506-.535-.875-.119-.424.096-.721.08-1.112-.022-.581-.27-.238-.572-.478-.198-.157-.091-.331-.137-.546-.059-.275-.131-.375-.302-.599-.226-.295-.493-.551-.657-.889-.193-.399-.246-.831-.452-1.217-.29-.545-.241-.719.031-1.259.157.365.511.616.623 1.005-.213-.741-1.014-1.527-1.482-2.123zm7.367 18.432c.131-.115-.074-.155-.131-.059l.131.059zm-40.16-25.968zm2.854-34.767zm-.092-.06zm-.316-.068c.089.023.181.033.269.055-.087-.022-.188-.024-.269-.055zm6.491 34.046zm-63.813 5.882c-.113-2.072-.084-4.229-.845-6.194-.237-.612-.508-1.55-1.195-1.794-.953-.337-2.412.101-3.403.162-2.052.128-4.094-.102-6.104-.51-1.076-.218-2.075-.696-3.112-1.039-1.049-.348-2.072-.728-3.05-1.249-.406 1.207-1.172 2.295-2.067 3.191-.795.794-1.925 1.467-1.183 2.68.665 1.089.982 2.247 1.514 3.395.599 1.293 1.546 2.395 2.403 3.519a3.59 3.59 0 00.123-1.102c.592.129 1.505.872 1.805.039.109-.302-.103-.929.337-.985.663-.086.704 1.129.635 1.497-.159.842-.697 1.26-1.436 1.606 2.26 1.228 4.198 2.915 6.524 4.055 1.16.568 2.488.781 3.755 1.005.801.141 1.641.107 2.392-.229 2.794-1.249 3.048-5.433 2.907-8.047zM90.754 302.859c.688-1.012.814-2.259 1.01-3.435.222-1.333.528-2.641 1.042-3.894a30.583 30.583 0 011.623-3.351c.172-.306.38-.718.779-.749.447-.034.647.411.942.653.416.342.972.427 1.471.598.617.211 1.214.476 1.834.678 1.18.386 2.479.423 3.695.691.572.126 1.145.245 1.717.369.384.082 1.038.389 1.429.325.824-.137 1.423-2.07 1.705-2.748.461-1.109 1.158-2.127 1.575-3.243.437-1.165.819-2.315 1.348-3.447.552-1.18 1.132-2.35 1.653-3.544.199-.456.338-.96.613-1.378.296-.451.676-.537.8-1.089.04-.177.036-.483.166-.625.226-.248.306-.017.523-.095.227-.081.184.004.264-.214.015-.04-.111-.147-.102-.209.015-.108.086-.205.106-.308.09-.463-.038-.789.165-1.258.258-.594.463-1.212.687-1.82.895-2.431 2.209-4.652 3.284-6.977.13-.281.356-.487.454-.785.087-.261.019-.573.147-.823.141-.276.372-.263.555-.463.156-.172.171-.332.222-.558.245-1.1.875-2.006 1.172-3.094.167-.617.505-1.068.817-1.616.365-.642.604-1.352.908-2.023.284-.628.57-1.264.891-1.873.295-.561.477-.641.908-.127.337-.487.707-.904.938-1.454.196-.469.512-.489.962-.784-.287.189-.483.44-.78.122-.135.544-.807.031-.693-.403.126-.48.768-.567 1.164-.704-.194-.508-.508-.056-.5-.628.006-.476.474-1.035.686-1.434.584-1.102 1.037-2.28 1.53-3.424.496-1.149.944-2.324 1.506-3.443.231-.462.468-.951.756-1.382.124-.185.261-.398.449-.528.116-.081.447-.109.512-.233.132-.248-.153-.705-.114-1.017.062-.479.32-1.038.523-1.469.523-1.11 1.028-2.242 1.577-3.34.533-1.064 1.103-2.081 1.529-3.197.217-.571.513-1.069.789-1.612.218-.428.343-.895.722-1.221-.033.23-.031.464-.05.696.022-.262-.049-.608.112-.835.192-.271.573-.21.798-.448a1.03 1.03 0 01-.717.301c.526-1.404.929-2.959 1.885-4.147.122-.153.287-.404.458-.495.105-.055.484-.026.532-.079.307-.342-.192-.96-.091-1.369.107-.434.526-.825.679-1.273.241-.706.418-1.178.864-1.768.28-.372.376-.808.54-1.248.287-.768.583-1.534.905-2.287.609-1.422 1.415-2.722 2.077-4.113.309-.649.461-1.388.826-2.007.28-.477.726-.822.944-1.339.266-.632.394-1.304.682-1.936.202-.444.42-.876.603-1.327.246-.61.707-1.992 1.619-1.493-.327-1.096-.698-2.19-.981-3.298-.075-.293-.08-.673-.293-.908-.224-.245-.357-.203-.513-.515-.419-.839-.194-2.222-.263-3.127-.085-1.122-.282-2.231-.307-3.357-.025-1.122-.019-2.225-.094-3.347-.069-1.034-.138-2.062-.03-3.092.102-.969-.623-1.568-.817-2.497-.209-1.005-.084-2.083.062-3.089.533-3.687 2.206-7.588 4.509-10.526 1.755-2.239 5.012-5.118 8.075-3.758.421.187.628.385 1.043.086.333-.239.357-.622.835-.646.464-.023.944.405 1.318.631.518.312 1.056.592 1.586.883.97.533 1.832 1.135 2.52-.068.186-.325.336-1.088.705-1.249.3-.13.441.166.642-.111l.076.092c-.155-.188.015-.376-.017-.578l.041-.213a1.28 1.28 0 01-.208-.233c-.036-.308.24-.714.374-.97.438-.837.725-1.738 1.163-2.572.523-.994.917-1.996 1.365-3.022.464-1.063 1.13-2.036 1.623-3.09 1.018-2.179 1.949-4.401 2.991-6.569.215-.448 1.381-3.67 2.159-3.308-.177-.788.347-1.26.797-1.86.269-.359.431-.716.642-1.103.176-.325.457-.555.637-.868.161-.279.135-.56.223-.859.101-.34.315-.561.528-.834.51-.654.893-1.409 1.568-1.918.419 1.67-.544 3.333-1.17 4.818-.764 1.813-1.441 3.664-2.166 5.493-1.429 3.612-3.046 7.145-4.731 10.643-.883 1.832-1.819 3.639-2.628 5.505-.325.749-.656 1.471-1.059 2.182-.443.783-.66 1.649-1.036 2.46-.271.584-.796 1.178-.589 1.861.2.66 1.097 1.474 1.587 1.941 1.118 1.064 2.628 1.378 3.049 3 .399 1.533.202 3.712-1.121 4.796-1.377 1.128-3.85.492-5.397.279.947 1.414 1.925 2.807 2.856 4.232.861 1.318 1.614 2.709 1.397 4.335-.525 3.944-5.636.523-7.462-.352.483 1.586.811 3.824-.267 5.269-.784 1.05-2.417.953-3.535.66-.855-.224-1.103-.145-1.613.634-.434.663-.939 1.183-1.479 1.765-1.284 1.382-2.068 2.857-2.899 4.522-.458.919-.727 1.537-.248 2.536.429.892.933 1.78 1.445 2.628.977 1.616 2.268 3.017 3.382 4.536 2.257 3.08 4.216 6.344 6.802 9.183 2.553 2.802 5.831 4.897 8.932 7.047 1.616 1.121 3.165 2.311 4.979 3.103.921.403 1.874.724 2.833 1.023.456.143.919.268 1.372.418.258.084.669.317.944.193.2-.089.402-.724.482-.878.206-.392.406-.783.651-1.152.511-.773 1.098-1.492 1.607-2.268 1.129-1.719 2.166-3.502 3.407-5.145 1.171-1.549 2.498-2.987 3.871-4.357 1.32-1.317 2.76-2.536 4.516-3.222 1.765-.689 3.61-.805 5.482-.665 1.762.132 3.371.683 5.064 1.144.597.162 1.396.422 1.959.046.274-.183.398-.496.596-.747.201-.257.555-.455.695-.751.226-.481-.196-1.095-.275-1.589-.156-.987-.009-2.024.209-2.988.917-4.063 2.201-7.995 2.827-12.129.146-.962.324-1.945.352-2.919.019-.607-.278-1.2-.249-1.778.03-.576.632-.755 1.116-.443.522.336.521 1.129.552 1.675.243 4.236-.719 8.281-1.749 12.35-.25.987-.485 1.978-.744 2.964-.224.855-.477 1.721-.138 2.577.307.772.82 1.472 1.176 2.225.375.795.681 1.781 1.26 2.456.543.631 1.075.768.83 1.737-.055.22-.206.419-.136.641.1.315.786.614 1.046.782 1.724 1.108 3.566 2.024 5.323 3.075.764.457 1.52 1.096 2.345 1.428.794.319 1.462.639 2.176 1.132 1.625 1.122 3.339 2.121 5.007 3.177a504.226 504.226 0 015.149 3.293c1.603 1.04 3.099 2.285 4.76 3.23 1.661.946 3.368 1.853 5.049 2.77.384.209.716.425 1.16.424.344 0 .61-.125.952.005.801.305 1.556 1.204 2.219 1.734 1.581 1.265 3.299 2.331 5.001 3.422a32.568 32.568 0 012.389 1.682c.66.512 1.267 1.125 1.995 1.546.762.442 1.425.79 2.09 1.391a40.365 40.365 0 002.135 1.804c.769.605 1.55 1.193 2.276 1.85.664.599 1.227 1.301 1.902 1.888.672.585 1.415 1.066 2.004 1.744.639.734 1.113 1.594 1.638 2.409 0-.086.393-.363.437-.427.212-.305.149-.665.314-.991.568.576.111 1.969.071 2.661.085-1.472.03-2.95.226-4.415.192-1.444.48-2.872.51-4.333.031-1.477-.067-2.957-.113-4.433-.019-.633-.065-1.263-.191-1.885-.052-.256-.182-.528-.2-.787-.026-.354.092-.389.229-.701.213-.486.018-.543-.23-.941-.291-.465-.002-.613.136-1.066.177-.585-.352-.722-.351-1.248 0-.218.204-.433.203-.639-.002-.439-.2-.196-.344-.464-.143-.265.246-.48.341-.764.088-.261.083-.477-.044-.725-.034-.066-.118-.139-.142-.203-.051-.135-.02-.156-.047-.254-.223-.828-.573-1.623-.841-2.458-.241-.756-.055-1.541-.072-2.313-.015-.664-.347-1.182-.481-1.816-.147-.699.293-.982.572-1.553.326-.667.267-1.529-.016-2.198l-.316 1.042c-.079-.271-.225-.566-.197-.856.032-.33.211-.362.314-.612.183-.44-.025-.245-.198-.642-.089-.205.019-.479.004-.695-.018-.277-.133-.5-.187-.767-.087-.428-.005-.747-.298-1.099-.265-.318-.666-.529-.982-.788-.59-.484-1.148-1.017-1.718-1.524-.796-.709-1.877-1.285-1.83-2.458 1.204.442 2.078 1.459 3.03 2.27 1.06.903 2.275 1.599 3.353 2.481 2.295 1.878 4.789 3.539 7.346 5.041 1.272.747 2.563 1.458 3.85 2.179 1.166.653 2.267 1.452 3.53 1.913 1.147.418 2.59.929 3.792.456.477-.188.952-.524 1.143-1.014.159-.412.002-1.056.406-1.355.156-.116.462.004.518-.245.044-.196-.315-.411-.343-.606-.07-.484.517-1.317.702-1.765.106-.256.194-.591.409-.782.08-.071.238-.075.292-.149.065-.088.008-.164.052-.246.131-.247.092-.423.317-.661.243-.258.579-.431.86-.642-.013-.013-.236.131-.262.145.026-.405.244-.756.302-1.152.062-.415-.071-.775.134-1.163.208-.395.617-.669.843-1.058.232-.398.325-.87.511-1.29.355-.798.937-1.297 1.092-2.17.035-.196.02-.368.141-.539.103-.146.309-.119.394-.294.127-.259-.043-.455.194-.718.448-.498 1.188-.341.809-1.199-.384-.87-.138-.896.396-1.557.543-.673.688-1.682.932-2.487.096-.318.153-.654.391-.886.388-.379.503-.141.317-.716.709.036.752-1.289.838-1.797.056-.33.129-.784.373-1.035.168-.174.536-.145.544-.151.157-.111.437-.675.464-.834.029-.182-.146-.306-.115-.523.031-.224.262-.447.405-.597.56-.588 1.481-1.84 1.142-2.72-1.445 1.489-2.827 3.038-4.271 4.528-1.145 1.183-2.405 2.241-4.004 2.736-1.811.559-3.79.643-5.675.581-.987-.033-1.965-.24-2.955-.189-1.026.052-1.993.001-3.002-.223-.434-.097-.864-.278-1.306-.318-.341-.031-.674.029-1.015-.03-.864-.152-1.642-.699-2.409-1.094-1.664-.858-3.245-1.824-4.661-3.058-2.724-2.373-4.496-5.566-6.196-8.699-1.918-3.535-3.615-7.132-5.742-10.555-1.049-1.689-2.068-3.414-3.289-4.988-1.126-1.451-2.502-2.644-3.987-3.713-1.401-1.008-2.832-2.187-4.563-2.547-.938-.195-1.903-.262-2.848-.423-1.013-.171-1.965-.29-2.971-.008-.891.249-1.762.571-2.653.824-.971.276-1.979.409-2.889.868-.813.411-1.535.979-2.326 1.429-.707.403-1.766.604-2.142 1.39-.38.793-.325 1.764-.631 2.594-.35.948-.842 1.833-1.415 2.665-.959 1.391-2.212 2.603-3.963 2.805-2.091.242-4.185-.546-6.088-1.319-1.966-.799-3.533-2.272-5.444-3.168 0 .691-.087 1.379-.014 2.069.08.762.291 1.509.467 2.251.346 1.459.696 2.927 1.293 4.308.577 1.333 1.389 2.507 2.223 3.688.802 1.138 1.557 2.341 2.523 3.351 1.714 1.793 4.157 2.864 6.589 3.233 2.499.378 5.324.294 7.286-1.459 1.895-1.694 3.373-3.886 3.809-6.417.507-2.947.392-5.975.202-8.945-.096-1.505-.235-3.008-.483-4.497-.216-1.29-.814-2.664-.346-3.951.107-.297.155-.583.451-.6.516-.028.951.744 1.158 1.097.692 1.181.876 2.509 1.12 3.834.589 3.204.711 6.525.523 9.77-.094 1.603-.153 3.232-.597 4.786-.441 1.548-1.111 3.056-1.866 4.474.309-.061.481.115.39.419l-.399-.401c-1.526 1.96-3.327 4.314-5.784 5.125-1.443.476-2.833.867-4.369.823-1.513-.043-2.917-.458-4.311-1.022-1.26-.511-2.562-.954-3.612-1.849-1.072-.913-1.948-2.127-2.799-3.24-1.844-2.41-3.396-5.037-4.304-7.946-.447-1.431-.637-2.891-.875-4.364-.118-.731-.232-1.464-.238-2.206-.006-.602.148-1.19.144-1.789-.008-1.138-1.111-1.541-2.103-1.686-1.277-.186-1.925.944-2.585 1.844a62.078 62.078 0 00-2.519 3.672c-.35.557-.549 1.287-.921 1.805-.259.361-.705.54-1.006.912-.917 1.13-1.879 2.35-2.618 3.603-.709 1.202-1.743 2.279-2.652 3.34-1.004 1.172-2.105 2.256-3.111 3.425-.791.921-1.844 1.456-2.644 2.352-.811.908-2.137 1.467-3.122 2.196-.57.421-1.125.861-1.663 1.322-.532.456-.969 1.048-1.527 1.466-2.052 1.537-4.104 2.934-6.782 3.029-.58.021-1.077-.176-1.63-.208-.599-.034-1.165.259-1.799.205-1.415-.12-2.898-.438-4.255-.844-2.74-.82-5.632-1.815-7.965-3.509-1.176-.854-2.12-1.925-3.098-2.988-.517-.563-1.731-1.889-.855-2.698.741-.684 2.092 1.227 2.558 1.667 1.026.967 2.268 1.632 3.567 2.159 1.312.533 2.674.927 4.008 1.397 1.399.493 2.759 1.052 4.243 1.232.761.092 1.526.14 2.288.219.779.081 1.565.297 2.347.182 1.423-.209 2.947-.379 4.218-1.093 2.472-1.39 4.351-3.762 6.61-5.459 1.136-.854 2.362-1.573 3.431-2.515 1.104-.973 2.041-2.122 2.995-3.238a315.602 315.602 0 006.193-7.464c.9-1.119 1.911-2.208 2.722-3.393.325-.475.571-1.012.48-1.602-.109-.702-.565-1.288-.652-2.004-.164-1.362.545-2.693 1.101-3.892.216-.465.524-.992.153-1.456-.37-.462-.973-.822-1.384-1.271a60.991 60.991 0 01-2.857-3.323c-.405-.511-.835-1.015-1.162-1.58-.4-.693-.565-1.48-.794-2.239-.891-2.944-1.208-5.979-.863-9.041.316-2.804.525-5.968 1.78-8.534 1.201-2.455 3.136-4.4 5.201-6.142 1.191-1.003 2.399-1.987 3.602-2.975 1.169-.96 2.437-1.558 3.715-2.335 2.537-1.541 5.316-1.787 8.226-1.545 1.511.125 3.03.072 4.493.538 1.388.441 2.672 1.193 3.892 1.975 2.447 1.568 4.854 3.201 7.327 4.729 5.003 3.092 11.289 5.657 17.218 4.162 2.935-.74 5.845-1.914 8.514-3.336 2.678-1.428 5.17-3.064 8.014-4.171 1.461-.568 2.947-1.071 4.399-1.664.627-.256 1.265-.628 1.944-.722.247-.035.581.059.809-.056.204-.103.133-.226.293-.33.334-.218.92-.18 1.333-.333.382-.143 1.076-.654 1.491-.601.223.028.307.249.551.24.225-.007.434-.265.622-.364.624-.329 1.4-.409 2.089-.508 1.334-.191 2.518-.367 3.807.102 1.209.44 2.463.816 3.693 1.217a5.267 5.267 0 011.57.78c.323.225.722.268 1.096.423 1.086.45 2.255 1.44 2.744 2.499.249.541.598.409.917.802.33.406.199.992.604 1.412.336.347.454.703.801 1.057.454.462.702 1.093.963 1.674a31.6 31.6 0 012.532 8.887 21.74 21.74 0 01.09 4.526c-.114 1.426-.056 2.96-.533 4.325a8.98 8.98 0 01-.136-.319c-.097.13-.32.274-.322.455-.003.264.171.409.364.163a15.51 15.51 0 01-1.443 3.428c-.266.471-.458.587-.891.756-.436.17-.323.244-.603.643-.232.333-.372.38-.765.234-.171-.064-.179-.224-.376-.185-.143.028-.346.361-.441.455-.181.179-.346.358-.605.421-.306.075-.475-.157-.698-.13-.465.055-.688.506-1.185.574-.501.069-.738.087-1.213.276-.674.268-1.406.36-2.127.349-.582-.01-1.237-.046-1.797-.215-.303-.092-.536-.235-.856-.276-.273-.034-.544.029-.819-.033-.569-.129-1.067-.365-1.658-.465-.544-.093-1.058-.265-1.583-.427-.314-.098-.762-.327-.953.055-.227.457.379 1.244.543 1.628l-.321-.018c.448.167.422.162.637.615.217.458.516.877.688 1.357.395 1.102.525 2.331.768 3.475.527 2.474 1.073 4.863.932 7.41-.123 2.212-.321 4.58-1.902 6.278-.327.351-.696.685-.926 1.113-.231.428-.312.876-.62 1.27-.595.76-1.569 1.386-2.511 1.604-1.063.246-2.227.493-3.317.345-1.058-.144-2.145-.295-3.194-.499-2.287-.446-4.049-2.204-5.526-3.895-.769-.881-1.578-1.744-2.304-2.661-.202-.255-.426-.752-.752-.872-.405-.15-.717.182-1.085.327-.571.223-1.25.324-1.849.448-.443.092-.815.015-.791.528.021.467.613 1.229.826 1.652.289.572.573 1.146.857 1.721 1.118 2.259 2.285 4.479 3.563 6.652 1.207 2.052 2.539 3.985 4.415 5.483 1.786 1.428 3.906 2.642 6.012 3.539 1.168.498 2.4.649 3.654.784.549.059 1.101.1 1.651.162.235.026.482.085.718.084.241 0 .492-.142.709-.135.347.011.586.248.975.244.55-.005 1.11-.071 1.662-.092 1.247-.049 2.519-.078 3.749-.304 2.393-.44 3.941-1.859 5.66-3.463.731-.681 1.529-1.372 2.185-2.128.191-.22.317-.326.224-.599-.041-.122-.246-.24-.328-.342-.232-.29-.488-.702-.603-1.057-.193-.597.289-1.919 1.12-1.662.564.174.635 1.064 1.183 1.278.487.19.601-.189.698-.571.128-.496.159-.864.541-1.258.352-.363.798-.508.806-1.088.003-.214-.105-.414-.085-.632.02-.227.277-.5.248-.713-.06-.446-.974-.688-1.305-.907a6.656 6.656 0 01-1.301-1.15c-.902-1.014-1.62-2.223-2.24-3.426-1.045-2.029-1.907-4.356-1.675-6.676.088-.872.332-1.791.919-2.466.914-1.053 2.124-.86 3.38-.86-.999-1.895-2.42-4.67-1.015-6.719 1.139-1.663 3.378-.743 4.931-.354-.308-1.538-.74-3.106-.454-4.683.184-1.016.656-2.279 1.686-2.71 1.163-.486 2.611.228 3.576.862 1.156.758 2.153 1.852 2.974 2.955.397.534 1.279 2.191 1.935 1.025.212-.377.258-.861.41-1.266.278-.742.643-1.289 1.102-1.908.302-.407.207-.844.456-1.29.15-.268.387-.48.532-.753.184-.346.245-.731.36-1.101.202-.649.599-1.147.929-1.728.385-.676.355-1.434.626-2.147.643-1.691 1.557-3.307 2.306-4.954.628-1.385 1.277-2.764 2.584-3.638.336.987.272 1.584-.052 2.573-.321.98-.647 1.958-1.013 2.922-.699 1.839-1.55 3.611-2.357 5.402-.814 1.806-1.492 3.667-2.292 5.478-.389.881-.791 1.756-1.179 2.637-.276.627-1.039 1.701-.64 2.367.162.272.474.48.68.725.292.347.527.731.783 1.104.51.744 1.061 1.457 1.587 2.189 1.11 1.547 2.115 3.192 3.133 4.801 2.045 3.234 3.085 7.242 2.592 11.038-.26 2-.217 4.018-.501 6.017a41.94 41.94 0 01-1.275 5.872c-.51 1.745-1.576 3.409-1.466 5.262.088 1.485.126 2.977-.156 4.448-.115.602-.287 1.201-.571 1.747a3.984 3.984 0 01-.52.78c-.221.254-.619.424-.805.676-.119.161-.102.443-.154.627-.085.301-.225.568-.379.839-.467.82-.991 1.702-1.622 2.407-1.16 1.298-2.324 2.649-3.595 3.842-1.303 1.222-2.593 2.548-3.989 3.659a9.137 9.137 0 01-1.21.827c-.173.098-.393.252-.592.292-.137.029-.326-.03-.447.011-.323.106-.024.021-.326.302-.261.242-.511.288-.835.449-1.796.894-3.397 2.028-5.305 2.681-2.088.715-4.214 1.515-6.403 1.852-.962.148-3.275-.376-3.467 1.011-.67-.665-1.427-.117-2.167.069 0-.188.138-.689 0-.838-.177-.191-.959.007-1.135.135-.367.267-.492.875-.661 1.27-.288.675-.611 1.337-.913 2.005-1.19 2.634-2.376 5.27-3.58 7.898-2.405 5.256-4.69 10.566-7.003 15.863-.538 1.23-1.021 2.48-1.539 3.718-.47 1.125-1.125 2.158-1.647 3.259-.583 1.23-.999 2.533-1.566 3.771a930.09 930.09 0 00-1.737 3.812c-2.355 5.2-4.608 10.445-6.873 15.684-2.572 5.949-5.204 11.872-7.841 17.792 2.821.614 5.639 1.361 8.502 1.762 1.34.188 2.707.157 4.04.398.698.125 1.303.29 2.016.268.692-.02 1.374-.014 2.067.012 2.768.104 5.629.068 8.373-.345 1.109-.166 2.328-.497 3.376.076.916.5 1.194 1.436 1.36 2.402 1.827-.431 3.386-1.556 5.174-2.097 1.704-.515 3.638-.668 5.341-.07 1.712.602 3.571 1.467 5.032 2.548 1.508 1.116 2.566 2.695 3.493 4.3 1.029 1.78 1.945 3.622 2.958 5.412 1.046 1.845 2.087 3.673 2.974 5.603a62.384 62.384 0 014.115 12.114c.358 1.57.554 3.267-.494 4.632-1.083 1.409-2.843 1.424-4.408.911-.865-.283-1.645-.733-2.438-1.171-.76-.421-1.529-.759-2.198-1.324-1.442-1.217-3.037-2.278-4.5-3.483-2.762-2.275-5.834-4.01-8.098-6.842-1.144-1.43-2.602-2.8-3.413-4.461-.257-.526-.42-1.601.457-1.621.561-.012 1.079.683 1.42 1.048a39.97 39.97 0 005.132 4.623c.869.654 1.804 1.209 2.717 1.796.915.589 1.72 1.282 2.593 1.922.862.631 1.784 1.132 2.616 1.809a27.228 27.228 0 002.612 1.891c1.834 1.166 3.698 2.365 5.792 3.007 0-1.426-.795-2.611-1.25-3.904-.478-1.358-.871-2.671-1.459-3.996a171.08 171.08 0 00-1.935-4.248c-.633-1.322-1.434-2.553-2.064-3.876-.572-1.202-1.422-2.196-1.923-3.407-.258-.625-.697-1.166-1.027-1.753-.365-.651-.7-1.317-1.073-1.963-1.453-2.516-3.462-4.191-6.049-5.499-1.399-.707-2.948-1.126-4.518-1.17-1.803-.051-3.561.467-5.361.467.056 1.133-.089 2.456.268 3.547.127.386.356.584.29.977-.026.156-.235.318-.271.519-.052.283.034.628.049.916.124 2.494.071 4.983-.06 7.475-.042.81-.043 1.921-.87 2.383-.352.197-.411.095-.749-.026-.487-.173-.798-.058-1.266.156-.305.14-.607.274-.915.405-.151.065-.457.119-.536.298-.04.091.04.302.003.359-.189.286-.089.155-.51.114-.557-.053-.876.161-1.359.444-4.165 2.447-9.095 2.693-13.791 3.236-2.475.286-4.902.72-7.401.762-2.48.042-4.977.067-7.447-.171-1.092-.106-2.181-.284-3.267-.435-.361-.05-1.804-.625-1.375.31.184.403.738.652 1.05.941.351.325.598.753.992 1.033.516.367 1.023.639 1.508 1.067 1.69 1.491 3.233 3.088 5.006 4.492.726.574 1.576 1.156 2.047 1.977.465.811.473 1.866.376 2.771-.109 1.012-.536 1.883-.932 2.805-.493 1.145-.843 2.357-1.258 3.532a57.83 57.83 0 01-1.264 3.306c-.297.7-.56 1.667-1.12 2.215-.251.246-.6.46-.962.302-.355-.155-.374-.571-.626-.801-.363-.33-.585-.091-1.037-.002-.627.122-.84-.172-1.383-.361-.383-.133-.774.032-1.166-.146-.355-.16-.587-.51-.923-.699-.9-.504-2.309-.462-3.318-.638-4.984-.87-9.834-2.361-14.746-3.553-2.455-.596-4.932-1.114-7.374-1.761a83.341 83.341 0 01-3.406-.984c-.602-.186-1.226-.35-1.809-.591-.546-.225-1.009-.524-1.603-.607-1.126-.157-2.108-.604-3.215-.862-1.195-.278-2.306-.803-3.478-1.156-1.189-.357-2.414-.589-3.607-.934-1.218-.353-2.401-.816-3.619-1.165-2.36-.677-4.811-1.033-7.106-1.94-.473-.187-.926-.436-1.429-.54-.611-.126-1.219-.112-1.828-.283-1.227-.342-2.404-.814-3.642-1.129-2.341-.595-4.7-1.145-7.034-1.76-2.213-.584-4.487-.851-6.73-1.331a379.534 379.534 0 01-7.31-1.622c-1.112-.261-2.199-.558-3.332-.721-1.181-.171-2.242-.68-3.422-.845-4.693-.656-9.351-1.4-13.965-2.487a450.29 450.29 0 00-7.258-1.645c-1.102-.239-2.316-.364-3.362-.784-1.1-.442-2.191-.543-3.318-.879-2.361-.705-4.814-1.008-7.207-1.593-2.345-.573-4.758-.967-7.076-1.632-.431-.124-1.145-.556-1.596-.417-.35.106-.421.499-.695.685-.744.506-1.535-.478-2.017-.952-.688-.675-1.38-.928-2.168-1.404-.969-.585-1.899-1.61-2.655-2.452-3.137-3.498-7.425-5.561-10.816-8.791-1.746-1.664-3.312-3.438-4.85-5.291-.714-.861-1.496-1.662-2.288-2.451-.432-.431-.87-.858-1.303-1.289-.268-.266-.726-.981-1.112-1.068-.358-.081-.75.246-1.144.163-.36-.075-.62-.33-.819-.624-.486-.721-.67-1.837-.157-2.592z" fill="#000"/><path fill-rule="evenodd" clip-rule="evenodd" d="M126.229 254.588l-.024.004c.016-.019.048-.008.024-.004zm55.011 49.09c.025-.002.014.017.006.007.013.021-.002-.002-.006-.007zm18.498-100.67l-.794-.101c.393-.316.469-.171.794.101zm81.783 56.556l.331.065c-.174.258-.164.132-.331-.065zm-51.22-17.177c.3.261.561.548.773.885l-1.134-.219c1.738 3.102 2.865 6.492 3.925 9.871 1.63-1.531 3.191-3.128 4.736-4.745.503-.527 1.392-1.113 1.701-1.783.14-.304.09-.494.339-.735.301-.292.921-.411 1.297-.572-3.757-1.369-7.741-1.885-11.637-2.702zm13.684 3.256c-.438-.133-1.011-.522-1.483-.459-.544.073-.6.678-.897 1.075-.984 1.311-2.308 2.462-3.46 3.624-1.163 1.172-2.284 2.402-3.515 3.503-.313.28-.868.986-1.299.674-.467-.338-.701-1.641-.9-2.178-.579-1.56-1.052-3.164-1.717-4.691-.676-1.55-1.439-3.082-2.198-4.592-.203-.403-.605-.973-.282-1.414.382-.521 1.199-.148 1.683-.011 1.641.467 3.346.748 5.023 1.056 1.838.338 3.625.863 5.406 1.424.853.269 1.704.539 2.549.828.705.241 1.53.457 1.987 1.096-.322.118-.561.167-.897.065zm-22.827-6.757c-2.33-.761-4.725-1.391-7.168-1.649-1.232-.13-2.474-.119-3.711-.111-.881.006-2.152-.068-1.416-1.241.537-.856 1.672-1.435 2.424-2.096.788-.694 1.307-1.574 1.817-2.479.588-1.046 1.213-2.071 1.783-3.127.425-.787.766-1.921 1.624-2.335-.648 2.197-1.948 4.13-3.099 6.086-.52.884-1.054 1.857-1.836 2.543-.62.544-1.657.892-1.939 1.74 2.284 0 4.601.043 6.864.372 1.914.279 3.906 1.466 5.851 1.305-1.161-2.637-2.504-5.173-3.77-7.759-.458-.936-.955-1.95-1.187-2.977-.222-.981.32-.556.632.053a545.741 545.741 0 003.459 6.663c.322.609.627 1.224.907 1.854.265.595.67 1.265.692 1.934.035 1.087-.986 1.531-1.927 1.224zm35.736 25.919c-2.228-.598-4.376-1.476-6.64-1.94-2.065-.422-4.43-.204-6.375-1.07.656-1.229 1.995-1.507 2.988-2.437 1.077-1.009 1.985-2.265 2.904-3.415.957-1.197 1.73-2.497 2.629-3.732.491-.675 1.447-2.099 2.406-2.051.502.025.837.569.46.991-.276.309-.887.248-1.245.439-1.086.578-1.661 2.074-2.354 3.035-.905 1.255-1.905 2.449-2.898 3.635-1.092 1.303-2.284 2.26-3.682 3.215 4.254.054 8.381 1.248 12.391 2.571-.698-2.072-1.029-4.244-1.335-6.401a65.86 65.86 0 01-.394-3.222c-.087-.95-.287-2.028-.052-2.968.616 1.07.623 2.405.756 3.599.161 1.447.314 2.902.576 4.335.249 1.361.694 2.677.952 4.032.16.842-.038 1.665-1.087 1.384zm-74.017 7.28c-.36 1.878-.297 3.803-.685 5.681a91.628 91.628 0 01-.616 2.737c-.158.659-.487 1.615-.227 2.289.447 1.163 2.551-1.195 3.011-1.552 1.561-1.216 3.098-2.463 4.64-3.705l-6.123-5.45zm6.943 5.926c-2.058 1.812-4.438 3.249-6.421 5.134-.612.583-1.773 2.017-2.559.987-.731-.958-.223-2.7.011-3.74.309-1.37.54-2.761.687-4.159.076-.714.122-1.431.177-2.147.053-.7.233-1.418.224-2.119-.003-.212-.01-.465-.13-.65-.112-.173-.366-.217-.459-.372-.292-.485.209-.538.592-.533.522.007.654.083.967.485.365.468.794.792 1.262 1.151 1.25.957 2.502 1.914 3.699 2.937.631.539 3.027 2.078 1.95 3.026zm2.388-29.231c-.032 2.603-.502 5.204-1.456 7.63 2.748-.564 5.215-1.968 7.596-3.393l-6.14-4.237zm6.382 5.368c-1.245.714-2.474 1.541-3.788 2.124-1.138.505-2.377.683-3.541 1.106-.648.236-2.036.919-1.673-.398.133-.484.437-.925.636-1.383.293-.677.518-1.384.681-2.103.325-1.431.426-2.923.47-4.386.033-1.117-.824-1.809-1.899-2.086-.353-.091-1.147-.395-.396-.781.406-.209 1.029.144 1.393.32 1.22.59 2.302 1.418 3.43 2.161 1.416.932 2.86 1.821 4.277 2.753.444.293 1.044.609 1.193 1.163.17.631-.256 1.208-.783 1.51zm48.366 19.608c1.998-.679 4.082-1.046 6.156-1.405-1.443-1.89-3.085-3.622-4.85-5.213-1.403 2.475-2.788 4.992-3.628 7.723.771-.374 1.507-.828 2.322-1.105zm-2.488-.228c.498-1.195.953-2.408 1.522-3.573.242-.496.501-.984.795-1.452.175-.279.495-.618.539-.955.047-.372-.139-.411-.03-.783.122-.417.343-.741.818-.661.876.148 1.929 1.32 2.544 1.898a36.425 36.425 0 012.67 2.789c.818.953.92 1.959-.315 2.606-1.007.528-2.294.528-3.4.682-1.256.174-2.521.416-3.645 1.033-.477.261-1.591 1.368-1.926.426-.209-.588.203-1.471.428-2.01zm-12.65-15.977a119.148 119.148 0 013.5 7.985c.483 1.226.987 2.456 1.382 3.714.112.357.5 2.325-.393 1.574-.289-.244-.651-.811-.791-1.141-.226-.528-.027-1.038-.22-1.581-.456-1.284-.993-2.552-1.478-3.828-.49-1.29-.984-2.577-1.482-3.864-.416-1.073-1.35-2.305-1.04-3.513.174.214.401.401.522.654zm-48.926 77.279c.027-.015.053-.03.08-.041-.027.011-.053.026-.08.041zm-38.64-16.471c6.668.331 13.247 2.058 19.712 3.612 6.536 1.572 13.02 3.404 19.394 5.542 3.162 1.061 6.305 2.178 9.46 3.258 2.672.914 5.631 1.808 7.972 3.434.667.463 1.744 1.512.744 2.215-.626.44-1.849.572-2.604.606-.715.033-1.44-.161-2.165-.152-.887.011-1.77.053-2.657-.009-1.648-.116-3.3-.439-4.915-.78-1.756-.371-3.458-.858-5.248-1.033-.664-.065-1.169-.266-1.797-.468-.693-.223-1.482-.176-2.162-.435-.281-.107-.469-.342-.752-.437-.346-.115-.736-.001-1.091-.022-.849-.05-1.731-.33-2.564-.502-.895-.185-1.79-.373-2.684-.564-.702-.149-1.399-.238-1.956-.727.676-.547 1.086-.418 1.904-.194.916.25 1.855.436 2.782.65 1.878.433 3.747.913 5.634 1.308 3.843.803 7.675 1.402 11.581 1.756.961.087 1.927.152 2.881.291.923.135 1.628.254 2.556.065.749-.154 1.423-.188.595-.873-.257-.213-.553-.338-.825-.519-.338-.226-.35-.423-.561-.737-.376-.561-1.111-.41-1.723-.438-.702-.031-1.287-.47-1.982-.673-.763-.223-1.397-.276-2.085-.693-.3-.182-.283-.137-.601-.136-.396.002-.698-.099-1.068-.276-.714-.344-1.238-.671-2.032-.642-.449.015-.609-.127-1.022-.34-.441-.228-.863-.318-1.352-.379-1.025-.127-1.978-.331-2.934-.738-.423-.18-.795-.447-1.21-.634-.06-.027-.762-.133-.773-.144-.07-.068.054-.41-.227-.437-.252-.024-.351.256-.628.209-.118-.02-.097-.182-.19-.224a1.04 1.04 0 00-.49-.118c-.832-.012-1.268-.166-2.034-.53-.341-.162-.651-.252-1.016-.35-.385-.104-.502-.279-.823-.452-.549-.295-.643.329-1.221.203-.283-.062-.502-.293-.749-.427-.333-.181-.597-.19-.969-.234-.713-.085-1.337-.42-2.038-.54-.293-.051-.541-.175-.828-.24-.379-.087-.771-.005-1.146-.136-.622-.217-.894-.649-1.566-.647-.813.003-1.517-.279-2.284-.56-.826-.303-1.636-.69-2.515-.808-.819-.11-1.637-.094-2.446-.285-.811-.193-1.586-.51-2.376-.772-.857-.284-1.706-.399-2.59-.557-.753-.135-1.569-.168-2.304-.346-.326-.079-.596-.275-.917-.356-.374-.095-.709-.065-1.078-.23-.327-.147-.609-.408-.977-.454-.448-.055-.851.044-1.312-.056-.42-.091-.738-.07-1.146-.093-.33-.018-.53-.212-.903-.337-.792-.268-1.69-.138-2.51-.288-.81-.15-1.7-.32-2.393-.792.894-.626 2.21-.385 3.224-.335z" fill="#000"/><path fill-rule="evenodd" clip-rule="evenodd" d="M159.775 326.766c2.593-.175 5.151.273 7.717.559 2.1.234 4.357.267 6.261 1.294-2.377-.159-4.767-.231-7.129-.56-2.145-.299-4.366-.968-6.524-.393.978.765 2.213 1.023 3.367 1.404 1.441.477 2.871.991 4.309 1.477-.536.69-1.862-.086-2.51-.276a33.074 33.074 0 01-3.049-1.041c-.863-.345-1.801-.598-2.617-1.05-.927-.513-.998-1.336.175-1.414zm46.95-27.17c.332-.728 1.305-1.191 1.806-1.829a98.816 98.816 0 012.195-2.721c.704-.832 1.346-1.697 1.875-2.652.573-1.034.946-2.17 1.562-3.18.188.368.413.818.345 1.246-.066.415-.395.631-.622.954-.573.81-.865 1.82-1.437 2.657-1.23 1.798-2.72 3.4-4.094 5.086l9.976 1.32c-.76-2.176-1.665-4.309-2.39-6.493-.347-1.044-.618-2.106-.898-3.169-.22-.837-.565-1.853.077-2.598.385 1.329.649 2.685 1.122 3.989.466 1.286 1.024 2.54 1.536 3.809.5 1.238 2.632 5.355.01 5.592-1.101.1-2.331-.216-3.412-.384-1.365-.212-2.728-.446-4.099-.619-.518-.066-4.061.113-3.552-1.008zm21.674 8.032c.879-1.006 1.791-1.982 2.691-2.97.604.627.399.851-.188 1.439-.541.543-1.126 1.05-1.647 1.613-.522.564-.44.837.116 1.313.614.526 1.28.996 1.906 1.509 1.287 1.052 2.569 2.112 3.879 3.138 1.063.832 2.321 2.143 3.645 2.526l1.011-5.289c.638.152.76.307.652.977-.136.837-.397 1.656-.56 2.489-.138.709-.434 1.496-.316 2.225.05.31.267.604.274.919.008.368-.234.58-.391.893-2.566-1.672-4.986-3.558-7.357-5.492-1.125-.918-2.218-1.88-3.368-2.765-.354-.273-.833-.52-.938-.995-.112-.509.271-1.164.591-1.53zm-7.779-27.583c3.131.593 6.297.967 9.455 1.378-.667 1.151-1.801.838-2.894.685a79.83 79.83 0 00-4.852-.531c-.117 2.848-.386 5.706-.371 8.559.004.708.041 1.657.876 1.86 1.169.284 2.761-.484 3.866-.804-.234.382.113.757-.276 1.085-.247.209-.685.236-.986.333-.933.301-1.881.736-2.888.518-1.486-.321-1.273-2.041-1.243-3.208.058-2.243.297-4.525.182-6.767-.046-.887-.408-1.236-1.074-1.755-.25-.195-.546-.38-.559-.734-.016-.419.37-.693.764-.619zm105.998-76.544c.073.036.047.039.063.124-.049-.001-.069-.042-.063-.124zm-60.744 114.492c.583-.35.821.309 1.059.715.469.8.948 1.596 1.419 2.395.319-.695.395-1.455.481-2.205.044-.373-.013-1.632.633-1.274.551.305.131 1.248.056 1.705-.119.729-.199 1.484-.437 2.188-.518 1.53-1.441.575-2.017-.341-.445-.707-.931-1.388-1.364-2.103-.302-.499-.379-.75.17-1.08zm-7.962 12.449c1.007 1.153 1.995 2.323 2.992 3.485-1.431-.067-1.874-.838-2.755-1.8-.291-.318-.713-.848-1.172-.92-.35-.056-.246-.1-.497.3-.172.273-.364.537-.551.799-.177.246-.793 1.042-1.096.369-.141-.314.567-1.022.745-1.274.545-.774 1.383-2.047 2.334-.959zm-31.353-149.49c-.42 1.69-1.996.431-2.589-.338-.856-1.111-1.365-2.521-1.633-3.886-.111-.565-.197-1.274.057-1.817.294-.63.848-.49 1.225-.023.464.574.641 1.446.92 2.118.312.754.662 1.499 1.109 2.183.362-.386.917-.807 1.139-.086.17.558-.094 1.309-.228 1.849zm2.629-3.519c-.765-.069-1.949-.578-2.225-1.366-.534-1.524 1.76-.808 2.45-.719-.035-.55-.453-2.281.308-2.555.572-.205.87.972.949 1.356.223 1.081.128 3.428-1.482 3.284zm3.075 3.208c.015.53-.92 3.093-1.773 2.077-.392-.466.063-.813.334-1.166.431-.562.627-1.265 1.03-1.849.127.262.409.639.409.938zm-35.281 24.273c.286.325.549.592.335 1.023-.098.198-.484.657-.757.58-.255-.071-.232-.437-.176-.632.114-.405.519-.501.307-.985l.291.014zm47.678-2.352a.322.322 0 01-.073.152c-.338-.299.051-.294.073-.152zm60.915 26.854l.095-.155c.106.097.107.195.003.294l-.098-.139z" fill="#000"/></svg>