<svg width="701" height="300" viewBox="0 0 701 300" fill="none" xmlns="http://www.w3.org/2000/svg" preserveAspectRatio="none"><g clip-path="url(#clip0)"><path d="M416.635 399.431c-82.926 0-150.151-67.091-150.151-149.852 0-82.76 67.225-149.851 150.151-149.851 82.927 0 150.152 67.091 150.152 149.851 0 82.761-67.225 149.852-150.152 149.852z" fill="#fff" fill-opacity=".5"/><path d="M209.493 399.431c-82.927 0-150.152-67.091-150.152-149.852 0-82.76 67.225-149.851 150.152-149.851 82.926 0 150.152 67.091 150.152 149.851 0 82.761-67.226 149.852-150.152 149.852z" fill="#fff" fill-opacity=".5"/><path fill-rule="evenodd" clip-rule="evenodd" d="M329.038 186.422c.553-.805 1.538-1.208 2.32-1.739-.35.801-.38 1.044-.025 1.808.274.59.457 1.218.721 1.813.181.408.47.82.585 1.237.135.49.065.987.246 1.471-2.136-.576-4.034-1.924-5.854-3.176.339-.049 1.235-.034 1.521-.281.234-.202.282-.836.486-1.133zm-51.415-7.194c-.932.741-.932.74-.964 1.999.784-.476 1.044-1.06.964-1.999zm45.15 3.304c.43.035.534-1.208.63-1.571l-.425-.059c-.194.208-.959 1.568-.205 1.63zm-64.767 12.716c-.61-3.373-1.354-6.725-2.344-10.008a77.878 77.878 0 00-1.615-4.775c-.509-1.363-1.478-2.841-1.647-4.27 1.541 1.39 2.797 3.13 4.126 4.722 1.27 1.523 2.603 3.017 3.803 4.596.488.643.929 1.381.96 2.207.033.906-.487 1.459-.86 2.222-.392.798-.655 1.78-.848 2.643-.211.943.121 1.403.445 2.258.694-.341 1.291-.53 1.798-1.148.538-.656.992-1.393 1.501-2.072 1.108-1.48 2.227-2.952 3.329-4.437 2.21-2.979 4.145-5.986 5.803-9.301 1.679-3.357 3.181-6.803 4.818-10.181.344-.711.486-1.491 1.404-1.489.68.001 1.256.422 1.895.588.157.046.319.074.483.084-.005.162.022.319.08.469.168.204.228.122.462.11.271-.015.466-.184.761-.164.41.028.808.298 1.194.42v-.935c1.225.628 4.191 2.729 4.836.347.056.434-.061 1.215.366 1.493.282.184.639-.008.944.032.382.049.722.323 1.076.455.024-.641.515-.569.99-.655.616-.112 1.155-.453 1.79-.344.632.109 1.089.392 1.724.052.427-.228.824-.548 1.254-.789.436-.245.513-.415.701-.849.206-.482.169-.373.661-.236 1.054.292 1.463-.976 1.649-1.836.453-2.102-.067-4.399-1.456-6.039-1.787-2.111-3.68-4.181-6.016-5.706-2.159-1.408-4.453-3.151-6.973-3.834 2.011-4.494 4.879-8.68 7.434-12.886.732.168 1.17.564 1.952.44.616-.097.589-.05.817.59.204.572.316.655.863.83.568.182.116-.172.539.275.189.198.292.414.526.578.859.6 1.982.255 2.915.629.644.258.327.587.656 1.032.349.471.942.226 1.425.15 1.009-.159 1.313.181 1.525 1.128.158.701.263 1.066 1.018 1.213.427.084 1.092-.256 1.366.019.105.105.061.401.109.536.089.247.244.449.42.642.358.389.848.71 1.335.914.464.194.953.085 1.392.255.693.265.524 1 .501 1.582.393-.094.484-.083.719-.378.107-.135.048-.362.26-.42.182-.049 1.166.556 1.305.728.408.505-.005 1.218.099 1.805.104.585.58 1.025.956 1.456l.369-1.065c.184.237.439.407.518.705.042.154-.085.362-.015.519.199.44.397.161.767.177.325.013 1.201.261 1.047.77-.105.342-.782.263-.701.728.097.566.833.195 1.131.313.39.154.235.486.368.823.234.593.707.646 1.197.936.484.288.671.635.893 1.128.277.616.248.45.844.396.367-.034.559.04.704.379.119.275-.084.615.02.869.128.313.792.668 1.022.986.623.864.891 1.931 1.399 2.858.226.41.486.807.767 1.182.378.503.613.407 1.123.677.826.437.585 1.591.676 2.353.047.393.144.756.425 1.053.168.177.763.38.645.733-.141.428-.617-.029-.527.637.072.532.678.968.813 1.501.093.366-.029.714.066 1.084.104.402.42.708.572 1.088.153.381-.088.862.043 1.151.153.337.712.25.863.688.164.478-.221 1.23-.29 1.719-.044.313-.209.653.055.91.226.219.759.179.529.722-.106.251-.506.199-.55.578-.033.292.305.735.487.932.488.526 1.411.964.746 1.634-.114.115-.255.061-.363.217-.126.183-.144.509-.216.718-.172.5-.419.97-.726 1.402-1.169 1.644-3.104 2.418-4.391 3.91-1.57-1.56-3.177-3.082-4.656-4.73-1.254-1.398-2.467-2.845-3.902-4.067-.742-.631-1.589-1.14-2.206-1.905-.588-.731-.805-1.649-1.253-2.461-.88-1.593-2.148-2.931-3.091-4.484-1.85 1.203-1.077 4.275-.544 5.998a15.594 15.594 0 001.326 3.025c.458.814 1.102 1.623 1.322 2.546.179.749-.084 1.38-.518 1.989-.624.873-1.352 1.691-2.009 2.542l-4.795 6.214c-.579-.835-1.534-.289-2.303-.128-1.127.235-2.29.151-3.43.259-1.196.113-2.407.311-3.592.503-1.061.171-.356.662-.869 1.247-1.086-1.953-3.162-.718-4.856-.546-1.064.109-2.193.052-3.236.184-1.054.135-2.095.493-3.185.598-2.056.197-3.915.904-5.933 1.272-1.066.195-2.142.332-3.207.528-.378.069-1.046.104-1.257.493-.25.461.259 1.434.396 1.85.207.62.352 1.571.769 2.087.324.399.406.156.823.139.482-.02.286.083.619.455.411.46.988.463 1.559.514.261.024.782-.023.984.158.284.254.038.271.06.661.037.681.981 1.188 1.532 1.456.353.171.733.311 1.131.282.251-.017.549-.258.801-.158.357.141.329.814.536 1.098.382.527.896.136 1.398.402.601.319.942 1.076 1.513 1.451 1.132.742 2.434.824 2.998-.569.225.466.757 1.19.557 1.66-.176.416-.736.723-1.113.928-1.105.599-2.188 1.196-3.247 1.878-2.435 1.568-4.776 3.285-7.379 4.577-2.563 1.272-5.256 2.643-8.084 3.199-2.904.57-5.872.21-8.571-.991.402-.802.464-1.319.488-2.235.023-.865.042-1.731.053-2.597.021-1.728.012-3.456-.049-5.184a72.065 72.065 0 00-1.116-10.297zm-30.686-2.475c.262-.93.559-1.899.617-2.865.043-.697-.216-1.733.2-2.34.176-.259.492-.349.595-.659.082-.249-.044-.748-.01-1.022.086-.713.37-1.379.632-2.043.593-1.505.61-3.085 1.107-4.61.271-.836.78-1.55 1.078-2.372.272-.749.41-1.539.496-2.328.091-.841.09-1.675.293-2.501.188-.772.424-1.526.595-2.302.406-1.847.878-3.655 1.526-5.435.245-.673.423-1.8 1.021-2.252.434-.329 1.004-.243 1.509-.21.575.039 1.046.066 1.428.544.488.611.798 1.275 1.364 1.849.575.584 1.294 1.089 1.812 1.723.407.498.174.667-.263 1.092.566.074 1.031-.082 1.443.345.419.435.737 1.157 1.004 1.691.6 1.204.668 2.286.846 3.589l.478-.743c.202.548.495 1.117 1.077 1.343.713.277.692.187.694.985.003 1.146.955 1.867 1.556 2.734.338.487.664 1.041.885 1.588.284.7.104 1.16.036 1.877-.102 1.072.934 1.893 1.557 2.653.195.237.304.354.414.643.08.215-.032.351.13.58.293.414.906.303 1.141.812.221.477-.086.957-.134 1.428-.076.753.378 1.447.626 2.134.269.746.477 1.517.576 2.304.057.453.081.911.064 1.368-.008.211-.171.742-.032.934.18.248.573-.036.737.239.337.566-.92.747-1.166.834.291.184.675.313.912.573.313.344.12.549.249.934.142.422.649.536.807.908.162.381-.154.463-.319.78-.403.773-.041 1.931.118 2.724.064.318.034 1.146.234 1.393.127.157.413.099.524.237.234.289-.012.406-.108.738-.121.421-.1.867.012 1.287.107.398.366.764.439 1.168.079.444-.142.595-.294 1.007-.338.918-.1 2.054.015 2.99.134 1.088-.248 2.117.037 3.125l.911-.393-.288 1.44-.143.709c.06.307-.044.429-.309.365-.522.15-1.327-.67-1.757-.912-1.293-.729-2.688-1.252-4.03-1.882-1.395-.653-2.562-1.537-3.84-2.37-1.316-.859-2.704-1.595-3.987-2.503-5.549-3.931-11.566-7.247-17.352-10.823 1.621.183 1.915-1.961 2.237-3.102zm-6.864-44.723c-.868.252-.669.986-.339 1.624.334-.315.923-.684 1.079-1.134.194-.559-.24-.635-.74-.49zm-24.276 21.721c.046.223.096 1.133.267 1.274.156.128.956-.052 1.168-.063.67-.035 1.182.1 1.817.257 1.092.27 1.289-.408 1.294-1.423.839 1.654 2.237 2.481 4.023 2.8.798.143 1.654.313 2.463.348a9.213 9.213 0 001.882-.131c.379-.066.724-.298 1.081-.366.783-.146.078.417.643.567.145.038.693-.198.907-.211.346-.021.694.037 1.04.019.785-.041 1.041-.477 1.662-.813.326-.176.548-.15.898-.101.383.054.092.181.54.102.144-.026.405-.187.524-.241.848-.38 1.511-.718 2.166-1.378.479-.482 1.082-.806 1.56-1.284.172-.173.266-.384.418-.562.198-.231.211-.173.459-.345.283-.196.502-.307.674-.617.294-.53.283-1.262.329-1.85.157-2.004-.202-3.789-1.156-5.556-1.036-1.918-1.894-3.947-3.106-5.765-1.097-1.645-2.473-3.19-3.823-4.633-.381-.409-.797-.884-1.259-1.203-.301-.206-.693-.299-.977-.525-.674-.538-.346-1.524-.346-2.272-.213.376-.546.938-1.056.815-.336-.081-.347-.458-.589-.605-.187-.114-.407-.057-.614-.078.815-3.994 1.865-8.024 3.178-11.886 3.589 3.515 7.18 7.056 10.665 10.676 1.798 1.867 3.457 3.86 5.246 5.735 1.882 1.971 3.804 3.901 5.705 5.851-.517.499-1.109.838-1.462 1.482-.324.59-.697 1.039-1.144 1.545-1.009 1.143-1.492 2.847-2.116 4.224-.123.27-.156.352-.123.597.019.149.174.281.177.463.003.231-.106.384-.244.56-.129.164-.508.351-.539.565-.038.255.225.426.313.665.385 1.053-.882 1.797-1.31 2.623-.235.453-.344.911-.041 1.364.247.371.793.515.503 1.079-.181.354-.685.16-.61.651.04.263.549.51.072.799-.385.233-.843-.184-.663.539.08.322.513.647.389 1.009-.121.351-.751.408-1.002.684-.316.347-.459.928-.521 1.38-.214 1.541-.569 2.939-.923 4.452-.237 1.014.374 1.031 1.276 1.038-.608.852-1.207 1.706-1.856 2.526-.635.804-.8 2.05-1.098 3.022-.357 1.168-.707 2.34-1.054 3.509-.159.534-.269 1.055-.057 1.591.244.617.24.62.128 1.259-2.815-1.611-5.472-3.402-8.141-5.242-1.28-.883-2.563-1.762-3.829-2.665-.996-.711-1.978-1.482-2.619-2.543-1.488-2.462-3.677-4.393-5.666-6.47-1.012-1.057-1.954-2.369-3.191-3.171-1.196-.777-2.465-1.464-3.672-2.236l1.34-1.835z" fill="#85A090"/><path fill-rule="evenodd" clip-rule="evenodd" d="M285.24 202.855c-1.146-.545-2.204-1.279-3.319-1.885-.967-.527-1.846-.781-2.677-1.511-.348-.305-.674-.42-1.083-.622-.518-.256-.912-.71-1.372-1.05 1.174-.457 2.326-1.162 3.624-1.178.576-.006 1.106.198 1.682.092.586-.109 1.043-.408 1.509-.754.845-.625 1.22-.533 2.135-.015.219.124.517.4.784.392.431-.013.365-.278.552-.573.17-.268-.046-.299.265-.307.187-.005.272.253.481.294.396.077 1.145-.31 1.541-.382.668-.12 1.181.024 1.841.066.685.043 1.353-.115 1.995-.334.586-.199 1.15-.48 1.742-.658.772-.232.929.069 1.642.233 1.086.249 2.139-1.311 3.133-.487-1.458 2.121-3.453 3.91-5.297 5.712-.991.968-1.995 1.916-3.083 2.778-.49.389-.991.766-1.49 1.144-.226.173-.454.344-.679.519-.405.312-.368.405-.753.226-.517-.242-.917-.753-1.483-.998-.56-.242-1.138-.44-1.69-.702zm-.724-46.458c-.041.954-.635 1.736.203 2.543l.075-1.421c.026-.493.275-1.029-.278-1.122zm.934-4.156c.142.414.322.714.718.925.566.302 1.35-.187 1.743.242.397.433.351 1.448.868 1.802.165.113.348.034.545.182.169.126.176.427.348.56.282.217.523-.005.79.121.298.142.347.482.427.78.077.292.076.669.291.898.261.277.867.474 1.186.672l3.446 2.142c-.342.346-1.097.739-1.185 1.249-.059.348.182.386-.107.66-.131.124-.595.257-.753.336-.651.326-1.312.613-2.024.768-.848.184-1.697.097-2.541.299-.887.211-1.76.374-2.676.354-.782-.018-1.52-.235-2.294-.302-1.451-.125-3.333.005-4.517-1.016.118-1.048.235-1.845.625-2.844.359-.917.724-1.831 1.096-2.743.75-1.84 1.514-3.615 2.468-5.355.194 1.219.661-.385 1.121-.398.338-.009.341.423.425.668zm-80.366 13.236c-.639.158-1.152.239-1.751.514-.442.203-.611.311-.997-.037-.21-.188-.249-.468-.518-.609-.266-.138-.628-.093-.912-.108-.721-.038-1.442-.053-2.163-.08l2.487-2.386c.129.221.474 1.034.728 1.087.076.015.313-.239.441-.249.136-.011.235.051.354.103.306.136.443.45.785.534.336.082.717-.073 1.057-.081.094.321.333.899.489 1.312zm1.015-10.32c-.144-.595.166-1.21.072-1.815l.205-.308c.16.357.263.709.48 1.04.181.276.464.508.587.822.222.571-.057 1.04-.337 1.546-.374-.417-.869-.715-1.007-1.285zm4.929 1.286c.503.011.311.245.38.62.043.237.16.447.289.647.258.4.879.803.525 1.345-.302.46-.318-.115-.569.111-.264.236 1.475 2.008 1.736 2.105.142.052.296-.108.43.005.12.102-.043 1.122-.038 1.33.013.546.05 1.134-.395 1.524-.517.453-1.368.47-1.98.727-.419.177-.812.429-1.254.548-.466.124-.867-.135-1.269-.075-.301.045-.891.534-1.196.68-.41.196-.49.226-.889.074-.22-.084-.65-.246-.799-.437-.225-.288-.053-.284-.083-.677-.054-.717-.805-.633-1.321-.835 1.021-.306 1.585-1.401 2.088-2.294.221-.394.672-.865.792-1.306.149-.553-.264-.91-.512-1.372.338.138 1.665.746 1.026.027-.199-.223-1.43-.588-.929-1.171.302-.349.694.366 1.043.296.405-.081.885-.758 1.223-.981.408-.27 1.205-.902 1.702-.891zm122.463 20.471a18.259 18.259 0 00-.799-5.034c-1.018-3.351-3.177-6.288-3.872-9.745-.334-1.663-.226-3.35-.547-5.017-.338-1.756-.324-3.556-.387-5.338-.064-1.755-.128-3.512-.105-5.269.007-.63.185-1.506.025-2.116-.134-.512-.339-.32-.774-.504.302-.186.922-.278.988-.664.044-.265-.215-.555-.202-.847.011-.24.126-.481.196-.705.381-1.23.923-3.122.221-4.303.422-.071.593-.202.984-.024.422.193.842.62 1.208.91.727.576 1.45 1.161 2.104 1.822 1.23 1.246 2.24 2.682 3.312 4.061a229.154 229.154 0 003.272 4.083c.854 1.049 2.209 2.645 3.4 1.233.357.474.584.951 1.169 1.181.713.281 1.018.572 1.533 1.175.104.122.412.639.546.687.271.099.115-.085.328-.221.333-.215.492-.361.611.232.053.264-.088.512.04.773.12.243.492.485.717.617.524.307 1.119.277 1.681.466.927.31 1.518 1.714 2.536 1.042.369-.245.662-.626 1.144-.366.359.194.421.672.938.483.272-.099.494-.454.809-.569.222-.082.461-.114.695-.142.517-.062 1.043-.04 1.544-.201 1.092-.35 1.842-1.316 2.586-2.131.554-.608.383-.988.229-1.761a43.715 43.715 0 00-.431-1.963c-.32-1.29-.735-2.564-1.356-3.744-.722-1.373-1.777-2.524-2.74-3.728-2.006-2.503-3.897-5.142-6.073-7.5-.409-.442-1.109-.923-1.034-1.598.081-.741.924-.381 1.441-.252 1.387.344 2.663 1.015 3.986 1.533.732.287 1.712.847 2.496.48.739-.348 1.91-1.279 1.497-2.132-.317-.655-.661-1.129-.829-1.87-.151-.66-.243-1.334-.382-1.998a52.533 52.533 0 00-1.215-4.668c-.897-2.936-1.99-5.807-2.977-8.713 4.046.364 7.734 1.539 11.536 2.896-.18.37-.518.899-.382 1.332.168.533.888.354 1.066.721.212.432-.429.681-.239 1.237.159.466.618 1.005.883 1.424-1.244.801-.76-.863-1.633-.977-.243 1.324.316 1.948.832 3.062.46.993-.597.898-.814 1.64.608.101 1.025-.178 1.29.538.114.304-.057 1.418.307 1.449.268.023.183-.465.4-.51.27-.057.961.914 1.13 1.096-.736 0-1.138.078-1.835.357.452.441.908.872 1.377 1.295-.429.177-1.159.217-1.38.695-.204.444.106 1.246.15 1.707-.184-.276-.452-.927-.736-1.104-.374-.234-.482-.003-.459.509.043.939 1.271.879 1.443 1.628.171.741-.892.225-.92.962-.015.419.475.779.233 1.223.544-.304.61-.484.906-1.078.207.752.655 1.941.409 2.721-.201.637-.623.48-.14 1.097.179.228.427.408.433.719.014.719-1.016 1.277-.216 1.917.31.248.646.276.804.708.137.373-.003.872.108 1.278.22.807.807 1.407 1.394 1.971.524.504 1.002 1.089 1.575 1.527.311.238.426.378.636.688.09.132-.02.257.1.379.141.143.5.129.691.165.625.122 1.384.374 1.593 1.068.763-.577 1.54.124 2.279.352.369.114.707.142 1.055-.052.556-.309.53-.354 1.196-.258 1.855.267 3.385-1.662 4.418-2.96.752-.945 1.166-2.121 1.362-3.3.231-1.387.471-2.762.598-4.164.267-2.936.166-5.828.061-8.77 3.429 1.805 6.642 4.156 9.713 6.507 3.063 2.344 5.683 5.277 8.436 7.98-.7.045-1.375.293-2.078.307-.346.007-.685-.035-1.003-.179a2.005 2.005 0 01-.479-.307c-.127-.254-.304-.298-.532-.132-.689-.057-1.327-.199-2.018-.299-.875-.125-1.806.138-2.665.286-1.607.278-3.312.093-4.865.592-1.358.436-2.773 1.059-4.081 1.624-1.258.543-2.364 1.732-3.43 2.582-.615.49-1.293.699-1.94 1.1-.627.387-1.102 1.232-1.545 1.803-1.069 1.38-2.262 2.655-3.332 4.027-.478.614-.91 1.279-1.181 2.012-.14.374-.152.794-.286 1.159-.119.326-.345.514-.544.792-.656-1.763-1.291-3.532-1.97-5.286-.261-.673-1.427-3.909-2.339-2.668-.785 1.068-.341 3.261-.095 4.453.328 1.597.692 3.188 1.051 4.779.71 3.157 1.362 6.343 2.267 9.451.058.201.175.445.19.654.026.362.151.156-.097.408-.127.129-.429.091-.549.245-.22.281-.144 1.258-.128 1.6.03.649.394.934.563 1.512.148.505-.104 1.023-.108 1.533-.013 1.261.644 2.633.871 3.883.146.792-.311 2.048.803 2.199-.277.467.051.665.294 1.009.303.428.323.859.514 1.351.169.434.431.734.478 1.165.042.392-.132.767.003 1.165.158.469.458.524.854.728.383.198.271-.033.404.352.059.169-.02.56.017.756.173.924.911 1.542 1.525 2.188.231.243.529.805.811.954.413.219 1.031-.161 1.409.041.347.186.711 1.666.839 2.025.271.765.529 1.536.787 2.305.949 2.817 1.881 5.641 2.819 8.461-.448-.01-1.197-.503-1.631-.302-.497.232-.177.913-.364 1.284-.134.266-.912.226-1.278.245-.608.034-.885-.141-1.433-.3-.945-.274-2.134-.178-3.119-.285-2.181-.236-4.424-.302-6.568-.78-2.053-.457-4.021-1.216-6.035-1.807.94-.494 1.115-1.711 1.385-2.637.149-.513.204-.918.493-1.383a8.605 8.605 0 00.836-1.687c.822-2.333.86-5.224.582-7.655-.569-4.967-2.342-9.619-5.074-13.788a36.011 36.011 0 00-4.491-5.528c-1.708-1.732-3.46-3.627-5.464-5.022-.908-.633-1.968-.855-2.761-1.609-.609-.577-1.585-.705-2.333-1.113-1.043-.57-1.929-1.019-3.103-1.259-.863-.177-1.834-.617-2.734-.505-.615.077-.385.364-.747.647-.478.374-.305-.153-.659-.285-.298-.112-.487.172-.736.263-.113.041-.619.033-.593.017-.274.166-.229.751-.385 1.028-.168.298-.417.5-.522.838-.14.453-.044.795.146 1.18.211.425.528.634.02 1.046 1.267.832.485 2.503 1.438 3.511.324.342 1.053.821 1.042 1.352-.012.574-1.044.801-.513 1.374.484.52 1.526.274 2.085.738.564.467.376 1.272.427 1.915.039.492.519 1.086.319 1.561-.13.312-.358.266-.368.606-.008.276.221.642.296.909l.634-.277c.1.372.273.731.319 1.115.056.451-.129.669-.223 1.071-.095.404.123 1.104.163 1.587.046.552.101 1.132.494 1.56.233.254.553.293.804.49.234.183.306.429.466.672l-1.091-.32c.147.693.408.974.871 1.519l.229-1.201c.132.42.371.755.348 1.208-.02.387-.194.758-.196 1.158-.003.778.572 1.287.337 2.036-.285.904-.344 1.38-.062 2.306.246.812.591 1.62.651 2.475.068.965-.368 1.795-.277 2.775.041.455.231.775-.276.825-.452.045-.943-.328-1.333-.514-1.93-.917-3.853-1.849-5.778-2.776.359-.499.271-.514.047-1.128l-.505-1.387c-.356-.983-.714-1.964-1.082-2.943-.684-1.821-1.6-3.621-1.934-5.549-.301-1.742-.146-3.478-.171-5.231zm84.927 87.015c.223-.51.572-.602 1.1-.703 2.273-.437 4.566-.439 6.86-.65a12.807 12.807 0 001.937-.309c.533-.133 1.036-.43 1.558-.554 1.043-.248 2.076.44 3.118.39.533-.026.983-.343 1.491-.476.416-.109.794-.024 1.219.004.822.052 1.651.01 2.469-.074a18.785 18.785 0 002.989-.548c.648-.175 1.628-.364 2.107-.858a34.927 34.927 0 012.8 5.251c.769 1.778 1.792 3.46 2.73 5.156 1.911 3.456 3.28 7.167 4.573 10.884-.713-.327-1.229-.66-1.765.078-.504.698-1.103.47-1.921.601-1.311.212-1.453 1.66-1.74 2.742l-1.272-1.58c-.34.378-.887.575-1.165 1.01-.177.278-.077.536-.182.802-.098.246-.348.346-.536.521-1.298-1.657-2.517 1.46-2.674 2.527l-.488-1.24c-.23.25-.545.463-.725.755-.113.182-.108.506-.227.657-.18.225-.297.126-.554.188-.414.1-.334.077-.574.395-.723.962-1.8 1.703-2.409 2.738-.765 1.302-1.808 2.643-2.268 4.082-.264.824-.379 1.598-.809 2.364-.226.404-.617.75-.821 1.144-.254.49.193.692.143 1.131-.05.442-.785.871-1.149 1.009-.574.215-1.254.148-1.859.165-.779.023-1.702-.006-2.459-.23-.658-.196-.607-.533-.788-1.113-.214-.687-.59-1.346-.888-2-.444-.974-.659-1.622.67-1.914-.763-.128-2.01-.352-1.767-1.372.117-.491.559-.82.491-1.361-.068-.551-.495-.737-.903-1.024-.771-.541-1.325-1.553-1.605-2.43-.155-.487-.198-.867-.034-1.355a8.57 8.57 0 00.46-2.224l-1.055.112c.077-.311.089-.558.231-.844.047-.093.291-.166.277-.298-.024-.228-.334-.223-.469-.383-.349-.411-.451-1.372-.596-1.871-.137-.473-.21-1.049-.469-1.474-.481-.792-1.075.326-.955-.799.061-.569.105-1.413.816-1.496.847-.099 1.091.235 1.011-.779-.055-.716.138-2.255-.632-2.64-.367-.183-.971-.161-1.38-.195-.491-.042-.876.217-1.327.202-.756-.026-.713-1.102-.8-1.649-.383-2.432-.576-4.907-.339-7.364.094-.97.154-2.19.554-3.101z" fill="#85A090"/><path fill-rule="evenodd" clip-rule="evenodd" d="M398.715 167.918c.05-1.775.05-1.775-.937-2.448-.261 1.13.388 1.697.937 2.448zm-17.93 4.531c-.213-.423-1.091-.299-1.463-.294.174.358.777 1.229.961 1.894.204-.385.71-1.188.502-1.6zm2.305 12.574c-.386-.305-.296-.29-.48-.658-.143-.285-.109-.435-.414-.625-.619-.382-.714-.381-.873-1.198-.139-.712-.082-1.727-.394-2.385-.225-.473-.965-.516-.978-1.109-.025-1.152 2.062-1.739 1.664-2.901-.119-.346-.495-.454-.655-.751-.097-.182-.031-.419-.063-.613-.072-.434-.191-.528-.593-.642.045.198.047.375-.021.507-.264.509-1.313-.101-1.551-.452-.494-.725-.038-1.928.124-2.684.221-1.027.187-1.809.105-2.839l-1.342 1.47c-.244-.742-.287-1.14-.968-1.604-.632-.43-.877-.715-1.283-1.353-.154-.242-.259-.511-.564-.597-.299-.083-.791.239-1.042.115-.155-.078-.323-.881-.376-1.025l-.502-1.367c.957-2.412 1.739-4.97 3.169-7.163 1.31-2.011 3.207-3.635 5.125-5.062.955-.713 1.923-1.438 2.928-2.083 1.008-.648 2.097-.882 3.173-1.366 1.078-.485 2.318-.987 3.514-1.048.609-.031 1.196.111 1.806.031.674-.088 1.322-.316 1.992-.43.002 3.497 1.277 7.043 2.469 10.295.543 1.48 1.321 2.846 1.891 4.315.574 1.478 1.137 2.952 1.761 4.41 1.286 3.005 2.459 6.139 4.116 8.965.147.25.314.429.226.651-.025.063-.236.191-.291.247a2.704 2.704 0 00-.419.583c-.272.493-.397 1.049-.598 1.571-.46 1.196-1.281 2.369-1.916 3.488-.725 1.279-1.697 2.397-2.765 3.409-.503.476-1.247.914-1.549 1.545-.237.495-.247 1.076-.414 1.593a528.1 528.1 0 01-.176-1.24c-.439.931-1.571 1.017-2.39 1.481-1.037.587-1.94 1.311-3.046 1.786-1.114.479-2.276.864-3.477 1.06-.598.097-1.224.17-1.831.143-.62-.027-1.066-.327-1.628-.547 1.764-1.518 1.122-4.151.116-5.901l-.929 2.04c-.204-.484-.902-.94-.591-1.508.187-.343.431-.255.485-.653.042-.302-.161-.716-.309-.974-.134.361-.188.69-.236 1.073zm5.14 11.321c.397-.874 2.029-1.076 2.849-1.244 1.354-.277 2.651-1.076 3.869-1.712 1.166-.609 2.151-1.177 3.095-2.085.44-.423.805-.514 1.349-.757.522-.233.877-.598 1.255-1.016.788-.873 1.818-1.534 2.417-2.56.606-1.041 1.446-1.706 2.191-2.644.872-1.097 1.49-2.367 2.248-3.539 1.359 1.461 1.727 3.741 2.551 5.515a260.31 260.31 0 012.974 6.678c1.728 4.014 3.408 8.054 4.914 12.158.055.151.351.652.3.814-.05.159-.433.332-.554.461-.318.337-.518.75-.774 1.135a15.248 15.248 0 01-1.581 1.976c-1.305 1.39-2.823 2.691-4.484 3.635-.722.41-1.751 1.223-2.577 1.152-1.062-.09-1.87-.162-2.939.079-1.041.234-1.949.438-3.022.409-.419-.011-.854-.067-1.254.098-.286.118-.491.445-.815.459-.406.018-.649-.364-1.025-.503-.327-.121-.679-.138-1.024-.121-.506.024-1.684.479-2.088.089-.437-.42-.271-1.635-1.089-1.794-.607-.119-1.838.99-2.334 1.301.215-.645.952-1.906.551-2.582-.173-.293-.414-.346-.761-.275-.404.082-.438.37-.759.549-1.742.977-1.587-3.667-1.529-4.377l1.328-.077c0 .408-.128 1.32.145 1.486.227.137 1.049 0 1.334 0-.605.575-.888 1.066.025 1.557a.98.98 0 001.459-.801c.069-.8-1.182-.922-.952-1.713.307-1.06 1.243.736 1.413 1.049.25-.92.094-1.763-.524-2.49-.732-.863-1.566-.915-2.605-.642-.099-.436-.323-.736-.443-1.133-.143-.475.075-.362.285-.774.341-.671-.342-.904-.47-1.481-.077-.344.064-.645.232-.933.187-.32.55-.541.013-.716-.398-.13-.869.251-1.245-.092-.408-.372-.258-1.149-.479-1.612-.333-.7-.704-.268-1.245-.072-.405.148-.527.134-.576-.314-.025-.223.005-.447.177-.605.281-.258.669-.074.985-.16.43-.117.451-.388.615-.775-.749-.067-.76.172-1.439.458-.54.227-1.132.194-1.675-.006.377-.134.836-.168 1.173-.402.428-.298.331-.645.515-1.051zm-46.683-25.298c-.741-1.367-1.411-2.767-2.078-4.17-.404-.853-1.279-2.031-.241-2.734.7-.474 1.98-1.14 2.864-.782.751.304 1.163 2.077 2.196.914.188.537.829.449 1.213.739.285.216.259.434.432.711.179.287.48.483.702.733.195-.385.398-.696.67-1.038.235.395.18.636.31 1.035.075.23.14.389.382.479.552.206 1.095-.47 1.375-.842-.166.581-.252 1.257.146 1.764.309.394.811.47 1.101.881.326.461.347.81.931 1 .112.036.503.136.624.134.129-.003.192-.224.246-.223.178.005.481.223.644.299-.364.457-.221.648.171.945.476.361.45.399.683.952.111.263.242.501.502.646.262.146.61.022.828.173.44.307.39 1.101.737 1.488.468.522 1.058.884 1.49 1.468.436.589.784 1.236 1.117 1.887.647 1.261 1.512 2.437 1.6 3.871.035.59-.014 1.376.258 1.923.275.555.871.779 1.101 1.422.193.545.315 1.225.383 1.798.084.693-.35 1.216-.048 1.888.288.639.345 1.099.4 1.805.053.655.57 1.1.252 1.659-.309.543-.626.942-.713 1.596-.095.709.02.967.636 1.267-.373.632-.781 1.122-.987 1.836-.198.685-.455 1.28-.891 1.852-.862 1.131-1.952 1.728-1.933 3.301l-11.74-3.92c1.509-.284.738-2.925.639-3.912-.18-1.808-.375-3.625-.637-5.423-.225-1.548-.665-3.048-.906-4.595-.124-.801-.244-1.606-.454-2.391-.183-.684-.569-1.325-.722-1.995-.351-1.521-.566-2.936-1.201-4.391-.607-1.393-1.359-2.716-2.082-4.05zm113.996 134.686c-.307-.214-.597-.173-.956-.212-.925-.1-1.725-.304-2.629-.569-1.081-.316-2.231-.499-3.342-.691-1.064-.184-2.143-.14-3.182-.452-1.04-.311-1.873-.603-2.966-.646-1.197-.046-1.9-.603-2.879.395-.877-1.222-2.146-1.215-3.543-1.407-.502-.07-1.085-.002-1.197-.6-.104-.556.339-1.293.581-1.745 1.286-2.396 2.371-4.93 4.081-7.066 1.676-2.095 3.847-4.416 6.215-5.724 1.284-.709 2.765-1.1 4.125-1.633 1.475-.579 2.919-1.236 4.374-1.861.757.81.819 1.788 1.198 2.814.354.957.96 1.799 1.282 2.768.645 1.942 1.196 3.865 2.003 5.755 1.704 3.994 3.357 7.974 4.905 12.034a79.16 79.16 0 00-7.272-.768c-.483-.03-.451-.15-.798-.392zm-129-149.168c-.698.074-1.524.254-1.967.852-1.893-2.736-4.167-5.18-6.533-7.513-2.298-2.266-4.632-4.507-7.151-6.53-5.096-4.093-10.722-7.379-16.543-10.324 1.845-2.121 3.659-4.274 5.517-6.382 1.735-1.967 3.778-3.626 5.805-5.281.163 1.642.449 3.322.434 4.973-.015 1.664-.243 3.32-.266 4.983-.018 1.352.025 2.792.373 4.105.269 1.015.876 2.5 1.988 2.824 1.516.442 4.086-.307 5.221-1.371.977-.916 1.493-2.282 2.269-3.354.531-.733 1.089-1.045 1.984-.755 1.339.436 2.629 1.23 3.886 1.858 1.421.71 2.838 1.43 4.26 2.14-.097.069-.676.366-.701.497-.008.041.324.726.334.861.039.532-.219 1.042-.379 1.534-.171.524-.307 1.07-.285 1.626.024.591.35.996.467 1.538.123.57-.299.772-.517 1.27-.223.509-.232 1.059-.135 1.599.079.44.347.894.343 1.338-.002.239-.206.505-.134.751.071.244.362.383.53.546-.767.503-.91.43-.606 1.251.219.592.14 1.176.044 1.782-.053.33-.394 1.208-.163 1.541.21.305.902.067 1.221.055-.118.616-.284.551-.574 1.061-.188.332-.17.763-.15 1.133.051.958.641 1.065 1.428 1.392zm112.893 101.45c-1.03.301-2.021.526-3.095.597-.93.063-1.89.089-2.754.483-.317.144-.662.536-1.007.531-.413-.007-.284-.288-.573-.47-.276-.174-.481.021-.752.094-.403.11-.807.105-1.225.119-1.156.038-2.311.062-3.467.091-1.041.025-2.049.196-3.084.202-1.093.006-2.186 0-3.279 0 .861-1.651 1.583-3.382 2.926-4.704.681-.67 1.252-1.419 1.897-2.121.64-.697 1.428-1.194 2.138-1.809.746-.647 1.352-1.322 2.222-1.818.36-.204.765-.474 1.158-.595.324-.1.645-.057.944-.234.352-.207.667-.636 1.007-.882.356-.257.734-.481 1.119-.694.767-.426 1.566-.793 2.311-1.26a150.604 150.604 0 016.228 12.923c-.834-.663-1.721-.744-2.714-.453zm-59.881-129.397c-.214.253-.454.506-.597.808-.164.348-.068.683-.168 1.015-.123.41-.598.592-.309 1.106.195.351.664.433.799.843.242.736-.6 1.412-.934 1.991-.199.345-.337.711-.258 1.11.048.245.261.426.318.642.096.379 0-.006-.044.38-.046.399-.209.818-.239 1.238-.032.436.121.905.04 1.327-.177.927-.849 2.21-1.388 2.99-.467.676-.852.916-1.619.613-4.098-1.615-4.925-6.045-5.755-9.829-.492-2.243-.77-4.406-.796-6.7-.026-2.4-.212-4.802-.035-7.2.678.194 1.526.264 1.996.846.251.311.256.702.496.984.33.388 1.015.718 1.442 1.036l6.442 4.81.899.671c.308.23.393.193.343.528-.039.263-.467.595-.633.791zm-28.768 13.369c.386.502 1.117.615 1.587 1.078.454.449.716 1.018.933 1.605.29.777.601 1.339.621 2.181.019.783.267 1.501.386 2.265.08.518.052.677-.472.829-.729.211-1.613.192-2.359.116-3.579-.365-6.402-3.132-8.574-5.72-2.491-2.967-4.469-6.29-6.61-9.498 1.026-.578 2.136-1.009 3.115-1.667.92-.62 1.743-1.398 2.648-2.051.124.376.124.806.279 1.171.176.414.423.483.8.719.68.425 1.23 1.007 1.666 1.668.4.608.598 1.384 1.08 1.922.451.504 1.105.705 1.617 1.107.753.592 1.375 1.65 1.982 2.39.495.603.839 1.283 1.301 1.885zm66.748 32.553c-.138.375-.426.902-.216 1.3.384.727.764-.346 1.142-.519-.089.624-.158 1.246-.319 1.856-.109.411-.254.829-.177 1.261.083.461.462.721.467 1.189.004.437-.225.884-.292 1.315.719-.085.875-.178 1.312.364-.179.055-.622.093-.764.209-.208.169-.1.088-.147.403-.063.421.016 1.117.031 1.569.016.523.316.427.542.785.158.25.118.732.078 1.009-.055.381-.373.801-.326 1.184.055.464.495.491.714.838.286.455.034.789-.094 1.257-.175.641-.149 1.312-.233 1.966-3.139-6.313-5.599-12.946-9.115-19.063a39.67 39.67 0 01-.255-.448l.311-.184c.047-.307.034-.688.061-1.029.061-.739.265-1.455.359-2.188.105-.82-.078-1.607.002-2.419.027-.281.093-.56.099-.843.01-.428-.224-.742-.258-1.12-.034-.387.193-.902.195-1.317a6.608 6.608 0 00-.081-.974c-.125-.864-.384-1.701-.515-2.564-.268-1.771-.285-3.573-.589-5.342.474.697 1.008 1.35 1.478 2.05.469.697.77 1.466 1.195 2.185.359.609.795 1.165 1.259 1.695.387.442.381.414.226.963-.066.235-.157.511-.119.761.164 1.074 1.772.711 1.539 1.88-.119.591-.564 1.134-.323 1.765.217.567.867.856 1.114 1.418.271.62-.092 1.046-.116 1.648-.02.524.214.932.573 1.29.493.491.471.814.597 1.511.111.611.337 1.213.649 1.749.313.536.698.697.534 1.3-.12.436-.38.863-.538 1.29zm7.476 9.666c-.538 2.06-1.368 4.044-2.506 5.833-.193-1.045-.5-2.05-.553-3.118-.052-1.057-.087-2.105-.204-3.158-.218-1.971-.585-3.92-.988-5.859-.847-4.07-1.65-8.144-2.512-12.21 1.279 2.029 2.559 4.058 3.824 6.097.617.993 1.233 1.987 1.847 2.982.502.813 1.419 1.831 1.56 2.797.16 1.094.053 2.378.016 3.485a14.226 14.226 0 01-.484 3.151zm-17.985-24.379c-.023.279-.218.587-.273.874-.065.34-.061.69-.07 1.034-.021.833-.056 1.665-.084 2.498-1.685-2.315-2.588-5.07-4.106-7.485-.657-1.046-1.384-2.057-1.866-3.198-.53-1.254-1.019-2.502-1.631-3.721-.334-.666-.677-1.327-1.008-1.995-.158-.32-.325-.47-.155-.782a.868.868 0 01.446-.336c.437-.093.691.422 1.038.597.473.239 1.068.158 1.564.325 1.143.384 2.239 1.096 3.358 1.562.357.148.614.207.586.633-.025.379-.417.302-.014.632.218.178.504.095.755.07 0 .819-.169 1.314.231 2.043.32.585.189 1.031.227 1.648.044.707.318 1.439.584 2.09.249.611.619 1.088.258 1.726-.2.351-.628.608-.378 1.009.223.36.582.225.538.776zm4.853 108.33c1.214-.719.065-1.45 0-2.122v2.122zm1.856-4.107c.184.009.809.075.922.265.05.084-.049.866-.048.984.003.598.064 1.195.031 1.793-.033.613-.341 1.177-.367 1.764-.024.553.326.848.49 1.34.218.649-.072 2.434-.796 2.615-.016-.153-.048-1.336-.155-1.387-.346-.163-.514.731-.613.975-.959-.947-1.243-2.246-1.692-3.517-.518-1.462-1.034-2.925-1.551-4.387.635-.063 1.272-.101 1.905-.185.614-.08 1.251-.29 1.874-.26z" fill="#85A090"/><path fill-rule="evenodd" clip-rule="evenodd" d="M326.543 143.295c-.355-.322-.904-.533-.97-1.058-.065-.521.426-1.386.582-1.863l.388 2.921zm78.724 100.084c.921-.004-.076-1.918-.223-2.358-.291.496-.987 2.363.223 2.358zm-7.684-24.214c-.363-.216-1.049-.469-1.247-.879-.229-.474.241-.47.655-.499.488-.034 1.129-.065 1.606.027.489.096.698.208 1.157-.081.26-.163.506-.569.804-.628.31-.062.669.266.937.39.937.432 1.93.152 2.923.199.375.018.687.107 1.035-.054.444-.206.546-.481 1.093-.444.886.06 1.564.329 2.473.088.563-.149 1.338-.743 1.944-.56.563.17.858 1.054 1.303 1.428.149-.77.23-1.622.822-2.2.663-.648 1.737-.881 2.505-1.412 1.733-1.201 2.989-2.929 4.31-4.539a19.616 19.616 0 011.996 3.842c.535 1.354 1.055 2.714 1.59 4.068a231.25 231.25 0 003.409 8.112c2.397 5.451 5.089 10.752 7.448 16.223-1.613.039-3.189.831-4.579 1.59-.363.198-.379.277-.612.59-.113.152-.267.522-.471.572-.121.029-.504-.183-.693-.155-.284.041-.483.225-.698.394a82.398 82.398 0 00-4.002 3.346 6.701 6.701 0 00-1.394 1.711c-.443.753-.921 1.231-1.595 1.78-1.088.885-1.717 2.439-2.477 3.623-.437.681-.863 1.372-1.197 2.11-.302.667-.407 1.468-.957 1.991-1.163 1.103-2.981.47-4.39.652-.554.072-.688.228-1.186.005-.006-.196-.081-.266-.225-.21a1.192 1.192 0 00-.448.222c-.367.199-.716.44-1.072.658l-.622-1.531c.233-.005 1.075.097 1.206-.254.11-.295-.352-.377-.526-.559-.193-.202-.307-.861-.683-.848-.308.011-.291.281-.287.545-.664.014-.658-.564-.771-1.056-.077-.331-.184-.658-.27-.988-.058-.222-.43-1.132-.336-1.322.237-.477 1.759-.447.789-1.027-.31-.185-1.036-.126-1.276-.387-.191-.209-.208-1.066-.264-1.353.453.031.997.305 1.274-.098.401-.581-.184-1.468-.48-1.954-.383.3-.621.629-1.058.282-.467-.373-.894-1.069-1.069-1.605.506-.015.416.085.673-.309.146-.225.188-.615.261-.866.148-.518.449-.912-.177-1.05-.391-.087-.488.004-.602.375-.15.488-.096 1.326-.154 1.849-.612-.771-1.24-1.601-1.01-2.646.39.387.43.282.899-.019.469-.3.932-.611 1.396-.919-.588-.533-1.521-.017-2.1-.455-.394-.297-.193-1.208-.22-1.619-.033-.516-.258-1.037-.227-1.554.033-.558.674-.803.334-1.315-.239-.359-.793-.305-.896-.843-.105-.539.442-.863.848-1.099-.601-.195-1.758-.403-1.214-1.207.257-.38.568-.413.563-.952-.005-.391-.263-.812-.429-1.151-.225.515-.558 1.724-1.258 1.683-.584-.035-1.102-.558-.934-1.085.518-1.626 1.99-1.744 3.423-2.049-.268-.985-.974-.929-1.688-.428-.423.295-.687.544-1.226.24-.56-.318-.289-.436-.042-.892.505-.928-.194-1.461-.878-2.002-.394-.312-.585-.701-.922-1.039-.345-.346-.903-.422-1.337-.625.52-.255.992-.519 1.572-.321.386.132.668.39 1.108.167.984-.498-.294-.625-.426-1.036-.074-.233.179-.707.083-1.039-.097-.339-.308-.627-.497-.919-.4-.621-.837-1.248-.599-2.022-.482.553-.644.675-.682 1.454-.034.691-.039 1.385-.178 2.066-.03-1.003-.952-1.672-1.108-2.638-.048-.301.198-1.038-.09-1.199-.224-.126-.683.195-.921.196.166-.917.193-1.882.504-2.768.304-.867 1.094-1.201 1.757-1.769z" fill="#85A090"/><path fill-rule="evenodd" clip-rule="evenodd" d="M144.748 121.634c1.223.256 2.402.65 3.634.884 1.461.277 2.923.531 4.395.744.988.143 1.882.369 2.531 1.193 1.208 1.535 2.425 4.182.76 5.811-.782.766-2.153.525-3.159.843-1.12.355-2.163.749-3.337.902-5.474.71-10.918 2.03-16.273 3.345-2.443.6-4.882 1.43-7.218 2.366-1.196.479-2.365 1.037-3.434 1.759-.914.617-1.958 1.225-2.695 2.053 2.929.497 6.218.555 9.146.058 1.469-.249 2.948-.179 4.429-.291 1.486-.112 2.97-.217 4.454-.347a71.282 71.282 0 004.298-.5c.529-.079 1.065-.157 1.6-.088.311.04.508.135.792.07.239-.054.494-.24.733-.32 1.097-.366 2.267-.295 3.404-.36.852-.049 1.761-.304 2.614-.116 1.5.33 2.184 2.432 2.527 3.721.216.812.044 1.822-.219 2.624-.302.921-.858.904-1.601 1.322-1.063.597-1.995 1.25-3.14 1.716-.96.391-1.942.73-2.892 1.146-2.091.914-4.358 1.707-6.328 2.861-1.068.626-2.079 1.251-3.199 1.793a21.735 21.735 0 00-2.902 1.684c-1.879 1.3-3.514 2.918-4.908 4.724.647 0 1.175.083 1.794-.135.761-.268 1.471-.662 2.241-.905 1.468-.462 2.907-.898 4.357-1.425 1.45-.528 2.934-1.05 4.414-1.486.759-.224 1.525-.324 2.294-.488.679-.145 1.281-.449 1.922-.706 3.078-1.234 6.372-1.827 9.556-2.718 3.101-.867 6.166-1.767 9.331-2.377a82.208 82.208 0 014.438-.757c1.456-.199 2.724.002 4.131.374 1.481.393 2.825.756 4.239 1.377 1.01.444 2.509.833 3.297 1.599.471.459.779.913 1.379 1.247.456.255.951.433 1.441.61 1.11.402 2.161.93 3.265 1.346.694.262 1.414.468 2.158.516.71.046.959.217 1.597.528.997.484 2.09.711 3.141 1.042 1.047.33 2.238 1.201 3.372.804 1.101-.387 1.806-1.802 2.463-2.681 1.731-2.31 3.218-4.599 4.18-7.332 1.021-2.898 1.995-5.813 2.982-8.723a654.241 654.241 0 011.553-4.534c.291-.838.894-1.74.237-2.514-.764-.897-1.035-2.311-1.824-3.316-.783-.999-1.667-1.917-2.498-2.876a24.372 24.372 0 01-1.391-1.734c-.354-.494-.617-1.099-1.01-1.557-.357-.416-.882-.662-1.274-1.046-.426-.418-.805-.914-1.196-1.366-1.025-1.186-2-2.443-3.094-3.567-.902-.928-1.933-1.753-2.86-2.667-2.009-1.98-4.142-3.827-6.223-5.727-2.027-1.85-4.1-3.641-6.073-5.535-1.853-1.78-4.078-3.22-6.156-4.708-2.276-1.63-4.458-3.352-6.909-4.727-2.345-1.316-4.706-1.712-7.323-2.102.259.507.443 1.044.785 1.503.507.676 1.17 1.28 1.743 1.902a484.761 484.761 0 003.515 3.777c2.294 2.439 4.697 4.779 6.923 7.28 1.775 1.993 3.153 4.028 3.886 6.617.387 1.365.579 2.83-.251 4.084-.635.959-1.679.885-2.731.791-2.713-.242-5.403-1.164-8.088-1.642-2.985-.532-6.036-.663-9.048-.983-1.513-.161-3.006-.577-4.518-.69-.682-.051-1.355.087-2.037.031-.678-.057-1.357-.222-2.025-.346-1.404-.26-2.68-.408-4.101-.219-1.414.188-2.764.041-4.178-.075-2.985-.245-6.045.076-9.014.398-2.843.307-5.662.649-8.438 1.326 2.908.738 5.81 1.495 8.733 2.168 2.985.687 6.067 1.149 8.997 2.035 1.275.386 2.586.441 3.884.712zm230.149 61.49c-.318-1.155-.641-2.395-1.046-3.548a2.393 2.393 0 00-.387-.67c.274.457.468.91.653 1.523.271.895.52 1.797.78 2.695zm.637 1.181zm.233.572zm-.807-1.532a4.371 4.371 0 010-.001v.001zm-177.969-10.774c1.16.738 2.287 1.204 3.238 2.225 2.141 2.303 4.447 4.482 6.508 6.854.828.953 1.246 2.133 2.171 3.02 1.052 1.007 2.335 1.792 3.524 2.622 2.643 1.844 5.26 3.837 8.049 5.454.625.363 1.258.739 1.903 1.063.424.214.959.328 1.331.63.354.288.497.715.882.994.284.207.626.375.924.563a411.144 411.144 0 007.384 4.559c2.422 1.46 4.843 2.94 7.213 4.483 1.259.82 2.449 1.741 3.715 2.55 1.03.659 2.107 1.245 3.118 1.934 1.071.731 2.072 1.48 3.245 2.053 1.134.554 2.314 1.013 3.444 1.578.666.332 1.268.736 1.902 1.118.415.25.762.213 1.213.367 1.316.449 2.495 1.228 3.836 1.643 5.574 1.723 10.963-.736 15.821-3.351 2.448-1.318 4.678-3.006 7.023-4.491 1.026-.65 2.306-1.121 3.244-1.884.472-.384.654-.788 1.206-1.091.5-.273.956-.547 1.406-.897 2.224-1.728 4.302-3.502 6.287-5.503a193.274 193.274 0 003.223-3.306c.828-.876 1.473-1.94 2.237-2.88a302.175 302.175 0 005.395-6.86c.86-1.121 1.712-2.25 2.575-3.37.575-.747 1.443-1.485 1.641-2.451.182-.89-.341-1.741-.771-2.474-.648-1.105-1.266-2.202-1.7-3.412-.653-1.819-1.65-5.303.344-6.608.734 1.215 1.661 2.297 2.452 3.473.795 1.185 1.138 2.683 2.092 3.738 1.004 1.109 2.34 1.913 3.392 2.993 1.049 1.077 2.008 2.237 3.024 3.345 1.064 1.159 2.193 2.256 3.313 3.361 1.052 1.04 2.254 1.875 3.439 2.758a42.112 42.112 0 003.852 2.533c.576.339 1.169.757 1.801.983.672.241 1.262.386 1.909.72a288.318 288.318 0 007.96 3.943c.718.343 1.474.82 2.244 1.01.296.073.465.007.791.111.344.109.685.301 1.014.447 1.372.604 2.772 1.07 4.193 1.545 2.956.989 5.958 1.891 8.882 2.971 2.737 1.01 5.399 2.104 8.22 2.887 2.778.771 5.713.9 8.574 1.18.769.075 1.672-.004 2.41.211.663.192 1.031.333 1.753.275 1.278-.102 2.471.14 3.739.335-1.93-3.793-2.932-8.112-4.33-12.129-.369-1.062-.818-2.054-1.125-3.134a13.593 13.593 0 00-1.152-2.774c-.586-1.075-.765-2.319-1.156-3.473.304.907.468 1.872.758 2.78-.402-.763-.833-1.511-1.215-2.285-.4-.808-.395-1.29-.4-2.159-1.037.119-1.076-.945-1.236-1.704-.243-1.154-.5-2.306-.748-3.458-.126-.266-.083-.703-.15-.993-.079-.343-.21-.671-.327-1.001-.905-2.56-1.9-5.075-2.557-7.714-.724-2.91-1.359-5.846-2.01-8.773-.346-1.554-.805-3.137-.956-4.724-.073-.76-.461-3.214.618-3.555.834-.265 1.727 2.272 1.945 2.83.528 1.357 1.028 2.725 1.531 4.091.451 1.222.799 2.457 1.301 3.661.508 1.217.686 2.485 1.135 3.72.264.726.689 1.259.98 1.953.212.507.29 1.057.463 1.577.361 1.076.92 2.128 1.326 3.2.52 1.368 1.16 2.686 1.731 4.033.521 1.233.819 2.532 1.309 3.768.471 1.187 1.202 2.247 1.671 3.445.515 1.316.983 2.65 1.492 3.968 1.051 2.72 2.115 5.42 2.939 8.219.206.7.557 1.388.729 2.012.155.566.432 1.014.655 1.577.399 1.009.566 2.145.768 3.208l-.06-.344c.42.017.871.109 1.164-.267.334-.427.241-1.255.303-1.768.495.065.302.287.248.734l-.083.69-.208 1.725c-.157-.093-.489-.629-.624-.644-.207-.023-.431.536-.527.813.035.103.077.204.131.307.131.255.255.434.355.711.186.517.326 1.044.59 1.532.129.239.275.468.451.675.132.154.561.409.633.571.18.405-.094 1.418-.068 1.89.032.614.131 1.271.4 1.832.113.236.318.378.424.581.149.286.156.434.191.805.122 1.322.629 2.561 1.087 3.794.514 1.385.916 2.807 1.383 4.207.441 1.325 1.007 2.599 1.474 3.914.544 1.531 1.028 3.082 1.538 4.624.381 1.154.964 2.18 1.373 3.315.42 1.163 1.01 2.207 1.214 3.416.226 1.337.931 2.676 1.44 3.928.425 1.045 1.306 2.157 1.481 3.271.082.523-.048 1.011.125 1.531.15.451.436.835.627 1.267.262.593.067 1.143.247 1.75.157.527.515.899.803 1.35.509.795.336 1.718.86 2.548.737 1.171.998 2.483 1.394 3.813.195.654.338 1.326.513 1.985.069.262.104.784.243 1.025.175.305.473.186.623.361.131.151.16.642.217.837.182.618.444 1.218.695 1.812.541 1.276 1.163 2.518 1.632 3.824.489 1.365.981 2.73 1.472 4.096.233.65.46 1.301.712 1.944.246.63.505.823.92 1.306.408.474.576 1.139.958 1.642.359.472.601.818.758 1.405.296 1.105.514 2.215.976 3.27 1.168 2.669 2.623 5.208 3.795 7.879a158.717 158.717 0 013.458 8.497c.998 2.691 1.636 5.48 2.657 8.161 1.01 2.655 1.879 5.349 2.875 8.011 1.034 2.764 2.073 5.524 2.999 8.327.334 1.01.558 2.016.775 3.033-.068-.458-.132-.907-.209-1.329.985 1.646 1.891 3.437 1.458 5.409a5.222 5.222 0 01-.638-1.266c.063.236.132.465.229.67.276.585.535 1.032.723 1.681.415 1.436.836 2.872 1.245 4.31.197.693.381 1.393.612 2.076.205.607.652 1.134.84 1.726.211.664.139 1.475.302 2.166.142.607.351 1.2.664 1.742.241.421.588.789.781 1.238.233.549.092 1.092.156 1.669.08.718.338 1.402.436 2.116.095.688-.227 1.115-.35 1.772-.128.688.132 1.141.337 1.769.175.533.276 1.102.402 1.648.054.234.093.967.259 1.123.121.113.818.131.993.162.657.114 1.313.241 1.982.241 1.405 0 2.845-.204 4.241-.353 2.825-.303 5.666-.749 8.375-1.623 2.569-.829 5.159-2.042 7.543-3.307 2.403-1.276 4.535-3.023 6.544-4.842 1.09-.988 2.128-2.032 3.167-3.074.499-.501.997-1.002 1.503-1.496.403-.395.926-.771.966-1.381.046-.687-.451-1.475-.694-2.096-.217-.554-.43-1.11-.64-1.666-.516-1.36-1.021-2.723-1.528-4.086-1.05-2.822-2.094-5.646-3.145-8.467-1.058-2.839-2.144-5.616-3.423-8.361a111.849 111.849 0 01-3.354-7.996c-.961-2.565-2.104-5.037-3.193-7.547-.584-1.348-1.138-2.712-1.585-4.112-.375-1.172-.653-2.279-1.223-3.379a11.79 11.79 0 01-.889-2.168c-.192-.664-.301-1.232-.731-1.77-.909-1.134-1.416-2.415-1.883-3.78-.911-2.661-1.967-5.349-3.241-7.858-1.292-2.543-2.721-4.982-3.898-7.582-1.184-2.615-2.795-4.966-3.904-7.623-2.285-5.479-5.437-10.525-7.754-15.99-2.282-5.383-5-10.554-7.33-15.916a236.587 236.587 0 01-3.503-8.467c-.529-1.358-1.053-2.718-1.601-4.069-.495-1.219-1.351-2.154-1.703-3.413-.36-1.289-.937-2.281-1.549-3.442-.631-1.198-.957-2.643-1.456-3.905a321.658 321.658 0 00-3.396-8.226c-1.199-2.804-2.479-5.569-3.724-8.353-.47-1.053-.733-2.184-1.218-3.23-.241-.52-.729-.961-.945-1.459-.1-.23-.077-.552-.16-.799-.111-.331-.32-.663-.474-.977-1.249-2.552-2.632-5.005-3.77-7.61-1.164-2.663-2.354-5.324-3.378-8.045-1.011-2.688-2.29-5.224-3.16-7.97-.414-1.309-.827-2.624-1.144-3.961-.277-1.165-.797-2.884-.533-4.08.162-.737 1.02-2.238 1.889-1.559.799.626 1.28 1.864 1.717 2.744.657 1.323 1.353 2.629 1.916 3.996.449 1.092.853 2.144 1.474 3.153 1.498 2.433 2.689 4.98 4.038 7.496.305.569.664 1.041 1.079 1.53.402.474.288.701.453 1.302.295 1.075 1.191 1.943 1.645 2.96.604 1.354 1.127 2.628 1.884 3.913a38.703 38.703 0 011.788 3.39c1.23 2.659 2.412 5.341 3.603 8.018.633 1.42 1.246 2.851 1.94 4.241.305.611.603 1.231.933 1.828.215.389.605.706.786 1.1.206.448-.02.827.156 1.264.203.506.426.712.869.416.989-.66 1.186-2.075 1.717-3.083 1.253-2.384 2.448-4.625 2.916-7.322.259-1.495.156-3.017.146-4.526-.01-1.338-.806-2.247-1.506-3.355a853.782 853.782 0 00-4.965-7.785c-.736-1.136-1.378-2.331-2.132-3.454-.728-1.085-1.699-1.886-2.498-2.893-.446-.561-.773-1.176-1.249-1.717-.4-.456-.783-.928-1.11-1.439-.624-.974-1.05-2.027-1.735-2.971a211.163 211.163 0 00-4.963-6.607c-.907-1.154-1.977-1.869-3.099-2.788-1.1-.9-2.084-1.927-3.097-2.921-1.952-1.916-3.792-3.916-5.963-5.58a104.415 104.415 0 00-6.871-4.849c-1.159-.749-2.598-1.313-3.529-2.325-.385-.418-.783-.809-1.276-1.1-.473-.28-1.024-.354-1.484-.61-1.303-.723-2.501-1.912-3.686-2.818l-3.54-2.705c-.496-.38-1.431-.828-1.794-1.316-.203-.275-.178-.657-.409-.946-.521-.653-1.551-.714-2.281-.995-1.404-.539-2.836-.829-4.309-1.114-1.299-.25-2.538-.806-3.785-1.242-2.728-.954-5.556-1.528-8.433-1.787 1.294 3.808 2.763 7.562 3.752 11.466.4 1.582.468 3.429 1.136 4.92.24.537.883 1.048.562 1.654-.239.452-.907.94-1.335 1.217-.886.576-1.98-.062-2.851-.41-1.468-.586-2.891-1.339-4.465-1.609-1.634-.279-3.007-1.824-4.703-1.799-.709.011-1.285.35-1.816.79-.547.453-1.166.818-1.696 1.295-1.165 1.05-2.521 1.952-3.994 2.533-.512.202-.947.097-1.421.489-.353.291-.633.711-1.106.819 2.24 2.388 4.413 4.754 6.309 7.434.93 1.313 1.622 2.596 2.13 4.123.241.723.462 1.274.001 1.972-.255.387-.662.705-1.14.632-1.152-.178-2.176-1.731-2.815-2.583-.742-.988-1.557-1.903-2.33-2.867-1.604-2.001-3.029-4.101-5.027-5.747-.596-.49-1.197-1.046-1.857-1.449-.525-.321-.897-.076-1.479-.178-1.459-.257-2.769-1.018-4.072-1.676a310.73 310.73 0 00-4.246-2.117c-.744-.362-1.84-1.127-2.715-.761-.977.409-1.53 1.936-2.066 2.753-.514.785-.978 1.468-1.823 1.914-1.385.734-4.077 1.625-5.291.213-1.718-1.998-1.544-5.272-1.395-7.722.091-1.503.275-3.017.16-4.523-.102-1.324-.258-2.645-.388-3.968-2.443 1.999-4.751 4.029-6.775 6.459-1.076 1.293-2.192 2.551-3.304 3.815-.556.632-1.057 1.186-1.437 1.931-.327.642-.793 1.197-1.28 1.723-1.017 1.099-1.712 2.559-2.488 3.841a231.08 231.08 0 00-2.218 3.74c-1.421 2.453-2.753 4.867-3.84 7.486-.564 1.361-1.332 2.598-1.91 3.952a292.176 292.176 0 00-1.687 4.046c-.317.781-.699 1.569-.946 2.374-.172.56-.02 1.269-.226 1.789-.197.498-.671.936-.88 1.472-.212.544-.337 1.117-.553 1.659-1.059 2.653-2.511 5.184-3.697 7.785-1.231 2.7-2.459 5.403-3.931 7.983-1.493 2.618-3.376 5.019-5.178 7.429-.943 1.262-1.919 2.506-2.824 3.795-.325.464-.616.997-1.051 1.371-.411.355-.931.493-1.409.73-.264-.701-.623-1.16-.51-1.938.096-.661.342-1.31.548-1.942.397-1.222 1.437-2.314 1.176-3.669-.244-1.263-1.279-2.265-2.064-3.219a931.713 931.713 0 00-3.12-3.775c-3.505-4.217-7.225-8.259-10.854-12.379-1.847-2.097-3.659-4.229-5.569-6.269-.856-.915-1.85-1.66-2.763-2.513-.748-.699-1.241-1.581-1.946-2.309-.523-.538-1.145-.931-1.677-1.475l-1.297-1.327a413.118 413.118 0 01-2.846-2.926c-1.886-1.963-3.649-4.033-5.507-6.02-3.589-3.838-7.386-7.523-11.132-11.204-1.082 3.19-1.976 6.514-2.751 9.792-.191.807-.27 1.646-.557 2.421-.281.763-.65 1.496-.947 2.255-.658 1.684-1.162 3.481-1.982 5.087-1.557 3.048-2.925 6.584-5.168 9.207-1.116 1.306-2.644 2.424-3.944 3.546l-4.202 3.627c1.26.947 2.511 1.898 3.842 2.744zm115.979 20.251c.115-.269.226-.414.357-.511-.097.058-.183.149-.295.365-.24.463-.388.996-.56 1.488.156-.451.31-.903.498-1.342zm33.847 24.168c-.967 1.081-1.992 2.112-2.972 3.182-.903.987-1.628 2.069-2.439 3.129a128.91 128.91 0 01-5.474 6.67c-1.827 2.085-3.8 4.049-5.544 6.204-1.743 2.156-3.06 4.468-4.366 6.898-.605 1.126-1.294 2.208-2.112 3.192-.382.46-.896.863-1.136 1.416-.267.612-.348 1.352-.501 2-1.358 5.791-2.749 11.577-4.058 17.38-.635 2.812-1.06 5.663-1.674 8.478-.621 2.851-1.552 5.62-2.14 8.481-1.19 5.793-2.003 11.663-3.282 17.437-1.245 5.622-3.406 10.966-4.58 16.612-.166.793-.403 1.517-.219 2.319.152.666.27 1.251.281 1.943.021 1.189.136 2.126.826 3.141 1.361 2.001 3.262 3.742 5.464 4.741 1.181.535 2.304 1.256 3.579 1.558.614.144 1.211.048 1.819.139.617.092 1.127.52 1.694.753 2.272.931 5.171.652 7.582.654 2.657.002 5.325-.175 7.778-1.285.2-.091.398-.187.594-.288.331-.05.39-.199.175-.445-.001-.269-.154-.575-.166-.859-.025-.603.156-1.183.307-1.76.36-1.368.698-2.742 1.012-4.122 1.3-5.721 1.916-11.53 2.716-17.334.412-2.993 1.011-5.96 1.528-8.936.495-2.858.792-5.727 1.167-8.601.374-2.862.772-5.724 1.159-8.584.211-1.567.666-3.106.865-4.666.152-1.181-.162-2.297.107-3.482.631-2.788.656-5.679 1.368-8.45.734-2.854 1.794-5.659 2.782-8.435.511-1.437 1.02-2.875 1.53-4.313.302-.85.647-1.762 1.523-2.169.485-.226.966-.201 1.402-.537.536-.413.997-.975 1.473-1.454 1.027-1.031 2.046-2.069 3.076-3.097 4.008-3.998 7.893-8.19 12.317-11.731 2.056-1.646 3.963-3.503 6.24-4.843 2.441-1.436 4.848-2.928 7.29-4.363a27.033 27.033 0 013.737-1.83c1.146-.458.446-1.552.115-2.438a72.1 72.1 0 01-1.382-4.16c-.324-1.056-.5-2.425-1.584-2.998-.709-.375-1.018.062-1.698.274-.483.15-.99.174-1.491.152-1.135-.05-2.441-.558-3.56-.381-.748.118-1.12.147-1.877.01-.675-.122-1.385-.124-2.068-.175-1.262-.094-2.56-.109-3.807-.328-2.728-.479-5.492-1.106-8.109-2.021-2.802-.98-5.472-2.341-8.157-3.593-.18 1.234-.358 2.488-.814 3.657-.365.935-.968 2.185-1.862 2.681-1.958 1.086-2.983 2.956-4.434 4.577zm-40.952 117.563c-.85-.462-1.012.186-1.517.882a1009.62 1009.62 0 01-4.159 5.689c-1.355 1.843-2.714 3.683-4.07 5.525-1.272 1.726-2.677 3.373-3.844 5.172-1.2 1.846-2.152 3.873-3.072 5.868-.783 1.697-1.92 3.465-1.098 5.356.763 1.755 2.934 2.497 4.515 3.332 1.996 1.055 3.57 1.801 5.828.999 4.299-1.528 8.509-3.512 12.581-5.556 3.732-1.874 6.555-4.641 9.648-7.36 1.625-1.428 3.308-2.742 4.827-4.288 1.58-1.609 3.085-3.29 4.675-4.887 2.475-2.488 5.07-4.688 4.643-8.539-2.362.789-4.684 1.78-7.137 2.254-2.584.499-5.22.803-7.855.667-1.136-.059-2.174-.368-3.281-.588-1.081-.214-2.183.009-3.198-.521-.899-.468-1.456-1.025-2.484-1.27-1.046-.248-1.928-.59-2.817-1.205-.728-.504-1.404-1.106-2.185-1.53zm74.517-102.189zm2.752-1.552c-.026.016-.052.035-.078.053l.078-.053zm50.611 136.025a215.418 215.418 0 00-3.267 6.013 118.21 118.21 0 00-1.524 3.042c-.458.942-.868 1.671-.923 2.709 2.208-.246 4.449-1.551 6.324-2.704 1.971-1.213 3.641-2.714 5.314-4.297 1.632-1.544 3.297-3.071 5.045-4.485a21.046 21.046 0 012.54-1.74c.272-.161.548-.326.769-.557.272-.282.369-.775.699-.988.672-.435 1.723.214 2.326.508.797.39 1.565.856 2.234 1.443.766.673 1.28 1.535 1.939 2.301.619.72 1.245 1.407 1.802 2.177 1.26 1.743 2.631 3.597 4.238 5.039.732.658 1.655 1.18 2.284 1.922a15.044 15.044 0 001.956 1.929 37.128 37.128 0 014.343 4.161c1.508 1.702 3.222 3.226 4.85 4.811.249-1.004-.197-1.843-.64-2.708-.516-1.01-.882-2.1-1.312-3.148a73.993 73.993 0 00-3.146-6.692c-1.08-2.027-2.185-4.039-3.232-6.085-.868-1.696-2.212-3.791-1.797-5.773.162-.774.584-1.94 1.42-2.199.835-.258 1.672.473 2.345.87 1.969 1.162 4.009 2.078 6.119 2.957 2.104.876 4.225 1.728 6.25 2.777 1.965 1.018 3.818 2.234 5.783 3.247.972.501 2.001.872 2.961 1.396.926.504 1.822 1.061 2.742 1.573 1.82 1.013 3.715 1.721 5.784 2.018-1.475-1.898-3.417-3.29-5.298-4.751-2.193-1.704-4.373-3.421-6.638-5.03-2.035-1.447-4.106-2.839-6.098-4.346a61.782 61.782 0 01-2.742-2.18c-.748-.635-1.552-1.27-1.732-2.292-.163-.92.258-1.982 1.04-2.514.781-.532 1.773-.411 2.648-.286 2.462.35 4.862 1.1 7.245 1.791.548.159 1.11.42 1.659.547.554.129 1.206.075 1.773.104 1.063.053 2.125.109 3.182.244 1.104.141 2.231.101 3.329.277.999.159 1.693.699 2.715.674 4.535-.109 8.745 2.408 13.233 2.408a1057.332 1057.332 0 00-8.048-4.666c-1.233-.708-2.516-1.338-3.707-2.116-1.318-.861-2.529-1.838-3.891-2.642-4.87-2.878-10.29-4.98-14.733-8.525-1.077-.86-2.105-1.784-3.145-2.688-.235-.205-.545-.586-.825-.717-.445-.209-.302-.267-.693.133-.431.44-.73.978-1.087 1.477a23.02 23.02 0 01-5.113 5.158c-2.28 1.674-4.907 2.69-7.462 3.866-2.575 1.185-5.117 2.447-7.815 3.339-2.72.899-5.6 1.36-8.441 1.695-3.006.355-5.811.154-8.795-.217-.173 2.24-.401 4.137-1.459 6.167-.998 1.915-2.267 3.69-3.328 5.573zm-11.307-170.656c-.219.048-.499.066-.709.143.182-.046.414-.047.549-.086.056-.015.107-.038.16-.057zm-.805 1.293c-.085-.214-.214-.452-.236-.671.013.216.13.457.236.671zm25.692 37.908c3.347 1.988 6.346 4.486 9.587 6.63a50.396 50.396 0 005.037 2.91c.835.424 1.676.844 2.547 1.192.754.301 1.48.786 2.253 1.015.841.248 1.702.098 2.552-.002.739-.087 1.457-.04 2.065-.528 1.097-.88 1.809-2.639 2.461-3.836.932-1.712 2.023-3.498 2.691-5.328.622-1.709 1.443-3.271 1.768-5.062-.575-.952-.524-1.944-.042-2.915.222-.447.509-.858.771-1.281.297-.478.284-.59.818-.598a8787.75 8787.75 0 00-1.538 4.767c.506-1.563 1.19-3.163 1.538-4.767.304-1.399.421-2.757.921-4.121.255-.693.659-1.345.858-2.054.165-.584.161-1.201.239-1.799.218-1.667.647-3.319.911-4.984.502-3.175.825-6.386 1.434-9.545.627-3.248 1.434-6.477 2.144-9.709.271-1.234.756-2.291-.451-3.132-1.155-.804-2.44-1.475-3.66-2.175-1.158-.665-2.31-1.337-3.542-1.854-1.047-.44-2.053-.858-3.004-1.48-.593-.387-1.199-.385-1.868-.601-.69-.222-1.371-.481-2.055-.722-1.255-.443-2.508-.889-3.762-1.336-.686-.244-2.095-1.14-2.737-.461-.333.351-.372 1.086-.466 1.525a130.44 130.44 0 00-.443 2.172c-.55 2.809-1.078 5.628-1.515 8.458-.428 2.776-.672 5.579-1.104 8.354-.106.68-.451 1.519-.382 2.203.05.504.4.771.746 1.099a32.798 32.798 0 012.484 2.628c.863 1.021 1.689 2.077 2.622 3.037.909.936 1.699 1.777 2.355 2.919.55.958 1.286 1.857 1.03 3.003-.199.892-.459 1.779-1.519 1.412-1.227-.424-2.288-1.624-3.246-2.459-.941-.819-1.871-1.65-2.83-2.448-1.061-.882-2.245-1.625-3.27-2.544-.89-.798-1.652-1.725-2.497-2.568-2.026-2.024-4.206-3.838-6.361-5.716-.994-.866-1.785-1.925-2.686-2.881-.887-.942-1.852-1.809-2.784-2.705-2.022-1.946-4.126-3.905-6.01-5.984-.903-.997-1.871-1.927-2.78-2.917-.375-.408-.653-.946-1.01-1.336-.345-.376-.875-.618-1.261-.97-1.69-1.539-2.632-3.68-4.299-5.25-.443.969-.756 1.957-1.081 2.971-.3.934-.526 2.026-1.052 2.862-.246.389-.662.671-.874 1.077-.204.388-.15.85-.293 1.261-.275.784-.841 1.61-1.264 2.327-.471.8-1.139 1.528-1.77 2.205a3.724 3.724 0 01-.507.465c.074-.04.147-.082.223-.12-.502.854-.957 1.246-1.774 1.807l.068.142c.423.912.898 1.758 1.23 2.712.574 1.649 1.417 3.192 1.959 4.853.292.893.406 1.817.83 2.663.374.745.86 1.428 1.225 2.177.854 1.755 1.41 3.679 2.083 5.507.695 1.889 1.497 3.715 2.357 5.533a113.104 113.104 0 012.403 5.485c.34.832.609 1.762 1.146 2.496.581.793 1.417.999 2.299 1.313 3.494 1.247 6.898 3.118 10.082 5.008zm41.863-53.561c1.979-1.671 4.739-1.2 7.168-1.21 2.822-.013 5.631.542 8.443.73 2.811.189 5.635.323 8.453.265 2.513-.053 5.017-.288 7.48-.799 1.22-.253 2.412-.377 3.65-.484.775-.066 1.493-.301 1.883-1.026.514-.957.381-2.413.417-3.467.036-1.033.185-2.345-.227-3.318-.406-.96-1.308-1.431-2.23-1.784-1.132-.433-2.265-.862-3.397-1.295-4.585-1.754-9.302-3.76-14.242-4.181-1.371-.117-2.748-.129-4.123-.17-1.182-.035-2.273-.322-3.441-.443-2.436-.254-4.819-.31-7.223-.819-.66-.139-1.076.211-1.747.318-.524.084-1.056.069-1.582.031-1.087-.078-2.125-.212-3.216-.119-1.283.109-2.574.176-3.846.374-1.143.178-2.25.486-3.402.617-1.245.141-2.506.195-3.732.469-.62.138-1.564.271-1.929.866-.483.787-.12 2.297-.073 3.166.067 1.223.142 2.448.129 3.675-.013 1.331-.213 2.618-.47 3.921-.186.939-.583 2.041-.371 3.01.117.532.507.784 1.06.698.383-.059.698-.433 1.051-.478.687-.089.02.424.413.864.316.353.839.254 1.259.371.452.125.869.346 1.296.534.967.425 1.971.718 2.924 1.187 2.118 1.042 4.13 2.278 6.146 3.501.337-1.002.578-2.52 1.256-3.348.584-.713 1.527-1.068 2.223-1.656zm-138.794-63.365c-.455-1.278-1.053-2.528-1.431-3.83-.135-.466-.135-1.127-.613-1.389-.396-.218-1.115-.08-1.531-.077-.771.006-1.542-.003-2.312-.006-.385-.002-.943-.089-1.17.314-.234.416.142 1.18.149 1.643.012.703-.154 1.391-.333 2.066a225.864 225.864 0 01-2.43 8.567c.874-.392 1.553-1.326 2.55-1.431.629-.067 1.113.309 1.693.404.496.082.99.111 1.484.226 2.216.514 4.231 1.661 6.482 2.065-.104-.823-.137-1.575-.391-2.371-.22-.692-.464-1.378-.701-2.065-.474-1.375-.96-2.745-1.446-4.116zm-7.314-19.297c-1.065-.47-2.13-1.834-1.133-2.96.538-.608 1.899-.289 2.602-.144.986.203 4.774 2.668 5.239.992.307-1.1-.242-2.759-.743-3.725a6.14 6.14 0 00-1.253-1.68c-.547-.505-.772-.35-1.445-.276-1.11.123-2.142-.219-2.872.861-.142.21-.171.496-.468.54-.229.033-.366-.25-.597-.251-.374-.001-.416.258-.562.547-.382.758-.943 2.246-2.08 1.626-1.15-.626-1.218-2.654-1.22-3.746-.002-1.696-.117-3.389-.209-5.081-.073-1.34-.191-2.562-1.169-3.571-.923-.952-1.638-2.276-2.76-3.006-1.265-.824-2.913-.731-4.363-.842-1.677-.129-3.397-.313-5.075-.14-1.716.175-3.35.255-5.077.177-1.689-.075-3.375-.18-5.065-.223-1.604-.04-3.281.094-4.87-.078-.646-.07-1.508-.304-1.934.334-.486.726-.445 2.04-.582 2.876 1.747-.32 4.597-1.125 5.267 1.338.203.746-.425 1.411-.975 1.844-.805.633-1.931.615-2.907.752-.545.076-1.425.063-1.744.609-.307.524-.146 1.502-.182 2.08-.149 2.397-.492 4.776-.742 7.164-.238 2.282-.418 4.624-.073 6.906.177 1.169.657 2.268.742 3.447.052.729-.062 1.557.606 2.04.775.559 2.108.562 3.017.762 1.2.264 2.387.581 3.567.921 1.871.54 4.153.81 4.828 2.898.72 2.229 1.251 4.527 1.947 6.767.354 1.136.848 2.166 1.348 3.244.194.415.498.898.458 1.376-.042.505-.396.996-.591 1.446-.426-.221-.873-.346-1.237-.672-.381-.341-.686-.822-.992-1.231-.637-.848-1.089-1.577-2.002-2.128-.035.448-.141.833.074 1.214.152.27.504.545.705.796.561.704 1.102 1.425 1.711 2.089 1.213 1.321 2.68 2.41 3.942 3.692 1.265 1.285 2.462 2.794 4.004 3.756 1.486.928 3.075 1.694 4.621 2.516-1.359-3.082-.418-6.185 1.199-8.956.752-1.29 1.668-2.474 2.515-3.701.671-.972 1.967-2.275 1.935-3.523-.017-.664-.47-1.238-.798-1.786-.362-.608-.644-1.257-.941-1.899-.603-1.301-1.39-2.677-1.602-4.109-.185-1.255.099-2.992.948-3.996.342-.403.842-.364 1.285-.637.436-.269.766-.672 1.123-1.031.406-.406.904-.687 1.308-1.088.43-.428.731-.97 1.041-1.484.737-1.219 1.491-2.427 2.231-3.646zm-4.671-27.088c-1.278.022-1.956.742-2.552 1.768.399.624 1.467 2.51 2.347 1.758.164-.14.24-.44.438-.602.186-.152.42-.232.636-.328.488-.215 1.04-.424 1.352-.891.736-1.102-1.449-1.718-2.221-1.705zm-24.965 47.804c-.23-.062-.938.401-1.163.5-.415.184-.931.364-1.298.64-.367.277-.502.691-.754 1.061-.076 2.775-.251 5.57-.23 8.353l.231-8.355c.163.765.446 1.467.445 2.256 0 .8-.122 1.624-.197 2.419-.142 1.514-.311 3.025-.466 4.537.02.872.06 1.743.135 2.61 1.109-1.539 2.197-3.098 3.309-4.635.994-1.373 2.292-1.453 3.861-1.579l-3.079-6.205c-.117-.237-.59-1.547-.794-1.602zm-181.197 4.702c-1.656-.457-3.347-1.092-5.053-1.316-1.615-.213-3.049-.914-4.608-1.37-1.374-.401-2.764-.745-4.117-1.214-1.029-.356-2.139-.708-2.948-1.468-.839-.787-1.292-2.011-1.136-3.155.182-1.336 1.171-1.499 2.298-1.882 5.739-1.951 11.546-3.113 17.536-3.884 3.083-.397 6.2-.891 9.315-.827 1.614.033 3.21.122 4.824.019 1.46-.093 2.947.452 4.384.168 1.468-.29 2.84.101 4.32.302 1.573.213 3.162.275 4.748.348 1.44.066 2.97.008 4.371.385 1.37.367 2.431.631 3.83.176-1.462-1.615-2.919-3.234-4.387-4.844-3.013-3.303-6.141-6.854-7.964-10.985-.782-1.77-1.161-4.322.142-5.97 1.159-1.466 3.691-1.164 5.306-.923a15.611 15.611 0 015.844 2.139c1.723 1.053 3.625 1.912 5.192 3.182 1.539 1.248 3.312 2.073 4.869 3.297 1.605 1.262 3.221 2.484 4.845 3.718 3.507 2.666 6.42 6.054 9.74 8.936 1.764 1.532 3.407 3.181 4.984 4.902.748.816 1.523 1.62 2.162 2.525.534.758.999 1.565 1.563 2.303.676.883 1.525 1.62 2.237 2.476a34.087 34.087 0 011.835 2.461c.61.887 1.197 1.789 1.803 2.679.317.467.621 1.264 1.26 1.182.903-.116 1.402-.889 2.384-.356.331.18.538.486.815.729.387.34.832.485 1.283.711.921.461 1.7 1.145 2.525 1.749.874.64 1.772 1.168 2.582 1.898 3.404 3.07 6.545 6.359 9.818 9.557.791.773 1.62 1.507 2.39 2.302.611.633 1.09 1.386 1.706 2.009.355.36.783.505 1.158.819.349.293.642.754.94 1.096.719.823 1.43 1.654 2.168 2.461 1.447 1.582 3.045 2.96 4.435 4.601 1.42 1.677 3.021 3.211 4.473 4.868 3.054 3.486 5.923 7.047 8.731 10.732 1.393 1.828 2.96 3.527 4.289 5.402 1.263 1.781 2.331 3.691 3.284 5.653.269.553.614 2.203 1.605 1.62.354-.209.592-.824.811-1.166.297-.463.592-.926.886-1.39 1.281-2.023 2.651-4.045 3.663-6.218 1.948-4.184 3.886-8.332 5.488-12.663.811-2.192 1.735-4.328 2.657-6.473.914-2.127 1.607-4.332 2.498-6.466 1.774-4.246 4.104-8.262 6.424-12.228 2.124-3.634 4.402-7.383 7.357-10.411 1.563-1.601 2.792-3.437 4.444-4.971.836-.778 1.701-1.526 2.537-2.305.604-.562 1.118-1.397 1.865-1.775.528-.268 1.092-.21 1.663-.187.443.018.934-.112 1.361-.073.384.036.54.369.911.443.38.077.631-.099.929-.304 1.887-1.3 4.466-1.862 6.62-2.641-1.363-.842-3.035-.873-4.557-1.228-1.286-.301-2.488-.83-3.546-1.626-2.331-1.755-2.719-4.529-3.141-7.244-.486-3.12-.862-6.446-.446-9.588.409-3.084.838-6.17 1.3-9.247.225-1.495.511-2.954.958-4.4.362-1.178.83-2.393.788-3.643-.02-.618-.041-1.571-.51-2.018-.344-.328-.852-.503-1.219-.826a9.315 9.315 0 01-2.08-2.689c-.431-.825-1.129-2.036-.716-2.991.448-1.037 1.875-1.227 2.833-1.475 2.835-.735 5.698-.617 8.577-1.021 1.384-.194 2.831-.597 4.219-.58 1.37.016 2.737.039 4.107.022 2.985-.035 5.981-.122 8.956.185.791.081 1.565.144 2.358.189.638.037 1.097.36 1.684.462.358.061.863-.131 1.223-.16a6.99 6.99 0 011.819.087c1.266.237 2.247 1.041 3.501 1.293.976.197 1.724.728 2.223 1.591 1.267 2.19 1.336 5.208 1.446 7.659.131 2.904-.086 5.819.066 8.718.038.701.113.984.856.911 1.043-.103 1.956-.381 3.009-.104 2.009.53 3.267 2.354 4.051 4.157.822 1.89 1.263 4.023 1.123 6.086-.122 1.816-.792 4.163-2.796 4.688-1.076.282-2.155-.165-3.17-.484-.955-.3-1.825-1.159-2.344.046-1.049 2.441-2.107 4.649-3.786 6.751 1.575-.108 3.146-.259 4.722-.338 1.036-.052 2.503-.341 3.494.062.583.237.608.645 1.024 1.008.458.399 1.348.228 1.915.211 1.7-.052 3.259-.361 4.979-.183 1.266.131 2.41.757 3.667.995 1.53.289 3.05.895 4.494 1.468 1.357.54 2.69 1.118 4.087 1.554 1.426.444 2.85.902 4.21 1.525 2.419 1.11 4.473 2.904 6.639 4.427.569.401 1.19.746 1.721 1.197.436.37.723.859 1.143 1.242.673.613 1.457.582 2.185.907.746.333 1.466.999 2.142 1.46l1.836 1.251c1.162.792 2.312 1.733 3.569 2.367 2.334 1.176 4.165 3.04 6.061 4.813 2.047 1.913 4.305 3.58 6.276 5.571 1.966 1.986 3.762 4.093 5.344 6.395 1.649 2.4 3.04 4.943 4.602 7.395.715 1.122 1.619 2.033 2.453 3.059.418.515.81 1.051 1.169 1.609.317.494.542 1.126 1.016 1.488.95.723 1.897 1.15 2.662 2.118.857 1.084 1.596 2.282 2.321 3.456a126.25 126.25 0 014.117 7.24c.384.724.379 1.254.444 2.044.049.614.251 1.198.365 1.8.186.981.071 2.01.325 2.983.166.638.577.722 1.095 1.081.488.337.929.736 1.356 1.145.871.834 1.718 1.657 2.669 2.402.966.758 1.968 1.489 2.808 2.39.873.937 1.642 1.837 2.646 2.651 2.135 1.728 4.149 3.641 6.245 5.424 2.176 1.852 4.16 3.883 6.163 5.916 2.07 2.101 4.259 4.072 6.421 6.078.17-2.381.31-4.764.509-7.143.214-2.568.793-5.071 1.305-7.593.458-2.252.762-4.662 1.528-6.834.525-1.488 1.553-2.71 3.141-3.077.796-.184 2 .192 2.385-.693.383-.879.419-2.217.574-3.161.682-4.171-.673-8.825 1.072-12.816.758-1.731 2.166-2.648 3.841-3.39 2.195-.971 4.618-.73 6.945-1.212 1.062-.22 1.926-.799 3.028-.848 1.113-.05 2.227-.013 3.34.029 1.161.044 2.278-.189 3.432-.185 1.005.003 1.796.669 2.781.513 1.106-.174 2.008-.446 3.125-.126.989.284 1.932.369 2.96.397 1.266.036 2.533-.083 3.798-.022 1.163.055 2.272.408 3.424.549 2.437.298 4.785.575 7.162 1.228 2.356.648 4.592 1.582 6.878 2.428 3.665 1.356 7.87 2.395 8.879 6.707.56 2.39.671 4.965.37 7.398-.243 1.969-.69 4.149-1.85 5.805-1.24 1.772-3.297 2.308-5.267 2.919-2.258.698-4.567.805-6.878 1.223-2.397.433-4.794.78-7.237.714-2.424-.066-4.795-.695-7.211-.9-2.485-.211-4.961-.501-7.444-.718-1.671-.145-4.862-.618-5.699 1.274-.265.598-.645 1.313-.16 1.848a24.49 24.49 0 011.607 1.998c.707.96 1.235 1.881 1.445 3.066.206 1.162.238 2.348.255 3.525.067 4.857-1.185 9.781-2.373 14.482-1.235 4.892-2.611 9.757-4.333 14.502-1.641 4.521-2.859 9.226-4.805 13.63-.977 2.211-2.254 4.172-3.598 6.17-1.131 1.68-2.165 3.713-3.83 4.933a7.419 7.419 0 01-4.911 1.388c-2.07-.165-4.038-1.419-5.851-2.334-4.366-2.207-8.4-5.189-12.317-8.109-1.88-1.402-3.586-3.009-5.587-4.246-1.956-1.209-3.928-2.293-6.13-2.929 1.836 3.862 3.504 7.786 5.456 11.594 1.926 3.76 3.52 7.654 5.253 11.501.712 1.582 1.763 2.95 2.464 4.526.805 1.806 1.611 3.612 2.412 5.42 1.465 3.302 3.025 6.586 4.35 9.944.301.762.166 1.683.556 2.353.394.675.823 1.265 1.122 1.998.643 1.579 1.152 3.169 1.884 4.715 1.621 3.422 2.65 7.103 4.201 10.561 1.555 3.467 2.958 6.97 4.344 10.507.68 1.734 1.444 3.436 2.078 5.187.586 1.616 1.136 3.269 2.09 4.714 2.096 3.173 3.721 6.599 5.299 10.059.745 1.632 1.401 3.253 1.513 5.069.102 1.635-.913 2.958-1.732 4.274 1.492.754 2.865 1.728 4.361 2.487 1.604.816 3.28 1.455 4.949 2.123 1.688.675 3.372 1.359 5.053 2.051 1.482.611 2.852 1.36 4.289 2.058 1.36.661 2.599 1.533 3.886 2.319 1.391.851 2.803 1.668 4.195 2.519 2.727 1.667 5.382 3.339 8.246 4.773 1.493.748 2.994 1.48 4.487 2.224 1.228.613 2.577 1.151 3.473 2.235 1.326 1.602 1.211 4.18-.048 5.81-.831 1.076-2.872.976-4.112 1.011-.846.024-1.706-.022-2.537-.192-.686-.14-1.269-.505-1.939-.675-.759-.193-1.607-.151-2.386-.256a33.58 33.58 0 01-2.272-.391c-1.633-.333-3.252-.734-4.882-1.08-1.588-.337-3.18-.663-4.738-1.125-.646-.192-1.328-.56-1.993-.546-.723.015-1.356.065-2.084-.065-.743-.132-1.472-.34-2.221-.44-.696-.092-1.399.019-2.087-.097-.777-.132-1.498-.473-2.25-.695-.736-.217-1.413-.149-2.17-.149 1.865 1.439 3.814 2.765 5.714 4.156 1.919 1.406 3.709 2.958 5.554 4.455 1.493 1.21 3.361 2.374 4.28 4.115.74 1.402.877 3.139.58 4.681-.374 1.935-1.808 2.181-3.552 2.301-2.254.156-3.991-.797-5.959-1.764-3.852-1.895-7.575-4.083-11.216-6.352-1.801-1.123-3.792-1.968-5.706-2.882a843.542 843.542 0 00-3.039-1.442c-.829-.392-1.915-1.172-2.829-1.082 2.518 5.207 5.154 10.359 7.373 15.706.93 2.242 1.67 4.559 1.853 6.992.129 1.707.039 5.086-2.096 5.651-.953.252-1.812-.379-2.453-1.008-.913-.897-1.755-1.879-2.628-2.817a84.801 84.801 0 00-5.356-5.253c-1.889-1.7-3.776-3.359-5.472-5.255-1.616-1.807-3.636-3.176-5.174-5.054-1.581-1.93-2.998-3.985-4.59-5.906-1.047-1.264-1.889-3.243-3.686-3.524-.267 1.492-1.556 2.818-2.458 4.037-1.989 2.693-4.392 4.898-6.876 7.124-2.248 2.013-4.663 3.701-7.497 4.791-1.867.718-5.768 2.382-7.233.122-.696-1.074-.329-3.171-.068-4.346.361-1.633 1.155-3.163 1.871-4.665 1.458-3.055 3.072-5.987 4.711-8.946.823-1.486 1.63-2.982 2.518-4.431.77-1.256 1.841-2.467 2.221-3.918.156-.596.253-1.406.06-2.008-.205-.64-.473-.522-1.048-.604-1.261-.18-.881-2.504-.716-3.41.147-.806.45-1.585.74-2.35.246-.648.793-1.531.763-2.233-.028-.664-.674-1.34-.935-1.936-.304-.693-.503-1.418-.718-2.142-.985-3.318-2.275-6.524-3.095-9.894-.815-3.353-1.682-6.633-2.877-9.876-1.241-3.363-2.593-6.693-3.722-10.096-1.095-3.302-2.173-6.596-3.376-9.862-2.413-6.551-4.985-13.053-7.83-19.43-2.808-6.293-5.997-12.418-8.423-18.873-1.167-3.105-2.32-6.189-3.419-9.318a182.84 182.84 0 00-3.679-9.595c-1.346-3.24-2.456-6.585-3.607-9.897-1.133-3.26-2.102-6.631-3.499-9.787-.36.391-.691.671-.949 1.132-.257.459-.476.89-.832 1.287-.64.714-1.453 1.213-2.229 1.761-.486.343-.889.753-1.444.828l-.044.006c.1.006.2.01.312.033l-2.123 1.47c.059-.137.121-.269.187-.397-.23.4-.47.776-.966.861.041.007.081.012.119.014-.335.248-1.527 1.432-1.422.156-.046.206.032.362-.055.57-.092.219-.306.419-.467.594-.336.365-.728.675-1.13.964-.944.677-1.962 1.245-2.878 1.961-.265.207-1.164 1.249-1.474 1.249l-1.736 1.51.665-2.32-.482 1.682c-.187.652-.469.888-.96 1.326-.861.768-1.715 1.547-2.608 2.278-1.63 1.334-3.502 2.368-5.248 3.542a50.637 50.637 0 00-2.784 1.993c-.742.575-1.648.778-2.385 1.335-.928.702-1.751 1.617-2.556 2.453-.722.749-1.573 1.504-2.072 2.427-.564 1.046-.573 2.41-.749 3.568a593.121 593.121 0 00-.525 3.508c-.352 2.4-.685 4.804-.973 7.212-.284 2.368-.632 4.735-.839 7.111-.208 2.404-.156 4.811-.427 7.213-.543 4.819-1.157 9.731-2.191 14.471-1.042 4.777-1.709 9.621-2.614 14.428-.465 2.472-.957 4.939-1.443 7.407-.238 1.214-.495 2.424-.736 3.638-.199 1.003-.095 2.011-.272 3.022-.094.541-.226 1.083-.226 1.636 0 .537.338 1.008.356 1.489.027.677-.594 1.747-.971 2.287-.569.815-1.356 1.552-2.016 2.3-.665.753-.933 1.023-.697 2.041 1.014 4.364-1.583 8.02-4.356 11.105-3.052 3.397-6.105 6.67-9.607 9.611-1.834 1.541-3.561 3.203-5.316 4.831-1.684 1.561-3.499 2.779-5.465 3.969-1.994 1.206-4.106 2.086-6.172 3.146-2.037 1.045-4.017 2.037-6.183 2.798-2.06.724-4.146 1.34-6.123 2.261-1.561.726-3.542.695-5.118.023-1.06-.452-1.971-1.277-2.919-1.922a42.341 42.341 0 00-2.717-1.715c-1.535-.883-3.035-1.911-3.69-3.634-.776-2.041-.105-4.493.338-6.542.454-2.096 1.39-4.048 2.513-5.864 1.169-1.892 2.624-3.528 3.966-5.291 1.389-1.822 2.626-3.741 4.078-5.521a62.721 62.721 0 014.565-5.035c1.615-1.59 3.026-3.364 4.517-5.069.358-.411.907-.852.975-1.434.058-.506-.291-.872-.458-1.319-.325-.866-.229-1.817-.246-2.721-.008-.441-.001-.894-.221-1.293-.205-.373-.585-.521-.731-.922-.129-.356-.081-.807-.153-1.179-.091-.473-.313-.817-.464-1.265-.377-1.122.091-2.429.303-3.541.199-1.05.388-2.103.583-3.153.419-2.272.732-4.55 1.448-6.755 1.453-4.476 2.874-8.929 2.971-13.682.049-2.38.714-4.661 1.265-6.963.585-2.441 1.178-4.879 1.781-7.316 1.156-4.666 2.541-9.265 3.725-13.923 1.18-4.641 2.255-9.312 3.658-13.892 1.418-4.629 3.39-8.974 5.5-13.324 1.014-2.092 2.124-3.897 3.617-5.683a319.801 319.801 0 014.725-5.488c3.207-3.664 6.418-7.326 9.672-10.949 1.62-1.804 3.261-3.524 5.151-5.051 1.685-1.36 3.992-2.506 4.523-4.73.15-.627.251-1.266.416-1.891.096-.359.392-.904.345-1.296-.092-.779-1.536-1.077-2.12-1.341-2.021-.913-4.065-1.817-6.048-2.811-1.095-.549-2.068-1.219-3.087-1.888-.858-.564-1.836-.734-2.803-1.033-2.148-.665-4.131-1.613-6.114-2.661-2.046-1.081-4.109-2.161-6.093-3.353-2.014-1.21-3.576-2.698-5.284-4.277-.763-.707-1.306-.351-1.847.427-.658.945-1.352 1.866-2.032 2.795-.317.433-.59.944-1.04 1.203-.017.011-.031.017-.048.026.078-.027.16-.055.254-.092-.165 1.169-1.046 1.968-1.824 2.773.073-.199.142-.4.212-.601-.195.556-.464.934-.823 1.409-.714.945-1.517 1.776-2.362 2.606-.436.428-.878.853-1.319 1.277l-.529.511a2.162 2.162 0 01-.743.497c-.604.272-.744.747-1.265 1.123-.783.564-1.758.937-2.568 1.494-.662.454-1.237 1.378-2.002 1.547-.278.061-.484.017-.706.235-.294.287.011.282-.451.385-.233.053-.474-.081-.709-.007-.248.079-.467.294-.676.446-.478.348-.956.696-1.433 1.046-.859.629-1.714 1.263-2.561 1.908-1.688 1.286-3.236 2.741-4.928 4.017-.875.661-1.817 1.143-2.751 1.704-.779.467-1.435 1.098-2.165 1.632-.871.638-1.888.949-2.792 1.526-.887.565-1.741 1.15-2.664 1.66-2.015 1.113-4.063 2.152-6.199 3.014-2.16.872-4.369 1.575-6.713 1.685-2.379.113-4.631-.509-6.825-1.376a60.745 60.745 0 01-6.364-2.937c-2.002-1.071-3.865-2.358-5.827-3.492a85.797 85.797 0 01-5.716-3.618c-1.784-1.226-3.48-2.595-5.406-3.596-1.943-1.01-3.667-2.326-5.496-3.519a544.221 544.221 0 01-5.615-3.71c-3.891-2.603-7.787-5.251-11.483-8.128-1.775-1.382-3.526-2.802-5.08-4.429-1.659-1.737-3.638-3.216-5.46-4.778l-5.246-5.082-.009-.009 5.255 5.091c-.833-.157-1.373-.696-2.042-1.213a114.322 114.322 0 01-2.092-1.658c-1.006-.818-2.17-1.659-2.054-3.108-.44-.41-.89-.81-1.359-1.185-.765-.61-1.678-.981-2.492-1.521-1.671-1.109-3.105-2.52-4.674-3.759-.691-.544-1.311-.957-1.419-1.891-.116-1.014.021-2.113.028-3.135.005-.79.232-1.892-.071-2.64-.304-.749-1.313-1.07-1.967-1.428-1.846-1.01-3.664-2.07-5.511-3.078-1.818-.993-3.398-1.653-5.477-1.831-.906-.077-1.775-.214-2.67-.353-.925-.143-1.787.129-2.693.295-2.055.376-4.135.601-6.189.982-2.07.384-4.116.894-6.159 1.397-2.045.503-4.087 1.039-6.163 1.402-1.063.186-2.162.308-3.191.639-.779.25-1.528.603-2.329.779-1.939.427-3.91.478-5.805 1.124-1.891.645-3.822.97-5.794 1.267-1.033.155-2.062.32-3.084.541-.617.134-1.165.212-1.79.059-1.296-.316-2.347-1.357-2.761-2.61-1.143-3.458 1.068-7.168 3.319-9.62 2.414-2.63 5.465-4.471 8.362-6.505-1.154-.127-2.302.043-3.456.064-.989.018-1.957-.026-2.948.028-2.194.12-4.38-.513-6.577-.561-2.973-.063-6.641-.668-7.418-4.05-.723-3.148 2.623-5.985 5.01-7.414 1.533-.918 3.086-1.757 4.588-2.729 1.604-1.037 3.588-1.648 5.36-2.346 1.804-.711 3.62-1.406 5.497-1.901 1.804-.476 3.631-.731 5.36-1.436-1.573-.685-3.275-.836-4.96-1.151-1.678-.312-3.327-.727-4.971-1.181z" fill="#000"/><path fill-rule="evenodd" clip-rule="evenodd" d="M122.144 247.838c.175.742.607 1.107 1.343 1.283 1.214.291 2.545.337 3.784.487 2.264.275 4.604.39 6.824.925 2.078.501 4.156 1.25 6.033 2.278-.614-2.929-1.31-5.773-1.052-8.79.189-2.215.242-5.551 2.484-6.832.52-.297 1.341-.185 1.918-.215.751-.04 1.502-.076 2.252-.117 1.485-.082 2.962-.238 4.443-.382 2.918-.285 5.816-.638 8.716-1.064.48-.07 1.342-.018 1.662-.433.237-.305.124-.788.106-1.131a20.204 20.204 0 01.135-3.546c.323-2.578 1.036-5.116 1.834-7.584.403-1.247.835-2.485 1.242-3.731.196-.602.652-1.424 0-1.855-.407-.27-1.118-.268-1.591-.386-.564-.14-1.112-.323-1.663-.504-1.301-.427-2.6-.86-3.899-1.291-4.938-1.642-9.919-3.175-14.843-4.849-.689-.235-1.373-.48-2.062-.714-.298-.101-.817-.361-1.138-.221-.376.165-.303.578-.573.824-.235.214-.769.23-1.072.404-.77.444-1.253 1.217-1.857 1.842-.778.803-1.647 1.509-2.415 2.327-3.098 3.301-5.39 7.276-7.331 11.341-.523 1.095-.862 2.228-1.189 3.393-.309 1.102-.704 2.18-.879 3.315-.409 2.65-.424 5.377-.752 8.044-.275 2.235-.989 4.942-.46 7.182zm19.682-5.986c.007 1.765.1 3.542.487 5.269.399 1.782 1.12 3.487 1.763 5.191.607 1.607 1.098 3.264 1.802 4.833.694 1.547 1.584 2.958 2.141 4.564 1.142 3.294 3.099 6.184 4.484 9.365a97.38 97.38 0 004.75 9.437c.836 1.467 1.612 3.088 2.67 4.409a19.723 19.723 0 001.732 1.889c.529.506.783.12 1.423.235.933.166 1.414 1.375 2.018 1.997 1.144 1.177 2.313 2.34 3.567 3.402 1.283 1.086 2.702 1.994 4.019 3.04 1.256.999 2.512 1.901 3.949 2.63 2.837 1.438 6.098 3.202 9.372 3.051 1.506-.069 2.313-1.048 2.944-2.354.668-1.383.442-3.041.33-4.524-.134-1.78-.565-3.349-1.516-4.859-.937-1.489-.013-2.412.921-3.653 2.084-2.768 4.861-4.924 7.394-7.264 1.307-1.208 2.603-2.43 3.899-3.651l2.145-2.027c.524-.496 1.029-.83 1.218-1.526-1.425-.767-2.911-1.421-4.224-2.379-2.681-1.958-5.141-4.346-7.668-6.5-1.214-1.034-2.173-2.316-3.148-3.567-.942-1.207-2.02-2.347-2.833-3.65-1.746-2.801-3.739-5.576-5.124-8.58-.69-1.497-1.047-3.024-1.408-4.623-.218-.963-.468-1.918-.713-2.875-.157-.616-.203-1.679-.598-2.188-.728-.938-3.017.577-3.855.844-1.579.5-3.223.739-4.855.991-3.462.534-6.948.99-10.388 1.653-1.802.347-3.608.732-5.437.914-1.773.176-3.555.084-5.331.071-.381-.003-.846.064-1.101-.284-.145-.2-.048-.447-.282-.634-.305-.243-.704-.112-1.054-.075-.711.076-1.424.119-2.134.207-.307.038-.917-.014-1.179.148-.276.169-.181.682-.18 1.073zm49.828 47.393c.828 1.667 1.307 3.999 1.332 5.845.013.992-.118 1.981-.322 2.949-.176.845-.661 1.818-.509 2.669 2.101-.97 4.166-2.014 6.309-2.889 1.852-.756 3.243-2.073 4.767-3.323 1.636-1.343 3.117-2.84 4.69-4.254 1.687-1.517 3.447-2.953 5.163-4.437 3.055-2.642 5.62-5.612 8.128-8.769 2.205-2.775 5.366-6.315 5.218-10.07-.07-1.743-.198-3.725-1.054-5.284-.711-1.296-1.998-2.749-3.201-3.615-1.156-.833-2.292 1.26-2.942 1.996-1.401 1.583-2.829 3.14-4.249 4.705-2.702 2.977-5.267 6.102-8.189 8.869-2.946 2.788-5.957 5.515-9.129 8.043-1.588 1.265-3.338 2.444-4.779 3.877-.529.527-1.557 1.106-1.91 1.763-.379.708.381 1.329.677 1.925zm-72.296-41.102c.445-.058.424.002.462-.434.058-.675-.171-1.472-.239-2.149-.328-3.221-.172-6.595.11-9.816.552-6.327 1.858-12.547 5.172-18.034 1.53-2.534 3.26-4.923 5.428-6.953.999-.936 1.975-1.944 3.081-2.756.554-.408 1.362-.614 1.867-1.031.273-.226.394-.687.624-.975.919-1.15 1.958-1.447 3.425-1.323 1.522.129 3.117.605 4.585 1.011 3.123.866 6.119 2.336 9.145 3.496 3.039 1.165 6.044 2.407 9.042 3.674 1.303.551 2.875.984 4.032 1.815.699.503.904 1.127.829 1.962-.265 2.952-1.363 5.884-2.198 8.707-.896 3.033-1.627 6.122-1.856 9.283 3.097-.226 6.174-.461 9.256-.85 1.542-.195 3.092-.354 4.631-.565.795-.109 1.167-.406 1.806-.818.562-.362.851-.056 1.091.495 1.246 2.859 1.737 5.977 3.087 8.816.606 1.275 1.363 2.464 1.993 3.726.686 1.372 1.512 2.723 2.371 3.992.399.589.912 1.066 1.354 1.619.409.511.704 1.1 1.08 1.636.787 1.119 1.74 2.105 2.705 3.07.969.968 1.907 1.95 2.832 2.96.91.992 1.996 1.797 2.957 2.734.905.881 1.693 1.841 2.621 2.705.894.832 1.313 1.988 2.275 2.736.518.404 1.093.728 1.61 1.135.426.336.871.923 1.477.811.672-.126 1.212-1.027 1.632-1.493a212.34 212.34 0 011.636-1.787c2.155-2.329 4.366-4.612 6.54-6.926 1.062-1.132 2.231-2.158 3.266-3.315.755-.843 1.99-1.444 3.047-.866 1.066.581 2.347 1.095 3.21 1.968.935.947 1.681 2.177 2.443 3.264.793 1.131 1.108 2.467 1.316 3.811.22 1.433.451 2.853.342 4.308-.208 2.753-.721 5.825-2.316 8.144-.76 1.105-1.801 1.935-2.732 2.886-1.009 1.03-1.73 2.271-2.561 3.441-1.669 2.346-3.718 4.447-5.808 6.421-.997.942-2.126 1.736-3.128 2.68-1.07 1.009-2.153 1.919-3.36 2.758-1.235.858-2.255 1.975-3.371 2.973a37.589 37.589 0 01-3.59 2.865c-2.426 1.69-4.894 2.789-7.714 3.639-3.108.935-6.115 2.16-9.206 3.138-1.48.469-2.946-.179-4.356-.653-1.438-.484-2.849-1.057-4.173-1.802-2.686-1.511-5.266-3.265-7.907-4.857-2.748-1.656-5.043-3.553-7.142-5.976-2.001-2.31-4.118-4.603-5.94-7.055-3.698-4.982-5.935-10.875-8.68-16.39-1.459-2.933-2.938-5.819-4.152-8.866-.597-1.499-1.131-3.025-1.74-4.518-.258-.633-.471-.879-1.163-.987-.799-.125-1.616-.179-2.418-.275-3.175-.377-6.273-.939-9.42-1.481-2.919-.503-5.857-1.022-8.467-2.503-.549-.312-1.208-.678-1.507-1.26-.136-.266-.471-1.614-.281-1.829.11-.127.855-.112 1.045-.136zm132.944-158.82c-.504-.267-1.019-.513-1.531-.763-1.085-.53-2.153-1.096-3.25-1.6-.497-.228-1.016-.373-1.526-.565-.542-.203-1.06-.472-1.58-.725a40.556 40.556 0 00-3.346-1.42 93.201 93.201 0 00-1.044-.392c-.268-.1-.593-.29-.872-.323-.441-.052-.773.4-1.074.672-1.623 1.468-2.769 3.645-3.467 5.703-.38 1.123-.553 2.283-.756 3.448-.208 1.193-.429 2.361-.437 3.575-.009 1.234-.135 2.45-.08 3.687.02.461-.063 1.291.19 1.693.256.407.898.521 1.311.671 2.259.823 4.516 1.709 6.808 2.433 2.384.753 4.763 1.519 7.141 2.294-.096-.68-.21-1.359-.286-2.041-.071-.643-.018-1.307-.012-1.953.012-1.418.058-2.829.342-4.223.515-2.531 1.347-5.023 2.742-7.209.327-.511.717-.978 1.106-1.443.139-.166.604-.56.588-.816-.022-.335-.727-.576-.967-.703zm-27.107-.275c-.521.024-.858.144-.895.705-.046.715-.036 1.439-.061 2.155-.049 1.37-.098 2.74-.063 4.112.063 2.402.318 4.8 1.05 7.096.354 1.109.777 2.2 1.235 3.27.443 1.039 1.071 1.973 1.626 2.951.274.481.58.872.957 1.276.179.192.261.294.513.327.256.033.578-.034.835-.052 1.21-.088 2.419-.208 3.63-.267 1.201-.058 2.407-.007 3.606-.063.564-.027 1.095-.211 1.649-.3.558-.09 1.122-.13 1.683-.194.289-.033.282.036.326-.228.023-.141-.017-.323-.024-.467-.015-.278-.029-.556-.046-.833-.015-.248.035-.684-.065-.918-.089-.209-.28-.246-.479-.3a29.843 29.843 0 01-3.271-1.125c-1.096-.444-2.205-.863-3.289-1.337-.467-.205-.994-.392-1.348-.778-.29-.316-.457-.723-.585-1.127-.706-2.226-.484-4.79-.278-7.083.213-2.356.548-4.775 1.407-6.99-2.702 0-5.413.045-8.113.17zm30.167 2.037c-.75.283-1.223.941-1.661 1.576-.544.792-1.058 1.592-1.484 2.456-.896 1.815-1.487 3.815-1.824 5.81-.323 1.904-.483 4.027-.112 5.937.1.511.359.92.504 1.404.097.325.029.798-.058 1.122-.126.463-.561.305-.924.23-.529-.11-1.058-.218-1.587-.33-1.992-.422-3.965-1.157-5.994-1.306.173.542.27 1.034.618 1.498.327.435.761.811.949 1.335.156.436.186 1.047.027 1.49-.167.464-.576.471-1.005.523-1.206.147-2.392.347-3.608.413-.262.015-.522.044-.781-.006-.207-.04-.353-.102-.563-.063-.278.051-.523.186-.815.216a6.006 6.006 0 01-.827.009c-1.018-.038-2.014.068-3.033-.031-.297-.029-.855-.199-1.132-.028-.294.18-.064.544-.21.794-.192.329-.853.16-1.173.142-.456-.025-.861-.106-1.269-.317a7.232 7.232 0 01-2.182-1.707c-.637-.742-1.098-1.61-1.553-2.471-.475-.898-.95-1.775-1.309-2.729-.367-.974-.726-1.98-.934-3.002-.208-1.021-.339-2.058-.535-3.082-.204-1.068-.24-2.156-.294-3.24-.056-1.123-.081-2.227-.011-3.35.069-1.104.19-2.186.319-3.283.033-.28.016-.57.06-.849.03-.186.127-.363.137-.552.022-.377-.322-.619-.313-1.013.021-.915.989-1.255 1.709-1.474.935-.284 1.978-.456 2.956-.385 2.105.152 4.256.172 6.251.944 1.035-1.781 1.998-3.713 3.691-4.962.191-.142.398-.238.521-.446.106-.179.152-.358.293-.519.348-.395.776-.445 1.262-.341 1.058.225 2.069.472 3.072.874.445.179.918.263 1.365.437.43.168.841.379 1.254.583.905.448 1.84.829 2.744 1.28 1.815.909 3.609 1.86 5.279 3.02.807.56 1.732 1.139 2.416 1.85.302.313.438.707.388 1.14-.052.449-.281.274-.624.403zm239.407-32.589c-.178-2.317-.106-4.641-.274-6.957-.161-2.2-.606-4.442-1.039-6.605-.44-2.2-1.241-4.152-2.141-6.195-.496-1.126-.976-2.26-1.458-3.393-.294-.695-.509-1.416-1.323-1.601-1.056-.24-2.331-.045-3.418-.084a62.338 62.338 0 01-3.288-.202c-2.379-.211-4.742-.558-7.116-.804-2.275-.235-4.523-.373-6.769-.84a104.344 104.344 0 01-3.447-.804c-.859-.21-2.049-.748-2.912-.543 1.068 2.428 1.4 5.02 1.427 7.649.01 1.035.133 1.459 1.213 1.395a73.436 73.436 0 004.043-.369c2.531-.291 5.041-.754 7.55-1.187 1.189-.206 2.331-.499 3.498-.756.828-.183 1.176.145 1.453.9.2.547.265.793.778 1.101.42.252.833.49 1.219.795a9.129 9.129 0 011.786 1.903c1.124 1.58 1.845 3.435 2.505 5.244 1.658 4.553 2.493 9.506 2.648 14.341.077 2.46.484 4.87.511 7.337.012 1.087-.266 2.487.644 3.277.89.774 2.033 1.329 3.025 1.963.87-2.489 1.095-5.128 1.121-7.746a89.451 89.451 0 00-.236-7.819zm-36.821-13.168c-1.087.288-2.179.544-3.275.797 1.864 4.46 1.799 9.392 1.94 14.145a50.036 50.036 0 01-.204 6.373c-.216 2.165-.703 4.232-1.141 6.354-.096.464-.325 1.224-.019 1.649.339.47 1.449.725 1.93.942 1.911.86 3.792 1.793 5.742 2.564 1.976.783 4.03 1.252 5.962 2.162a64.706 64.706 0 005.778 2.407c1.935.692 3.943 1.199 5.811 2.068 1.772.825 3.234 1.958 4.739 3.18.915-2.837 1.272-5.724 1.437-8.697.159-2.846.393-5.809.102-8.648-.133-1.296-.133-2.5-.107-3.798.023-1.161-.246-2.3-.338-3.455-.204-2.546-.196-5.088-.541-7.624-.654-4.795-1.952-9.872-4.569-13.983-.167-.262-.33-.685-.56-.878-.388-.326-.251-.265-.761-.003-.476.244-.945.504-1.436.717-1.032.448-2.136.645-3.212.95-1.192.338-2.273.857-3.511 1.048-1.198.186-2.416.208-3.614.396-.663.104-1.271.323-1.915.487-.525.134-1.039.099-1.592.157-1.067.112-2.106.41-3.176.507-1.204.108-2.275-.134-3.47.183zm39.438 20.703a32.536 32.536 0 01-2.303 8.54c-.368.877-.784 2.105-1.837 2.347-.972.224-2.149-.49-3.065-.74-.718 4.26-1.032 8.687-2.937 12.636-.24.498-.557 1.428-1.052 1.754-.505.334-1.119.008-1.623-.183-2.116-.8-4.302-1.313-6.492-1.867-1.068-.27-2.156-.51-3.198-.872-.865-.3-1.683-.66-2.59-.825-1.895-.342-3.656-.96-5.468-1.6-3.802-1.34-7.625-2.554-11.134-4.567-1.675-.96-3.431-1.902-4.978-3.062-1.268-.951-2.687-2.377-2.065-4.105.188-.522.702-1.387 1.294-1.546.557-.15 1.056.352 1.565.467.769.176.597-.444.668-1.048.056-.477.115-.953.173-1.43.122-1 .241-2.001.33-3.005.371-4.159.197-8.315.2-12.48.002-2.086-.481-3.914-.969-5.923-.258-1.066-.5-2.136-.727-3.208-.126-.597-.272-1.251-.099-1.855.387-1.352 2.318-1.726 3.461-2.111a24.2 24.2 0 012.996-.822c.558-.111 2.047-.025 2.408-.492.357-.462-.038-1.964-.074-2.514-.067-1.014-.137-2.027-.271-3.035-.216-1.625-.192-3.133 1.107-4.322-.81-.644-1.386-2.012-.207-2.606 1.355-.684 3.169-.783 4.601-.425 1.566.393 3.284.398 4.888.57 1.706.181 3.408.402 5.11.617 2.93.37 5.913.451 8.807 1.045 1.449.296 2.899.522 4.36.753 1.513.238 2.425.44 3.33 1.714 1.716 2.417 3.301 4.893 4.264 7.714.912 2.673 1.339 5.481 1.592 8.285.273 3.022.334 6.035.3 9.068-.034 3.049.016 6.1-.365 9.133zm61.536 119.427c-.174-.294-.7-.366-.977-.477a9.656 9.656 0 01-1.259-.628c-2.039-1.174-4.028-2.374-5.912-3.788-.462-.347-1.597-1.62-2.265-1.419-.328.099-.507.642-.649.907a22.76 22.76 0 01-.788 1.373c-1.109 1.768-2.491 3.354-4.035 4.758-2.902 2.64-6.209 4.344-10.19 4.548 2.571 3.488 5.028 7.131 7.948 10.342 1.473 1.622 3.089 3.088 4.619 4.652.261.267.402.427.746.58.333.148.65.197.925.47.479.475.512 1.183.405 1.811 2.717.105 5.658-1.11 8.124-2.105 1.447-.585 2.875-1.236 4.234-2.005.923-.522 1.957-1.105 2.634-1.943-2.492-1.323-5.011-2.582-7.399-4.089-1.63-1.028-4.511-2.229-4.278-4.603.037-.369.182-.823.51-1.036.485-.316.595.057 1.036.152.716.155 1.561-.789 2.108-1.196 1.477-1.099 2.92-2.313 3.796-3.962.263-.494 1.004-1.769.667-2.342zm15.175 21.023c-.404-1.314 1.483-2.327 2.316-2.959 1.25-.949 2.12-2.001 2.96-3.327 3.28-5.174 4.442-11.476 4.173-17.526-.074-1.679-.265-3.356-.304-5.036-.02-.872.037-1.684-.155-2.546-.181-.814-.397-1.619-.597-2.429-.4-1.615-.605-3.269-1.082-4.865a24.983 24.983 0 00-1.755-4.277c-.471-.915-.911-2.198-2.143-2.023-1.539.219-3.044 1.011-4.544 1.424-1.66.457-3.339.839-5.015 1.232-1.622.38-3.207.921-4.839 1.249-.853.171-1.697.241-2.566.227-.379-.007-1.06-.043-1.097.474-.041.567.83 1.181 1.187 1.528.505.49.876.951 1.152 1.601.657 1.549 1.253 3.165 1.497 4.835.237 1.625.196 3.334.214 4.973.037 3.307-.433 6.474-1.622 9.572-1.077 2.803-2.764 4.736-5.074 6.608 2.414 1.199 4.827 2.4 7.24 3.598 2.175 1.078 4.373 2.009 6.232 3.603.765.656 1.671 1.413 2.217 2.269.683 1.069-.278 1.796-1.296 1.368-1.121-.47-2.223-1.007-3.32-1.53-.714-.339-1.905-1.25-2.738-1.227-.708.02-.977.922-1.291 1.423-.505.801-1.134 1.514-1.827 2.157a19.784 19.784 0 01-4.96 3.336c-1.982.94-4.122 1.582-6.285 1.95-1.179.201-2.378.307-3.574.262-.898-.034-2.169-.036-2.979-.474-.697-.376-.332-1.144-1.022-1.538-.727-.414-1.496-.723-2.199-1.188-1.659-1.1-2.644-2.516-3.617-4.211-2.236-3.892-4.955-7.449-6.627-11.644-.392-.983-.615-2.141-1.255-2.999-.426-.57-1.377-.909-1.481-1.657-.1-.731.194-2.348.922-2.686.842-.391 2.065-.397 2.979-.609 3.968-.925 7.671-2.333 10.834-4.954a24.863 24.863 0 002.24-2.114c.521-.554 1.067-1.138.96-1.956-.094-.728-.679-1.79.514-1.994.8-.137 1.9.284 2.552.695 1.954 1.231 3.77 2.713 5.635 4.073 1.702 1.24 3.445 2.421 5.174 3.622-.202-2.854-.109-5.948-.789-8.735-.333-1.36-.914-2.644-1.659-3.828-.767-1.214-1.378-2.486-2.048-3.753-.373.216-.983.699-1.324.123-.212-.357-.064-1.298.017-1.709.593-3.047 5.229-3.352 7.619-3.872 3.438-.748 6.872-1.651 10.351-2.182 1.607-.246 3.201-.294 4.818-.393.83-.05 1.797-.235 2.299.603.135.225.154.546.301.725.134.164.527.325.711.473.536.43.998.936 1.403 1.489.83 1.131 1.398 2.433 1.947 3.715 1.324 3.091 2.076 6.373 2.489 9.701.424 3.411.719 6.938.493 10.374-.414 6.326-2.136 12.759-6.127 17.814-.915 1.159-1.912 2.108-3.231 2.798-.638.335-2.644 1.517-3.004.347zm-45.472 74.42c1.237 1.589 2.472 3.16 3.577 4.845 1.112 1.696 2.172 3.425 3.261 5.136 1.049 1.651 2.221 3.254 3.065 5.024.487 1.021.534 2.365 1.871 2.317 1.767-.063 3.441-.566 4.997-1.391 3.121-1.653 5.717-3.975 7.666-6.92 2.022-3.056 3.591-6.513 4.728-9.989.628-1.922 1.132-3.882 1.588-5.851.231-.999.479-1.978.48-3.009.002-.454-.027-.907-.05-1.36-.022-.428-.261-1.176.233-1.205-.148-1.232-.289-2.463-.441-3.693-.109-.89-.102-1.887-.883-2.475-.747-.564-1.919-.583-2.799-.782a43.237 43.237 0 01-3.165-.841c-2.142-.656-4.192-1.524-6.259-2.379-1.031-.427-2.064-.861-3.038-1.412-.805-.455-1.382-1.116-1.928-.078-3.715 7.067-6.428 14.987-12.51 20.471-.492.443-1.297.976-1.37 1.702-.07.707.584 1.386.977 1.89zm-4.891-4.994c.858-.588 1.922-.685 2.791-1.227.998-.621 1.658-2.022 2.338-2.955 1.626-2.227 3.254-4.467 4.722-6.802 1.332-2.12 2.538-4.317 3.818-6.469.656-1.102 1.333-2.176 2.105-3.2.329-.436 1.163-1.976 1.867-1.918.362.029.348.381.608.494.134.059.24-.005.371.013.471.063.982-.175 1.467-.128 1.198.116 2.495.618 3.648.965 2.407.725 4.702 1.745 7.069 2.582 2.346.831 4.966 1.385 7.11 2.677.847.51 1.803 1.327.971 2.326-.315.379-.748.369-1.075.663-.277.247-.154.384-.09.797l.111.708c.383 2.48.697 4.965.351 7.469a53.222 53.222 0 01-1.592 7.505c-2.243 7.747-6.255 16.941-14.138 20.375-1.843.802-3.677.992-5.621 1.353-.611.114-1.129.391-1.672.671-.26.134-.582.351-.895.312-.713-.087-1.3-1.194-1.633-1.718-1.259-1.976-2.687-3.832-3.994-5.776-.676-1.006-1.316-2.038-1.87-3.116-.321-.625-.551-1.659-1.433-1.636l-.713.951c-.096.127-.239.268-.309.41-.175.358-.161.093-.088.516.093.541.595 1.152.912 1.579 1.855 2.503 3.792 4.945 5.737 7.378 1.911 2.391 3.862 4.765 6.101 6.861.453.424.949.941 1.612.97.612.026 1.282-.294 1.889-.4 1.32-.23 2.675-.283 3.962-.681.67-.207 1.229-.593 1.922-.64.583-.04.98-.137 1.491-.445 1.157-.698 2.442-1.08 3.611-1.739 2.412-1.357 4.903-3.374 6.671-5.503.916-1.103 1.667-2.332 2.566-3.449.873-1.086 1.736-2.165 2.5-3.334 1.506-2.304 2.705-4.8 3.616-7.397.474-1.349.71-2.23-.468-3.216-1.111-.931-2.151-1.903-3.076-3.022-.45-.545-2.503-2.546-.966-2.878.833-.181 2.163 1.222 2.788 1.73 1.02.828 2.019 1.631 3.198 2.223 1.335.672 1.359 1.523 1.34 2.917-.04 2.874-1.112 5.674-2.223 8.297a38.594 38.594 0 01-4.303 7.624c-3.293 4.532-6.977 9.129-12.097 11.664-2.531 1.253-5.265 1.914-8.062 2.227a36.612 36.612 0 01-4.977.208c-.701-.017-1.617.078-2.289-.135-.545-.173-.635-.576-.832-1.07-.467-1.17-1.69-1.805-2.516-2.742-.883-1.001-1.809-1.944-2.717-2.921-1.967-2.117-3.268-4.609-4.849-6.999-.874-1.323-1.82-2.617-2.583-4.009-.617-1.128-1.384-2.611-1.599-3.883-.171-1.015.647-2.49 1.772-2.546.587-.03 1.057.431 1.636.491.173.018.765-.101.973-.016-.946-2.292-2.347-4.45-3.41-6.682a74.272 74.272 0 01-1.694-3.82c-.401-.982-.878-1.787.14-2.484zm-15.127-181.46c-1.857 4.28-4.844 7.693-7.893 11.168-1.614 1.839-3.261 3.509-5.218 4.989-1.821 1.377-3.664 2.721-5.503 4.074 1.845 2.366 3.918 4.531 5.974 6.719 1.9 2.021 3.793 4.087 5.045 6.583.129-1.195.906-1.933 1.954-2.42 1.307-.608 2.509-1.269 3.644-2.166 2.41-1.902 4.652-4.168 6.704-6.443 4.174-4.627 6.835-10.446 9.735-15.888-4.814-2.205-9.628-4.41-14.442-6.617zm15.428 10.8c-.705 1.977-1.726 3.881-2.661 5.761-.921 1.851-1.876 3.691-2.952 5.46-2.044 3.361-4.543 6.493-7.73 8.851-1.56 1.154-3.233 2.304-4.969 3.183-.82.415-1.72.731-2.654.678-.571-.033-1.363-.538-1.806-.087-.454.462-.303 1.385-1.257.937-.782-.368-1.471-1.152-2.046-1.767-1.466-1.563-2.937-3.136-4.344-4.752-1.363-1.566-2.483-3.351-3.634-5.073-.636-.952-1.264-1.907-1.894-2.861-.451-.684-1.093-1.367-1.06-2.232.065-1.689 2.139-2.833 3.317-3.772 1.445-1.151 2.786-2.333 4.016-3.71 1.309-1.466 2.957-2.693 4.374-4.068 1.537-1.493 2.926-3.117 4.304-4.754 1.094-1.299 2.179-2.63 3.106-4.053.724-1.112 1.541-1.965 2.989-1.759 1.133.262 2.27.448 3.362.864 1.098.417 2.155.945 3.222 1.436 1.935.889 3.714 2.013 5.593 3 .426.225.848.456 1.234.744.213.158.429.464.656.577.168.084.283.065.476.12.761.212 1.048.636 1.429 1.303.611 1.073.594 1.649.035 2.749-.512 1.004-.728 2.165-1.106 3.225zm-76.271 53.199c-.476.762-1.255.387-1.699-.156-1.352-1.647-2.617-3.429-3.831-5.182-1.231-1.78-2.36-3.582-3.755-5.242a208.453 208.453 0 00-4.302-4.943c-5.442-6.077-11.027-12.01-17.027-17.53-1.467-1.349-2.976-2.667-4.384-4.078-.621-.621-1.375-1.31-1.346-2.264.021-.681.466-1.521 1.061-1.868 1.294-.755 3.031 1.084 3.993 1.771.735.525 1.524.801 2.296 1.232.676.378 1.352.956 1.93 1.472 1.302 1.159 2.704 2.145 4.023 3.274 1.34 1.147 2.523 2.463 3.839 3.636 1.407 1.255 2.916 2.334 4.169 3.763 1.235 1.41 2.277 2.949 3.566 4.321 2.744 2.92 4.988 6.22 7.328 9.466 1.127 1.563 1.978 3.275 2.74 5.043.379.881.755 1.765 1.114 2.655.34.843.368 1.704.525 2.588-.197.039-.05 1.738-.24 2.042zm-303.86 143.933c-1.03-1.237-1.707-3.019-2.456-4.446-.802-1.527-1.546-2.94-1.886-4.641-.163-.819-.261-1.656-.448-2.468-.177-.769-.429-1.446-.357-2.249.076-.838.467-3.363 1.742-3.084.742.162.593.954.597 1.532.005.663.083 1.324.278 1.959.462 1.501 1.562 2.825 2.259 4.233.674 1.366 1.474 2.608 2.483 3.752a27.032 27.032 0 003.197 3.069c1 .813 2.208 1.428 2.937 2.531.435.661.508.859 1.309 1.04.646.148 1.253.383 1.797.768.616.437 1.054.958 1.775 1.245.627.25 1.292.399 1.925.633 1.464.539 2.743 1.45 4.239 1.96.774.265 1.561.49 2.344.724.627.188 1.368.316 1.887.739.87.71 1.358 2.523.596 3.467-.819 1.016-2.742.381-3.809.251l-.041.208c-1.796-.36-3.669-.573-5.414-1.136-.923-.298-1.752-.723-2.595-1.193-.714-.398-1.446-.539-2.21-.793-.683-.226-1.228-.571-1.655-1.159-.546-.754-.777-.53-1.618-.714-1.353-.296-2.518-1.829-3.449-2.754-1.133-1.129-2.404-2.246-3.427-3.474zM402.308 84.623c-.316-.499-1.417-.95-1.922-1.275a46.07 46.07 0 01-2.038-1.375c-1.207-.87-2.051-.298-3.122.535-1.979 1.539-2.774 3.606-2.626 6.051-.005.715-.197 1.91.354 2.498.527.564 1.621.508 2.317.649.911.184 2.287 1.334 3.231.998.827-.295.534-1.769.6-2.419.125-1.214.53-2.388 1.277-3.369a6.964 6.964 0 011.351-1.316c.387-.293.891-.482.578-.977zm3.627 3.674c-.779.135-1.583.496-2.312.791-.483.196-1.116.38-1.507.726-.648.577-.385 1.486-.536 2.24-.088.441-.315.82-.152 1.28.191.534.753.626 1.037 1.06.417.637-.12 1.536-.48 2.079-.625.942-1.477.461-2.44.32-1.16-.17-2.352-.217-3.469-.599-.91-.31-1.665-1.029-2.359-.072-.259.357-.312.672-.822.538-.424-.111-.854-.686-1.146-.98-1.813-1.832-2.245-4.336-2.275-6.806-.087-2.743.912-5.32 2.327-7.638.298-.487.597-1.05 1.041-1.428.432-.369.996-.514 1.387-.944.584-.642.449-1.942 1.38-2.225.98-.299 2.391.888 3.133 1.397a73.93 73.93 0 013.075 2.227c2.156 1.643 4.564 3.215 6.513 5.093.661.638.931 1.763.268 2.524-.664.76-1.798.267-2.663.417zm-115.68 196.517c.418-2.424 1.123-4.793 1.978-7.103.555-1.495 1.819-4.069 3.838-3.921 2.224.163.734 3.06.518 4.211-.845 4.506-1.333 9.116-2.001 13.652-.33 2.248-.43 4.564-.962 6.777a17.989 17.989 0 01-1.085 3.145c-.29.647-.637 1.487-1.362 1.779-2.203.885-1.652-2.981-1.628-3.934.06-2.333.115-4.666.172-6.999l-.18-.005c.334-2.529.277-5.078.712-7.602zM512.812 53.145c-.6.801-1.886.806-1.8-.369.077-1.076.412-2.138.76-3.152.355-1.035.282-2.16.303-3.242.048-2.582-.037-5.084-.523-7.625-.466-2.446-.768-4.922-1.314-7.354-.536-2.386-1.506-4.642-2.104-7.009-.185-.73-.334-2.157.738-2.324.892-.138 1.417 1.108 1.762 1.698 1.149 1.959 2.387 3.77 3.069 5.954.614 1.967 1.078 4.06 1.294 6.11.225 2.147.192 4.316.323 6.47-.215 2.502-.101 5.272-.906 7.67-.364 1.08-.914 2.252-1.602 3.173zM215.798 96.74c.167.41.248.847-.038 1.231-.519.698-1.346-.892-1.472-1.335-.272-.962-.614-1.932-.767-2.925-.156-1.014-.081-2.103-.106-3.13.082-1.22.241-2.436.525-3.621.251-1.052.518-2.136 1.354-2.845.347-.295.586-.072.635.349.053.461-.064.926-.27 1.33-.48.949-.481 2.057-.589 3.118-.214 2.108-.334 4.21.205 6.28.138.53.318 1.043.523 1.548zm334.359 14.824a26.605 26.605 0 01-.902 2.919 24.514 24.514 0 01-2.742 5.227c-1.857 2.672-4.308 5.21-6.968 7.089-.877.62-3.007 2.352-4.147 1.774-1.559-.791.528-2.809 1.161-3.399 1.306-1.22 2.605-2.449 3.926-3.653 1.325-1.208 2.311-2.756 3.356-4.203 1.052-1.458 2.081-2.934 3.034-4.459.494-.788.924-1.616 1.414-2.405.423-.683 1.052-1.152 1.598-1.727.454.216.401.178.518.589.05.177.035.536.032.699-.009.533-.148 1.034-.28 1.549zm-111.924 15.311c-2.473-2.236-5.187-4.125-7.522-6.507-.588-.6-1.042-.95-.534-1.769.34-.547.73-.824 1.304-.45 1.372.896 2.679 1.997 4.001 2.974 2.711 2.002 5.521 3.966 7.968 6.288 1.108 1.052 2.131 2.196 2.991 3.458.903 1.323 1.584 2.666.575 4.15-2.939-2.7-5.823-5.469-8.783-8.144zM281.807 284.366c.447-.488.997-.494 1.233.095.244.608-.072 1.649-.159 2.252-.142.986-.298 1.971-.467 2.954-.098.573-.171 2.356-.925 2.588-1.157.356-1.185-2.454-1.285-3.026.244-.83.475-1.663.721-2.492.216-.728.347-1.788.882-2.371zm194.877-48.469c.277-.131.491-.074.549-.403.049-.273-.381-.558-.446-.792-.236-.845.652.043.973.31-.305.752-.609 1.504-.915 2.255-.346-.136-.691-.275-1.036-.413.33-.447.372-.717.875-.957zM314.826 99.894c-.576.19-1.421-.068-2.008-.177a10.063 10.063 0 01-1.747-.472c-1.335-.52-1.221-2.096-.913-3.321.415-1.65 1.34-3.23 2.073-4.753a59.81 59.81 0 001.095-2.395c.261-.61.606-1.467 1.399-1.473 1.222-.01.626 2.864.431 3.548-.489 1.723-1.396 3.31-2.154 4.919.7.048 1.421.14 2.12.116.726-.024.924-.002 1.101.807.256 1.17-.097 2.775-1.397 3.201zm11.015-14.081a78.686 78.686 0 01-3.938-.366c-.964-.109-2.646-.128-3.331-.889-.469-.522-.388-1.633.025-2.174.488-.639 1.627-.387 2.352-.387 1.956.033 3.853.292 5.602 1.153.642.316 2.087.89 1.934 1.752-.193 1.082-1.838.96-2.644.91zm-5.485 15.155c1.099.275.888 2.155.549 2.945-.508 1.183-1.788 1.47-2.964 1.394-.565-.056-1.378.147-1.801-.325-.418-.467-.413-1.403-.117-1.926.392-.691 1.407-1.083 2.095-1.404.598-.28 1.549-.856 2.238-.684zm-.145-9.77c-.086-1.077.531-3.496 1.969-3.405.685.042 1.267 1.02 1.392 1.62.132.632-.05 1.273-.217 1.878-.272 1-.682 2.541-2.013 2.32-1.104-.184-1.134-1.501-1.131-2.413zm-10.379 1.083c-.292.283-.717.493-1.125.308-.601-.273-.498-.993-.498-1.507l-.202-.065c.341-.945.565-2.925 1.752-3.192 1.164-.263 1.249 1.028 1.139 1.833-.116.86-.411 1.987-1.066 2.623zm36.598-.108c.578.058 1.666.325 1.572 1.05-.137 1.055-1.794 1.243-2.636 1.345-.997.122-2.379.021-1.431-1.226.578-.76 1.543-1.095 2.495-1.17zm48.759 126.105l.622 1.213-1.951.248c-.028-.515.983-1.153 1.329-1.461z" fill="#000"/></g><defs><clipPath id="clip0"><path transform="matrix(-1 0 0 1 701.072 0)" fill="#fff" d="M0 0h701.073v428H0z"/></clipPath></defs></svg>