<svg width="1440" height="500" viewBox="0 0 1440 500" fill="none" xmlns="http://www.w3.org/2000/svg" preserveAspectRatio="none"><mask id="a" maskUnits="userSpaceOnUse" x="0" y="0" width="1440" height="500"><path fill="#FBF4F2" d="M0 .998h1440V500H0z"/></mask><g mask="url(#a)"><path d="M1179.5 718.562c-159.34 0-288.502-128.908-288.502-287.924S1020.16 142.714 1179.5 142.714c159.33 0 288.5 128.908 288.5 287.924s-129.17 287.924-288.5 287.924z" fill="#fff" fill-opacity=".5"/><path d="M781.5 718.562c-159.334 0-288.5-128.908-288.5-287.924s129.166-287.924 288.5-287.924S1070 271.622 1070 430.638 940.834 718.562 781.5 718.562z" fill="#fff" fill-opacity=".5"/><path fill-rule="evenodd" clip-rule="evenodd" d="M1011.19 309.287c1.07-1.546 2.96-2.321 4.46-3.342-.67 1.54-.73 2.006-.05 3.475.53 1.133.88 2.339 1.39 3.484.34.783.9 1.574 1.12 2.377.26.94.13 1.896.47 2.826-4.1-1.107-7.75-3.697-11.24-6.103.65-.094 2.37-.064 2.92-.54.45-.389.54-1.607.93-2.177zm-98.787-13.82c-1.79 1.423-1.79 1.423-1.852 3.841 1.506-.914 2.006-2.036 1.852-3.841zm86.751 6.348c.827.068 1.026-2.32 1.206-3.019l-.811-.113c-.373.4-1.843 3.013-.395 3.132zm-124.443 24.433c-1.171-6.48-2.6-12.921-4.502-19.229a150.325 150.325 0 00-3.104-9.175c-.978-2.618-2.84-5.459-3.165-8.205 2.962 2.671 5.374 6.015 7.928 9.073 2.441 2.927 5.002 5.797 7.306 8.831.939 1.235 1.786 2.654 1.846 4.241.064 1.74-.936 2.803-1.653 4.269-.752 1.533-1.258 3.421-1.628 5.078-.407 1.812.232 2.697.854 4.339 1.333-.656 2.481-1.019 3.454-2.205 1.034-1.261 1.908-2.677 2.884-3.982 2.129-2.844 4.28-5.671 6.398-8.525 4.245-5.724 7.964-11.502 11.149-17.872 3.225-6.448 6.112-13.071 9.257-19.561.661-1.366.934-2.864 2.699-2.862 1.305.003 2.413.812 3.64 1.131.302.089.613.143.928.161-.01.312.041.613.153.902.323.392.439.235.888.211.52-.029.895-.353 1.462-.315.788.053 1.554.572 2.295.807v-1.796c2.354 1.206 8.052 5.242 9.291.667.107.833-.117 2.334.703 2.868.542.354 1.228-.015 1.815.06.734.095 1.387.622 2.068.875.045-1.232.987-1.093 1.902-1.258 1.183-.215 2.219-.87 3.439-.661 1.213.21 2.093.752 3.312.1.819-.439 1.583-1.053 2.409-1.516.839-.471.986-.797 1.346-1.632.397-.925.326-.715 1.271-.453 2.025.56 2.811-1.876 3.168-3.527.87-4.04-.127-8.452-2.797-11.604-3.434-4.055-7.071-8.033-11.56-10.963-4.148-2.706-8.556-6.054-13.397-7.366 3.865-8.635 9.374-16.678 14.284-24.759 1.405.322 2.248 1.083 3.75.844 1.185-.187 1.131-.096 1.57 1.134.392 1.099.607 1.258 1.658 1.594 1.091.35.224-.329 1.036.528.363.382.561.797 1.011 1.112 1.651 1.153 3.808.489 5.6 1.208 1.237.497.628 1.129 1.261 1.984.671.904 1.809.433 2.738.287 1.938-.304 2.522.348 2.93 2.167.304 1.348.505 2.049 1.955 2.332.822.162 2.099-.493 2.626.036.201.202.116.77.21 1.031.169.474.467.863.806 1.232.688.749 1.63 1.365 2.566 1.757.89.372 1.829.164 2.674.489 1.331.51 1.007 1.922.962 3.04.754-.181.93-.159 1.381-.726.206-.259.093-.695.5-.806.35-.095 2.24 1.066 2.507 1.399.784.969-.01 2.338.192 3.468.198 1.122 1.113 1.969 1.836 2.795l.709-2.045c.352.456.844.782.995 1.354.08.297-.163.697-.028.998.381.846.762.31 1.473.339.625.026 2.308.502 2.011 1.48-.201.657-1.502.505-1.347 1.399.188 1.087 1.6.375 2.173.602.749.295.452.933.708 1.582.45 1.138 1.358 1.24 2.299 1.798.93.552 1.29 1.22 1.717 2.167.531 1.182.476.864 1.622.76.704-.065 1.073.078 1.353.728.228.53-.162 1.183.037 1.67.246.602 1.522 1.284 1.963 1.895 1.198 1.66 1.713 3.71 2.69 5.491.432.788.932 1.551 1.472 2.271.73.966 1.18.783 2.16 1.3 1.58.84 1.12 3.057 1.3 4.521.09.757.27 1.453.81 2.024.33.341 1.47.73 1.24 1.409-.27.822-1.18-.057-1.01 1.224.14 1.022 1.3 1.86 1.56 2.883.18.703-.05 1.373.13 2.083.2.774.81 1.361 1.1 2.09.29.732-.17 1.656.08 2.213.29.647 1.37.481 1.66 1.321.31.919-.42 2.364-.56 3.303-.08.601-.4 1.254.11 1.748.43.421 1.46.345 1.01 1.387-.2.483-.97.383-1.05 1.111-.07.561.58 1.412.93 1.792.94 1.01 2.71 1.852 1.44 3.138-.22.222-.49.118-.7.418-.24.351-.28.978-.42 1.378-.33.961-.8 1.865-1.39 2.695-2.25 3.158-5.96 4.645-8.44 7.513-3.015-2.998-6.103-5.922-8.943-9.088-2.41-2.686-4.741-5.466-7.499-7.815-1.424-1.213-3.053-2.191-4.237-3.661-1.131-1.403-1.547-3.168-2.409-4.728-1.69-3.06-4.126-5.631-5.938-8.614-3.554 2.311-2.07 8.213-1.046 11.524.625 2.024 1.51 3.964 2.549 5.811.88 1.564 2.117 3.118 2.539 4.893.344 1.439-.16 2.65-.995 3.821-1.198 1.678-2.598 3.249-3.861 4.884l-9.212 11.939c-1.112-1.603-2.947-.554-4.425-.246-2.165.452-4.4.292-6.591.498-2.298.217-4.624.598-6.901.966-2.039.33-.684 1.274-1.671 2.397-2.085-3.753-6.074-1.38-9.33-1.049-2.044.208-4.213.099-6.217.354-2.025.258-4.024.947-6.12 1.148-3.95.378-7.522 1.738-11.4 2.445-2.048.374-4.114.637-6.161 1.013-.727.133-2.009.2-2.415.947-.481.886.497 2.757.762 3.556.396 1.192.675 3.018 1.477 4.01.621.767.78.3 1.581.267.926-.04.549.16 1.189.874.79.884 1.898.89 2.996.988.501.045 1.501-.045 1.89.303.546.488.073.521.116 1.269.071 1.309 1.884 2.284 2.943 2.798.678.329 1.408.598 2.174.543.482-.034 1.055-.497 1.538-.304.686.272.633 1.564 1.03 2.11.735 1.012 1.722.261 2.686.773 1.155.612 1.81 2.066 2.907 2.786 2.175 1.427 4.678 1.585 5.76-1.093.433.897 1.455 2.287 1.072 3.189-.34.801-1.415 1.391-2.14 1.785-2.122 1.15-4.204 2.298-6.239 3.609-4.678 3.012-9.175 6.311-14.178 8.793-4.923 2.444-10.098 5.077-15.532 6.146-5.58 1.096-11.283.404-16.469-1.903.773-1.543.892-2.535.939-4.295.044-1.663.08-3.326.102-4.989.04-3.321.022-6.642-.095-9.961a138.221 138.221 0 00-2.145-19.785zm-58.958-4.758c.503-1.786 1.074-3.648 1.186-5.505.082-1.339-.416-3.33.384-4.496.338-.497.946-.669 1.143-1.265.158-.479-.083-1.438-.019-1.965.166-1.37.711-2.649 1.214-3.925 1.14-2.892 1.173-5.927 2.127-8.858.521-1.607 1.5-2.978 2.072-4.558.522-1.439.787-2.957.952-4.472.176-1.616.173-3.218.563-4.806.363-1.482.815-2.932 1.143-4.423.782-3.548 1.688-7.023 2.933-10.443.471-1.292.813-3.459 1.961-4.327.834-.631 1.931-.467 2.901-.403 1.103.075 2.009.127 2.742 1.046.938 1.174 1.535 2.45 2.621 3.553 1.106 1.122 2.487 2.091 3.482 3.309.782.957.335 1.283-.505 2.099 1.087.141 1.981-.158 2.772.663.806.836 1.417 2.223 1.929 3.249 1.153 2.313 1.284 4.392 1.627 6.895l.918-1.427c.389 1.053.951 2.147 2.069 2.581 1.37.532 1.329.359 1.332 1.891.007 2.203 1.836 3.588 2.992 5.254.649.936 1.274 2 1.7 3.052.544 1.345.199 2.228.068 3.605-.195 2.061 1.794 3.638 2.992 5.099.375.455.585.678.795 1.234.155.414-.06.674.251 1.115.563.796 1.739.583 2.192 1.56.424.916-.165 1.838-.257 2.744-.148 1.446.726 2.78 1.202 4.099.517 1.434.916 2.916 1.107 4.427.11.872.156 1.751.123 2.629-.015.406-.329 1.426-.061 1.794.345.478 1.101-.069 1.416.46.647 1.088-1.769 1.435-2.241 1.603.56.354 1.297.601 1.752 1.1.602.662.23 1.055.479 1.796.272.809 1.247 1.028 1.55 1.744.312.733-.296.89-.613 1.499-.774 1.485-.079 3.709.228 5.233.123.611.065 2.203.449 2.676.244.302.792.191 1.006.457.449.555-.023.779-.207 1.418-.232.807-.193 1.665.024 2.472.204.764.703 1.468.842 2.245.152.853-.272 1.143-.564 1.934-.65 1.765-.193 3.947.028 5.745.259 2.091-.476 4.067.072 6.004l1.75-.754-.554 2.765c-.092.454-.182.909-.273 1.363.114.591-.086.825-.596.702-1.002.288-2.548-1.287-3.375-1.752-2.484-1.401-5.165-2.406-7.744-3.616-2.679-1.256-4.921-2.953-7.376-4.555-2.529-1.65-5.196-3.063-7.661-4.809-10.663-7.553-22.223-13.924-33.342-20.795 3.115.352 3.681-3.768 4.299-5.96zm-13.188-85.929c-1.669.485-1.287 1.896-.653 3.121.641-.605 1.773-1.315 2.074-2.179.372-1.074-.462-1.221-1.421-.942zm-46.646 41.735c.089.428.186 2.177.515 2.448.299.245 1.835-.101 2.243-.122 1.288-.067 2.272.194 3.492.495 2.098.518 2.476-.785 2.486-2.734 1.612 3.177 4.298 4.767 7.729 5.38 1.534.274 3.178.601 4.732.667 1.161.05 2.468-.052 3.616-.251.728-.126 1.391-.573 2.078-.702 1.504-.28.149.801 1.235 1.089.279.073 1.331-.381 1.744-.406.664-.039 1.333.071 1.998.036 1.507-.078 1.999-.915 3.193-1.561.626-.338 1.053-.289 1.724-.195.738.103.177.348 1.038.196.277-.049.78-.359 1.007-.462 1.63-.73 2.904-1.381 4.162-2.647.92-.927 2.08-1.55 2.997-2.469.331-.331.511-.737.804-1.079.379-.444.405-.332.881-.663.543-.377.965-.589 1.296-1.186.565-1.018.543-2.425.632-3.555.302-3.85-.389-7.28-2.222-10.674-1.989-3.686-3.639-7.584-5.968-11.078-2.107-3.161-4.751-6.127-7.345-8.902-.733-.784-1.531-1.698-2.42-2.31-.577-.397-1.33-.574-1.876-1.008-1.295-1.034-.665-2.93-.665-4.367-.409.723-1.05 1.803-2.029 1.566-.644-.156-.666-.88-1.132-1.163-.359-.218-.781-.108-1.179-.15 1.566-7.672 3.584-15.416 6.107-22.837 6.895 6.754 13.795 13.557 20.49 20.512 3.454 3.589 6.643 7.418 10.081 11.021 3.614 3.786 7.307 7.495 10.961 11.242-.993.959-2.131 1.61-2.809 2.846-.623 1.135-1.34 1.996-2.198 2.969-1.939 2.197-2.866 5.47-4.066 8.116-.236.52-.3.676-.237 1.147.038.286.334.54.34.89.007.444-.204.739-.468 1.075-.248.316-.976.675-1.036 1.086-.073.491.433.819.601 1.279.741 2.022-1.693 3.453-2.515 5.039-.453.871-.662 1.751-.081 2.622.476.712 1.524.988.968 2.073-.348.678-1.317.306-1.174 1.25.078.506 1.056.98.14 1.535-.74.448-1.621-.354-1.275 1.035.154.62.986 1.244.749 1.939-.233.675-1.444.785-1.926 1.315-.607.667-.882 1.783-1.001 2.651-.411 2.961-1.093 5.647-1.773 8.554-.456 1.948.717 1.982 2.452 1.995-1.169 1.636-2.319 3.277-3.567 4.854-1.221 1.544-1.536 3.938-2.109 5.806a866.834 866.834 0 00-2.027 6.742c-.304 1.025-.515 2.026-.108 3.057.469 1.186.461 1.191.245 2.419-5.408-3.096-10.512-6.537-15.642-10.073-2.459-1.695-4.924-3.385-7.356-5.12-1.914-1.366-3.801-2.847-5.033-4.885-2.859-4.732-7.064-8.441-10.887-12.433-1.944-2.03-3.754-4.551-6.13-6.092-2.299-1.492-4.737-2.813-7.056-4.296.858-1.175 1.717-2.35 2.574-3.526z" fill="#85A090"/><path fill-rule="evenodd" clip-rule="evenodd" d="M927.041 340.862c-2.204-1.048-4.235-2.456-6.378-3.622-1.857-1.012-3.547-1.501-5.144-2.902-.668-.588-1.295-.808-2.08-1.196-.996-.492-1.753-1.364-2.637-2.018 2.256-.877 4.469-2.233 6.962-2.262 1.108-.013 2.127.38 3.234.176 1.125-.209 2.003-.785 2.898-1.448 1.624-1.202 2.344-1.024 4.103-.03.421.238.994.768 1.506.753.827-.025.702-.533 1.061-1.1.326-.514-.089-.574.508-.59.361-.009.523.487.924.565.762.148 2.2-.596 2.963-.734 1.282-.231 2.267.046 3.536.126 1.316.084 2.599-.221 3.834-.641 1.126-.382 2.208-.922 3.347-1.265 1.483-.446 1.784.133 3.154.448 2.086.479 4.109-2.519 6.02-.935-2.802 4.074-6.636 7.512-10.177 10.974-1.905 1.86-3.834 3.682-5.924 5.338-.942.748-1.904 1.472-2.863 2.199-.435.331-.873.661-1.306.996-.778.599-.706.779-1.445.434-.993-.464-1.762-1.446-2.851-1.918-1.076-.465-2.186-.844-3.245-1.348zm-1.392-89.262c-.08 1.833-1.22 3.335.39 4.885l.143-2.73c.05-.948.528-1.977-.533-2.155zm1.795-7.987c.271.797.618 1.372 1.379 1.779 1.087.58 2.593-.36 3.35.465.761.831.672 2.782 1.665 3.462.318.217.671.065 1.049.348.324.244.338.822.669 1.077.542.417 1.004-.01 1.516.233.574.273.668.926.821 1.498.149.562.146 1.287.559 1.725.503.534 1.667.913 2.28 1.293 2.208 1.37 4.414 2.743 6.622 4.115-.658.665-2.11 1.42-2.278 2.399-.114.669.35.743-.206 1.269-.252.239-1.143.493-1.447.645-1.251.627-2.52 1.178-3.889 1.475-1.629.354-3.26.187-4.882.575-1.704.405-3.382.719-5.142.68-1.502-.034-2.92-.452-4.407-.58-2.789-.24-6.405.01-8.678-1.951.226-2.015.45-3.547 1.2-5.465a407.112 407.112 0 012.105-5.27c1.441-3.536 2.91-6.947 4.742-10.289.374 2.342 1.27-.741 2.154-.765.65-.017.656.813.818 1.282zm-154.417 25.433c-1.227.304-2.213.459-3.363.987-.851.39-1.175.598-1.917-.07-.403-.361-.478-.9-.995-1.17-.511-.267-1.206-.179-1.753-.207-1.385-.074-2.771-.103-4.156-.154l4.779-4.584c.248.424.911 1.986 1.398 2.086.146.03.602-.458.848-.478.262-.021.451.098.68.199.589.261.852.865 1.51 1.025.645.159 1.376-.139 2.031-.155.179.616.638 1.727.938 2.521zm1.949-19.83c-.277-1.145.319-2.325.137-3.488l.395-.591c.308.686.505 1.361.923 1.998.347.529.892.975 1.127 1.579.427 1.097-.109 1.999-.647 2.971-.719-.803-1.67-1.375-1.935-2.469zm9.475 2.47c.967.022.598.472.729 1.193.084.454.308.859.556 1.241.496.77 1.69 1.544 1.009 2.585-.58.884-.611-.22-1.094.214-.506.454 2.836 3.858 3.336 4.044.272.101.569-.208.826.009.232.197-.082 2.157-.072 2.557.025 1.048.095 2.178-.76 2.928-.993.87-2.628.902-3.804 1.397-.806.339-1.56.824-2.41 1.052-.895.239-1.666-.259-2.437-.143-.58.086-1.713 1.026-2.299 1.306-.788.376-.94.434-1.708.142-.423-.161-1.248-.472-1.535-.839-.432-.554-.101-.546-.159-1.301-.104-1.377-1.547-1.217-2.538-1.606 1.961-.586 3.045-2.69 4.011-4.407.425-.757 1.291-1.662 1.521-2.51.287-1.062-.506-1.748-.984-2.635.65.264 3.2 1.433 1.973.052-.383-.429-2.749-1.13-1.785-2.249.58-.673 1.333.701 2.004.568.778-.155 1.7-1.456 2.35-1.886.784-.518 2.315-1.733 3.27-1.712zm235.299 39.335a34.89 34.89 0 00-1.54-9.673c-1.95-6.439-6.1-12.082-7.44-18.724-.64-3.196-.43-6.437-1.05-9.64-.65-3.375-.62-6.832-.74-10.256-.12-3.373-.25-6.748-.2-10.124.01-1.211.35-2.894.04-4.066-.25-.983-.65-.614-1.48-.969.58-.356 1.77-.533 1.89-1.275.09-.509-.41-1.066-.38-1.627.02-.461.24-.925.37-1.355.74-2.363 1.78-5.998.43-8.267.81-.137 1.14-.389 1.89-.046.81.369 1.62 1.19 2.32 1.747 1.4 1.108 2.79 2.231 4.04 3.502 2.37 2.394 4.31 5.153 6.37 7.801 2.05 2.64 4.17 5.254 6.28 7.846 1.64 2.015 4.25 5.083 6.54 2.369.68.911 1.12 1.828 2.24 2.27 1.37.539 1.96 1.099 2.95 2.257.2.234.79 1.228 1.05 1.321.52.189.22-.164.63-.426.64-.413.94-.693 1.17.447.1.506-.17.983.08 1.485.23.466.94.931 1.38 1.185 1 .591 2.15.533 3.22.895 1.79.597 2.92 3.294 4.88 2.002.71-.47 1.27-1.202 2.2-.703.69.372.8 1.292 1.8.928.52-.19.95-.873 1.55-1.094.43-.156.89-.219 1.34-.272.99-.12 2-.077 2.97-.386 2.09-.672 3.53-2.528 4.96-4.094 1.07-1.168.74-1.9.44-3.384a80.873 80.873 0 00-.82-3.771c-.62-2.48-1.42-4.928-2.61-7.195-1.39-2.638-3.41-4.85-5.27-7.162-3.85-4.809-7.48-9.88-11.66-14.41-.79-.85-2.13-1.775-1.99-3.071.16-1.424 1.78-.732 2.77-.485 2.66.662 5.11 1.95 7.66 2.947 1.4.551 3.29 1.627 4.79.921 1.42-.667 3.67-2.457 2.88-4.096-.61-1.258-1.27-2.17-1.59-3.592-.29-1.269-.47-2.565-.74-3.839-.63-3.027-1.43-6.014-2.33-8.97-1.72-5.642-3.83-11.157-5.72-16.741 7.77.699 14.86 2.957 22.16 5.564-.34.71-.99 1.728-.73 2.559.32 1.024 1.7.681 2.05 1.385.4.832-.83 1.31-.46 2.377.3.896 1.19 1.931 1.7 2.737-2.4 1.539-1.47-1.659-3.14-1.878-.47 2.545.6 3.743 1.6 5.884.88 1.907-1.15 1.725-1.57 3.151 1.17.193 1.97-.342 2.48 1.033.22.585-.11 2.726.59 2.785.52.044.35-.893.77-.981.52-.109 1.84 1.757 2.17 2.107-1.41 0-2.19.15-3.53.685.87.847 1.75 1.677 2.65 2.488-.83.341-2.23.418-2.65 1.335-.39.854.2 2.396.29 3.281-.36-.53-.87-1.781-1.42-2.122-.72-.449-.92-.004-.88.978.08 1.806 2.44 1.689 2.77 3.129.33 1.424-1.71.432-1.76 1.848-.03.806.91 1.496.44 2.349 1.05-.584 1.17-.929 1.74-2.07.4 1.444 1.26 3.729.79 5.227-.39 1.224-1.2.922-.27 2.108.34.439.82.784.83 1.382.03 1.382-1.95 2.453-.41 3.683.59.478 1.24.531 1.54 1.361.26.717 0 1.675.21 2.455.42 1.552 1.55 2.704 2.68 3.788 1 .968 1.92 2.091 3.02 2.933.6.458.82.726 1.23 1.322.17.254-.04.493.19.729.27.275.96.246 1.33.317 1.2.234 2.66.718 3.06 2.051 1.46-1.108 2.96.239 4.38.678.7.217 1.35.272 2.02-.1 1.07-.594 1.02-.682 2.3-.497 3.57.514 6.5-3.194 8.49-5.688 1.44-1.815 2.24-4.074 2.62-6.341.44-2.663.9-5.306 1.15-7.999.51-5.643.31-11.199.11-16.851 6.59 3.468 12.76 7.986 18.67 12.502 5.88 4.504 10.91 10.14 16.2 15.332-1.34.087-2.64.563-3.99.59-.66.014-1.31-.066-1.93-.343a3.987 3.987 0 01-.92-.589c-.24-.489-.58-.573-1.02-.255-1.32-.108-2.55-.382-3.88-.573-1.68-.242-3.47.264-5.12.549-3.08.533-6.36.179-9.34 1.136-2.61.839-5.33 2.037-7.84 3.121-2.42 1.044-4.55 3.329-6.6 4.961-1.18.941-2.48 1.343-3.72 2.114-1.21.744-2.12 2.367-2.97 3.464-2.05 2.652-4.35 5.101-6.4 7.738-.92 1.179-1.75 2.457-2.27 3.866-.27.718-.29 1.525-.55 2.225-.23.628-.67.989-1.05 1.522-1.26-3.386-2.48-6.786-3.78-10.155-.5-1.294-2.74-7.511-4.5-5.127-1.51 2.052-.65 6.266-.18 8.556.63 3.069 1.33 6.125 2.02 9.183 1.37 6.065 2.62 12.188 4.36 18.159.11.386.33.854.36 1.256.05.695.29.3-.19.785-.24.247-.82.173-1.05.469-.42.54-.28 2.418-.25 3.075.06 1.247.76 1.795 1.09 2.905.28.97-.2 1.967-.21 2.945-.03 2.424 1.23 5.061 1.67 7.461.28 1.523-.6 3.935 1.55 4.227-.54.896.09 1.277.56 1.938.58.821.62 1.649.99 2.596.32.834.83 1.409.92 2.238.08.753-.26 1.473 0 2.238.31.902.88 1.006 1.64 1.398.74.381.52-.062.78.677.11.325-.04 1.076.03 1.453.33 1.775 1.75 2.962 2.93 4.205.44.465 1.02 1.545 1.56 1.832.79.42 1.98-.309 2.71.079.66.357 1.36 3.2 1.61 3.891.52 1.469 1.02 2.95 1.51 4.428 1.82 5.413 3.62 10.838 5.42 16.258-.86-.021-2.3-.968-3.14-.58-.95.444-.34 1.753-.7 2.467-.25.51-1.75.433-2.45.47-1.17.064-1.7-.272-2.75-.576-1.82-.527-4.11-.343-6-.548-4.19-.454-8.5-.582-12.62-1.499-3.94-.878-7.72-2.337-11.59-3.472 1.8-.949 2.14-3.287 2.66-5.067.28-.985.39-1.764.95-2.658.64-1.035 1.19-2.086 1.6-3.24 1.58-4.482 1.65-10.037 1.12-14.708-1.09-9.545-4.5-18.482-9.75-26.492-2.51-3.83-5.41-7.362-8.63-10.623-3.28-3.327-6.65-6.968-10.5-9.649-1.74-1.216-3.78-1.643-5.3-3.09-1.17-1.11-3.05-1.355-4.48-2.139-2.01-1.096-3.71-1.958-5.97-2.419-1.66-.34-3.52-1.185-5.25-.97-1.18.147-.74.699-1.43 1.242-.92.719-.59-.294-1.27-.548-.57-.215-.94.332-1.41.505-.22.079-1.2.065-1.15.034-.52.318-.43 1.443-.73 1.974-.33.573-.8.962-1.01 1.611-.27.87-.08 1.528.28 2.268.41.816 1.02 1.217.04 2.009 2.44 1.598.93 4.809 2.77 6.746.62.658 2.02 1.577 2 2.599-.03 1.102-2.01 1.538-.99 2.639.93 1 2.93.526 4.01 1.417 1.08.899.72 2.444.82 3.68.07.946.99 2.087.61 3-.25.599-.69.51-.71 1.164-.01.529.43 1.234.57 1.746l1.22-.531c.19.713.52 1.403.61 2.142.11.867-.24 1.285-.43 2.057-.18.776.24 2.122.32 3.049.09 1.061.19 2.175.95 2.998.44.488 1.06.564 1.54.941.45.353.59.825.9 1.292l-2.1-.616c.28 1.333.79 1.872 1.68 2.92.14-.77.29-1.538.44-2.308.25.808.71 1.45.66 2.321-.03.743-.37 1.457-.37 2.224-.01 1.495 1.1 2.474.64 3.912-.54 1.739-.66 2.652-.12 4.432.48 1.559 1.14 3.112 1.26 4.754.13 1.855-.71 3.45-.54 5.334.08.872.45 1.488-.53 1.584-.86.087-1.81-.63-2.56-.987-3.71-1.763-7.4-3.553-11.1-5.335.69-.958.52-.988.09-2.167-.32-.888-.65-1.777-.97-2.665-.68-1.888-1.37-3.774-2.08-5.654-1.31-3.5-3.07-6.958-3.71-10.663-.58-3.346-.28-6.681-.33-10.049zm163.18 167.187c.43-.979 1.1-1.156 2.11-1.351 4.37-.838 8.77-.843 13.18-1.247 1.25-.114 2.5-.291 3.72-.595 1.03-.256 1.99-.825 3-1.064 2-.477 3.99.846 5.99.749 1.02-.05 1.89-.658 2.86-.914.8-.21 1.53-.046 2.34.006 1.58.101 3.18.021 4.75-.142a36.01 36.01 0 005.74-1.051c1.25-.338 3.13-.699 4.05-1.649 2.1 3.212 3.86 6.574 5.38 10.088 1.48 3.418 3.44 6.649 5.25 9.908 3.67 6.64 6.3 13.77 8.78 20.911-1.37-.628-2.36-1.268-3.39.151-.97 1.341-2.12.902-3.69 1.155-2.52.406-2.79 3.189-3.34 5.269-.82-1.013-1.63-2.025-2.45-3.037-.65.727-1.7 1.104-2.24 1.94-.34.535-.14 1.031-.35 1.541-.18.474-.66.666-1.03 1.002-2.49-3.184-4.83 2.805-5.13 4.854-.32-.794-.63-1.588-.94-2.381-.44.48-1.05.89-1.4 1.45-.21.349-.2.972-.43 1.263-.35.432-.57.242-1.07.361-.79.192-.64.147-1.1.759-1.39 1.849-3.46 3.271-4.63 5.261-1.47 2.501-3.47 5.078-4.35 7.842-.51 1.584-.73 3.07-1.56 4.544-.43.776-1.18 1.44-1.58 2.197-.48.942.38 1.33.28 2.173-.1.849-1.51 1.674-2.21 1.938-1.1.414-2.41.284-3.57.318-1.5.043-3.27-.012-4.72-.442-1.27-.376-1.17-1.025-1.52-2.139-.41-1.321-1.13-2.586-1.7-3.843-.86-1.87-1.27-3.117 1.28-3.677-1.46-.245-3.86-.676-3.39-2.637.22-.942 1.07-1.574.94-2.614-.13-1.059-.95-1.416-1.73-1.967-1.49-1.041-2.55-2.985-3.09-4.669-.3-.936-.38-1.666-.06-2.605.49-1.481.76-2.691.88-4.272-.68.072-1.35.144-2.03.215.15-.597.17-1.073.45-1.622.09-.179.56-.319.53-.572-.05-.438-.64-.429-.9-.736-.67-.79-.87-2.637-1.15-3.595-.26-.91-.4-2.015-.9-2.832-.92-1.522-2.06.625-1.83-1.535.11-1.095.2-2.716 1.56-2.875 1.63-.189 2.1.451 1.95-1.496-.11-1.377.26-4.333-1.22-5.073-.7-.353-1.86-.31-2.65-.376-.94-.079-1.68.419-2.55.39-1.45-.05-1.37-2.117-1.54-3.169-.73-4.673-1.1-9.429-.65-14.15.18-1.863.3-4.207 1.07-5.958z" fill="#85A090"/><path fill-rule="evenodd" clip-rule="evenodd" d="M1145.07 273.736c.09-3.411.09-3.411-1.8-4.704-.5 2.171.74 3.261 1.8 4.704zm-34.45 8.705c-.41-.813-2.1-.575-2.81-.565.33.688 1.49 2.362 1.84 3.64.4-.741 1.37-2.283.97-3.075zm4.43 24.159c-.74-.586-.57-.557-.93-1.264-.27-.548-.2-.836-.79-1.2-1.19-.735-1.37-.732-1.68-2.302-.26-1.368-.15-3.318-.76-4.584-.43-.907-1.85-.991-1.87-2.13-.05-2.214 3.96-3.342 3.19-5.574-.23-.665-.95-.872-1.26-1.443-.18-.349-.05-.806-.12-1.178-.13-.834-.36-1.015-1.13-1.234.08.382.08.721-.05.974-.5.979-2.52-.193-2.98-.868-.94-1.392-.07-3.704.24-5.156.43-1.974.36-3.476.2-5.456-.86.942-1.71 1.882-2.58 2.825-.46-1.425-.55-2.191-1.85-3.082-1.22-.826-1.69-1.374-2.47-2.599-.3-.466-.5-.983-1.08-1.147-.58-.16-1.52.458-2 .22-.3-.149-.63-1.693-.73-1.97l-.96-2.625c1.84-4.635 3.34-9.549 6.09-13.764 2.51-3.862 6.16-6.984 9.84-9.726 1.84-1.369 3.7-2.762 5.63-4.001 1.94-1.246 4.03-1.696 6.1-2.625 2.07-.932 4.45-1.897 6.75-2.014 1.17-.059 2.3.214 3.47.06 1.29-.17 2.54-.608 3.82-.826.01 6.718 2.46 13.532 4.75 19.781 1.04 2.843 2.54 5.468 3.63 8.29 1.1 2.839 2.19 5.672 3.39 8.474 2.47 5.773 4.72 11.794 7.9 17.224.29.481.61.824.44 1.251-.05.122-.45.367-.56.474-.32.33-.58.719-.81 1.121-.52.948-.76 2.016-1.14 3.019-.89 2.297-2.47 4.551-3.69 6.702-1.39 2.457-3.26 4.605-5.31 6.549-.97.915-2.39 1.757-2.98 2.97-.45.95-.47 2.067-.79 3.06-.11-.794-.23-1.589-.34-2.383-.84 1.788-3.02 1.954-4.59 2.845-1.99 1.129-3.73 2.52-5.85 3.433-2.14.919-4.38 1.66-6.68 2.036-1.15.187-2.35.326-3.52.276-1.19-.053-2.05-.629-3.13-1.052 3.39-2.917 2.16-7.975.22-11.338-.59 1.307-1.19 2.614-1.78 3.92-.39-.93-1.74-1.806-1.14-2.898.36-.66.83-.49.94-1.254.08-.581-.32-1.376-.6-1.871-.26.691-.36 1.325-.45 2.06zm9.88 21.753c.76-1.679 3.89-2.068 5.47-2.39 2.6-.533 5.09-2.068 7.43-3.289 2.24-1.171 4.14-2.263 5.95-4.006.85-.814 1.55-.988 2.59-1.455 1-.447 1.69-1.149 2.41-1.952 1.52-1.677 3.5-2.949 4.65-4.919 1.16-2.001 2.78-3.279 4.21-5.08 1.67-2.109 2.86-4.548 4.32-6.8 2.61 2.807 3.32 7.188 4.9 10.595 1.97 4.246 3.86 8.532 5.71 12.832 3.32 7.713 6.55 15.475 9.44 23.36.11.29.68 1.254.58 1.565-.1.304-.83.637-1.06.885-.62.647-1 1.441-1.49 2.181a29.298 29.298 0 01-3.04 3.796c-2.51 2.671-5.42 5.172-8.62 6.985-1.38.788-3.36 2.349-4.95 2.214-2.04-.174-3.59-.311-5.64.151-2 .45-3.75.842-5.81.786-.8-.021-1.64-.128-2.41.188-.55.226-.94.855-1.56.882-.78.036-1.25-.699-1.97-.965-.63-.233-1.31-.267-1.97-.235-.97.048-3.24.921-4.01.173-.84-.808-.52-3.142-2.1-3.448-1.16-.228-3.53 1.903-4.48 2.5.41-1.238 1.83-3.661 1.06-4.961-.33-.564-.8-.664-1.47-.529-.77.157-.84.711-1.45 1.056-3.35 1.876-3.05-7.045-2.94-8.411l2.55-.147c0 .783-.25 2.537.28 2.855.44.264 2.01 0 2.56 0-1.16 1.104-1.7 2.049.05 2.992 1.2.643 2.68-.072 2.8-1.54.14-1.537-2.27-1.772-1.83-3.29.6-2.037 2.39 1.413 2.72 2.015.48-1.768.18-3.387-1.01-4.785-1.4-1.657-3.01-1.757-5-1.233-.19-.837-.62-1.414-.85-2.178-.28-.912.14-.694.54-1.486.66-1.289-.65-1.737-.9-2.845-.15-.662.12-1.24.45-1.794.36-.615 1.05-1.039.02-1.376-.76-.25-1.67.483-2.39-.176-.78-.716-.5-2.208-.92-3.098-.64-1.343-1.35-.514-2.39-.137-.78.283-1.02.257-1.11-.603-.05-.43.01-.859.34-1.163.54-.496 1.29-.142 1.89-.308.83-.225.87-.745 1.18-1.49-1.43-.127-1.46.331-2.76.881-1.04.437-2.17.372-3.22-.011.73-.259 1.61-.324 2.26-.773.82-.572.63-1.239.99-2.019zm-89.7-48.608c-1.43-2.626-2.72-5.315-4-8.012-.77-1.638-2.45-3.902-.46-5.253 1.35-.91 3.8-2.189 5.5-1.501 1.45.583 2.24 3.989 4.22 1.756.37 1.03 1.6.861 2.33 1.419.55.414.5.834.83 1.366.35.55.93.928 1.35 1.409.38-.741.77-1.337 1.29-1.995.45.759.35 1.222.6 1.988.14.442.27.748.73.92 1.06.396 2.1-.902 2.64-1.617-.32 1.116-.48 2.416.28 3.39.6.755 1.56.903 2.12 1.692.62.885.66 1.556 1.79 1.921.21.069.96.261 1.2.257.24-.005.36-.43.47-.428.34.01.92.43 1.24.575-.7.878-.43 1.245.32 1.817.92.693.87.765 1.32 1.827.21.506.46.963.96 1.242.5.281 1.17.042 1.59.333.85.589.75 2.115 1.42 2.859.9 1.003 2.03 1.698 2.86 2.821.84 1.132 1.51 2.375 2.15 3.625 1.24 2.423 2.9 4.682 3.07 7.437.07 1.134-.03 2.644.5 3.696.53 1.065 1.67 1.495 2.11 2.731.37 1.048.61 2.355.74 3.456.16 1.33-.67 2.336-.09 3.626.55 1.228.66 2.112.77 3.468.1 1.259 1.09 2.114.48 3.189-.59 1.043-1.2 1.808-1.37 3.065-.18 1.364.04 1.859 1.22 2.435-.72 1.214-1.5 2.155-1.9 3.528-.38 1.316-.87 2.46-1.71 3.558-1.65 2.173-3.75 3.32-3.71 6.344l-22.56-7.533c2.9-.545 1.42-5.62 1.23-7.516-.35-3.474-.72-6.965-1.22-10.42-.44-2.974-1.28-5.857-1.75-8.828-.23-1.539-.46-3.087-.87-4.595-.35-1.313-1.09-2.545-1.39-3.833-.67-2.923-1.08-5.641-2.3-8.436-1.17-2.677-2.61-5.219-4-7.783zm219.03 258.784c-.59-.412-1.15-.332-1.84-.406-1.78-.193-3.31-.585-5.05-1.093-2.08-.608-4.29-.96-6.42-1.329-2.05-.354-4.12-.269-6.12-.868-1.99-.599-3.59-1.159-5.7-1.241-2.29-.09-3.65-1.159-5.53.758-1.68-2.348-4.12-2.333-6.8-2.704-.97-.134-2.09-.003-2.3-1.151-.2-1.069.65-2.485 1.11-3.353 2.47-4.604 4.56-9.473 7.84-13.577 3.22-4.025 7.39-8.484 11.94-10.998 2.47-1.363 5.32-2.113 7.93-3.138 2.84-1.111 5.61-2.374 8.41-3.575 1.45 1.555 1.57 3.436 2.3 5.407.68 1.837 1.84 3.455 2.46 5.317 1.24 3.732 2.3 7.427 3.85 11.058 3.27 7.675 6.45 15.322 9.42 23.123-4.68-.726-9.24-1.183-13.97-1.477-.93-.058-.87-.287-1.53-.753zm-247.86-286.61c-1.34.143-2.93.488-3.78 1.637-3.635-5.257-8.005-9.953-12.551-14.435-4.416-4.354-8.9-8.659-13.74-12.547-9.791-7.864-20.602-14.177-31.786-19.836 3.545-4.076 7.031-8.211 10.601-12.262 3.334-3.78 7.259-6.968 11.153-10.148.313 3.155.862 6.383.833 9.555-.027 3.197-.466 6.379-.509 9.575-.037 2.597.047 5.365.716 7.886.516 1.952 1.682 4.805 3.819 5.427 2.913.849 7.851-.59 10.031-2.634 1.878-1.76 2.87-4.385 4.361-6.444 1.021-1.408 2.093-2.009 3.812-1.45 2.572.837 5.05 2.362 7.466 3.569 2.731 1.364 5.454 2.748 8.184 4.111-.19.134-1.3.704-1.35.956-.01.078.63 1.395.65 1.653.07 1.022-.42 2.003-.73 2.948-.33 1.008-.59 2.056-.55 3.125.05 1.135.67 1.914.9 2.954.23 1.097-.58 1.484-.99 2.44-.43.978-.45 2.036-.27 3.073.16.845.67 1.718.66 2.571 0 .46-.39.971-.25 1.443.13.47.69.736 1.01 1.048-1.47.967-1.74.826-1.16 2.405.42 1.137.27 2.259.08 3.424-.1.633-.75 2.321-.31 2.961.41.586 1.74.128 2.35.106-.23 1.182-.55 1.058-1.1 2.037-.37.638-.33 1.466-.29 2.178.1 1.841 1.23 2.046 2.74 2.674zm216.91 194.925c-1.98.579-3.88 1.011-5.95 1.148-1.78.12-3.63.17-5.29.927-.61.278-1.27 1.032-1.93 1.02-.8-.013-.55-.552-1.1-.903-.53-.334-.93.041-1.45.182-.77.21-1.55.202-2.35.228-2.22.074-4.44.119-6.66.175-2 .049-3.94.376-5.93.388-2.1.013-4.2 0-6.3 0 1.65-3.172 3.04-6.498 5.62-9.039 1.31-1.286 2.41-2.726 3.65-4.075 1.23-1.339 2.74-2.294 4.1-3.476 1.44-1.242 2.6-2.539 4.27-3.492.7-.393 1.47-.911 2.23-1.144.62-.192 1.24-.11 1.81-.449.68-.398 1.28-1.223 1.94-1.695.68-.494 1.41-.925 2.15-1.334 1.47-.818 3.01-1.522 4.44-2.42 4.4 8.121 8.35 16.327 11.97 24.829-1.61-1.274-3.31-1.429-5.22-.87zm-115.06-248.621c-.41.486-.87.973-1.14 1.553-.32.668-.13 1.312-.33 1.95-.23.787-1.14 1.138-.59 2.126.38.673 1.28.832 1.54 1.619.46 1.413-1.16 2.713-1.8 3.825-.38.663-.65 1.366-.5 2.133.1.47.51.819.62 1.234.18.728 0-.011-.09.729-.09.767-.4 1.572-.46 2.378-.06.838.24 1.74.08 2.552-.34 1.781-1.63 4.246-2.67 5.744-.89 1.298-1.63 1.759-3.11 1.177-7.87-3.103-9.46-11.614-11.05-18.885-.95-4.309-1.48-8.466-1.53-12.873-.06-4.611-.41-9.226-.07-13.834 1.3.374 2.93.507 3.83 1.625.48.598.5 1.349.96 1.891.63.746 1.95 1.379 2.77 1.991 4.12 3.081 8.25 6.161 12.37 9.241.58.43 1.16.86 1.73 1.29.59.442.76.372.66 1.014-.07.506-.9 1.145-1.22 1.52zm-55.27 25.686c.74.964 2.15 1.182 3.05 2.072.87.862 1.38 1.956 1.79 3.082.56 1.494 1.16 2.573 1.2 4.191.03 1.505.51 2.884.74 4.353.15.995.1 1.3-.91 1.592-1.4.406-3.1.37-4.53.223-6.88-.701-12.3-6.018-16.48-10.991-4.78-5.699-8.58-12.085-12.7-18.249 1.97-1.11 4.11-1.938 5.99-3.203 1.77-1.19 3.35-2.685 5.09-3.94.23.723.23 1.549.53 2.249.34.797.82.929 1.54 1.382 1.31.816 2.36 1.935 3.2 3.206.77 1.168 1.15 2.658 2.08 3.692.86.968 2.12 1.354 3.1 2.127 1.45 1.137 2.64 3.17 3.81 4.592.95 1.16 1.61 2.465 2.5 3.622zm128.25 62.546c-.26.722-.82 1.733-.41 2.499.73 1.397 1.46-.665 2.19-.998-.17 1.199-.3 2.395-.61 3.566-.21.79-.49 1.593-.34 2.423.16.887.89 1.386.89 2.286.01.838-.43 1.697-.56 2.525 1.39-.163 1.69-.342 2.52.7-.34.106-1.19.178-1.46.402-.4.325-.19.169-.29.775-.12.807.04 2.146.06 3.013.04 1.005.61.821 1.05 1.509.3.48.22 1.406.15 1.938-.11.733-.72 1.539-.63 2.275.11.892.95.944 1.37 1.61.55.875.07 1.517-.18 2.416-.34 1.232-.29 2.52-.45 3.777-6.03-12.129-10.76-24.875-17.51-36.628a32.1 32.1 0 01-.49-.86l.6-.354c.09-.589.06-1.321.11-1.977.12-1.419.51-2.795.69-4.204.2-1.575-.15-3.088.01-4.648.05-.54.18-1.075.19-1.62.02-.822-.43-1.425-.5-2.151-.06-.743.37-1.733.38-2.531 0-.627-.07-1.252-.16-1.872-.24-1.658-.74-3.267-.99-4.925-.51-3.404-.55-6.865-1.13-10.264.91 1.338 1.94 2.593 2.84 3.938.9 1.34 1.48 2.817 2.29 4.199.69 1.169 1.53 2.237 2.42 3.257.75.849.74.794.44 1.849-.13.452-.3.983-.23 1.462.31 2.064 3.4 1.367 2.96 3.613-.23 1.135-1.09 2.178-.62 3.392.41 1.088 1.66 1.643 2.14 2.724.52 1.19-.18 2.01-.23 3.166-.03 1.007.42 1.791 1.11 2.478.94.945.9 1.564 1.14 2.903a10.63 10.63 0 001.25 3.362c.6 1.029 1.34 1.339 1.02 2.497-.22.838-.73 1.658-1.03 2.478zm14.37 18.573c-1.04 3.958-2.63 7.77-4.82 11.208-.37-2.008-.96-3.94-1.06-5.991-.1-2.031-.17-4.045-.39-6.068-.42-3.787-1.13-7.533-1.9-11.258-1.63-7.819-3.17-15.648-4.83-23.459a1794.952 1794.952 0 0110.9 17.444c.96 1.562 2.73 3.518 3 5.374.3 2.101.1 4.569.03 6.695-.07 2.068-.41 4.059-.93 6.055zm-34.56-46.84c-.05.536-.42 1.129-.53 1.679-.12.653-.11 1.325-.13 1.987-.04 1.6-.11 3.2-.16 4.8-3.24-4.449-4.97-9.741-7.89-14.382-1.26-2.01-2.66-3.953-3.59-6.145-1.02-2.409-1.95-4.806-3.13-7.149-.64-1.28-1.3-2.55-1.94-3.832-.3-.615-.62-.904-.3-1.503.14-.254.59-.589.86-.646.84-.178 1.33.811 2 1.147.9.459 2.05.303 3 .624 2.2.738 4.3 2.105 6.45 3.001.69.285 1.18.398 1.13 1.217-.05.728-.8.58-.03 1.213.42.343.97.184 1.45.136 0 1.572-.32 2.524.45 3.926.61 1.122.36 1.98.43 3.165.09 1.358.61 2.765 1.13 4.016.47 1.174 1.18 2.091.49 3.315-.38.675-1.2 1.169-.73 1.94.43.691 1.12.432 1.04 1.491zm9.32 208.145c2.33-1.382.13-2.787 0-4.079v4.079zm3.57-7.893c.35.017 1.55.144 1.77.509.1.162-.09 1.664-.09 1.891 0 1.15.12 2.297.06 3.446-.07 1.177-.66 2.26-.71 3.389-.05 1.062.63 1.63.94 2.575.42 1.246-.14 4.676-1.53 5.024-.03-.295-.09-2.568-.29-2.664-.67-.315-.99 1.403-1.18 1.873-1.84-1.82-2.39-4.317-3.25-6.758-1-2.81-1.99-5.62-2.98-8.429 1.22-.121 2.44-.195 3.66-.355 1.18-.155 2.4-.558 3.6-.501z" fill="#85A090"/><path fill-rule="evenodd" clip-rule="evenodd" d="M1006.4 226.427c-.68-.62-1.74-1.025-1.86-2.035-.13-1 .82-2.662 1.11-3.579l.75 5.614zm151.26 192.298c1.77-.008-.15-3.686-.43-4.53-.56.953-1.9 4.54.43 4.53zm-14.77-46.524c-.69-.416-2.01-.901-2.39-1.689-.44-.912.46-.903 1.26-.958.93-.066 2.17-.127 3.08.051.94.183 1.34.398 2.22-.156.5-.314.98-1.093 1.55-1.207.6-.118 1.29.511 1.8.749 1.8.83 3.71.293 5.62.384.72.034 1.32.205 1.98-.104.86-.397 1.05-.925 2.1-.854 1.71.115 3.01.633 4.76.169 1.08-.287 2.57-1.427 3.73-1.076 1.08.327 1.65 2.025 2.5 2.744.29-1.48.45-3.117 1.59-4.228 1.27-1.244 3.33-1.691 4.81-2.712 3.33-2.308 5.74-5.628 8.28-8.721 1.61 2.428 2.76 4.654 3.83 7.381 1.03 2.603 2.03 5.216 3.06 7.818 2.07 5.239 4.28 10.428 6.55 15.585 4.61 10.473 9.78 20.659 14.31 31.171-3.1.076-6.13 1.596-8.8 3.055-.7.381-.73.532-1.17 1.135-.22.29-.52 1.001-.91 1.098-.23.056-.97-.352-1.33-.299-.55.079-.93.433-1.34.759-2.61 2.05-5.22 4.212-7.69 6.428-1.14 1.017-1.91 1.978-2.68 3.288-.85 1.446-1.77 2.365-3.06 3.419-2.1 1.701-3.3 4.686-4.76 6.962-.84 1.308-1.66 2.636-2.3 4.053-.58 1.283-.79 2.822-1.84 3.826-2.24 2.119-5.73.902-8.44 1.253-1.06.138-1.32.438-2.28.009-.01-.377-.15-.511-.43-.403-.31.08-.6.223-.86.427-.7.383-1.38.844-2.06 1.264-.4-.981-.8-1.961-1.19-2.943.44-.009 2.06.187 2.31-.487.22-.566-.67-.724-1.01-1.074-.37-.389-.59-1.654-1.31-1.629-.59.022-.56.54-.55 1.047-1.28.026-1.27-1.084-1.48-2.03-.15-.636-.36-1.264-.52-1.896-.11-.428-.83-2.176-.65-2.542.46-.915 3.38-.858 1.52-1.972-.6-.356-1.99-.242-2.45-.744-.37-.402-.4-2.049-.51-2.6.87.06 1.92.586 2.45-.187.77-1.117-.36-2.822-.92-3.755-.74.577-1.2 1.209-2.04.54-.9-.716-1.71-2.052-2.05-3.083.97-.029.8.163 1.29-.593.28-.432.36-1.181.5-1.665.29-.994.87-1.752-.34-2.017-.75-.166-.93.007-1.15.72-.29.939-.19 2.549-.3 3.553-1.18-1.481-2.38-3.076-1.94-5.083.75.743.83.541 1.73-.036.9-.577 1.79-1.176 2.68-1.767-1.13-1.024-2.92-.033-4.04-.873-.75-.571-.37-2.323-.42-3.111-.06-.992-.49-1.993-.43-2.986.06-1.073 1.29-1.544.64-2.528-.46-.689-1.53-.585-1.72-1.618-.2-1.036.85-1.66 1.63-2.112-1.16-.375-3.38-.775-2.34-2.319.5-.731 1.1-.794 1.08-1.831 0-.749-.5-1.559-.82-2.211-.43.989-1.07 3.313-2.42 3.234-1.12-.066-2.11-1.072-1.79-2.085.99-3.123 3.82-3.35 6.58-3.937-.52-1.892-1.88-1.783-3.25-.822-.81.568-1.32 1.047-2.35.461-1.08-.61-.56-.838-.08-1.714.97-1.783-.38-2.806-1.69-3.845-.76-.599-1.12-1.348-1.77-1.998-.66-.664-1.74-.81-2.57-1.201 1-.488 1.91-.997 3.02-.616.74.253 1.28.749 2.13.321 1.89-.956-.57-1.2-.82-1.99-.14-.448.34-1.36.16-1.997-.19-.652-.59-1.204-.96-1.765-.76-1.193-1.6-2.399-1.15-3.886-.92 1.064-1.23 1.297-1.31 2.794-.06 1.327-.07 2.662-.34 3.97-.06-1.928-1.83-3.214-2.13-5.068-.09-.579.38-1.996-.17-2.305-.43-.242-1.31.375-1.77.378.32-1.762.37-3.618.97-5.32.58-1.666 2.1-2.307 3.37-3.398z" fill="#85A090"/><path fill-rule="evenodd" clip-rule="evenodd" d="M657.1 184.805c2.351.491 4.615 1.249 6.982 1.698a197.83 197.83 0 008.445 1.43c1.898.275 3.617.708 4.864 2.291 2.321 2.949 4.658 8.035 1.461 11.167-1.503 1.47-4.139 1.007-6.071 1.619-2.151.682-4.156 1.439-6.412 1.733-10.517 1.364-20.977 3.901-31.266 6.427-4.695 1.153-9.381 2.747-13.869 4.545-2.298.92-4.543 1.993-6.598 3.38-1.757 1.185-3.762 2.354-5.177 3.945 5.627.954 11.945 1.066 17.572.112 2.823-.478 5.664-.344 8.511-.559 2.853-.215 5.706-.418 8.556-.668 2.766-.244 5.513-.549 8.259-.96 1.016-.152 2.045-.302 3.075-.169.597.078.975.259 1.521.135.458-.104.949-.462 1.408-.615 2.107-.703 4.355-.567 6.54-.692 1.638-.094 3.385-.585 5.023-.223 2.882.634 4.196 4.673 4.855 7.15.415 1.56.085 3.5-.421 5.042-.581 1.769-1.647 1.736-3.076 2.538-2.042 1.148-3.832 2.403-6.034 3.299-1.843.75-3.73 1.402-5.555 2.201-4.018 1.756-8.374 3.28-12.159 5.497-2.052 1.202-3.995 2.404-6.146 3.446a41.665 41.665 0 00-5.576 3.234c-3.61 2.5-6.752 5.607-9.43 9.078 1.243 0 2.257.16 3.447-.26 1.461-.515 2.826-1.272 4.306-1.739 2.82-.888 5.584-1.725 8.371-2.738 2.785-1.013 5.638-2.017 8.481-2.856 1.457-.429 2.93-.62 4.408-.936 1.304-.279 2.461-.864 3.692-1.357 5.914-2.37 12.244-3.51 18.362-5.221 5.957-1.666 11.846-3.396 17.928-4.568 2.831-.547 5.668-1.063 8.526-1.454 2.798-.384 5.235.002 7.939.718 2.846.755 5.427 1.452 8.143 2.646 1.942.853 4.821 1.6 6.335 3.072.906.881 1.497 1.753 2.649 2.396.877.49 1.828.831 2.77 1.172 2.132.772 4.153 1.787 6.273 2.586 1.334.503 2.717.9 4.146.991 1.365.088 1.843.418 3.068 1.014 1.916.931 4.017 1.367 6.036 2.003 2.011.633 4.3 2.307 6.479 1.544 2.116-.742 3.471-3.462 4.733-5.151 3.325-4.438 6.183-8.836 8.032-14.086 1.96-5.57 3.831-11.17 5.728-16.76.987-2.908 1.978-5.813 2.984-8.714.559-1.61 1.718-3.342.455-4.828-1.466-1.725-1.988-4.442-3.503-6.373-1.506-1.919-3.204-3.683-4.8-5.526-.932-1.076-1.843-2.174-2.674-3.332-.68-.948-1.184-2.111-1.939-2.991-.687-.8-1.696-1.271-2.448-2.01-.819-.803-1.548-1.756-2.298-2.624-1.97-2.278-3.844-4.694-5.944-6.853-1.735-1.783-3.715-3.37-5.497-5.126-3.859-3.803-7.957-7.352-11.957-11.003-3.894-3.555-7.877-6.995-11.668-10.635-3.561-3.42-7.835-6.186-11.827-9.046-4.373-3.133-8.567-6.44-13.277-9.082-4.505-2.528-9.04-3.29-14.07-4.039.498.974.852 2.007 1.51 2.887.973 1.3 2.247 2.461 3.348 3.656a965.834 965.834 0 006.754 7.257c4.408 4.686 9.025 9.182 13.302 13.988 3.409 3.829 6.058 7.738 7.467 12.713.742 2.623 1.111 5.437-.483 7.848-1.221 1.842-3.226 1.7-5.248 1.519-5.212-.465-10.381-2.236-15.539-3.156-5.735-1.022-11.599-1.273-17.386-1.889-2.906-.309-5.776-1.107-8.681-1.325-1.31-.099-2.604.167-3.913.059-1.303-.108-2.608-.425-3.891-.663-2.698-.5-5.149-.784-7.88-.421-2.716.361-5.311.078-8.027-.144-5.735-.472-11.615.146-17.32.763-5.461.592-10.878 1.248-16.212 2.548 5.587 1.419 11.162 2.873 16.78 4.166 5.735 1.32 11.657 2.208 17.286 3.911 2.45.741 4.968.847 7.462 1.368zm442.21 118.146c-.61-2.219-1.23-4.602-2.01-6.817-.18-.511-.46-.909-.75-1.288.53.878.9 1.749 1.26 2.927.52 1.72 1 3.452 1.5 5.178zm1.22 2.269zm.45 1.099zm-1.55-2.944a8.232 8.232 0 010-.001v.001zm-341.95-20.7c2.228 1.417 4.395 2.312 6.221 4.275 4.113 4.424 8.545 8.61 12.504 13.169 1.591 1.83 2.394 4.098 4.172 5.802 2.021 1.935 4.486 3.443 6.772 5.038 5.078 3.543 10.105 7.372 15.463 10.48 1.202.696 2.418 1.419 3.658 2.043.815.409 1.842.63 2.557 1.21.68.553.954 1.372 1.695 1.91.546.396 1.202.72 1.774 1.082a812.62 812.62 0 0014.189 8.759c4.653 2.805 9.304 5.649 13.859 8.613 2.42 1.575 4.706 3.345 7.137 4.899 1.98 1.267 4.049 2.392 5.991 3.717 2.059 1.405 3.982 2.844 6.235 3.944 2.18 1.065 4.447 1.947 6.618 3.032 1.279.638 2.436 1.414 3.654 2.148.798.48 1.465.41 2.332.706 2.527.863 4.792 2.358 7.37 3.156 10.709 3.311 21.063-1.414 30.397-6.438 4.705-2.533 8.988-5.776 13.495-8.63 1.971-1.247 4.43-2.154 6.233-3.619.907-.738 1.256-1.514 2.317-2.096.96-.525 1.836-1.052 2.702-1.725 4.273-3.319 8.265-6.728 12.078-10.572 2.082-2.099 4.163-4.204 6.194-6.352 1.59-1.683 2.829-3.728 4.298-5.533 3.532-4.34 6.96-8.744 10.365-13.182 1.653-2.154 3.289-4.324 4.948-6.475 1.105-1.435 2.772-2.852 3.153-4.71.35-1.709-.655-3.344-1.481-4.753-1.245-2.122-2.432-4.232-3.266-6.555-1.255-3.495-3.17-10.191.661-12.698 1.41 2.336 3.191 4.413 4.71 6.674 1.528 2.277 2.187 5.154 4.021 7.183 1.928 2.13 4.495 3.674 6.517 5.75 2.015 2.069 3.858 4.297 5.81 6.426 2.044 2.228 4.213 4.335 6.365 6.459 2.022 1.997 4.332 3.602 6.612 5.299 2.38 1.777 4.84 3.36 7.4 4.867 1.1.651 2.24 1.453 3.46 1.889 1.29.462 2.42.741 3.67 1.383 5.05 2.613 10.15 5.12 15.29 7.575 1.38.66 2.83 1.576 4.31 1.942.57.14.9.013 1.52.212.66.21 1.32.58 1.95.859 2.64 1.161 5.33 2.056 8.06 2.97 5.68 1.899 11.44 3.633 17.06 5.707 5.26 1.942 10.38 4.043 15.8 5.547 5.33 1.483 10.97 1.73 16.47 2.268 1.48.145 3.21-.007 4.63.405 1.28.369 1.98.64 3.37.529 2.45-.196 4.75.27 7.18.643-3.71-7.286-5.63-15.586-8.32-23.304-.71-2.041-1.57-3.946-2.16-6.022-.52-1.856-1.29-3.637-2.21-5.33-1.13-2.066-1.47-4.456-2.22-6.672.58 1.741.9 3.596 1.45 5.342-.77-1.467-1.6-2.905-2.33-4.392-.77-1.552-.76-2.477-.77-4.148-1.99.229-2.07-1.816-2.37-3.274-.47-2.218-.96-4.43-1.44-6.644-.24-.511-.16-1.351-.29-1.908-.15-.658-.4-1.289-.63-1.924-1.74-4.917-3.65-9.751-4.91-14.821-1.39-5.591-2.61-11.233-3.86-16.857-.67-2.985-1.55-6.027-1.84-9.076-.14-1.461-.89-6.174 1.19-6.831 1.6-.508 3.32 4.365 3.73 5.438 1.02 2.608 1.98 5.235 2.95 7.861.86 2.348 1.53 4.72 2.5 7.033.97 2.339 1.31 4.775 2.18 7.148.5 1.394 1.32 2.42 1.88 3.753.41.974.56 2.031.89 3.029.69 2.069 1.77 4.09 2.55 6.148 1 2.63 2.23 5.161 3.32 7.751 1 2.368 1.58 4.865 2.52 7.239.9 2.281 2.31 4.318 3.21 6.619.99 2.528 1.89 5.091 2.87 7.624 2.01 5.227 4.06 10.414 5.64 15.792.4 1.346 1.07 2.668 1.4 3.867.3 1.086.83 1.947 1.26 3.028.77 1.94 1.09 4.122 1.48 6.164v.001l-.12-.662c.81.034 1.68.209 2.24-.512.64-.82.46-2.412.58-3.397.95.124.58.552.48 1.409-.06.442-.11.884-.16 1.326l-.4 3.315c-.3-.178-.94-1.208-1.2-1.237-.4-.044-.83 1.031-1.01 1.563.06.196.14.391.25.589.25.49.49.833.68 1.366.36.994.63 2.006 1.13 2.943.25.459.53.899.87 1.297.25.296 1.08.786 1.22 1.097.34.78-.18 2.724-.13 3.633.06 1.179.25 2.442.76 3.52.22.452.62.726.82 1.115.29.551.3.835.37 1.548.23 2.54 1.2 4.92 2.09 7.289.98 2.66 1.75 5.392 2.65 8.083.85 2.545 1.94 4.994 2.83 7.521 1.05 2.94 1.98 5.922 2.96 8.883.73 2.219 1.85 4.189 2.64 6.371.8 2.233 1.94 4.241 2.33 6.563.43 2.569 1.79 5.141 2.77 7.546.81 2.01 2.51 4.145 2.84 6.286.16 1.004-.09 1.943.24 2.941.29.866.84 1.605 1.21 2.434.5 1.141.13 2.197.47 3.363.3 1.014.99 1.728 1.54 2.594.98 1.529.65 3.301 1.66 4.896 1.41 2.25 1.92 4.771 2.67 7.327.38 1.255.66 2.547.99 3.813.13.503.2 1.506.47 1.97.33.585.91.357 1.2.692.25.292.3 1.235.41 1.61.35 1.187.85 2.34 1.34 3.482 1.04 2.452 2.23 4.838 3.13 7.346.94 2.624 1.89 5.246 2.83 7.87.45 1.248.88 2.5 1.37 3.735.47 1.212.97 1.582 1.77 2.509.78.912 1.1 2.19 1.84 3.155.69.907 1.15 1.573 1.46 2.701.56 2.122.98 4.255 1.87 6.283 2.24 5.128 5.04 10.005 7.29 15.139 2.36 5.381 4.6 10.816 6.64 16.324 1.92 5.171 3.15 10.531 5.11 15.682 1.94 5.1 3.61 10.278 5.52 15.392 1.99 5.311 3.99 10.614 5.77 15.999.64 1.941 1.07 3.873 1.49 5.828-.13-.881-.26-1.743-.41-2.554 1.9 3.163 3.64 6.604 2.81 10.393-.52-.729-.91-1.555-1.23-2.432.12.452.25.894.44 1.286.53 1.126 1.03 1.983 1.39 3.23.8 2.761 1.61 5.519 2.39 8.282.38 1.332.73 2.677 1.18 3.989.39 1.166 1.25 2.178 1.61 3.317.41 1.274.27 2.834.58 4.162.27 1.166.68 2.304 1.28 3.346.46.809 1.13 1.515 1.5 2.379.45 1.054.18 2.098.3 3.207.15 1.379.65 2.693.83 4.065.19 1.322-.43 2.143-.67 3.405-.24 1.321.26 2.192.65 3.398.34 1.026.53 2.118.77 3.167.11.45.18 1.858.5 2.157.23.218 1.57.252 1.91.312 1.26.22 2.52.464 3.81.464 2.7 0 5.46-.392 8.14-.68 5.43-.581 10.89-1.437 16.1-3.118 4.93-1.593 9.91-3.923 14.49-6.354 4.62-2.451 8.71-5.809 12.57-9.304 2.1-1.898 4.09-3.904 6.09-5.906.96-.961 1.91-1.924 2.89-2.873.77-.759 1.77-1.482 1.85-2.654.09-1.321-.87-2.834-1.33-4.027-.42-1.065-.83-2.132-1.23-3.201-.99-2.613-1.96-5.233-2.94-7.851-2.02-5.422-4.02-10.848-6.04-16.269-2.03-5.454-4.12-10.789-6.58-16.065a213.667 213.667 0 01-6.44-15.363c-1.85-4.927-4.04-9.677-6.14-14.501-1.12-2.59-2.18-5.211-3.04-7.9-.72-2.252-1.26-4.379-2.35-6.493-.71-1.36-1.28-2.692-1.71-4.166-.37-1.275-.58-2.367-1.4-3.4-1.75-2.179-2.72-4.64-3.62-7.264-1.75-5.111-3.78-10.277-6.23-15.097-2.48-4.886-5.23-9.573-7.49-14.569-2.27-5.024-5.37-9.542-7.5-14.646-4.39-10.528-10.45-20.222-14.9-30.722-4.38-10.343-9.6-20.28-14.08-30.581-2.34-5.382-4.6-10.8-6.73-16.268-1.02-2.611-2.03-5.224-3.08-7.82-.95-2.342-2.59-4.138-3.27-6.557-.69-2.477-1.8-4.383-2.98-6.614-1.21-2.301-1.84-5.078-2.79-7.503a641.608 641.608 0 00-6.53-15.804c-2.3-5.389-4.76-10.702-7.15-16.051-.91-2.022-1.41-4.197-2.34-6.205-.47-.999-1.41-1.847-1.82-2.803-.19-.443-.15-1.061-.31-1.536-.21-.636-.61-1.274-.91-1.878-2.4-4.902-5.06-9.616-7.24-14.621-2.24-5.117-4.53-10.229-6.49-15.458-1.95-5.165-4.4-10.036-6.07-15.312-.8-2.516-1.59-5.043-2.2-7.611-.53-2.239-1.53-5.541-1.03-7.841.31-1.415 1.96-4.298 3.63-2.994 1.54 1.202 2.46 3.581 3.3 5.271 1.26 2.542 2.6 5.053 3.68 7.679.86 2.098 1.64 4.12 2.84 6.059 2.87 4.673 5.16 9.567 7.75 14.402.59 1.094 1.28 2 2.08 2.94.77.91.55 1.346.87 2.501.56 2.067 2.28 3.733 3.16 5.687 1.16 2.601 2.16 5.05 3.62 7.519a73.06 73.06 0 013.43 6.512c2.37 5.111 4.64 10.264 6.93 15.408 1.21 2.727 2.39 5.476 3.72 8.148.59 1.174 1.16 2.365 1.8 3.513.41.746 1.16 1.355 1.51 2.113.39.861-.04 1.588.3 2.427.39.974.81 1.37 1.66.801 1.91-1.269 2.28-3.987 3.3-5.925 2.41-4.58 4.71-8.885 5.61-14.067.49-2.873.3-5.797.28-8.696-.02-2.572-1.55-4.319-2.9-6.446-3.16-5-6.32-9.995-9.54-14.958-1.41-2.184-2.64-4.48-4.09-6.637-1.4-2.084-3.27-3.625-4.8-5.559-.86-1.078-1.49-2.26-2.4-3.299-.77-.875-1.51-1.784-2.13-2.766-1.2-1.87-2.02-3.893-3.34-5.707-3.1-4.281-6.26-8.539-9.53-12.696-1.75-2.216-3.8-3.59-5.96-5.356-2.11-1.73-4-3.703-5.95-5.613-3.75-3.681-7.28-7.524-11.46-10.721a198.97 198.97 0 00-13.2-9.317c-2.22-1.438-4.99-2.522-6.78-4.468-.74-.803-1.5-1.553-2.45-2.112-.91-.538-1.97-.68-2.85-1.172-2.5-1.39-4.81-3.674-7.08-5.415-2.27-1.732-4.54-3.465-6.8-5.197-.96-.73-2.76-1.591-3.45-2.53-.39-.527-.34-1.262-.79-1.816-1-1.255-2.98-1.372-4.38-1.912-2.7-1.037-5.45-1.594-8.28-2.14-2.5-.482-4.88-1.55-7.27-2.388-5.24-1.833-10.68-2.935-16.21-3.432 2.49 7.317 5.31 14.528 7.21 22.03.77 3.04.9 6.589 2.19 9.454.46 1.031 1.69 2.013 1.08 3.178-.46.868-1.75 1.806-2.57 2.338-1.7 1.106-3.8-.12-5.48-.788-2.82-1.125-5.55-2.573-8.58-3.091-3.14-.536-5.77-3.504-9.03-3.456-1.36.02-2.47.67-3.49 1.516-1.05.872-2.24 1.572-3.26 2.49-2.24 2.017-4.84 3.749-7.67 4.866-.99.388-1.82.187-2.73.939-.68.56-1.22 1.367-2.13 1.574 4.31 4.589 8.48 9.134 12.12 14.283 1.79 2.523 3.12 4.988 4.1 7.923.46 1.388.88 2.448 0 3.789-.49.743-1.28 1.354-2.19 1.213-2.22-.341-4.18-3.326-5.41-4.961-1.43-1.899-2.99-3.657-4.48-5.509-3.08-3.846-5.82-7.881-9.66-11.044-1.14-.941-2.3-2.009-3.57-2.783-1.01-.617-1.72-.147-2.84-.343-2.8-.492-5.32-1.956-7.82-3.22a607.26 607.26 0 00-8.159-4.066c-1.43-.696-3.536-2.167-5.216-1.464-1.879.786-2.94 3.721-3.971 5.291-.988 1.508-1.88 2.82-3.502 3.678-2.662 1.41-7.834 3.121-10.166.409-3.302-3.841-2.966-10.13-2.682-14.839.175-2.887.53-5.796.308-8.689-.195-2.545-.495-5.082-.746-7.624-4.693 3.841-9.127 7.741-13.016 12.409-2.068 2.485-4.213 4.903-6.349 7.331-1.068 1.215-2.031 2.279-2.76 3.71-.63 1.233-1.525 2.3-2.46 3.31-1.955 2.113-3.29 4.918-4.78 7.382a443.354 443.354 0 00-4.263 7.185c-2.73 4.712-5.288 9.351-7.377 14.383-1.085 2.616-2.56 4.991-3.669 7.595a523.503 523.503 0 00-3.242 7.772c-.61 1.5-1.343 3.015-1.818 4.563-.33 1.075-.039 2.437-.434 3.436-.379.958-1.289 1.798-1.692 2.829-.406 1.045-.646 2.146-1.061 3.187-2.035 5.098-4.825 9.96-7.104 14.959-2.364 5.186-4.724 10.381-7.553 15.338-2.87 5.03-6.487 9.643-9.949 14.275-1.813 2.424-3.688 4.813-5.425 7.29-.626.892-1.184 1.915-2.02 2.635-.79.681-1.789.948-2.707 1.402-.507-1.346-1.198-2.229-.981-3.723.184-1.271.658-2.517 1.053-3.731.763-2.348 2.761-4.447 2.259-7.051-.467-2.427-2.457-4.351-3.964-6.185a1800.897 1800.897 0 00-5.997-7.252c-6.732-8.103-13.881-15.869-20.854-23.785-3.549-4.029-7.029-8.126-10.699-12.046-1.645-1.758-3.554-3.188-5.309-4.828-1.437-1.342-2.384-3.037-3.74-4.436-1.004-1.034-2.199-1.789-3.222-2.835-.83-.851-1.662-1.7-2.492-2.55a852.008 852.008 0 01-5.468-5.621c-3.624-3.771-7.011-7.748-10.582-11.567-6.895-7.374-14.19-14.454-21.388-21.527-2.078 6.129-3.797 12.517-5.287 18.814-.366 1.55-.518 3.162-1.068 4.652-.542 1.466-1.25 2.875-1.82 4.332-1.265 3.237-2.233 6.69-3.809 9.774-2.991 5.856-5.62 12.65-9.929 17.692-2.144 2.508-5.081 4.655-7.579 6.811l-8.073 6.97c2.422 1.819 4.824 3.646 7.382 5.273zm222.841 38.91c.222-.518.435-.796.686-.982-.187.111-.352.287-.566.701-.462.889-.747 1.914-1.076 2.859.298-.867.595-1.735.956-2.578zm65.029 46.435c-1.85 2.077-3.82 4.059-5.71 6.115-1.73 1.896-3.12 3.975-4.68 6.012a251.188 251.188 0 01-10.52 12.815c-3.51 4.005-7.3 7.779-10.65 11.921-3.35 4.142-5.88 8.583-8.39 13.253-1.16 2.163-2.49 4.242-4.06 6.134-.73.883-1.72 1.657-2.182 2.719-.513 1.177-.669 2.599-.961 3.843-2.611 11.128-5.283 22.245-7.799 33.394-1.22 5.404-2.036 10.881-3.215 16.291-1.194 5.478-2.983 10.798-4.112 16.294-2.286 11.131-3.85 22.409-6.306 33.504-2.392 10.801-6.545 21.07-8.801 31.918-.318 1.524-.775 2.915-.421 4.455.293 1.281.519 2.405.541 3.734.04 2.285.261 4.084 1.587 6.034 2.615 3.845 6.268 7.191 10.498 9.11 2.269 1.028 4.428 2.414 6.878 2.993 1.179.278 2.325.094 3.493.268 1.187.176 2.166.999 3.256 1.446 4.364 1.79 9.934 1.253 14.564 1.257 5.11.004 10.23-.337 14.95-2.469.38-.175.76-.359 1.14-.553.64-.097.75-.383.34-.856-.01-.515-.3-1.104-.32-1.649-.05-1.16.3-2.275.59-3.382.69-2.629 1.34-5.269 1.94-7.92 2.5-10.993 3.68-22.154 5.22-33.306.79-5.751 1.94-11.451 2.94-17.169.95-5.491 1.52-11.004 2.24-16.525.72-5.501 1.48-10.998 2.22-16.495.41-3.011 1.28-5.967 1.67-8.964.29-2.27-.31-4.414.2-6.69 1.21-5.357 1.26-10.913 2.63-16.236 1.41-5.485 3.45-10.875 5.35-16.207.98-2.762 1.95-5.525 2.94-8.287.58-1.634 1.24-3.387 2.92-4.169.93-.433 1.86-.384 2.7-1.031 1.03-.793 1.91-1.873 2.83-2.794 1.97-1.98 3.93-3.975 5.91-5.949 7.7-7.683 15.16-15.737 23.66-22.541 3.95-3.163 7.62-6.73 11.99-9.305 4.69-2.759 9.32-5.627 14.01-8.382a51.531 51.531 0 017.18-3.518c2.2-.88.86-2.981.22-4.684-.98-2.633-1.83-5.304-2.66-7.992-.62-2.03-.96-4.659-3.04-5.76-1.36-.721-1.96.119-3.26.526-.93.288-1.9.333-2.87.291-2.18-.096-4.69-1.071-6.84-.732-1.43.227-2.15.283-3.6.02-1.3-.234-2.66-.239-3.98-.336-2.42-.181-4.92-.211-7.31-.631-5.24-.92-10.55-2.126-15.58-3.883-5.39-1.883-10.52-4.497-15.67-6.903-.35 2.371-.69 4.78-1.57 7.026-.7 1.796-1.86 4.199-3.58 5.151-3.76 2.086-5.73 5.68-8.52 8.794zm-78.681 225.884c-1.633-.886-1.944.358-2.914 1.695a1898.045 1898.045 0 01-7.991 10.932c-2.603 3.54-5.215 7.076-7.821 10.615-2.443 3.317-5.142 6.482-7.386 9.938-2.305 3.547-4.134 7.441-5.902 11.274-1.504 3.261-3.689 6.657-2.11 10.291 1.466 3.373 5.639 4.798 8.675 6.402 3.835 2.028 6.86 3.461 11.199 1.919 8.259-2.934 16.348-6.747 24.173-10.675 7.17-3.599 12.594-8.917 18.538-14.141 3.121-2.743 6.35-5.268 9.27-8.239 3.04-3.09 5.93-6.321 8.99-9.391 4.75-4.779 9.74-9.005 8.92-16.406-4.54 1.517-9 3.422-13.72 4.332-4.96.958-10.026 1.543-15.088 1.281-2.182-.113-4.178-.707-6.305-1.129-2.077-.412-4.193.017-6.145-1.001-1.726-.901-2.797-1.971-4.771-2.44-2.01-.478-3.705-1.134-5.413-2.316-1.399-.968-2.698-2.126-4.199-2.941zM1109.85 397.56a.44.44 0 00-.14.051c.05-.021.09-.039.14-.051zm5.28-2.982c-.05.03-.1.067-.15.103.05-.036.1-.069.15-.103zm97.25 261.357a395.565 395.565 0 00-6.28 11.554 216.778 216.778 0 00-2.93 5.845c-.88 1.809-1.67 3.211-1.77 5.205 4.24-.472 8.55-2.98 12.15-5.197 3.79-2.33 6.99-5.214 10.21-8.256 3.13-2.967 6.33-5.901 9.69-8.617 1.55-1.253 3.17-2.328 4.88-3.343.53-.31 1.06-.626 1.48-1.07.52-.541.71-1.488 1.34-1.898 1.3-.836 3.31.412 4.47.976 1.53.748 3.01 1.644 4.29 2.772 1.48 1.293 2.46 2.949 3.73 4.422 1.19 1.383 2.39 2.702 3.46 4.182 2.42 3.349 5.06 6.912 8.15 9.683 1.4 1.263 3.18 2.267 4.38 3.691a29.4 29.4 0 003.76 3.708c3.06 2.514 5.72 5.029 8.35 7.994 2.89 3.27 6.19 6.199 9.32 9.243.48-1.927-.38-3.54-1.23-5.202-1-1.94-1.7-4.035-2.52-6.049a144.633 144.633 0 00-6.05-12.857c-2.07-3.896-4.2-7.762-6.21-11.692-1.67-3.26-4.25-7.284-3.45-11.093.31-1.486 1.12-3.728 2.73-4.225 1.6-.495 3.21.909 4.5 1.671 3.79 2.235 7.71 3.994 11.76 5.682 4.04 1.684 8.12 3.322 12.01 5.337 3.77 1.954 7.33 4.293 11.11 6.239 1.87.962 3.84 1.675 5.69 2.681 1.78.969 3.5 2.039 5.27 3.023 3.49 1.947 7.14 3.307 11.11 3.878-2.83-3.647-6.57-6.322-10.18-9.13-4.21-3.274-8.4-6.572-12.75-9.664-3.91-2.779-7.89-5.455-11.72-8.35-1.79-1.354-3.56-2.737-5.27-4.189-1.44-1.219-2.98-2.439-3.33-4.404-.31-1.767.5-3.808 2-4.83 1.5-1.022 3.41-.789 5.09-.55 4.73.672 9.34 2.114 13.92 3.442 1.05.306 2.13.806 3.19 1.051 1.06.247 2.32.143 3.4.198 2.05.104 4.09.211 6.12.47 2.12.272 4.29.194 6.39.532 1.92.306 3.26 1.343 5.22 1.296 8.72-.21 16.8 4.626 25.43 4.626-5.15-3.01-10.3-6-15.47-8.966-2.37-1.36-4.83-2.57-7.12-4.065-2.53-1.654-4.86-3.531-7.47-5.077-9.36-5.528-19.78-9.568-28.31-16.38-2.07-1.652-4.05-3.427-6.05-5.164-.45-.393-1.04-1.125-1.58-1.378-.86-.401-.58-.513-1.33.256-.83.846-1.4 1.879-2.09 2.839-2.72 3.804-6.06 7.142-9.82 9.91-4.39 3.216-9.43 5.169-14.34 7.428-4.95 2.276-9.83 4.702-15.02 6.415-5.22 1.728-10.76 2.614-16.22 3.257-5.77.682-11.16.295-16.9-.418-.33 4.305-.77 7.95-2.8 11.85-1.92 3.679-4.35 7.091-6.39 10.708zm-21.73-327.897c-.42.092-.96.127-1.36.274.35-.088.8-.09 1.05-.163.11-.031.21-.074.31-.111zm-1.54 2.484c-.17-.41-.42-.868-.46-1.289.03.416.25.879.46 1.289zm49.36 72.837c6.43 3.819 12.19 8.619 18.42 12.739 3.11 2.057 6.35 3.906 9.68 5.592 1.6.813 3.22 1.621 4.89 2.289 1.45.578 2.85 1.511 4.33 1.95 1.62.477 3.27.188 4.9-.004 1.42-.167 2.8-.076 3.97-1.014 2.11-1.691 3.48-5.071 4.73-7.371 1.79-3.289 3.89-6.72 5.17-10.237 1.2-3.283 2.77-6.285 3.4-9.726-1.11-1.83-1.01-3.735-.08-5.601.42-.859.97-1.649 1.48-2.462.57-.918.54-1.132 1.57-1.148-.99 3.054-1.97 6.106-2.95 9.159.97-3.004 2.28-6.078 2.95-9.159.58-2.689.81-5.296 1.77-7.918.49-1.331 1.27-2.584 1.65-3.947.32-1.122.31-2.307.46-3.456.42-3.204 1.24-6.377 1.75-9.575.96-6.102 1.58-12.272 2.75-18.34 1.21-6.242 2.76-12.445 4.12-18.655.52-2.371 1.45-4.402-.86-6.018-2.22-1.546-4.69-2.835-7.04-4.18-2.22-1.278-4.43-2.569-6.8-3.563-2.01-.843-3.95-1.647-5.77-2.843-1.14-.744-2.31-.74-3.59-1.154-1.33-.428-2.64-.923-3.95-1.387a2974.4 2974.4 0 01-7.23-2.567c-1.32-.469-4.02-2.192-5.26-.887-.64.675-.71 2.087-.89 2.93-.3 1.389-.58 2.78-.85 4.174-1.06 5.398-2.08 10.814-2.92 16.251-.82 5.334-1.29 10.72-2.12 16.051-.2 1.306-.86 2.919-.73 4.233.09.969.77 1.481 1.43 2.111a60.935 60.935 0 014.77 5.05c1.66 1.962 3.25 3.991 5.04 5.836 1.75 1.798 3.27 3.414 4.53 5.608 1.05 1.84 2.47 3.568 1.98 5.771-.39 1.713-.88 3.417-2.92 2.713-2.36-.815-4.4-3.122-6.24-4.725-1.81-1.574-3.59-3.171-5.44-4.704-2.03-1.694-4.31-3.123-6.28-4.888-1.71-1.533-3.17-3.315-4.8-4.935-3.89-3.888-8.08-7.373-12.22-10.981-1.91-1.665-3.43-3.7-5.16-5.537-1.7-1.809-3.56-3.474-5.35-5.197-3.88-3.738-7.93-7.502-11.55-11.497-1.73-1.915-3.59-3.703-5.34-5.605-.72-.784-1.25-1.818-1.94-2.566-.66-.723-1.68-1.188-2.42-1.864-3.25-2.957-5.06-7.072-8.26-10.087-.85 1.86-1.45 3.758-2.08 5.707-.57 1.795-1.01 3.893-2.02 5.5-.47.747-1.27 1.29-1.68 2.068-.39.747-.29 1.635-.56 2.424-.53 1.506-1.62 3.092-2.43 4.47-.91 1.537-2.19 2.936-3.4 4.238a6.95 6.95 0 01-.98.894c.15-.079.29-.158.43-.232-.96 1.64-1.84 2.395-3.41 3.473.05.094.09.185.13.272.82 1.753 1.73 3.377 2.37 5.21 1.1 3.169 2.72 6.133 3.76 9.325.56 1.716.78 3.491 1.6 5.118.71 1.431 1.65 2.743 2.35 4.183 1.64 3.37 2.71 7.068 4 10.58 1.34 3.629 2.88 7.137 4.53 10.632 1.64 3.467 3.17 6.988 4.62 10.537.65 1.6 1.17 3.387 2.2 4.796 1.12 1.525 2.72 1.92 4.42 2.524 6.71 2.395 13.25 5.99 19.37 9.622zm80.44-102.912c3.8-3.211 9.1-2.306 13.77-2.326 5.42-.023 10.82 1.042 16.22 1.404 5.4.363 10.83.621 16.24.508 4.83-.1 9.64-.552 14.37-1.535 2.35-.485 4.64-.723 7.02-.929 1.49-.127 2.86-.578 3.61-1.971.99-1.84.74-4.636.81-6.662.06-1.985.35-4.505-.44-6.375-.78-1.845-2.51-2.75-4.29-3.428-2.17-.832-4.35-1.657-6.52-2.489-8.81-3.368-17.87-7.223-27.37-8.033-2.63-.224-5.28-.248-7.92-.326-2.27-.068-4.37-.618-6.61-.851-4.68-.488-9.26-.595-13.88-1.573-1.27-.269-2.07.405-3.36.611-1 .161-2.02.132-3.04.059-2.08-.15-4.08-.407-6.17-.229-2.47.21-4.95.339-7.39.719-2.2.342-4.33.934-6.54 1.185-2.39.271-4.81.374-7.17.901-1.19.265-3.01.522-3.71 1.664-.93 1.512-.23 4.413-.14 6.083.13 2.351.27 4.704.25 7.061-.03 2.557-.41 5.031-.9 7.535-.36 1.804-1.12 3.922-.72 5.782.23 1.024.98 1.507 2.04 1.342.74-.113 1.34-.832 2.02-.919 1.32-.17.04.815.79 1.66.61.679 1.62.488 2.42.712.87.241 1.67.666 2.49 1.027 1.86.817 3.79 1.38 5.62 2.28 4.07 2.003 7.94 4.378 11.81 6.728.65-1.926 1.11-4.843 2.41-6.434 1.13-1.368 2.94-2.051 4.28-3.181zm-266.68-121.749c-.88-2.456-2.03-4.857-2.75-7.359-.26-.894-.26-2.165-1.18-2.669-.76-.418-2.14-.154-2.94-.148-1.48.012-2.96-.005-4.44-.011-.74-.003-1.82-.17-2.25.604-.45.799.27 2.266.28 3.156.03 1.351-.29 2.674-.64 3.97-1.46 5.526-2.98 10.986-4.66 16.46 1.68-.754 2.98-2.547 4.89-2.75 1.21-.128 2.14.594 3.26.777.95.157 1.9.213 2.85.433 4.26.99 8.13 3.193 12.45 3.968-.2-1.58-.26-3.025-.75-4.555-.42-1.33-.89-2.648-1.35-3.968-.91-2.641-1.84-5.274-2.77-7.908zm-14.06-37.076c-2.04-.903-4.09-3.525-2.17-5.689 1.03-1.167 3.65-.555 5-.276 1.89.39 9.17 5.127 10.06 1.906.59-2.114-.46-5.301-1.42-7.158-.61-1.177-1.43-2.325-2.41-3.227-1.05-.97-1.49-.674-2.78-.531-2.13.238-4.11-.42-5.52 1.656-.27.402-.33.952-.9 1.035-.44.065-.7-.48-1.14-.481-.72-.002-.8.496-1.08 1.052-.74 1.455-1.82 4.314-4 3.124-2.21-1.203-2.34-5.1-2.34-7.198-.01-3.258-.23-6.511-.41-9.763-.14-2.573-.36-4.922-2.24-6.861-1.77-1.83-3.15-4.374-5.3-5.775-2.44-1.584-5.6-1.405-8.39-1.619-3.22-.247-6.52-.601-9.75-.27-3.3.337-6.435.492-9.754.342-3.244-.145-6.484-.346-9.731-.429-3.083-.078-6.305.182-9.358-.15-1.241-.134-2.896-.584-3.716.642-.933 1.395-.855 3.92-1.117 5.526 3.356-.616 8.832-2.162 10.12 2.571.39 1.433-.817 2.711-1.875 3.544-1.546 1.216-3.71 1.182-5.585 1.444-1.047.146-2.737.12-3.35 1.169-.591 1.007-.282 2.888-.351 3.996-.286 4.606-.944 9.179-1.425 13.766-.457 4.386-.803 8.886-.14 13.269.34 2.246 1.262 4.358 1.425 6.623.101 1.402-.118 2.992 1.165 3.919 1.488 1.075 4.049 1.081 5.797 1.464 2.306.508 4.586 1.117 6.854 1.771 3.594 1.038 7.98 1.555 9.276 5.568 1.384 4.283 2.403 8.697 3.741 13.001.68 2.184 1.629 4.163 2.59 6.233.372.799.956 1.727.879 2.646-.08.969-.76 1.913-1.134 2.778-.82-.426-1.679-.665-2.378-1.293-.732-.655-1.317-1.579-1.906-2.364-1.223-1.63-2.092-3.03-3.846-4.09-.067.862-.271 1.602.142 2.333.292.519.969 1.048 1.355 1.53 1.079 1.352 2.118 2.739 3.288 4.014 2.33 2.538 5.149 4.63 7.574 7.093 2.43 2.47 4.73 5.368 7.69 7.217 2.86 1.782 5.91 3.255 8.88 4.834-2.61-5.922-.8-11.883 2.3-17.207 1.45-2.479 3.21-4.754 4.84-7.112 1.29-1.867 3.78-4.371 3.72-6.769-.04-1.276-.91-2.378-1.54-3.432-.69-1.168-1.23-2.414-1.81-3.648-1.15-2.501-2.67-5.144-3.07-7.896-.36-2.409.19-5.747 1.82-7.676.65-.774 1.61-.699 2.47-1.225.83-.517 1.47-1.29 2.15-1.98.78-.781 1.74-1.32 2.52-2.092.82-.821 1.4-1.863 2-2.851 1.41-2.342 2.86-4.663 4.28-7.004zm-8.97-52.048c-2.46.043-3.76 1.426-4.9 3.397.76 1.2 2.81 4.821 4.51 3.379.31-.269.46-.846.84-1.157.35-.292.8-.446 1.22-.63.94-.414 2-.814 2.6-1.713 1.41-2.116-2.79-3.3-4.27-3.276zm-47.969 91.85c-.441-.119-1.801.771-2.234.962-.797.353-1.788.698-2.493 1.23-.705.532-.966 1.326-1.449 2.038-.146 5.332-.483 10.702-.442 16.049l.444-16.052c.313 1.468.856 2.817.854 4.334 0 1.537-.234 3.12-.378 4.648-.273 2.908-.597 5.811-.895 8.717.039 1.675.114 3.348.259 5.015 2.131-2.958 4.221-5.953 6.357-8.906 1.91-2.639 4.405-2.792 7.42-3.033l-5.916-11.923c-.226-.455-1.134-2.973-1.527-3.079zM633.08 190.46c-3.181-.878-6.429-2.098-9.708-2.53-3.102-.409-5.859-1.755-8.854-2.631-2.639-.772-5.31-1.432-7.91-2.333-1.976-.685-4.109-1.361-5.665-2.821-1.611-1.512-2.481-3.863-2.181-6.062.35-2.567 2.249-2.881 4.414-3.617 11.027-3.747 22.186-5.98 33.695-7.462 5.923-.763 11.913-1.712 17.898-1.589 3.101.064 6.167.235 9.267.037 2.806-.179 5.664.869 8.425.323 2.82-.557 5.456.193 8.299.579 3.022.41 6.077.529 9.123.67 2.767.127 5.708.015 8.399.738 2.632.706 4.671 1.213 7.359.339-2.81-3.102-5.609-6.214-8.429-9.307-5.79-6.347-11.8-13.169-15.303-21.105-1.502-3.403-2.23-8.306.274-11.472 2.227-2.816 7.091-2.236 10.194-1.774 3.988.592 7.797 2.012 11.23 4.11 3.309 2.023 6.964 3.675 9.975 6.115 2.957 2.396 6.364 3.982 9.355 6.333 3.083 2.425 6.189 4.774 9.309 7.145 6.738 5.123 12.335 11.632 18.714 17.17 3.39 2.943 6.546 6.112 9.577 9.419 1.437 1.567 2.926 3.111 4.154 4.851 1.027 1.456 1.92 3.006 3.003 4.424 1.299 1.698 2.93 3.113 4.298 4.758 1.256 1.514 2.412 3.108 3.526 4.728 1.173 1.704 2.299 3.438 3.463 5.148.611.897 1.195 2.428 2.423 2.271 1.734-.222 2.693-1.708 4.579-.684.637.345 1.035.933 1.566 1.4.744.654 1.599.933 2.467 1.367 1.768.885 3.265 2.201 4.85 3.36 1.68 1.23 3.404 2.244 4.961 3.647 6.54 5.899 12.576 12.219 18.865 18.362 1.52 1.485 3.113 2.895 4.591 4.423 1.176 1.218 2.096 2.663 3.278 3.861.682.691 1.504.971 2.225 1.573.672.563 1.234 1.448 1.808 2.106 1.38 1.583 2.746 3.179 4.165 4.729 2.779 3.04 5.85 5.686 8.521 8.841 2.729 3.222 5.804 6.169 8.593 9.352 5.869 6.699 11.381 13.541 16.777 20.622 2.676 3.512 5.687 6.776 8.241 10.378 2.426 3.423 4.478 7.092 6.309 10.861.518 1.064 1.181 4.234 3.084 3.113.681-.401 1.138-1.583 1.559-2.239.57-.89 1.137-1.78 1.702-2.672 2.46-3.886 5.093-7.772 7.038-11.947 3.743-8.038 7.466-16.01 10.545-24.331 1.557-4.211 3.333-8.315 5.105-12.437 1.756-4.087 3.087-8.324 4.799-12.424 3.408-8.157 7.886-15.873 12.342-23.493 4.083-6.983 8.459-14.186 14.137-20.005 3.003-3.076 5.365-6.604 8.538-9.552 1.608-1.494 3.269-2.931 4.874-4.427 1.161-1.081 2.149-2.685 3.584-3.412 1.015-.514 2.1-.402 3.196-.358.851.034 1.795-.215 2.614-.141.739.069 1.038.709 1.752.852.73.147 1.211-.19 1.784-.585 3.626-2.497 8.581-3.577 12.72-5.074-2.619-1.617-5.831-1.677-8.755-2.359-2.473-.578-4.781-1.596-6.814-3.125-4.479-3.372-5.224-8.702-6.036-13.919-.932-5.994-1.655-12.384-.855-18.421.785-5.927 1.61-11.856 2.497-17.767.431-2.873.981-5.675 1.839-8.454.697-2.265 1.597-4.599 1.516-7.001-.04-1.187-.08-3.019-.98-3.877-.662-.63-1.637-.967-2.342-1.587-1.652-1.451-2.98-3.222-3.997-5.166-.829-1.587-2.17-3.913-1.377-5.748.862-1.991 3.604-2.357 5.444-2.833 5.446-1.412 10.948-1.185 16.481-1.962 2.658-.373 5.438-1.147 8.106-1.114 2.631.03 5.257.074 7.89.042 5.74-.068 11.49-.235 17.21.355 1.52.156 3.01.277 4.53.363 1.23.07 2.11.694 3.24.888.68.118 1.65-.252 2.34-.306 1.16-.09 2.35-.048 3.5.166 2.43.455 4.32 2 6.73 2.485 1.87.377 3.31 1.398 4.27 3.057 2.43 4.205 2.56 10.006 2.78 14.715.25 5.58-.17 11.18.12 16.75.08 1.348.22 1.892 1.65 1.752 2-.198 3.76-.733 5.78-.2 3.86 1.017 6.28 4.521 7.78 7.986 1.58 3.632 2.43 7.73 2.16 11.695-.23 3.487-1.52 7.998-5.37 9.007-2.07.542-4.14-.318-6.09-.93-1.84-.576-3.51-2.226-4.51.088-2.01 4.69-4.04 8.932-7.27 12.971 3.03-.207 6.04-.498 9.07-.649 1.99-.101 4.81-.656 6.72.119 1.12.455 1.16 1.24 1.96 1.937.88.767 2.59.439 3.68.405 3.27-.101 6.26-.694 9.57-.351 2.43.251 4.63 1.455 7.05 1.912 2.94.555 5.86 1.718 8.63 2.82 2.61 1.038 5.17 2.149 7.85 2.986 2.74.854 5.48 1.733 8.09 2.93 4.65 2.133 8.6 5.58 12.76 8.507 1.09.77 2.28 1.432 3.3 2.299.84.711 1.39 1.651 2.2 2.386 1.29 1.178 2.8 1.119 4.2 1.743 1.43.64 2.81 1.92 4.11 2.806 1.18.801 2.36 1.603 3.53 2.404 2.24 1.521 4.44 3.329 6.86 4.546 4.48 2.26 8 5.841 11.65 9.248 3.93 3.677 8.27 6.879 12.05 10.704 3.78 3.816 7.23 7.864 10.27 12.289 3.17 4.61 5.84 9.497 8.84 14.208 1.38 2.155 3.12 3.905 4.72 5.877.8.989 1.55 2.019 2.24 3.091.61.95 1.04 2.163 1.96 2.859 1.82 1.39 3.64 2.211 5.11 4.07 1.65 2.083 3.07 4.385 4.46 6.64 2.8 4.527 5.42 9.209 7.91 13.911.74 1.392.73 2.41.85 3.928.1 1.179.48 2.302.7 3.458.36 1.884.14 3.862.63 5.731.32 1.226 1.11 1.387 2.1 2.077.94.649 1.79 1.415 2.61 2.201 1.67 1.602 3.3 3.183 5.13 4.615 1.85 1.455 3.78 2.86 5.39 4.593 1.68 1.8 3.16 3.528 5.09 5.092 4.1 3.321 7.97 6.997 11.99 10.423 4.19 3.557 8 7.459 11.85 11.366 3.97 4.038 8.18 7.824 12.33 11.678.33-4.574.6-9.153.98-13.723.41-4.935 1.53-9.745 2.51-14.591.88-4.327 1.46-8.958 2.93-13.13 1.01-2.859 2.99-5.208 6.04-5.913 1.53-.352 3.84.37 4.58-1.33.74-1.689.81-4.26 1.1-6.075 1.31-8.013-1.29-16.956 2.06-24.623 1.46-3.327 4.17-5.089 7.39-6.514 4.21-1.867 8.87-1.403 13.34-2.328 2.04-.423 3.7-1.536 5.82-1.631 2.14-.095 4.28-.025 6.41.057 2.24.084 4.38-.363 6.6-.357 1.93.007 3.45 1.287 5.34.987 2.13-.335 3.86-.857 6.01-.242 1.9.545 3.71.708 5.68.762 2.44.069 4.87-.16 7.3-.043 2.24.107 4.37.784 6.58 1.055 4.68.573 9.19 1.105 13.76 2.361 4.53 1.245 8.82 3.038 13.22 4.664 7.04 2.606 15.12 4.602 17.06 12.886 1.07 4.594 1.29 9.542.71 14.216-.47 3.783-1.33 7.971-3.56 11.153-2.38 3.404-6.33 4.436-10.12 5.608-4.34 1.342-8.77 1.548-13.21 2.351-4.61.832-9.21 1.498-13.91 1.371-4.66-.126-9.21-1.335-13.85-1.729-4.78-.404-9.54-.963-14.31-1.379-3.21-.28-9.34-1.188-10.95 2.448-.5 1.149-1.23 2.522-.3 3.551 1.11 1.223 2.08 2.477 3.08 3.838 1.36 1.846 2.38 3.614 2.78 5.891.4 2.233.46 4.511.49 6.773.13 9.333-2.28 18.793-4.56 27.826-2.37 9.399-5.02 18.747-8.32 27.863-3.16 8.687-5.5 17.728-9.24 26.189-1.87 4.248-4.33 8.016-6.91 11.856-2.17 3.228-4.16 7.134-7.36 9.477-2.68 1.966-6.12 2.932-9.43 2.668-3.98-.317-7.76-2.726-11.25-4.486-8.39-4.24-16.14-9.969-23.66-15.58-3.62-2.693-6.89-5.781-10.74-8.159-3.75-2.322-7.54-4.405-11.78-5.627 3.53 7.421 6.74 14.96 10.49 22.277 3.7 7.224 6.76 14.707 10.09 22.097 1.37 3.04 3.39 5.669 4.74 8.697 1.54 3.471 3.09 6.94 4.63 10.413 2.81 6.345 5.81 12.656 8.36 19.107.58 1.465.32 3.235 1.07 4.521.75 1.297 1.58 2.431 2.15 3.84 1.24 3.032 2.22 6.088 3.62 9.058 3.12 6.575 5.09 13.648 8.07 20.293 2.99 6.661 5.69 13.392 8.35 20.188 1.31 3.332 2.77 6.601 3.99 9.967 1.13 3.103 2.18 6.281 4.02 9.057 4.03 6.096 7.15 12.678 10.18 19.326 1.43 3.137 2.69 6.251 2.91 9.741.19 3.14-1.76 5.683-3.33 8.211 2.86 1.449 5.5 3.32 8.38 4.779 3.08 1.567 6.3 2.796 9.51 4.079 3.24 1.296 6.48 2.611 9.71 3.941 2.84 1.173 5.48 2.613 8.24 3.954 2.61 1.27 4.99 2.944 7.46 4.455 2.68 1.635 5.39 3.205 8.06 4.84 5.24 3.204 10.34 6.417 15.85 9.171 2.87 1.436 5.75 2.843 8.62 4.274 2.36 1.177 4.95 2.212 6.67 4.294 2.55 3.079 2.33 8.031-.09 11.163-1.6 2.067-5.52 1.875-7.9 1.943-1.63.045-3.28-.044-4.88-.37-1.31-.268-2.44-.97-3.72-1.297-1.46-.37-3.09-.29-4.59-.491a65.756 65.756 0 01-4.36-.752c-3.14-.64-6.25-1.41-9.38-2.075-3.05-.647-6.11-1.274-9.1-2.162-1.25-.368-2.56-1.075-3.84-1.048-1.38.029-2.6.124-4-.124-1.43-.254-2.83-.654-4.27-.846-1.33-.177-2.68.036-4.01-.187-1.49-.253-2.87-.91-4.32-1.335-1.41-.416-2.71-.287-4.17-.287 3.58 2.766 7.33 5.312 10.98 7.986 3.69 2.701 7.13 5.684 10.67 8.559 2.87 2.326 6.46 4.562 8.23 7.908 1.42 2.693 1.68 6.03 1.11 8.993-.72 3.719-3.47 4.19-6.83 4.422-4.33.3-7.66-1.531-11.44-3.39-7.41-3.641-14.56-7.845-21.55-12.204-3.47-2.158-7.29-3.783-10.97-5.538-1.94-.928-3.89-1.851-5.84-2.771-1.59-.752-3.68-2.252-5.43-2.08 4.83 10.006 9.9 19.905 14.16 30.178 1.79 4.308 3.21 8.761 3.56 13.435.25 3.279.08 9.772-4.02 10.857-1.84.485-3.48-.727-4.72-1.936-1.75-1.724-3.37-3.611-5.05-5.412a162.51 162.51 0 00-10.29-10.094c-3.63-3.266-7.25-6.454-10.51-10.096-3.11-3.472-6.99-6.103-9.94-9.712-3.04-3.707-5.76-7.657-8.82-11.347-2.01-2.428-3.63-6.232-7.08-6.772-.52 2.867-2.99 5.416-4.73 7.758-3.82 5.173-8.43 9.411-13.21 13.687-4.32 3.868-8.96 7.111-14.4 9.206-3.59 1.38-11.09 4.577-13.9.235-1.34-2.063-.63-6.093-.13-8.351.69-3.138 2.22-6.078 3.59-8.962 2.8-5.871 5.91-11.506 9.06-17.189 1.58-2.856 3.13-5.731 4.83-8.514 1.48-2.414 3.54-4.741 4.27-7.528.3-1.146.49-2.702.12-3.859-.4-1.23-.91-1.004-2.02-1.161-2.42-.345-1.69-4.81-1.37-6.551.28-1.549.86-3.046 1.42-4.515.47-1.246 1.52-2.943 1.46-4.291-.05-1.276-1.29-2.575-1.79-3.72-.59-1.332-.97-2.724-1.38-4.115-1.89-6.377-4.37-12.536-5.95-19.01-1.56-6.443-3.23-12.746-5.53-18.977-2.38-6.462-4.98-12.859-7.15-19.398-2.1-6.344-4.17-12.673-6.48-18.948-4.64-12.588-9.58-25.081-15.05-37.333-5.39-12.091-11.52-23.859-16.18-36.263-2.24-5.965-4.46-11.891-6.57-17.903a355.027 355.027 0 00-7.07-18.437c-2.59-6.225-4.72-12.65-6.93-19.015-2.18-6.264-4.04-12.741-6.72-18.805-.7.751-1.33 1.29-1.83 2.176-.49.882-.91 1.709-1.6 2.473-1.23 1.371-2.79 2.331-4.28 3.383-.93.659-1.71 1.446-2.77 1.591-.03.005-.06.007-.09.011.2.011.39.02.6.064-1.36.941-2.71 1.881-4.08 2.825.12-.264.24-.518.36-.764-.44.768-.9 1.491-1.85 1.655.07.013.15.023.23.027-.65.477-2.94 2.752-2.74.298-.09.397.06.698-.1 1.096-.18.42-.59.805-.9 1.142-.65.701-1.4 1.297-2.17 1.852-1.82 1.301-3.77 2.392-5.53 3.769-.51.397-2.24 2.399-2.83 2.398-1.12.968-2.23 1.935-3.34 2.901.43-1.486.85-2.971 1.28-4.457l-.93 3.232c-.36 1.253-.9 1.707-1.84 2.548-1.66 1.476-3.3 2.972-5.01 4.377-3.14 2.562-6.73 4.549-10.09 6.805-1.82 1.226-3.61 2.485-5.35 3.83-1.42 1.104-3.16 1.494-4.58 2.565-1.78 1.35-3.36 3.108-4.91 4.713-1.39 1.44-3.02 2.89-3.98 4.663-1.08 2.01-1.1 4.631-1.44 6.856-.34 2.246-.68 4.492-1.01 6.74a586.43 586.43 0 00-1.87 13.858c-.54 4.55-1.21 9.096-1.61 13.661-.4 4.62-.3 9.246-.82 13.861-1.04 9.258-2.22 18.696-4.21 27.804-2 9.178-3.28 18.486-5.02 27.721-.9 4.75-1.84 9.49-2.77 14.232-.46 2.332-.96 4.658-1.42 6.99-.38 1.927-.18 3.863-.52 5.806-.18 1.04-.44 2.081-.44 3.144 0 1.033.65 1.937.69 2.86.05 1.302-1.14 3.357-1.87 4.394-1.09 1.566-2.6 2.983-3.87 4.419-1.28 1.448-1.79 1.968-1.34 3.923 1.95 8.384-3.04 15.409-8.37 21.337-5.86 6.527-11.73 12.816-18.46 18.466-3.52 2.961-6.84 6.155-10.213 9.283-3.234 2.998-6.723 5.339-10.501 7.625-3.83 2.318-7.889 4.008-11.858 6.045-3.914 2.008-7.717 3.913-11.88 5.377-3.958 1.391-7.966 2.575-11.765 4.343-2.998 1.396-6.805 1.335-9.833.045-2.038-.869-3.787-2.454-5.608-3.692a81.123 81.123 0 00-5.222-3.297c-2.948-1.696-5.831-3.671-7.089-6.983-1.491-3.921-.202-8.631.65-12.569.871-4.026 2.671-7.778 4.828-11.267 2.246-3.634 5.041-6.778 7.62-10.165 2.669-3.502 5.045-7.189 7.836-10.608 2.763-3.383 5.658-6.609 8.77-9.674 3.104-3.056 5.815-6.464 8.679-9.74.689-.789 1.744-1.637 1.873-2.755.113-.974-.558-1.677-.88-2.535-.624-1.663-.439-3.491-.471-5.228-.017-.848-.003-1.718-.426-2.485-.393-.715-1.124-1-1.403-1.77-.249-.685-.157-1.551-.295-2.267-.175-.908-.601-1.568-.891-2.43-.725-2.155.175-4.667.581-6.803.384-2.018.747-4.04 1.12-6.059.806-4.366 1.408-8.742 2.782-12.979 2.794-8.6 5.524-17.156 5.709-26.288.094-4.573 1.371-8.955 2.431-13.378 1.123-4.69 2.263-9.376 3.422-14.057 2.221-8.966 4.883-17.801 7.158-26.751 2.267-8.917 4.331-17.893 7.028-26.693 2.725-8.894 6.513-17.243 10.567-25.601 1.949-4.019 4.081-7.487 6.951-10.92 2.97-3.558 6.02-7.053 9.08-10.543 6.16-7.041 12.33-14.077 18.58-21.039 3.11-3.465 6.27-6.77 9.9-9.703 3.24-2.614 7.67-4.816 8.69-9.088.29-1.207.48-2.434.8-3.633.18-.692.75-1.739.66-2.492-.18-1.497-2.95-2.069-4.07-2.576-3.89-1.754-7.81-3.491-11.62-5.401-2.11-1.055-3.98-2.342-5.93-3.628-1.65-1.083-3.53-1.409-5.39-1.984-4.13-1.279-7.94-3.1-11.75-5.113-3.93-2.077-7.89-4.153-11.7-6.443-3.874-2.324-6.876-5.184-10.156-8.218-1.467-1.357-2.51-.674-3.55.82-1.264 1.816-2.597 3.586-3.905 5.371-.608.832-1.133 1.813-1.997 2.312-.034.021-.06.032-.093.049.15-.051.309-.105.489-.176-.317 2.246-2.011 3.781-3.505 5.328.14-.383.274-.769.407-1.156-.374 1.07-.891 1.796-1.581 2.709-1.372 1.815-2.915 3.412-4.537 5.006-.84.824-1.688 1.639-2.536 2.455-.338.326-.679.653-1.016.981-.547.527-.854.697-1.427.954-1.161.523-1.431 1.436-2.431 2.158-1.504 1.085-3.377 1.802-4.935 2.871-1.271.873-2.376 2.648-3.847 2.973-.533.117-.929.031-1.356.452-.564.551.022.54-.866.739-.449.101-.911-.156-1.362-.013-.476.152-.897.564-1.299.857-.918.668-1.837 1.337-2.754 2.009a325.246 325.246 0 00-4.921 3.667c-3.242 2.47-6.218 5.265-9.468 7.718-1.682 1.269-3.49 2.196-5.286 3.273-1.496.897-2.757 2.11-4.159 3.136-1.674 1.225-3.628 1.823-5.365 2.931-1.705 1.088-3.346 2.21-5.118 3.19-3.872 2.139-7.807 4.135-11.911 5.791-4.15 1.676-8.394 3.027-12.899 3.239-4.571.216-8.898-.979-13.113-2.644a117.203 117.203 0 01-12.229-5.644c-3.845-2.057-7.425-4.53-11.195-6.709a165.073 165.073 0 01-10.983-6.952c-3.427-2.355-6.686-4.985-10.386-6.909-3.734-1.942-7.045-4.469-10.56-6.761a1063.102 1063.102 0 01-10.789-7.128c-7.477-5.003-14.962-10.09-22.063-15.618-3.41-2.655-6.774-5.383-9.761-8.509-3.188-3.338-6.99-6.179-10.492-9.181l-10.078-9.765-.018-.018 10.096 9.783c-1.598-.301-2.638-1.336-3.922-2.33a215.923 215.923 0 01-4.019-3.186c-1.934-1.572-4.171-3.188-3.947-5.971a45.4 45.4 0 00-2.611-2.277c-1.47-1.172-3.225-1.887-4.789-2.924-3.21-2.13-5.965-4.841-8.981-7.221-1.327-1.046-2.518-1.839-2.725-3.634-.224-1.948.039-4.06.053-6.024.01-1.518.445-3.635-.136-5.071-.584-1.44-2.524-2.057-3.78-2.744-3.546-1.942-7.039-3.978-10.588-5.915-3.494-1.907-6.53-3.177-10.525-3.518-1.739-.149-3.409-.411-5.128-.677-1.779-.277-3.434.247-5.175.565-3.949.723-7.946 1.155-11.893 1.886-3.975.738-7.907 1.72-11.833 2.686-3.93.966-7.852 1.995-11.842 2.693-2.041.358-4.152.593-6.131 1.228-1.496.48-2.934 1.158-4.474 1.497-3.725.82-7.512.918-11.153 2.159-3.635 1.24-7.344 1.865-11.134 2.434-1.984.299-3.962.616-5.925 1.041-1.185.256-2.239.407-3.44.113-2.49-.608-4.51-2.608-5.305-5.016-2.196-6.643 2.052-13.772 6.377-18.483 4.639-5.053 10.5-8.59 16.068-12.498-2.218-.244-4.424.082-6.641.123-1.9.034-3.76-.05-5.664.054-4.215.23-8.416-.987-12.636-1.078-5.713-.122-12.762-1.284-14.254-7.783-1.388-6.048 5.039-11.499 9.626-14.245 2.946-1.763 5.929-3.376 8.815-5.242 3.083-1.994 6.894-3.168 10.299-4.509 3.466-1.365 6.956-2.701 10.563-3.652 3.465-.915 6.975-1.405 10.297-2.76-3.022-1.316-6.292-1.606-9.53-2.21-3.223-.601-6.393-1.397-9.552-2.269z" fill="#000"/><path fill-rule="evenodd" clip-rule="evenodd" d="M613.67 427.29c.337 1.426 1.167 2.127 2.581 2.466 2.333.559 4.89.646 7.271.935 4.349.529 8.845.749 13.11 1.778 3.993.962 7.986 2.401 11.592 4.377-1.179-5.628-2.516-11.093-2.021-16.889.364-4.256.465-10.667 4.774-13.127.997-.57 2.576-.355 3.685-.414 1.442-.077 2.885-.145 4.327-.225 2.853-.156 5.691-.456 8.535-.734a347.522 347.522 0 0016.749-2.044c.922-.135 2.577-.033 3.193-.831.455-.587.238-1.514.204-2.174a38.788 38.788 0 01.258-6.813c.62-4.954 1.991-9.83 3.523-14.571.776-2.396 1.606-4.775 2.387-7.17.377-1.157 1.253-2.736.001-3.565-.782-.517-2.148-.513-3.058-.74-1.082-.269-2.137-.621-3.195-.968-2.499-.821-4.995-1.652-7.492-2.482-9.487-3.155-19.058-6.1-28.518-9.317-1.324-.45-2.639-.921-3.962-1.371-.573-.194-1.569-.695-2.187-.425-.722.317-.582 1.111-1.1 1.583-.453.412-1.477.442-2.06.777-1.48.853-2.407 2.339-3.569 3.539-1.494 1.543-3.164 2.899-4.639 4.47-5.953 6.344-10.358 13.982-14.087 21.792-1.004 2.104-1.657 4.281-2.284 6.518-.594 2.119-1.353 4.189-1.69 6.37-.786 5.092-.814 10.331-1.444 15.456-.527 4.295-1.9 9.496-.884 13.799zm37.817-11.502c.013 3.392.192 6.806.936 10.126.767 3.422 2.152 6.7 3.387 9.972 1.166 3.089 2.11 6.273 3.462 9.286 1.334 2.974 3.043 5.684 4.114 8.771 2.195 6.328 5.955 11.881 8.617 17.993 2.719 6.246 5.747 12.211 9.125 18.133 1.607 2.817 3.098 5.933 5.13 8.47a37.867 37.867 0 003.328 3.63c1.017.972 1.505.23 2.735.451 1.792.32 2.717 2.643 3.877 3.837 2.199 2.262 4.445 4.497 6.853 6.536 2.467 2.088 5.192 3.833 7.722 5.843 2.415 1.919 4.827 3.653 7.587 5.052 5.451 2.764 11.718 6.154 18.008 5.863 2.894-.133 4.444-2.014 5.656-4.524 1.284-2.657.851-5.841.635-8.692-.258-3.419-1.086-6.435-2.912-9.336-1.801-2.86-.026-4.634 1.769-7.018 4.004-5.319 9.339-9.462 14.206-13.957 2.512-2.322 5.002-4.669 7.491-7.015a3902.33 3902.33 0 004.122-3.895c1.008-.953 1.978-1.595 2.341-2.933-2.738-1.473-5.593-2.729-8.116-4.571-5.151-3.761-9.878-8.35-14.733-12.487-2.333-1.988-4.176-4.451-6.05-6.855-1.808-2.319-3.88-4.51-5.441-7.012-3.357-5.383-7.185-10.714-9.846-16.486-1.327-2.876-2.012-5.811-2.706-8.883-.419-1.85-.9-3.686-1.369-5.524-.303-1.184-.39-3.225-1.15-4.204-1.399-1.803-5.797 1.109-7.408 1.621-3.032.962-6.192 1.42-9.327 1.904-6.652 1.026-13.35 1.904-19.959 3.177-3.463.667-6.933 1.406-10.447 1.755-3.406.339-6.83.162-10.244.137-.731-.006-1.624.124-2.114-.546-.28-.383-.093-.859-.542-1.217-.586-.468-1.352-.217-2.025-.145-1.366.145-2.736.228-4.101.398-.589.073-1.762-.027-2.266.283-.53.327-.347 1.312-.345 2.062zm95.738 91.061c1.592 3.203 2.512 7.683 2.56 11.232.026 1.904-.226 3.804-.617 5.666-.34 1.623-1.272 3.491-.979 5.127 4.037-1.864 8.004-3.868 12.122-5.55 3.559-1.453 6.231-3.983 9.159-6.386 3.144-2.58 5.99-5.455 9.011-8.172 3.242-2.916 6.623-5.674 9.92-8.525 5.87-5.078 10.799-10.783 15.618-16.85 4.236-5.332 10.31-12.134 10.025-19.348-.133-3.348-.379-7.156-2.025-10.154-1.366-2.489-3.838-5.28-6.149-6.945-2.223-1.601-4.405 2.421-5.654 3.835-2.691 3.042-5.435 6.034-8.164 9.041-5.192 5.719-10.119 11.724-15.734 17.04-5.66 5.357-11.446 10.597-17.541 15.454-3.051 2.431-6.413 4.697-9.182 7.45-1.016 1.012-2.991 2.125-3.669 3.388-.728 1.359.731 2.553 1.299 3.697zm-138.908-78.973c.855-.11.815.005.887-.833.113-1.297-.327-2.829-.459-4.13-.63-6.188-.329-12.671.212-18.86 1.061-12.156 3.571-24.107 9.938-34.651 2.939-4.868 6.263-9.458 10.429-13.359 1.92-1.798 3.795-3.734 5.919-5.295 1.066-.784 2.618-1.179 3.588-1.982.524-.434.756-1.318 1.198-1.872 1.768-2.21 3.763-2.781 6.581-2.543 2.925.248 5.989 1.163 8.81 1.944 6.001 1.662 11.758 4.487 17.571 6.716 5.84 2.239 11.614 4.625 17.373 7.06 2.503 1.058 5.525 1.89 7.747 3.488 1.343.965 1.738 2.163 1.594 3.769-.51 5.672-2.619 11.305-4.223 16.73-1.723 5.826-3.127 11.763-3.567 17.836 5.95-.435 11.863-.887 17.785-1.634 2.963-.374 5.94-.68 8.897-1.086 1.529-.209 2.242-.779 3.471-1.571 1.079-.696 1.635-.107 2.095.95 2.395 5.494 3.339 11.486 5.933 16.94 1.164 2.449 2.618 4.735 3.829 7.16 1.317 2.636 2.905 5.231 4.556 7.669.766 1.133 1.75 2.049 2.6 3.11.787.983 1.353 2.115 2.076 3.144 1.511 2.15 3.343 4.045 5.197 5.898a180.241 180.241 0 015.442 5.688c1.748 1.906 3.834 3.453 5.681 5.254 1.739 1.693 3.252 3.537 5.036 5.197 1.718 1.599 2.522 3.819 4.37 5.257.996.776 2.102 1.399 3.094 2.18.819.646 1.675 1.774 2.838 1.558 1.291-.241 2.329-1.973 3.136-2.867a407.119 407.119 0 013.144-3.435c4.141-4.475 8.388-8.862 12.565-13.307 2.041-2.174 4.287-4.146 6.276-6.369 1.451-1.62 3.823-2.774 5.854-1.665 2.048 1.118 4.509 2.104 6.167 3.783 1.797 1.818 3.231 4.183 4.694 6.27 1.525 2.173 2.129 4.74 2.529 7.324.424 2.753.866 5.481.657 8.276-.399 5.29-1.384 11.193-4.449 15.648-1.46 2.124-3.461 3.719-5.25 5.545-1.938 1.98-3.323 4.363-4.921 6.611-3.206 4.508-7.143 8.546-11.16 12.339-1.915 1.809-4.084 3.334-6.01 5.149-2.055 1.938-4.136 3.687-6.455 5.299-2.373 1.649-4.332 3.795-6.476 5.712-2.208 1.973-4.468 3.814-6.898 5.505-4.662 3.246-9.403 5.359-14.823 6.991-5.97 1.798-11.749 4.15-17.687 6.03-2.845.9-5.661-.345-8.37-1.256-2.763-.929-5.475-2.03-8.019-3.461-5.16-2.904-10.116-6.274-15.192-9.333-5.28-3.18-9.689-6.826-13.723-11.481-3.843-4.438-7.911-8.844-11.412-13.557-7.106-9.571-11.403-20.893-16.678-31.491-2.803-5.634-5.645-11.18-7.977-17.035-1.147-2.88-2.173-5.811-3.344-8.681-.496-1.216-.905-1.689-2.234-1.896-1.535-.239-3.105-.344-4.646-.528-6.1-.726-12.054-1.804-18.099-2.845-5.61-.966-11.254-1.965-16.27-4.811-1.055-.598-2.32-1.302-2.894-2.42-.261-.511-.905-3.101-.541-3.515.212-.243 1.643-.214 2.008-.261zm255.434-305.154c-.968-.512-1.956-.985-2.94-1.465-2.085-1.018-4.138-2.106-6.246-3.075-.955-.438-1.951-.717-2.932-1.086-1.041-.39-2.036-.906-3.035-1.391-2.1-1.022-4.247-1.901-6.428-2.731-.668-.254-1.337-.504-2.007-.753-.515-.19-1.14-.557-1.675-.62-.848-.1-1.485.769-2.064 1.292-3.119 2.821-5.321 7.003-6.661 10.958-.731 2.158-1.063 4.386-1.454 6.623-.399 2.293-.824 4.538-.839 6.87-.016 2.371-.258 4.708-.154 7.084.039.886-.12 2.48.365 3.253.492.782 1.726 1.001 2.52 1.29 4.34 1.581 8.676 3.283 13.079 4.674a1609.99 1609.99 0 0113.723 4.407c-.186-1.305-.404-2.611-.55-3.921-.137-1.234-.035-2.511-.024-3.752.023-2.725.112-5.436.657-8.114.989-4.863 2.588-9.652 5.269-13.85.629-.984 1.378-1.881 2.125-2.774.267-.32 1.161-1.076 1.129-1.568-.042-.644-1.395-1.106-1.858-1.351zm-52.082-.529c-1.002.047-1.65.278-1.719 1.355-.089 1.374-.07 2.765-.119 4.141-.094 2.632-.188 5.266-.119 7.9.121 4.616.609 9.224 2.016 13.635.68 2.132 1.494 4.227 2.373 6.284.852 1.996 2.058 3.79 3.125 5.669.525.925 1.114 1.676 1.838 2.453.343.368.501.564.986.627.491.063 1.11-.064 1.604-.1 2.324-.168 4.647-.4 6.975-.512 2.307-.112 4.624-.014 6.929-.122 1.083-.051 2.103-.404 3.167-.576 1.072-.174 2.156-.25 3.234-.373.556-.062.542.069.627-.438.045-.271-.033-.621-.047-.897-.028-.534-.055-1.068-.087-1.601-.029-.477.067-1.314-.125-1.764-.172-.402-.539-.472-.921-.577-2.146-.591-4.22-1.324-6.284-2.16-2.106-.853-4.238-1.659-6.32-2.57-.898-.393-1.91-.753-2.59-1.494-.557-.607-.878-1.389-1.124-2.166-1.357-4.276-.931-9.204-.534-13.609.409-4.527 1.053-9.174 2.703-13.431-5.192 0-10.4.087-15.588.326zm57.963 3.915c-1.442.543-2.351 1.809-3.191 3.029-1.046 1.521-2.033 3.059-2.853 4.718-1.721 3.488-2.856 7.33-3.505 11.163-.62 3.658-.927 7.737-.214 11.407.191.982.689 1.769.968 2.699.187.625.057 1.533-.112 2.154-.242.891-1.078.587-1.775.443-1.016-.211-2.033-.419-3.048-.634-3.829-.812-7.62-2.224-11.517-2.509.332 1.041.517 1.986 1.187 2.878.627.836 1.462 1.559 1.823 2.565.3.838.358 2.011.052 2.862-.321.893-1.107.906-1.931 1.006-2.317.283-4.597.666-6.933.794-.502.027-1.003.084-1.499-.012-.399-.077-.679-.196-1.083-.121-.534.098-1.005.357-1.566.415-.528.054-1.059.037-1.589.017-1.956-.074-3.869.131-5.827-.06-.571-.056-1.642-.381-2.176-.054-.563.347-.122 1.045-.403 1.526-.369.632-1.639.308-2.253.274-.877-.049-1.654-.204-2.44-.611-1.588-.821-3.024-1.914-4.192-3.278-1.223-1.427-2.109-3.094-2.983-4.748-.912-1.726-1.826-3.411-2.516-5.244-.705-1.872-1.395-3.804-1.794-5.768-.399-1.962-.652-3.954-1.028-5.921-.393-2.052-.462-4.144-.566-6.225-.107-2.159-.154-4.28-.02-6.438.132-2.121.365-4.201.612-6.308.064-.539.031-1.096.116-1.63.058-.358.244-.699.264-1.062.041-.724-.619-1.189-.602-1.946.04-1.757 1.9-2.411 3.283-2.832 1.797-.546 3.802-.875 5.681-.74 4.043.292 8.176.33 12.011 1.813 1.987-3.422 3.838-7.134 7.09-9.534.367-.271.765-.456 1.002-.856.203-.343.293-.687.564-.996.667-.761 1.49-.855 2.424-.656 2.033.432 3.975.906 5.902 1.679.855.343 1.763.505 2.623.84.826.322 1.616.727 2.41 1.12 1.738.861 3.535 1.593 5.271 2.461 3.487 1.744 6.934 3.572 10.144 5.799 1.551 1.076 3.328 2.189 4.643 3.555.578.602.84 1.361.744 2.191-.1.863-.54.527-1.198.775zm459.998-62.616c-.35-4.452-.21-8.917-.53-13.367-.31-4.228-1.17-8.534-2-12.69-.84-4.227-2.38-7.98-4.11-11.904-.96-2.164-1.88-4.343-2.8-6.52-.57-1.335-.98-2.72-2.55-3.075-2.03-.462-4.47-.088-6.56-.162a119.77 119.77 0 01-6.32-.388c-4.57-.405-9.11-1.072-13.67-1.545-4.37-.452-8.69-.717-13.01-1.615-2.22-.463-4.42-1.004-6.62-1.544-1.65-.403-3.94-1.436-5.6-1.043 2.06 4.666 2.69 9.646 2.75 14.696.01 1.99.25 2.804 2.33 2.682 2.59-.153 5.19-.413 7.76-.71 4.87-.56 9.69-1.448 14.51-2.28 2.29-.396 4.48-.958 6.72-1.454 1.59-.35 2.26.28 2.79 1.73.39 1.05.51 1.523 1.5 2.116.8.484 1.6.943 2.34 1.527 1.32 1.04 2.46 2.288 3.43 3.657 2.16 3.034 3.55 6.6 4.81 10.076 3.19 8.748 4.8 18.264 5.09 27.555.15 4.725.93 9.356.98 14.096.03 2.09-.51 4.778 1.24 6.296 1.71 1.487 3.91 2.553 5.82 3.771 1.67-4.78 2.1-9.85 2.15-14.881.05-5.016-.07-10.024-.45-15.024zm-70.75-25.302c-2.09.555-4.19 1.046-6.3 1.533 3.59 8.568 3.46 18.045 3.73 27.178.12 4.084.01 8.179-.39 12.245-.42 4.16-1.35 8.13-2.19 12.209-.19.89-.63 2.35-.04 3.167.65.905 2.79 1.393 3.71 1.81 3.67 1.653 7.29 3.445 11.03 4.927 3.8 1.504 7.74 2.406 11.46 4.153 3.63 1.709 7.31 3.275 11.1 4.626 3.72 1.329 7.58 2.303 11.16 3.973 3.41 1.585 6.22 3.761 9.11 6.109 1.76-5.451 2.44-10.996 2.76-16.709.31-5.468.76-11.16.2-16.617-.26-2.49-.26-4.805-.21-7.297.05-2.231-.47-4.419-.65-6.638-.39-4.891-.38-9.776-1.04-14.648-1.25-9.215-3.75-18.968-8.78-26.867-.32-.504-.63-1.317-1.07-1.689-.75-.625-.48-.508-1.46-.004-.92.469-1.82.967-2.76 1.377-1.99.86-4.11 1.24-6.17 1.826-2.29.65-4.37 1.645-6.75 2.013-2.3.357-4.64.4-6.95.761-1.27.2-2.44.62-3.68.936-1 .257-1.99.19-3.05.3-2.05.217-4.05.79-6.11.975-2.31.209-4.37-.258-6.66.351zm75.77 39.78c-.71 5.64-2.22 11.165-4.42 16.407-.71 1.686-1.51 4.045-3.53 4.511-1.87.43-4.13-.94-5.89-1.42-1.38 8.185-1.98 16.69-5.64 24.277-.47.957-1.07 2.743-2.02 3.37-.98.641-2.16.015-3.12-.352-4.07-1.538-8.27-2.522-12.48-3.587-2.05-.519-4.14-.981-6.14-1.675-1.66-.577-3.24-1.27-4.98-1.585-3.64-.657-7.02-1.846-10.5-3.073-7.31-2.576-14.66-4.908-21.4-8.776-3.21-1.846-6.59-3.655-9.56-5.884-2.44-1.828-5.16-4.568-3.97-7.887.36-1.004 1.35-2.666 2.49-2.972 1.07-.289 2.03.677 3 .899 1.48.337 1.15-.853 1.29-2.015l.33-2.747c.23-1.921.46-3.845.63-5.774.72-7.99.38-15.975.39-23.979 0-4.007-.93-7.52-1.86-11.38-.5-2.047-.96-4.104-1.4-6.165-.24-1.145-.52-2.403-.19-3.562.74-2.6 4.45-3.318 6.65-4.058 1.89-.636 3.8-1.19 5.76-1.58 1.07-.212 3.93-.046 4.62-.944.69-.888-.07-3.773-.14-4.83-.13-1.948-.26-3.894-.52-5.83-.42-3.124-.37-6.021 2.13-8.305-1.56-1.239-2.67-3.867-.4-5.009 2.6-1.313 6.09-1.504 8.84-.815 3.01.754 6.31.764 9.39 1.093 3.28.35 6.55.775 9.82 1.187 5.63.71 11.36.867 16.92 2.007 2.78.57 5.57 1.005 8.38 1.447 2.9.457 4.66.846 6.4 3.294 3.29 4.644 6.34 9.402 8.19 14.823 1.75 5.135 2.57 10.53 3.06 15.917.52 5.807.64 11.596.57 17.423-.06 5.858.03 11.72-.7 17.549zm118.24 229.467c-.33-.565-1.35-.703-1.88-.916-.84-.336-1.63-.756-2.42-1.207-3.91-2.257-7.74-4.562-11.36-7.28-.88-.665-3.06-3.112-4.35-2.725-.63.19-.97 1.233-1.24 1.743-.48.895-.98 1.777-1.52 2.638-2.13 3.397-4.79 6.444-7.75 9.142-5.58 5.071-11.93 8.346-19.58 8.738 4.94 6.701 9.66 13.701 15.27 19.872 2.83 3.116 5.94 5.932 8.88 8.937.5.514.77.821 1.43 1.116.64.284 1.25.377 1.78.902.92.914.98 2.274.77 3.48 5.22.2 10.88-2.132 15.61-4.046 2.78-1.124 5.53-2.374 8.14-3.851 1.77-1.003 3.76-2.123 5.06-3.734-4.79-2.542-9.63-4.96-14.22-7.855-3.13-1.976-8.66-4.284-8.22-8.846.07-.709.35-1.58.98-1.991.93-.605 1.15.11 1.99.293 1.38.297 3-1.517 4.05-2.297 2.84-2.112 5.62-4.445 7.3-7.613.5-.949 1.93-3.4 1.28-4.5zm29.16 40.394c-.78-2.526 2.85-4.471 4.45-5.687 2.4-1.823 4.07-3.843 5.68-6.391 6.31-9.942 8.54-22.051 8.02-33.676-.14-3.226-.51-6.447-.58-9.674-.04-1.677.07-3.238-.3-4.892-.35-1.565-.76-3.113-1.15-4.668-.77-3.103-1.16-6.282-2.08-9.348-.85-2.841-2.01-5.582-3.37-8.217-.9-1.759-1.75-4.225-4.12-3.888-2.95.422-5.85 1.943-8.73 2.736-3.19.879-6.41 1.613-9.63 2.368-3.12.73-6.16 1.768-9.3 2.399-1.64.33-3.26.464-4.93.436-.73-.013-2.04-.083-2.11.912-.08 1.088 1.6 2.269 2.28 2.936.97.94 1.69 1.826 2.22 3.076 1.26 2.976 2.4 6.08 2.87 9.29.46 3.122.38 6.405.41 9.555.07 6.354-.83 12.439-3.11 18.392-2.07 5.385-5.31 9.1-9.75 12.696 4.64 2.304 9.27 4.611 13.91 6.912 4.18 2.072 8.4 3.861 11.97 6.923 1.47 1.261 3.21 2.716 4.26 4.361 1.31 2.054-.53 3.45-2.49 2.629-2.15-.904-4.27-1.937-6.38-2.94-1.37-.653-3.66-2.403-5.26-2.359-1.36.038-1.87 1.773-2.48 2.735-.97 1.538-2.18 2.908-3.51 4.144-2.8 2.599-6.08 4.772-9.53 6.409-3.81 1.806-7.92 3.041-12.07 3.748-2.27.385-4.57.588-6.87.502-1.73-.064-4.17-.069-5.73-.909-1.33-.724-.63-2.2-1.96-2.957-1.4-.795-2.87-1.388-4.22-2.282-3.19-2.113-5.08-4.835-6.95-8.091-4.3-7.478-9.52-14.312-12.74-22.372-.75-1.888-1.18-4.114-2.41-5.762-.82-1.095-2.64-1.747-2.84-3.185-.2-1.405.37-4.511 1.77-5.161 1.62-.75 3.97-.761 5.72-1.169 7.63-1.777 14.74-4.483 20.82-9.52a47.41 47.41 0 004.3-4.06c1-1.066 2.05-2.187 1.85-3.76-.18-1.398-1.31-3.438.98-3.83 1.54-.263 3.66.546 4.91 1.335 3.75 2.366 7.24 5.213 10.83 7.826 3.27 2.382 6.61 4.651 9.94 6.959-.39-5.484-.21-11.428-1.52-16.783-.64-2.614-1.75-5.08-3.19-7.354-1.47-2.334-2.65-4.779-3.93-7.213-.72.415-1.89 1.343-2.55.238-.4-.687-.12-2.495.04-3.285 1.14-5.854 10.04-6.44 14.64-7.439 6.6-1.437 13.2-3.173 19.88-4.193 3.09-.471 6.15-.565 9.26-.754 1.6-.097 3.45-.451 4.42 1.159.26.432.29 1.048.58 1.392.26.316 1.01.624 1.36.909 1.03.826 1.92 1.799 2.7 2.861 1.59 2.173 2.68 4.674 3.74 7.137 2.54 5.94 3.99 12.246 4.78 18.64.82 6.554 1.38 13.331.95 19.933-.8 12.153-4.1 24.515-11.77 34.228-1.76 2.227-3.68 4.049-6.21 5.376-1.23.642-5.08 2.915-5.77.667zm-87.37 142.989c2.37 3.052 4.75 6.071 6.87 9.308 2.14 3.259 4.17 6.581 6.27 9.869 2.01 3.173 4.26 6.251 5.89 9.653.93 1.961 1.02 4.544 3.59 4.452 3.4-.12 6.61-1.088 9.6-2.673 6-3.176 10.99-7.637 14.73-13.296 3.88-5.871 6.9-12.513 9.08-19.192 1.21-3.693 2.18-7.459 3.06-11.243.44-1.92.92-3.8.92-5.782 0-.872-.05-1.742-.1-2.612-.04-.823-.5-2.26.45-2.316-.28-2.366-.56-4.732-.85-7.096-.21-1.709-.19-3.624-1.69-4.755-1.44-1.083-3.69-1.12-5.38-1.502a82.616 82.616 0 01-6.08-1.616c-4.12-1.26-8.06-2.928-12.03-4.571-1.98-.82-3.97-1.655-5.84-2.712-1.54-.876-2.65-2.145-3.7-.151-7.14 13.579-12.35 28.797-24.04 39.332-.94.851-2.49 1.875-2.63 3.271-.13 1.359 1.12 2.663 1.88 3.632zm-9.4-9.597c1.65-1.128 3.69-1.315 5.36-2.356 1.92-1.194 3.19-3.886 4.5-5.679 3.12-4.278 6.25-8.582 9.07-13.068 2.56-4.074 4.87-8.295 7.33-12.429 1.26-2.118 2.56-4.181 4.05-6.15.63-.837 2.23-3.796 3.58-3.685.7.056.67.732 1.17.951.26.111.47-.012.72.023.9.121 1.88-.336 2.82-.246 2.3.223 4.79 1.189 7 1.856 4.63 1.392 9.04 3.352 13.59 4.961 4.5 1.595 9.54 2.66 13.66 5.143 1.62.98 3.46 2.549 1.86 4.469-.6.727-1.43.708-2.06 1.273-.54.476-.3.738-.18 1.531.07.454.15.907.22 1.36.73 4.766 1.34 9.54.67 14.352-.67 4.862-1.69 9.707-3.06 14.42-4.31 14.884-12.01 32.551-27.16 39.147-3.54 1.542-7.07 1.907-10.8 2.602-1.18.219-2.17.75-3.21 1.288-.5.258-1.12.674-1.72.6-1.37-.168-2.5-2.295-3.14-3.301-2.42-3.797-5.16-7.362-7.67-11.098-1.3-1.933-2.53-3.915-3.6-5.988-.61-1.199-1.06-3.187-2.75-3.143-.46.609-.91 1.218-1.37 1.827-.19.244-.46.515-.59.788-.34.688-.31.178-.17.991.17 1.039 1.14 2.215 1.75 3.034 3.56 4.809 7.28 9.501 11.02 14.176 3.67 4.595 7.42 9.157 11.72 13.183.87.815 1.83 1.808 3.1 1.863 1.18.051 2.46-.564 3.63-.767 2.54-.442 5.14-.543 7.61-1.309 1.29-.398 2.36-1.14 3.7-1.23 1.12-.077 1.88-.263 2.86-.856 2.22-1.339 4.69-2.074 6.94-3.34 4.63-2.608 9.42-6.482 12.82-10.573 1.76-2.12 3.2-4.481 4.93-6.627 1.67-2.087 3.33-4.16 4.8-6.406 2.89-4.426 5.2-9.223 6.95-14.213.91-2.591 1.36-4.284-.9-6.18-2.14-1.787-4.13-3.656-5.91-5.805-.87-1.048-4.81-4.891-1.86-5.531 1.6-.347 4.16 2.348 5.36 3.325 1.96 1.591 3.88 3.133 6.14 4.272 2.57 1.289 2.62 2.926 2.58 5.604-.08 5.522-2.14 10.901-4.27 15.941a74.175 74.175 0 01-8.27 14.649c-6.33 8.708-13.41 17.541-23.24 22.411-4.87 2.408-10.12 3.679-15.49 4.279-3.18.355-6.38.479-9.57.401-1.34-.034-3.1.148-4.4-.261-1.04-.331-1.21-1.107-1.59-2.055-.9-2.248-3.25-3.468-4.84-5.268-1.69-1.924-3.47-3.736-5.22-5.614-3.78-4.068-6.28-8.854-9.31-13.448-1.68-2.541-3.5-5.027-4.97-7.702-1.18-2.167-2.66-5.016-3.07-7.461-.33-1.95 1.24-4.785 3.41-4.892 1.12-.057 2.03.829 3.14.943.33.035 1.47-.193 1.87-.03-1.82-4.404-4.51-8.551-6.55-12.838a140.859 140.859 0 01-3.26-7.341c-.77-1.886-1.69-3.433.27-4.773zm-29.06-348.655c-3.57 8.226-9.31 14.783-15.17 21.46-3.1 3.533-6.26 6.742-10.02 9.585-3.5 2.646-7.04 5.228-10.58 7.827 3.55 4.548 7.53 8.707 11.48 12.91 3.65 3.884 7.29 7.853 9.69 12.65.25-2.296 1.75-3.715 3.76-4.651 2.51-1.168 4.82-2.438 7-4.161 4.63-3.655 8.94-8.009 12.88-12.38 8.02-8.89 13.13-20.071 18.7-30.527-9.24-4.237-18.49-8.475-27.74-12.713zm29.64 20.751c-1.35 3.801-3.32 7.459-5.11 11.07-1.77 3.557-3.61 7.093-5.67 10.491-3.93 6.458-8.73 12.476-14.86 17.006-3 2.218-6.21 4.427-9.54 6.116-1.58.798-3.31 1.404-5.1 1.303-1.1-.063-2.62-1.034-3.47-.168-.88.888-.59 2.663-2.42 1.802-1.5-.708-2.82-2.214-3.93-3.395-2.82-3.004-5.64-6.026-8.35-9.132-2.62-3.009-4.77-6.438-6.98-9.747-1.22-1.828-2.43-3.663-3.64-5.497-.87-1.313-2.1-2.627-2.03-4.289.12-3.244 4.1-5.443 6.37-7.247 2.77-2.211 5.35-4.482 7.72-7.128 2.51-2.816 5.68-5.174 8.4-7.817 2.95-2.868 5.62-5.989 8.27-9.133 2.1-2.496 4.18-5.055 5.97-7.788 1.39-2.136 2.96-3.776 5.74-3.38 2.18.503 4.36.861 6.46 1.659 2.11.803 4.14 1.818 6.19 2.76 3.72 1.708 7.14 3.868 10.75 5.766.81.43 1.62.875 2.37 1.428.41.304.82.891 1.26 1.11.32.16.54.124.91.228 1.46.409 2.02 1.224 2.75 2.505 1.17 2.061 1.14 3.169.06 5.281-.98 1.93-1.39 4.161-2.12 6.196zm-146.55 102.217c-.91 1.464-2.41.743-3.26-.299-2.6-3.166-5.03-6.59-7.36-9.958-2.37-3.419-4.54-6.881-7.22-10.072a422.47 422.47 0 00-8.26-9.497c-10.46-11.676-21.19-23.075-32.72-33.682-2.82-2.592-5.72-5.125-8.42-7.836-1.19-1.193-2.64-2.516-2.59-4.35.04-1.308.9-2.921 2.04-3.59 2.49-1.45 5.82 2.084 7.67 3.404 1.41 1.009 2.93 1.538 4.41 2.367 1.3.726 2.6 1.837 3.71 2.828 2.5 2.228 5.2 4.121 7.73 6.291 2.58 2.204 4.85 4.732 7.38 6.986 2.7 2.411 5.6 4.485 8.01 7.231 2.37 2.709 4.37 5.666 6.85 8.302 5.27 5.61 9.58 11.95 14.08 18.188 2.17 3.003 3.8 6.293 5.26 9.69.73 1.692 1.46 3.391 2.14 5.1.66 1.62.71 3.275 1.01 4.974-.38.074-.09 3.338-.46 3.923zm-583.834 276.55c-1.98-2.376-3.28-5.801-4.719-8.542-1.542-2.935-2.97-5.65-3.623-8.918-.314-1.573-.503-3.181-.862-4.742-.339-1.476-.824-2.779-.685-4.321.145-1.61.896-6.461 3.347-5.925 1.425.311 1.138 1.832 1.147 2.944.01 1.274.158 2.543.534 3.763.888 2.885 3.001 5.427 4.34 8.134 1.296 2.623 2.832 5.011 4.772 7.209a52.001 52.001 0 006.141 5.896c1.923 1.563 4.243 2.744 5.643 4.864.837 1.269.977 1.649 2.516 1.998 1.242.283 2.408.736 3.453 1.475 1.184.839 2.025 1.842 3.41 2.393 1.205.48 2.482.766 3.699 1.215 2.813 1.036 5.27 2.786 8.145 3.767 1.487.508 2.998.941 4.504 1.391 1.203.36 2.627.607 3.624 1.419 1.673 1.365 2.61 4.849 1.147 6.662-1.575 1.953-5.27.732-7.319.482l-.079.4c-3.451-.692-7.049-1.102-10.403-2.183-1.773-.572-3.366-1.389-4.986-2.292-1.372-.764-2.778-1.035-4.245-1.523-1.313-.435-2.36-1.097-3.181-2.228-1.048-1.449-1.492-1.017-3.109-1.371-2.599-.57-4.838-3.514-6.626-5.293-2.178-2.169-4.619-4.315-6.585-6.674zm496.494-418.393c-.6-.958-2.72-1.825-3.69-2.449a88.029 88.029 0 01-3.91-2.642c-2.32-1.672-3.94-.573-6 1.028-3.81 2.956-5.33 6.928-5.05 11.626-.01 1.373-.38 3.669.68 4.799 1.01 1.083 3.12.977 4.45 1.246 1.75.354 4.4 2.565 6.21 1.918 1.59-.567 1.03-3.398 1.16-4.647.24-2.332 1.01-4.589 2.45-6.473.74-.969 1.62-1.792 2.59-2.529.75-.564 1.72-.925 1.11-1.877zm6.97 7.058c-1.49.261-3.04.953-4.44 1.521-.93.376-2.14.728-2.89 1.396-1.25 1.107-.74 2.854-1.03 4.303-.17.848-.61 1.577-.3 2.458.37 1.028 1.45 1.205 2 2.039.8 1.223-.24 2.95-.93 3.993-1.2 1.81-2.83.886-4.68.615-2.23-.327-4.52-.417-6.67-1.15-1.75-.596-3.2-1.978-4.53-.139-.5.685-.6 1.291-1.58 1.034-.82-.214-1.64-1.318-2.2-1.883-3.49-3.52-4.32-8.331-4.37-13.077-.17-5.27 1.75-10.222 4.47-14.676.57-.936 1.14-2.017 2-2.744.83-.709 1.91-.987 2.66-1.814 1.12-1.233.86-3.73 2.65-4.274 1.89-.574 4.6 1.706 6.02 2.683 2.01 1.375 3.98 2.807 5.91 4.28 4.14 3.156 8.77 6.177 12.52 9.786 1.27 1.224 1.78 3.387.51 4.848-1.28 1.462-3.46.513-5.12.801zM936.675 498.337c.804-4.658 2.158-9.21 3.802-13.647 1.064-2.873 3.494-7.819 7.374-7.534 4.272.314 1.409 5.879.994 8.091-1.623 8.658-2.561 17.514-3.844 26.231-.635 4.319-.826 8.769-1.849 13.021a34.586 34.586 0 01-2.083 6.043c-.558 1.242-1.224 2.858-2.618 3.418-4.232 1.7-3.175-5.728-3.128-7.559.115-4.483.22-8.965.331-13.448l-.347-.01c.643-4.859.532-9.757 1.368-14.606zM1364.29 53.21c-1.15 1.54-3.62 1.548-3.46-.708.15-2.069.8-4.107 1.47-6.056.68-1.99.54-4.152.58-6.23.09-4.961-.07-9.767-1.01-14.65-.89-4.7-1.47-9.458-2.52-14.13-1.03-4.585-2.9-8.92-4.04-13.467-.36-1.404-.65-4.144 1.41-4.465 1.72-.266 2.73 2.13 3.39 3.261 2.21 3.765 4.59 7.246 5.9 11.44 1.18 3.78 2.07 7.803 2.48 11.74.44 4.125.37 8.293.62 12.431-.41 4.808-.19 10.13-1.74 14.739-.7 2.075-1.75 4.327-3.08 6.095zm-570.676 83.765c.32.787.476 1.626-.073 2.365-.998 1.341-2.586-1.714-2.828-2.566-.524-1.849-1.181-3.711-1.474-5.62-.3-1.947-.157-4.041-.205-6.015.159-2.342.463-4.678 1.009-6.957.483-2.021.995-4.104 2.602-5.466.668-.566 1.127-.138 1.221.671.102.886-.124 1.779-.518 2.556-.924 1.822-.926 3.952-1.133 5.99-.411 4.051-.642 8.09.394 12.065.265 1.019.61 2.006 1.005 2.977zm642.436 28.481c-.49 1.897-1.04 3.779-1.74 5.609-1.35 3.536-3.1 6.933-5.26 10.044-3.57 5.133-8.28 10.01-13.39 13.62-1.69 1.191-5.78 4.519-7.97 3.408-3-1.519 1.01-5.396 2.23-6.531 2.51-2.343 5.01-4.705 7.54-7.018 2.55-2.322 4.44-5.296 6.45-8.076 2.02-2.801 4-5.637 5.83-8.567.95-1.515 1.78-3.105 2.72-4.621.81-1.312 2.02-2.213 3.07-3.319.87.415.77.343.99 1.133.1.339.07 1.03.06 1.342-.01 1.025-.28 1.987-.53 2.976zM1221 194.874c-4.76-4.296-9.97-7.926-14.46-12.502-1.13-1.152-2-1.825-1.02-3.399.65-1.05 1.4-1.583 2.5-.863 2.64 1.721 5.15 3.835 7.69 5.712 5.21 3.848 10.61 7.621 15.31 12.083 2.13 2.021 4.1 4.219 5.75 6.643 1.73 2.544 3.04 5.124 1.1 7.974-5.65-5.187-11.19-10.508-16.87-15.648zM920.442 497.476c.86-.938 1.916-.949 2.371.184.468 1.167-.14 3.167-.307 4.325a213.218 213.218 0 01-.896 5.676c-.19 1.102-.329 4.528-1.778 4.973-2.224.685-2.278-4.714-2.469-5.814.468-1.594.913-3.195 1.385-4.788.414-1.398.667-3.435 1.694-4.556zm374.438-93.127c.53-.252.94-.143 1.05-.775.1-.525-.73-1.072-.85-1.522-.46-1.622 1.25.084 1.87.596-.59 1.446-1.17 2.891-1.76 4.333-.67-.261-1.33-.528-1.99-.794.63-.858.71-1.377 1.68-1.838zM983.885 143.035c-1.107.364-2.73-.131-3.859-.34-1.089-.202-2.316-.503-3.355-.908-2.565-.999-2.347-4.027-1.755-6.381.798-3.171 2.575-6.207 3.984-9.132a117.052 117.052 0 002.103-4.602c.501-1.173 1.164-2.819 2.688-2.83 2.348-.018 1.202 5.504.829 6.817-.94 3.31-2.683 6.361-4.14 9.452 1.346.091 2.73.268 4.073.223 1.395-.047 1.775-.005 2.116 1.55.492 2.25-.186 5.331-2.684 6.151zm21.165-27.058c-2.53-.156-5.051-.421-7.568-.703-1.852-.209-5.083-.246-6.399-1.708-.902-1.003-.747-3.138.047-4.177.937-1.227 3.127-.743 4.519-.743 3.758.062 7.401.561 10.761 2.215 1.24.607 4.01 1.711 3.72 3.366-.37 2.079-3.53 1.844-5.08 1.75zm-10.537 29.12c2.112.529 1.707 4.14 1.055 5.658-.976 2.274-3.435 2.825-5.694 2.679-1.086-.108-2.648.282-3.462-.626-.804-.897-.793-2.696-.225-3.7.753-1.328 2.704-2.081 4.025-2.697 1.149-.537 2.978-1.646 4.301-1.314zm-.281-18.772c-.165-2.068 1.02-6.716 3.785-6.542 1.314.082 2.433 1.96 2.673 3.114.25 1.215-.1 2.445-.42 3.608-.52 1.921-1.306 4.883-3.863 4.458-2.122-.353-2.18-2.885-2.175-4.638zm-19.939 2.083c-.56.543-1.376.947-2.161.591-1.156-.525-.957-1.909-.957-2.896a35.39 35.39 0 01-.388-.125c.656-1.816 1.086-5.619 3.366-6.133 2.237-.505 2.4 1.976 2.189 3.523-.224 1.651-.791 3.816-2.049 5.04zm70.317-.211c1.11.111 3.2.626 3.02 2.017-.27 2.027-3.45 2.39-5.07 2.586-1.91.234-4.57.04-2.75-2.357 1.11-1.459 2.97-2.104 4.8-2.246zm93.68 242.299l1.2 2.33-3.75.477c-.05-.989 1.89-2.216 2.55-2.807z" fill="#000"/></g></svg>