<svg width="122" height="122" viewBox="0 0 122 122" fill="none" xmlns="http://www.w3.org/2000/svg" preserveAspectRatio="none"><circle cx="40" cy="61" r="40" fill="#FFAEAD"/><path d="M39.69 106.392c3.469-1.429 2.925-5 2.993-8.129.034-1.666.34-2.993 2.245-3.095 1.19-.068 2.346.306 3.57.17 1.225-.136 2.415-.612 3.47-1.258 5.475-3.435 6.631-10.611 4.455-16.325-1.122-2.959-3.061-5.441-5.204-7.72-1.156-1.224-2.448-2.347-3.57-3.571-.749-.816-1.735-1.939-.987-3.129.442-.714 1.36-.952 2.143-1.02 1.496-.136 2.992.272 4.455.306 1.837.034 3.673-.306 5.34-1.055 3.06-1.394 5.407-4.183 6.087-7.482-.34.204-.68.374-1.02.578 1.599.647 3.197 1.327 4.83 1.973 1.088.442 2.142.918 3.332.646 2.007-.442 3.265-2.652 3.606-4.523.442-2.38-.647-4.625-2.143-6.428-1.973-2.313-4.353-4.32-6.768-6.156-1.87-1.428-4.387-3.877-6.904-2.652-2.279 1.122-3.571 3.945-4.523 6.155-2.143 5.102-2.585 11.02-1.123 16.36 2.585 9.318 13.502 20.337 23.977 15.712 4.626-2.04 8.23-7.006 7.618-12.21-.578-5.17-4.965-8.57-8.808-11.495A143.913 143.913 0 0060.402 41.33c-5.51-3.095-11.257-6.054-17.209-8.197-5.816-2.074-12.244-3.163-18.297-1.394-4.898 1.428-8.469 5.543-6.904 10.815.782 2.687 2.584 4.931 4.387 7.006 2.142 2.483 4.523 4.761 6.972 6.904 4.965 4.387 10.237 8.468 15.543 12.448 10.713 8.06 21.902 15.542 33.5 22.31 2.72 1.599 5.407 3.265 8.298 4.523 2.38 1.02 5.51 2.041 8.128 1.36 2.075-.543 1.837-4.998 1.633-6.597-.374-2.789-1.497-5.476-2.62-8.026-4.59-10.51-12.175-19.318-20.745-26.8-4.15-3.605-8.537-6.972-12.992-10.17-1.734-1.224-3.911-2.516-6.122-2.04-2.142.442-3.469 2.483-3.57 4.592-.137 2.516 1.19 4.76 2.55 6.768a44.84 44.84 0 005.271 6.325c3.878 3.945 8.435 7.177 13.196 10 4.898 2.89 10.067 5.509 15.339 7.686 2.414.986 5.067 1.598 7.55.612 2.04-.782 3.81-2.415 4.557-4.524.953-2.618-.136-5.237-1.258-7.618a74.73 74.73 0 00-4.15-7.822 85.861 85.861 0 00-10.168-13.536c-3.775-4.081-7.925-7.788-12.346-11.121-4.251-3.197-9.42-7.415-14.964-7.72-5.204-.273-8.979 3.74-10.475 8.366-1.53 4.66-.544 9.693 2.55 13.468a17.307 17.307 0 005.986 4.625c2.415 1.123 4.728.782 6.87-.748 4.15-2.959 6.904-7.89 8.333-12.686 3.163-10.61-.204-21.698-7.857-29.486-1.768-1.803-3.809-3.742-6.291-4.422-2.517-.68-4.966.204-7.007 1.735-4.489 3.435-7.176 9.216-8.4 14.624-2.687 11.801 1.462 23.943 7.21 34.214 2.789 4.932 6.122 9.59 9.965 13.74a62.583 62.583 0 006.156 5.85c1.972 1.666 4.183 3.673 6.666 4.557 4.897 1.769 8.944-3.095 10.067-7.346 1.496-5.714-.953-11.835-3.13-17.039-4.114-9.727-10.44-18.603-18.603-25.337a59.605 59.605 0 00-12.923-8.163c-2.415-1.122-5.068-2.279-7.789-1.836-2.21.374-4.115 1.734-5.51 3.469-7.244 8.944-3.502 22.004 1.77 30.88 5.815 9.762 13.807 18.332 23.16 24.794 4.523 3.129 9.557 6.156 14.794 7.958 2.245.783 4.626.68 6.428-.986 2.04-1.904 1.803-4.523 1.02-6.972-3.23-10.305-10.849-18.161-19.487-24.283a125.946 125.946 0 00-6.7-4.387c-1.633-.987-4.047-2.109-5.17.272-.952 2.006.442 4.591 1.53 6.258 1.463 2.244 3.47 4.08 5.578 5.713 5.034 3.911 10.441 7.346 16.02 10.34 5.509 2.958 11.495 6.019 17.65 7.311 4.218.885 9.965 1.055 12.584-3.129 3.299-5.203-2.109-10.78-5.816-13.944-4.557-3.843-9.795-7.108-14.998-10.033-5.204-2.924-10.781-5.34-16.733-6.291-5.612-.885-11.461-.477-16.767 1.7-3.673 1.53-11.291 5.578-9.557 10.713.748 2.245 3.163 3.3 5.136 4.218a56.249 56.249 0 008.366 3.128c5.918 1.735 12.108 2.551 18.264 2.517 6.393-.034 12.821-.986 18.977-2.72 4.183-1.191 9.149-4.184 7.278-9.353-.918-2.483-3.06-4.252-5.033-5.884a95.694 95.694 0 00-7.585-5.68c-5.339-3.639-11.019-6.904-16.834-9.76-10.714-5.238-23.127-9.32-35.167-7.177-4.795.85-9.489 3.061-12.447 7.04-3.265 4.388-3.707 10.101-2.313 15.27 2.959 11.02 12.89 19.182 22.038 25.236 4.388 2.891 8.945 6.258 14.387 4.047 4.693-1.904 8.23-6.393 10.203-10.95 3.707-8.64 3.094-20.339-4.218-26.97-.272-.239-.68-.307-.986-.137-7.448 4.081-9.523 13.264-9.387 21.086.136 8.469 2.279 16.937 6.564 24.283.306.51 1.157.579 1.429 0 5.713-11.767 7.074-26.187 1.02-38.09a31.32 31.32 0 00-4.863-7.04c-1.803-1.973-4.184-4.252-6.7-5.34-2.45-1.055-4.524 1.156-5.068 3.4-.748 3.062.884 6.633 2.04 9.387 2.926 7.04 7.585 13.094 12.21 19.08.647.85 1.803-.34 1.157-1.156-3.47-4.456-6.904-8.979-9.625-13.91a46.65 46.65 0 01-3.537-8.129c-.51-1.598-1.055-3.367-.578-5.033.238-.816.884-2.007 1.802-2.21.85-.17 1.837.577 2.483 1.053 8.91 6.054 13.094 17.04 12.992 27.548-.068 6.803-1.769 13.537-4.728 19.658h1.429c-3.945-6.734-5.986-14.454-6.292-22.242-.306-7.585 1.224-16.835 8.502-20.916-.34-.034-.68-.102-.986-.136 6.734 6.121 7.312 16.868 4.013 24.895-1.836 4.421-5.373 9.08-10.1 10.611-4.898 1.599-9.557-2.38-13.4-5-7.959-5.407-16.462-12.55-19.658-21.97-1.599-4.761-1.735-10.067.952-14.454 2.517-4.081 6.938-6.292 11.495-7.21 10.34-2.109 21.393.986 30.813 5.17 9.863 4.386 19.522 10.032 27.82 16.97 1.871 1.565 4.252 3.333 4.83 5.85.646 2.89-1.7 4.897-4.081 5.884-4.83 1.972-10.51 2.788-15.679 3.197-10.611.85-21.494-.817-31.187-5.34-2.313-1.088-5.544-2.72-3.775-5.816 1.258-2.21 3.809-3.809 6.02-5 4.489-2.414 9.658-3.332 14.726-3.026 10.577.578 19.998 6.326 28.602 12.107 4.15 2.79 9.455 6.224 11.462 11.054 1.122 2.755.17 5.577-2.483 6.904-1.939.986-4.183 1.054-6.292.816-5.578-.612-10.917-3.23-15.917-5.68-4.863-2.414-9.59-5.135-14.08-8.196-4.115-2.789-9.012-5.85-11.291-10.475-.272-.544-.544-1.122-.68-1.7-.068-.239-.17-.647-.102-.885.068-.272 1.292-1.088 1.7-1.054.85.068 2.245 1.326 2.96 1.802 1.904 1.19 3.808 2.45 5.61 3.775C66.83 63.37 73.53 70.24 76.83 79.048c.952 2.516 2.279 6.02-.748 7.686-2.415 1.326-5.408-.442-7.585-1.497a75.608 75.608 0 01-12.38-7.346c-8.128-5.85-14.93-13.23-20.201-21.528-5.136-8.094-9.217-19.08-4.421-28.296 1.02-1.939 2.448-3.81 4.489-4.728 2.755-1.258 5.68 0 8.196 1.157a57.265 57.265 0 0111.156 6.734c7.142 5.51 12.923 12.617 17.14 20.576 2.245 4.25 4.218 8.774 5.374 13.468.714 2.788.986 5.85.034 8.638-.782 2.279-2.483 4.864-4.897 5.612-2.551.782-4.864-1.157-6.734-2.619a63.582 63.582 0 01-5.646-4.863c-3.503-3.367-6.598-7.142-9.319-11.19-5.611-8.434-10.305-18.57-10.78-28.874-.239-5.136.645-10.407 2.856-15.067 2.007-4.217 6.632-11.189 12.176-8.74 2.176.952 3.979 2.857 5.577 4.591a29.972 29.972 0 014.285 5.986c2.347 4.285 3.606 9.149 3.401 14.046-.17 4.625-1.496 9.25-3.945 13.196-1.292 2.109-2.992 4.183-5.033 5.612-2.55 1.768-5 .816-7.346-.783-3.911-2.686-6.496-7.108-6.02-11.937.442-4.625 3.537-9.897 8.672-10.101 5-.204 9.863 3.775 13.706 6.564 3.878 2.789 7.517 5.918 10.918 9.285 6.87 6.87 12.55 14.93 16.563 23.773 1.224 2.72 2.04 5.68-.34 8.026-2.075 2.04-4.83 2.177-7.483 1.292-4.557-1.53-9.046-4.047-13.264-6.326-8.4-4.557-16.392-10.407-21.63-18.57-1.224-1.938-2.653-5.339-.442-7.175 2.04-1.7 4.795.34 6.53 1.598 3.911 2.823 7.788 5.782 11.461 8.91 7.21 6.19 13.74 13.23 18.468 21.53 2.38 4.216 5.237 9.386 5.34 14.351.033 1.53 0 3.367-1.803 3.572-1.395.135-2.993-.34-4.286-.783-2.55-.85-4.863-2.278-7.176-3.605a341.352 341.352 0 01-28.296-18.127c-9.047-6.428-18.23-13.128-26.222-20.882-3.435-3.333-9.25-8.57-7.652-13.978 1.53-5.34 9.183-5.952 13.706-5.646 5.714.374 11.155 2.619 16.29 5.033a146.593 146.593 0 0114.251 7.619 139.292 139.292 0 0113.672 9.42c3.605 2.857 7.414 6.7 6.36 11.734-1.054 5.067-6.02 8.843-11.121 8.707-5.102-.17-9.795-3.606-12.924-7.38a22.235 22.235 0 01-5-13.877c-.034-2.482.34-4.965 1.055-7.346.714-2.313 1.904-5.816 4.047-7.176 1.598-1.02 3.027.272 4.32 1.224 1.121.783 2.176 1.633 3.23 2.517 1.939 1.633 4.15 3.435 5.476 5.578 1.224 1.938 1.496 5.645-1.02 6.87-1.157.578-2.517-.238-3.572-.68-1.394-.579-2.823-1.157-4.217-1.735-.408-.17-.918.17-1.02.578-.748 3.64-3.707 6.36-7.312 7.108-2.79.578-5.646-.646-8.367.136-1.972.578-3.197 2.517-2.482 4.524.408 1.224 1.428 2.108 2.312 2.992 1.259 1.259 2.55 2.483 3.741 3.81 4.626 5.17 7.312 13.706 1.633 19.25-1.02.986-2.313 1.802-3.707 2.142-1.36.306-2.62-.136-3.98-.068-1.394.068-2.686.578-3.333 1.87-1.394 2.653 1.055 8.027-2.346 9.455-.918.34-.51 1.905.476 1.497z" fill="#26345A"/></svg>