<svg width="122" height="122" viewBox="0 0 122 122" fill="none" xmlns="http://www.w3.org/2000/svg" preserveAspectRatio="none"><circle cx="40" cy="61" r="40" fill="#FFAEAD"/><path d="M81.126 74.106c-.856-8.537-1.713-17.092-2.552-25.63-.478.102-.955.185-1.433.286 5.45 5.87 10.916 11.724 16.366 17.595.346-.252.708-.503 1.053-.755a118.92 118.92 0 00-26.523-4.981c.131.352.263.687.395 1.04 7.64-3.523 15.279-7.062 22.918-10.584-.379-.201-.757-.42-1.136-.62-3.573 7.614-7.129 15.246-10.702 22.86-.329.705 1.186.94 1.482.303 3.573-7.615 7.13-15.247 10.702-22.862.28-.604-.774-.788-1.136-.62-7.64 3.522-15.279 7.06-22.918 10.583-.758.352-.214.99.395 1.04a116.015 116.015 0 0125.733 4.83c.362.118 1.63-.133 1.054-.754-5.45-5.87-10.916-11.724-16.365-17.595-.313-.335-1.499-.436-1.433.285.856 8.538 1.713 17.092 2.552 25.63.082.687 1.614.67 1.548-.051zM44.707 44.163c-1.205-11.493-2.41-23.008-3.592-34.501-.672.135-1.344.248-2.016.384 7.67 7.902 15.363 15.782 23.033 23.685.486-.339.996-.677 1.483-1.016a174.188 174.188 0 00-37.33-6.706c.186.474.37.926.556 1.4 10.752-4.742 21.504-9.506 32.255-14.247-.533-.272-1.066-.565-1.598-.836-5.029 10.25-10.034 20.524-15.062 30.775-.464.949 1.668 1.265 2.085.407 5.029-10.251 10.034-20.525 15.062-30.776.394-.812-1.09-1.06-1.599-.835-10.752 4.742-21.503 9.506-32.255 14.247-1.066.475-.301 1.333.556 1.4a169.921 169.921 0 0136.218 6.503c.51.158 2.294-.18 1.483-1.016-7.67-7.903-15.363-15.783-23.033-23.685-.44-.452-2.109-.587-2.016.383 1.205 11.493 2.41 23.008 3.592 34.501.115.926 2.27.903 2.178-.067zM19.633 98.756c8.39-10.666 16.751-21.332 25.142-32.029-.878-.151-1.757-.333-2.635-.485a600.696 600.696 0 01-.364 41.786c.94-.091 1.848-.182 2.787-.243-6.452-14.574-12.874-29.21-19.326-43.815-.788.303-1.575.606-2.363.94C33.507 71.12 44.805 76 56.65 79.423c.121-.576.212-1.152.334-1.728-6.967.88-13.268 3.879-19.236 7.515-6.785 4.151-13.389 8.666-20.022 13.03-1.424.939 1 1.999 1.999 1.333 5.967-3.909 11.904-7.909 17.933-11.727 6.21-3.939 12.692-7.393 20.083-8.333.97-.12 1.484-1.393.333-1.727a146.83 146.83 0 01-33.2-14.211c-.605-.364-2.908-.333-2.362.94 6.452 14.574 12.874 29.18 19.326 43.785.424.969 2.726.969 2.787-.243.605-13.908.727-27.847.363-41.785-.03-1.152-2.09-1.182-2.635-.485A23111.267 23111.267 0 0017.21 97.816c-.97 1.212 1.696 1.879 2.423.94z" fill="#26345A"/></svg>