<svg width="122" height="122" viewBox="0 0 122 122" fill="none" xmlns="http://www.w3.org/2000/svg" preserveAspectRatio="none"><circle cx="40" cy="61" r="40" fill="#FFAEAD"/><path d="M46.049 109c-.369 0-.922-.186-1.475-.742-3.134-3.154-2.95-19.48-2.581-46.011.184-17.996.737-45.27-2.397-46.382-1.106 1.855-.921 15.398-.737 26.16.369 21.52.553 35.992-2.58 38.96-.554.557-1.291.742-1.66.557-1.843-.186-2.212-3.525-2.765-22.635-.184-8.905-.553-21.892-1.844-24.675-.737 2.226-.737 11.874-.737 19.11 0 12.986-.184 19.294-1.66 20.779-.368.37-.736.37-1.105.37-2.581 0-2.765-4.452-3.134-11.873-.184-3.34-.184-8.72-1.106-9.462-.184 0-.369.185-.553.37-.922 1.114-.553 4.082-.369 6.494.184 2.969.369 4.824-.553 5.752-.369.37-.737.556-1.106.556-2.95 0-3.687-4.081-3.687-6.493h1.843c0 .928.37 4.638 1.844 4.638.184-.371 0-2.783 0-4.267-.184-2.969-.369-6.308.922-7.792.553-.557 1.106-.928 1.843-.928.369 0 .922.186 1.29.371 1.291 1.113 1.475 4.824 1.66 10.575.184 3.34.184 9.277 1.106 10.019 1.106-1.67.922-11.874.922-19.295 0-12.987.184-19.295 1.659-20.78.368-.37.737-.37 1.106-.37 2.396 0 2.95 5.937 3.502 26.716.185 8.348.553 18.738 1.29 20.964 2.766-2.597 2.397-22.82 2.029-37.662-.369-17.81-.369-25.974 1.29-27.644.369-.37.738-.37 1.106-.37 4.609.185 4.793 14.842 4.24 48.422-.369 19.666-.737 41.93 2.028 44.713l.184.185s.185 0 .185-.185c2.765-2.969 1.474-25.789.368-44.156-1.29-21.521-1.843-34.694.37-37.106.368-.37.92-.556 1.105-.556 3.503 0 4.056 8.534 4.24 28.014.184 8.35.369 25.789 2.397 25.789 0 0 .184 0 .368-.186 2.028-2.04 1.66-14.1 1.29-23.005-.368-10.575-.368-14.843.923-16.141.368-.371.737-.371.921-.371 2.397 0 2.581 4.638 2.581 16.697 0 5.195 0 12.245.738 13.915.553-1.113.737-6.68.737-10.39.184-7.977.369-12.059 2.58-12.059 2.213 0 2.397 3.71 2.397 8.905 0 1.856 0 6.494.553 7.793.37-2.412 0-9.462-.184-15.77-.553-16.141-.922-27.83 1.29-30.056.37-.371.922-.557 1.107-.557 2.58 0 3.133 7.421 3.502 34.509.184 15.028.553 37.848 2.95 39.146 1.843-1.113.737-19.48 0-31.725-1.106-16.883-1.66-27.273.368-29.314.37-.37.738-.556 1.106-.556 3.134 0 3.688 7.792 4.24 26.901.37 9.277.738 21.707 2.213 23.748 1.29-2.783 1.106-19.852.921-33.766 0-21.521 0-35.065 2.213-37.291C87.71 9 88.08 9 88.449 9c2.765 0 3.318 8.349 3.502 39.332.185 18.553.369 46.568 3.134 47.681 2.581-.557 1.475-25.974.738-41.002-.738-20.223-1.29-32.653.737-34.88.369-.37.737-.556 1.106-.556 3.318 0 3.871 8.72 4.24 28.386.184 8.163.369 19.48 1.475 21.15.922-1.113.922-8.163.737-12.616-.184-7.235-.184-11.688 1.291-13.172.368-.371.737-.557 1.106-.557 2.765 0 2.765 5.01 2.765 11.318 0 3.153 0 9.09.922 9.461 1.29 0 1.475-5.38 1.659-7.977.184-4.082.369-6.494 2.028-6.494s2.028 2.598 2.581 8.163c.184 1.3.184 3.154.553 4.453v-1.67c0-2.783 0-4.452.737-5.38.369-.371.737-.556 1.106-.556 2.95 0 3.134 5.936 3.134 7.05h-1.843c0-2.412-.554-5.38-1.475-5.38-.369.37-.185 2.782-.185 4.08 0 2.413 0 3.897-.553 4.64a1.402 1.402 0 01-.921.37c-1.66 0-1.844-2.412-2.397-7.606-.184-1.67-.369-4.268-.737-5.752-.185 1.113-.185 2.598-.369 3.896-.184 4.824-.553 9.648-3.318 9.648-2.581 0-2.765-5.01-2.765-11.318 0-3.154 0-9.09-.922-9.462-.922.743-.738 7.422-.553 11.874.184 7.607.184 12.43-1.291 13.915-.368.371-.737.556-1.29.556-2.397 0-2.765-4.823-3.134-23.005-.369-8.905-.553-24.675-2.397-26.16-1.474 2.227-.737 19.48 0 33.396 1.107 23.562 1.66 39.332-1.29 42.3-.553.557-1.106.557-1.475.557-4.055 0-4.608-15.028-4.977-49.35-.184-15.4-.184-34.324-1.844-37.478-1.474 3.154-1.29 22.264-1.106 36.364.369 22.634.185 33.395-1.659 35.25-.369.371-.737.371-.922.371-2.765 0-3.318-7.05-4.055-25.603-.369-9.462-.922-23.562-2.397-25.231-1.29 2.04-.368 16.883.185 27.829 1.29 19.11 1.843 30.798-.553 33.21-.37.556-.922.556-1.29.556-3.32 0-4.057-10.204-4.61-41.002-.184-13.543-.368-30.24-1.843-32.653-1.66 1.855-.922 19.295-.553 28.572.553 13.358.553 16.697-.369 17.625l-.184.185h-.553c-2.765 0-2.765-4.638-2.765-10.018 0-2.227 0-5.937-.553-7.05-.738 1.298-.738 6.493-.738 10.204-.184 7.978-.369 12.245-2.58 12.245-2.213 0-2.397-4.082-2.397-15.77 0-5.01 0-12.245-.738-14.471-.553 2.226-.368 8.72-.184 14.285.369 12.616.553 21.707-1.843 24.305-.37.37-.922.742-1.66.742-3.318 0-3.87-8.35-4.24-27.644 0-8.905-.368-26.16-2.396-26.16-1.66 1.485-.738 20.408.184 35.807 1.475 25.418 2.212 42.115-.922 45.455-.553.742-1.106.742-1.474.742z" fill="#26345A"/></svg>