<svg width="122" height="122" viewBox="0 0 122 122" fill="none" xmlns="http://www.w3.org/2000/svg" preserveAspectRatio="none"><circle cx="40" cy="61" r="40" fill="#FFAEAD"/><path d="M27.264 73.222c2.924-1.774 3.734-5.293 4.08-8.444.216-1.98.337-4.016 1.053-5.895.715-1.88 1.688-3.424 1.72-5.414.03-1.99-.421-3.916 0-5.9a17.06 17.06 0 012.455-5.356c1.052-1.685 2.246-3.293 3.213-5.041a28.517 28.517 0 002.246-5.487 69.83 69.83 0 00.905-3.267c.131-.523.347-2.172 1.051-2.25.405-.053.868.523 1.052.821.202.354.348.737.431 1.136.216.801.353 1.628.626 2.414.232.654 1.746.235 1.525-.409-.494-1.403-.462-3.225-1.614-4.308a2.484 2.484 0 00-2.162-.654 2.488 2.488 0 00-1.798 1.36c-.362.84-.626 1.719-.789 2.618-.268 1.016-.526 2.026-.868 3.026a26.913 26.913 0 01-2.63 5.9c-2.103 3.45-5 6.806-5.327 10.994-.163 2.095.526 4.22-.047 6.283-.342 1.011-.75 2-1.22 2.958-.4.91-.704 1.859-.904 2.832-.716 3.796-.174 9.115-4.013 11.44a.442.442 0 00-.228.565.44.44 0 00.133.178 1.055 1.055 0 001.094-.1h.016z" fill="#26345A"/><path d="M41.253 41.769a57.047 57.047 0 004.733-7.33c1.126-2.199 1.578-4.633 2.488-6.91a9.418 9.418 0 011.95-3.142 31.062 31.062 0 013.345-2.68l7.31-5.623c1.341-1.047 2.63-2.13 4.04-3.1.394-.271.688-.523 1.12-.203a1.627 1.627 0 01.525 1.57c-.068.566 1.462.283 1.52-.204.11-.963-.152-1.91-1.157-2.246-1.104-.377-2.314.215-3.208.859-2.771 2.01-5.443 4.188-8.162 6.282l-4.007 3.052a16.97 16.97 0 00-3.292 2.922c-1.646 2.136-2.156 4.863-3.019 7.33-1.183 3.465-3.487 6.501-5.595 9.418-.21.293.178.403.404.413a1.289 1.289 0 001.005-.408z" fill="#26345A"/><path d="M47.516 42.512a92.973 92.973 0 005.507-9.24c1.46-2.9 3.374-5.55 5.669-7.854 2.245-2.225 5.043-3.926 6.989-6.465 1.709-2.225 2.493-5.052 4.36-7.162.92-1.047 2.813-2.456 4.07-1.084 1.173 1.288.4 2.942.179 4.413-.116.786 1.44.603 1.546-.104.216-1.445.8-2.77.158-4.189-.695-1.528-2.262-2.094-3.85-1.712-3.087.718-4.649 3.854-5.974 6.409a17.3 17.3 0 01-2.687 4.03 44.508 44.508 0 01-3.813 3.351 32.152 32.152 0 00-6.879 7.953c-1.083 1.775-1.92 3.665-2.95 5.476-1.115 1.953-2.361 3.822-3.608 5.69-.526.812.884 1.08 1.283.477v.01z" fill="#26345A"/><path d="M54.527 44.846c1.462-2.58 1.972-5.528 2.992-8.282a22.35 22.35 0 014.05-7.057 23.294 23.294 0 013.155-2.812 14.812 14.812 0 002.84-3.24 77.266 77.266 0 012.766-3.733 35.915 35.915 0 012.356-2.911c.418-.465.94-.823 1.525-1.047a3.535 3.535 0 011.425-.267c.642.1.805 1.434.889 1.953a8.033 8.033 0 010 2.701c-.084.524 1.44.24 1.515-.215.241-1.418.305-3.408-.526-4.654-.616-.916-1.999-.523-2.898-.309-2.824.608-4.307 3.021-5.964 5.147-1.052 1.33-2.003 2.712-2.981 4.088a10.933 10.933 0 01-1.678 1.938c-.631.555-1.325 1.047-1.967 1.57a20.182 20.182 0 00-5.206 7.094c-1.526 3.32-1.999 7.068-3.808 10.256-.163.288.526.272.636.257a1.156 1.156 0 00.879-.477zm5.543 3.027c1.999-2.665 2.861-5.921 4.27-8.9a37.582 37.582 0 016.927-10.02c.305-.32.62-.634.94-.943a5.39 5.39 0 01.99-.906c-.526.267-.158 0-.121.204 0 .12.22.34.273.482.09.292.136.595.137.9a10.385 10.385 0 01-.368 3.037 38.946 38.946 0 01-1.872 5.078c-.695 1.686-1.4 3.361-2.104 5.042-2.814 6.712-5.574 13.455-7.457 20.49-.9 3.362-1.794 6.686-3.387 9.807a32.535 32.535 0 01-5.527 7.78c-2.63 2.711-5.832 4.633-8.64 7.109-1.2 1.047-2.472 2.02-3.682 3.057a8.378 8.378 0 00-2.503 3.498c-.148.382 1.34.214 1.51-.23a7.735 7.735 0 012.508-3.388c1.172-.948 2.33-1.874 3.46-2.869 2.63-2.314 5.648-4.141 8.157-6.617a33.2 33.2 0 005.784-7.702c1.72-3.14 2.73-6.48 3.64-9.915 1.967-7.377 4.801-14.429 7.752-21.455a746.27 746.27 0 002.198-5.267 29.654 29.654 0 001.846-5.334c.22-1.1.715-3.508-.526-4.189-1.347-.759-2.772.801-3.613 1.629a38.488 38.488 0 00-6.879 9.083 48.389 48.389 0 00-2.403 5.288 22.385 22.385 0 01-2.72 5.293c-.351.47 1.142.298 1.4-.042h.01z" fill="#26345A"/><path d="M74.71 26.733c.469-1.157.932-2.314 1.4-3.477l.641-1.602c.132-.319.258-.633.41-.942.106-.21.242-.628.463-.754l-.557.199c-.263.037-.068.22 0 .387.068.168.079.31.116.461.052.272.1.524.136.827.078.617.123 1.238.137 1.859a34.312 34.312 0 01-.216 4.408 56.43 56.43 0 01-1.477 8.209c-.153.57 1.383.356 1.525-.178a53.436 53.436 0 001.635-10.099 22.886 22.886 0 00-.115-4.837c-.085-.576-.153-1.477-.716-1.801-.689-.404-1.577.073-1.993.665-.564 1-1.03 2.052-1.393 3.14-.495 1.236-.99 2.472-1.489 3.707-.2.524 1.32.33 1.525-.183l-.031.01z" fill="#26345A"/><path d="M73.522 30.564c.968.613 1.294 1.9 1.52 2.947.33 1.706.506 3.437.526 5.173.063 2.094 0 4.188 0 6.319.04 1.048.014 2.097-.079 3.141a11.914 11.914 0 01-.857 3.026c-.736 1.88-1.64 3.723-2.22 5.66-.578 1.937-.667 3.984-.956 5.957-.526 3.665-1.284 7.377-2.945 10.722a21.13 21.13 0 01-3.63 5.005c-1.324 1.43-2.67 2.948-3.054 4.916-.106.524 1.425.278 1.52-.204.357-1.832 1.577-3.23 2.808-4.565a23.373 23.373 0 003.334-4.33c1.85-3.287 2.73-6.994 3.323-10.69.31-1.937.469-3.906.837-5.838.394-2.094 1.362-4.026 2.156-5.973.425-.933.777-1.898 1.052-2.885.195-.97.283-1.958.263-2.947 0-2.094.042-4.188 0-6.32a34.83 34.83 0 00-.474-6.23c-.226-1.188-.584-2.748-1.688-3.45a1.12 1.12 0 00-1 0c-.11.048-.704.388-.42.571l-.016-.005z" fill="#26345A"/><path d="M64.445 55.914l.1.031.147.058.279.12c.21.1.414.214.61.34.327.204.619.461.862.76.526.617.873 1.34 1.362 1.973a.614.614 0 00.41.142c.207.002.411-.039.6-.12.216-.1.615-.346.405-.624-.526-.665-.883-1.419-1.43-2.052a5.374 5.374 0 00-2.446-1.466 1.104 1.104 0 00-.568.026c-.194.042-.374.13-.526.257a.372.372 0 00-.152.34c.037.136.184.178.3.22l.047-.005z" fill="#26345A"/><path d="M68.595 57.29c.284-.769.42-1.57.689-2.345.369-.788.78-1.557 1.23-2.303.735-1.666 1.3-3.4 1.688-5.178.095-.377-.442-.524-.71-.524a.886.886 0 00-.836.618 24.603 24.603 0 01-1.678 5.031 19.789 19.789 0 00-1.151 2.163c-.274.764-.41 1.57-.69 2.34-.278.77 1.226.827 1.458.183v.016zM45.66 86.132c.61 1.184 1.23 2.358 1.862 3.524a31.667 31.667 0 001.793 3.141 8.495 8.495 0 002.756 2.246 11.87 11.87 0 003.04 1.288c2.16.58 4.464.31 6.431-.754 1.678-.963 2.94-2.707 2.86-4.712a24.587 24.587 0 00-.778-4.125c-.142-.655-.33-1.314-.415-1.98a5.767 5.767 0 01.11-1.57c.069-.471-1.446-.194-1.509.236a5.867 5.867 0 00-.052 2.141c.226 1.1.478 2.194.704 3.288.21 1.01.526 2.094.379 3.104a4.703 4.703 0 01-1.152 2.409c-1.414 1.57-3.607 1.77-5.559 1.225-1.84-.524-3.986-1.602-5.195-3.115a21.637 21.637 0 01-1.888-3.241 172.562 172.562 0 01-1.862-3.523c-.226-.435-1.693.078-1.525.408v.01z" fill="#26345A"/><path d="M42.762 88.341a18.466 18.466 0 00.468 6.832 23.088 23.088 0 003.05 6.419 14.05 14.05 0 004.513 4.711 12.732 12.732 0 005.906 1.812c2.172.103 4.34-.282 6.342-1.125a14.505 14.505 0 005.227-3.749 14.778 14.778 0 002.935-5.068 20 20 0 00.778-6.905c-.068-2.733-.09-5.613-.873-8.251a13.676 13.676 0 00-3.681-5.984c-.4-.377-1.835.199-1.415.602a13.184 13.184 0 013.292 4.884c.779 2.053.952 4.251 1.052 6.424.221 4.257.31 8.534-2.024 12.287a12.392 12.392 0 01-4.102 4.18 12.46 12.46 0 01-5.57 1.841 11.607 11.607 0 01-5.804-1.219 11.546 11.546 0 01-4.435-3.922 24.409 24.409 0 01-3.481-6.67 17.78 17.78 0 01-.663-7.282c.074-.623-1.462-.351-1.525.183h.01zM16.33 74.673a29.88 29.88 0 014.844-2.204c.773-.267 1.752-.723 2.582-.524.831.199 1.452 1.01 1.973 1.68a75.4 75.4 0 015.7 8.675c1.73 3.016 3.319 6.11 4.912 9.204.826 1.57 1.746 3.168 2.435 4.827.6 1.68.906 3.452.905 5.236 0 .497.063 1.01.042 1.513a1.423 1.423 0 01-.742 1.209 29.1 29.1 0 01-2.408 1.623 30.315 30.315 0 01-5.407 2.565c-.147.058-.594.194-.462.403.131.21.857-.057.978-.099a34.519 34.519 0 005.222-2.398c.82-.461 1.616-.958 2.387-1.492.605-.414 1.63-.911 1.883-1.644.253-.733.053-1.848 0-2.618a19.441 19.441 0 00-.379-3.14c-.441-1.97-1.577-3.755-2.476-5.535-1.804-3.491-3.587-6.994-5.549-10.397a82.796 82.796 0 00-3.013-4.88 30.305 30.305 0 00-3.403-4.57c-1.435-1.434-3.58-.66-5.258-.104a33.557 33.557 0 00-5.933 2.617c-.273.157-.173.267.08.299.378.009.752-.09 1.077-.283l.01.037z" fill="#26345A"/><path d="M15.095 74.97a48.349 48.349 0 013.108 7.853 73.83 73.83 0 003.118 7.958 48.12 48.12 0 012.745 8.094c.369 1.392.726 2.785 1.152 4.188.35 1.31.848 2.576 1.483 3.775a3.962 3.962 0 002.824 2.125 4.176 4.176 0 003.314-1.01c.236-.23-.216-.215-.353-.204a1.864 1.864 0 00-1.02.351c-.81.785-2.183-.267-2.74-.943a9.823 9.823 0 01-1.52-3.063c-.857-2.413-1.425-4.915-2.104-7.381a46.751 46.751 0 00-2.697-7.251 64.237 64.237 0 01-2.661-7.068 48.08 48.08 0 00-3.114-7.853c-.178-.34-1.625.22-1.52.408l-.015.021z" fill="#26345A"/><path d="M21.695 89.07c2.025.042 4.16.241 5.327 2.094.915 1.477 1.115 3.267 1.815 4.843a6.44 6.44 0 001.54 2.126 6.414 6.414 0 011.846 2.617c.293.957.487 1.941.579 2.937.163 1.299.32 2.618.484 3.895.036.299 1.577 0 1.525-.408a384.305 384.305 0 00-.526-4.094 12.602 12.602 0 00-.642-2.979 6.75 6.75 0 00-1.803-2.46 6.512 6.512 0 01-1.657-2.503c-.61-1.613-.852-3.434-1.94-4.827-1.326-1.686-3.545-1.827-5.538-1.869a1.793 1.793 0 00-1.052.288c-.2.162-.247.33.09.34h-.048zm26.448 11.805c1.246-1.13 3.276-.523 4.638.042 1.736.744 3.382 1.786 5.301 1.964 2.051.193 3.997-.587 5.822-1.409 2.009-.905 4.012-1.822 6.016-2.733.273-.125.584-.45.368-.754-.215-.303-.747-.225-1.052-.094-2.103.943-4.154 1.9-6.237 2.833-.966.475-1.99.827-3.045 1.047a6 6 0 01-3.118-.388c-1.767-.67-3.35-1.733-5.26-2.094a5.472 5.472 0 00-4.732 1.157.41.41 0 00-.004.596.42.42 0 00.193.106 1.1 1.1 0 001.078-.283l.032.01zm15.603 4.754l-.037-.052.063.115a.427.427 0 01-.047-.178v.131a.58.58 0 01.031-.189l-.047.131a.64.64 0 01.09-.167l-.095.125a.553.553 0 01.105-.11l-.137.116a.785.785 0 01.084-.063l-.168.099.079-.036-.2.068h.069l-.206.036h.074-.116l-.173-.031h.037a1.092 1.092 0 00.857-.121.66.66 0 00.22-.162.423.423 0 00.137-.388.452.452 0 00-.315-.272 1.458 1.458 0 00-.479-.047h-.063a2.253 2.253 0 00-.258.047 1.622 1.622 0 00-.389.168.537.537 0 00-.405.324c-.058.073-.11.15-.157.231a.939.939 0 00-.105.372.872.872 0 000 .262.404.404 0 000 .073c.028.059.06.117.094.173.047.055.11.097.179.12.076.041.16.063.247.063.1.016.2.016.3 0 .103-.016.204-.046.3-.089l.173-.1a.71.71 0 00.226-.24l.048-.131a.327.327 0 00-.069-.252l.053-.026zM58.37 25.235c.32.222.612.478.874.764.29.288.61.546.952.77a6.237 6.237 0 002.387.916 1.416 1.416 0 001.078-.283c.237-.204.184-.45-.131-.523a5.073 5.073 0 01-2.104-.827c-.662-.461-1.157-1.116-1.85-1.57a.95.95 0 00-.527-.043c-.202.025-.397.09-.573.194-.226.141-.442.372-.147.555l.042.047zm2.178-1.973c.674.523 1.347 1.047 2.025 1.57.603.56 1.386.889 2.209.927a1.23 1.23 0 001.004-.419c.184-.293-.157-.476-.42-.466a1.292 1.292 0 01-.248 0c.132 0-.11-.031-.131-.037h-.037l-.115-.041-.227-.11a5.582 5.582 0 01-.773-.524l-1.872-1.471a1.02 1.02 0 00-1.015 0c-.147.068-.684.403-.4.628v-.057zM54.98 41.24a.941.941 0 00.399.639c.156.107.337.176.526.199.287.036.578.015.857-.063a1.581 1.581 0 001.094-.822.84.84 0 00-.148-.833.619.619 0 00-.142-.12 1 1 0 00-.252-.142 1.622 1.622 0 00-.836-.052 1.748 1.748 0 00-.579.188c-.089.052-.273.173-.294.299-.053.314.458.314.647.277h.068-.19.095-.168a.533.533 0 01.126 0l-.152-.026a.627.627 0 01.184.079l-.1-.063a.619.619 0 01.21.21l-.052-.085a.627.627 0 01.09.351v-.1a.693.693 0 01-.08.294l.053-.1a.6.6 0 01-.1.137l.1-.105-.095.084.137-.094a.277.277 0 01-.079.041l.174-.083-.084.036.2-.068-.085.026.205-.041h-.09.19-.11.168a.533.533 0 01-.126 0l.142.036a.6.6 0 01-.19-.078l.1.057a.792.792 0 01-.247-.246l.053.084a.814.814 0 01-.116-.31c0-.114-.2-.167-.284-.182a1.383 1.383 0 00-.568.041 1.288 1.288 0 00-.526.247.335.335 0 00-.157.298l.031-.01z" fill="#26345A"/><path d="M58.797 40.46a2.28 2.28 0 00-1.682.952 1.044 1.044 0 00.105 1.257c.526.566 1.472.377 2.045 0a2.22 2.22 0 00.647-.623 1.97 1.97 0 00.326-.686.928.928 0 00-.2-.838 1.295 1.295 0 00-1.277-.251 1.207 1.207 0 00-.526.267c-.08.078-.19.225-.148.35.116.315.62.278.873.205.074 0 .032 0-.131.026s-.19 0-.132 0c.058 0-.194-.042-.063 0l-.142-.052a.531.531 0 01.137.068l-.105-.079c.071.054.13.121.173.2l-.036-.095a.6.6 0 01.073.267v-.115c.001.16-.033.32-.1.466l.053-.12c-.073.165-.169.32-.284.46l.095-.115c-.05.06-.105.116-.163.168l-.043.037s.142-.1.069-.053c-.074.047-.174.1-.037 0 .137-.1.053-.031.026 0-.026.032.2-.063.121-.042-.079.021.216-.036.08 0-.138.037.183 0 .11 0-.074 0-.1 0 0 0h-.043l.142.047a.683.683 0 01-.163-.084l.106.08a.828.828 0 01-.195-.231l.058.104a.882.882 0 01-.095-.366v.12c0-.113.021-.225.063-.33l-.052.12c.038-.08.085-.155.142-.224l-.095.115c.042-.047.09-.084.132-.126l-.074.053h.047s.142-.084 0 0c-.142.083 0 0 0 0 .148-.063-.157.047-.084.026h.09c.12-.032-.242.036-.074 0 .205-.023.403-.091.578-.2.1-.062.269-.198.284-.335.037-.345-.426-.398-.667-.366l.036-.058z" fill="#26345A"/><path d="M61.29 41.287a1.764 1.764 0 00-1.383.047c-.322.132-.594.36-.778.655a1.896 1.896 0 00-.227.806 1.13 1.13 0 00.121.828 1.271 1.271 0 00.942.298 2.5 2.5 0 001.293-.246 1.47 1.47 0 00.674-.639c.102-.211.16-.441.168-.675v-.425a1.76 1.76 0 00-.047-.403c-.158-.524-.816-.623-1.278-.471a1.28 1.28 0 00-.526.262c-.074.073-.19.22-.148.34.11.304.632.272.868.194a.77.77 0 01-.29 0 .391.391 0 01-.23-.037l.078.042-.105-.073a.474.474 0 01.095.11l-.053-.1c.082.2.114.418.095.634v-.11c.01.257-.03.513-.121.754l.047-.115a.678.678 0 01-.073.136s-.037.063-.048.063c-.01 0 .116-.126 0-.042-.115.084.153-.094.058-.037-.094.058-.115.063 0 0 .116-.063.074-.042 0 0 .142-.047.184-.063.121-.047-.152.037.169 0 .08 0h-.317c-.105 0 .169.032.053 0 0 0-.11-.031 0 0 .11.032 0 0-.031 0l.1.079a.39.39 0 01-.095-.11l.058.1a.586.586 0 01-.048-.231v.11a2.445 2.445 0 01.137-.933l-.047.116a1.39 1.39 0 01.126-.21l-.042.047.042-.036c.079-.079-.158.11 0 0s-.195.1-.042.026c-.158.052-.2.063-.121.042-.163.031-.205.036-.126 0h-.206c.132.052-.105-.047 0 0 .167.069.349.09.526.063.205-.024.403-.092.579-.2.11-.073.268-.183.284-.33a.26.26 0 00-.158-.287l-.005.005zm-.657-24.595a7.036 7.036 0 002.513.57c.206.018.413-.018.6-.104a.793.793 0 00.394-.357.412.412 0 00-.031-.418.638.638 0 00-.432-.215 5.745 5.745 0 01-.604-.047l-.295-.047-.126-.027h-.084.068a6.555 6.555 0 01-1.12-.377 1.055 1.055 0 00-.578 0 1.01 1.01 0 00-.526.293.477.477 0 00-.127.425.524.524 0 00.321.309l.026-.005zM67.3 15.9a4.061 4.061 0 003.456-1.214.22.22 0 000-.294.57.57 0 00-.405-.12 1.404 1.404 0 00-1.01.403v-.026l-.052.047a.585.585 0 01-.106.094l-.105.09s-.042.041-.058.041c-.015 0 .132-.083.053-.036l-.12.073a.959.959 0 00-.127.068l.079-.037-.063.026-.147.063c-.153.053.184-.057.031 0l-.137.037c-.157.037.19-.031.032 0h-.426a1.478 1.478 0 00-.568.037c-.192.043-.372.13-.526.251-.079.068-.2.189-.158.309a.346.346 0 00.29.194l.068-.005zm2.299 4.745a6.866 6.866 0 002.587-.173c.2-.045.383-.147.526-.294a.476.476 0 00.126-.419c-.12-.356-.594-.387-.899-.303l-.263.063-.142.026c-.142.031.195-.032.042 0-.152.031-.342.042-.526.057h-.363a4.653 4.653 0 01-.525-.047 1.155 1.155 0 00-.605.11.82.82 0 00-.39.351.392.392 0 000 .414.653.653 0 00.432.21v.005zm-1.841 10.968a1.344 1.344 0 00.883 1.047c.34.108.702.13 1.052.063a2.787 2.787 0 001.252-.524c.063-.047.194-.152.168-.262-.026-.11-.2-.136-.279-.141-.19-.013-.38.008-.563.063a1.419 1.419 0 00-.525.225l-.058.042c-.1.068.058-.032.058-.032l-.063.032.084-.037.12-.042c-.031 0-.136.037 0 0 .137-.036.053 0 0 0h.095-.073.084-.037a.821.821 0 01-.263-.089l.095.047a1.225 1.225 0 01-.442-.393l.047.069a1.222 1.222 0 01-.19-.524c0-.105-.21-.136-.273-.142a1.59 1.59 0 00-.562.058 1.523 1.523 0 00-.526.23c-.084.063-.184.142-.168.262l.084.047zm-26.163-.158c.17.052.348.075.526.068a2.617 2.617 0 001.404-.419c.183-.123.345-.275.479-.45a.25.25 0 000-.32.607.607 0 00-.416-.141 1.394 1.394 0 00-.6.115c-.158.066-.297.17-.404.304l-.058.068.1-.11a1.572 1.572 0 01-.168.152l.136-.105a.873.873 0 01-.147.095l.168-.09a.91.91 0 01-.163.074l.2-.068-.152.042.205-.042a.986.986 0 01-.174 0h.195a1.07 1.07 0 01-.179 0h.174a1.159 1.159 0 01-.195-.037.73.73 0 00-.263 0c-.103 0-.206.015-.305.042-.194.041-.374.13-.526.257-.084.083-.2.209-.153.34a.4.4 0 00.3.215l.016.01zM24.246 93.294a.205.205 0 01.042-.052c.047-.052.026-.031-.063.058l.047-.037c.063-.047.032 0-.09.052.032 0 .169-.073 0 0-.168.074 0 0 0 0 .122-.036-.236 0-.047 0 .084 0 .19.037-.037 0h.169-.084l.22.09c-.178-.064-.068-.037 0 0l.106.083c.094.079-.074-.094 0 0l.1.12c.06.085.112.174.157.267l-.068-.136c.153.343.242.71.263 1.084v-.152c.01.105.01.21 0 .314a.986.986 0 010 .131c0 .068 0 .058 0 0l-.026.063c-.063.147.073-.089 0 0-.074.09.131-.1 0 0l.068-.042.131-.047h.184a1.056 1.056 0 00-.599.1.823.823 0 00-.39.377c-.136.36.132.617.48.675a1.478 1.478 0 001.63-1.01 2.846 2.846 0 00-.053-1.362 2.365 2.365 0 00-.657-1.183 1.808 1.808 0 00-1.12-.476 1.934 1.934 0 00-1.652.56.523.523 0 00-.115.45.524.524 0 00.326.325 1.014 1.014 0 001.051-.283l.027.031zm2.76 8.776s-.126.057-.052.026l.1-.047.152-.068a.503.503 0 01.179-.068s-.158.047-.068 0a.777.777 0 01.105-.032c.062-.012.123-.028.184-.047h-.074.08a.37.37 0 01.104 0h-.058.169a.209.209 0 01.079 0c.031 0 .184.047.084 0 .11.038.217.089.315.152-.068-.042 0 0 .037.031l.105.1c.067.074.129.152.184.235.027.037 0 0 0 0l.037.079c.02.037.038.075.053.115a1.824 1.824 0 01.12.565v.257a1.534 1.534 0 01-.115.393c0 .052 0 0 0 0l-.058.099a2.685 2.685 0 01-.179.251c.063-.078 0 0-.031.027a1.067 1.067 0 01-.142.12s-.079.058 0 0l-.047.031c-.027 0-.18.1-.08.048.1-.053 0 0 0 0l-.11.047c-.168.068.121-.032 0 0-.12.031-.126 0-.184.047-.058.047.174-.032.09 0h-.353a1.187 1.187 0 00-1.004.413c-.2.309.173.43.41.451 1.273.089 2.892-.582 3.276-1.896a1.969 1.969 0 00-.163-1.465 1.855 1.855 0 00-1.43-.953 4.476 4.476 0 00-2.63.591c-.21.11-.447.451-.131.597a1.295 1.295 0 001.052-.141l-.006.042zm25.08 2.967c.021-.208.101-.406.232-.571a.928.928 0 01.179-.172l.073-.053c.1-.078-.1.042 0 0h-.052a.97.97 0 01-.237.063h-.089.052l.174.031c.19.057.37.15.526.273.836.602.972 1.743.746 2.68-.057.241.484.131.6.11.2-.034.394-.093.578-.178.09-.037.295-.115.321-.215a2.766 2.766 0 00-.563-2.69 1.932 1.932 0 00-1.136-.55 3.53 3.53 0 00-2.103.481 1.58 1.58 0 00-.836 1.189c0 .084.247.089.263.089a2.15 2.15 0 00.552-.084 2.08 2.08 0 00.526-.204c.079-.052.173-.105.184-.204l.01.005zM45.55 34.78a9.9 9.9 0 004.628 1.45 1.156 1.156 0 001-.43c.189-.314-.158-.481-.427-.523a8.63 8.63 0 01-3.997-1.273 1.134 1.134 0 00-1.083.131c-.231.157-.436.45-.12.64v.004zm1.304-3.382l4.733 1.047a1.373 1.373 0 001.052-.288c.252-.21.173-.419-.132-.487l-4.701-1.047a1.389 1.389 0 00-1.078.288c-.247.21-.168.419.131.492l-.005-.005z" fill="#26345A"/></svg>