<svg width="40" height="40" viewBox="0 0 40 40" fill="none" xmlns="http://www.w3.org/2000/svg" preserveAspectRatio="none"><rect width="40" height="40" rx="20" fill="#D93025"/><path opacity=".3" d="M31.25 10.834H8.752l.833 18.124h20.832l.833-18.124z" fill="#fff"/><path opacity=".3" d="M31.25 10.834H8.752l10.364 7.733h1.927l10.207-7.733z" fill="#fff"/><path opacity=".1" d="M10.625 28.958L20 20.52l9.375 8.438h-18.75z" fill="#fff"/><path fill-rule="evenodd" clip-rule="evenodd" d="M10.627 12.396a1.562 1.562 0 10-3.125 0v14.687c0 1.036.84 1.875 1.875 1.875h1.25V12.396zm18.748 0c0-.862.7-1.562 1.562-1.562h.003c.862 0 1.56.699 1.56 1.56v14.689a1.874 1.874 0 01-1.875 1.875h-1.25V12.396z" fill="#fff"/><path fill-rule="evenodd" clip-rule="evenodd" d="M8.28 13.749a1.562 1.562 0 01-.57-2.131v-.003a1.565 1.565 0 012.134-.571L20 16.907l10.158-5.864a1.555 1.555 0 012.131.57l.001.002a1.561 1.561 0 01-.572 2.135l-8.593 4.96L20 20.517l-3.125-1.805-8.594-4.962z" fill="#fff"/></svg>