<svg width="1440" height="750" viewBox="0 0 1440 750" fill="none" xmlns="http://www.w3.org/2000/svg" preserveAspectRatio="none"><mask id="a" maskUnits="userSpaceOnUse" x="0" y="0" width="1440" height="750"><path fill="#EDEDED" d="M0 0h1440v750H0z"/></mask><g mask="url(#a)"><path fill="#C4C4C4" d="M0 0h1440v810.352H0z"/><g clip-path="url(#clip0)"><path d="M1440 0H0v880h1440V0z" fill="#FBF4F2"/><path d="M991.372 526.811c96.968 0 175.578-78.565 175.578-175.48 0-96.915-78.61-175.479-175.578-175.479-96.972 0-175.583 78.564-175.583 175.479 0 96.915 78.611 175.48 175.583 175.48z" fill="#fff" fill-opacity=".5"/><path d="M1845.94 375.433L532.958 606.812 720.094 1667.49l1312.986-231.38-187.14-1060.677z" fill="#fff"/><path fill-rule="evenodd" clip-rule="evenodd" d="M1169.73 660.767c-.09-28.555-.64-57.12-1.6-85.658-.72-21.152-1.63-42.319-3.41-63.411-.7-8.356-1.52-16.719-2.81-25.009-.79-5.132-1.53-10.724-3.69-15.503-.71-1.564-1.4-2.581-2.91-3.381-5.58-2.96-13.24-3.395-19.39-4.02-10.1-1.024-20.31-1.319-30.45-1.111.59 10.898 1.18 21.796 1.78 32.693.46 8.393.91 16.786 1.37 25.179.29 5.297.99 10.746.88 16.052-.09 4.322-5.18 8.459-7.77 11.834-3.17-9.695-6.34-19.39-9.52-29.085-1.68 4.327-3.47 8.617-5.42 12.827-1.29 2.777-2.6 5.636-4.3 8.189-1.56 2.332-2.02 2.661-4.73 2.263-3.26-.478-5.74-1.445-7.67.977-1.71 2.148-3.3 4.338-5.15 6.376-20.48 22.502-52.05 36.476-81.291 42.798-17.225 3.723-34.602 6.746-51.82 10.542-26.289 5.796-53.292 11.511-78.401 21.419-3.935 1.552-7.912 3.22-11.503 5.479-3.958 2.491-6.786 6.259-9.525 9.99-6.693 9.117-14.54 24.069-4.217 33.584 7.915 7.295 20.28 8.027 30.562 8.848 10.627.849 21.292 1.263 31.946 1.609 29.019.942 58.066 1.146 87.099 1.173 26.53.021 53.06-.129 79.58-.636 12.03-.23 23.62.049 35.27-3.035 23.82-6.311 47.58-12.882 71.35-19.407 1.91-.525 3.83-1.05 5.74-1.576z" fill="#85A090"/><path fill-rule="evenodd" clip-rule="evenodd" d="M927.595 411.207c1.113 1.156-.691 2.046-1.503 2.298.131-1.115.669-1.619 1.503-2.298zm152.575 217.23c.43-1.011 1.07-1.843 2.24-1.365 1.94.788-1.98 1.354-2.24 1.365zM911.931 465.568c-.8.099-4.071-.106-3.06-1.884 1.172-2.061 2.784 1.245 3.06 1.884zm58.663-18.233c-1.72-1.472-3.261-3.724-3.279-6.063 1.621 1.075 2.487 4.401 3.279 6.063zm-41.24-29.566c-1.433.072-.122-1.942-.136-2.344-.029-.861-.836-1.6-.705-2.621.005-.042 1.449-3.271 1.83-3.476 1.071-.577 1.694.48 2.656.807 1.424.484 2.119.057 3.648.206 1.348.131 2.483.786 3.892.785.334 0 .704-.708 1.088-.669.599.061.656.824 1.08.862 1.488.132 1.575-.458 2.963-1.013 2.307-.922 3.926 1.223 3.874 3.759-.068 3.358-3.575 4.731-6.262 5.503-3.466.994-5.391 1.594-8.912.967-1.019-.182-2.053.142-2.857-.559-1.08-.943-.507-2.933-1.74-3.853l-.419 1.646zM1051.28 551.39c-.29 2.194.31 3.324-1.82 4.795-1.26.869-2.84 1.44-4.17 2.31-1.93 1.26-4.82 2.07-6.54 3.52-1.08.92-1.28 3.525-2.78 3.84-1.29.268-2.81-2.047-3.25-3.09-.49-1.155-.17-2.106-.36-3.259-.14-.774-.72-.935-.62-1.844.11-.954 1.04-1.458 1.44-2.215.36-.679.47-1.641.75-2.176.67-1.261 2.15-3.938 3.46-4.772 1.11 2.911 1.96-.039 3.5-.894.57-.015 1.14-.021 1.72-.014.3-.284.6-.561.91-.833.71-.066 1.88.313 2.52.511.35-.081.71-.128 1.07-.141.48.14.67.407.57.801-.21-.096.95.607 1.06.682 2.29 1.553 4.39 2.173 4.81 5.478-.76-.899-1.51-1.8-2.27-2.699zm-17.85-117.984c2.44-6.336 1.67-11.918 1.43-18.55-.06-1.557-.39-4.897 1.24-5.93 2.03-1.289 3.73 1.626 4.79 2.832 1.82 2.07 4.36 3.97 5.3 6.657.82 2.37-.03 5.278-.66 7.626-.68 2.531-1.51 5.933-3.82 7.334-2.46 1.497-5.8 1.35-8.28.031zm-86.277 134.749c.353-4.856 7.114-3.155 10.155-1.657 2.273 1.119 3.546 2.827 4.978 4.857 1.625 2.304 2.158 2.948 2.028 5.688-.119 2.5.021 5.014-.606 7.501-.318 1.262-.389 1.485-1.228 2.354.002-.002-1.453 1.446-1.048 1.214-1.876 1.07-4.674 1.249-6.878 1.415-3.15.236-3.908.279-5.186-2.711l-.737 1.561c-.079-.368-.954-4.736-.752-4.694.353.076.732 1.093.905 1.351-.109-2.012-1.543-3.516-2.238-5.311-.64-1.649-.902-3.518-1.395-5.224-.477-1.652-1.012-3.95-.55-5.664.614-2.277.807-1.629 2.552-.68zm-40.822-107.048c-1.099 1.034-.12 2.706-.263 3.987-1.493-.915-.975-1.404-1.554-2.892-.372-.958-1.47-2.792-2.428-1.221-.403.66.93 1.566.027 1.954-.53.228-1.942-1.546-2.2-1.825-1.78-1.925-2.918-3.892-3.065-6.517-.041-.718-.03-2.51.225-2.923.74-1.191 2.707-.486 2.538-2.663l-2.349 1.167c-.244-2.448 2.401-3.897 3.507-5.839 1.259-2.214 2.077-3.824 4.129-5.728.947-.88 2.488-2.691 3.718-3.114.956-.329 1.344.157 2.309.166 2.017.019 5.048-.526 2.045 1.709.61.286 1.412.464 1.932.915.386.334.53 1.287.982 1.516.975.492 1.705-.468 2.806.625 1.159 1.152-.028 1.878.231 2.385.742 1.46 1.764.734 1.731 2.96-.055 3.669-2.17 8.012-3.308 11.441-.67 2.015-1.418 5.166-4.24 4.34.107.97.353 1.91-.278 2.776-.589-.693-.8-2.212-1.197-3.026-.585-1.197-1.538-2.354-2.211-3.519.099 1.841.299 2.353 1.551 3.746-1.648.202-3.678 1.522-4.638-.42zm120.579 53.323c-1.51-1.144.47-2.419-2.51-1.771-.76.166.01 1.055-1.14 1.087-.44.012-1.5-1.053-1.8-1.304-.28-.229-1.51-1.893-1.71-2 .33.178-1.5-.531-.93-.07-1.09-.878-1.92-2.322-2.41-4.077-1.2-4.303-1.03-9.444 1.46-13.139 1.05-1.55 1.88-3.44 3.46-4.48 2.14-1.41 5.67-2.249 8.05-3.144l-.77-1.877c6.55 2.958 11.07 9.864 11.63 16.88.19 2.524.91 5.73-.63 7.967-1.6 2.336-5.65 4.791-7.89 2.196.34 1.446-.65 3.175-2.18 3.547-.58.14-1.13-.28-1.38-.242-.33.046-1.02.473-1.25.427zm60.15-146.49c4.4-.524 3.72 7.42 2.89 9.806-.66 1.925-3.05 4.603-4.31 6.279-1.5 1.997-3.51 3.488-5.65 4.762-.73.437-1.26.576-1.89.82-.23-.222-.5-.338-.81-.348-.27.458-.66.801-1.17 1.028-1.6.498-4.25.422-5.84.355-2.56-.108-5.56-1.582-8.11-2.074-1.19-.229-1.85-.322-2.91-.941-.53-.311-1.57-2.711-1.72-.354-.66-.404-.45-1.069-.93-1.365-.46-.283-1.92-.555-2.47-1.177-.76-.867-1.78-2.846-2.31-4.031-.34-.76-1.06-2.72-1.01-3.511.13-1.677.67-1.291 2.1-1.985.96-.464 1.51-.853 2.47-1.109.11-.03.38.541.56.492.33-.085.46-.463.69-.537 1.75-.566 3.82-2.246 5.98-2.083.94.07 1.81 1.491 2.29 1.419.74-.112.37-1.624.88-2.173 1.32-1.396 5.69-1.17 7.39-1.412 4.63-.658 9.25-1.271 13.88-1.861zM932.831 488.688c-.422-3.296-.941-6.569 2.677-8.192 1.358-.608 2.488-.388 3.881-.553 1.809-.215 1.546-.994 2.888.946.743-.953.25-1.262 1.465-1.375.502-.047 2.691 1.376 3.26 1.609 2.375.97 5.399.88 7.191 2.838 1.741 1.903 3.149 3.732 3.883 6.327.37 1.308.613 2.662 1.071 3.946.494 1.388 1.607 2.584 1.987 3.973 1.551 5.651-5.039 10.809-9.668 12.308a3.26 3.26 0 00-1.754.115c-.404.266-.766.58-1.087.942-1.456.456-1.802.306-3.284-.362-2.444-1.1-5.298-1.475-7.147 1.099-.571-2.995-2.653-1.213-3.654-3.142-.553-1.064.655-4.012-.045-4.779-1.189-1.303-4.896 1.013-4.8-2.029.035-1.108 1.296-1.475 1.733-2.351.785-1.572.349-3.237-.741-4.619-.102.239-.497 1.805-1.02 1.391-1.386-1.102.893-2.836 1.39-3.437.82-.991 1.566-1.747 1.383-3.13-.113-.857-1.49-1.749-1.441-2.583.038-.635 1.74.984 1.832 1.058zm64.385 35.584c-.094 2.31 1.384 2.612 2.357 4.201.265.433.282 1.47.657 2.105.69 1.19 1.17 1.263 1.39 2.423-.03-.13-.37 1.148-.38 1.294-.09 1.63 1.04 2.934.73 4.727-.44 2.523-2.36 5.332-3.713 7.431-3.059 4.743-7.335 8.419-13.193 8.755-3.912.224-13.117-1.339-13.956-5.424.221-.474.408-.962.561-1.464.09-.726-.179-1.222-.808-1.487a1.893 1.893 0 01-1.133-.804 2.77 2.77 0 01.653-1.096c-.109-.547-1.031-.574-1.017-.927.028-.656.606-2.302.761-3.05.269-1.293.416-2.525.652-3.827.191-1.053.838-1.573 1.004-2.539.114-.658-.556-1.256-.499-1.954a4.848 4.848 0 001.073-1.379 2.479 2.479 0 00-.403-1.518c.657-4.595 7.166-8.454 11.796-8.56 2.488-.057 6.735-.235 8.972 1.063 1.495.867 2.498 3.944 4.496 2.03zm99.854 161.957c3.27-1.472 6.2-3.041 9.7-3.756 2.53-.517 4.7-1.935 7.24-2.398 5.63-1.024 11.71-1.97 17.1-3.941 5.79-2.114 12.09-2.871 18.02-4.628 2.92-.865 5.47-1.433 8.49-1.6 2.95-.162 5.97-1.802 8.91-1.525 2.46.232 4.21 2.119 6.14 3.464 2.49 1.743 5.21 3.247 7.89 4.687 2.85 1.529 6.02 2.295 8.83 3.786 2.33 1.237 4.62 2.445 7.02 3.579 12.77 6.028 25.1 11.659 36.62 20.046-3.71 1.129-7.94.003-11.63-.394-5.25-.567-10.47-.992-15.67-1.963-3.03-.567-8.97-2.733-11.87-1.068-2.55 1.462-2.35 5.215-2.72 7.726-2.41-.928-4.8-1.88-7.23-2.751-1.91-.686-5.01-2.57-6.96-2.636-5.42-.183-4.83 7.417-4.3 10.905-3.17-1.075-6.18-1.825-9.25-3.156-2.46-1.068-5.18-1.304-7.57-2.576-5.94-3.163-12.53-5.146-18.89-7.391-7.18-2.534-14.34-5.115-21.46-7.818-2.92-1.111-5.81-2.578-8.8-3.479-3.22-.971-6.52-1.701-9.61-3.113zm-70.81-289.803c.46 4.275-.01 8.586-.14 12.866-.16 5.012-.16 9.97-.81 14.952-1.17 8.988-2.82 17.978-6.05 26.482-2.93 7.746-7.88 13.223-16.26 14.897-7.531 1.504-14.871-1.075-19.663-7.086-4.972-6.232-6.499-14.104-9.41-21.328-1.423-3.532-2.477-7.083-3.665-10.698-.712-2.164-4.241-8.379-3.231-10.603.985-2.172 6.803-2.914 8.817-4.121 3.199-1.918 6.158-5.764 8.6-8.574 1.636-1.883 2.591-3.275 3.695-.288 1.326 3.59.365 7.737 1.603 11.219 1.218 3.424 3.876.046 4.149-2.185.524-4.285-.106-9.153-.309-13.459-.378-8.026-.905-17.308-8.15-22.257-6.866-4.689-14.319-6.149-18.131-14.245-1.528-3.246-3.325-6.647-2.37-10.279 1.103-4.191 2.737-8.574 4.343-12.603 3.086-7.736 7.92-14.471 12.145-21.574.571-.958.691-2.186 1.938-2.457 1.41-.306 4.701 2.09 6.069 2.476 3.723 1.052 7.05-1.13 10.335 1.339 2.635 1.983 4.875 4.835 8.425 5.042 1.53.09 3.61-1.276 4.93-.95 1.68.415 2.17 2.921 2.82 4.329 1.48 3.231 3.14 7.279 5.6 9.919.83.897 2.3 1.174 3.02 2.008.82.969.36 2.937 1.55 3.114.69.102 1.24-.83 1.81-1.052.99-.378 1.95-.45 3-.42 1.95.057 3.97.527 5.68 1.458 3.98 2.163 5.45 5.453.67 7.432-1.92.794-4 1.384-6.07 1.568-2.28.202-4.58-.507-6.83-.23-4.34.533-5.67 4.157-6.79 7.881-1.55 5.123-2.8 10.31-4.53 15.379-1.42 4.141-3.99 8.351-4.73 12.677-.46 2.658.14 2.46 1.92 4.103 1.35 1.251 2.16 2.894 3.63 4.149 4.08 3.5 7.65 2.567 12.39 1.119zM762.473 645.239c.125-.913 19.496.833 21.697.606 3.76-.386 7.764.642 11.651.511 3.437-.117 8.394-1.451 11.232.216 1.052.618 1.078 1.347 2.738 1.033 1.543-.293 3.169-1.382 4.324-2.392 3.215-2.811 5.18-7.232 7.283-10.876 4.208-7.293 7.812-14.85 11.305-22.52 7.195-15.798 14.118-31.685 21.305-47.486 3.555-7.816 6.983-15.645 10.817-23.316 1.636-3.274 3.433-6.865 4.692-10.295 1.373-3.74 3.178-7.251 4.409-11.085 2.608-8.121 5.726-16.12 7.723-24.471.506-2.115.693-4.329 1.303-6.413.65-2.226 1.978-4.129 2.81-6.284.849-2.196.851-4.156 1.273-6.4.422-2.237 1.45-4.417 2.191-6.56 3.815 2.298 8.159 4.389 11.669 7.12 3.453 2.687 8.492 4.938 7.046 9.796-1.314 4.418-3.642 8.481-5.027 12.893-1.553 4.951-3.462 9.79-4.961 14.752-3.218 10.652-6.035 21.43-8.917 32.178-1.353 5.049-3.045 10.109-4.037 15.245-.517 2.672-.432 5.061-1.405 7.649-.95 2.53-1.85 5.004-2.631 7.595-1.389 4.61-2.715 9.23-4.251 13.792-.832 2.47-1.497 4.966-2.088 7.503-.358 1.533-1.576 4.482-1.234 6.069.984 4.57 7.036-.086 8.484-1.952 3.36-4.327 5.77-9.62 8.286-14.466 10.103-19.454 15.071-40.438 20.281-61.616 1.369-5.568 2.691-11.085 4.23-16.595 1.613-5.774 2.082-11.81 3.986-17.551 1.966-5.932 3.973-11.649 5.417-17.752.668-2.826 1.375-5.65 1.968-8.492.316-1.517.33-4.308 2.353-4.611-1.303 9.523-1.784 20.679-5.583 29.61-3.444 8.101-6.181 19.198-2.699 27.798 1.674 4.136 4.322 7.668 6.314 11.608 2.227 4.405 3.678 9.462 5.17 14.156 3.091 9.72 4.003 19.942 6.071 29.885 1.084 5.211 1.105 8.775.164 13.903-.302 1.651.232 2.963-1.16 4.022-1.4 1.065-4.639 1.28-6.369 1.891-5.253 1.854-9.769 3.215-15.331 3.823-5.255.575-10.189 1.618-15.193 3.337-9.019 3.098-18.396 5.413-27.258 8.518-4.847 1.699-9.521 4.726-14.181 6.896-4.847 2.259-9.988 3.734-14.557 6.553-4.922 3.035-9.79 6.56-14.454 9.963-4.32 3.151-6.391 7.069-8.19 11.974-3.419 9.325-12.039 21.426-4.077 30.835-2.791 1.211-5.986 1.693-8.661 2.988-.923.448-1.198.885-2.248 1.142-1.373.336-3.14.067-4.545.159-2.034.132-6.319 1.593-8.302 1.003-1.854-.553-1.935-3.239-3.266-4.564-1.975-1.965-3.87-.698-6.285-.917-3.578-.324-7.143-.793-10.723-1.105-7.224-.629-14.428-.777-21.676-.76 3.773-4.183 17.649 3.43 17.99-4.147.394-8.768-10.319-6.138-15.527-8.667 4.734.139 9.467.185 14.192.559 2.867.228 8.378 1.599 10-1.548 1.742-3.384-1.061-7.297-3.687-9.064-3.633-2.445-7.832-4.004-11.851-5.676zM1157.29 528.33c.86 1.729-.48 2.425-1.09 3.819-.84 1.926-.01 1.543.16 3.355.11 1.216-.22 1.789-.15 2.927.03.484.72 1.128.8 1.679.14.989-.39 1.444-.33 2.162.02.357-.44.42-.34.937.08.45 1.12.767 1.18 1.05.35 1.643-.64.821-.79 1.6-.25 1.299.48 1.522.9 2.718.72 2.061.02 3.022-.42 4.955-.38 1.63.18 1.641.39 3.198.13.944-.14 1.059-.14 1.937.02 3.033.7 6.186.72 9.399.07 7.604.72 15.097.81 22.683.1 7.453.64 15 .97 22.547.16 3.679.53 7.346.69 11.027.19 4.273-.23 8.526.13 12.783.33 3.87.13 7.752.29 11.632.08 1.841 1.03 7.411-.18 8.649-1.58 1.607-7.95-.104-10.01.009-3.87.211-7.95.99-11.75 1.789-8.99 1.892-18.01 4.301-27 5.999-7.5 1.415-14.54 5.014-21.53 8.061.64-6.408 1.77-12.659 1.98-19.117.19-5.804-.36-11.579-.23-17.376.28-12.37.98-24.602.7-36.969-.28-12.577-1.3-25.418-3.05-37.875-.8-5.723-1.43-11.821-3.48-17.259-.93-2.464-2.44-4.27-1.82-6.981.68-2.935 2.03-6.004 3.02-8.85.73 4.636 3.31 35.53 13.88 26.243 4.13-3.626 6.04-11.483 6.97-16.631 1.24-6.959.8-14.273.76-21.316-.06-14.348-1.64-28.986-3.09-43.255-.29-2.85-1.73-5.399 1.93-5.263 3.43.129 6.96.941 10.37 1.341 2.96.346 5.92-.496 8.74-.12 1.29.173 2.43.937 3.73 1.13 1.65.244 3.36-.113 5.02-.111 2.79.003 6.02-.011 8.34 1.723 2.43 1.821 4.52 4.835 5.34 7.749.81 2.915.59 6.195 1.11 9.107.44 2.454.53 5.482.94 8.269 1.76-2.21 1.65.979 1.67 1.922.02 1.139 1.25 3.443.93 4.111-.2.43-1.58.203-1.69.54-.24.696.59.99.6 1.51.06 2.027-.06 4.122-.05 6.166.48-.365.96-.731 1.43-1.097.26.547.34 1.26.58 1.813.1.252 1.12.182 1.16.677.07.646-1.35 1.89-1.62 2.596-.49 1.261-.8.763.03 2.122.95 1.566 2.51 1.653 2.26 3.928-.5-.386-.94-.836-1.32-1.349-.24 1.358.35 2.555.43 3.908.04.884-1.03 4.413-.22 5.004.34.248 1.25-1.11 1.34-1.205zm-71.35-111.344c-.01-2.979 4.34-7.561 5.84-10.054 2.39-3.977 4.96-7.578 8-11.093 3.05-3.532 6.3-6.898 9.26-10.507 1.22-1.492 2.13-3.235 3.38-4.696 1.56-1.825 1.89-1.264 3.82-1.216 1.47.038 2.43-.212 3.79.224.72.231 1.19.575 1.96.788.49.134 1.13-.336 1.78-.109 1.61.56 2.15 1.994 4.1 1.964.23-.003.98-.555 1.08-.524.14.038.74.498.72.494.13.029.09.942.44 1.1.58.272 1-.638 1.54-.579 1.36.149 2.37 1.548 3.87 1.887 1.92.435 3.59-.2 5.43.696 1.48.716 2.22 2.344 3.44.661 1.11 2.35 3.15 1.638 5.19 2.629 2.84 1.381 5.92 2.081 8.95 3.124 6.22 2.146 12.49 4.345 18.56 6.928 12.59 5.359 24.78 11.301 37.08 17.062 12.04 5.634 23.17 13.105 34 20.626 5.31 3.687 10.59 7.56 14.74 12.609 1.25 1.529 3.35 3.905 2.5 6.057-.89 2.276-4.68 3.689-6.82 4.126-2.8.573-5.88.765-8.74.956-3.08.206-6.39.308-9.45.267-6.01-.083-11.91-.669-17.95-.802-6.87-.151-13.61-1.599-20.47-1.685-7.54-.094-14.99-1.038-22.54-.744-14.56.569-29.1.989-43.7 1.059-1.81.009-3.59-.21-5.38.107-1.45.255-2.49.761-4.04.65-1.45-.103-2.79-.735-4.26-.811-1.94-.101-3.92.217-5.87.177-6.56-.134-14.35-.73-20.68 1.344-2.51.825-5.68 3.225-4.14 6.336 1.51 3.076 5.38.569 7.78 1.967 2.23 1.302 1 4.856.84 6.981-.3 4.026-.35 8.031-.25 12.066.24 8.91.78 17.809.88 26.722.05 4.329-.01 8.657-.24 12.98-.2 3.816-.06 7.97-1.37 11.611-1.82-4.547-2.04-9.567-2.76-14.358a2038.01 2038.01 0 01-2.29-15.558c-.44-3.083-.9-21.599-6.94-19.18-6.42 2.57-4.19 16.814-4.48 21.936-.27 4.834-.77 9.649-1.86 14.372-.51 2.195-1.92 11.517-4.73 12.119-2.07-9.755-4.25-19.495-5.77-29.355-.67-4.353-1.27-8.738-1.53-13.135-.14-2.289.03-7.791-3.29-8.057-9.73-.784-3.2 40.193-10.48 45.348-2.69-5.347-3.74-10.923-4.47-16.851-.33-2.698-1.04-5.736-.62-8.442.55-3.541 1.15-5.711.41-9.37-.61-2.995-1.04-6.07-1.74-9.039-.51-2.139-1.82-3.184-2.52-5.113-1.96-5.433-1.83-12.31-2.61-18.013-.79-5.775-1.62-11.453-.6-17.28 1.02-5.77 5.24-7.604 10.04-9.986 4.85-2.4 9.52-5.037 14.83-6.096 5.97-1.188 11.45-2.341 17.56-2.656 10.78-.556 21.34.089 32.08.599 11.93.568 23.88-.139 35.81-.303 5.79-.08 11.7-.191 17.49-.097 2.9.048 5.71.55 8.63.477 2.49-.062 7.35.704 9.53-.617 1.71-1.037 1.71-3.334.26-4.6-1.42-1.255-4.23-1.321-6.01-1.708-5.71-1.236-11.39-1.946-17.13-2.939-3.31-.571-6.09-.761-9.4-.6-3.22.157-6.5-.762-9.76-.918-6.9-.329-13.84-.655-20.74-.763-13.37-.208-26.59-1.228-39.98-1.195zm-6.98 130.685c1.07.415.8 5.55.9 6.575.29 3.071.61 6.139.88 9.211.63 7.093 1.11 14.201 1.5 21.311.38 7.11.84 14.243.82 21.367-.01 3.032-.14 6.061-.08 9.094.04 2.266 1.04 6.508-.9 8.118-1.29 1.08-3.84.594-5.36.494-3-.196-6-.396-9.01-.419-3.47-.027-6.92.347-10.4.256-1.33-.034-2.82-.256-4.14-.006-.96.184-2 1.008-2.9 1.044-.66.026-1.51-.628-2.24-.757-1.14-.2-2.47.032-3.62.018-.83-.01-2.81-.381-3.56.104-.74.472-.46 1.548-1.13 1.787-.26.09-1.72-1.644-1.97-1.754-1.12-.488-2.75-.108-3.93-.095-3.4.038-6.8-.176-10.2-.144-3.31.031-6.51.416-9.68.801-2.11.254-4.52-.384-6.75-.571-3.57-.298-7.16-.243-10.733-.171-1.796.036-3.593.064-5.389.108-.425.011-1.267-.154-1.677-.032-1.648.494-.602.523-1.767 1.274 1.528-.986-3.418-1.628-3.703-1.631-2.245-.016-4.302 1.085-6.17.869-2.024-.233-4.09-1.482-6.316-1.095-1.041.181-1.905 1.344-2.678 1.478-1.25.215-1.677-.686-2.824-1.138-2.286-.901-4.94-.116-7.328-.272-3.351-.218-6.578-.226-9.942-.271-6.138-.081-12.276-.182-18.415-.122-5.652.055-10.194 2.319-15.815 2.196-2.949-.064-5.947-.322-8.891-.251-2.529.06-3.82 1.942-1.909 4.154 1.292 1.495 3.665 1.653 5.487 1.926 2.704.407 5.36.992 8.055 1.443 6.408 1.073 13.115 1.04 19.598 1.235 26.436.795 52.878 3.142 79.327 3.39 11.62.109 23.36 1.086 34.94.631 6.45-.255 12.77 1.132 19.28.136 2.74-.421 5.44-.676 8.21-.873.36-.026 2.47-.434 2.87-.253 1.18.537.52.047 1.01 1.408.82 2.237.48 5.804.47 8.185-.01 3.795-.19 7.598-.32 11.391-.12 3.634-.32 7.265-.54 10.895-.09 1.502.5 7.15-.66 8.27-.89.867-5.09.457-6.23.214-1.36-.291-1.49-.362-2.96-.19-1.09.128-1.48.097-2.57-.021-3.12-.336-6.69-.396-9.82.167-2.43.436-4.98-.716-5.91 1.838-1.58-1.923-1.54-.815-3.27-.429-1.78.397-1.23-.751-2.74-.909-1.07-.111-2.01.728-3.16.736-1.9.012-3.61-.49-5.64-.237-8.97 1.118-18.06 2.122-27.1 2.205-3.75.036-7.46.093-11.19.207-1.905.058-3.705.256-5.577.48-1.764.212-3.151-.211-4.984-.304-4.056-.207-8.31.41-12.366.632-1.907.104-4.295-.224-6.124.026-1.838.251-1.977 1.646-3.438 2.454-.231-4.524-9.703-1.626-12.169-1.621-.968.003-2.151-.409-3.32-.334-1.934.124-3.882.156-5.819.224-3.089.108-6.075.295-9.009-.079-3.834-.488-7.997.033-11.869.009a480.411 480.411 0 01-12.648-.222c-4.27-.14-8.532-.4-12.801-.537-3.709-.12-7.643.179-11.299-.092-.947-.071-1.854-.765-2.701-.8-1.174-.05-2.489.454-3.845.338-4.272-.364-8.252-.424-12.57-.409-7.407.025-15.102-1.341-22.204-3.301-3.273-.903-6.675-.953-9.926-1.921-3.752-1.119-7.188-3.07-10.641-4.875-2.704-1.414-6.506-2.072-5.405-5.647 1.176-3.818 3.052-7.519 4.451-11.269 1.216-3.26 1.992-6.437 4.628-8.889 2.605-2.424 5.932-4.051 8.707-6.285 6.049-4.87 12.363-7.782 19.526-10.666 7.22-2.907 13.806-7.194 21.39-9.127 7.042-1.795 13.827-4.202 20.727-6.042 7.55-2.012 15.335-2.742 22.95-4.53 7.298-1.715 14.462-4.237 21.857-5.543 8-1.413 16.073-2.139 24.044-3.863 6.757-1.46 13.204-4.322 19.997-5.463 1.984-.334 4.13-.538 6.05-1.161 1.796-.583 3.081-1.762 4.898-2.24 4.19-1.103 7.83-2.606 11.8-4.399 1.67-.754 2.59-1.68 4.04-2.615 1.72-1.114 3.93-1.51 5.87-2.124 3.73-1.183 7.44-2.347 10.79-4.424 3.46-2.152 6.65-4.585 9.84-7.1 1.35-1.065 2.8-2.134 4.18-3.13 1.71-1.227 3.46-1.449 5.38-2.25 8.29-3.478 11.93-11.643 16.45-18.747.42 5.753 5.93 8.423 9.33 2.951zM961.02 446.894c-.572-2.577-1.387-6.275 1.828-6.419.207-.009 2.337.522 2.556.664 1.096.703 1.51 3.05 1.928 4.19.368 1.005.624 2.343 1.441 3.102.807.75 1.649.768 2.402 1.667 2.291 2.733 3.997 7.429 5.382 10.729-1.879-.454-.513.805-1.313 1.523-1.249 1.12-.859.918-2.635 1.091-3.093.303-4.505-.52-6.923-2.445-2.051-1.632-2.71-2.701-3.891-5.057-1.688-3.366-.865-5.51-.771-9.047l-2.54 2.335.789-3.059 1.747.726zm88.98-203.47c-1.64-5.62-4.71-6.035-8.84-1.997-.66-1.445-1.43-3.688-3.33-3.675-1.35.009-1.59 1.099-2.5 1.834-1.09.889-1.94 1.201-3.33 1.438-3.02.517-5.83.34-8.68 1.69-2.59 1.231-3.83 3.027-5.82 4.869-1.87 1.724-3.24.608-5.37 1.48-2.37.97-3.43 3.841-3.89 6.167-.56 2.845.02 3.752-1.96 5.817-1.86 1.949-2.85 4.431-3.08 7.109-.21 2.533.35 5.539 1.81 7.674 1.65 2.405 3.36 1.74 1.21 4.598-1.08 1.438-1.2 4.501-2.5 5.423-2.27 1.612-5.203-.988-7.209-1.643-2.726-.889-2.118.599-3.314 2.392-1.767 2.65-2.817-.084-5.227.445-.886.195-1.146 1.15-1.458 1.265-1.1.407.069.256-1.189-.197-.836-.301-.263-1.92-1.947-.996-1.17.643-.289 1.787-.821 2.615-1.045 1.628-2.597.679-3.369 2.78-.769 2.092-1.809 4.867-2.237 7.155-.52 2.779.702 5.198.523 7.828-.187 2.746-2.911 4.597-4.605 6.522-8.31 9.435-11.828 21.846-14.539 33.841-2.52 11.149 1.915 23.77 10.622 31.326 4.414 3.831 9.929 5.474 14.168 9.69 1.881 1.871 1.857 2.463-.385 3.997-1.837 1.256-3.521 2.856-5.468 3.849-5.003 2.551-9.879 4.374-15.466 5.445-2.818.541-5.751.324-8.602.223-2.967-.105-6.317.315-9.217-.047-2.562-.32-4.589-2.386-7.271-2.166-1.052.085-1.696.487-2.766.392-1.406-.124-2.588-.867-4.082-.829-2.273.058-4.521.096-6.718.179-2.495.093-5.428-.59-7.911-.159-2.357.408-5.159 2.525-7.209 3.76-2.527 1.521-5.561 3.281-7.823 5.141-2.137 1.757-3.644 4.553-5.311 6.735-1.763 2.308-3.803 4.37-5.575 6.668-6.979 9.046-14.331 20.187-16.513 31.575-.552 2.882-.522 5.728-.106 8.623.372 2.585 2.801 3.568 2.875 6.347.149 5.625-2.548 12.145-4.115 17.476-1.65 5.613-3.717 11.064-6.276 16.342-.991 2.044-2.247 3.734-2.87 5.851-.761 2.586-1.921 5.039-2.769 7.648-7.336 22.562-18.709 43.565-26.999 65.785-4.455 11.94-9.166 23.777-14.024 35.565-2.39 5.803-4.979 11.428-7.578 17.143-.342.751-.585 2.198-1.18 2.714-1.006.873-.119.376-1.527.228-1.215-.128-2.476-.681-3.701-.886-2.959-.496-5.989-.581-8.972-.875-3.428-.339-6.446-.515-9.877-.35-3.192.155-6.335-.792-9.513-1.003-6.812-.45-13.53-.213-20.337-.085-5.305.099-12.096-.531-17.004 1.929-4.918 2.464-3.221 8.14.949 10.301 4.997 2.59 10.878 2.96 15.844 5.599-3.727 1.146-7.753.851-11.55 1.745-2.446.576-6.229 1.002-8.073 2.786-1.786 1.729-1.605 4.705-.426 6.732 1.468 2.524 4.291 2.96 6.832 3.835-1.145 1.515-2.925 1.397-3.955 3.394-1.369 2.656-.513 5.494 1.163 7.79 3.637 4.986 10.84 5.407 16.463 6.117a88.517 88.517 0 0016.89.488c3.17-.216 6.297-.374 9.427-.819 3.6-.513 3.254 2.006 4.537 4.585 1.241 2.497 3.033 3.567 5.805 3.413 2.994-.167 6.313-.371 9.278-.872 2.839-.479 5.298-1.943 8.021-2.553 2.453-.551 4.4-1.439 6.73-2.631 2.673-1.367 4.096-3.655 6.436-5.226 2.402-1.612 4.916.921 7.278 2.182 5.741 3.064 12.042 4.419 18.321 5.926 6.404 1.536 12.64 3.502 19.152 4.566 3.031.494 5.91.428 8.926.749 3.476.37 6.49 1.697 10.04 1.704 12.536.026 25.154 2.286 37.696 2.704 12.416.414 25.034-.612 37.437.219 6.341.425 12.478-.427 18.785-.1 6.505.339 13.241-.003 19.736-.5 13.47-1.029 26.52-.761 39.85-1.428 6.94-.348 14.01-1 20.86-2.1 6.71-1.078 14.31.164 19.06-5.67.52 2.287.66 4.659 2.33 6.462 1.76 1.897 4.6 2.662 6.96 3.526 6.01 2.205 12.09 4.299 18.15 6.392 5.74 1.984 11.52 4.133 17.31 5.951 6.08 1.912 11.86 4.228 17.84 6.472 5.42 2.033 11.04 3.639 16.26 6.09 2.15 1.011 4.41 1.094 6.47 2.038 2.54 1.166 4.9 2.284 7.63 3.125 2.33.721 4.47 1.239 6.73 2.177 2.24.929 5.41 2.541 7.76 1.306 1.64-.867 2.29-2.861 2.8-4.525.63-2.081.09-5.693 2.56-5.599 2.44.092 5.88 2.435 8.27 3.23 2.86.952 5.78 2.543 8.73 3.082 2.95.539 5.27.378 6.81-2.361 1.74-3.081 1.45-6.347.93-9.699 5.02-.012 9.67.459 14.73.631 2.79.094 5.5.218 8.28-.089 2.51-.276 6.25.51 8.42-.638 4.43-2.333 3.77-8.933 1.54-12.543-1.24-2.004-3.19-3.355-5.16-4.571-2.48-1.524-4.29-3.252-6.46-5.193 1.41-.974 3.25-.501 4.64-1.661 1.08-.899 1.75-2.401 2.24-3.681.92-2.388-.26-7.866 1.8-9.219 1.11-.722 3.07-.416 4.33-.995 1.72-.791 2.93-2.249 3.68-3.985 1.67-3.912.24-7.985-1.4-11.64 6.19-1.053 15.26-1.472 17.03-8.627.56-2.285.64-4.931-.14-7.178-1.15-3.334-3.85-3.514-6.83-4.492-12.47-4.09-24.16-10.731-37.6-11.715-7.19-.527-14.44-.805-21.63-1.551-7.23-.749-14.19-2.071-21.46-1.174-3.09.382-6.67.042-9.63.601-2.86.539-3.22 3.909-1.04 5.855 2.13 1.89 5.21.681 7.74.893 3.59.3 6.61 1.995 9.96 3.062 8.21 2.619 17.21 4.477 25.78 5.418 4.6.504 8.94.572 13.45 1.797 4.09 1.113 8.13 2.378 12.24 3.444-4.49 1.197-13.17 1.064-14.66 6.52-.71 2.568.07 6.121 2.33 7.709 1.31.922 4.18.501 5.01 1.879-3.53.433-7.56-2.28-9.5 1.6-2.21 4.427-.04 7.922 2.78 11.209-2.5-.414-5.07.058-7.59-.262-1.95-.247-3.77-.833-5.62-.223-.93.305-.81 1.132-1.98 1.137-.85.003-2.13-.923-2.87-1.28-2.81-1.357-5.67-2.46-8.58-3.593a81.65 81.65 0 00-10.43-3.301c-4.87-1.195-9.77-4.262-14.52-5.996-2.02-.734-4.61-1.487-5.61-3.583-1.03-2.162-.24-5.328-.18-7.615.18-6.432.1-12.874.06-19.309-.03-5.411-.16-10.721-.64-16.112-.58-6.45-.06-12.877-.31-19.338-.23-5.932.31-11.85.15-17.781-.19-6.606-.52-13.189-.58-19.803-.13-11.881-.53-23.748-.76-35.626-.23-12.202-1.53-24.408-4.14-36.339-1.17-5.344-2.7-10.787-4.73-15.865-.65-1.608-1.32-1.7.23-2.619.92-.545 2.05.064 2.95.185 1.9.253 3.59.365 5.52.251 11.06-.647 22.51-.123 33.53.87 5.73.517 11.5 1.009 17.25 1.214 5.74.204 11.48 1.093 17.22.672 9.62-.703 20.59.396 28.83-5.791 8.79-6.602 7.96-18.299 2.29-26.75-6.27-9.326-16.74-14.64-25.48-21.176-8.59-6.421-18.69-11.13-28.05-16.301-20.05-11.072-41.6-21.319-63.19-28.97-21.96-7.783-44-16.731-67.92-15.21-12.12.77-25.68 1.22-36.37 7.652-5.71 3.438-11.24 7.021-16.15 11.561-2.31 2.139-4.35 4.775-6.81 6.729-2.29 1.817-4.53.573-7.14-.095l5.55-17.91c2.56 1.982 6.08 2.736 9.4 2.035 4.04-.851 3.71-2.574 3.35-6.025-.17-1.6-.6-1.327.79-2.337 1.14-.83 3.22-1.101 4.53-1.819 3.28-1.792 6.11-4.423 7.32-8.035 1.2-3.592.35-6.924-.43-10.489-.95-4.287 1.39-2.494 4.05-4.488 1.18-.877 1.6-1.639 1.4-3.088-.17-1.176-2.49-2.869-2.39-4.026.13-1.396.9-1.24 2.01-2.081 1.22-.929 2.09-2.067 2.63-3.529 1.14-3.094-1.18-5.006-2.15-7.86-.47-1.383-.94-2.566-1.86-3.73-1.65-2.063-2.28-2.018-4.57-1.999-1.93.014-1.91-.143-3.35-1.884-.56-.676-1.12-1.347-1.6-2.08-.84-1.259-1.07-1.088-.18-2.071 2.71-2.997 3.95 1.682 6.36 1.399 2.78-.327 3.28-4.737 5.03-6.211 1.22-1.031 2.61-.638 3.95-1.334 1.63-.852 1.96-2.475 3.02-3.835 1.72-2.207 4.22-2.596 5.37-5.397.65-1.589.74-3.225.87-4.91.19-2.399.82-4.295 1.52-6.579.71-2.329.53-4.013-.62-6.156-1.2-2.209-1.34-2.951-1.04-5.443.23-1.896.3-3.579-.69-5.271-1.07-1.824-1.29-2.775-1.64-4.852-.3-1.822-.88-3.133-2.64-3.889-1.2-.515-2.5.059-3.35-1.115-.85-1.171-.62-3.047-1.49-4.341-1.42-2.11-3.56-2.441-5.88-2.917z" fill="#000"/><path fill-rule="evenodd" clip-rule="evenodd" d="M979.771 337.223c.825-1.935 3.584-10.861-.954-10.906-3.601-.037-2.463 7.708-2.507 9.61-.083 3.558-3.81 4.064-5.204 7.292-1.627 3.764-.504 8.258 2.031 11.327 1.936 2.341 5.661 5.024 8.32 2.157 2.957-3.189.116-4.98-1.955-6.966-2.998-2.878 2.739-3.715 4.229-6.05 2.531-3.968-.248-6.033-3.96-6.464zm13 2.013c.414 1.837.288 6.033 2.287 7.023 3.351 1.661 4.125-6.349 4.099-8.117-.028-1.881-.679-6.326-3.456-5.75-3.116.646-1.348 6.409-2.93 6.844zm-12.537 23.265c-4.955.154-4.676 6.057.076 6.263 4.422.192 4.312-6.399-.076-6.263zm-10.538 87.985c.463 1.966 1.543 3.821 3.16 5.06-.381-.778-2.037-5.41-3.16-5.06z" fill="#000"/><path fill-rule="evenodd" clip-rule="evenodd" d="M308.824 444.391l396.359-200.823 36.229 38.812-394.637 227.704-37.951-65.693zm-198.102 30.688L485.078 136l56.201 66.938-402.078 337.183-28.479-65.042z" fill="#FDE1DF"/><path d="M198.648 303.891c21.647-3.813 36.1-24.445 32.281-46.083-3.819-21.638-24.464-36.088-46.111-32.275-21.647 3.813-36.1 24.446-32.281 46.084 3.819 21.638 24.464 36.088 46.111 32.274z" fill="#FDE1DF"/></g></g><defs><clipPath id="clip0"><path fill="#fff" d="M0 0h1440v880H0z"/></clipPath></defs></svg>