<svg width="246" height="20" viewBox="0 0 246 20" fill="none" xmlns="http://www.w3.org/2000/svg" preserveAspectRatio="none"><path d="M66.594 20c-1.41 0-2.754-.194-4.033-.582-1.261-.389-2.272-.925-3.032-1.61A1.419 1.419 0 0159 16.672c0-.333.093-.61.278-.832.186-.24.408-.36.668-.36.26 0 .575.12.946.36 1.65 1.22 3.532 1.83 5.646 1.83 1.484 0 2.624-.277 3.422-.831.797-.555 1.196-1.35 1.196-2.386 0-.813-.371-1.424-1.113-1.83-.742-.408-1.929-.796-3.56-1.166-1.558-.333-2.838-.712-3.84-1.137-1-.425-1.789-.999-2.364-1.72-.556-.74-.834-1.673-.834-2.801 0-1.129.306-2.127.918-2.996.63-.888 1.502-1.572 2.615-2.053C64.09.249 65.36 0 66.788 0c1.317 0 2.532.185 3.645.555 1.112.37 2.058.915 2.837 1.636.37.315.556.694.556 1.138 0 .314-.102.591-.306.832-.185.24-.408.36-.667.36-.242 0-.548-.12-.918-.36-.853-.647-1.66-1.11-2.42-1.387-.742-.296-1.642-.444-2.699-.444-1.428 0-2.54.296-3.338.888-.797.573-1.196 1.377-1.196 2.413 0 .888.353 1.563 1.057 2.025.705.444 1.836.85 3.394 1.22 1.632.37 2.948.759 3.95 1.166 1.02.388 1.826.934 2.42 1.636.612.684.918 1.572.918 2.663 0 1.11-.316 2.1-.946 2.968-.612.851-1.484 1.517-2.615 1.997-1.112.463-2.401.694-3.866.694zm24.95 0c-1.855 0-3.468-.407-4.84-1.22-1.354-.814-2.402-1.97-3.144-3.468-.741-1.498-1.112-3.264-1.112-5.298 0-2.053.361-3.828 1.085-5.326.741-1.516 1.798-2.672 3.17-3.467C88.077.407 89.69 0 91.544 0c1.874 0 3.496.407 4.868 1.22 1.373.796 2.42 1.952 3.144 3.468.742 1.498 1.112 3.264 1.112 5.298 0 2.034-.37 3.81-1.112 5.326-.724 1.498-1.771 2.654-3.144 3.467C95.04 19.593 93.418 20 91.544 20zm0-2.33c1.965 0 3.495-.666 4.59-1.997 1.094-1.332 1.64-3.227 1.64-5.687 0-2.46-.546-4.346-1.64-5.659-1.076-1.331-2.606-1.997-4.59-1.997-1.947 0-3.468.666-4.562 1.997-1.076 1.313-1.614 3.2-1.614 5.66 0 2.459.538 4.354 1.614 5.686 1.094 1.331 2.615 1.997 4.562 1.997zM117.983 20c-2.615 0-4.599-.675-5.953-2.025-1.354-1.35-2.031-3.338-2.031-5.964V1.526c0-.444.13-.796.39-1.054.259-.26.602-.389 1.029-.389.426 0 .77.13 1.029.389.26.258.39.61.39 1.054v10.68c0 1.793.426 3.152 1.279 4.077.872.925 2.16 1.387 3.867 1.387 1.687 0 2.967-.462 3.838-1.387.872-.925 1.308-2.284 1.308-4.078V1.525c0-.425.129-.767.389-1.026.26-.277.603-.416 1.029-.416.427 0 .77.13 1.029.389.26.258.39.61.39 1.054V12.01c0 2.608-.686 4.596-2.059 5.964-1.353 1.35-3.328 2.025-5.924 2.025zm19.347-.222c-.427 0-.77-.12-1.029-.36-.241-.24-.362-.565-.362-.971V1.526c0-.426.13-.768.389-1.027.26-.277.603-.416 1.03-.416.445 0 .797.13 1.057.389.259.258.389.61.389 1.054v15.866h8.456c.427 0 .751.102.974.306.241.203.361.499.361.887 0 .389-.12.684-.361.888-.223.203-.547.305-.974.305h-9.93zm20.803.139c-.427 0-.77-.13-1.029-.389-.26-.258-.39-.61-.39-1.054V1.61c0-.425.121-.758.362-.999.259-.259.612-.388 1.057-.388h6.704c2.077 0 3.69.508 4.84 1.526 1.149 1.017 1.724 2.46 1.724 4.327 0 1.85-.575 3.292-1.724 4.327-1.15 1.036-2.763 1.554-4.84 1.554h-5.258v6.518c0 .444-.129.796-.389 1.054-.241.26-.594.389-1.057.389zm6.398-10.264c2.744 0 4.116-1.193 4.116-3.578 0-2.367-1.372-3.55-4.116-3.55h-4.952v7.128h4.952zM188.716 20c-1.855 0-3.468-.407-4.84-1.22-1.354-.814-2.402-1.97-3.144-3.468-.741-1.498-1.112-3.264-1.112-5.298 0-2.053.361-3.828 1.085-5.326.741-1.516 1.798-2.672 3.171-3.467C185.248.407 186.861 0 188.716 0c1.873 0 3.495.407 4.868 1.22 1.372.796 2.42 1.952 3.143 3.468.742 1.498 1.112 3.264 1.112 5.298 0 2.034-.37 3.81-1.112 5.326-.723 1.498-1.771 2.654-3.143 3.467-1.373.814-2.995 1.221-4.868 1.221zm0-2.33c1.965 0 3.495-.666 4.589-1.997 1.095-1.332 1.642-3.227 1.642-5.687 0-2.46-.547-4.346-1.642-5.659-1.075-1.331-2.605-1.997-4.589-1.997-1.947 0-3.468.666-4.562 1.997-1.076 1.313-1.613 3.2-1.613 5.66 0 2.459.537 4.354 1.613 5.686 1.094 1.331 2.615 1.997 4.562 1.997zm33.893.333c.167.24.251.5.251.776 0 .333-.139.62-.418.86a1.365 1.365 0 01-.917.333c-.52 0-.937-.23-1.252-.693l-3.728-5.77c-.426-.666-.88-1.128-1.363-1.387-.482-.277-1.112-.416-1.891-.416h-3.143v6.768c0 .444-.13.796-.39 1.054-.241.26-.584.389-1.029.389-.426 0-.769-.13-1.029-.389-.26-.258-.39-.61-.39-1.054V1.61c0-.425.121-.758.362-.999.26-.259.612-.388 1.057-.388h6.926c2.17 0 3.82.48 4.952 1.442 1.149.962 1.724 2.367 1.724 4.217 0 1.535-.436 2.783-1.307 3.745-.872.943-2.114 1.544-3.728 1.803.483.129.918.36 1.308.693.389.333.769.795 1.14 1.387l2.865 4.494zm-7.287-8.6c1.446 0 2.512-.277 3.198-.832.705-.573 1.057-1.451 1.057-2.635 0-1.183-.343-2.043-1.029-2.58-.686-.554-1.761-.832-3.226-.832h-5.202v6.88h5.202zm22.333 10.514c-.426 0-.779-.13-1.057-.389-.26-.277-.389-.628-.389-1.054V2.607h-5.564c-.89 0-1.335-.397-1.335-1.192 0-.389.112-.685.334-.888.241-.203.575-.305 1.001-.305h14.02c.426 0 .751.102.973.305.241.203.362.5.362.888 0 .795-.445 1.192-1.335 1.192h-5.563v15.867c0 .426-.13.777-.39 1.054-.259.26-.612.389-1.057.389z" fill="#222B45"/><g clip-path="url(#clip0)"><path d="M34.371 0c-4.936 0-8.319 3.143-11.46 6.31a4.027 4.027 0 005.343.243c1.735-1.417 3.67-2.5 5.85-2.5 3.277 0 5.685 2.501 5.685 5.946a5.984 5.984 0 01-1.726 4.202 5.861 5.861 0 01-4.159 1.743c-3.879 0-6.621-3.512-9.229-5.945L22 7.24v-.012C18.78 3.988 15.114 0 10.163 0 4.28 0 0 4.661 0 9.999 0 15.813 4.011 20 9.631 20c4.936 0 8.314-3.14 11.456-6.303a4.025 4.025 0 00-5.343-.243c-1.733 1.415-3.669 2.493-5.846 2.493-3.274 0-5.682-2.498-5.682-5.946A5.985 5.985 0 015.94 5.798a5.861 5.861 0 014.158-1.745c3.88 0 6.62 3.515 9.227 5.946l-.014.017L22 12.77C25.21 16.013 28.893 20 33.837 20 39.729 20 44 15.327 44 9.999 44 4.189 40.056 0 34.371 0z" fill="#222B45" fill-opacity=".5"/><path opacity=".2" d="M22 12.77l.59.596-.59-.596z" fill="url(#paint0_linear)"/><path opacity=".2" d="M22.01 7.24a69.656 69.656 0 01-.59-.596c.197.201.395.41.59.596z" fill="url(#paint1_linear)"/><path d="M33.919 15.944c-3.88 0-6.62-3.513-9.23-5.945L22.018 7.23 22 7.245l-.014-.015C18.78 3.987 15.097 0 10.149 0a10.026 10.026 0 00-4.694 1.103 10.143 10.143 0 00-3.656 3.174 12.492 12.492 0 018.283-.224c3.883 0 6.621 3.515 9.229 5.946l2.675 2.77.014-.017.017.018c3.21 3.242 6.886 7.23 11.834 7.23 1.63.02 3.242-.358 4.696-1.103a10.143 10.143 0 003.657-3.174 12.485 12.485 0 01-8.285.221z" fill="#222B45"/></g><defs><linearGradient id="paint0_linear" x1="22.294" y1="13.069" x2="22.296" y2="13.069" gradientUnits="userSpaceOnUse"><stop stop-opacity="0"/><stop offset="1"/></linearGradient><linearGradient id="paint1_linear" x1="155.797" y1="-72.75" x2="155.797" y2="-72.75" gradientUnits="userSpaceOnUse"><stop stop-opacity="0"/><stop offset="1"/></linearGradient><clipPath id="clip0"><path fill="#fff" d="M0 0h44v20H0z"/></clipPath></defs></svg>