<svg width="1440" height="500" viewBox="0 0 1440 500" fill="none" xmlns="http://www.w3.org/2000/svg" preserveAspectRatio="none"><mask id="a" maskUnits="userSpaceOnUse" x="0" y="0" width="1440" height="500"><path fill="#EDF1F7" d="M0 0h1440v500H0z"/></mask><g clip-path="url(#clip0)" fill-rule="evenodd" clip-rule="evenodd" mask="url(#a)"><path d="M1101.33 168.258c66.75 68.285 118.47 165.471 104.32 255.02-14.14 89.698-94.15 171.61-188.17 213.39-94.006 41.779-201.868 43.576-282.912-.15-81.044-43.876-135.417-133.275-165.624-237.2-30.355-103.925-36.396-222.075 17.977-287.365 54.373-65.29 169.16-77.57 267.445-64.242 98.284 13.477 180.064 52.412 246.964 120.547z" fill="#F6EDEE"/><path d="M989.27 303.361c2.235.312 8.553 2.989 9.623 4.958-1.46.471-2.526 1.508-3.791 2.309-1.459.923-2.876 1.158-4.428 1.823-3.77 1.613-7.38 4.441-10.889 6.571-7.586 4.604-14.806 9.666-21.856 15.049-5.981 4.567-11.348 9.935-17.027 14.627-3.863 3.192-14.21 12.535-9.75 17.746a687.328 687.328 0 019.418-7.793c1.794-1.463 4.637-5.178 6.95-5.305-2.755 3.464-5.715 6.726-8.67 10.021 4.137.516 8.265-5.206 11.126-7.733 1.826-1.613 3.963-2.208 5.968-3.647 1.793-1.288 2.877-2.96 4.89-3.971 4.115-2.07 7.7-5.152 11.304-7.825 1.587-1.177 2.994-2.618 4.338-3.724.861-.709 4.235-3.673 5.025-3.865l.615 1.296c.922-1.984 1.49-.865 2.976-1.975.805-.601.393-1.51.805-1.875.626-.554 2.88-1.694 3.735-2.235 1.746-1.106 1.064-1.803 3.219-.814-.461-1.299-.038-1.648 1.268-1.048l-.185-2.815c5.9 0 10.506-2.409 15.426-5.728 1.86-1.25 1.81-2.177 3.91-1.083 1.15.6 2.09 2.299 2.81 3.287 1.66 2.262 2.49 3.851 3.03 6.58-.71-.711-1.25-.757-1.62-.134.55.829 1.62 1.833 1.55 2.835-.08 1.222-.63-.142-.94.631-.33.82-1.35 1.644-1.48 2.526-.26 1.73 1.16 1.716.02 3.667-.98-.884-1.23-.956-2.36-.275.35.622.7 1.242 1.06 1.865-2.35 0 .26 2.616-.4 4.366-1.05 2.748-4.81 3.051-4.49 6.618l1.69-2.655c-.12 1.797-.78 2.412-1.39 3.892-.36.855-.6 2.479-1.27 3.169-.55-.889-1.11-1.778-1.66-2.667.4 3.654-.16 6.276-2.31 9.387-.66.955-1.95 1.647-2.44 2.55-.58 1.071.22 2.547-.4 3.458-.5.735-1.36.797-2.09 1.177-.62-.44-1.128-.335-1.521.317a2.291 2.291 0 00-.485 1.192l.474.603c-.582 1.333-1.189 1.461-1.82.384-1.156.617-1.395.915-2.09 2.345-2.956.508-6.288 3.204-9.063 4.671-3.539 1.873-6.661 2.962-10.303 4.164-1.415.468-2.309 1.532-3.562 2.085-1.359.601-2.875.245-3.951.717-1.346.589-1.81 1.87-3.577 2.124-1.805.258-3.706-.326-5.268-1.21 1.419 2.576 1.614 2.43-.969 3.853-.005-.014-.798-3.49-1.528-2.515-.547.73.686 2.324-.001 3.24-.427.567-2.031.902-2.596 1.169l-1.112-.167-1.682 2.481-4.496.531c.683-2.046.767-1.967-1.171-2.92l.881 3.02c-2.531.341-5.316.751-7.543.593-.42-.03-.581-.611-1.255-.554-.552.047-1.879.613-.949 1.002-4.42.412-8.649.021-13.076.075-1.949.024-3.983.471-5.918.289-2.032-.19-4.062-.924-6.171-1.078-4.401-.321-9.296-.322-13.607-1.209-2.515-.519-2.73-.485-.857-2.39.988-1.004 2.083-1.882 3.158-2.785 6.081-5.102 12.162-10.646 16.957-17.009 4.908-6.513 7.253-14.476 10.792-21.742 6.597-13.549 10.623-32.01 26.275-37.65 3.262-1.175 6.845-1.358 10.194-2.51 3.963-1.364 8.01-2.041 12.117-2.898 3.543-.739 8.811-1.962 12.413-1.459zM949.098 385.8c-.386 1.002-1.248 1.968.747 2.081l-.747-2.081zm182.352-93.006c3.31.268 6.54.796 10.01 1.217.82.099 2.59-.335 3.27-.184 1.51.335 2.73 1.404 4.3 1.71 2.9.566 5.93 1.118 8.85 2.044 7.15 2.265 14.13 5.357 20.82 8.735 14.22 7.185 27.16 16.48 40.59 25.01 7.27 4.614 13.53 8.951 19.23 15.457 2.13 2.437 4.26 4.088 5.45 6.9 1.55 3.643 3.31 7.131 5.11 10.651-3.32.735-5.36-.865-8.45-1.568-2.95-.669-6.22-.874-9.23-1.409-6.44-1.148-12.91-2.108-19.39-2.935-6.72-.855-13.28-2.615-19.98-3.545-5.47-.758-11.12-1.665-16.18-3.308-2.5-.808-5.23-1.081-7.79-1.611-3.33-.69-6.49-2.155-9.81-2.925-5.38-1.253-10.54-2.455-16-3.794-2.42-.594-5.79-1.159-8.02-2.196-1.62-.752-3.1-2.766-4.69-4.333-2.27-2.241-4.27-4.918-6.31-7.375-1.8-2.168-5.48-5.139-3.39-8.231-2.38.286-1.5.657-2.5-1.391-.68-1.386-.77-3.461-1.09-4.948 1.41-.096.86-.739.71-1.995-.61-.184-.89.182-.84 1.099-2.38-7.527 2.05-13.421 7.68-17.927 1.28-1.029 3.11-2.73 4.72-3.186 2.22-.629.92-.124 2.93.038zm-205.804 69.63l1.437-.633c-1.213-.603-1.213-.603-1.437.633zm296.014-80.852c3.68.778 6.61 2.582 10.1 3.726 1.16.377 2.35.347 3.51.643 1.96.497 3.26 1.445 4.98 2.553-3.56 2.142 13.77 14.27 15.15 15.733 2.83 2.989 4.82 6.622 6.42 10.383 1.31 3.066 4.57 8.484 1.76 11.44.53-.207 1.05-.414 1.57-.62.33.301-.25 3.954-.34 4.543l1.21.133c-1.78 2.901-1.64 3.341-5.04 2.623-.02 2.013.59 3.994.11 5.984-.18.737-.75 1.349-.82 2.018-.06.573.55 1.047.48 1.839-.39 4.352-2.9 9.05-4.34 13.159-4.8-10.438-8.31-21.922-15.3-31.095-3.39-4.449-7.36-8.141-11.26-12.122-3.86-3.945-7.27-7.629-11.94-10.601-3.73-2.372-8.25-4.889-12.44-6.226-2.28-.728-4.64-.769-6.96-1.697-2.22-.883-4.31-1.59-6.63-2.178-5.89-1.498-11.7-3.367-17.57-4.89-1.77-.46-3.4-1.373-5.23-1.863-2.82-.754-6-.586-8.56-2.049 3.29-1.702 6.67-1.392 10.21-1.878 3.7-.509 7.36-1.1 11.07-1.546 7-.839 13.89-.977 20.91-1.034 6.32-.051 12.71 1.706 18.95 3.022zm-21.75 57.62c.73.625.43.645 1.36-.415-.39-.635-.84-.497-1.36.415zm1.91-.341l.74.115c.28-2.144-.27-2.15-.74-.115zm-198.46-7.638c-1.44.742-1.96 1.33-.7 2.462.23-.795.42-1.453.7-2.462zm258.65-2.009c.15.501.3.997.55 1.805.8-1.702.8-1.702-.55-1.805zm-108.54-9.556c-.39.765.04 1.291.34 2.093.89-.33-.01-1.359-.34-2.093zm57.55-6.333c3.1 1.181 9.21 4.762 10.29 8.093-2.36-.809-3.86-2.642-6.03-3.933-1.48-.88-4.85-1.891-4.26-4.16zm-57.57 2.31c2.77.611 5.06 2.403 8.04 1.568-.32-1.051-1.5-1.835-2.58-1.943-.82-.082-1.6.822-2.5.431-.82-.359-.33-1.799-1.5-1.897-.99-.082-1.65 1.006-1.46 1.841zm-194.413-1.439l1.775-.941c-1.435-.724-1.521.247-1.775.941zm251.803-1.076c-1.49.102-2.75-.422-3.68-1.529 1.49-.129 2.71.405 3.68 1.529zm-82.48-12.49l2.9-1.469c-2.13-.836-2.26-.769-2.9 1.469zm1.59-5.936l.55 1.547c.95-1.009.81-1.505-.55-1.547zm26.89-203.727c2.32 4.97 3.99 10.012 5.69 15.226l.25.475c4.71 9.041 7.91 18.013 11 27.717 1.29 4.05 2.13 8.231 3.4 12.397.72 2.36 1.54 4.721 2.13 7.12.52 2.168.15 3.927.22 6.135.06 2.02.87 3.261 1.32 5.083.61 2.423.34 5.466.33 7.97-.03 5.406-.82 10.819-.84 16.207-.01 4.874-.13 9.645-.39 14.522-.21 3.869-.64 10.702-3.99 13.166.84.675 1.97 1.065 1.64 2.276-.65 2.407-2.32-.062-2.54.203-1.11 1.367 1.08 1.077 1.03 2.125-.04 1.096-.95 2.062-1.56 3.028-3.75 5.989-8.79 10.414-13.92 15.244-1.05.99-2.08 2.221-3.34 2.953-.63.368-2.23.708-2.48.906-1.25 1.033-.72 2.275-2.38 3.023-1.28.576-3.97-.379-4.84.094-.35.53-.71 1.061-1.06 1.591-.22 1.093-.61 1.341-1.18.743-.53.389-2.71 1.485-3.74 2.305l1.89.209-2.12.327c-.66.318-1.09.085-1.28-.7-1.13.054-.96.342-.99 1.359-2.15-.011-2.07-.639-3.79-.962-.72-.135-1.8-.099-2.51-.291.22-.487.45-.974.67-1.461-1.48 1.081-2.91 2.443-3.18 4.355-2.03.134-.43-3.311-2.59-1.113-.54.555-.22 1.531-.58 2.096.48.973.23 1.46-.76 1.459-.88.276-1.75.552-2.62.829l1.59-1.915c-1.45-.478-3.41.487-2.45 2.467-1.15.104-2.42.407-3.56.322-1.25-.095-2.65 1.05-1.54-.81l-1.91.259-1.9.257-.02.026c-.37.471-.63.914.22 1.145-1.49.159-3.29.26-4.29.035-.59-.133-.69-2.028-1.72-.78.55.413 1.11.824 1.67 1.236-9.98 4.099-20.72 5.275-31.05 7.859.03-3.269 1.71-6.041 3.11-8.878 1.66-3.379 2.82-6.93 4.1-10.465 2.46-6.811 4.84-13.703 7.88-20.27 1.52-3.308 3.66-6.281 5.49-9.418 1.81-3.103 2.94-6.402 4.3-9.708 2.72-6.572 6.59-12.505 9.59-18.895 3.01-6.398 7.29-12.017 10.95-18.032 3.76-6.177 6.94-12.708 10.59-18.954 4-6.853 8.25-13.565 12.23-20.428 1.76-3.034 3.15-6.124 4.15-9.495.33-1.107.89-2.276.6-3.46-.74-2.939-2.02-1.214-3.58.069-.57-1.435-1.67-12.297-4.67-8.627-.59.722-.13 1.859-.55 2.574-.44.743-1.26.867-1.83 1.611-1.02 1.301-1.49 2.936-2.6 4.215-2.7 3.119-5.83 6.011-8.32 9.124-.84 1.061-1.95 1.935-2.86 3.143-1.31 1.729-2.25 3.851-4.13 4.955.01-1.257.34-2.006-1.42-1.949 1.96 2.587.96 2.491-.71 4.389-1.38 1.584-2.89 4.232-4.34 6.199-3.2 4.354-6.08 8.487-8.97 13.01-6.68 10.451-12.93 20.988-18.74 31.955-5.63 10.651-11.14 21.422-15.59 32.627-4.55 11.442-7.39 23.452-11.75 34.917 2.67-.675 2.19-3.105 3.1-5.209.55-1.267 1.68-2.253 2.16-3.506.46-1.175 0-2.677.38-3.866 0 .008 1.27-2.08 1.39-2.354.46-1.026.7-2.214 1.11-3.279 1.07-2.82 2.44-5.529 4.16-8.021l1.29 1.46c-.41-3.377-2.27-3.916.84-6.837-.23 1.481-.47 2.962-.71 4.442 1.77-.675 1.05-1.939 1.43-3.298 2.5.417-1 2.462 2.19 2.468-.26 1.646-.1 2.533-1.33 3.088-.43.196-1.84-.008-2.36.122l-.06.015c-.6 1.669.22 3.159 2.12 3.374-.77 2.36-.52 3.112-3 3.368-.3.787.16 1.207 1.38 1.259l-.54 1.161-.53 1.143-.02.184c-.35 3.291-2.37 6.742-3.64 9.812-1.4 3.397-2.24 6.907-3.39 10.391-.89 2.674-1.05 6.698-2.39 9.044-2.14 3.73-4.07-1.459-5.04-3.562-3.07-6.633-5.96-13.324-8.84-20.039-1.64-3.826-3.52-7.537-5.19-11.346-.64-1.443-1.34-2.936-1.6-4.514l-.03-.197c.05.393.87-4.459-.4-1.758-.18-.694-.35-1.388-.53-2.081l1.44.123c-1.25-2.537-.95-5.242-1.18-7.959-.09-.987-1.49-5.307.65-4.244 0-3.784-.5-7.7.77-11.321 1.53-4.36 4.71-8.23 7.33-11.983 1.4 3.033 2.74-2.093 3.67-3.058-.17-.676.01-.973.54-.892l1.3-.11c.57-.908.72-4.332.72-5.276 3.56 1.614 7.58-5.979 9.38-8.068 2.41-2.794 11.28-5.555 10.4-10.065 1.61 1.455 1.18-.011 1.85-1.207.69-1.243 1.86-2 3.01-3 .36-.312 1.2-.878 1.5-1.079.46-.306.98.065 1.55-.472 1.44-1.37 2.34-3.892 3.3-5.588 1.76 1.154 6.96-3.436 8.39-5.059.86-.974 1.06-2.344 1.87-3.214 1.25-1.325 2.42-1.042 2.68-3.046 2.19 1.802 1.82-2.351 3.2-3.648.57.1 1.14.199 1.7.3.52-.773 1.03-1.549 1.54-2.328 2.15-3.2 4.56-5.238 7.31-7.854 1.12-1.062 1.92-2.432 3.01-3.481 1.16-1.119 2.6-1.58 3.85-2.598 1.09-.889 2.45-2.298 3.23-3.466.6-.895.68-2.401 1.24-3.05l.75 1.813c3.27-3.596 5.36-7.068 8.75-10.523.63 1.813.31 2.914 2.14 2.753 1-.087 1.86-1.293 2.62-1.852.25-.188 2.51-1.577 2.57-1.839.37-1.435-2.02-3.066-1.56-4.694.55-1.962 3.87-3.838 5.32-5.096 2.78-2.432 5.57-4.875 8.35-7.309zm-210.744 19.791c.295-.043 3.055 8.314 3.352 9.125 2.062 5.611 3.25 11.473 5.377 17.143 4.276 11.401 9.744 22.572 15.591 33.143 5.339 9.652 8.059 20.335 14.351 29.666 4.209 6.241 8.869 12.141 13.267 18.243 3.486 4.834 6.396 9.682 11.126 13.446 4.78 3.815 8.8 7.999 12.18 13.076 1.56 2.348 3.32 4.58 5.42 6.47 2.31 2.078 5.05 3.047 5.68 6.371l-1.67-.073 1.08 4.02c-4.71-1.79-9.01-2.372-13.92-3.153l3.31-.3c-1.93-1.356-4.62-1.56-6.86-2.364-2.28-.816-4.27-2.045-6.49-2.954-5.32-2.174-10.692-4.171-16.006-6.456-1.613-.695-3.639-1.089-4.894-2.43l-.683-.866c-.091-1.205-.574-1.449-1.448-.731l-.769.308a9.33 9.33 0 01-1.866-1.659c-3.4-3.766-5.386-9.105-7.617-13.597-5.86-11.803-11.85-24.081-15.663-36.743-3.403-11.298-4.561-22.923-6.507-34.47-2.177-12.913-3.526-26.132-6.106-38.958-.23-1.141-1.832-6.025-.235-6.257zm375.574 54.389c1.25 5.231 1.71 10.415 1.63 15.807-.03 2.3.54 4.819.52 6.797-.03 2.536-.71 5.61-.81 8.314-.21 5.22-.87 10.23-1.38 15.356-.17 1.706-.13 2.406-.07 4.215.06 1.755-.04 3.938-1.38 5.145v-3.426c-1.22 2.389-2.75 4.464-5.53 5.023 1.91 1.723.73 2.843-.74 4.239.65.178 1.3.356 1.94.534l-4.2 3.695a4.385 4.385 0 00-.61-.696c-.78.393-.81.842-.09 1.345-1.42 1.187-2.89 2.813-4.65 3.483-.11.044-4.39.011-1.31.907a1480.5 1480.5 0 00-4.13 3.094c-.02-.908.9-1.512-.47-2.033-1.44 2.69-1.74 3.225-4.47 4.593-2.39 1.192-4.77 2.378-7.16 3.567-.27-1.471-1.12-2.979-2.5-3.669.47 1.025 1.21 2.206 1.15 3.396-.1 2.019-.77 1.839-2.62 2.739-2.91 1.415-5.9 3.063-9 3.995-5.92 1.776-11.97 2.712-17.99 3.97-5.79 1.212-11.56 2.913-17.38 3.89-5.76.966-12.54.863-18.37.53-6.33-.362-12.8-.442-19.15-.275-3.54.093-7.2.193-10.62.726-3.24.504-6.37-.145-9.66-.073-3.01.066-3.88-.781-6.45-1.959-2.66-1.219-6.55-1.672-9.46-1.853-1-.063-2.07.743-2.89-.168-1.31-1.451.71-2.191 1.82-3.239 3.16-2.986 4.96-4.769 9.08-6.051-.71-.166-1.42-.331-2.12-.497 15.1-4.06 28.82-10.865 43.24-16.677 5.79-2.334 11.26-4.502 17-6.933 6.6-2.795 13.26-5.616 19.57-9.021 12.37-6.668 23.97-13.822 35.56-21.76 11.88-8.136 21.58-19.057 33.7-27.03zm-142.7 92.809c-.77.424-.58.907.59 1.453.66-.383.46-.868-.59-1.453zm-64.97.169h-.04v.039-.001l.01-.006.03-.032zm-2.3-3.835c-.13 1.279-.25 2.557-.38 3.835h2.64v-.066c-.05-1.57-1.28-2.617-2.26-3.769zm-107.95-43.956c6.36 4.545 10.7 12.11 15.29 18.279 4.76 6.413 9.94 12.446 13.06 19.822-1.59-.464-2.2-2.64-3.4-3.762-1.25-1.17-1.82-1.605-2.7-3.101-2.2-3.737-4.46-6.946-7.26-10.26-5.71-6.77-11.2-12.846-14.99-20.978zm220.59 33.704c-1.92 0-1.36 1.263-1.51 2.958.5-.986 1-1.972 1.51-2.958zm-4.6.194c-.81 2.271 1.56 2.352 0 0zm-146.02-2.888c-1.4.987-.42 3.556.96 2.106l.02-.026-.48-1.032c-.17-.349-.33-.699-.5-1.048zm1 2.061l-.02.019.01.017.01-.018v-.018zm.95-6.246l-.82.904c.42.685.81.493 1.17-.575a5.177 5.177 0 00-.35-.329zM961.282 124.267c5.602 3.646 10.993 7.619 16.322 11.653 1.436 1.087 2.857 2.196 4.282 3.298l1.423 1.106c1.062.409 1.668 1.148 1.817 2.215 1.855 1.231 3.995 2.215 6.087 3.769l-2.05 1.527c1.926 1.207 4.619 1.339 5.054 4.058.515-.723 1.032-1.444 1.549-2.165 6.724 4.66 14.314 7.563 21.204 11.924 6.11 3.865 12.01 9.062 17.19 14.002 2.5 2.375 5.48 4.209 8.19 6.329 1.37 1.071 2.13 1.183 1.98 2.635-.14 1.408-2.19 3.523-2.95 4.696-3.6 5.525-8.27 11.859-9.84 18.36-1.67 6.909 2.52 15.514 4.4 22.153.6 2.123 1.71 4.543 1.93 6.732.19 1.886 1.01 2.502-1.16.776-2.87-2.286-5.14-6.38-7.35-9.34-4.65-6.21-9.02-12.352-14.09-18.257-1.28-1.485-3.65-3.391-4.44-5.172-.32-.736-.08-1.982-.39-2.52-.62-1.099-1.39-.795-2.01-1.653-.72-.998-1.06-2.538-1.51-3.665-.29.912-.58 1.824-.88 2.737-9.919-10.832-17.052-23.782-23.893-36.653-3.418-6.429-6.834-12.833-10.141-19.322-1.771-3.477-3.481-7.017-5.441-10.393-1.487-2.561-5.201-5.875-5.283-8.83zm161.838 109.848l.68-.177c-.61-2.173-1.18-1.977-.68.177zm174.45-63.412c-1.36 1.72-2.46 2.967-4.22 4.205-1.4.985-2.73 1.726-3.72 3.189-1.49 3.152-6.4 5.299-9.27 7.05-3.97 2.424-8.08 4.765-11.96 7.318-8.53 5.601-17.49 9.839-26.75 14.171-8.2 3.837-16.3 7.956-24.44 11.18-4.29 1.697-8.51 3.685-12.73 5.574-2.5 1.118-4.99 2.259-7.49 3.383-1.98.894-5.41 3.501-6.19 1.025-.59.604-1.02 1.259.13 1.453-1.8.841-3.61 1.682-5.42 2.522-1.7.788-2.22 1.696-2.42.024-.11-.883 2.2-3.412 2.65-4.282.66-1.279 1.17-2.629 1.7-3.967 2.39-6.133 3.82-12.494 6.03-18.684l1.71.891c.89-2.269 1.16-.225 2.82-.942.59-.254.65-1.622 1.23-1.916.19-.1 1.01.669 1.37.602 1.41-.253 3.29-.501 4.56-1.174.52-.279 1.4-1.489 1.83-1.588.61-.139 1.45.733 2.22.579 1.21-.243 1.62-1.763 2.78-2.194.88-.323 2.26-.151 3.14-.292 2.17-.348 5.15.025 6.04-2.554 3.2 1.579 6.41-.56 9.33-2.012 1.48-.737 2.81-.745 4.35-1.343 1.67-.649 2.85-1.669 4.61-2.163 2.68-.753 5.07-2.143 7.46-3.325 1.82-.899 6.33-4.876 7.61-2.919 1.43-2.523 6.77-3.512 9.56-4.336 4.07-1.203 8.11-2.394 12.22-3.503 3.62-.973 7.04-2.425 10.59-3.475 2.82-.834 7.88-3.182 10.67-2.497zm-171.79 57.535c-.93 1-1.61 1.735-2.34 2.526 1.57.452 1.57.452 2.34-2.526zm-44.48-10.028c.17.667-.95 1.346-.96 1.907.86.194 1.14.63.85 1.311-.05.416-.11.833-.17 1.249 0 1.973-.83 4.113-1.3 6.003-1.43-1.079-.37-2.424-.63-3.772-.38-1.967-.76-.715-1.53-1.924-1.15-1.801-.28-1.396.65-3.113.41-.776.66-3.278.7-3.331.78-1.076 2.02.241 2.39 1.67zm92.8-2.397v1.874c.98-1.03.98-1.03 0-1.874zm-89.86-6.536c.94.522.72.203.77 1.703-.68-.404-.93-.972-.77-1.703zm233.33-2.284c-.26.617-.45 1.068-.63 1.519l.07-.017.07-.019c.69-.173 1.39-.482.49-1.483zm-232.8.905v.002-.002zm.36-3.036c1.34.315 2.44-.048 1.87 1.709.18-.555-2.08 1.175-2.22 1.323l-.01.004.36-3.036zm-110.358.841c-.758.261-1.957-.034-1.871 1.783l1.871-1.783zm171.958-2.601v1.441l1.79-.542-1.79-.899zm-57.75-1.693c-.36 1.082-.59 1.761-.89 2.665-1.25-1.357-.74-1.955.89-2.665zm204.12-8.578c-.93.148-.97 1.792-1.18 2.607l1.96-.367-.78-2.24zm-288.96.808c.56.441 1.05.824 1.66 1.296-.03-1.784-.03-1.784-1.66-1.296zm155.9-17.164c-.04.741 1.52 2.497 1.62 3.593.26 2.66-1.47 4.863.21 7.356.31-1.471.76-2.967.96-4.46.2-1.484-.32-2.192-.22-3.494.1-1.401 1.52-3.701.04-4.685-1.05-.702-2.55.323-2.61 1.69zm-9.6 6.767c-.85 1.543-.85 1.543-.41 2.594.12-.766.23-1.445.41-2.594zm2.5-3.196c-1.3 1.047-1.09.781-.49 2.572a116.92 116.92 0 013.62-2.968c-1.15-.703-2.16-.385-3.13.396zm5.11-4.538c-.13.082-.24.178-.34.291.26.383.51.764.76 1.146.84-.429.7-.908-.42-1.437zm2.97-5.803c-1.57.919-1.04 2.131-.68 3.282l.08-.112c.69-.953 1.36-1.912.6-3.17zm18.68-.512c-1.29 1.056-.62 1.749.04 2.846.22-.056.44-.111.65-.166l-.69-2.68zm-166.83 2.048c.96-.232.71.028.39-1.476-.94-.072-1.07.42-.39 1.476zm146.28-9.189c-.85.187-.82.755.08 1.704.96-.223.94-.79-.08-1.704zm-2.9-7.842l-.69 2.696c1.74.366 1.02-1.817.69-2.696zm4.84-1.814c-.21.967-.41 1.933-.62 2.899.16.12.32.24.49.36l1.89-2.64-1.76-.619zm-4.43-2.935c-.78.098-.7 1.405.42 1.231l-.42-1.231zm-168.722-3.572h-1.703c0 1.012 1.732.715 1.703 0zm176.912-28.827c-.18.843-.31 1.428-.44 2.013.6-.495 1.48-.942.44-2.013zm-2.33-10.879h.01c-2.06.094-1.3 1.757-1.77 3.062 1.78-.332 1.44-1.689 1.75-3.006l.01-.056zm0-.009v.009h.01l-.01-.009zm-13.42-3.057c-.48 1.437-.09 1.589-1.81.938.93 1.746 2.95.009 4.21 1.032l-2.4-1.97zm.02-3.485c.45 1.559.83 2.493 2.54 2.098-.87-.72-1.52-1.252-2.54-2.098z" fill="#85A090"/><path d="M1064.24 325.514c.58.103 1.96-4.629 2.21-5.341.16-.464 1.2-2.459 1.02-2.868-.14-.32-2.94-1.312-3.23-1.441v9.65zm-229.238-118.65c.368-4.994-.064-10.084.71-15.04.282-1.814 3.618-13.063-.532-9.265-3.253 2.976-3.694 8.559-3.523 12.572.122 2.863-1.177 12.25 3.345 11.733zm260.168 130.205c-4.25-4.172-9.19-8.232-14.74-10.562-3.23-1.36-3.26-.939-4.67 2.176-1.26 2.791-2.44 5.491-3.45 8.386h22.86zm-58.41-.635c-4.93-7.86-13.32-14.823-21.25-19.618.73 1.854.76 3.776 1.09 5.707.34 1.943 1.21 3.453 1.75 5.3.96 3.328.21 7.241.21 10.671 6.07-.686 12.14-1.374 18.2-2.06zm16.59-39.519c-.15-6.465 2.45-12.443 4.04-18.593-8.56 1.431-9.67-13.851-14.8-17.323 1.03 6.945 1.48 13.778 2.25 20.702.34 3.056.44 7.26 1.48 10.077 1.08 2.932 4.35 3.76 7.03 5.137zm18.07 12.019c1.72-1.581 3.08-5.106 4.34-7.257 1.81-3.118 4.07-5.688 6.38-8.459 4.31-5.178 9.32-9.821 13.51-15.034-4.75.475-9.5 1.577-14.23 2.726-2.52.61-5.08 1.419-7.46 2.441-1.97.846-4.25.931-6.07 1.718-3.67 1.59-2.92 11.251-3.37 14.695-.23 1.805-1.15 3.641.02 5.209 1.32 1.758 5.01 2.981 6.88 3.961zm-166.693 30.051c-7.132-1.247-13.776-3.022-19.541-7.64-4.919-3.94-9.269-8.721-13.396-13.438-.953-1.088-1.812-2.213-3.284-2.598-1.09-.286-2.168.325-3.21-.344-.919-.59-.861-1.817-1.545-2.455-1.124-1.048.5-.47-1.26-.819-1.124-.223-3.083.755-4.272 1.036-2.9.686-5.849 1.132-8.742 1.773-2.833.626-4.406 2.837-6.947 4.25-2.538 1.409-5.007 2.009-7.26 3.897-2.332 1.954-5.112 3.056-7.41 4.866-1.916 1.51-1.852 4.116-3.949 5.584-.897.628-2.127.689-2.918 1.47-.922.909-1.324 2.431-2.116 3.474-2.041 2.689-3.558 4.047-4.668 7.372-1.121 3.356.217 6.14-.301 9.578-.463 3.068-2.236 5.802-1.65 8.899.548 2.9 2.125 5.436 1.59 8.529-.302 1.739-1.375 3.02-1.108 4.779.197 1.307 1.221 2.566 1.726 3.776 1.058 2.538 1.982 5.862 1.446 8.626-.261 1.348-1.431 2.147-1.754 3.24-.455 1.539.667 3.442 1.171 5.35.921 3.477 1.272 7.069 2.063 10.572.472 2.088.698 5.71 2.882 6.632 2.614 1.103 4.76-1.152 7.079 1.699 3.756 4.617 3.787 11.546 7.574 16.4 1.633 2.094 3.861 4.092 6.625 4.377 1.61.165 2.759-.6 4.304-.034 1.176.43 2.125 1.535 2.733 2.576 1.267 2.17.854 4.91 2.03 7.126.765 1.439 3.594 4.607 4.975 5.358 2.139 1.167 3.185.62 4.912 2.859 1.967 2.55 3.463 5.847 5.958 7.965 2.409 2.046 4.012.958 6.774 1.183 2.753.225 3.661 2.744 5.195 4.76.578.757 1.861 2.995 2.786 3.267 1.32.39.909-.214 2.096-.747 2.385-1.067 3.915-1.766 5.759.684 1.867 2.481 2.304 5.882 4.183 8.438 2.032 2.768 3.504 2.382 6.6 2.773 2.741.346 4.779 2.447 6.776 4.159 3.308 2.836 4.27 2.875 8.284 1.834 2.38-.618 3.678-.442 5.227 1.529 1.658 2.109 3.187 6.619 5.588 7.8 1.877.923 3.837-3.088 6.491-2.369 2.301.624 5.132 4.218 7.245 5.549 2.028 1.275 5.053 3.442 7.572 3.534 1.153.042 2.059-.761 3.136-.771 1.267-.01 3.147.717 4.305 1.228 2.504 1.106 3.903 3.493 6.35 4.817 3.763 2.036 5.277.158 8.799-1.192 3.722-1.426 5.374.464 8.528 1.773 2.377.987 5.957 2.084 8.537 2.454 3.232.462 6.077-1.939 9.355-1.957 1.648-.01 2.624.315 3.95 1.308.58.435 1.1 1.046 1.62 1.55 1.62 1.566.86 1.349 2.7.653 2.22-.84 4.65-2.27 7.2-1.729 1.9.403 3.86 4.267 5.44 4.211.74-.027 2.74-2.502 3.34-3.043 1.41-1.289 2.32-2.36 4.39-1.908 1.55.34 2.35 1.64 3.64 1.269 1.1-.315 2.64-2.524 2.99-3.485.96-2.597.33-6.137.65-8.893.45-3.813 1.38-7.567 2-11.355.59-3.594.67-7.221 1.18-10.813.38-2.684 2.07-6.143-1.37-7.436-2.69-1.014-4.35-.442-6.83-2.422-2.81-2.235-4.74-2.061-8.22-1.987-7.47.157-12.66-4.766-19.413-7.179-6.133-2.192-11.983-5-18.097-7.302-3.314-1.25-5.764-2.96-8.771-4.593-2.732-1.483-6.355-1.111-9.353-2.097-6.047-1.991-11.782-4.494-17.829-6.294-3.331-.991-6.777-1.369-10.128-2.426-3.795-1.197-6.34-3.471-9.184-6.21-3.214-3.096-12.179-10.25-10.199-15.495 2.075-5.494 12.085 5.667 14.59 7.19 2.152 1.306 4.539 2.893 6.837 3.536 3.108.868 5.572-.334 8.627.949 6.344 2.665 12.478 6.694 19.051 8.646 2.939.873 6.443.705 9.067 2.257 2.712 1.603 5.206 3.462 8.056 4.951 5.937 3.102 11.887 5.941 18.166 8.249-2.048-11.066-4.238-22.301-6.92-33.257-2.812-11.485-1.834-23.448-3.174-35.144-5.021 3.225-10.197 5.819-15.317 8.617-4.945 2.703-10.173 4.002-15.461 5.753-5.81 1.925-11.906 4.604-17.994 5.37-6.109.769-12.946 1.472-19.104 1.11a235.043 235.043 0 01-35.548-4.824c-1.831-.394-3.447-1.108-5.356-1.021-1.192.054-2.883.928-3.965.273-2.274-1.375-.421-5.053.905-6.406 1.784-1.82 3.712-2.495 5.418-4.638 2.456-3.089 4.927-6.135 7.562-9.076 4.969-5.547 10.701-11.049 14.207-17.683 3.787-7.162 6.617-14.701 9.646-22.192-3.379.043-6.93-.357-10.322-.465zm166.833 8.121c-3.53.313-6.57.077-9.85.341-4.74.38-10.18-.059-14.88-.702-4.41-.604-8.73.483-13.07.085-4.51-.414-9.21-.451-13.89-.883-2.93-.269-2.74.446-3.54 3.139-.82 2.762-1.85 5.147-3.22 7.685-2.56 4.75-5.56 9.087-9 13.234-1.6 1.914-3.24 3.784-4.874 5.662-1.936 2.226-3.39 3.113-2.74 6.169 1.1 5.164 2.757 10.251 3.455 15.485.669 5.012.659 10.082 1.559 15.056.98 5.343 2.22 10.643 3.13 15.996.85 5.065 1.5 10.205 2.12 15.302.52 4.217.19 12.041 4.2 14.751 1.89 1.278 5.31 1.469 7.43 1.264 2.2-.211 4.37-1.797 6.53-1.743 1.97.05 2.78 1.372 4.01 2.724 2.04 2.23 2.1 2.772 4.85 2.787 1.76.01 2.01-.578 3.73.663 1.76 1.272 2.92 3.626 5.23 4.174 3.78.895 10-4.058 13.26-5.686 9.86-4.93 21.09-6.171 31.11-10.295 4.7-1.937 9.46-4.496 13.83-7.178 2.22-1.356 4.35-2.778 6.26-4.55 1.78-1.655 5.44-4.266 6.26-6.452-5.55 0-10.84 2.345-16.46.923-5.42-1.371-4.04-8.528-3.45-12.568-7.71 1.147-22.34 5.322-20.53-7.652.65-4.653 4.09-8.245 7.69-10.971 2.76-2.097 7.6-3.813 9.12-7.125-6.04-.801-20.77 1.55-21.66-7.24-.96-9.336 8.32-14.237 15.57-17.35 8.83-3.795 18.18-7.306 27.72-8.864 4.2-.686 8.45-1.576 12.67-1.784 3.96-.197 9.47.46 12.15-3.145-5.43-.972-10.22-2.106-15.21-4.471-2.04-.964-4.23-2.4-6.15-3.582-2.15-1.327-3.13-4.272-5.28-5.374-1.88-.966-4.61.319-6.71.527-3.36.33-6.71.676-10.08.897-7.03.462-14.25 1.033-21.29.751zM889.83 266.81c3.089 1.109 6.189 2.191 9.276 3.305 2.62.946 6.434 1.663 8.579 3.5 6.33 5.42-3.977 5.428-7.172 5.622 1.375 4.771 3.177 9.553 4.287 14.381.367 1.594 1.257 5.308-.183 6.562-1.742 1.518-3.214-.538-4.431-1.942-6.689 7.217-15.896 10.962-24.511 15.341 6.413 5.825 12.57 12.378 21.35 14.341 4.163.931 8.117 1.96 12.327 2.671 1.623.274 3.235.969 4.824 1.42.705.2 2.111.903 2.822.798 1.329-.195 1.307-1.051 2.009-2.594 3.524-7.73 6.963-15.633 12.736-21.96 2.938-3.218 6.233-5.662 10.159-7.59 4.064-1.996 8.762-1.85 12.947-3.624-4.912-7.111-10.1-14.226-12.958-22.467-.849-2.448-.387-3.356-2.592-3.713-1.528-.249-2.287.672-3.65-.558-3.275-2.952.628-6.387 2.631-8.447 4.819-4.953 10.089-10.257 13.429-16.383 1.406-2.579 2.608-5.613 1.621-8.425-1.524-4.345-3.88-8.649-6.014-12.718-3.95-7.536-7.609-15.922-12.603-22.82-2.565-3.546-5.437-6.932-7.691-10.698-1.824-3.047-1.902-6.007-6.007-4.541-1.586.567-1.98.761-3.179 1.786-1.298 1.107-1.265 1.931-3.177 2.446-1.682.454-3.59.182-5.303.533-2.387.49-3.47 1.75-5.379 3.281-3.436 2.755-6.874 1.814-10.781 2.832-1.442.376-1.665 1.016-2.824 1.855-1.861 1.346-4.256 1.598-6.436 2.118-2.165.517-4.649.883-6.59 1.942-1.811.989-3.129 2.556-5.079 3.408-1.755.767-4.589.745-5.235 2.025-.897 1.783.37 5.486.772 7.277.906 4.026 9.018 25.821.787 25.705.598 2.944.777 5.426-2.954 4.203-3.159-1.035-7.412-3.252-10.754-2.02-2.739 1.01-5.988 5.099-6.729 7.917-1.13 4.306.682 5.583 4.209 7.283 4.088 1.971 7.044 2.308 11.404.789 1.703-.593 3.458-1.23 4.924-2.297 1.621-1.18 2.295-2.67 4.476-2.717 1.53-.032 3.188.689 3.915 2.068.422.801.114 1.653.357 2.447.422 1.385.224 1.083 1.227 2.25 3.135 3.645 6.692 4.801 11.164 5.408zm31.652 267.328c3.458.695 6.798-.382 10.268.307 3.067.608 6.438 2.613 9.209 4.029 5.8 2.965 12.871 2.35 19.347 3.198 3.351.439 7.143-.14 10.301 1.032 3.06 1.134 5.675 2.747 8.934 3.202 6.323.881 13.007.109 19.252.003 6.457-.108 12.477 1.387 19.177.138 1.35-.252 2.76.275 3.91.046.87-.174 1.72-1.146 2.57-1.493 2.78-1.135 6.41-1.057 9.35-1.253 6.82-.454 13.23-.214 19.85-1.964 2.48-.655 20.98-3.047 20.88-3.911-9.09.518-18.48.093-27.3-2.347-6.57-1.815-11.78-5.067-17.73-8.251-1.6-.856-3.26-1.396-5.1-1.486-2.52-.123-2.31.213-4.21 1.989-3.6 3.367-6.27 3.04-9.85-.162-3.59-3.21-3.92.538-7.92.854-4.144.326-4.633-4.718-8.791-4.06-1.925.306-3.451 1.725-5.437 1.583-1.836-.132-2.971-1.415-4.625-2.005-1.93-.687-4.174-.489-6.181-1.011-2.255-.589-4.069-2.074-6.434-1.791-3.677.44-6.13 3.301-10.181 2.443-4.315-.914-6.711-5.277-11.251-5.155-5.03.135-8.781.454-13.473-1.811-1.586-.764-2.615-2.011-4.104-2.824-1.88-1.026-3.866-.121-5.834-.623-3.776-.962-6.087-5.875-8.224-8.803-1.756-2.408-2.008-2.38-4.925-2.831a28.139 28.139 0 01-6.283-1.744c-2.264-.923-4.27-2.616-6.578-3.381-2.044-.677-4.141-.183-6.071-1.246-1.882-1.035-3.293-3.441-4.625-5.059-.668-.812-1.33-1.629-1.996-2.443-1.498-1.835-1.291-1.95-3.303-2.297-1.964-.339-3.486-.084-5.304-1.181-1.998-1.204-3.229-3.302-5.071-4.651-1.597-1.171-3.318-1.306-5.167-1.977-2.433-.882-4.329-2.36-6.457-3.778-.228 4.23.659 10.314-2.342 13.561-.784.849-1.829 1.301-2.477 2.352-1.14 1.844-.899.774-.485 3.17.478 2.768.398 4.007-.608 6.451-.191.462-1.333.558-1.517 1.052-.262.699.537 2.649.715 3.435.338 1.493.544 3.395 1.414 4.617 1.171 1.641 3.73 3.336 5.154 4.903 1.67 1.834 3.35 3.501 5.341 4.997 3.293 2.475 7.861 6.093 11.876 7.174 2.275.614 4.666.347 6.971 1.062 2.341.726 4.083 2.266 6.265 3.173 9.174 3.811 19.294 4.067 29.07 4.767zm123.668-21.585c1.47.853 1.97.168 3.34.234 1.22.059 2.63.224 3.96.23 2.5.01 5.57-.622 8-1.27 4.6-1.224 9.22-2.008 13.79-2.884 3.9-.745 7.7-2.437 11.61-3.894 5.12-1.914 10.57-2.327 15.98-2.627 4.96-.275 9.81-.827 14.75-1.231 4.97-.405 9.79.224 14.69-.879 2.28-.515 4.8-.879 6.89-1.916 2.41-1.198 4.65-3.128 7.02-4.475 2.82-1.604 10.09-3.818 11.22-7.202-2.27.542-7.29 2.451-9.27.921-2.03-1.571-1.29-5.666-.48-7.629 1.21-2.952 3.81-3.811 6.12-5.765 1.67-1.409 3.11-3.087 4.59-4.686.75-.826 1.51-1.649 2.26-2.47-.31-.848-.92-.868-1.84-.057-4.31.182-16.11 9.469-16.56 1.127-.25-4.465 2.43-6.567 5.09-9.666 2.64-3.067 4.69-6.542 6.92-9.903-4.33.703-8.16 2.962-12.4 4.161-4.5 1.274-9.38 2.73-13.96 3.25-1.75.197-6.32 1.857-7.79.977-1.18-.713-1.44-3.991-1.47-5.186-.14-4.56 3.46-8.214 5.61-11.997-5.02 3.061-8.52 7.388-13.11 10.915-4.55 3.497-8.52 6.707-13.69 9.338-4.71 2.403-10.04 3.581-15.09 5.087-5.16 1.538-10.17 3.088-15.42 4.23-5.79 1.257-11.56 3.313-17.38 4.272-1.43.236-4.6-.545-5.41.404-.67.789-.18 6.357-.28 7.623-.53 6.238-1.77 12.434-2.78 18.606-.51 3.099-1.89 7.169-1.65 10.306.16 2.142.19 2.17 2.92 2.277 1.31.051 2.53-.313 3.82-.221zm60.22-89.655c-.7.146-.89.474-.57.985 9.93-2.178 19.64-6.293 29.87-7.36 2.7-.282 5.03-1.358 7.71-1.569 1.23-.097 2.49.07 3.72.087.87.011 2.85.58 3.45.491 2.27-.332 4.71-2.851 6.49-4.186 2.11-1.589 4.78-3.19 6.49-5.258 6.67-8.087 8.35-18.335 4.02-27.78-1.04-2.264-2-4.911-3.45-6.947-1.27-1.786-4.43-2.95-5.02-4.663-.25-.759.46-2.37 0-3.029-.41-.605-3.4-.734-4.07-.875-2.97-.634-5.96-1.308-8.66-2.773-.76 2.168-.52 3.472-2.65 4.757-2.41 1.455-6.07 1.153-8.72 1.918-5.76 1.664-11.96 2.101-17.86 3.742-13.36 3.719-27.32 8.154-39.28 15.311 5.41 2.12 12.2 1.01 17.87 1.048 4.04.028 14.66-2.494 16.8 1.958 2.73 5.682-4.61 9.405-8.3 11.738-5.76 3.655-11.75 6.987-17.01 11.34 3.05.112 5.88-.594 8.82-1.304 3.18-.765 6.43-.813 9.59-1.589 4.85-1.189 11.23-6.255 16.48-4.202 4.61 1.801 3.08 8.774-.08 11.148-2.06 1.546-4.71 1.516-7.1 2.203-3.27.942-5.74 2.976-8.54 4.809zM984.62 146.307c-9.945-7.386-19.534-15.276-29.929-22.039.091 3.249 4.505 7.417 6.086 10.3 2.282 4.162 4.409 8.417 6.541 12.658 3.817 7.588 7.947 15.009 11.793 22.586 7.896 15.555 19.455 28.125 30.679 41.218 5.97 6.964 10.98 14.485 16.62 21.691 1.14 1.447 2.29 3.414 3.71 4.615 2.79 2.344 1.24-.478.67-2.459-1.33-4.63-2.63-9.268-3.91-13.911-1.12-4.046-2.9-8.321-2.08-12.561.79-4.07 3.2-7.579 5.18-11.137 1.91-3.41 3.97-6.662 6.1-9.941.97-1.489 2.16-2.613 1.42-3.963-.78-1.45-3.91-3.055-5.25-4.031-7.34-5.364-13.58-12.122-21.18-17.246-4.61-3.109-9.91-5.323-14.825-7.894-4.197-2.194-7.849-5.05-11.625-7.886zm249.04 142.185c-1.72-1.107-3.03-2.053-4.98-2.551-1.15-.293-2.36-.268-3.51-.642-3.46-1.135-6.44-2.944-10.1-3.727-6.24-1.331-12.63-3.073-18.95-3.022-7.03.058-13.9.248-20.92 1.035-3.71.417-7.36 1.028-11.06 1.545-3.52.492-6.94.185-10.21 1.878 2.35 1.346 5.21 1.286 7.83 1.889 2.09.483 3.98 1.46 5.96 2.023 5.54 1.57 11.18 3.262 16.78 4.687 4.67 1.19 9.3 2.693 13.89 3.934 4.32 1.167 9.14 3.958 12.93 6.371 4.44 2.828 7.7 6.234 11.37 10.007 3.87 3.992 7.94 7.66 11.35 12.083 7.24 9.386 10.85 21.01 15.78 31.727 2.46-7.027 4.35-13.866 7.04-20.673 1.52-3.846 3.51-7.446 5.01-11.37l1.83-4.828c1.03-2.709 1.33-3.249-.19-5.748-1.8-2.957-3.91-5.539-6.76-7.52-2.66-1.845-4.2-4.182-6.95-5.803-5.57-3.274-10.41-8.033-16.14-11.295zm-49.02-59.329c10.19-3.813 19.85-9.327 29.81-13.385.88-.359 1.72-.068 2.65-.47 1.24-.537 2.32-1.658 3.58-2.248 2.46-1.147 5.07-1.999 7.54-3.168 6.04-2.864 12.09-5.716 18.14-8.56 9.63-4.525 18.32-10.677 27.41-16.184 3.89-2.355 7.63-5.195 11.03-7.769 3.83-2.901 6.87-7.469 11.12-9.836-1.48-.72-5.84 1.122-7.42 1.591-2.3.686-4.76 1.58-7.18 2.369-6.2 2.015-12.76 3.193-18.83 5.463-6.56 2.453-13.7 3.943-20.41 6.055-7.4 2.332-14.96 4.098-22.37 6.35-6.45 1.955-12.59 4.446-19.03 6.447-3.45 1.073-7.15 1.97-10.35 3.711-2.79 1.522-2.85 3.211-3.73 6.09-1.9 6.233-3.56 12.549-6.02 18.6-.23.574-4.48 8.077-4.39 8.206.6.838 7.59-2.688 8.45-3.262zm-204.246 45.793c3.03.064 5.645.908 8.626 1.388 3.186.514 6.495-.115 9.618.698 2.492.646 4.852 1.758 7.342 2.436 3.03.827 6.35.227 9.3 1.34 2.92 1.105 5.84 3.681 8.57 5.28 1.9 1.117 4.24 4.722 6.58 2.438 1.34-1.295-.19-6.373-.59-8.602-.45-2.473.09-6.578-1.63-8.597-2.31-2.7-6.62-2.675-9.71-2.694-3.23-.019-6.32-.644-9.45-1.422-7.32-1.82-14.771-4.043-21.49-7.507-5.853-3.016-11.446-6.859-16.447-11.155-5.313-4.563-8.568-9.986-11.904-16.021-.797 2.952 1.062 6.875 1.046 9.937-.022 3.994-1.047 7.886-2.766 11.477-1.475 3.079-3.446 6.22-5.642 8.854-1.223 1.467-2.657 2.737-3.965 4.126-1.862 1.978-2.073 2.259-.881 4.752 1.602 3.348 4.006 6.213 5.935 9.363.272.443 1.564 3.426 1.949 3.639 1.581.873 3.128-.825 4.455-1.279 4.241-1.45 7.917.226 11.604-3.003 2.751-2.409 5.406-5.596 9.45-5.448zm45.116-26.53c-4.71-11.125-13.77-21.035-21.1-30.612-3.31-4.324-7.583-7.449-11.067-11.56-3.739-4.412-7.425-8.709-11.029-13.231-3.674-4.611-6.95-9.287-9.603-14.581-2.579-5.148-5.685-9.935-8.319-15.074-5.339-10.419-10.174-21.048-15.718-31.378-2.58-4.807-4.846-9.473-6.731-14.605-.573-1.558-2.606-9.649-3.03-4.835-.257 2.915 1.21 6.567 1.62 9.463.838 5.904 1.681 11.81 2.436 17.725.824 6.461 2.619 12.789 3.316 19.257 1.234 11.461 3.177 23.72 7.19 34.582 4.341 11.753 9.369 23.083 14.889 34.31 2.495 5.074 4.835 10.752 9.135 14.546 4.703 4.149 9.52 7.65 15.285 10.206 5.237 2.321 11.366 4.944 17.056 5.63 7.12.858 12.62 1.423 18.96 5.245-.71-2.634-.25-4.151-.53-6.748-.3-2.775-1.85-5.734-2.76-8.34zm8.08 61.568c-.03-2.684-.56-5.11-.9-7.725-.28-2.16-.8-3.15-2.12-4.827l-.75-.947c-.42-1.164-1.02-1.227-1.8-.189-.64-.09-1.18.214-1.94.038-.86-.202-2.39-1.394-3.41-1.727-2.64-.862-4.32-2.87-6.94-3.751-.43-.146-1.42.383-2.02.265-.61-.705-1.37-1.017-2.29-.938-.68.079-1.36.109-2.05.09-3.69-.209-6.16-2.106-9.55-3.097-3.701-1.081-7.33.058-11.027-.206-2.877-.205-5.037-1.697-8.04-1.595-3.928.134-2.884 1.85-2.411 5.315.412 3.013.083 4.875 3.5 5.367 3.146.453 5.882-.987 9.029.03 3.333 1.076 6.085 3.405 8.484 5.863 1.295 1.329 2.035 2.596 3.865 2.964 1.3.262 3.16-.423 4.47-.515 3.57-.247 6.65.781 9.7 2.608 6.26 3.749 11.71 8.829 16.96 13.838.09-3.616.44-7.374-.76-10.861zm95.8-30.044c5.59-6.023 15.65-8.21 23.17-10.562-2.18-2.447-6.35-4.944-9.62-4.916-3.37.031-7.81 1.953-11 3.081-6.63 2.349-11.69 7.554-16.81 12.134-12.29 11.008-22.38 23.485-32.89 36.146 4.69 2.95 9.75 6.422 13.65 10.352 1.82 1.829 3.96 3.798 5.47 5.898.6.824.9 1.77 1.4 2.619.99 1.677-.04 1.871 2.24 1.739-4.5-10.287-6.57-24.053-4.17-35.059 1.38-6.312 5.89-11.581 11.18-15.066 2.68-1.764 5.58-3.343 8.65-4.313 1.9-.599 7.79-.338 8.73-2.053zm193.45-101.002c.5-3.66.52-7.34.85-11.016.31-3.51 1.07-6.774.36-10.326-2.58.981-3.22 1.582-5.11 3.479-2.23 2.237-4.33 4.296-6.95 6.015-5.79 3.811-11.14 8.484-16.37 13.015-10.7 9.258-21.78 19.326-34.59 25.683-12.03 5.964-23.67 12.499-36.13 17.71-5.81 2.431-11.4 4.593-17.28 7.047-6.87 2.866-13.49 6.327-20.47 8.878-3.38 1.233-6.73 2.54-10.12 3.749-3.58 1.278-8.36 1.838-11.49 3.812-2.6 1.638-4.89 4.601-7.12 6.712-3.94 3.725 1.12 2.743 3.83 3.103 3.42.457 6.25 1.372 9.23 2.844 2.65 1.312 5.71.468 8.56.756 3.31.333 6.04-.336 9.27-.392 3.99-.069 7.94-.357 11.94-.307 6.84.085 13.77.442 20.58.116 2.96-.142 5.93.037 8.9-.114 3.46-.175 6.48-1.4 9.84-1.983 13.06-2.263 26.19-4.603 38.19-10.429 12.74-6.19 23.49-13.549 33.51-23.673 5.76-5.809 7.13-11.374 7.79-19.48.68-8.452 1.94-16.765 2.78-25.199zm-235.57 345.539c8.09-1.11 16.38-2.622 24.2-5.059 3.86-1.202 7.7-2.406 11.59-3.495 4.37-1.224 5.15-2.025 6.57-6.301-5.43 1.284-10.62 2.763-16.22 3.626-2.82.432-5.39 1.498-8.13 1.909-3.18.474-6.48-.527-9.63-.166-2.97.341-5.91 2.283-8.83 3.093-2.53.704-5.06.94-7.55 1.716-2.43.755-5.05 1.548-7.55 2.031-2.36.455-4.65-.255-6.73 1.285 3.18 1.339 8.03 1.774 11.32 1.433 1.99-.207 4.09-.313 6.09-.071 1.62.194 3.35.967 4.87-.001zm52.63-86.391c.01-4.49.61-8.776 1.23-13.221-4.87-.804-8.74 2.54-13.09 3.978 3.52 6.312 3.94 10.436 1.86 17.615 2.26-.995 4.53-1.803 6.79-2.743.76-.315 1.81-.682 2.41-1.251 1.55-1.459 1.01-2.148.8-4.378zm-86.36-103.993c-.09-5.394-.12-10.785-.37-16.175-.12-2.394 0-4.967-.39-7.323-.47-2.759-2.45-3.838-4.6-5.749-.73 5.294.34 11.677.81 17.085.28 3.196.27 5.672 1.17 8.679 1.05 3.514-.01 5.094 3.84 6.18-.15-.899-.31-1.798-.46-2.697zm-64.993 37.341c5.257-3.013 8.552-7.515 12.373-12.068 5.03-5.979 8.38-10.599 10.36-18.279 1.4-5.426 2.88-14.059-.18-19.184-1.37-2.299-3.96-6.29-6.45-7.35-2.61-1.108-6.336.802-8.714 1.818-6.313 2.695-11.831 6.778-17.922 10.015-6.69 3.554-13.093 8.22-19.167 12.736-11.99 8.915-22.927 17.701-34.286 27.313-4.459-5.213 5.886-14.556 9.75-17.747 5.678-4.691 11.045-10.059 17.027-14.627 7.05-5.382 14.27-10.444 21.856-15.048 3.509-2.13 7.12-4.958 10.889-6.573 1.552-.665 2.969-.898 4.427-1.821 1.266-.802 2.332-1.839 3.792-2.309-1.045-1.924-7.429-4.715-9.623-4.958-4.275-.475-9.773.925-13.924 1.852-7.704 1.721-15.94 3.068-23.105 6.218-3.304 1.453-5.579 3.438-8.274 5.919-3.387 3.115-4.803 6.84-6.695 11.009-3.957 8.727-8.243 17.335-12.034 26.13-3.482 8.075-6.961 14.89-13.121 21.293-2.595 2.699-5.246 5.406-8.057 7.881-1.534 1.35-8.882 6.207-7.626 7.998.497.709 6.094.431 7.156.534 2.231.217 4.432.58 6.668.742 4.453.322 8.404 1.004 12.851.884 4.391-.117 8.668.391 13.049.007 4.144-.364 8.246-.878 12.37-1.419 9.241-1.211 17.957-5.474 26.57-8.815 3.834-1.488 7.189-3.394 10.824-5.08 3.003-1.393 7.516-4.39 9.216-7.071zm-25.749-82.057c-1.297-.033-3.748-.682-4.277.495-.295.658.792 2.78 1.064 3.597.489 1.468.549 2.671 1.808 3.1 1.264.432 4.734-.621 6.096-.744 1.796-.16 3.374-.487 5.165-.803-.554-1.522-.918-3.932-2.316-4.895-1.579-1.09-5.799-.623-7.54-.75zm241.452 23.723c-1.31-1.509-2.69-1.274-4.39-1.806-2.13-.67-4.1-1.974-6.12-2.916-4.17-1.944-8.75-2.613-13.03-4.319-8.21-3.273-16.18-6.37-24.43-9.091-4.35-1.434-8.76-2.66-13.27-3.464-4.2-.746-10.11-2.66-14.28-1.935-7.02 1.217-16.65 8.933-19.13 15.546-1.43 3.843-.36 7.452.42 11.29.96 4.716 1.8 9.58 3.67 14.045 3.25 7.726 12.07 9.84 19.18 12.063 7.89 2.47 15.81 3.57 23.7 5.969 3.98 1.212 8.07 1.775 12.02 2.965 3.8 1.145 7.4 1.635 11.43 2.461 10.52 2.159 21.21 3.691 31.8 5.403 5.53.896 11.02 1.862 16.53 2.803 2.34.397 4.73.322 7 1.018 2.6.797 4.25 1.832 7.14 1.192-4.96-9.692-8.19-20.081-14.98-28.736-6.79-8.666-13.99-16.72-23.26-22.488zm-79.97-58.776c4.23-.854 8.48-1.554 12.61-2.659 1.66-.444 3.46-1.266 5.01-2.014 1.73-.829 2.16-1.885 3.48-3.001.55.254 1.06.209 1.53-.134.22-.741.67-1.319 1.35-1.734 1.13-1.199 2.57-2.056 3.82-3.124 3.13-2.667 6.02-5.673 8.99-8.515 3.06-2.94 5.71-6.004 7.66-9.82.47-.916 1.68-2.553 1.95-3.334.37-1.052.27-2.282.77-3.283.42-.841 1.55-1.364 2.02-2.295.71-1.401.58-3.369 1.11-4.896 1.19-3.443 2.64-6.822 3.65-10.324 2.31-8.01 1.97-17.466 1.66-25.743-.15-4.356-1.54-8.616-2.68-12.792-1.08-3.997-1.87-8.298-3.45-12.132-1.12-2.692-2.86-4.984-3.93-7.723-1.48-3.829-3.01-7.473-4.16-11.505-2.31-8.159-5.79-15.646-9.74-23.131-1.66-5.183-3.36-10.256-5.68-15.218-4.46 3.895-9.3 7.594-13.38 11.864-3.33 3.494-7.19 7.384-10.82 10.539-4.14 3.59-8.02 7.032-12.44 10.256-2.41 1.76-4.3 4.011-6.48 6.023-2.27 2.093-4.83 3.317-6.92 5.597-1.99 2.157-3.56 3.085-5.71 4.657-1.6 1.177-2.78 3.166-4.35 4.481-4.41 3.685-8.04 8.142-12.13 12.144-9.16 8.971-17.7 18.029-25.73 28.109-1.09.643-2.38 2.987-3.25 4.178-1.59 2.16-2.69 4.634-4.16 6.868-1.62 2.456-3.47 4.829-4.87 7.421-.72 1.336-1 3.103-1.84 4.317-.48.684-1.42 1.075-1.94 1.801-3.63 5.123-2.43 9.657-.7 15.239 1.78 5.698 3.07 11.286 5.62 16.704 2.75 5.821 5.17 11.771 7.74 17.671 1.2 2.767 2.46 5.508 3.73 8.245.75 1.623 1.81 5.794 3.57 6.762 3.18 1.758 2.91-3.474 3.43-5.516.64-2.558 1.69-5.003 2.43-7.535 1.62-5.551 5.6-11.737 6.08-17.386 4.07-8.557 5.1-18.252 9.66-26.711 1.94-3.612 3.44-7.176 5.79-10.65 2.52-3.728 4.54-7.199 6.1-11.326 1.68-4.429 4.47-9.347 7.15-13.259 1.22-1.787 2.57-3.207 3.69-5.019 1.5-2.396 2.9-4.857 4.37-7.271 5.76-9.488 12.25-18.984 18.86-27.908 2.87-3.873 5.72-7.859 8.93-11.063 1.6-1.596 9.3-12.991 11.31-12.423 5.89 1.666-9.75 24.978-11.23 27.484-5.46 9.258-10.27 18.991-15.99 28.085-5.96 9.492-11.67 18.953-16.69 28.986-2.67 5.337-4.31 11.17-7.32 16.322-2.87 4.927-5.62 9.604-7.89 14.843-2.53 5.844-4.46 12.069-6.62 18.062-1.81 5.041-6.02 10.683-6.07 16.127 4.22-1.057 8.56-1.753 12.86-2.527 4.44-.799 8.85-2.487 13.24-3.704 8.8-2.442 18.02-2.449 26-7.11zm-180.072-52.439c.342 1.258.561 2.535 1.921 3.098-.699-2.078-1.387-4.142-2.217-6.172l.296 3.074zm-120.17 414.824c-1.337-13.756-1.656-27.907.572-41.574.509-3.125.52-6.667 1.649-9.619 1.24-3.242.882-6.029 1.696-9.374 1.587-6.526 3.615-13.039 5.207-19.566 1.617-6.634 4.227-11.41 7.735-17.172 1.657-2.723 3.526-5.043 5.429-7.516 1.008-1.312 1.313-1.202 1.581-2.97.353-2.325-.665-4.38-.875-6.594-.287-3.019.545-6.362 1.731-9.098 1.342-3.101 1.774-6.395 3.149-9.443 1.231-2.727 3.394-4.07 3.823-7.066.376-2.614.833-5.781.968-8.363.137-2.623-1.471-4.653-3.505-6.01-.926-.618-1.783-.707-2.696-1.53-.994-.895-1.987-2.366-2.925-3.389-1.898-2.074-2.808-6.432-4.776-7.553-1.28-.729-3.41-.526-4.837-.983-1.741-.557-3.041-1.435-4.374-2.653-2.196-2.007-4.056-4.46-5.515-7.044-.834-1.477-1.528-3.029-2.174-4.596-.376-.914-1.069-4.475-1.829-4.948-1.72-1.07-4.977 1.241-7.287-.241-2.847-1.828-4.377-6.336-5.155-9.441-.874-3.489-.931-7.126-1.707-10.646-.882-4.003-1.816-7.984-2.575-12.015-1.352-7.181-2.753-15.019-2.082-22.276.146-1.594.622-3.408.53-4.989-.086-1.475-.893-2.921-1.04-4.45-.288-3.024 1.313-6.599.505-9.249-1.184-3.877-2.663-5.78-1.088-10.014 1.076-2.889 3.821-4.939 4.722-7.603.442-1.305.057-2.825.432-4.167.464-1.66 1.6-2.305 2.395-3.696 1.554-2.713 1.528-4.708 4.39-6.489 3.625-2.256 4.265-3.516 6.508-7.026 1.519-2.375 4.721-4.297 7.223-5.557 3.001-1.508 5.732-3.4 8.8-4.8 1.54-.703 3.308-1.199 4.752-2.043.727-.425 1.238-1.149 2.053-1.532 2.485-1.168 7.456-.926 9.995-.624 3.485.414 7.016 1.499 8.039 5.216 1.908-1.798 4.912-2.379 7.178-3.482 2.673-1.302 5.686-1.754 8.388-3.101 6.304-3.14 12.17-6.329 19.099-8.058-1.285-4.407-1.687-9.297-5.521-12.121-3.609-2.659-7.38-4.863-10.701-7.902-1.65-1.511-3.418-2.93-4.962-4.553-1.115-1.173-2.338-3.763-3.904-4.06-1.035-.197-3.629 1.835-4.628 2.236-2.215.89-4.445 1.737-6.833 2.012-8.355.966-16.936-5.138-18.711-13.251-2.325-10.627 1.086-16.802 8.935-23.547l-3.758-2.21-1.249-.734c-.968-1.136-1.655-1.001-2.064.405-2.134 1.478-3.405 3.979-5.809 5.38-2.238 1.303-4.202 1.683-6.804 1.601-1.515-.048-2.828-.003-4.259-.606a8.425 8.425 0 01-2.219-1.415c-.593-1.174-1.37-1.264-2.329-.272-2.069.39-3.66 1.739-5.804 1.956-.797.08-2.714.309-3.524.162-1.291-.233-1.497-1.53-2.554-1.9-2.583-.906-5.537 1.642-7.849.803-1.78-.646-4.274-3.546-5.097-5.189-1.125-2.246-.728-5.061-2.424-6.975-1.425-1.609-3.466-2.394-4.841-4.163-1.753-2.258-2.168-4.627-2.806-7.313-.791-3.322-2.682-6.149-3.804-9.386-1.891-5.455-2.43-11.416-.356-16.884.954-2.519 2.401-3.473 3.791-5.615 1.595-2.457 1.818-5.764 3.246-8.428 1.034-1.93 1.936-3.594 3.747-4.799 2.232-1.486 4.235-1.462 6.03-3.722 1.589-1.999 2.611-3.946 4.904-5.315 2.003-1.195 4.874-.781 6.641-1.887 1.92-1.202 2.386-3.425 4.749-4.419 2.089-.88 4.453-.973 6.676-.805 2.72.207 5.643 1.329 8.381 1.033 2.717-.294 4.603-2.256 7.477-2.632 2.975-.388 5.857-.388 8.581 1.042 2.288 1.2 3.963 4.323 6.49 4.833 2.243.453 3.567-.616 5.902.218 1.999.714 3.703 1.349 4.784 3.392.318.6.393 2.521.876 2.914 1.101.895.41.313 1.912.099 2.898-.413 6.12-2.394 8.896-3.386 2.795-1 5.851-2.022 8.778-2.549.961-.173 2.5.026 3.377-.232 1.056-.311 1.715-1.094 2.787-1.524 5.472-2.19 11.233 1.028 16.636 1.506 3.687.326 4.717.92 6.926 3.931 1.894 2.581 3.26 2.283 5.8 3.649 2.21 1.188 4.41 4.769 5.706 6.882 1.706 2.779.774 4.916 1.327 7.73.479 2.44 3.036 3.174 4.79 4.939 2.449 2.465 4.617 5.359 6.95 7.953.465-3.637-1.629-7.469-2.59-10.888-1.135-4.033-1.163-7.942-1.849-12.002-1.276-7.546-2.639-15.183-3.216-22.851-.616-8.193-1.086-16.495-1.977-24.631-.388-3.536-.008-7.011-.239-10.531-.107-1.609-.244-3.174-.255-4.787-.01-1.715-.69-5.687.006-7.143 1.209-2.533 4.303.988 6.181 1.872 1.308.616 2.792.685 4.074 1.389 1.955 1.072 2.692 2.856 4.004 4.539 4.218 5.404 11.243 9.194 16.864 12.979 13.614 9.168 26.339 19.905 40.305 28.502 7.52 4.628 15.15 8.663 22.18 14.07 5.92 4.555 14.3 10.566 16.7 17.996 3.59-2.331 5.18-6.629 7.9-9.763 3.1-3.574 6.06-7.263 9.11-10.886 1.96-2.32 4.32-3.731 6.27-5.9 2.99-3.309 6.07-6.753 9.36-9.849 12.02-11.316 24.56-21.79 37.53-32.062 3.76-2.981 7.59-5.875 11.3-8.925 3.77-3.107 7.04-6.895 11.03-9.666 3.45-2.402 6.35-5.451 9.89-7.741 2.21-1.43 7.56-6.132 10.58-4.108 1.01.674.95 1.89 1.34 2.902.9 2.33 2.26 4.28 3.57 6.393 2.46 3.97 4.4 8.242 6.55 12.385 2.17 4.183 4.61 8.108 6.2 12.569 1.73 4.872 3.18 9.848 5.19 14.62 4.1 9.733 8.27 19.05 10.42 29.443 1.17 5.656 1.85 11.328 2.46 17.073.35 3.295.48 6.478.19 9.787-.14 1.618-1.57 5.874-.44 7.192 8.89-4.855 17.35-9.394 27.06-11.957 4.44-1.171 8.8-3.43 13.3-4.728 5.42-1.564 11.15-3.318 16.37-5.424 4.89-1.973 10.03-3.211 14.98-5.027 5.39-1.97 11.22-3.722 16.8-5.116 11.39-2.847 23.62-5.533 34.54-9.813 3.06-1.198 5.98-2.688 9.08-3.819 1.99-.727 5.16-2.579 7.25-2.366 4.52.459 4.67 9.375 4.65 12.831-.06 10.835-.25 21.702-1.56 32.647-1.41 11.763-1.26 24.491-5.82 35.662-3.94 9.654-13.42 17.694-22.22 22.912-5.72 3.395-11.64 7.506-17.74 10.109-5.26 2.243-10.58 4.013-15.89 6.026-11.39 4.314-23.34 7.582-35.49 8.872 2.46 1.607 5.2 3.093 7.81 4.481 3.09 1.64 5.25 3.477 7.99 5.484 4.6 3.361 9.25 6.913 13.01 11.252 5.04 5.805 8.6 10.965 9.64 18.823 1.03 7.695-3.29 15.111-5.88 22.116-3.06 8.291-6.06 16.54-8.62 25.004-.83 2.739-2.99 7.106-2.54 10.043.21 1.418 1.33 2.289 1.31 3.841-.04 3.492-1.71 3.228-4.37 2.884-3.56-.459-7.19-.599-10.72-1.208-3.36-.579-6.57-.45-9.87-.934-3.38-.498-6.55-.936-9.99-1.115-1.76-.091-3.53-.169-5.29-.195-1.76-.026-2.46-.597-4-.85-1.56-.259-3.22.385-4.89.152-1.75-.245-3.59-1.26-5.33-1.27-2.22-.014-2.22.222-4.38-.405-1.62-.466-3.19-.18-4.84-.326-3.62-.321-7.3-1.02-10.86-1.778-2.34-.499-4.61-.621-6.95-.943-1.69-.232-3.39-1.361-5.08-1.313 4.61 7.337 6.25 13.189 6.19 21.78-.06 8.045-3.24 15.197-7.76 21.782-4.06 5.906-8.71 9.269-15.4 11.63-3.93 1.389-5.55.917-5.93 5.313-.35 4.106-.64 8.104-1.28 12.183 4.4-2.028 16.88-10.972 19.42-3.856 2.84 7.975-3.87 15.086-7.66 21.287 4.51-.592 9.28-2.626 10.31 3.264.47 2.705-.64 5.553-1.66 8.004-.71 1.707-4.32 6.23-4.02 7.699.15.76 2.21 1.844 2.69 2.538.69 1.001.95 2.145 1.14 3.327.42 2.615-.07 5.335-1.41 7.641-2.25 3.865-8.19 7.198-11.92 9.356-4.68 2.708-8.55 5.533-13.99 6.259-.46.061-2.28.213-2.49.415-.37.364-.42 4.053-.55 4.727-.58 2.917-1.37 6.196-2.56 8.932-1.89 4.356-8.25 5.453-12.34 7.276-5.93 2.639-11.81 4.52-17.97 6.509-3.05.984-6.1 1.948-9.22 2.693-2.06.491-7.67.559-9.16 1.931-.92.846-1.19 2.911-2.08 3.984-.47.557-1.46.14-1.86.512-1.11 1.025-1.54 3.935-2.53 5.293-.2.268-1.98 1.892-2.04 2.371-.12.87 1.6 3.421 1.97 4.228 1.36 2.959 2.65 5.939 3.65 9.042 1.76 5.429 1.66 11.196 3.31 16.564 3.48 11.336 5.13 23.157 7.03 34.868 1.02 6.221 2.21 12.443 3.34 18.643 1.11 6.119 3.63 11.859 5.59 17.73 3.62 10.865 3.75 22.851 2.61 34.128-.31 3.116 1.24 11.685-4.34 8.959-4.85-2.373-4.47-11.946-5.78-16.444-3.48-11.905-4.89-24.435-8.53-36.361-3.73-12.231-5.83-24.365-7.86-36.969-2.1-13.021-4.83-25.885-7.08-38.851-.48-2.73-.67-14.107-4-15.031-1.39-.387-4.82.797-6.52.868-3.84.161-7.45.966-11.18 1.88-5.19 1.271-10.27.356-15.4 1.392-2.98.604-6.02.831-9.01 1.432-3.23.652-6.22 1.986-9.48 2.562-5.64.994-11.26-.02-16.948.303-5.836.332-11.954.981-17.794.6-6.01-.391-10.055-3.968-15.95-4.011-5.641-.042-11.53.731-17.097-.264-2.466-.44-5.346-1.061-7.701-1.748-2.44-.712-4.502-2.506-6.978-3.342-6.341-2.14-12.934-.489-19.57-1.735-2.7-.508-6.732-.977-9.188-2.111-1.478-.682-1.614-.917-3.023-1.175-1.216-.222-2.189-.363-3.406-.749-2.965-.941-5.429-1.442-8.308-2.838-2.417-1.172-4.16-3.059-6.908-3.6-1.322-.26-2.704.014-4.005-.331-1.591-.423-3.21-1.552-4.75-2.19-2.977-1.233-5.611-2.764-8.089-4.836-4.928-4.121-7.895-8.748-10.639-14.471-3.68 9.06-6.02 18.684-9.166 27.966-1.501 4.428-1.702 8.831-2.479 13.41a372.365 372.365 0 01-2.911 15.106c-.376 1.768.203 3.591.055 5.397-.209 2.546-1.021 5.05-1.234 7.643-.417 5.087-.585 10.352-.725 15.454-.268 9.844 1.966 19.646 1.824 29.504-.029 2.04-.88 4.087-.534 6.137.464 2.752 1.535 4.57 1.635 7.496.175 5.048.623 10.059.319 15.11-.492 8.171-2.566 16.539-5.701 24.289-1.676 4.147-3.015 8.636-5.308 12.494-1.655 2.785-3.855 7.484-7.731 6.683-3.499-.722-3.955-3.274-3.217-6.249 1.152-4.642 1.916-9.206 2.762-13.91.923-5.131.695-10.274 1.416-15.416.744-5.305 2.326-10.659 2.503-16.037.199-6.05-2.189-12.196-1.616-18.252.258-2.729.912-4.453.491-7.278-.183-1.22-.312-2.45-.475-3.673-.211-1.592.509-3.583-.286-4.934zm-65.405-181.374c-.082-11.309-.316-22.539-.262-33.699.011-2.538-.86-11.307 1.536-12.986 1.489-1.042 3.569.27 3.946 2.027.239 1.11-1.661.756-1.038 2.624.613 1.836 1.263.706 2.592 1.827 2.238 1.884.865 9.871.814 12.612-.026 1.453.382 2.9.381 4.19-.002 2.399-.767 4.959-.464 7.449.256 2.097.848 4.466.682 6.598-.136 1.728-.798 2.836-.664 4.691.079 1.089.493 1.924.557 3.128.297 5.642.891 11.188 1.527 16.824 2.521 22.328 6.991 44.184 6.432 66.753-.144 5.803.426 11.598.182 17.408-.251 5.974-.852 11.931-1.108 17.907-.348 8.102.027 15.795.102 23.363.034 3.464-.247 7.964-.162 11.835.05 2.279.375 4.83.249 7.327-.154 3.087-.67 6.341-.658 9.408.008 1.875.519 3.581.591 5.257.082 1.91-.189 3.455-.219 5.339-.02 1.182.357 2.407.305 3.59-.099 2.262-.443 1.301-.61 2.682-.367 3.038-.018 6.296.087 9.339.349 10.194-.184 20.532-.535 30.7-.169 4.883-.287 9.921.177 14.782.16 1.678 1.235 4.436.688 5.998-.227.649-.651.934-.912 1.474-.877.035-1.184.43-.92 1.185.025.769.048 1.539.07 2.308.078 2.587.091 5.203.33 7.782.207 2.234 1.796 5.106-1.3 5.616-5.474.901-5.466-7.344-5.699-10.539-.826-11.342-1.618-23.041-.901-34.408.317-5.041.031-9.794-.027-14.84-.068-5.951.743-11.918.92-17.873.334-11.273.851-22.387.436-33.662-.956-26.056-.757-52.287-1.162-78.373-.197-12.722-1.507-25.471-3.247-38.065-.85-6.158-1.918-12.355-2.197-18.572-.283-6.337-.124-12.668-.519-19.006z" fill="#000"/><path d="M1205.55 514.125c1.38-.874 1.21-1.468.27-2.314-.09.809-.16 1.369-.27 2.314zm4.25-78.454c.99-2.425.99-2.425-.27-2.817.08.839.16 1.656.27 2.817zm5.19 7.362c-.11 8.002-.64 16.086-.54 24.068.04 3.323.09 6.735-.08 10.074-.16 3.131-.03 5.851-.06 8.769-.01.935-.47 2.167-.46 3.3.02 2.11-.24 4.194-.41 6.296-.34 4.134-.53 8.278-.73 12.419-.18 3.817-.17 7.605-.21 11.424-.03 3.536-1.42 5.582.23 9.002-2.78.386-1.31 2.873-1.56 5.19-.19 1.744.01 2.956-.15 4.632-.16 1.666-.76 3.575-.46 5.277.16.865 2.44 2.155-.55 1.607-.45.648-.08 1.102 1.08 1.363-.1.508-.38.896-.84 1.163.09 1.38-.3 3.285-.54 4.803-.34 2.185-.83 4.445-.89 6.663-.03 1.32.49.619 1.05 1.383-2.34 1.625.12 3.613-.66 5.852.37 1.261-.13 1.777-1.52 1.546.04.63.09 1.259.13 1.889.05.624.09 1.247.13 1.87-.62.165-.86.545-.73 1.139.03.999.93 2.068.85 3.036-.24.432-.5.842-.8 1.231-.31.64-.15 1.176.48 1.608-.24 1.14-.42 2.013-.53 3.019-.13 1.196-.6 3.074.66 4.113-1.99.694-.77 1.347-.68 2.815.12 2.035-.4 3.74-.44 5.661-.01.372.21 1.206.16 1.525.18.38.29.782.32 1.209l-.72.712c-.17 1.16.25 3.473-.4 3.771 1.65.645.85 2.916 1.03 4.371-.04.437-.18.841-.42 1.21.29.179.57.374.85.584-1.92 1.13-1.18 6.637-1.12 8.645.12 3.843-.14 7.698.1 11.53.41 6.466.12 12.756.23 19.188.03 1.543.56 3.422.35 4.915-.21 1.477-.68 2.199-.6 3.873.15 3.106.33 5.991.38 9.165.05 3.196.03 6.093.25 9.105.2 2.663.57 6.968-2.03 8.6.7.366 2.14.689 1.87 1.542-2.31-.16-3.05 1.137-4.03-1.217-.53.558-1.05 1.117-1.57 1.676-2.41-4.549-1.56-10.349-1.57-15.318-.01-3.462.02-7.164-.05-10.221-.23-9.858-.54-19.807-.32-29.691.47-19.874-1.81-39.953-.8-59.838 1.87-36.639 5.86-73.431 6.59-110.137.21-10.717.82-21.472 1.07-32.206.12-4.817.18-9.615.15-14.472-.02-2.802-.38-5.665-.11-8.447.46-4.67.58-1.524 1.7-1.233 1.1-5.276 3.62-1.273 3.97 2.069.18 1.704-.19 3.466.33 5.112.54 1.723 1.29 2.432 1.41 4.412.59 9.391.98 18.941 1.21 28.354zM808.202 582.548l-1.381 1.27c2.434.52 4.051 1.833 6.145 3.346-.564.966-1.507-.623-2.06-.169-1.285 1.056.282 2.044.116 2.732-.113.468-.683 1.533-.655 2.031.036.631 1.409 2.497 1.616 3.313-1.522-.678-1.902-1.18-3.262-.275 2.631.966 2.062 2.066 2.062 4.737l-1.844-.451c2.611.729.108 3.16 2.349 4.114-1.714 2.423-.669 3.528.715 5.946-.935.222-2.039.278-2.077 1.554-.05 1.7 1.164.922 2.131 1.828-2.409.83-1.317 1.234-1.194 3.233.124 2.016-1.012 6.592 2.027 5.965-.092.85-1.285 1.144-1.28 1.312.051 1.706.075 3.386.088 5.094a55.23 55.23 0 00.461 6.728c.648 4.838.604 9.811.63 14.58.029 5.102 1.365 10.527.735 15.786-.559 4.678-1.111 8.792-.895 13.525.176 3.875 2.249 11.071.169 14.246-3.404 5.202-8.183-2.722-8.41-6.141-.781-11.77-.543-23.613-1.076-35.43-.526-11.702-.738-23.315-1.754-35.14-1.036-12.081-1.227-23.898-1.381-36.034-.144-11.229-1.461-22.32-1.912-33.535-.49-12.224-.423-24.351.099-36.573.544-12.783-.814-25.568-.296-38.317.124-3.027.198-6.137.183-9.226-.015-3.039-.8-7.301-.008-10.238.455-1.691.399-1.301.913-2.408.267-.575-1.497-1.279.217-1.729 2.002-.525 1.478 5.581 1.145 6.434 2.981-.221 2.64 1.216 3.135 4.187.327 1.965.486 4.002.604 5.988.223 3.758 1.433 7.266 1.905 10.863.047.352-.285.997-.193 1.678.16 1.202.509 2.416.752 3.609.549 2.692.578 4.881.472 7.618-.224 5.777.009 11.674-.366 17.387-.273 4.143.154 7.993.023 12.125-.073 2.328.485 3.894.283 6.216-.191 2.21-.045 4.641-.013 6.877.059 4.194-.533 9.124.353 13.056.512 2.269.452-1.965.95.928.048.283-.561.719-.512 1.082.341 2.519.843 6.223-.453 8.371l1.426.082c-.527 1.473-1.005.149-1.328 1.467.19.398.451.74.782 1.023.524.307.449.657-.224 1.051.374 1.242-.178 3.008.259 4.457.323 1.069.995 1.293 1.206 2.21l-.339 1.138a4.144 4.144 0 001.024 1.898c.028 1.209-.777 2.867-1.086 4.004l-1.351-2.584v3.495l2.608-.182c-.971.895-1.564 1.869-1.972 3.096-.705 2.121-1.044 2.172 1.185 3.563.459.287 2.662 1.028 2.743 1.53.15.938-.869.665-1.122.978-.508.63-1.799 1.716-2.598.742 1.428-.646.742-1.229.271-2.63-1.146.564-1.521 1.495-.74 2.569zm-70.209-69.286c-.847-8.431-1.147-17.135-1.46-25.622-.137-3.705-1.064-7.569-.772-11.424.164-2.172.541-4.353.745-6.529.312-3.306.866-3.815 3.863-5.263.812 1.839.14 2.687.059 4.361-.082 1.702.088 2.374.712 4.301 1.257 3.875 1.45 8.129 1.95 12.182.936 7.59 1.287 15.183 2.311 22.777.833 6.161.289 12.317 1.209 18.226.891 5.72.387 12.384.171 18.155-.504 13.509-.495 26.647-.334 40.182.087 7.304-.578 14.888-.496 21.999.073 6.263.303 12.582-.095 18.9-.194 3.091.12 5.718-.074 8.792-.152 2.432.771 5.284.488 7.663-.09.752-.704 1.316-.808 2.013-.177 1.189.307 3.359.25 4.685-.137 3.24-.012 6.074-.315 9.044-.74 7.28.285 15.154.12 22.508-.083 3.643.063 7.314-.347 10.938-.313 2.769.084 8.54-3.677 7.832-5.166-.972-3.887-10.471-4.091-14.19-.43-7.826.5-15.656.483-23.477-.036-16.543-.074-33.081-.015-49.623.114-32.671 1.038-65.841.123-98.43zm507.727 30.287c1.85-.867 1.9-1.176.46-2.624-.16.906-.29 1.676-.46 2.624zm1.11-31.897c-.04.931.06 1.162-.11 2.185.74.846.68 1.344-.18 1.493-.22.201-.37.437-.46.708-.11 2.358.59 4.904 2.13 6.658-2 1.118-1.73 3.207-1.39 5.11.4 2.207-.06 2.391-.45 4.292-.62 3.031 2.22 2.772.86 5.874-.78 1.76-1.23-.048-.29 2.011.98 2.125 1.47.946.55 3.469-.14.377.49.736.44 1.088-.11.668-1.01.02-1.04 1.005-.01.424.66.838.7 1.26.12 1.53.14 3.086.21 4.619-1.33-.579-1.46-2.21-1.92-3.54-.73.191-.35 3.088-.35 3.813.47-.188.93-.376 1.4-.563-.03 1.588 1.13 1.554 2.25 2.186-2.71 1.172-.9 2.548-1.35 4.992-.28 1.442-1.68 2.861-1.82 4.473-.05.594.78 1.124.94 1.718.09.354-.14 1.523-.02 2.018-.01-.057 1.01.868 1.16 1.283.47 1.3-.37 2.493-.42 3.706-.1 2.267.15 3.737-.07 5.932-.21 2.154.1 4.757.13 6.795.02 1.112.32 1.515.42 2.759.16 2.134.21 4.504.2 6.457 0 1.911.17 3.841.27 5.751.09 1.73.27 3.768.21 5.306-.04 1.146-.13 2.746.13 4.215.33 1.887.22 3.651.71 5.523.77 2.908.48 3.219-.34 6.024-.62 2.139.38 3.864.43 5.862.03 1.579-1.38 3.942 1.14 3.872-.33 2.053 1.94 2.034 1.94 4.579-.5-.387-1-.774-1.5-1.159-.67.961-1.57-.014-1.92.835-.43 1.037.15 2.024 1.4 1.791-.48.756-1.37 1.409-1.12 2.44.73-.469 1.46-.937 2.18-1.405-.47 1.349-.92 2.227-1.02 3.636-.13 1.871 1.28 1.232-.46 2.712 1.7 1.192.97 2.633.95 4.568-.01 1.115-.19 1.553.13 2.999.34 1.604.27 2.278-.18 3.718-.43 1.394-1.76.621-.55 2.728 2.06-2.359 1.22.957.82 1.999-.96 2.478-1.04 2.827 1.43 4.206-.79.641-1.61 1.237-2.46 1.788.34.699.92.67 1.76-.086-.02.463-.18 1.446-.06 1.951-.05-.229-.94.388-.97.735-.06.984 1.11 2.389 1.15 3.588.08 2.352.36 3.085.24 5.301-.11 1.962-.1 3.916-.1 5.882 0 2.094.69 3.461-1.85 3.534-3.77.104-4.09-4.431-4.55-7.133-1.36-8.114-.48-16.953-1.11-25.212-.57-7.375-.84-14.775-1.45-22.168-1.24-15-2.45-29.348-3.2-44.359-.38-7.518-.27-15.404-.3-23.16-.04-8.226.17-16.48.04-24.663-.14-8.734-.82-17.583-.57-26.432.26-9.024 0-18.815 2.91-27.393 4.23 7.81 3.62 17.084 4.35 25.826zm-530.424-22.2c-5.047 1.327-5.968-8.919-5.949-11.966.018-2.742.366-5.518.596-8.249.112-1.322-.061-7.678 1.245-8.364 4.104-2.16 4.448 10.857 4.615 12.438.622 5.85.659 10.437-.507 16.141zm527.814-45.472c1.89 1.778.67 1.543 1.19 3.731.12.497.61 1.49.65 1.719.1.611.47 1.624.26 2.524.01-.036-1.34 2.815-1.36 2.376.02.453.56 1.179.63 1.671l.72.177v2.059c.05 1.02.17 2.28-.33 3.227-.55 1.044-1.27-.086-1.6.422-.61.95-.24 6.022-2.73 4.078-1.44-1.122-1.21-8.693-1.13-10.389.11-2.434.29-5.026.72-7.431a3.8 3.8 0 01.5-2.172c.1-.913.53-1.04 1.27-.38.56-.563.8-.788 1.21-1.612zM763.062 259.21c-2.141-10.743-2.763-22.277-.944-33.112 3.593 2.995 1.851 11.533 1.871 15.707.012 2.416.941 17.274-.927 17.405zm-.235 45.499c2.644 3.104 1.451 5.63 1.535 8.375.118 3.845 1.066 8.129-.616 12.158-.254.61.354 1.556-.673 1.656-2.137.207-1.263-2.613-1.252-3.794.025-2.466-.1-4.932-.511-7.365a90.335 90.335 0 01-.893-6.795c-.084-.91-.216-7.723 2.41-4.235zm-91.402 103.993c-.1-7.176-.494-14.327-.617-21.498-.102-5.869-1.22-14.426 1.345-19.775 1.242 6.625.785 13.79.778 20.511a445.599 445.599 0 01-.65 23.406l-.856-2.644z" fill="#000"/><path d="M807.108 504.553c-.662-4.678-.04-9.593.071-14.297 3.718 3.244 1.629 11.705 1.992 16.215.137 1.691.905 4.228.622 6.298-.231 1.685-1.292 2.447-2.547 3.834-.098-2.507.136-3.906.729-6.225.472-1.845 1.234-5.825-.867-5.825zm26.324-23.901c-.252.994-.696 3.214-2.367 2.089-.546-.366-.253-5.194-.295-6.013-.218-4.282-.441-8.249.881-12.401 2.08.482 1.007 5.041 1.064 6.456.063 1.558.431 2.92.574 4.478.158 1.713-.538 3.825.143 5.391zM715.887 239.337c.353 3.911.784 7.794 1.255 11.693.338 2.798 1.8 7.278-1.382 8.867-.432-1.424.261-2.6.247-4.112-.017-1.917-.81-3.78-1.068-5.669-.442-3.225-.924-8.048.948-10.779zm12.98 178.658c-2.399-.862-1.677-11.738 1.48-9.093.515.432.461 1.335.617 2.054.356.175.638.421.847.735.352.407.09.788-.786 1.144.065 2.405.305 4.006-2.158 5.16zm511.293-24.709c3.22-.056 3.87.973 3.35 5.034-3.3.616-4.22-.702-3.35-5.034zm-498.407 81.405c-.54-1.452-3.386-6.805-.003-6.1 2.329.486 1.239 4.643.003 6.1zm65.385 14.639c.286-4.156-.254-7.536-1.087-11.616 2.617.494 2.43 9.548 2.028 11.963a261.09 261.09 0 01-.941-.347z" fill="#000"/><path d="M833.432 480.652c-1.038-2.388.136-5.797-.72-8.477 3.913.297 1.418 6.042.72 8.477zm408.218-14.689c2.75.253 1.33-.545 2.42-2.578.2-.376.5-2.715 1.68-1.324 1.66 1.973-1.81 5.494-4.1 3.902zm-474.92-44.076c-.749-2.998-.538-5.818-.458-8.902 1.026-.162.872 8.018.987 9.201a141.38 141.38 0 01-.529-.299zm.065 10.358c-1.16-2.005-.893-4.227.023-6.259.35 2.216 1.287 4.369-.023 6.259zm-1.815-113.891c-.529-1.024-.353-5.684.037-5.646 1.783.171 1.039 5.064-.037 5.646zm-36.113 99.641c3.505-1.643.598-4.408 3.032-6.183.563 1.569-1.302 8.947-3.032 6.183zm69.35 39.088c.023 4.347.409 8.843-.27 13.143-.039-3.82-1.172-9.61.27-13.143zM669.23 473.238c2.25-.148 2.094 1.599 2.723 2.778-2.222.546-2.733.025-2.723-2.778zm96.98-63.958l.048-6.118c1.239.824 1.472 5.603-.048 6.118zm-2.511-82.69c.04-.661.308-6.342 1.615-4.968.586.615-.647 4.704-1.615 4.968zm41.753 146.052c-1.054-1.257-.412-2.784-.482-4.227 2.64.939 1.576 2.997.482 4.227zm27.266-3.252c.088-1.861-.954-5.379-.608-6.337 1.16 1.924 2.57 4.397.608 6.337zm-92.349-4.966c-1.021.494-2.043.987-3.064 1.479-.344-2.409 3.207-4.242 3.064-1.479zm473.971 11.865v-5.408c.15.744 1.86 6.107 0 5.408zm-470.616 14.673l-.411-3.931c2.026 1.283 1.446 2.043.411 3.931zm54.953 7.526zm447.633-42.311c-1.78.145-.95-2.434-.58-2.969 1.15.985 1.33 1.629.58 2.969z" fill="#000"/><path d="M832.718 469.391a3.154 3.154 0 011.317-.952c-.026.293-.098 3.65-.329 3.813-1.475 1.035-.989-2.427-.988-2.861zm-160.179-99.902l-.386-2.059c-.249.52-.499 1.041-.751 1.562l.125-3.306c1.263.99 1.543 2.334 1.012 3.803zm131.698 94.816l-.392-3.983c.859.055.999 2.683 1.882 3.823l-1.49.16zm1.216 8.337l.701-.79c1.291 1.206.286 2.492.006 3.846-.998-.782-.639-1.997-.707-3.056zm440.877-23.079c-1.44-.871-.91-2.87-.91-4.46.98 1.296 1.19 2.892.91 4.46zm-31.76 20.214l-.18-4.012c1.44 1.766 1.46 2.112.18 4.012zm-543.144-61.075c.546 1.686.856 2.949.856 4.71-1.235-1.359-.956-3.048-.856-4.71zm573.684 82.415c-.98-.752-1.45-1.737-1.37-2.969 1.78.707 1.86.864 1.37 2.969zM762.827 304.708c-.548-.794-1.25-.97-2.107-.528l.796-2.173c.926.634 1.77 1.495 1.311 2.701zm451.663 177.01c-.86-1.493-.37-3.022-.12-4.544.17 1.512 1.42 2.994.12 4.544zm-.6 8.644c.18-1.518-.81-3.099.42-4.419.01.707.32 4.903-.42 4.419zm-415.473 1.114c.058 1.973.116 3.947.172 5.915-.058-1.976-.116-3.946-.172-5.915zm447.273 8.2zm-444.836-46.765c-.106-1.304-.213-2.607-.318-3.911.946 1.868 1.571 2.23.318 3.911zm2.735 5.439l-.817-3.519c2.102.11 1.039 1.804.817 3.519zm26.987-221.716c1.562-.004 3.125-.006 4.677-.007-1.566.004-3.121.005-4.677.007zm375.894 172.027c0 1.643 0 3.286.01 4.924-.01-1.643-.01-3.284-.01-4.924zm7.79 76.343c-.86-.852-.46-2.436.69-2.237l-.69 2.237zm29.96-41.024c-.44.887-.58 2.291-2.14 1.236-.1-1.808 1.46-.765 2.14-1.236zm-516.36-33.158zm8.963 80.64l.282 4.313-.282-4.313zm7.399 8.272l-.32-3.439c1.267.858.549 2.032.32 3.439zm464.328-98.947l-.48 2.299c-.95-.247.3-2.003-1.33-1.354.06-1.22.95-1.054 1.81-.945zm-405.956 53.715l-2.076.154c.513-1.312 2.479-2.37 2.076-.154zm-44.248-51.287zm487.634 58.248c.41-1.46 1.62-1.655 1.51 0h-1.51zm-514.256-49.895c-1.041-.497-1.176-1.371-.989-2.376 1.528.297 1.114 1.396.989 2.376zm34.636-9.369l-.22-1.717c1.329.395 1.402.967.22 1.717zm-.033-3.865c-.047-.76-.094-1.519-.139-2.278 1.411.862 1.431 1.215.139 2.278zm474.483 53.854c-.1 1.13-.2 2.26-.29 3.387.1-1.131.19-2.259.29-3.387zm-442.706 28.945l.065 3.256-.065-3.256zm408.346-55.587c-.08 1.128-.15 2.256-.23 3.381.08-1.129.15-2.255.23-3.381zm8.54 17.487c-.02-1.111-.05-2.221-.08-3.327.03 1.111.06 2.219.08 3.327zm-383.926 39.709c.618-.018 1.234-.035 1.851-.05-1.041 1.507-1.659 1.525-1.851.05zm374.916-46.375c-.06 1.1-.12 2.199-.19 3.292.06-1.1.13-2.196.19-3.292zm-469.709 48.029c1.096 1.001.092 2.172.262 3.244l-.262-3.244zm452.799-292.161c-.84-.984-.44-1.983-.04-2.977.02.995.03 1.986.04 2.977zm25.59 242.126c-.09-1.153-.19-2.306-.28-3.457.09 1.154.19 2.306.28 3.457zm-27.54-64.302l2.49-.009c-.84.002-1.66.006-2.49.009zm-428.487 65.287l.17 2.745-.17-2.745zm482.767 11.383l-.33 2.827.33-2.827zm-442.657 2.194c-.133.619 1.336 1.498-.305 1.87l.305-1.87zm434.137-73.92l1.95-.064c-.65.023-1.3.043-1.95.064zm-27.53 89.198c-.02.949-.05 1.897-.08 2.844.02-.95.05-1.897.08-2.844zm.03 4.362c-.08.975-.17 1.95-.25 2.923.08-.975.17-1.949.25-2.923zm-407.245 2.695l-.266 2.26c.088-.757.177-1.508.266-2.26zm415.875-45.547zm-9.15 50.971c-.1.951-.21 1.902-.31 2.85.11-.952.21-1.901.31-2.85zM759.94 307.29l.636 2.203-.636-2.203zm2.617 173.969c.059.861.12 1.722.18 2.577l-.18-2.577zm84.644 18.296c-.055.927-.111 1.856-.169 2.779.055-.93.112-1.854.169-2.779zm-83.13-.433l.273 2.71-.273-2.71zm367.039-367.859c2.44-3.602 5.46-8.496 9.48-10.459-1.39 1.963-7.03 10.668-9.48 10.459zm192.68 34.93c-.88-1.022-.82-3.486-1.19-4.824-.76-2.764-1.35-2.7 1.45-3.764.57 2.856.46 5.769-.26 8.588zM962.798 289.387a53.535 53.535 0 00-4.324.756c.328-1.489 2.987-.791 4.324-.756zm209.332-73.267c.56-1.277 1.13-2.555 1.7-3.833.08 1.563-.47 2.85-1.7 3.833zm-32.23 221.975c0-1.492.01-2.982.01-4.47 0 1.491-.01 2.98-.01 4.47zm-231.534-98.994c-1.219-.04-2.439-.081-3.649-.119 1.223.042 2.436.08 3.649.119zm142.984-3.049c1.94 0 1.8-.061 2.19-1.954.15.901.3 1.801.46 2.702-.88-.249-1.77-.498-2.65-.748zM839.679 437.359l5.001.025c-1.67.693-3.338.787-5.001-.025zm234.861-90.133c-1-.04-2-.079-2.99-.12l2.99.12zm-146.66 57.712l-3.024.009 3.024-.009zm130.84-57.704l-2.52-.018 2.52.018zm46.65 75.664l2.57.294-3.15.692c-.31-.512-.12-.84.58-.986zM944.7 200.75l-.492 1.148-.297-3.077.789 1.929zm378.14-21.801c.1-.776-1.23-1.745.32-2.322-.11.776-.22 1.549-.32 2.322zm-436.276 87.417l3.267.445-3.267-.445zm93.83 8.59c1.034-.574 2.059-.72 3.062.065l-3.062-.065zm146.096 6.01c.97-.338 1.93-.677 2.9-1.016-.66 1.209-1.82.982-2.9 1.016zm8.18 135.557l3.39-.327-3.39.327zm-90.54 57.03c-.3.527-.6 1.054-.9 1.577-.26-1.61-.26-1.61.9-1.577zm-36.44-169.144c1.05-1.048 2.12-.502 3.19-.064l-3.19.064zm25.9 5.584l-.03-2.476.03 2.476zm66.54 5.01c-.08-.899-.17-1.799-.26-2.693.09.9.18 1.797.26 2.693zm109.67 120.668c-.11-1.162-.19-1.979-.27-2.817 1.26.391 1.26.391.27 2.817zM884.472 226.362c3.189 3.571 6.548 8.922 12.01 6.987-.894-2.115-2.566-4.839-2.134-7.256.489-2.733 2.338-2.423 3.913-.532 2.699 3.237 4.443 10.635 1.712 14.285-2.562 3.426-8.959 1.163-11.459-1.262-2.264-2.198-7.681-9.365-4.042-12.222zm29.198 5.192c1.125-1.187 3.816 0 4.344-1.994.614-2.312-5.283-1.172-5.672-3.942-.313-2.23 2.875-4.205 4.733-4.423 3.177-.375 5.166 2.374 6.228 4.996 2.331 5.762-.849 10.996-7.08 11.723-5.785.674-7.042-5.858-3.775-9.636l1.222 3.276zm-25.501-25.085c2.652 0 4.655-.569 4.92 2.792.18 2.283-1.186 3.321-2.826 4.761-1.866 1.638-3.937 2.796-5.916 4.233-1.153.837-2.789 3.449-4.369 3.474-3.793.058-3.367-6.86-2.629-8.958 1.556-4.419 6.685-5.722 10.82-6.302zm33.58 6.965c3.274 1.121 4.433 5.498 8.044 5.894-.379-1.953-3.334-11.717 1.501-9.042 3.615 2 4.457 9.977 3.283 13.264-3.849 10.77-16.483-3.038-12.828-10.116zm-15.348 34.285c5.139.753 9.138 2.462 14.031.163 2.217-1.041 4.494-3.256 5.838-.28.997 2.209.178 4.488-1.286 6.234-4.516 5.379-20.597 2.248-18.583-6.117zm10.045-51.61c8.264 0 2.134 7.368-3.072 6.392-2.006-.376-2.979-2.629-2.168-4.573.462-1.106 5.24-3.073 5.24-1.819zm-28.278 10.361l-3.159.444 3.159-.444z" fill="#000"/></g><defs><clipPath id="clip0"><path fill="#fff" d="M457-20.96h1066.27v650.692H457z"/></clipPath></defs></svg>