<svg width="485" height="296" viewBox="0 0 485 296" fill="none" xmlns="http://www.w3.org/2000/svg" preserveAspectRatio="none"><g clip-path="url(#clip0)" fill-rule="evenodd" clip-rule="evenodd"><path d="M292.748 86.075c30.328 31.063 53.827 75.273 47.4 116.009-6.427 40.804-42.781 78.066-85.494 97.071-42.714 19.006-91.72 19.823-128.542-.068-36.822-19.959-61.527-60.627-75.251-107.902-13.792-47.276-16.536-101.022 8.168-130.723 24.704-29.7 76.857-35.286 121.512-29.223 44.655 6.13 81.812 23.842 112.207 54.836z" fill="#F6EDEE"/><path d="M241.835 147.534c1.016.142 3.886 1.359 4.372 2.255-.663.214-1.147.686-1.722 1.051-.663.419-1.307.526-2.012.829-1.713.734-3.353 2.02-4.947 2.989-3.447 2.094-6.727 4.397-9.931 6.846-2.717 2.077-5.156 4.519-7.736 6.654-1.755 1.451-6.456 5.702-4.43 8.072a321.53 321.53 0 014.279-3.545c.815-.665 2.107-2.355 3.158-2.413-1.252 1.576-2.596 3.06-3.939 4.558 1.88.235 3.755-2.368 5.055-3.517.83-.734 1.801-1.005 2.711-1.659.815-.586 1.308-1.347 2.222-1.807 1.87-.941 3.499-2.343 5.136-3.559.721-.536 1.36-1.191 1.971-1.694.391-.323 1.924-1.671 2.283-1.758l.279.589c.419-.902.678-.393 1.353-.898.365-.274.178-.687.366-.854.284-.251 1.308-.77 1.696-1.016.794-.503.484-.82 1.463-.37-.209-.591-.017-.75.576-.477l-.084-1.281c2.681 0 4.771-1.096 7.009-2.605.844-.569.823-.991 1.775-.493.523.273.949 1.046 1.278 1.496.754 1.028 1.131 1.751 1.378 2.992-.322-.323-.568-.344-.737-.061.25.378.734.835.704 1.29-.036.556-.288-.064-.428.287-.149.373-.612.748-.672 1.149-.12.787.527.781.007 1.669-.444-.402-.557-.435-1.07-.125l.48.848c-1.066 0 .121 1.19-.181 1.986-.476 1.25-2.186 1.388-2.041 3.011l.769-1.209c-.055.818-.352 1.098-.632 1.771-.162.389-.271 1.128-.574 1.442l-.758-1.214c.182 1.663-.07 2.855-1.047 4.271-.3.434-.887.749-1.108 1.16-.262.487.097 1.158-.183 1.573-.225.334-.62.362-.948.535-.283-.2-.514-.152-.692.144-.126.16-.199.341-.221.542l.215.275c-.264.606-.539.664-.826.175-.526.28-.634.416-.95 1.066-1.343.231-2.857 1.458-4.118 2.125-1.608.852-3.026 1.347-4.681 1.894-.643.213-1.049.697-1.618.949-.618.273-1.306.111-1.795.326-.612.268-.822.85-1.625.966-.821.118-1.684-.148-2.394-.55.645 1.172.734 1.105-.44 1.753-.003-.007-.363-1.588-.694-1.144-.249.332.311 1.057-.001 1.473-.194.258-.923.41-1.179.532l-.505-.076-.765 1.129-2.043.241c.311-.93.349-.895-.532-1.328l.401 1.374c-1.15.155-2.416.341-3.427.27-.191-.014-.264-.279-.57-.252-.251.021-.854.278-.432.455-2.008.188-3.929.01-5.941.034-.885.011-1.809.215-2.689.132-.923-.087-1.845-.421-2.803-.491-2-.146-4.224-.146-6.183-.55-1.143-.235-1.24-.22-.389-1.087.449-.456.946-.856 1.435-1.266 2.763-2.322 5.525-4.844 7.704-7.738 2.23-2.963 3.296-6.585 4.903-9.89 2.998-6.164 4.827-14.562 11.938-17.127 1.483-.535 3.11-.618 4.632-1.142 1.801-.621 3.639-.929 5.505-1.319 1.61-.336 4.003-.892 5.64-.663zm-18.252 37.501c-.175.456-.567.896.34.947l-.34-.947zm82.849-42.308c1.506.122 2.976.362 4.551.554.371.045 1.175-.153 1.484-.084.687.152 1.241.638 1.954.778 1.318.257 2.694.508 4.022.929 3.248 1.031 6.421 2.437 9.458 3.974 6.461 3.269 12.341 7.497 18.443 11.377 3.301 2.099 6.147 4.072 8.736 7.032.971 1.108 1.936 1.859 2.478 3.138.703 1.657 1.503 3.244 2.322 4.845-1.509.335-2.436-.393-3.842-.713-1.339-.304-2.825-.397-4.191-.641a180.129 180.129 0 00-8.813-1.335c-3.05-.389-6.032-1.19-9.077-1.613-2.484-.344-5.05-.757-7.352-1.504-1.132-.368-2.373-.492-3.537-.733-1.514-.314-2.95-.98-4.456-1.331-2.448-.57-4.79-1.117-7.272-1.726-1.099-.27-2.63-.527-3.645-.999-.735-.342-1.405-1.258-2.127-1.971-1.035-1.019-1.943-2.237-2.868-3.354-.817-.987-2.489-2.338-1.539-3.745-1.081.13-.681.299-1.139-.633-.308-.63-.347-1.574-.496-2.25.643-.044.392-.337.326-.908-.28-.084-.408.083-.382.5-1.082-3.424.931-6.105 3.486-8.155.584-.468 1.416-1.242 2.147-1.449 1.009-.287.417-.057 1.329.017zm-93.504 31.675l.653-.289c-.551-.274-.551-.274-.653.289zm134.492-36.78c1.673.354 3.004 1.174 4.592 1.695.522.171 1.064.158 1.592.292.889.227 1.482.658 2.265 1.162-1.619.974 6.253 6.491 6.882 7.157 1.285 1.359 2.19 3.012 2.917 4.723.593 1.395 2.076 3.859.801 5.204l.712-.282c.15.137-.113 1.798-.155 2.067l.548.06c-.809 1.32-.742 1.52-2.29 1.193-.006.916.268 1.817.05 2.722-.081.336-.337.614-.37.918-.028.261.251.477.218.837-.178 1.98-1.318 4.117-1.974 5.986-2.181-4.748-3.774-9.972-6.95-14.145-1.54-2.024-3.343-3.704-5.115-5.515-1.756-1.794-3.304-3.47-5.426-4.822-1.694-1.079-3.751-2.224-5.651-2.832-1.036-.331-2.108-.35-3.164-.772a23.76 23.76 0 00-3.01-.991c-2.678-.681-5.317-1.532-7.984-2.224-.805-.21-1.547-.625-2.378-.848-1.282-.343-2.724-.266-3.889-.932 1.496-.774 3.033-.633 4.639-.854 1.683-.232 3.343-.501 5.028-.703 3.182-.382 6.313-.445 9.504-.471 2.871-.023 5.775.776 8.608 1.375zm-9.883 26.211c.332.284.195.294.618-.188-.176-.289-.382-.227-.618.188zm.871-.155l.336.052c.127-.975-.123-.978-.336-.052zm-90.169-3.474c-.656.337-.891.605-.32 1.119l.32-1.119zm117.516-.914l.248.821c.364-.774.364-.774-.248-.821zm-49.315-4.347c-.177.348.016.587.152.952.406-.15-.003-.619-.152-.952zm26.145-2.881c1.411.537 4.185 2.166 4.676 3.681-1.072-.368-1.752-1.202-2.738-1.789-.672-.4-2.203-.86-1.938-1.892zm-26.157 1.051c1.259.278 2.3 1.093 3.653.713-.143-.478-.682-.835-1.171-.884-.372-.037-.726.374-1.134.196-.376-.163-.151-.818-.685-.863-.448-.037-.747.458-.663.838zm-88.329-.655l.806-.428c-.652-.33-.691.112-.806.428zm114.407-.49c-.678.047-1.251-.191-1.675-.695.679-.059 1.232.184 1.675.695zm-37.476-5.681l1.316-.668c-.966-.381-1.026-.35-1.316.668zm.724-2.701l.248.704c.434-.459.37-.684-.248-.704zm12.217-92.675c1.055 2.261 1.81 4.555 2.583 6.926h-.001l.114.217c2.142 4.112 3.596 8.194 4.999 12.608.586 1.842.967 3.744 1.545 5.64.327 1.073.702 2.147.966 3.238.239.986.071 1.787.101 2.79.027.92.395 1.485.603 2.313.275 1.103.151 2.487.146 3.626-.012 2.46-.373 4.921-.378 7.372a128.91 128.91 0 01-.18 6.606c-.094 1.76-.288 4.869-1.811 5.99.379.307.893.484.745 1.035-.296 1.095-1.056-.028-1.154.093-.506.621.488.489.469.966-.02.499-.434.938-.709 1.377-1.704 2.725-3.998 4.738-6.327 6.935-.478.45-.944 1.01-1.517 1.344-.288.167-1.015.321-1.124.412-.57.47-.328 1.035-1.085 1.374-.582.263-1.804-.172-2.199.044l-.479.723c-.099.497-.278.61-.536.338-.244.177-1.235.676-1.699 1.049l.857.095-.965.149c-.3.144-.494.038-.581-.319-.512.024-.435.156-.448.618-.977-.005-.941-.29-1.723-.437-.327-.062-.816-.045-1.141-.133l.307-.665c-.676.492-1.324 1.112-1.447 1.982-.921.061-.193-1.506-1.175-.506-.247.252-.103.696-.264.953.217.443.102.664-.347.664l-1.191.377.724-.871c-.657-.218-1.548.221-1.114 1.122-.524.047-1.098.185-1.618.146-.568-.043-1.202.478-.7-.368l-.865.118-.862.117-.01.012c-.17.213-.288.415.097.52-.676.073-1.492.119-1.948.016-.267-.06-.311-.922-.783-.355l.762.563c-4.538 1.864-9.417 2.399-14.11 3.575.014-1.487.778-2.748 1.413-4.039.755-1.537 1.284-3.152 1.864-4.76 1.12-3.099 2.201-6.234 3.579-9.221.694-1.505 1.665-2.857 2.497-4.285.822-1.411 1.333-2.912 1.954-4.416 1.233-2.989 2.993-5.688 4.357-8.595 1.366-2.91 3.312-5.467 4.974-8.203 1.707-2.81 3.152-5.78 4.811-8.622 1.819-3.117 3.75-6.17 5.557-9.293.799-1.38 1.432-2.785 1.885-4.32.149-.502.405-1.034.271-1.573-.333-1.337-.916-.552-1.624.031-.26-.652-.761-5.593-2.123-3.924-.268.329-.06.846-.25 1.171-.198.338-.57.394-.833.733-.459.592-.677 1.336-1.18 1.917-1.226 1.419-2.648 2.735-3.778 4.15-.385.483-.886.881-1.303 1.43-.595.787-1.022 1.752-1.876 2.255.004-.573.157-.913-.642-.887.889 1.177.433 1.133-.322 1.997-.63.72-1.316 1.925-1.973 2.82a109.144 109.144 0 00-4.078 5.918c-3.036 4.754-5.875 9.547-8.511 14.536-2.56 4.845-5.062 9.745-7.086 14.842-2.066 5.205-3.357 10.668-5.34 15.884 1.213-.307.999-1.413 1.412-2.37.249-.576.762-1.025.982-1.595.206-.534-.002-1.218.171-1.758-.001.003.576-.946.632-1.071.209-.467.318-1.007.502-1.492a17.156 17.156 0 011.89-3.648l.588.664c-.186-1.536-1.032-1.782.383-3.11l-.322 2.02c.803-.307.475-.882.648-1.5 1.134.19-.457 1.12.994 1.123-.118.748-.047 1.152-.602 1.404-.195.089-.836-.003-1.076.056l-.025.007c-.274.759.099 1.437.962 1.534-.347 1.074-.236 1.416-1.361 1.532-.137.359.072.55.628.573l-.246.528-.242.52-.008.084c-.159 1.497-1.077 3.067-1.654 4.464-.639 1.545-1.02 3.141-1.543 4.726-.402 1.217-.473 3.047-1.086 4.114-.972 1.697-1.846-.663-2.288-1.62-1.394-3.017-2.707-6.061-4.017-9.116-.746-1.74-1.6-3.428-2.359-5.161-.287-.656-.609-1.335-.726-2.053l-.014-.09c.025.179.395-2.028-.183-.8l-.239-.946.653.056c-.567-1.154-.43-2.385-.535-3.621-.038-.449-.677-2.414.297-1.931 0-1.721-.226-3.502.349-5.149.693-1.984 2.141-3.744 3.33-5.451.638 1.38 1.247-.953 1.667-1.391-.076-.308.006-.443.245-.406l.592-.05c.259-.413.325-1.971.325-2.4 1.617.734 3.447-2.72 4.265-3.67 1.095-1.271 5.122-2.528 4.725-4.58.73.663.537-.004.839-.548.313-.566.847-.91 1.37-1.365.163-.142.543-.4.68-.49.209-.14.445.03.702-.215.656-.624 1.066-1.77 1.499-2.542.802.524 3.163-1.564 3.813-2.302.39-.443.481-1.066.852-1.462.565-.603 1.097-.474 1.214-1.385.996.82.831-1.07 1.457-1.66l.772.136c.235-.351.469-.704.7-1.058.977-1.456 2.073-2.383 3.321-3.573.507-.483.871-1.107 1.365-1.584.528-.509 1.184-.718 1.752-1.181.497-.405 1.111-1.046 1.467-1.577.271-.407.309-1.092.561-1.388l.344.825c1.486-1.636 2.433-3.215 3.975-4.787.284.825.139 1.326.973 1.252.452-.039.843-.588 1.187-.842.116-.086 1.14-.717 1.171-.837.168-.652-.918-1.395-.711-2.135.25-.893 1.76-1.746 2.416-2.318 1.267-1.106 2.531-2.218 3.797-3.325zm-95.752 9.003c.134-.02 1.388 3.782 1.523 4.151.937 2.552 1.477 5.22 2.443 7.798 1.943 5.187 4.427 10.268 7.084 15.077 2.426 4.39 3.661 9.25 6.52 13.495 1.912 2.839 4.03 5.523 6.028 8.299 1.583 2.199 2.908 4.404 5.053 6.117 2.173 1.735 4.002 3.638 5.534 5.948.709 1.068 1.51 2.083 2.465 2.943 1.051.945 2.293 1.386 2.579 2.898l-.759-.033.493 1.829c-2.139-.814-4.095-1.08-6.324-1.434l1.504-.137c-.88-.617-2.099-.71-3.118-1.075-1.035-.372-1.938-.931-2.948-1.344-2.416-.989-4.859-1.897-7.273-2.937-.733-.316-1.654-.495-2.224-1.105l-.31-.394c-.042-.549-.261-.66-.658-.333l-.349.14a4.2 4.2 0 01-.848-.754c-1.545-1.714-2.448-4.142-3.461-6.186-2.662-5.369-5.384-10.954-7.116-16.714-1.546-5.14-2.073-10.428-2.957-15.68-.989-5.875-1.602-11.888-2.774-17.723-.104-.519-.833-2.74-.107-2.846zm170.64 24.742c.569 2.38.779 4.737.743 7.19-.014 1.047.243 2.192.234 3.092-.011 1.154-.321 2.552-.37 3.782-.094 2.375-.395 4.654-.625 6.986-.076.776-.057 1.094-.03 1.917.026.799-.02 1.792-.63 2.34v-1.558c-.552 1.087-1.249 2.031-2.512 2.285.87.784.331 1.293-.333 1.928l.88.243-1.909 1.681a1.986 1.986 0 00-.277-.317c-.355.179-.368.383-.04.612-.644.54-1.313 1.28-2.112 1.585-.052.02-1.995.005-.598.412l-1.877 1.408c-.009-.413.411-.688-.211-.925-.655 1.224-.793 1.467-2.034 2.089-1.082.543-2.166 1.082-3.25 1.623-.123-.669-.51-1.355-1.137-1.669.214.466.548 1.003.522 1.545-.044.918-.351.836-1.191 1.246-1.321.644-2.678 1.393-4.089 1.817-2.687.808-5.439 1.234-8.172 1.806-2.632.551-5.252 1.325-7.897 1.77-2.615.439-5.698.392-8.346.241a104.741 104.741 0 00-8.7-.125c-1.608.042-3.27.087-4.827.33-1.469.229-2.894-.066-4.389-.033-1.368.03-1.761-.356-2.929-.891-1.207-.555-2.975-.761-4.299-.843-.455-.029-.938.338-1.312-.077-.596-.66.323-.997.826-1.473 1.436-1.359 2.253-2.17 4.126-2.753l-.966-.226c6.862-1.847 13.097-4.943 19.649-7.586 2.632-1.062 5.113-2.048 7.722-3.154 3-1.272 6.024-2.555 8.893-4.104 5.62-3.033 10.891-6.287 16.157-9.898 5.398-3.701 9.804-8.67 15.31-12.296zm-64.834 42.218c-.353.193-.263.413.269.661.298-.174.209-.394-.269-.661zm-29.521.077h-.018v.018h.004l.002-.003.012-.015zm-1.045-1.744l-.17 1.744h1.197l-.001-.03c-.022-.714-.581-1.19-1.026-1.714zm-49.045-19.996c2.89 2.068 4.863 5.509 6.946 8.315 2.163 2.918 4.518 5.662 5.935 9.018-.724-.212-.998-1.202-1.544-1.712-.569-.532-.828-.73-1.228-1.411a32.84 32.84 0 00-3.298-4.667c-2.595-3.079-5.091-5.844-6.811-9.543zm100.222 15.332c-.869 0-.614.575-.683 1.346l.683-1.346zm-2.088.088c-.367 1.034.707 1.07 0 0zm-66.342-1.314c-.638.45-.193 1.618.434.959l.011-.012-.221-.469-.224-.478zm.453.938l-.008.009.004.007.004-.008v-.008zm.43-2.841l-.371.411c.189.312.367.224.533-.262a2.087 2.087 0 00-.162-.149zm-51.97-51.35c2.545 1.658 4.995 3.466 7.415 5.3.653.495 1.299 1 1.946 1.501l.646.503c.483.186.759.522.826 1.008.843.56 1.816 1.007 2.766 1.714l-.932.695c.876.549 2.099.609 2.297 1.846l.703-.985c3.054 2.12 6.506 3.44 9.636 5.424 2.774 1.759 5.453 4.123 7.811 6.37 1.133 1.08 2.489 1.915 3.718 2.879.621.487.968.538.902 1.198-.064.641-.996 1.603-1.343 2.137-1.635 2.513-3.757 5.394-4.47 8.352-.757 3.143 1.146 7.057 1.999 10.077.273.966.775 2.067.876 3.062.087.859.46 1.139-.524.353-1.303-1.039-2.337-2.902-3.342-4.248-2.11-2.825-4.095-5.619-6.401-8.305-.579-.676-1.659-1.543-2.015-2.353-.147-.335-.039-.902-.178-1.146-.284-.5-.635-.362-.916-.753-.326-.453-.482-1.154-.684-1.667l-.399 1.246c-4.508-4.928-7.749-10.819-10.857-16.674-1.553-2.925-3.105-5.838-4.608-8.79-.804-1.581-1.581-3.192-2.472-4.728-.675-1.165-2.363-2.672-2.4-4.016zm73.531 49.97l.309-.081c-.276-.988-.535-.899-.309.081zm79.258-28.847c-.614.783-1.116 1.35-1.916 1.913-.637.448-1.24.786-1.691 1.45-.677 1.435-2.907 2.412-4.21 3.208-1.804 1.103-3.671 2.168-5.436 3.33-3.875 2.547-7.946 4.475-12.152 6.446-3.724 1.745-7.406 3.619-11.106 5.085-1.949.772-3.865 1.677-5.783 2.536-1.135.509-2.267 1.028-3.401 1.539-.902.407-2.458 1.593-2.813.466-.269.275-.464.573.061.661l-2.466 1.147c-.77.359-1.009.772-1.101.011-.048-.401 1.003-1.552 1.206-1.948.3-.581.534-1.196.772-1.804 1.087-2.79 1.738-5.684 2.74-8.499l.777.405c.404-1.032.529-.102 1.281-.429.267-.115.298-.737.558-.872.089-.045.46.305.626.275.637-.116 1.494-.228 2.069-.535.238-.127.638-.677.834-.722.277-.063.655.333 1.005.263.55-.11.738-.802 1.267-.997.397-.148 1.025-.069 1.424-.133.986-.159 2.339.01 2.747-1.162 1.453.718 2.911-.255 4.237-.915.673-.336 1.275-.34 1.975-.612.76-.294 1.294-.759 2.095-.983 1.22-.343 2.303-.975 3.391-1.513.828-.409 2.877-2.218 3.456-1.328.65-1.147 3.077-1.597 4.343-1.972a238.37 238.37 0 015.555-1.594c1.641-.443 3.199-1.103 4.81-1.58 1.281-.38 3.582-1.448 4.846-1.137zm-78.051 26.173l-1.061 1.15c.712.205.712.205 1.061-1.15zm-20.209-4.561c.078.303-.43.612-.433.867.388.088.517.287.386.596l-.081.569c0 .897-.377 1.871-.591 2.73-.649-.49-.165-1.102-.285-1.715-.174-.895-.345-.326-.695-.876-.522-.819-.125-.635.294-1.416.19-.353.302-1.491.32-1.515.356-.49.918.109 1.085.76zm42.164-1.091v.853c.447-.469.447-.469 0-.853zm-40.825-2.973c.423.238.326.092.349.774-.309-.183-.425-.442-.349-.774zm106.01-1.039l-.288.691.034-.008.033-.008c.313-.079.632-.22.221-.675zm-105.771.412v.002c-.002 0-.002 0-.001-.002h.001zm.163-1.381c.61.143 1.106-.022.85.777.081-.253-.947.535-1.011.602l-.002.002.163-1.381zm-50.141.382c-.344.119-.889-.015-.85.811l.85-.811zm78.127-1.183v.655l.816-.246-.816-.409zm-26.236-.77l-.404 1.212c-.568-.617-.338-.889.404-1.212zm92.74-3.903c-.424.068-.44.816-.535 1.187l.891-.167-.356-1.02zm-131.288.368l.753.59c-.013-.812-.013-.812-.753-.59zm70.831-7.808c-.017.337.691 1.136.738 1.635.116 1.21-.668 2.212.093 3.346.145-.669.346-1.35.439-2.029.092-.675-.144-.997-.101-1.59.045-.637.691-1.683.02-2.13-.479-.32-1.159.146-1.189.768zm-4.359 3.078c-.386.703-.386.703-.188 1.18l.188-1.18zm1.133-1.453c-.59.476-.493.355-.22 1.17a51.63 51.63 0 011.643-1.35c-.52-.32-.982-.176-1.423.18zm2.324-2.064a.733.733 0 00-.153.132l.343.52c.38-.194.317-.412-.19-.652zm1.349-2.64c-.715.418-.471.969-.308 1.493l.036-.051c.311-.434.617-.87.272-1.442zm8.488-.233c-.588.48-.281.795.016 1.294l.298-.075-.314-1.22zm-75.799.931c.434-.105.323.013.176-.671-.425-.033-.483.191-.176.671zm66.461-4.18c-.387.085-.374.344.038.775.436-.1.424-.36-.038-.775zm-1.316-3.567c-.105.409-.211.817-.315 1.226.793.167.465-.826.315-1.226zm2.197-.825l-.281 1.319.221.163.861-1.2-.801-.282zm-2.01-1.335c-.357.044-.32.638.189.56l-.189-.56zM241.23 75.9h-.774c0 .46.787.325.774 0zm80.38-13.114l-.202.916c.275-.225.672-.428.202-.916zm-1.06-4.948h.004c-.935.042-.589.799-.805 1.392.809-.15.654-.768.795-1.367l.006-.025zm.001-.005l-.001.005h.003l-.002-.005zm-6.098-1.39c-.218.654-.041.723-.821.427.424.794 1.34.003 1.913.47l-1.092-.897zm.008-1.585c.204.709.381 1.134 1.157.954l-1.157-.954z" fill="#85A090"/><path d="M275.898 157.611c.264.047.887-2.106 1.002-2.43.075-.211.544-1.118.463-1.304-.063-.146-1.334-.597-1.465-.656v4.39zm-104.155-53.974c.167-2.271-.029-4.587.323-6.842.128-.825 1.643-5.942-.242-4.214-1.478 1.354-1.679 3.894-1.601 5.719.056 1.302-.535 5.572 1.52 5.337zm118.207 59.23c-1.934-1.897-4.175-3.744-6.696-4.804-1.471-.619-1.484-.427-2.123.99-.573 1.269-1.11 2.498-1.566 3.814h10.385zm-26.537-.288c-2.244-3.576-6.054-6.743-9.657-8.924.332.843.344 1.717.498 2.596.153.883.547 1.57.79 2.41.437 1.514.097 3.295.097 4.855l8.272-.937zm7.535-17.978c-.068-2.94 1.115-5.66 1.834-8.457-3.889.65-4.393-6.301-6.722-7.881.466 3.159.673 6.268 1.022 9.418.155 1.39.2 3.302.671 4.584.491 1.333 1.98 1.71 3.195 2.336zm8.21 5.468c.784-.719 1.401-2.323 1.971-3.301.825-1.419 1.849-2.588 2.899-3.848 1.962-2.356 4.236-4.468 6.139-6.839-2.159.216-4.315.717-6.465 1.24-1.143.277-2.31.645-3.389 1.11-.894.385-1.93.424-2.757.782-1.667.723-1.328 5.118-1.531 6.685-.107.821-.523 1.656.01 2.369.597.8 2.275 1.356 3.123 1.802zm-75.736 13.67c-3.24-.567-6.259-1.374-8.878-3.475-2.235-1.793-4.211-3.968-6.087-6.113-.432-.495-.823-1.007-1.492-1.182-.495-.13-.985.148-1.458-.156-.418-.269-.391-.827-.702-1.118-.511-.476.227-.213-.573-.372-.51-.102-1.4.344-1.94.471-1.318.313-2.658.515-3.972.807-1.288.285-2.002 1.291-3.157 1.933-1.153.641-2.275.914-3.298 1.773-1.06.889-2.323 1.39-3.367 2.214-.87.686-.841 1.872-1.794 2.54-.408.286-.967.313-1.326.668-.419.414-.602 1.106-.961 1.581-.928 1.223-1.617 1.841-2.121 3.353-.509 1.527.098 2.793-.137 4.357-.21 1.396-1.016 2.64-.75 4.048.249 1.32.966 2.473.723 3.88-.137.791-.625 1.374-.504 2.174.09.595.555 1.167.784 1.718.481 1.154.901 2.666.657 3.924-.118.613-.649.976-.796 1.474-.207.7.303 1.565.532 2.434.418 1.581.577 3.215.937 4.809.215.949.317 2.597 1.31 3.016 1.187.502 2.162-.524 3.216.774 1.706 2.1 1.72 5.252 3.441 7.46.742.953 1.754 1.861 3.01 1.991.731.075 1.253-.273 1.956-.016.534.196.965.699 1.241 1.172.576.988.388 2.234.922 3.242.348.655 1.633 2.096 2.261 2.437.972.531 1.447.282 2.232 1.301.893 1.16 1.573 2.66 2.707 3.623 1.094.931 1.823.436 3.078.538 1.25.103 1.663 1.249 2.36 2.166.262.344.845 1.362 1.266 1.486.599.177.412-.098.952-.34 1.083-.486 1.778-.804 2.617.311.848 1.128 1.046 2.676 1.9 3.839.923 1.259 1.592 1.083 2.999 1.261 1.245.157 2.171 1.113 3.078 1.892 1.503 1.29 1.94 1.308 3.764.834 1.081-.281 1.671-.201 2.375.696.753.959 1.448 3.011 2.539 3.548.852.42 1.743-1.405 2.949-1.078 1.045.284 2.332 1.919 3.292 2.524.921.581 2.295 1.566 3.44 1.608.524.019.936-.346 1.425-.35.575-.005 1.43.326 1.956.558 1.137.503 1.773 1.589 2.885 2.191 1.709.926 2.398.072 3.998-.542 1.691-.649 2.441.211 3.874.807 1.08.449 2.707.948 3.879 1.116 1.469.21 2.761-.882 4.251-.89.748-.005 1.192.143 1.795.595.264.198.499.475.736.705.735.712.39.613 1.227.297 1.01-.382 2.11-1.033 3.27-.787.861.184 1.754 1.941 2.47 1.916.337-.012 1.248-1.138 1.518-1.384.642-.587 1.058-1.074 1.994-.868.706.155 1.07.746 1.657.577.5-.144 1.198-1.148 1.359-1.585.434-1.182.15-2.792.296-4.046.202-1.734.624-3.442.907-5.165.269-1.635.303-3.285.535-4.919.172-1.221.94-2.794-.622-3.383-1.223-.461-1.975-.201-3.104-1.101-1.275-1.017-2.152-.938-3.732-.905-3.395.072-5.755-2.167-8.822-3.265-2.786-.997-5.445-2.274-8.222-3.322-1.506-.568-2.619-1.346-3.985-2.089-1.242-.675-2.888-.505-4.25-.954-2.747-.906-5.353-2.045-8.1-2.863-1.514-.451-3.08-.623-4.602-1.104-1.724-.544-2.881-1.579-4.173-2.825-1.46-1.408-5.533-4.663-4.634-7.049.943-2.499 5.491 2.579 6.629 3.271.978.594 2.062 1.316 3.106 1.609 1.412.395 2.532-.152 3.92.432 2.882 1.212 5.67 3.045 8.656 3.933 1.335.397 2.927.32 4.12 1.026 1.232.729 2.365 1.575 3.66 2.252 2.697 1.412 5.4 2.703 8.255 3.753-.932-5.034-1.927-10.145-3.146-15.128-1.277-5.225-.833-10.667-1.442-15.988-2.281 1.468-4.633 2.648-6.959 3.92-2.247 1.23-4.622 1.821-7.025 2.617-2.639.876-5.409 2.095-8.175 2.443-2.776.35-5.882.67-8.68.505a106.59 106.59 0 01-16.151-2.195c-.832-.178-1.566-.503-2.434-.464-.541.025-1.31.423-1.801.125-1.033-.626-.191-2.299.411-2.915.81-.828 1.687-1.135 2.462-2.109 1.116-1.406 2.238-2.791 3.436-4.129 2.257-2.524 4.861-5.026 6.455-8.044 1.72-3.258 3.006-6.687 4.382-10.096-1.535.02-3.149-.162-4.69-.211zm75.8 3.694c-1.604.143-2.985.036-4.477.155-2.153.173-4.623-.026-6.758-.319-2.006-.275-3.968.22-5.94.039-2.047-.188-4.185-.206-6.311-.402-1.329-.122-1.244.203-1.607 1.428-.371 1.256-.841 2.341-1.463 3.496-1.162 2.161-2.524 4.134-4.091 6.02-.724.871-1.47 1.722-2.213 2.576-.88 1.012-1.54 1.416-1.245 2.806.5 2.349 1.253 4.663 1.57 7.044.304 2.28.298 4.587.709 6.849.443 2.431 1.009 4.842 1.42 7.277.388 2.304.681 4.642.966 6.961.235 1.918.083 5.477 1.907 6.71.859.581 2.41.668 3.377.575.998-.096 1.983-.818 2.967-.793.894.023 1.259.624 1.821 1.239.926 1.015.952 1.261 2.202 1.268.802.004.912-.263 1.695.301.802.579 1.329 1.65 2.379 1.899 1.716.408 4.542-1.846 6.021-2.586 4.48-2.243 9.584-2.808 14.135-4.683 2.138-.882 4.299-2.046 6.287-3.266 1.005-.617 1.976-1.263 2.842-2.07.808-.752 2.473-1.94 2.846-2.935-2.523 0-4.928 1.067-7.482.42-2.463-.623-1.834-3.879-1.564-5.717-3.504.522-10.15 2.421-9.329-3.481.295-2.116 1.859-3.75 3.493-4.991 1.256-.954 3.452-1.734 4.143-3.241-2.741-.364-9.434.705-9.842-3.293-.434-4.247 3.782-6.477 7.074-7.892 4.014-1.727 8.264-3.324 12.598-4.033 1.905-.312 3.839-.717 5.754-.811 1.803-.09 4.303.209 5.52-1.431-2.466-.442-4.641-.958-6.91-2.034-.924-.438-1.921-1.092-2.792-1.629-.978-.604-1.423-1.944-2.399-2.445-.855-.439-2.098.145-3.052.239-1.525.151-3.047.308-4.576.409-3.197.21-6.474.47-9.675.341zm-82.568-36.526c1.403.504 2.812.996 4.214 1.503 1.191.43 2.924.757 3.898 1.592 2.876 2.466-1.807 2.47-3.258 2.558.625 2.17 1.443 4.345 1.948 6.542.166.725.57 2.414-.084 2.985-.791.69-1.46-.245-2.013-.884-3.039 3.283-7.222 4.987-11.136 6.979 2.913 2.65 5.711 5.631 9.7 6.524 1.891.423 3.688.891 5.601 1.215.737.125 1.47.441 2.191.646.321.091.959.41 1.282.363.604-.089.595-.479.914-1.18 1.6-3.517 3.163-7.112 5.786-9.99a15.128 15.128 0 014.616-3.453c1.846-.908 3.981-.841 5.882-1.648-2.232-3.235-4.589-6.472-5.888-10.22-.385-1.114-.175-1.527-1.177-1.69-.694-.113-1.039.306-1.659-.254-1.487-1.342.286-2.905 1.196-3.842 2.189-2.253 4.584-4.666 6.101-7.453.639-1.173 1.185-2.553.737-3.832-.693-1.977-1.763-3.934-2.732-5.786-1.795-3.428-3.458-7.242-5.727-10.38-1.165-1.613-2.47-3.154-3.494-4.867-.829-1.386-.864-2.732-2.729-2.065-.721.258-.9.346-1.445.812-.589.504-.574.878-1.443 1.113-.764.206-1.631.083-2.41.242-1.084.223-1.576.796-2.443 1.493-1.561 1.253-3.124.825-4.899 1.288-.655.171-.756.462-1.283.844-.845.612-1.933.727-2.924.963-.984.235-2.112.402-2.994.884-.823.449-1.422 1.162-2.308 1.55-.797.349-2.085.339-2.378.921-.408.811.168 2.496.351 3.311.411 1.831 4.097 11.745.357 11.693.272 1.339.353 2.468-1.342 1.912-1.436-.471-3.368-1.48-4.886-.919-1.245.459-2.721 2.319-3.057 3.601-.514 1.959.31 2.54 1.912 3.313 1.857.897 3.2 1.05 5.181.359.774-.27 1.571-.559 2.237-1.045.737-.537 1.043-1.214 2.034-1.236.695-.014 1.449.314 1.779.941.192.364.052.752.162 1.113.192.63.102.493.557 1.023 1.425 1.659 3.041 2.185 5.073 2.461zm14.381 121.607c1.571.316 3.089-.174 4.665.14 1.394.276 2.925 1.189 4.184 1.833 2.636 1.349 5.848 1.069 8.79 1.455 1.523.199 3.246-.064 4.68.469 1.391.516 2.579 1.249 4.06 1.456 2.872.401 5.91.05 8.747.002 2.935-.049 5.669.631 8.713.063.611-.115 1.256.125 1.778.02.393-.079.779-.521 1.165-.679 1.264-.516 2.916-.48 4.247-.57 3.102-.206 6.012-.097 9.022-.893 1.125-.298 9.532-1.386 9.483-1.779-4.129.236-8.393.042-12.403-1.068-2.983-.826-5.348-2.305-8.052-3.753-.727-.389-1.482-.635-2.32-.676-1.144-.056-1.048.097-1.912.905-1.636 1.531-2.85 1.383-4.475-.074-1.629-1.46-1.782.245-3.6.388-1.881.149-2.103-2.146-3.992-1.846-.875.139-1.568.784-2.471.72-.834-.061-1.35-.644-2.101-.912-.877-.313-1.896-.223-2.808-.46-1.025-.268-1.849-.944-2.924-.815-1.67.2-2.785 1.502-4.625 1.111-1.961-.415-3.049-2.4-5.112-2.345-2.285.062-3.99.207-6.122-.823-.72-.348-1.188-.915-1.864-1.285-.854-.467-1.757-.055-2.651-.284-1.716-.437-2.766-2.672-3.736-4.004-.798-1.095-.913-1.083-2.238-1.288a12.808 12.808 0 01-2.855-.793c-1.028-.42-1.94-1.19-2.989-1.538-.928-.308-1.881-.084-2.758-.567-.855-.471-1.496-1.565-2.101-2.301-.304-.37-.605-.741-.907-1.112-.681-.834-.586-.887-1.501-1.045-.892-.154-1.583-.038-2.41-.537-.907-.547-1.467-1.502-2.303-2.116-.726-.532-1.508-.594-2.348-.899-1.105-.401-1.967-1.073-2.934-1.718-.103 1.924.299 4.691-1.064 6.168-.356.386-.831.592-1.125 1.07-.518.839-.409.352-.22 1.442.217 1.259.18 1.823-.277 2.935-.087.21-.605.254-.689.478-.119.318.244 1.206.325 1.563.153.679.247 1.545.642 2.1.532.747 1.695 1.518 2.342 2.23.759.835 1.522 1.593 2.427 2.274 1.495 1.126 3.571 2.771 5.395 3.263 1.034.28 2.12.158 3.168.483 1.063.33 1.854 1.031 2.846 1.444 4.168 1.733 8.766 1.85 13.208 2.168zm56.188-9.819c.669.388.896.077 1.517.107.554.027 1.195.102 1.799.104 1.139.005 2.532-.283 3.637-.577 2.089-.557 4.19-.914 6.266-1.312 1.768-.339 3.498-1.109 5.271-1.772 2.33-.87 4.802-1.058 7.263-1.195 2.251-.125 4.458-.376 6.702-.56 2.256-.184 4.446.102 6.673-.4 1.037-.234 2.18-.399 3.129-.871 1.096-.545 2.114-1.423 3.191-2.036 1.284-.73 4.586-1.737 5.097-3.276-1.029.246-3.312 1.115-4.211.419-.924-.715-.585-2.578-.219-3.471.549-1.343 1.734-1.733 2.784-2.622.757-.641 1.413-1.404 2.084-2.132.341-.375.684-.75 1.028-1.123-.143-.386-.421-.395-.837-.026-1.958.082-7.323 4.307-7.527.513-.109-2.031 1.106-2.988 2.316-4.398 1.197-1.395 2.131-2.976 3.141-4.504-1.968.319-3.707 1.347-5.631 1.892-2.045.58-4.261 1.242-6.343 1.479-.794.09-2.874.845-3.539.444-.539-.324-.654-1.815-.671-2.359-.064-2.074 1.574-3.736 2.552-5.457-2.284 1.392-3.872 3.36-5.956 4.965-2.067 1.591-3.874 3.051-6.22 4.248-2.144 1.093-4.562 1.629-6.859 2.314-2.344.699-4.619 1.405-7.007 1.924-2.629.572-5.248 1.507-7.896 1.944-.649.107-2.086-.248-2.455.183-.306.359-.082 2.892-.13 3.468-.239 2.837-.803 5.656-1.263 8.464-.232 1.409-.856 3.261-.749 4.688.074.975.087.987 1.328 1.036.595.023 1.15-.143 1.735-.101zm27.362-40.784c-.32.066-.408.216-.262.448 4.512-.991 8.925-2.862 13.571-3.348 1.229-.128 2.287-.618 3.504-.713.561-.045 1.132.031 1.693.039.393.005 1.293.264 1.566.223 1.032-.151 2.139-1.297 2.947-1.904.961-.723 2.175-1.451 2.95-2.392 3.029-3.679 3.794-8.34 1.825-12.637-.472-1.03-.908-2.234-1.567-3.16-.578-.812-2.012-1.342-2.278-2.121-.118-.345.205-1.078 0-1.378-.188-.275-1.548-.334-1.85-.398-1.352-.289-2.708-.595-3.935-1.262-.345.987-.236 1.58-1.203 2.164-1.095.662-2.76.525-3.963.873-2.617.757-5.436.956-8.114 1.702-6.071 1.692-12.413 3.71-17.849 6.965 2.46.965 5.545.46 8.122.477 1.834.013 6.659-1.135 7.631.891 1.24 2.584-2.096 4.278-3.769 5.339-2.621 1.663-5.339 3.178-7.732 5.159 1.389.051 2.673-.27 4.011-.594 1.443-.347 2.918-.369 4.354-.722 2.203-.541 5.106-2.846 7.491-1.912 2.092.819 1.399 3.992-.039 5.071-.936.704-2.14.69-3.224 1.003-1.485.428-2.608 1.353-3.88 2.187zM239.722 76.09c-4.519-3.36-8.876-6.95-13.599-10.026.042 1.478 2.047 3.374 2.765 4.686 1.037 1.893 2.004 3.829 2.972 5.758 1.734 3.452 3.611 6.828 5.359 10.274 3.587 7.076 8.838 12.794 13.938 18.75 2.713 3.168 4.987 6.59 7.553 9.868.515.658 1.037 1.553 1.685 2.099 1.266 1.066.563-.217.304-1.118a639.286 639.286 0 01-1.777-6.329c-.507-1.84-1.318-3.785-.944-5.714.359-1.851 1.453-3.448 2.355-5.066.864-1.551 1.801-3.03 2.769-4.522.44-.677.979-1.189.647-1.803-.357-.66-1.778-1.39-2.386-1.833-3.337-2.44-6.169-5.515-9.623-7.846-2.095-1.414-4.502-2.421-6.737-3.591-1.907-.998-3.566-2.297-5.281-3.587zm113.15 64.68c-.782-.504-1.376-.934-2.264-1.161-.523-.133-1.072-.121-1.592-.292-1.575-.516-2.928-1.339-4.592-1.695-2.832-.605-5.735-1.398-8.608-1.375-3.195.026-6.317.113-9.504.471-1.685.19-3.346.468-5.028.703-1.599.224-3.15.084-4.639.854 1.071.612 2.37.585 3.558.86.949.219 1.808.664 2.709.92 2.516.714 5.08 1.484 7.624 2.132 2.123.541 4.227 1.225 6.311 1.789 1.964.531 4.151 1.801 5.874 2.898 2.019 1.287 3.498 2.836 5.164 4.553 1.763 1.816 3.609 3.484 5.159 5.496 3.289 4.27 4.929 9.558 7.169 14.433 1.121-3.197 1.978-6.307 3.199-9.404.69-1.75 1.597-3.387 2.275-5.172l.834-2.196c.468-1.233.602-1.479-.088-2.616-.816-1.344-1.775-2.519-3.072-3.42-1.207-.839-1.905-1.903-3.158-2.64-2.531-1.49-4.728-3.654-7.331-5.138zm-22.273-26.989c4.63-1.734 9.021-4.243 13.546-6.089.4-.163.782-.031 1.203-.213.562-.245 1.054-.755 1.628-1.023 1.117-.522 2.303-.91 3.423-1.441 2.746-1.303 5.493-2.6 8.243-3.894 4.375-2.059 8.323-4.857 12.453-7.362 1.767-1.072 3.468-2.364 5.013-3.535 1.741-1.32 3.121-3.397 5.052-4.474-.675-.327-2.655.51-3.37.724-1.045.312-2.164.718-3.266 1.078-2.816.916-5.794 1.452-8.552 2.484-2.981 1.117-6.226 1.794-9.273 2.755-3.363 1.06-6.797 1.864-10.167 2.889-2.927.89-5.719 2.022-8.646 2.933-1.567.487-3.247.895-4.699 1.688-1.269.692-1.298 1.46-1.696 2.77-.863 2.835-1.617 5.709-2.734 8.461-.106.261-2.039 3.674-1.998 3.733.272.381 3.451-1.223 3.84-1.484zm-92.798 20.831c1.377.03 2.565.413 3.92.632 1.447.234 2.951-.053 4.369.317 1.131.294 2.206.8 3.336 1.109 1.376.375 2.886.103 4.224.609 1.329.503 2.654 1.674 3.893 2.402.865.508 1.927 2.148 2.994 1.109.605-.589-.089-2.899-.271-3.913-.201-1.125.041-2.993-.741-3.911-1.046-1.228-3.008-1.217-4.41-1.226-1.469-.008-2.873-.292-4.293-.646-3.327-.828-6.712-1.84-9.765-3.415-2.659-1.372-5.2-3.121-7.472-5.075-2.414-2.076-3.893-4.542-5.409-7.288-.362 1.343.483 3.128.475 4.521-.01 1.816-.476 3.587-1.257 5.22a19.771 19.771 0 01-2.563 4.028c-.556.668-1.207 1.245-1.802 1.877-.845.9-.941 1.028-.4 2.162.728 1.523 1.82 2.826 2.697 4.259.123.202.71 1.559.885 1.655.719.398 1.421-.375 2.025-.581 1.926-.66 3.597.103 5.272-1.366 1.25-1.096 2.456-2.546 4.293-2.479zm20.498-12.068c-2.138-5.061-6.256-9.569-9.585-13.925-1.504-1.968-3.446-3.389-5.03-5.259-1.698-2.007-3.373-3.962-5.01-6.02-1.67-2.097-3.158-4.224-4.363-6.632-1.172-2.342-2.583-4.52-3.78-6.857-2.426-4.74-4.623-9.575-7.141-14.274-1.173-2.187-2.202-4.31-3.059-6.644-.26-.708-1.184-4.389-1.376-2.2-.117 1.327.549 2.988.736 4.306.38 2.685.763 5.372 1.107 8.063.374 2.938 1.189 5.817 1.506 8.76.561 5.213 1.443 10.79 3.267 15.73 1.972 5.347 4.256 10.501 6.765 15.608 1.133 2.309 2.196 4.892 4.15 6.617 2.137 1.888 4.325 3.481 6.945 4.643 2.379 1.056 5.165 2.249 7.751 2.562 3.233.39 5.734.647 8.612 2.386-.32-1.199-.112-1.889-.241-3.07-.137-1.263-.839-2.609-1.254-3.794zm3.67 28.007c-.01-1.221-.252-2.324-.406-3.514-.127-.983-.366-1.433-.966-2.196l-.338-.43c-.194-.53-.466-.559-.82-.087-.288-.04-.535.098-.879.018-.393-.092-1.088-.635-1.552-.786-1.2-.392-1.961-1.305-3.153-1.706-.196-.067-.643.174-.916.12a1.171 1.171 0 00-1.04-.427c-.31.037-.621.05-.933.042-1.676-.095-2.799-.958-4.339-1.409-1.681-.492-3.33.026-5.01-.094-1.307-.093-2.288-.772-3.653-.725-1.784.06-1.31.841-1.095 2.417.187 1.371.038 2.218 1.59 2.442 1.429.206 2.673-.449 4.102.013 1.515.49 2.765 1.549 3.855 2.667.589.605.923 1.181 1.755 1.349.594.119 1.439-.193 2.033-.234 1.621-.113 3.019.355 4.405 1.186 2.845 1.705 5.324 4.016 7.709 6.295.041-1.645.199-3.355-.349-4.941zm43.528-13.667c2.539-2.74 7.109-3.734 10.528-4.804-.992-1.114-2.887-2.25-4.37-2.237-1.532.014-3.552.888-4.998 1.402-3.013 1.068-5.314 3.436-7.638 5.519-5.586 5.008-10.171 10.684-14.946 16.443 2.134 1.342 4.432 2.922 6.205 4.709.826.832 1.799 1.728 2.486 2.684.269.374.406.805.633 1.191.449.763-.015.851 1.019.791-2.046-4.679-2.986-10.942-1.894-15.949.626-2.871 2.675-5.268 5.08-6.853 1.217-.802 2.535-1.521 3.931-1.962.863-.273 3.539-.154 3.964-.934zm87.893-45.946c.227-1.665.238-3.338.385-5.01.141-1.598.486-3.082.163-4.698-1.171.446-1.463.72-2.32 1.582-1.012 1.018-1.969 1.954-3.157 2.737-2.632 1.733-5.06 3.86-7.439 5.92-4.861 4.211-9.894 8.792-15.716 11.683-5.463 2.713-10.752 5.686-16.413 8.057-2.64 1.106-5.183 2.089-7.854 3.205-3.121 1.304-6.126 2.879-9.3 4.039-1.535.561-3.058 1.156-4.596 1.705-1.627.582-3.801.837-5.223 1.734-1.181.746-2.22 2.093-3.235 3.054-1.789 1.694.512 1.247 1.742 1.411 1.556.208 2.84.624 4.191 1.294 1.205.597 2.597.213 3.894.344 1.503.152 2.742-.153 4.211-.178 1.814-.032 3.606-.163 5.422-.14 3.11.039 6.26.201 9.35.052 1.345-.064 2.698.017 4.044-.051 1.573-.08 2.944-.637 4.472-.902 5.934-1.03 11.9-2.094 17.35-4.744 5.79-2.816 10.673-6.164 15.228-10.769 2.615-2.643 3.24-5.175 3.538-8.862.31-3.844.88-7.626 1.263-11.463zM286.358 248.124c3.678-.505 7.445-1.193 10.998-2.301 1.752-.547 3.498-1.095 5.266-1.59 1.985-.557 2.34-.922 2.984-2.866-2.468.584-4.825 1.256-7.371 1.649-1.279.197-2.446.681-3.694.868-1.441.216-2.94-.239-4.372-.075-1.352.155-2.689 1.038-4.012 1.407-1.149.32-2.299.428-3.432.781-1.102.343-2.292.704-3.43.923-1.073.207-2.112-.116-3.057.585 1.446.609 3.65.807 5.141.652.908-.094 1.859-.142 2.77-.033.733.089 1.521.44 2.209 0zm23.916-39.299c.002-2.043.275-3.992.556-6.015-2.211-.365-3.968 1.156-5.948 1.81 1.6 2.872 1.791 4.748.848 8.013 1.024-.453 2.059-.82 3.086-1.248.343-.143.82-.31 1.094-.569.702-.663.457-.977.364-1.991zm-39.24-47.307c-.039-2.453-.052-4.906-.169-7.358-.052-1.089.003-2.259-.177-3.331-.211-1.255-1.111-1.746-2.087-2.615-.335 2.408.152 5.312.367 7.772.127 1.454.124 2.58.531 3.948.476 1.599-.004 2.317 1.745 2.811l-.21-1.227zm-29.528 16.987c2.388-1.371 3.885-3.419 5.623-5.49 2.282-2.72 3.808-4.822 4.706-8.315.633-2.468 1.309-6.396-.082-8.727-.624-1.046-1.798-2.861-2.932-3.343-1.186-.504-2.878.365-3.958.827-2.868 1.225-5.376 3.083-8.143 4.556-3.039 1.616-5.949 3.739-8.708 5.793-5.448 4.055-10.417 8.052-15.578 12.424-2.026-2.371 2.674-6.621 4.43-8.073 2.579-2.134 5.018-4.575 7.736-6.653 3.203-2.449 6.483-4.751 9.93-6.846 1.594-.969 3.235-2.255 4.947-2.99.706-.302 1.349-.408 2.012-.828.575-.365 1.059-.836 1.723-1.051-.475-.875-3.376-2.144-4.372-2.255-1.943-.216-4.441.421-6.327.842-3.5.784-7.242 1.396-10.498 2.829-1.501.661-2.534 1.564-3.759 2.693-1.539 1.417-2.182 3.111-3.042 5.008-1.798 3.97-3.745 7.886-5.467 11.886-1.582 3.674-3.163 6.774-5.962 9.687-1.179 1.227-2.383 2.459-3.66 3.585-.697.614-4.036 2.823-3.465 3.638.226.323 2.769.196 3.251.243 1.014.099 2.014.264 3.03.337 2.023.147 3.818.457 5.839.403 1.995-.054 3.938.177 5.928.003 1.883-.166 3.747-.4 5.62-.646 4.199-.551 8.159-2.49 12.073-4.01 1.742-.677 3.266-1.544 4.917-2.311 1.365-.633 3.415-1.997 4.188-3.216zm-11.699-37.328c-.589-.015-1.703-.31-1.944.225-.134.299.36 1.265.484 1.636.222.668.249 1.215.821 1.411.575.196 2.151-.283 2.77-.339.816-.073 1.533-.221 2.347-.365-.252-.692-.418-1.789-1.053-2.227-.717-.496-2.634-.283-3.425-.341zm109.703 10.792c-.595-.687-1.222-.58-1.994-.822-.97-.305-1.862-.898-2.782-1.327-1.896-.884-3.976-1.188-5.921-1.964-3.73-1.489-7.351-2.898-11.1-4.136-1.976-.652-3.979-1.21-6.029-1.576-1.905-.339-4.59-1.209-6.489-.88-3.188.554-7.565 4.064-8.688 7.072-.652 1.748-.166 3.39.189 5.136.435 2.145.817 4.358 1.669 6.389 1.476 3.515 5.483 4.476 8.714 5.488 3.585 1.123 7.184 1.624 10.766 2.715 1.809.551 3.669.807 5.465 1.349 1.726.521 3.361.743 5.19 1.119 4.781.982 9.638 1.679 14.447 2.458 2.512.407 5.007.847 7.514 1.275 1.059.181 2.149.146 3.18.463 1.18.363 1.931.833 3.243.543-2.255-4.409-3.723-9.136-6.806-13.073-3.087-3.942-6.359-7.606-10.568-10.229zm-36.336-26.737c1.922-.389 3.853-.708 5.731-1.21.754-.202 1.57-.576 2.276-.916.785-.377.98-.858 1.581-1.366.248.116.48.095.696-.061.101-.337.305-.599.612-.788.515-.546 1.169-.935 1.738-1.421 1.42-1.214 2.734-2.581 4.081-3.874 1.394-1.337 2.596-2.731 3.482-4.467.213-.417.763-1.161.887-1.517.168-.478.12-1.038.349-1.493.193-.383.703-.621.918-1.044.322-.638.264-1.533.503-2.227.54-1.567 1.201-3.104 1.659-4.697 1.048-3.644.893-7.945.757-11.71-.072-1.982-.704-3.92-1.219-5.82-.493-1.817-.849-3.774-1.57-5.518-.506-1.225-1.299-2.267-1.782-3.513-.675-1.742-1.371-3.4-1.891-5.234-1.051-3.712-2.633-7.117-4.427-10.522-.754-2.358-1.527-4.666-2.579-6.923-2.027 1.772-4.226 3.454-6.079 5.397-1.516 1.59-3.267 3.36-4.919 4.794-1.881 1.633-3.644 3.2-5.651 4.666-1.096.8-1.954 1.824-2.943 2.74-1.031.952-2.194 1.509-3.146 2.546-.901.98-1.616 1.403-2.591 2.118-.729.536-1.264 1.44-1.979 2.038-2.002 1.677-3.654 3.704-5.511 5.525-4.163 4.08-8.044 8.201-11.688 12.787-.498.292-1.083 1.358-1.48 1.9-.72.983-1.222 2.108-1.891 3.124-.735 1.117-1.572 2.197-2.209 3.376-.328.608-.455 1.412-.838 1.964-.216.311-.647.489-.881.819-1.649 2.331-1.106 4.393-.316 6.932.806 2.593 1.392 5.135 2.553 7.599 1.247 2.648 2.349 5.355 3.514 8.039a168.038 168.038 0 001.696 3.75c.343.739.822 2.636 1.62 3.077 1.448.799 1.325-1.581 1.559-2.51.294-1.164.769-2.276 1.106-3.427.736-2.526 2.543-5.34 2.762-7.909 1.849-3.893 2.317-8.303 4.387-12.151.883-1.643 1.566-3.265 2.632-4.845 1.145-1.696 2.062-3.275 2.773-5.152.764-2.015 2.029-4.252 3.247-6.032.556-.813 1.167-1.458 1.679-2.283.678-1.09 1.316-2.21 1.982-3.307 2.619-4.316 5.566-8.636 8.571-12.696 1.303-1.762 2.597-3.575 4.055-5.032.727-.726 4.228-5.91 5.141-5.651 2.677.758-4.429 11.362-5.101 12.502-2.483 4.211-4.67 8.639-7.265 12.776-2.708 4.318-5.305 8.621-7.586 13.186-1.213 2.427-1.959 5.081-3.324 7.425-1.305 2.241-2.556 4.368-3.586 6.751-1.149 2.659-2.025 5.491-3.005 8.217-.824 2.293-2.738 4.86-2.762 7.336 1.919-.481 3.889-.797 5.843-1.149 2.02-.364 4.023-1.132 6.016-1.685 4-1.111 8.19-1.114 11.813-3.234zm-81.814-23.855c.156.572.255 1.153.873 1.409-.318-.945-.63-1.884-1.007-2.808l.134 1.399zM166.762 290.08c-.608-6.257-.753-12.694.259-18.912.232-1.421.237-3.032.75-4.375.563-1.475.401-2.743.77-4.264.721-2.969 1.643-5.932 2.366-8.901.735-3.018 1.921-5.19 3.514-7.812.753-1.238 1.602-2.294 2.467-3.419.458-.597.597-.546.718-1.351.161-1.057-.302-1.992-.397-2.999-.13-1.374.248-2.894.786-4.139.61-1.411.806-2.909 1.431-4.296.559-1.24 1.542-1.851 1.737-3.214.171-1.189.379-2.63.44-3.804.062-1.193-.669-2.117-1.593-2.734-.42-.281-.81-.322-1.225-.696-.451-.407-.902-1.076-1.328-1.542-.863-.943-1.277-2.926-2.171-3.436-.581-.331-1.549-.239-2.197-.447-.791-.253-1.382-.653-1.987-1.207-.998-.913-1.843-2.029-2.506-3.204a18.91 18.91 0 01-.988-2.091c-.171-.416-.486-2.036-.831-2.251-.782-.487-2.261.565-3.311-.109-1.293-.832-1.988-2.883-2.342-4.295-.397-1.587-.423-3.242-.775-4.843-.401-1.821-.825-3.632-1.171-5.465-.614-3.267-1.25-6.833-.946-10.134.067-.725.283-1.55.241-2.269-.039-.671-.405-1.329-.472-2.025-.131-1.376.596-3.002.229-4.207-.537-1.764-1.209-2.629-.494-4.555.489-1.315 1.736-2.247 2.145-3.459.201-.594.026-1.285.197-1.896.211-.755.727-1.048 1.088-1.681.706-1.234.694-2.141 1.994-2.952 1.648-1.026 1.938-1.599 2.957-3.196.69-1.08 2.145-1.955 3.282-2.528 1.363-.686 2.604-1.546 3.998-2.183.7-.32 1.503-.546 2.159-.93.331-.193.563-.522.933-.696 1.129-.532 3.388-.422 4.541-.285 1.584.189 3.188.683 3.653 2.373.867-.817 2.232-1.082 3.261-1.584 1.215-.592 2.584-.798 3.811-1.41 2.864-1.429 5.53-2.88 8.678-3.666-.584-2.005-.767-4.229-2.509-5.514-1.64-1.209-3.353-2.212-4.862-3.594-.749-.688-1.552-1.333-2.254-2.072-.507-.533-1.062-1.711-1.774-1.846-.47-.09-1.649.834-2.102 1.017-1.007.405-2.02.79-3.105.915-3.796.439-7.695-2.337-8.502-6.028-1.056-4.834.494-7.643 4.06-10.711l-1.707-1.006-.568-.334c-.44-.516-.752-.455-.937.184-.97.673-1.548 1.811-2.64 2.448-1.017.593-1.909.765-3.091.728-.688-.021-1.285-.001-1.935-.276a3.829 3.829 0 01-1.009-.643c-.269-.534-.622-.575-1.058-.124-.94.178-1.663.791-2.637.89-.362.037-1.233.141-1.601.074-.587-.106-.68-.696-1.16-.865-1.174-.412-2.516.747-3.566.366-.809-.294-1.942-1.613-2.316-2.361-.511-1.022-.331-2.302-1.101-3.173-.648-.732-1.575-1.089-2.2-1.894-.796-1.027-.985-2.104-1.275-3.326-.359-1.512-1.219-2.798-1.728-4.27-.859-2.481-1.104-5.193-.162-7.68.434-1.146 1.091-1.58 1.723-2.555.724-1.117.825-2.622 1.474-3.834.47-.878.88-1.635 1.703-2.183 1.014-.675 1.924-.665 2.739-1.693.722-.91 1.187-1.795 2.228-2.418.91-.543 2.215-.355 3.018-.858.872-.547 1.084-1.558 2.158-2.01.949-.4 2.023-.443 3.033-.366 1.236.094 2.563.604 3.807.47 1.235-.134 2.092-1.027 3.398-1.198 1.352-.176 2.661-.176 3.899.474 1.039.546 1.8 1.967 2.948 2.199 1.019.206 1.621-.28 2.682.099.908.325 1.682.614 2.173 1.543.145.273.179 1.147.398 1.325.501.408.186.143.869.045 1.317-.187 2.781-1.089 4.042-1.54 1.27-.455 2.658-.92 3.988-1.16.437-.078 1.136.013 1.535-.105.479-.141.779-.497 1.266-.693 2.486-.996 5.103.467 7.558.685 1.676.148 2.143.418 3.147 1.788.86 1.174 1.481 1.039 2.635 1.66 1.005.54 2.004 2.17 2.593 3.13.775 1.265.352 2.237.603 3.517.217 1.11 1.379 1.444 2.176 2.247 1.113 1.121 2.098 2.438 3.158 3.618.211-1.655-.741-3.398-1.177-4.953-.516-1.835-.528-3.613-.84-5.46-.58-3.433-1.199-6.907-1.461-10.395-.28-3.727-.494-7.503-.899-11.205-.176-1.608-.003-3.189-.108-4.79-.049-.732-.111-1.444-.116-2.178-.004-.78-.313-2.587.003-3.25.549-1.151 1.955.45 2.808.853.595.28 1.269.311 1.851.631.888.488 1.223 1.3 1.819 2.065 1.917 2.459 5.108 4.182 7.663 5.904 6.185 4.17 11.966 9.055 18.312 12.966 3.417 2.105 6.881 3.94 10.076 6.4 2.69 2.072 6.5 4.807 7.589 8.187 1.63-1.06 2.352-3.016 3.588-4.442 1.409-1.625 2.754-3.304 4.141-4.951.889-1.056 1.961-1.698 2.85-2.684 1.356-1.506 2.755-3.073 4.249-4.48 5.462-5.148 11.163-9.913 17.052-14.586 1.709-1.356 3.451-2.672 5.134-4.06 1.715-1.413 3.202-3.136 5.012-4.397 1.569-1.093 2.887-2.48 4.494-3.521 1.003-.65 3.434-2.79 4.807-1.869.458.307.432.86.609 1.32.407 1.06 1.026 1.947 1.622 2.908 1.12 1.806 2 3.75 2.978 5.635.986 1.902 2.095 3.688 2.816 5.717.787 2.216 1.442 4.48 2.357 6.65 1.865 4.428 3.757 8.667 4.734 13.394.532 2.573.842 5.154 1.117 7.767.159 1.498.218 2.947.089 4.452-.064.736-.716 2.672-.202 3.272 4.039-2.209 7.882-4.274 12.297-5.44 2.016-.532 3.995-1.56 6.04-2.15 2.462-.712 5.068-1.51 7.44-2.468 2.221-.898 4.554-1.46 6.807-2.287a76.64 76.64 0 017.63-2.327c5.175-1.295 10.73-2.517 15.695-4.464 1.391-.545 2.718-1.223 4.124-1.737.902-.33 2.345-1.173 3.294-1.076 2.052.208 2.123 4.264 2.115 5.837-.029 4.928-.115 9.872-.712 14.85-.641 5.351-.572 11.141-2.643 16.223-1.789 4.392-6.096 8.049-10.094 10.423-2.601 1.544-5.289 3.415-8.062 4.598-2.388 1.021-4.808 1.826-7.221 2.742-5.174 1.962-10.604 3.449-16.125 4.036 1.121.731 2.366 1.407 3.552 2.038 1.4.746 2.383 1.582 3.63 2.495 2.087 1.528 4.2 3.144 5.91 5.118 2.288 2.641 3.905 4.988 4.38 8.563.466 3.5-1.497 6.874-2.671 10.06-1.389 3.772-2.756 7.524-3.917 11.374-.376 1.247-1.36 3.233-1.156 4.569.098.645.604 1.041.596 1.747-.02 1.589-.775 1.469-1.986 1.312-1.615-.208-3.267-.272-4.871-.549-1.523-.263-2.984-.205-4.482-.425-1.536-.226-2.977-.426-4.541-.507-.8-.042-1.601-.077-2.402-.089-.798-.012-1.119-.271-1.818-.387-.71-.117-1.462.176-2.22.07-.798-.112-1.631-.574-2.425-.578-1.006-.006-1.005.101-1.99-.184-.733-.212-1.447-.082-2.196-.149-1.645-.145-3.32-.464-4.937-.809-1.062-.226-2.091-.282-3.158-.429-.767-.105-1.536-.618-2.306-.597 2.093 3.338 2.84 6 2.811 9.908-.028 3.659-1.47 6.913-3.526 9.908-1.844 2.687-3.956 4.217-6.993 5.291-1.787.632-2.522.417-2.695 2.417-.162 1.868-.295 3.687-.582 5.542 1.998-.922 7.669-4.991 8.822-1.754 1.293 3.628-1.76 6.862-3.478 9.683 2.045-.269 4.214-1.194 4.68 1.485.214 1.231-.289 2.526-.753 3.641-.323.777-1.96 2.834-1.828 3.502.069.346 1.007.839 1.226 1.155.314.455.43.976.516 1.514a5.282 5.282 0 01-.639 3.475c-1.021 1.759-3.722 3.275-5.418 4.257-2.127 1.231-3.883 2.517-6.353 2.846-.21.029-1.037.097-1.132.19-.17.165-.19 1.843-.251 2.15-.264 1.327-.622 2.818-1.162 4.063-.859 1.982-3.751 2.481-5.61 3.31-2.691 1.2-5.363 2.056-8.162 2.961-1.386.447-2.773.886-4.19 1.225-.934.223-3.485.254-4.16.878-.417.385-.542 1.324-.948 1.812-.21.254-.663.064-.845.233-.503.467-.7 1.791-1.15 2.408-.089.122-.898.861-.927 1.079-.052.396.729 1.556.897 1.923.618 1.346 1.205 2.702 1.66 4.113.797 2.47.752 5.094 1.502 7.535 1.583 5.157 2.329 10.534 3.196 15.862.461 2.83 1.003 5.66 1.514 8.48.504 2.784 1.652 5.395 2.542 8.066 1.646 4.942 1.702 10.395 1.187 15.525-.143 1.417.562 5.315-1.971 4.075-2.208-1.08-2.032-5.434-2.629-7.48-1.579-5.416-2.222-11.116-3.876-16.541-1.696-5.564-2.649-11.084-3.571-16.817-.952-5.923-2.195-11.775-3.218-17.674-.216-1.241-.302-6.417-1.815-6.837-.632-.176-2.192.363-2.964.395-1.745.073-3.385.439-5.079.855-2.357.578-4.663.162-6.995.633-1.356.275-2.738.378-4.094.651-1.47.297-2.825.904-4.309 1.166-2.562.452-5.117-.009-7.699.138-2.652.151-5.432.446-8.085.273-2.731-.178-4.568-1.805-7.247-1.825-2.563-.019-5.239.333-7.768-.12-1.12-.2-2.429-.482-3.498-.795-1.109-.324-2.046-1.14-3.171-1.52-2.881-.974-5.876-.223-8.892-.79-1.226-.231-3.058-.444-4.174-.96-.672-.31-.733-.417-1.373-.534-.553-.101-.995-.165-1.548-.341-1.347-.428-2.467-.656-3.775-1.291-1.098-.533-1.89-1.392-3.139-1.638-.6-.118-1.228.006-1.819-.15-.723-.192-1.458-.706-2.158-.996-1.353-.561-2.55-1.258-3.676-2.201-2.239-1.874-3.587-3.979-4.833-6.582-1.672 4.121-2.735 8.499-4.165 12.722-.682 2.014-.773 4.017-1.126 6.1-.395 2.322-.84 4.6-1.323 6.871-.171.804.093 1.634.025 2.456-.095 1.158-.464 2.297-.56 3.476-.19 2.314-.266 4.71-.33 7.03-.122 4.479.893 8.937.829 13.422-.013.928-.4 1.859-.243 2.792.211 1.251.698 2.079.743 3.409.08 2.297.283 4.576.145 6.874-.223 3.717-1.166 7.523-2.59 11.049-.762 1.887-1.37 3.928-2.412 5.684-.752 1.266-1.751 3.404-3.513 3.04-1.589-.329-1.796-1.49-1.461-2.843.523-2.112.87-4.188 1.255-6.328.419-2.334.316-4.673.643-7.012.338-2.414 1.057-4.849 1.138-7.296.09-2.752-.995-5.548-.735-8.303.117-1.241.415-2.025.223-3.31-.083-.555-.141-1.115-.215-1.671-.096-.724.231-1.63-.13-2.245zm-29.717-82.507c-.037-5.144-.143-10.253-.119-15.329.006-1.155-.39-5.144.698-5.908.677-.474 1.622.123 1.793.922.109.505-.755.344-.471 1.194.278.835.574.321 1.177.831 1.017.857.393 4.49.37 5.737-.012.661.174 1.319.173 1.907-.001 1.09-.348 2.255-.211 3.388.116.954.386 2.032.31 3.001-.062.786-.362 1.29-.301 2.134.036.496.224.875.253 1.423.134 2.567.404 5.089.693 7.653 1.146 10.158 3.177 20.1 2.923 30.367-.066 2.639.193 5.275.082 7.918-.113 2.718-.387 5.427-.503 8.146-.158 3.686.012 7.185.046 10.628.016 1.576-.112 3.623-.073 5.384.022 1.036.17 2.197.113 3.333-.07 1.404-.304 2.884-.299 4.279.004.853.236 1.629.268 2.392.038.869-.085 1.571-.099 2.429-.009.537.162 1.095.139 1.633-.045 1.029-.202.591-.278 1.22-.166 1.382-.008 2.864.04 4.248.159 4.637-.084 9.34-.243 13.965-.077 2.222-.131 4.513.08 6.725.073.763.562 2.018.313 2.728-.103.295-.296.425-.414.671-.399.016-.538.195-.419.539.012.35.022.7.032 1.05.036 1.177.042 2.366.15 3.54.094 1.016.816 2.323-.59 2.555-2.488.409-2.484-3.341-2.59-4.794-.375-5.16-.735-10.482-.409-15.653.144-2.293.014-4.455-.012-6.75-.031-2.708.337-5.422.417-8.131.152-5.128.387-10.184.199-15.313-.435-11.853-.344-23.785-.528-35.651-.09-5.788-.685-11.588-1.475-17.317-.387-2.801-.872-5.62-.999-8.448-.128-2.882-.056-5.763-.236-8.646z" fill="#000"/><path d="M252.173 282.082c4.35 3.327-3.701 10.738-5.98 13.016-.978.978-1.818 1.964-2.92 2.828-.581.455-3.301 1.938-3.417 2.642-.124.754 2.041 3.019 2.484 3.652.965 1.379 1.95 2.743 2.93 4.111 3.58 4.995 7.604 10.07 9.317 16.057.362 1.264.966 3.259.572 4.577-.499 1.672-1.621.581-2.249-.451-1.499-2.461-2.226-5.072-4.07-7.384-2.273-2.848-4.749-5.504-6.87-8.478-2.101-2.948-3.462-6.212-5.354-9.266-1.015.824-2.204 1.437-3.142 2.263-.415.366-.619.928-.985 1.331-.49.542-.999.778-1.584 1.223-.939.712-2.533 1.762-3.17 2.717-.866 1.298-.924 3.297-1.573 4.744-1.565 3.486-4.105 6.626-6.133 9.857-.807 1.288-1.893 2.697-3.178 3.55-1.662 1.105-2.77-.952-3.081-2.425-.634-3.011 2.03-6.589 3.292-9.17 1.587-3.245 3.858-6.084 5.463-9.309.863-1.733 1.264-3.024 2.69-4.403 1.164-1.126 2.465-1.925 3.587-3.053.535-.537 1.144-.678 1.734-1.098.537-.382.716-.793 1.163-1.313.941-1.097 2.063-1.836 3.312-2.416 1.352-.627 2.642-2.19 3.891-3.151 1.67-1.284 3.392-2.439 4.988-3.819 2.743-2.371 5.43-4.56 8.283-6.832zm87.927-38.671c.627-.398.549-.668.125-1.053l-.125 1.053zm1.93-35.689c.45-1.103.45-1.103-.12-1.281l.12 1.281zm2.361 3.349c-.05 3.64-.29 7.318-.246 10.948.019 1.512.04 3.064-.037 4.583-.072 1.424-.014 2.662-.026 3.989-.004.425-.214.986-.21 1.501.01.96-.111 1.908-.189 2.864-.153 1.881-.238 3.766-.329 5.65-.084 1.736-.079 3.459-.094 5.197-.014 1.608-.645 2.539.104 4.094-1.265.176-.596 1.307-.711 2.361-.086.794.008 1.345-.066 2.107-.073.758-.348 1.627-.208 2.401.071.393 1.107.98-.253.731-.202.295-.038.501.492.62a.762.762 0 01-.381.529c.039.628-.139 1.494-.246 2.185-.155.994-.379 2.022-.403 3.031-.015.6.221.282.476.629-1.065.739.052 1.644-.301 2.662.17.574-.061.809-.69.704l.06.859.059.85c-.282.076-.392.248-.331.519.01.454.419.94.384 1.381a4.12 4.12 0 01-.364.559c-.138.292-.065.535.22.732-.111.519-.191.916-.242 1.374-.06.544-.274 1.398.299 1.87-.905.316-.347.613-.308 1.281.054.926-.184 1.701-.2 2.575-.003.17.094.549.073.694.084.173.133.356.147.55l-.328.324c-.08.527.112 1.579-.185 1.715.75.294.388 1.326.469 1.988a1.195 1.195 0 01-.189.551c.133.081.261.17.384.266-.87.514-.533 3.019-.506 3.932.052 1.748-.066 3.502.044 5.245.186 2.942.055 5.803.105 8.729.012.702.255 1.557.16 2.236-.095.671-.312 1-.274 1.761.07 1.413.152 2.726.173 4.17.022 1.454.014 2.772.115 4.141.089 1.212.258 3.17-.923 3.913.318.166.972.313.849.701-1.048-.073-1.386.517-1.833-.554l-.711.763c-1.097-2.07-.71-4.708-.715-6.968-.004-1.575.012-3.259-.021-4.65-.103-4.484-.248-9.01-.144-13.506.21-9.041-.823-18.175-.364-27.22.847-16.668 2.663-33.404 2.993-50.102.097-4.875.374-9.768.487-14.65.051-2.192.079-4.374.065-6.584-.008-1.274-.171-2.577-.047-3.842.208-2.125.262-.693.772-.561.5-2.4 1.643-.579 1.803.941.082.775-.085 1.577.15 2.325.245.784.586 1.107.642 2.007.265 4.273.442 8.617.55 12.899zm-184.824 63.465l-.627.578c1.105.236 1.84.834 2.792 1.522-.256.44-.685-.283-.936-.077-.584.481.128.93.052 1.243-.051.213-.31.697-.297.924.016.287.64 1.136.734 1.507-.691-.309-.864-.537-1.482-.125 1.196.439.937.94.937 2.155l-.838-.205c1.186.331.049 1.437 1.067 1.871-.778 1.102-.304 1.605.325 2.705-.425.101-.926.126-.943.707-.023.773.529.419.968.831-1.095.378-.599.562-.543 1.471.057.917-.459 2.999.921 2.713-.041.387-.584.521-.582.597.024.776.035 1.541.041 2.318.008 1.032.081 2.103.209 3.06.294 2.201.274 4.463.286 6.633.014 2.321.62 4.789.334 7.181-.254 2.128-.505 3.999-.407 6.152.081 1.763 1.022 5.036.078 6.481-1.547 2.366-3.718-1.238-3.821-2.794-.355-5.354-.248-10.741-.49-16.117-.239-5.323-.335-10.606-.796-15.985-.471-5.496-.558-10.871-.628-16.392-.065-5.108-.664-10.153-.869-15.255a201.096 201.096 0 01.045-16.637c.248-5.815-.37-11.631-.134-17.43a92.48 92.48 0 00.083-4.197c-.007-1.383-.363-3.322-.004-4.658.207-.769.181-.592.415-1.095.121-.262-.68-.582.099-.786.909-.24.671 2.538.52 2.926 1.354-.1 1.2.553 1.424 1.905.149.894.221 1.82.275 2.724.101 1.709.651 3.305.866 4.941.021.161-.13.454-.088.764.073.546.231 1.099.341 1.642.25 1.224.263 2.22.215 3.465-.102 2.628.004 5.31-.167 7.909-.124 1.885.071 3.636.011 5.516-.033 1.059.22 1.771.129 2.828-.087 1.005-.021 2.111-.006 3.128.026 1.908-.243 4.151.16 5.939.233 1.032.205-.894.432.422.021.129-.255.327-.233.492.155 1.146.383 2.831-.206 3.808l.648.038c-.239.67-.457.067-.603.667a1.4 1.4 0 00.355.465c.238.14.204.299-.102.479.17.564-.08 1.368.118 2.027.147.486.452.588.548 1.005l-.154.518c.078.328.234.616.465.863.013.55-.353 1.304-.493 1.822l-.614-1.176v1.59l1.185-.082c-.441.407-.711.85-.896 1.408-.32.965-.475.988.538 1.62.209.131 1.21.468 1.247.697.068.426-.395.302-.51.445-.231.286-.818.78-1.181.337.649-.294.337-.559.124-1.196-.521.256-.692.68-.337 1.168zm-31.899-31.518c-.385-3.835-.521-7.794-.664-11.655-.062-1.686-.483-3.443-.35-5.197.074-.988.246-1.98.338-2.97.142-1.504.394-1.736 1.755-2.394.369.837.064 1.222.027 1.984-.037.774.04 1.08.324 1.956.571 1.763.659 3.698.886 5.542.425 3.453.584 6.906 1.05 10.361.378 2.803.131 5.603.549 8.291.405 2.602.176 5.634.078 8.259-.23 6.145-.225 12.122-.152 18.279.039 3.322-.263 6.772-.225 10.007.033 2.849.137 5.723-.043 8.598-.089 1.405.054 2.601-.034 3.999-.069 1.107.35 2.404.221 3.486-.04.342-.319.598-.366.916-.081.541.139 1.528.113 2.131-.062 1.474-.006 2.763-.143 4.114-.337 3.312.129 6.894.054 10.239-.037 1.657.029 3.327-.157 4.976-.143 1.259.038 3.884-1.671 3.563-2.347-.443-1.766-4.764-1.859-6.456-.195-3.56.228-7.121.22-10.679-.016-7.526-.034-15.049-.007-22.574.052-14.862.472-29.951.056-44.776zm-28.105 37.149c-.173.816.092 1.427.045 2.191-.034.561-.202.871-.254 1.421l.083.461c.397.324.37.582-.082.773.028.346.231.723.24 1.05.067 2.335-.143 4.967-.189 7.38-.024 1.295.038 2.492.103 3.745.047.929-.447 1.964-.39 2.933.035.607.355 1.2.349 1.878-.006.602-.346 1.046-.38 1.773-.04.858.28 1.762.322 2.577.037.708-.33.941-.335 1.558l.151.317c.489.291.547.691.175 1.2l-.28.388a.88.88 0 00.232.808c.022.494-.143 1.021-.138 1.435.014 1.202.234 2.497.327 3.707.224 2.939.491 5.877.344 8.826-.028.555.352 1.211-.512 1.591-.192.084-.67-.171-.841-.138-.513.099-.702.499-1.202.175-.568-.37-.436-1.151-.441-1.713-.05-5.654-.915-11.43-1.1-17.158-.191-5.88.088-11.777.122-17.662.036-6.39-.21-12.818-.103-19.199.093-5.533.376-11.044.13-16.626-.147-3.386-.965-6.687-1.024-10.085-.024-1.356-.2-2.353.616-3.426 1.092-1.434 2.291-1.24 3.225.189.694 1.062.921 2.619.284 3.777-.126.229-.891.805-.922.939-.095.41.2.456.396.966.013.035-.079.696-.05.846.13.662.317 1.201.215 1.865l-.182.42c-.532.339-.472.676.179 1.012.622.315.705.681.248 1.096l.082.904-.629-.722c.05 1.189.665 1.855.882 2.946.179.907-.284 1.989-.215 3.037.052.791.128 1.319.133 2.05.003.514.389 1.093.406 1.366.032.503-.332.934-.364 1.373-.037.49.046.699.155 1.299.496 2.739.06 5.952.047 8.738-.006 1.359-.06 2.74.001 4.098.031.697.118 1.469.083 2.09-.03.547-.114.91.058 1.531zm224.575 2.957c-.348-.064-.455.554-.112.618l.112-.618zm3.259 2.068c-.052.925-.399.947-.278 2.069.078.729-.135 1.829.587 2.288-.842.475-.111 3.91-.085 4.846.059 2.093.069 4.185.106 6.277.072 4.028.459 7.984.114 12-.179 2.081-.245 4.171-.327 6.257-.041 1.031.474 3.981-1.054 3.925-2.704-.1-1.392-7.254-1.407-8.837-.036-3.767-1.198-7.379-1.348-11.124-.135-3.356-.444-6.907-.748-10.317-.313-3.494-.064-7.014.024-10.521.096-3.834.068-7.667.201-11.499.158-4.537-.01-9.073.112-13.611.058-2.169.192-4.371.387-6.535.162-1.78-.143-4.585.811-6.139 1.374.793.689.833.905 2.121.157.937.452 1.145 1.099.222.038.523-.273 1.054-.229 1.516.052.555.379.79.5 1.368.171.816-.554 2.31.462 2.779-.391.452-.166.769-.139 1.299.037.74-.08 1.674-.063 2.464l.633-.744c.515.236.263.654.203 1.05-.981-.717-.755.743-.766 1.112-.019.683-.004 1.121-.089 1.862-.058.508-.1 2.011.042 2.47l.861.301-.059 1.135c-.541-.363.107-1.014-.961-.679.388.543.443.492.366 1.228.139 1.602.225 4 .173 5.375-.014.392-.394 1.092-.397 1.616-.002.533.226.994.252 1.484-.008-.152-.148.938-.151.958-.085.564-.082.609-.146 1.333-.126 1.415.129 2.873.058 4.27-.029.564-.137 1.056-.224 1.745-.117.927.183 1.841.179 2.726-.002.702-.294 1.559.396 1.91zm30.956-28.397c.84-.394.86-.535.207-1.193l-.207 1.193zm.505-14.51c-.019.424.024.529-.053.994.339.385.312.612-.082.679a.765.765 0 00-.206.322c-.049 1.073.266 2.231.966 3.029-.908.509-.786 1.459-.631 2.325.181 1.004-.028 1.087-.205 1.952-.283 1.379 1.011 1.261.39 2.672-.352.801-.559-.021-.128.915.443.967.664.43.246 1.578-.063.172.225.335.2.495-.047.304-.458.009-.471.457-.005.193.302.382.317.573.056.696.065 1.404.098 2.102-.605-.264-.664-1.006-.875-1.611-.331.087-.157 1.405-.157 1.735l.634-.256c-.013.722.517.706 1.024.994-1.231.533-.407 1.159-.616 2.271-.123.656-.763 1.301-.824 2.035-.022.27.355.511.424.781.041.161-.063.693-.005.918-.007-.026.456.395.524.584.216.591-.165 1.134-.189 1.686-.046 1.031.066 1.699-.031 2.698-.096.98.042 2.164.057 3.091.007.506.146.69.189 1.255.076.971.096 2.049.095 2.937-.001.87.076 1.748.12 2.617.04.787.124 1.714.098 2.413-.02.522-.06 1.249.056 1.918.149.858.102 1.661.325 2.512.347 1.323.217 1.464-.155 2.74-.283.973.171 1.758.193 2.667.017.719-.624 1.793.521 1.762-.15.933.878.925.879 2.082l-.682-.527c-.301.438-.711-.006-.871.38-.195.472.069.921.634.815-.215.344-.622.641-.507 1.11l.993-.639c-.217.613-.42 1.013-.465 1.654-.06.851.58.56-.21 1.233.773.543.443 1.198.433 2.079-.007.507-.086.706.057 1.364.158.729.126 1.036-.079 1.691-.198.634-.799.282-.252 1.241.937-1.073.557.435.374.909-.435 1.127-.474 1.286.649 1.914a12.78 12.78 0 01-1.12.813c.155.318.422.305.8-.039-.006.211-.078.658-.027.887-.023-.104-.427.177-.437.335-.027.447.503 1.086.521 1.632.036 1.07.165 1.403.108 2.411-.05.893-.043 1.782-.043 2.676 0 .952.309 1.574-.844 1.607-1.712.048-1.858-2.015-2.065-3.244-.62-3.691-.218-7.712-.507-11.469-.259-3.355-.381-6.721-.658-10.084-.562-6.824-1.112-13.351-1.455-20.179-.171-3.42-.12-7.008-.135-10.536-.016-3.742.076-7.496.018-11.219-.063-3.973-.372-7.999-.256-12.024.117-4.105 0-8.559 1.322-12.461 1.919 3.553 1.644 7.772 1.976 11.748zm-246.246 69.047c-.328-6.648-.157-13.338-.115-19.994.042-6.509-.22-13.148.678-19.595.39-2.798.756-5.669.739-8.492-.01-1.724.195-3.462.179-5.176-.012-1.202-.357-2.372-.304-3.613.124-2.879.192-6.1.695-8.93.161-.91.358-1.327 1.159-.594.809.74.13 2.487 1.107 2.889.171-.727.285-.486.33-.144.032.25-.182.7-.2 1.003-.02.359-.243 1.67-.163 2.004.141.595.692.459.945.874.231.38.336 1.636.321 2.121-.031.993-.673 1.892-.54 2.896.071.532.41.841.357 1.345-.048.464-.405.746-.502 1.12-.148.576-.068.443.036 1.114.073.475.152.875.124 1.395-.048.911-.301.989.63 1.256-1.342.876-.748 2.667-.886 3.924-.063.577-.389 1.433-.183 1.978.293.772.9.493.758 1.451-.385-.476-.931-.069-1.41-.234.183.666 1.533.726 1.462 1.4-.017.152-.99.419-1.122.674-.128.246.221.832.161 1.191l-.793-.624c.087.288.486 1.777.475 1.823-.052.221-.583.22-.722.771l1.114-.376c.03.438-.213.605-.345.946.362.246.341.454-.065.622-.227.074-.339.208-.337.402.043.713 1.172.904-.549.982.167.376 1.34 2.486.408 1.918.164.891.301 1.743.355 2.646.048.805-.211 1.247-.317 1.934a2.184 2.184 0 00-.353.546.804.804 0 00.279.438c.061.981.23 1.029-.494 1.746 1.21 1.062.083.451.037 1.374-.026.545.225 1.513.275 2.104.06.694.265 1.48.169 2.175-.094.675-.587.926-.179 1.505-.749.16-.241.997-.227 1.177a.786.786 0 01.361.417l-.303.523.036 1.255c.023.765.041 1.219.173 1.873.046.224-.199.507-.08.743.221.438.514-.095.731.559-.728.013-1.093.615-1.096 1.329-.002.443.356 1.102.339 1.679-.017.541-.155 1.07-.164 1.61-.009.555.149 1.06.173 1.593.096.205.194.409.291.614-.267.088-.388.25-.362.488-.046.68-.021 1.102-.174 1.823-.305 1.445.291 3.429.23 5.172-.017.509-.126 1.028-.064 1.536.062.517.489 1.043.527 1.478.049.576-.39 1.341-.313 2 .176 1.503.434 3.132.4 4.879-.022 1.138-1.387 3.928-2.566 2.598-.502-.567-.268-3.375-.323-4.164-.093-1.32-.177-2.64-.268-3.96-.187-2.683-.542-5.327-.535-8.017zm186.706-43.192l.385-.049-.278-.872c-.331.074-.133.632-.107.921zm-1.413-.883c.11-1.856-.146-4.862 1.101-6.317.478.736.272.881.383 1.427.138.684.263 1.361.886 1.7.45-1.188 1.277.67 1.356 1.135.248 1.445.126 3.157.264 4.641.269 2.908.46 5.764.434 8.679-.018 2.09-.015 4.271.103 6.383.069 1.243.022 2.47.04 3.745l.029 2.124c.004.283-.221 1.295-.212 1.312.241.47.204.85.703 1.439-.904.266-.455.626-.393 1.595.075 1.173-.063 2.338-.052 3.516.008.828.08 1.661.101 2.483.014.51-.083 1.069-.019 1.593l-.125.473c.33.081.456.257.375.527-.083.621-.371 1.107-.409 1.845a46.757 46.757 0 01-.333 3.592c-.098.755-.429 1.727-.46 2.453-.042.972.683 1.367-.293 1.96 1.106.643 1.391 2.861-.112 2.989 1.035.656 1.099.519.986 1.64-.127 1.267-.471 1.798-.194 3.066-.52-.428-1.099.636-1.691.729-.862.137-1.186-.293-1.538-1.071-.805-1.782-.395-4.464-.47-6.381-.169-4.345-.342-8.737-.371-13.056-.03-4.282.064-8.588.046-12.876-.004-1.163-.079-2.34-.016-3.502.035-.654.369-1.44.304-2.071-.069-.658-.316-1.143-.297-1.913.026-.976-.083-1.96.01-2.937.144.046 1.024.459 1.112.199.146-.43-.445-.353-.632-.635-.545-.821-.519-1.87-.594-2.882-.189-2.518-.037-5.079-.022-7.604zm78.368 49.383c-.411 1.012-.296 2.361-.698 3.26-.457 1.025-1.373.763-1.98-.102-.624-.888-.424-2.718-.517-3.767-.122-1.375-.118-2.708-.067-4.086.185-4.928.164-9.951.287-14.84.132-5.272-.203-10.593-.042-15.87.166-5.423-.261-10.875.58-16.249 1.078.779.339 1.35.539 2.525.128.75.452 1.295.659 2.2 1.107-.263-.06.348.304.785.141.17.023 1.14.595.365-.323 1.228-.096 1.422.226 2.513.296 1.005-.171 1.741-.296 2.529-.027.169.087.83.098 1.137.02.509.195 1.081.3 1.469.133.492.582 1.421.602 2.124.076 2.65-.683 5.475-.395 8.144.107.996.289 1.543.196 2.526-.111 1.163-.455 1.305-.1 2.391.036.111.479 1.184.479 1.123.002.503-.5.877-.522 1.429-.041 1.023.61 1.221.096 2.326-.388.832-.596.973-.577 2.069.018 1.019.048 1.856.085 2.844.052 1.368.42 2.604.396 4.008-.019 1.156-.366 2.119-.423 3.203-.059 1.143-.17 2.49-.092 3.634.023.329.249.624.232.924-.029.552-.502.853.035 1.386zm-258.414-84.454c-2.293.604-2.712-4.057-2.703-5.443.009-1.247.167-2.51.271-3.752.051-.602-.028-3.493.566-3.805 1.864-.983 2.02 4.939 2.096 5.658.283 2.661.3 4.748-.23 7.342zm197.156 71.572c-.242.662-.116.901-.874.863.316.692-.455 1.263-1.007 1.925-.313-1.126-.046-2.334-.056-3.528-.011-1.409-.02-2.811-.077-4.22-.107-2.684-.308-5.237.426-7.835.467.6 2.142 2.785.142 2.498.581.609.448.793 1.263.266.687 1.239-.043 2.529-.137 3.79-.097 1.301.438 2.391.327 3.689l-.345-.741c-.675.336-.007.432-.141 1.003-.188.808-.3 1.148-.867 1.92.743.233.667.342.856 1.125l.49-.755zm42.654-92.257c.861.809.308.702.544 1.697.054.226.277.678.294.782.046.278.215.739.118 1.148.004-.016-.607 1.281-.619 1.081.012.206.254.536.285.76l.331.081-.002.936c.024.464.076 1.037-.15 1.468-.25.475-.576-.039-.725.192-.278.432-.11 2.74-1.241 1.855-.653-.51-.549-3.954-.515-4.726.049-1.107.132-2.286.326-3.38a1.728 1.728 0 01.229-.988c.047-.416.239-.473.575-.173.254-.256.365-.358.55-.733zm-218.61-84.051c-.973-4.887-1.256-10.134-.429-15.063 1.632 1.362.841 5.246.85 7.145.005 1.099.428 7.858-.421 7.918zm-.108 20.697c1.201 1.412.658 2.561.697 3.81.054 1.749.484 3.698-.28 5.53-.116.278.161.708-.306.754-.971.094-.574-1.189-.569-1.726.012-1.122-.045-2.244-.232-3.351a41.376 41.376 0 01-.406-3.091c-.038-.413-.098-3.513 1.096-1.926zm-41.528 47.307c-.045-3.264-.224-6.517-.28-9.779-.047-2.67-.554-6.563.611-8.996.564 3.014.356 6.273.353 9.33-.003 3.56-.105 7.094-.295 10.648l-.389-1.203z" fill="#000"/><path d="M160.969 283.929c-1.052-.449.156-1.529-1.067-1.871l.838.205c0-1.287.29-1.704-.937-2.155.618-.412.79-.184 1.482.124-.095-.371-.568-1.02-.591-1.369-.382-.182-.383-.377-.003-.584.337-.156.389-.315.157-.477.055-.29-.553-.582-.137-1.045.323-.361.796.263 1.02-.121-.6-.435-1.308-.547-.95-1.265.272-.55.649-.362 1.041.067.754.827-.025 2.364-.018 3.234.002.296.31.659.314.822.007.203-.011.988-.012 1.299-.003 1.275-.039 1.735.376 2.96-.651.215-.774.266-1.513.176zm213.398-34.271c-.699-.249-.531.416-.641.712a.647.647 0 00.288.288l-.286.934.678.105c-.006.349-.164.499-.476.451.411.416-.336 1.261-.4 1.768-.034.266.202.651.13.892.262.427.177.625-.253.596l-1.024.224c-.31-1.635-.511-7.568 1.769-8.073.111.704.171 1.391.215 2.103zM159.07 239.056c-.301-2.128-.018-4.363.032-6.503 1.69 1.476.74 5.324.905 7.376.063.769.411 1.923.283 2.865-.105.767-.587 1.113-1.157 1.744-.045-1.14.062-1.777.331-2.832.214-.839.561-2.65-.394-2.65zm11.96-10.872c-.115.452-.316 1.462-1.076.95-.248-.166-.115-2.362-.133-2.735-.1-1.948-.201-3.752.4-5.641.945.219.457 2.293.483 2.937.029.708.196 1.328.261 2.037.072.779-.245 1.74.065 2.452zm-55.204 65.943c-.408-.58.086-.83.179-1.506.096-.695-.109-1.481-.169-2.175-.05-.591-.301-1.558-.275-2.104.046-.923 1.173-.312-.037-1.374 2.343-2.318 1.097 1.505.606 2.729 1.658.69.803 3.172.651 4.67l-.955-.24zm1.798-175.718c.161 1.779.357 3.546.57 5.319.154 1.273.818 3.311-.627 4.034-.196-.648.118-1.183.112-1.871-.007-.872-.368-1.719-.485-2.578-.201-1.468-.42-3.662.43-4.904zm5.898 81.272c-1.09-.393-.762-5.34.672-4.136.234.196.21.607.281.934.162.08.29.191.385.334.16.185.041.359-.357.521.029 1.093.138 1.821-.981 2.347zm235.912 53.693c-.343-.754-.77-.641-.741-1.597.011-.387.266-.74.288-.978.042-.452-.12-1.128-.252-1.693.594.159.189-.608.565-.597.687.02.725.941.785 1.364.073.505.383 4.117-.645 3.501zm-197.963 20.407c-.699-.424-1.97-.713-2.086-1.501-.149-1.007.545-.727 1.229-.484.31-1.138.161-1.351 1.336-1.351l-.207.665c-.365.414-.352.707.039.879.292.09.332.225.118.406l-.423.671.782.194-.788.521zm-43.603-16.103c-.857-1.51.066-2.433.115-3.994.033-1.02-.817-1.947.511-2.222.257 1.66.116 3.347.167 5.018l-.817-.202c-.075.457.483 1.001.024 1.4zm223.005 21.038c.016-.598.516-.632.516-.683 0-.359-.276-.52-.31-.612-.153-.419-1.014-1.039.079-1.42-1.122-.925.418-2.143 1.091-2.733-.106.852-.005 3.617-.984 3.515 1.139.786.891 1.056.048 2.027.136-.102-.011-.133-.44-.094zM159.817 264.35c-.312-.408-.218-.627-.29-.861.347-.234.332-.442-.045-.624-.206-.136-.26-.293-.16-.472.853-.586 1.224 1.568 1.224 2.13.495-.117.472-.411.462-.815.365.501.071 4.172-.503 4.195-.381-.526-.488-1.36-.489-1.778 0 .104-.23-.411-.221-.373-.108-.477.43-.736.022-1.402zm1.152 19.58c.958.116 1.117 1.364 1.189 2.384.02.285.073 2.237-.84 1.858-.539-.223.028-1.159-.024-1.538-.179-1.311-1.276-1.359-.325-2.704zm215.583-.628c.09-.914.406-2.04.358-2.942-.027-.521-.328-1.198-.389-1.764.422.116.532-.18.616-.517a47.38 47.38 0 01.59 5.908c-.424-.214-.817-.377-1.175-.685zm-17.625-23.086l.371.162-.098-2.101c.707.001.783.072 1.092-.558.324.114.07 3.014.119 3.596.08.951.307 1.203-.801 1.373l.314-1.448a1.016 1.016 0 00-.398-.215c-.209-.407-.765.007-.599-.809zm-3.101-71.776c1.463-.025 1.759.443 1.52 2.29-1.499.28-1.915-.319-1.52-2.29zm4.359 105.923c-.379-.485.75-.896.85-1.094.297-.592.116-1.474.223-2.139-.098 1.798.631 3.539.359 5.344-1.266-.549-.448-1.648-1.432-2.111zm-18.175-29.944c-.762.073.025-5.507.504-6.034.177.577.418 1.21.421 1.826.005.858-.458 1.146-.664 1.887-.175.63-.338 1.655-.261 2.321zm-180.627 33.155c-.317-1.034-.741-4.453.273-4.828.075.8.204 1.597.281 2.393.096.981-.231 1.635-.277 2.588l-.277-.153zm-43.521-27.969c-.72-.786-.83-.763-.792-1.798.031-.841.104-1.528.982-1.683.022 1.166.474 2.4-.19 3.481zm41.713-8.995c-.058-.988-.359-2.172.092-3.069 1.205.898 1.257 2.806 1.14 4.159-.365-.612-.409-.974-.526-1.663l-.706.573z" fill="#000"/><path d="M372.383 255.627c.58-.127 1.152-.109 1.328-.561.095-.247-.212-.88-.181-1.152.062-.546.85-1.311.4-1.767.916-.127.577 2.487.43 3.018-.156.567.018.768-.686.977-.514.153-1.047-.01-1.291-.515zm-210.686 36.728c-1.473.305-.802-2.104-.936-3.027.433.093 1.381.175 1.15.923-.122.397-.543.191-.912.329.47 1.122 1.72-.111.698 1.775zm-62.483-41.384l-1.07-1.215a1.27 1.27 0 00.445-.617c.163-.236.12-.471-.127-.706.219-.187.321-.413.307-.679-.066-.346-.243-.788-.368-1.124.046.124-.227-1.386-.332-1.007.376-1.356.862.956.896 1.649.023.485.495 3.66.25 3.699zm228.184 34.22c-.955-.486-.179-1.654-.246-2.463-.098-1.192-.673-2.146.02-3.316.809.788.094 1.631.121 2.499.015.461.321.847.348 1.374.033.639-.315 1.249-.243 1.906zm-168.314-34.754l.032-2.079c1.395.047 1.073 1.761 1.156 2.757-.714.258-.651-.606-1.188-.678zm143.397 36.632c.263-1.491-.1-2.958-.019-4.484.924.548 1.117 3.901.019 4.484zm74.317 3.266c-.056-.558.315-.737.686-1.126.622.819.216 3.391.216 4.401-.675-.317-.36-2.821-1.013-1.521l-.046-1.57c.057.249.216.421.476.515 0-.619.073-.5-.319-.699zm-.24-1.213c-.233-.842-.004-1.941.008-2.829.624.488.945.355 1.145.919.064.181-.268 1.998-.23 1.998-.269-.514-.577-.544-.923-.088zm-216.054-21.219c.475-.018 1.15-.093 1.084.709-.044.546-1.238.449-.631 1.312-.514.18-1.016.177-1.561.215v-1.59l.614 1.175.494-1.821zm-44.024 11.716c-.278-.627-.555-1.253-.834-1.879 1.124-.051.635-.036.888-.581-.12.259-.958-1.077.178-.564 1.49.675.233 2.125-.232 3.024zm-.462 5.602c-.516-.696.511-2.382 1.159-2.702v2.939l-1.159-.237zm13.358-59.749c-.246-.661-1.539-3.096-.002-2.775 1.058.221.563 2.112.002 2.775zm198.24 43.127c-.805-.924-.352-3.134-.337-4.316.657.735.981 1.441.748 2.519-.064.299-.363.432-.394.572-.077.349-.093.673-.017 1.225zm-25.101 23.237l-.039-2.833c-.013-.968-.275-1.329.663-1.643.075.727-.268 1.061-.309 1.834-.06 1.13.632 1.744-.315 2.642zm72.933-22.225l-.414.099c-.178-.78-.577-1.242-.751-1.868-.163-.587.197-1.725.271-2.338.159.399.447.829.495 1.255.027.238-.192.899-.163 1.025.043.188.561.252.614.566.076.45.013.813-.052 1.261zM99.084 253.786c-.598-.561-.675-1.377-.707-2.147l.629.722-.082-.904c1.743.212 1.1 1.765.16 2.329zm241.606 29.202c-.413-.748-.504-1.306.18-1.887.144.633.428.747.854.343.328 1.02.199 1.739-1.034 1.544zm-38.168-1.016c-.036-1.069.356-2.101.049-3.151l-.189.667-.141-2.574c.682.001.503 1.196.554 1.64.145 1.264.193 2.42.104 3.711a54.156 54.156 0 01-.377-.293zm24.736-2.788c-.42-.772-.781-4.949-.12-5.632.378 1.851.541 3.772.12 5.632zM159.084 232.13c.13-1.89-.116-3.428-.494-5.283 1.189.224 1.104 4.342.921 5.441a73.676 73.676 0 01-.427-.158zm-42.12 40.493c-.639-.658.117-1.155.802-.632.553.425.294 1.928.294 2.685l-.895-.199c.652-.326.609-1.763-.201-1.854zm242.385-5.263c-.724-.131-.773-.404-.441-1.033-.057.109.929-.594.837-.588 1.287-.083.462.977.385 1.686l-.781-.065zM99.43 271.965c-.002-.507-.245-3.126.669-2.138.525.567.08 1.663.069 2.319l-.738-.181zm227.882-13.849c-.135-.506-.732-2.03.309-1.848.383.067.486.583.526.925.092.802.024.923-.835.923zm48.8 18.115c-.447-.699.077-1.373.151-2.29 1.188-.131.793 2.071.793 2.735-.671.218-.26-.61-.613-.844l-.331.399zm-35.011-3.475c-.705-.575.026-.509-.011-1.027-.028-.396-.011-.817-.16-1.314.891-.231.921.594 1.023 1.127.194 1.001.049 1.149-.852 1.214zm.091-3.191l-.079-1.135c-.223-.46-.124-.674.297-.64.408.035.526-.178.353-.638l.034-1.153c.475.338.651 2.036.399 2.529-.07.137-1.114.989-1.004 1.037zm35.726 27.754c-.358-.028-.442-1.039-.36-1.333.223-.801.372-.772 1.134-.772-.392.731.246 1.719-.774 2.105zm-259.468-36.92c-.44-.915-.479-.942.153-1.734.84.685.808 1.706.565 2.662l-.718-.928zm209.779-8.122c-.852-.394-.467-1.707-.407-2.408.956.584 1.327 1.629.407 2.408zm-.733-5.663c-1.219 1.738-1.007-.586-.926-1.47.493.242 1.421.899.926 1.47zM171.03 228.183c-.471-1.086.062-2.637-.327-3.856 1.778.135.644 2.749.327 3.856zm156.821 35.042l.044-.842c.111-.31-.024-.457-.403-.439l-.442-.155.096-1.56c.467.246 1.188 1.361 1.27 1.959.026.187-.15 1.446-.565 1.037zm14.803-10.232c0-.635-.189-1.607 0-2.228-.253-.715-.016-1.004.711-.868a.57.57 0 01.137.225c.046.303-.312 1.05-.371 1.428-.113.72-.015 1.477-.04 2.203l-.437-.76zm16.828-5.683c-.869-.991-.765-1.168.141-1.998.366.589.769 1.968-.141 1.998zm-200.341 5.451l-.068-1.335.596 1.372.695-.828v2.238l-1.223-1.447zm197.363-31.259c1.25.115.604-.248 1.098-1.173.091-.171.227-1.234.762-.602.757.898-.819 2.499-1.86 1.775zm-228.697 32.625c.015 2.155-.008 4.31-.023 6.465-.09-2.181-.203-4.293.023-6.465zM99.43 276.192l-.018-3.262c.636.979.531 2.201.768 3.297l-.75-.035zm44.554-10.599c-.412-.97-.203-1.965-.137-3.007.372.405.367.753.487 1.293.184.833.6 1.493-.35 1.714zm-3.258-64.141c-.341-1.364-.245-2.647-.209-4.05.467-.073.397 3.647.449 4.186l-.24-.136zm217.913 38.214c-.003-.095-.43-2.267.334-1.919.588.267.36 2.002.29 2.48a1.617 1.617 0 00-.624-.561zm-217.884-33.503c-.528-.912-.406-1.923.01-2.847.159 1.008.585 1.987-.01 2.847zm219.87 87.27l-.524.747c-.33-1.039-.403-2.511.332-3.409-.34.904.246 1.757.192 2.662zM139.929 154.354c-.24-.465-.16-2.585.018-2.568.81.078.472 2.303-.018 2.568zM327.285 272.25c-.501-.944-.168-1.986-.015-2.967.915.72.334.48.286 1.42-.033.657.052.966-.271 1.547zm-29.241 19.566c.181 2.075.145 4.1.097 6.181-.064-2.062-.155-4.118-.097-6.181zm-174.523-92.135c1.593-.747.272-2.005 1.378-2.812.256.714-.591 4.069-1.378 2.812zm191.054 92.932c-.503-.792-.361-.796-.411-1.605-.026-.42-.097-.449-.539-.61.892-.396.923.121 1.048 1.031l.357.186-.455.998zM155.03 217.462c.011 1.977.186 4.022-.123 5.978-.018-1.738-.533-4.371.123-5.978z" fill="#000"/><path d="M358.639 239.666c.454.28 1.302 2.975.886 3.133-.212-.593-.12-1.161-.668-.513l-.218-2.62zm-30.991 20.828c-.739-.39-.593-1.422.164-1.836.873.461.265 1.37-.164 1.836zm31.27 5.676c-.866-1.057.631-2.674.899-2.137.153.308-.617 1.005-.645 1.062-.093.195-.197.681-.254 1.075zm-214.84 25.681c-.077-.89-.606-2.792-.084-3.562.364 1.459.202 2.156.084 3.562zm215.433-14.093c-.057-.943-.121-1.048.64-1.592.465.712-.336 1.677.754 2.057-.021.012-.459.321-.503.339l-.891-.804zM96.426 224.811c1.022-.068.951.727 1.237 1.263-1.01.249-1.242.012-1.237-1.263zm20.954 41.278c-.212-.992-.374-2.064.224-2.964l.335 2.566-.41-.518-.149.916zm242.108 4.966c-.489-.366-.461-1.675.324-1.548 1.34.216.196 1.123-.324 1.548zM116.385 281.72c-.066-.697-.204-1.373-.331-2.062.675.411.988 1.432 1.355 2.119l-1.024-.057zm14.983 10.335l.026-4.278c.238 1.452.382 2.851-.026 4.278zm9.12-96.34l.022-2.782c.564.374.67 2.548-.022 2.782zm218.869 60.793c.162-.613-.125-.624-.109-1.023.015-.351-.529-.086-.175-.573.088-.121 1.315.724 1.315.724.138.515-.657.996-1.031.872zm-.36-12.672a91.354 91.354 0 01-.38-1.114c-.017-.053.757.553.843.717.298.567.234 1.241.232 1.865a972.92 972.92 0 01-.695-1.468zm-21.965 28.088l-.011 5.022.011-5.022zM139.348 158.101c.018-.3.139-2.885.734-2.26.267.28-.294 2.14-.734 2.26zm158.557 109.156c-.01 1.581-.019 3.163-.03 4.742l.03-4.742zM158.319 224.54c-.48-.572-.188-1.267-.22-1.923 1.201.427.717 1.363.22 1.923zm216.086 27.157l-.677-.105c.178-.583.425-1.697 1.3-1.233l-.623 1.338zm-31.139-5.208c-.009-1.147-.019-2.293-.03-3.438.042 1.147.338 2.29.03 3.438zm-172.56-23.429c.04-.846-.434-2.447-.276-2.882.527.875 1.169 2 .276 2.882zm-52.877 48.269c-.098-.778-1.25-.628-1.462-1.4.263.09 2.724.389 1.462 1.4zm197.302 22.938l-.299-.541c-.815.528-.682.344-1.264-.265.522.074.865-.481 1.179-.32.44.225.714.679.384 1.126zm-12.454 1.553c-.02-.177-.305-2.188-.201-2.206.224-.039.555.818.581.928.178.736.201.603-.38 1.278zm-185.674-46.825c-.201-.647-.076-.902.176-1.545.575.759 1.17 1.463-.176 1.545zm26.943 24.608c-.012-.547-.226-1.161.233-1.613.659.234.619 1.741-.233 1.613zm-15.198-52.801l-1.393.673c-.156-1.096 1.458-1.93 1.393-.673zm-29.663 32.985c.248-.011.495-.041.74-.089 0 .177.192 2.148-.455 1.754-.364-.223-.284-1.286-.285-1.665zm61.382 7.342c.732 1.233-.37.762-1.238.712.342-.568.538-1.115 1.238-.712zm183.628-34.931l-.001-2.46c.069.339.848 2.778.001 2.46zm-3.214 58.66l-.17-1.58c.207.254 1.051.891.888 1.296-.159.393-.44.021-.718.284zm19.178 2.56c-.357-.716-.564-1.935-.097-2.621.582.414.132 2.06.097 2.621zm-229.787-54.545l-.187-1.788c.921.584.657.929.187 1.788zm29.237 23.664c-.05-.342.056-.64.316-.894.387.455 1.023 1.768-.355 1.623l.039-.729zm167.258-7.04c-.031-.404-.249-1.174.386-1.236.302.679.486 1.139-.386 1.236zm-171.527-13.2l-.078 3.775.078-3.775zm203.382-19.247c-.814.066-.433-1.107-.266-1.351.525.448.603.741.266 1.351zm.926 58.742c-.196-.333-.532-.647-.207-1.044.299.532.429-.055.693-.445.193.945.461.991-.486 1.489z" fill="#000"/><path d="M170.706 223.061c.161-.196.36-.34.599-.433-.012.133-.044 1.66-.15 1.734-.67.471-.449-1.104-.449-1.301zm156.523 29.216l.476-.402.322 1.085c-.632.029-1.473.096-.798-.683zm.433 3.019l-.634.744-.049-2.248c.677.055.32 1.212.683 1.504zM97.93 177.616a632.14 632.14 0 00-.176-.937l-.34.71.056-1.503c.574.45.702 1.062.46 1.73zm200.197 99.385c-.07.685 1.168.966 1.025 1.377-.075.218-.7-.009-.854-.117-.397-.281-.213-.697-.171-1.26zm-140.362-56.254l-.178-1.811c.391.025.455 1.22.856 1.738a155.9 155.9 0 01-.678.073zm183.256 65.197c-.054-.17-.843-.746.143-.544.493.1 1.045.599.322 1.076l-.465-.532zm-223.402-34.442c-.989-.362-1.086-.591-.675-1.583l.675 1.583zm241.434-5.669l-.236.205c-.162-.747-.501-1.415-.095-2.08.109.625.22 1.25.331 1.875zm-215.248 51.729l-.097-2.824c.739.419.183 2.07.097 2.824zm198.914-40.613c-.562-.288-.333-.785-.309-1.376.562.182.805.856.309 1.376zm-225.854-9.606l-.113.484c-.815-.336-.395-1.023-.515-1.655l.628 1.171zm243.52 31.208c.351.766.367 1.583.173 2.394-.383-.587.263-1.623-.659-1.855.545-.224.706-.404.486-.539zM99.39 262.108l.193-1.07c.178.307.357.614.534.922l-.726.148zm273.815 25.2c-.016 1.093-.031 2.186-.048 3.278l.048-3.278zm-214.887-62.769l.319-.359c.587.548.13 1.133.002 1.749-.454-.355-.29-.908-.321-1.39zm-58.885 39.827c-.096-1.061-.283-1.231.669-1.706-.229.783-.694 1.204.191 1.804l-.86-.098zm17.733 10.111c-.331.462-.801.506-1.338.687.163-.642.493-.681.899-1.123l.439.436zm241.465-60.436c-.659-.397-.416-1.306-.417-2.029.448.589.542 1.315.417 2.029zm-14.432 9.195l-.08-1.825c.654.803.661.961.08 1.825zM97.423 195.453c.248.767.39 1.341.39 2.142-.562-.618-.436-1.386-.39-2.142zm243.366 85.253c-.214-.629-.122-.904.071-1.551l.715.646c-.234.287-.528.621-.786.905zm17.285-47.762c-.443-.342-.656-.79-.621-1.35.811.321.844.392.621 1.35zm-20.879 57.131c.283.895.093 1.808.106 2.711l-.106-2.711zm-177.628-15.539c-.355-.489-.184-.912.337-1.169.198.59.511 1.278-.337 1.169zm-19.443-14.965l-.062 3.075.062-3.075zm236.919 35.245c-.477-.422-.814-.875-.191-1.336.279.559.72.905.191 1.336zm-261.179 1.997c-.955-1.017 1.405-1.52.725.081l-.512-.901c-.072.273-.143.546-.213.82zm23.087-148.666c-.248-.362-.568-.442-.957-.24l.362-.989c.421.288.804.68.595 1.229z" fill="#000"/><path d="M341.021 285.944c.628.718.333.78-.159 1.52.087-.13-.628-1.055.159-1.52zm-225.135 9.625l-.573-.532c.592-.41 1.141-.384 1.317.328l-.744.204zm197.739-5.171c.736.267.577.582.346 1.263-.44-.563-.603-.536-.346-1.263zm-169.679-16.794c.651.097.649 1.601-.008 1.373l.008-1.373zm199.01-24.556c-.202-.653-.237-1.281.266-1.83.412.684-.005 1.246-.266 1.83zm12.799 22.703l.112 2.716-.112-2.716zm-200.884-17.827l.117 2.675-.117-2.675zm186.049 37.464l.512-1.715c.298 1.361.298 1.361-.512 1.715zm3.244-62.72c-.395-.679-.17-1.374-.055-2.066.078.687.643 1.361.055 2.066zm15.287 40.14l-.03-1.305.767 1.196-.737.109zm-215.515 17.087c-.417-.64-.245-1.313-.118-1.982.234.651.377 1.304.118 1.982zm199.955-53.294c.083-.691-.369-1.41.192-2.01.003.321.146 2.23-.192 2.01zm-188.77.505l.078 2.691-.078-2.691zm203.216 3.731l-.108-2.762c.036.922.071 1.842.108 2.762zm-16.721 55.159l-.089 1.636c-.477-.349-.649-1.66.089-1.636zm14.129-40.301c.374.829.163 1.663.024 2.495-.007-.833-.016-1.664-.024-2.495zm-52.753 41.83c-.324-.382-.883-.683-.466-1.326.385.362.767.725.466 1.326zm-146.763-77.962l-.145-1.779c.43.85.714 1.014.145 1.779zm1.243 2.475l-.371-1.6c.955.049.472.82.371 1.6zm-40.619 58.035c-.293-.365-.532-.718.115-.905.314.523 1.031 1.393-.115.905zm181.186 12.529l-.003 2.471.003-2.471zm61.183-15.832l-.015-.557c.667.282.688.089 1.185-.445-.035.719-.463 1.072-1.17 1.002zM169.733 117.18l2.125-.003-2.125.003zm170.784 78.255l.005 2.239-.005-2.239zm-208.793 69.403c-.295-.75-.255-1.5.008-2.246l-.008 2.246zm-4.244-26.121l-.011 2.306.011-2.306zm172.248 24.476c-.326-.987.119-.94.905-1.482-.137.278-.54 1.513-.905 1.482zm-200.09 15.265l-.224-1.56c.2.408.182.824.663.916l-.439.644zm-.231 13.376l-.002-1.806c.27.293.41 1.976.002 1.806zm244.652-61.671c-.393-.388-.21-1.108.316-1.018l-.316 1.018zm-18.623 14.65l-.944-.542.586-.62c.072.153.736 1.091.358 1.162zm-181.54 22.495l.063-.789c.629.341 1.178.567-.063.789zm213.773-55.807c-.2.403-.264 1.042-.973.562-.041-.823.665-.348.973-.562zm18.386 61.305c-.47-.226-.473-.677-.343-1.11.58.273.415.478.343 1.11zm-232.13-3.924l.666-.768v1.279c-.433.02-.655-.15-.666-.511zm-16.149-22.666l-.025 2.248.025-2.248zm246.591 3.441l-.075-1.217c.523.391.468 1.01.269 1.552l-.194-.335zM99.329 260.899c-.356-.582-.179-1.249.054-1.832.381.663.135 1.092-.054 1.832zm23.735-64.481zm4.073 36.684l.128 1.962-.128-1.962zm3.361 3.762l-.145-1.564c.576.39.249.924.145 1.564zm210.967-45.012l-.218 1.046c-.431-.112.135-.911-.603-.616.023-.555.428-.479.821-.43zm-14.353 61.997c-.474-.42.574-.488.752-.488.145.396-.106.559-.752.488zm-195.383 1.554l-.118-2.028.118 2.028zm224.875 29.641l.108 1.82c-.351-.588-.459-1.19-.108-1.82zm-29.088 5.79c-.246-.475-.423-.939.191-1.285l-.191 1.285zm-171.768-23.861v2.031c-.309-.678-.273-1.355 0-2.031zm3.761-10.437l-.039.73c-.473-.36-.404-.547-.398-1.151l.437.421zm182.212 9.391c-.261-.543-.039-1.895.778-1.288-.514.238-.827.716-.778 1.288zm-185.8 7.563l-.023 1.96.023-1.96zm199.822-9.653l.056 2.037-.056-2.037zm-198.724-47.549l-.944.07c.233-.597 1.127-1.078.944-.07zm16.063 67.858l.006-1.991-.006 1.991zm-14.034-36.401c.098-.349.095-.793.457-.906.331.572.177.869-.457.906zm143.342 27.743l-.172-1.275c.736-.236.233 1.027.172 1.275zm-142.886-28.65c.154-.669.21-.858.902-.678-.263.213-.645.53-.902.678zm-31.782 15.955l.029 1.996-.029-1.996zm9.193-69.836l.05 1.956-.05-1.956zm-19.316 69.714c-.47-.177-.195-.687-.141-1.116.55.292.218.499.141 1.116zm209.724.479l-.431-.602c.697-.219 1.182.449.431.602zm-183.184 14.342c-.465-.478-.143-1.068-.125-1.617.461.319.161 1.12.125 1.617zm10.979-17.619l.119 1.732-.119-1.732zm200.988 15.108l-.23 1.424c-.1-.663-.359-1.052.23-1.424zm-182.871 5.669l.098-1.71-.098 1.71zm-13.32-35.475c-.155-1.097.107-1.054.326.009l-.326-.009zm-60.352 34.992l-.149-.535c.368.181.783-.042.792.577l-.644-.042zm200.164-16.974c.521.045.72.42.547.874-.36-.195-.779-.361-.547-.874zM99.408 294.026l-.008-1.751c.212.584.354 1.166.008 1.751zm61.139-19.546c.3-.438.574-.109.984-.537.678.611-.801.547-.984.537zm196.428 17.592l.152 1.714-.152-1.714zm-225.304-41.389l-.088-1.746.088 1.746zm244.882 32.62c.455.392.328.801.142 1.342l-.142-1.342zm-15.655.09l-.069 1.382c-.627-.343-.344-.727.069-1.382zm-1.98-17.223c.033-.229-.039-1.353.409-1.057.627.412-.478 1.634-.409 1.057zm-227.241-13.286l-.07-1.719.07 1.719zm226.792-33.429c.186-.664.736-.753.688 0h-.688zM124.82 196.757c-.473-.226-.535-.623-.45-1.08.695.135.507.635.45 1.08zm212.205 70.968l-.095 1.824.095-1.824zm5.569-12.877l-.014-.964c.596.704.596.716.014.964zM99.415 286.405c.153-.552.395-.478.723.224-.193.29-.434.215-.723-.224zm227.653.292c-.196-.606-.129-.802.293-.851.299.42-.081.607-.293.851zm-186.512-94.201l-.1-.781c.605.18.638.44.1.781zm182.383 96.537c-.006.513-.011 1.026-.018 1.537l.018-1.537zm36.947-4.368c-.472-.245-.106-.606-.125-.913.423.164.446.329.125.913zm-219.345-93.928l-.063-1.036c.641.392.651.553.063 1.036zm197.49 59.664l-.11 1.542.11-1.542zm-14.349.008l-.133 1.563.133-1.563zm32.439-35.174l-.132 1.541.132-1.541zm-201.133 34.392l-.098 1.598.098-1.598zm-.009-21.225l.03 1.481-.03-1.481zm185.531-25.287l-.107 1.538.107-1.538zm3.881 7.956l-.038-1.513.038 1.513zM99.64 282.925l-.032-.566c.735-.234.63 1.01.031.566zm224.29-35.223l-.135 1.525.135-1.525zm52.515 45.376c-.483-.861.325-.402.678 0h-.678zm-206.49-63.944l.842-.023c-.474.686-.755.694-.842.023zm156.541 17.481l.211-.243c.249.359.388.78-.164.889l-.047-.646zm-160.092 32.788c-.012.491-.025.981-.039 1.469-.277-.499-.293-.989.039-1.469zm173.891-71.365c-.027.5-.055 1-.085 1.497l.085-1.497zm20.342 87.728l.252.392c-.539 0-.928-.045-.855-.723l.603.331zm-19.324-16.956c.226.205 1.16.949.252.983.018.08-.278-1.07-.252-.983zM156.88 295.803l.004 1.444-.004-1.444zm-29.212-52.785l.04 1.466-.04-1.466zm-.782-13.131c.498.455.041.988.119 1.475l-.119-1.475zm200.762 30.608l.475-.516c.163.446.043.913-.265 1.264l-.21-.748zm4.965-163.512c-.383-.448-.2-.902-.017-1.354l.017 1.354zm-33.032 164.839l-.575-.881c.623-.149.754.051.575.881zm41.751 12.252l-.298.476a148.31 148.31 0 00-.348-.837c.154.23.682-.212.646.361zm-94.811-10.477c.375-.001.75-.002 1.121-.001l-1.121.001zM338.769 240zm5.472-32.875l-.131-1.572c.045.525.088 1.048.131 1.572zM302.183 272.8l-.153-.64c.593.191.644.404.153.64zm-128.203-.116l-.018-1.49c.297.494.314.99.018 1.49zm157.749-94.81l1.128-.004-1.128.004zm-8.552 93.064l-.116 1.571.116-1.571zm-191.75 15.919l-.046-1.077c.468.32.214.562.046 1.077zm5.618-79.284l.077 1.249-.077-1.249zm178.087 88.701l-.044-1.003c.452.316.638.642.044 1.003zm-148.369-6.194c.244.416.293.831-.004 1.244l.004-1.244zm189.628-77.328l-.154 1.286.154-1.286zm-201.122.998c-.06.282.608.681-.138.851l.138-.851zm-55.371 74.838v-.968c.478.028.147.979 0 .968zm66.371-3.466l.13 1.207-.13-1.207zM99.71 284.7l-.273-.46c.433-.424.673.126.273.46zm66.668-2.096l-.115 1.288.115-1.288zm193.294-.432c.218-.095.675-.156.978-.199a.904.904 0 01-.978.199zm-3.564-4.278l.01 1.3-.01-1.3zm-256.027-.077l-.33-1.1c-.041-.027 1.074 1.1.33 1.1zm40.181-4.333zm-8.764.782l-.102-1.358.102 1.358zm221.02-94.142l.889-.029-.889.029zm20.864 91.365l-.055 1.269.055-1.269zm-33.37-50.79l-.039 1.294c.012-.432.025-.863.039-1.294zm-12.754 43.168c.284-.265.761-.244.911.428l-.911-.428zm-29.098-.072l-.126 1.27.126-1.27zm41.864-41.11l-.115 1.329.115-1.329zm-2.74 39.847l-.126 1.307.126-1.307zM154.993 223.91l-.121 1.028.121-1.028zm5.627 38.069c.257.25.205-.23.462.461a.404.404 0 01-.164.131c-.34-.136-.439-.334-.298-.592zm183.323-58.788l-.082-1.327.082 1.327zm-6.405 55.39l-.121 1.295.121-1.295zm5.081-.464c-.53-.118-.695-.325-.492-.62.64-.095.804.111.492.62zm16.512.039c-.387-.586-.361-.733.141-.815-.048.272-.095.543-.141.815zm-3.27-2.302l-.008 1.23c.001-.411.004-.82.008-1.23zm-32.426-.99l-.14 1.286.14-1.286zm16.351-28.487l-.138 1.296.138-1.296zM137.64 149.321l.289 1.002a530.21 530.21 0 01-.289-1.002zm1.188 79.139l.082 1.172-.082-1.172zm199.465 17.736l-.131 1.294.131-1.294zm-193.985-.674l.05-1.257-.05 1.257zm194.236-2.767l-.119 1.278.119-1.278zm-161.258-5.973l-.077 1.264.077-1.264zm-37.769-.197l.124 1.233-.124-1.233zM306.278 69.246c1.108-1.639 2.483-3.865 4.308-4.758-.632.893-3.195 4.853-4.308 4.758zm87.546 15.889c-.399-.465-.372-1.585-.54-2.194-.346-1.257-.613-1.228.655-1.712a8.836 8.836 0 01-.115 3.906zm-164.017 56.042c-.664.09-1.309.201-1.964.344.149-.678 1.357-.36 1.964-.344zm-21.26 111.159l2.488.179-2.488-.179zm116.368-144.488l.776-1.744c.034.711-.215 1.297-.776 1.744zm-14.641 100.976l.003-2.033-.003 2.033zm-105.197-45.032l-1.658-.054 1.658.054zm64.964-1.386c.881 0 .819-.028.993-.889l.211 1.229-1.204-.34zm-96.173 46.084l2.273.011c-.759.316-1.517.358-2.273-.011zm106.708-41.002l-1.357-.054 1.357.054zm-66.633 26.253l-1.374.004 1.374-.004zm59.448-26.25l-1.149-.009 1.149.009zm21.195 34.42l1.168.134-1.431.314c-.145-.232-.058-.382.263-.448zm-58.067 55.881l1.791.152-1.791-.152zm-14.934-156.936l-.224.522-.134-1.4.358.878zm45.639 141.839l1.82.004c-.607.289-1.214.347-1.82-.004zM393.391 90.938c.044-.353-.558-.794.143-1.056l-.143 1.056zm-198.22 39.767l1.484.202-1.484-.202zm42.631 3.907c.47-.26.935-.327 1.391.03l-1.391-.03zm66.38 2.734l1.314-.462c-.298.55-.827.446-1.314.462zm3.713 61.666l1.542-.149-1.542.149zm-41.137 25.943l-.405.717c-.121-.732-.121-.732.405-.717zm-16.553-76.944c.474-.477.962-.229 1.45-.029l-1.45.029zm11.764 2.539l-.009-1.126.009 1.126zm-57.886 101.319l1.5.156-1.5-.156zm88.122-99.039l-.117-1.226.117 1.226zm-7.362 95.294h1.516c-.505.324-1.01.364-1.516 0zm-27.931-5.02c.459-.307.911-.312 1.352.035l-1.352-.035zm85.119-35.382l-.121-1.282c.571.179.571.179.121 1.282zm-1.93 35.688l.125-1.053c.424.385.502.656-.125 1.053zm-15.963 39.715l-.112.617c-.344-.063-.236-.682.112-.617zm34.763-22.88l-.635.257c0-.33-.174-1.648.158-1.734.121.348.477 1.091.477 1.477zm-.548-3.45l.207-1.193c.653.658.633.799-.207 1.193zm-241.389 15.828c.557.063-.142 1.291-.337 1.534-.789-.224-.378-1.013-.552-1.587l.793.625.096-.572zm182.354-4.483c-.026-.289-.224-.847.107-.921l.279.872-.386.049zM194.22 112.507c1.449 1.625 2.975 4.059 5.457 3.179-.407-.962-1.166-2.202-.97-3.301.222-1.243 1.063-1.102 1.778-.242 1.226 1.473 2.019 4.838.778 6.498-1.164 1.559-4.071.529-5.206-.574-1.029-1-3.49-4.26-1.837-5.56zm13.266 2.362c.511-.54 1.734 0 1.974-.907.279-1.052-2.401-.534-2.577-1.793-.143-1.015 1.306-1.913 2.15-2.013 1.444-.17 2.347 1.08 2.83 2.273 1.059 2.621-.386 5.002-3.217 5.333-2.629.307-3.199-2.665-1.715-4.383l.555 1.49zm-11.587-11.411c1.205 0 2.115-.259 2.236 1.27.081 1.038-.539 1.51-1.285 2.165-.847.745-1.788 1.272-2.687 1.925-.524.382-1.268 1.569-1.985 1.581-1.724.026-1.53-3.121-1.195-4.075.707-2.01 3.037-2.602 4.916-2.866zm15.257 3.167c1.488.51 2.015 2.501 3.655 2.681-.172-.888-1.514-5.33.682-4.113 1.643.91 2.025 4.539 1.492 6.034-1.749 4.899-7.489-1.382-5.829-4.602zm-6.973 15.597c2.335.343 4.152 1.12 6.375.074 1.008-.473 2.042-1.481 2.653-.128.453 1.005.08 2.042-.585 2.836-2.051 2.447-9.358 1.022-8.443-2.782zm4.565-23.477c3.755 0 .97 3.351-1.396 2.907-.911-.17-1.353-1.195-.985-2.08.21-.502 2.381-1.397 2.381-.827zm-12.848 4.713l-1.435.202 1.435-.202z" fill="#000"/></g><defs><clipPath id="clip0"><path fill="#fff" d="M0 0h484.457v296H0z"/></clipPath></defs></svg>