<svg width="40" height="27" viewBox="0 0 40 27" fill="none" xmlns="http://www.w3.org/2000/svg" preserveAspectRatio="none"><path d="M8.781 9.818a8.85 8.85 0 014.857 1.448 8.625 8.625 0 013.22 3.855 8.454 8.454 0 01.497 4.964 8.546 8.546 0 01-2.393 4.399 8.79 8.79 0 01-4.475 2.35 8.884 8.884 0 01-5.05-.488 8.71 8.71 0 01-3.924-3.164A8.486 8.486 0 01.04 18.409L0 17.182c0-4.557 1.842-8.927 5.12-12.15C8.4 1.81 12.847 0 17.484 0v4.91a12.602 12.602 0 00-4.782.927 12.429 12.429 0 00-4.05 2.666c-.45.44-.864.915-1.24 1.418a9.002 9.002 0 011.368-.105l.002.002zm22.478 0a8.85 8.85 0 014.856 1.448 8.625 8.625 0 013.22 3.855 8.454 8.454 0 01.497 4.964 8.546 8.546 0 01-2.392 4.399 8.79 8.79 0 01-4.476 2.35 8.884 8.884 0 01-5.05-.488 8.71 8.71 0 01-3.923-3.164 8.486 8.486 0 01-1.474-4.773l-.04-1.227c0-4.557 1.842-8.927 5.121-12.15C30.877 1.81 35.323 0 39.96 0v4.91a12.602 12.602 0 00-4.782.927 12.428 12.428 0 00-4.05 2.666c-.449.44-.864.915-1.24 1.418a9.01 9.01 0 011.37-.105v.002z" fill="#FFAEAD"/></svg>