<svg width="382" height="236" viewBox="0 0 382 236" fill="none" xmlns="http://www.w3.org/2000/svg" preserveAspectRatio="none"><path fill-rule="evenodd" clip-rule="evenodd" d="M100.182 190.128c1.81 2.086 4.481 3.634 6.531 5.542 2.153 2.003 4.489 3.753 6.633 5.732 9.459-11.524 22.416-18.59 33.64-28.153 5.321-4.534 9.242-10.684 12.111-16.995 1.471-3.235 2.558-6.566 3.408-10.012.383-1.553.757-3.1 1.008-4.674.303-1.906.381-2.068 1.671-3.556.555-.64 1.631-2.51 2.718-2.304.916.174 2.589 2.951 3.168 3.637 2.781 3.299 5.478 6.699 8.406 9.871 4.48 4.853 8.559 9.628 12.719 14.772 8.509 10.524 17.688 20.43 26.95 30.332.687.734 2.289 2.888 3.276 3.177 1.2.352 3.15-1.116 4.359-1.936 2.917-1.979 5.216-4.43 7.71-6.884 4.866-4.788 8.161-11.509 10.378-17.905 1.327-3.828 2.19-7.796 3.559-11.611.571-1.59 1.865-3.544 1.208-4.929-.196-.413-1.441-1.509-1.88-1.593-.519-.1-1.384.61-1.564.561-1.723-.47-.767-2.267-1.792-3.235-.581-.548-3.535-.468-4.417-.769-3.224-1.103-6.118-3.207-9.166-4.463-12.763-5.256-25.681-10.369-36.699-18.953-2.857-2.225-4.756-3.898-8.165-5.337-3.446-1.453-6.909-2.75-10.425-4.019-3.102-1.119-6.22-2.169-9.425-2.971-3.464-.867-8.38-1.967-11.841-.85-6.799 2.194-8.994 7.778-11.702 13.669-3.663 7.97-8.092 15.512-12.893 22.848-9.237 14.115-20.47 26.78-29.484 41.008z" fill="#85A090"/><path fill-rule="evenodd" clip-rule="evenodd" d="M304.927 65.35c.374-.189 3.295.996 3.785 1.177 1.959.725 3.803 1.928 5.648 2.907l-4.242 5.147c-1.385-3.389-3.167-6.185-5.191-9.23zm-.964 21.085c.481.054-3.58 9.784-4.055 10.876-1.725 3.974-3.538 7.908-5.286 11.872-1.695 3.841-3.844 7.374-6.009 10.962-1.853 3.069-3.758 7.831-6.551 10.104 1.764-7.802 1.531-16.772 6.591-23.323 5.245-6.791 10.43-13.422 15.31-20.49zm-203.78 104.041c7.838-12.372 17.649-23.317 25.821-35.469 4.577-6.804 9.031-13.695 12.883-20.937 2.802-5.269 4.543-12.785 8.871-16.813 1.907-1.775 3.944-3.511 6.503-4.306 3.502-1.088 8.324-.01 11.842.85 6.556 1.602 12.96 4.091 19.17 6.704 6.299 2.651 11.672 7.412 17.363 11.237 6.105 4.104 12.713 7.094 19.553 9.711 5.955 2.279 11.253 5.55 17.177 7.844 1.181.457 3.589.39 4.58.986 1.067.642.646 2.537 1.942 3.236.584.315.779-.828 1.228-.81.548.023 1.049.665 1.577 1.072 2.153 1.656.834 2.76-.018 5.038-2.779 7.424-4.272 14.977-8.173 21.985-3.208 5.761-7.799 10.923-13.204 14.737-.822.581-3.502 2.829-4.467 2.68-.869-.135-2.636-2.437-3.236-3.062-2.722-2.838-5.21-5.89-7.93-8.732-4.203-4.392-8.25-8.901-12.329-13.353-4.735-5.168-8.926-11.024-13.191-16.546-1.962-2.54-4.487-4.609-6.668-6.965-2.932-3.167-5.625-6.572-8.407-9.87-.841-.999-2.251-3.552-3.558-3.522-.917.021-2.533 2.172-3.012 2.846-1.782 2.506-1.774 7.031-2.66 10.158-2.162 7.627-6.06 15.076-11.407 20.961-5.317 5.853-12.128 10.014-18.417 14.719-6.812 5.096-13.266 10.312-18.669 16.895-2.144-1.979-4.48-3.73-6.633-5.733-2.05-1.907-4.722-3.455-6.531-5.541zm100.886 35.003c-1.524.015-4.104.95-5.467.387 4.043-4.46 7.756-8.286 12.871-11.554 5.309-3.392 10.599-6.753 15.755-10.371 10.391-7.29 18.033-15.936 22.374-28.077 1.117-3.127 1.866-6.406 2.685-9.62.441-1.731 1.318-9.829 2.807-10.528.883-.414 7.524 4.239 8.576 4.818 2.46 1.357 4.93 2.409 7.473 3.47 5.467 2.282 11.103 4.023 16.901 5.476 6.95 1.742 11.685-1.141 15.991-6.587 4.885-6.179 8.944-13.15 13.411-19.639a60.556 60.556 0 005.214-9.152c.982-2.13 4.875-7.876 3.53-10.146-3.839 2.914-5.22 8.706-7.834 12.607-3.259 4.861-6.932 9.445-10.208 14.302-2.754 4.084-5.564 9.033-9.634 11.969-3.58 2.583-6.98 1.789-10.833.628-4.669-1.406-9.509-2.099-14.085-3.844-4.952-1.887-9.637-4.565-14.468-6.748-2.252-1.019-4.949-1.597-7.072-2.867-1.829-1.093-1.556-1.67-1.691-3.999-.157-2.716-.337-5.434-.458-8.153-.081-1.827.91-4.304.238-5.667 5.485.947 10.846 2.217 16.292 3.34 2.983.615 5.858 1.376 8.871 1.859 1.148.184 2.718.179 3.746.677.82-.234 1.238-.085 1.254.448.04.29.102.575.187.856 1.682.762 2.66-.874 4.119-2.443 1.8-1.936 3.148-4.117 4.468-6.393 2.953-5.088 6.357-9.873 9.089-15.104 2.785-5.333 5.047-11.042 7.408-16.575 2.166-5.076 3.554-10.566 5.947-15.521 1.068-2.212 2.422-4.041 4.003-5.91 1.305-1.542 3.312-4.869 5.26-5.577.515-.188 1.864.127 2.45.086 1.166-.083 2.205-.51 3.399-.417 2.584.202 5.402 1.831 7.467 3.263-1.335 1.186-4.673 2.628-2.275 4.764 2.327 2.074 3.613-1.646 4.501-3.276 4.181 3.423 3.577 8.143 4.06 12.98.252 2.525.916 5.012 1.344 7.499.309 1.79.092 3.641.18 5.469.225 4.644.693 9.09.671 13.669-.025 4.894-.359 9.621-.752 14.48-.661 8.181-2.177 16.365-3.476 24.481-.731 4.561-1.731 8.994-2.703 13.482-1.102 5.094-3.141 9.918-4.285 14.999-1.165-1.477-2.041-1.484-3.926-1.288-1.45.15-2.423-.193-2.338 1.812.054 1.301 1.206 2.295 2.479 2.522 1.661.296 2.226-.53 3.082-1.785.2 2.375-1.402 4.859-2.036 7.178-.599 2.198-.997 4.353-2.005 6.457-.983 2.052-1.825 4.077-2.82 6.11-.458.935-.887 1.885-1.35 2.817-.234.473-.51 1.124-.86 1.522-.82.933-.69.481-1.65 1.012-2.092 1.159-1.306.87-1.355 3.262-.048 2.359-1.261 4.093-3.207 5.419-4.13 2.814-8.202 3.596-12.897 5.018-4.374 1.325-8.981 2.462-13.613 2.436-5.672-.031-11.269-.773-16.942-.848-6.258-.083-12.576-.049-18.822.167-2.572.089-4.962.203-7.445.858-2.885.761-5.675.459-8.648.343-6.342-.246-12.903-.735-19.162-.779-4.507-.032-9.263-.345-13.786-.074zm-164.46 2.451c-1.128.593-3.655.35-4.789.185-1.997-.29-2.21-1.079-3.477-2.854-2.181-3.057-3.951-5.984-5.234-9.525-2.456-6.776-3.458-13.709-4.536-20.798-1.198-7.876.99-16.041 1.772-23.864a92.27 92.27 0 01.71-5.354c.17-1.065.215-4.688.918-5.61 1.35-1.771 7.631-.343 10.1-.182 6.893.449 13.831.554 20.72.632 3.674.041 7.368.195 11.005.223 1.67.013 3.303-.07 4.98-.232.56-.054 1.108-.182 1.673-.213 1.933-.107 1.788-.386 2.288 1.321.876 2.99.202 6.795.432 9.899.307 4.148.473 8.355.397 12.512-.07 3.841.061 7.673-.082 11.523-.06 1.594-.235 2.894-.657 4.416-.477 1.722-1.002 5.744-2.19 6.935-.135.135-1.144-.181-1.412.157-.413.52-.338 1.621-.621 1.957-.918 1.089-2.815 1.175-4.19 1.664-3.776 1.342-7.239 2.799-10.797 4.609-3.179 1.617-8.305 2.993-10.216 6.182-.877 1.463-.995 3.391-1.8 4.899-.918 1.719.918.82-1.33 1.518-1.013.313-2.626 0-3.664 0zm335.16-19.437c.286 3.968 2.528 7.748 3.309 11.65.365 1.827.985 3.624 1.414 5.44.412 1.742 1.9 3.806 1.749 5.53-5.491-1.95-11.052-2.44-16.791-2.966-5.439-.499-11.185-.697-16.578-.7-5.496-.003-11.372-.538-17.031-.621-5.918-.086-11.926-.239-17.758-.851 3.05-2.252 6.866-4.366 9.117-7.499 2.449-3.406 3.72-7.673 5.874-11.266 4.323-7.212 7.071-16.161 9.337-24.263 4.574-16.356 9.687-32.41 10.919-49.376 2.345 1.198 4.206 5.842 5.38 8.155 1.498 2.952 2.283 6.153 3.257 9.292 2.006 6.464 3.394 13.166 5.851 19.569 4.694 12.239 7.711 25.428 11.951 37.906zM73.717 113.165c-1.016 7.315-3.145 14.725-3.227 22.129-.018 1.628.259 3.437-.081 5.043-.364 1.715-1.547 3.231-2.23 4.86-1.084 2.587-3.829 7.889-1.181 10.08.053-2.08 1.962-4.721 2.924-6.54 1.45-2.74 3.354-5.246 4.926-7.918 3.29-5.594 6.975-11.068 11.214-15.999 4.129-4.804 8.887-9.065 13.266-13.639 1.315-1.374 11.868-14.602 12.287-14.417-3.273 12.584-8.837 23.532-16.452 34.068-3.734 5.165-8.215 8.564-12.76 12.94-3.785 3.644-10.918 7.54-9.61 13.511-5.916-.567-11.793-1.473-17.764-1.473.982-7.533 1.734-14.947 3.487-22.356 1.99-8.412 3.338-17.077 5.022-25.564 1.718-8.665 4.633-17.053 6.446-25.702a452.614 452.614 0 004.5-24.922c1.053 4.64.665 9.736 1.038 14.47.381 4.837.344 9.585.217 14.45-.235 9.036-1.2 17.964-2.022 26.979zM48.079 70.082c-.033-3.868-.785-7.684-1.017-11.543-.071-1.184-1.254-9.26-.15-9.683.907 1.972 1.118 4.495 1.942 6.564.823 2.067 1.924 4.036 2.714 6.117 1.711 4.508 2.302 9.61 2.486 14.403.417 10.842.632 21.66-.099 32.501-.313 4.647-.553 9.302-.468 13.958.094 5.124.882 9.571-.074 14.652-.946 5.032-1.54 10.043-1.856 15.149-.22 3.583-.31 3.329-3.74 3.077-2.475-.182-4.975.013-7.455-.1 1.16-13.966 1.349-27.961 3.2-41.873.946-7.098.97-14.298 2.144-21.369.584-3.513 1.562-6.954 2.124-10.471.604-3.776.307-7.577.25-11.382zm250.786-8.789c-6.602.57-13.625 2.538-20.392 1.239 1.115-.45 4.034-1.072 2.721-2.85-1.336-1.807-3.587.485-4.919.249-.822-.147-2.637-3.57-3.144-4.278-1.149-1.611-1.287-1.892-3.354-2.305-2.002-.4-2.455.033-2.709-1.95-.291-2.282.501-4.848.422-7.18-.168-5.023-1.794-9.428-3.307-14.154 6.428 1.394 12.713 3.047 19.285 3.946 2.809.384 7.18 1.27 9.733-.634.663-.495.557-1.163 1.1-1.737.911-.963 2.601-1.959 3.892-2.233 7.95-1.687 8.725 9.61 4.742 13.837-.998 1.06-2.386 1.583-3.408 2.554-1.364 1.294-1.476 2.658-1.675 4.634-.373 3.705.134 7.425 1.72 10.815l-.707.047zm-96.47 53.334c-2.347.444-4.796.343-7.149.722-.836.134-3.342.604-4.077.117-1.122-.744-1.521-3.473-2.052-4.743-.933-2.235-2.254-4.184-3.144-6.46-3.637-9.295-7.028-18.627-11.427-27.604 1.686-.437 2.98-.454 4.68-.68 1.77-.235 3.374-1.278 5.063-1.727 1.605-.426 3.286-.317 4.877-.813.876-.272 1.627-.879 2.491-1.091 1.377-.338 2.983-.535 3.802.366.839.924 1.134 3.458 1.59 4.651 1.216 3.18 2.629 6.248 3.648 9.501a248.047 248.047 0 012.601 8.796c.855 3.126 2.54 5.702 3.566 8.687.78 2.273 1.517 4.596 1.634 7.019.113 2.364.458 2.515-1.913 2.892-1.198.191-3.063.9-4.19.367zM47.988 225.279c-.611.284-1.187.246-1.728-.113 5.3-2.232 10.454-5.326 15.982-6.857 5.186-1.436 10.227-3.151 15.223-4.919 4.06-1.437 7.709-2.555 11.38-5.083 2.227-1.535 4.206-3.261 5.737-5.504 1.704-2.497 2.084-6.051 3.93-8.3 2.491 2.728 5.418 4.793 8.365 6.961 1.02.75 3.466 2.384 3.815 3.545.44 1.464-.739 2.865-1.322 4.346-1.494 3.795-2.224 7.588-3.034 11.534-.325 1.581-1.026 3.958-2.329 4.62-1.187.603-4.623.165-6.099.053-7.702-.582-15.268-1.177-23.017-.647-8.77.599-18.157 1.013-26.903.364zm-15.384-70.321c-1.4.005-2.768-.17-4.162-.17.805-3.747-1.078-8.596-1.745-12.337-.746-4.184-1.315-8.511-1.813-12.729-1.05-8.884-1.525-17.66-1.538-26.609-.013-8.66-1.594-16.573-3.81-24.897-2.378-8.94-6.273-16.98-9.493-25.603 3.532 1.862 5.488 6.218 7.344 9.548 2.346 4.21 3.91 8.873 4.867 13.6 1.849 9.118 3.876 18.265 6.01 27.368 2.22 9.479 3.526 19.045 6.07 28.447 1.241 4.585 2.928 10.225 3.022 14.953.039 1.956.63 6.052-.259 7.75-.832 1.59-2.67.841-4.493.679zm211.309-11.761c.073.973.143 1.899.317 2.861-1.939-.018-4.395-2.024-6.058-2.925-2.026-1.096-4.055-2.306-6.036-3.409-3.825-2.129-8.168-3.532-12.252-5.28-4.692-2.01-9.005-4.437-13.492-6.856-1.567-.845-12.832-5.713-12.643-7.042 2.473-.083 4.946-.165 7.42-.246 2.12-.071 5.404.407 7.434-.246 1.112-.359 2.36-1.677 2.78-2.709.415-1.021-.518-5.719.025-6.018 2.767 2.817 4.508 6.561 6.982 9.6 2.735 3.359 6.268 5.32 10.163 7.105 4.301 1.971 8.752 3.498 13.147 5.187 1.854.713 1.817 1.12 1.978 3.146.181 2.265.161 4.562.235 6.832zM20.429 228.391c-4.662.499-9.44.215-14.138.604-1.71.141-4.08.352-2.36 2.639 1.083 1.441 4.553.979 6.126 1.078 4.226.268 8.7.124 12.934.062.892-.013 1.877-.277 2.779-.218 1.04.069 2.285.814 3.233.809.585-.004.794-.618 1.298-.675 1.098-.123 2.196-.212 3.303-.212 16.739.004 33.248-.332 49.945-.35 7.984-.008 16.096-.146 24.077-.519 1.676-.079 11.22.263 10.956-2.745-.136-1.55-3.251-1.768-4.388-1.933-.842-.121-1.716-.102-2.56-.147-2.242-.12-3.224.418-2.751-2.028 1.794-9.277 5.009-16.943 11.877-23.613 5.617-5.454 12.379-10.401 18.741-14.956 7.724-5.53 13.99-11.346 18.576-19.808 2.678-4.942 4.92-9.994 6.296-15.458.495-1.966.507-4.202 1.113-6.097.467-1.459 1.531-2.48 2.157-3.991 7.685 12.796 17.871 23.501 27.21 35.039 4.462 5.511 9.553 10.747 14.885 15.542 1.582 1.423 3.058 2.909 4.535 4.44 1.235 1.282 3.196 2.421 4.239 3.843 1.001 1.364.755 1.299-.768 2.382-2.013 1.432-4.232 2.621-6.277 4.017-3.268 2.232-6.836 4.117-9.758 6.803-3.161 2.904-5.922 6.269-8.685 9.544-1.841 2.183-4.257 4.984-4.72 7.744-.154.913-.736 3.171.032 3.84.657.572.591.355 1.407.006 1.068-.457 1.383-1.505 2.688-2.004 3.34-1.278 7.382-.839 10.858-.855 3.477-.015 6.982.374 10.457.36 7.936-.033 15.703.608 23.636.952 8.426.365 16.955-.512 25.353-.387 6.222.091 12.61-.372 19.004-.027 3.289.176 6.519-.234 9.726-.28 4.198-.06 8.51.509 12.745.591 6.95.133 13.815.133 20.808.299 15.041.359 30.001.73 45.052.967 2.007.032 4.205-.036 6.189.189 2.105.24 1.018.686 2.463 1.441 4.045 2.116 3.111-5.725 3.014-7.267-.52-8.264-2.625-16.369-5.154-24.214-2.399-7.441-4.347-15.229-6.379-22.831-2.224-8.32-5.122-16.3-7.753-24.538-2.697-8.442-4.892-17.213-9.79-24.696-1.115-1.704-2.268-3.538-4.063-4.613-2.011-1.205-2.098-.501-2.096-2.706.001-2.076-.127-4.85.364-6.831.445-1.79.376-.729 1.376-2.015.814-1.045 1.666-1.76 2.25-3.03 3.587 3.626 11.799 1.713 15.265-.898 4.242-3.196 7.473-8.588 8.657-13.723.951-4.124-.216-11.984-4.794-13.967-2.232-.966-10.43-1.697-10.758-4.848-.169-1.626 2.717-3.913 3.382-5.311 1.234-2.59 2.419-6.037 2.762-8.876.669-5.544-1.855-11.742-5.876-15.486-7.377-6.869-20.355-10.394-29.844-6.036 2.005-7.636 3.216-14.223 2.206-22.166-.87-6.842-4.92-10.67-10.493-14.08-9.51-5.816-22.442-8.112-33.315-6.42-2.471.384-4.843 1.208-7.131 1.864-3.323.953-7.302.636-10.441 2.185-2.275 1.122-4.003 3.358-6.001 4.851-2.334 1.743-4.272 4.344-5.893 6.75-3.467 5.145-2.112 14.693.789 19.857.622 1.108 1.391 2.04 2.42 2.796 1.072.786 2.706 1.031 3.258 2.051 1.415 2.614.05 8.271-.138 11.096-.22 3.28 1.443 5.743 5.174 6.005 2.158.152 2.227-1.096 3.26 1.472.67 1.664 1.279 3.478 2.245 5.004 1.993 3.145 5.643 2.838 8.967 2.753 3.849-.099 7.639-.705 11.49-1.087-1.017 3.248-3.801 5.77-5.539 8.663-2.351 3.914-3.765 7.158-4.148 11.718-.293 3.504.34 6.27 2.745 8.878.995 1.079 1.878 1.132 1.631 2.377-.151.76-1.468 2.013-1.935 2.619-1.233 1.603-2.665 3.075-3.75 4.788-4.177 6.589-5.411 16.634-5.421 24.304-.001.352-.189 1.1-.033 1.464.115.268.992 1.119 1.004 1.192.172.987-.793 2.677-2.306 2.844-1.59.176-4.502-1.147-5.981-1.581-2.366-.696-4.778-1.209-7.139-1.924-3.814-1.153-7.61-2.073-11.487-2.977-1.752-.408-3.513-.748-5.271-1.13-2.002-.435-2.932-1.274-3.965.756-.887 1.743-.336 2.059-2.483 1.18-2.132-.872-4.215-1.953-6.297-2.938-3.671-1.736-8.044-3.284-11.211-5.847-5.283-4.276-7.239-11.086-12.295-15.623-1.408-1.263-2.248-1.286-3.138-3.036-.953-1.873-1.444-4.275-1.945-6.29-.878-3.528-1.502-7.069-2.298-10.594-.991-4.391-3.134-8.368-4.697-12.557-.609-1.632-.925-3.706-1.908-5.173-.26-.389-.757-.608-.961-.93-.698-1.105-.691-1.408-.872-2.737-.847-6.211-4.567-2.944-8.631-1.52-1.712.6-9.843 4.493-6.738 7.08-3.701 1.071-9.629.49-9.579 5.777.026 2.71 1.651 5.607 2.523 8.143.775 2.252 1.525 4.512 2.312 6.76 1.724 4.925 3.816 9.702 5.499 14.642.767 2.251 1.4 4.555 2.467 6.68.942 1.874 3.222 3.94 3.598 5.99-9.862-4.195-18.987-10.26-30.026-9.873-4.834.169-9.221 2.195-11.89 6.432-3.347 5.31-5.549 11.256-8.821 16.616-11.9 19.497-26.094 37.21-39.158 55.9-1.004 1.437-2.294 2.795-2.642 4.57-.228 1.158.213 2.316-.06 3.428-.564 2.312-3.42 5.199-5.356 6.527-3.712 2.547-9.745 6.139-14.377 5.821 2.907-6.964 2.868-14.594 2.733-22.022-.128-7.056-.893-14.055-1.801-21.038-.206-1.58-.385-3.045-.84-4.576-.523-1.757-1.24-1.591.325-3.17 2.41-2.432 5.276-4.433 7.705-6.895 5.254-5.324 10.64-9.497 14.774-15.855 3.933-6.047 8.082-12.27 10.993-18.892 2.997-6.817 4.195-14.098 5.683-21.317.603-2.93 2.805-6.2 2.362-9.26-.559-3.867-2.357-1.051-3.089 1.03-2.235 6.351-7.466 12.036-11.799 17.144-4.682 5.519-10.408 10.136-15.294 15.494-5.322 5.835-8.967 12.541-13.699 18.77 0-7.73 2.648-15.602 3.731-23.249.953-6.731 1.252-13.483 1.855-20.244 1.367-15.356.185-31.164-1.735-46.41-.912-7.242-.394-14.312-.422-21.578-.009-2.312.951-7.641-.272-9.693-2.344-3.93-3.711 4.663-3.83 5.945-.708 7.633.563 15.18-.087 22.78-.678 7.938-2.15 15.652-3.403 23.497C67.635 75.698 65.425 84 63.31 92.332c-2.222 8.747-4.09 17.677-6.56 26.355-.666-2.728.269-6.079.453-8.857.264-3.975.778-7.951.823-11.937.071-6.352.12-12.823-.24-19.145-.355-6.233-.248-12.763-2.165-18.768-.91-2.85-2.245-5.63-3.55-8.314-1.611-3.31-2.18-6.52-3.073-10.04-.764-3.016-1.883-5.951-2.392-9.027-.316-1.912-1.2-7.558-3.396-3.28-1.275 2.482-.724 6.163-.76 8.83-.045 3.42.48 6.745.56 10.15.157 6.681.27 13.354.77 20.024.524 6.998.066 13.27-1.27 20.164-1.461 7.548-1.889 15.112-2.646 22.751-.39 3.945-1.05 7.868-1.367 11.818-.169 2.092.694 8.091-.81 9.58-.145-3.623-1.186-7.249-1.976-10.78-.935-4.183-1.313-8.58-2.002-12.822-1.117-6.874-3.283-13.438-4.716-20.234-2.954-14.01-5.409-32.017-17.789-41.187-1.62-1.2-3.4-2.085-5.15-3.073-.992-.559-2.465-2.005-3.6-2.258C1.218 42.007.7 42.221.2 43.652c-.7 1.997.58 2.93 1.774 4.38 4.135 5.016 5.902 11.447 8.455 17.33 5.846 13.473 8.433 27.684 8.462 42.247.016 7.624.544 14.977 1.36 22.554.877 8.155 2.032 16.78 4.518 24.625-2.493.557-5.197-.274-5.874 2.615-.166.709.134 1.548-.05 2.472-.178.897-.608 1.79-.862 2.673-.526 1.826-.804 3.628-1.06 5.503-.988 7.246-2.684 14.139-2.865 21.486-.166 6.792 1.168 13.673 2.397 20.334 1.238 6.709 4.788 12.428 7.584 18.495-1.203 0-2.406.013-3.61.025z" fill="#000"/><path fill-rule="evenodd" clip-rule="evenodd" d="M178.649 212.968c1.326.374 7.726 1.079 7.725 3.081-.001 1.201-6.393 1.177-7.524 1.308l-.201-4.389zm-14.128 13.815c-3.688.699-8.694-.284-11.052-3.525-1.102-1.515-1.625-3.818-1.983-5.626-.343-1.723-1.4-6.021-.681-7.636.883-1.983 9.358.09 11.825.317 4.306.396 8.758.443 13.066.163 0 4.435.228 8.757-2.389 12.574-1.887 2.754-5.432 3.404-8.786 3.733zm.742 5.478c4.007-1.462 8.215-.512 10.824-4.801a16.97 16.97 0 001.62-3.467c.196-.529.348-1.071.457-1.627-.204-1.195.235-1.532 1.317-1.011 2.124-.412 4.454 1.041 6.691.613 5.427-1.039 4.441-8.788.799-11.471-.719-.53-1.438-.677-2.261-.939-1.816-.577-2.798.067-4.458-.096-1.342-.133-1.711-1.535-3.153-2.153-.944-.404-2.255-.373-3.247-.414-5.195-.212-10.405-.21-15.633-.548-2.438-.157-5.07.228-7.459-.188-1.118-.194-.958-.936-2.017-.285-1.096.674-.622 3.166-.567 4.16.32 5.747.663 11.91 3.751 16.935 2.826 4.597 8.386 5.067 13.336 5.292zm211.639 1.586l-3.863-.041 3.863.041zM18.884 111.31l.009-3.702-.009 3.702zm327.983 5.071l.012 3.605-.012-3.605zM239.691 232.48c-1.025.002-2.051.003-3.072.006 1.027-.001 2.049-.003 3.072-.006zm62.28-.245l-3.072.011 3.072-.011zM77.698 182.287l.136 2.433-.136-2.433zM20.43 228.392l2.379-.025c-.797-.334-1.59-.319-2.379.025zm70.375 3.593c-.57-.008-1.14-.017-1.703-.027.57.008 1.137.018 1.703.027zm-71.61-110.657l-.042-1.84.042 1.84zm53.202-77.621zm-53.485 70.02l-.023-1.901.023 1.901zm178.918 117.47l-1.514.022 1.514-.022zm-130.305 1.034l-1.48.031 1.48-.031zm-53.411-44.604l.107-1.669-.107 1.669zm8.878 45.147c-.403-.002-.806-.005-1.204-.005l1.204.005zm54.842-.516l-1.193-.029c.4.011.797.02 1.193.029zm89.602-.303l-1.314-.008 1.314.008zm101.181-.001l-1.248.01 1.248-.01zm24.61.065l-1.273-.071 1.273.071zM175.389 70.458l1.898-.165c-.634.045-1.304-.332-1.898.165zM14.056 228.633l1.872-.191-1.872.191zM57.584 74.286l.127 1.635-.127-1.635zM18.752 97.013l-.128-1.55.128 1.55zm39.08-14.27l.135 1.632-.135-1.632zM19.02 117.871l.011-1.577c-.342.525-.328 1.05-.011 1.577zm58.672 75.519l.015 1.58c.351-.532.281-1.057-.015-1.58zm-39.774-60.981c.06-.534.122-1.068.184-1.6l-.184 1.6zm329.358-48.968c.414.55.978.174 1.47.24l-1.47-.24zM162.677 206.726zM79.164 85.682l-.147 1.329.147-1.33zm258.333-44.018l1.577.032c-.52-.308-1.044-.397-1.577-.032zM57.845 90.41l.102 1.392-.102-1.393zm14.411-57.054l-.123-1.27.123 1.27zm4.13-1.328l.124 1.379-.124-1.379zM304.657 1.323l1.605.195-1.605-.195zm38.618 40.707l1.647.17-1.647-.17zM42.574 43.379l-.1-1.282.1 1.282zm318.713 70.574l-.943.014.943-.014zM76.37 166.735l.095 1.42-.096-1.42zM44.131 74.58l.039-1.37-.039 1.37zM291.196.249h1.462c-.488-.336-.975-.328-1.462 0zM161.05 107.667l1.602.041c-.524-.372-1.059-.382-1.602-.041zm-46.655 123.514c-.317.006-.634.013-.947.021.318-.006.633-.014.947-.021zm-11.922.554l-.945-.034.945.034zm186.531.219l-.985.025.985-.025zM14.388 182.348l.141-1.353-.141 1.353zm43.053-76.068l-.112 1.289.112-1.289zm-16.566-7.383l.154-1.368-.154 1.368zM286.33 232.226l-.995-.015.995.015zm-121.07.036l-.967-.044.967.044zM43.577 65.602l.044-1.386-.044 1.386zm274.282 166.924l-.969-.007.969.007zm-274.146-.004l-.997.011.997-.011zm-7.199-.04l-.963.069.963-.069zm-2.911-.004c-.327.009-.656.019-.98.026.33-.01.655-.018.98-.026zM18.674 100.729l.064-1.364-.064 1.364zm220.035 125.793l-2.992-.157 2.992.157zM298.867 61.29l-2.596.226 2.596-.226zM54.475 98.807l-.082 2.467.082-2.467zM36.61 227.928l-2.711.165c.91.041 1.832.301 2.71-.165zm5.347-97.393l-.02-2.354.02 2.354zm2.311 24.68l-2.379.032 2.379-.032zm199.587-13.811l.059 1.794-.059-1.794zm-212.78-25.343zm16.913 109.218l-1.73-.116c.434.349.87.378 1.73.116zm3.86-77.864l-.12 1.924.12-1.924zm215.66-101.342l-.019-1.86.019 1.86zM51.152 155.344l-2.15-.047c.71.344 1.427.356 2.15.047zM31.32 159.92zm185.643 65.605l-2.105.028c.707.356 1.409.406 2.105-.028zm132.187 2.062l-2.137-.191 2.137.191zM54.228 104.096l-.105 1.931.105-1.931zm227.329-41.29c-.601-.297-1.207-.347-1.819-.032l1.819.032zm-207.69 48.729l-.15 1.63.15-1.63zM23.145 98.854c.31-.532.299-1.062-.016-1.586l.015 1.586zm9.458 56.103c-.618-.19-1.237-.459-1.852.007l1.852-.007zm199.719 71.322zm85.254.001c-.57-.252-1.139-.384-1.7.019l1.7-.019zm-116.508-.799c-.609-.267-1.217-.414-1.819.019l1.819-.019zm135.58-78.555l-.137 1.644.137-1.644zM195.25 115.351c-.6-.219-1.197-.334-1.786.032l1.786-.032zM54.238 131.666l-.1 1.608.1-1.608zm282.798-48.351l.15 1.294-.15-1.294zm34.735 125.178l.092 1.259c-.032-.421-.062-.84-.092-1.259zm-330.08-73.989l.102-1.302-.102 1.302zm43.639 90.161zm158.729-79.562l-.3.95c.667.16.767-.156.3-.95zm-40.036-30.469l-1.628-.007c.542.258 1.085.436 1.628.007zm132.325 34.887l-.055 1.437.055-1.437zm-5.739 77.279l-1.571-.001 1.571.001zm-258.06-72.225l-.059 1.322.059-1.322zm269.176 72.768c-.515-.344-1.032-.314-1.549-.006l1.549.006zM328.172 77.152l-.085 1.35.085-1.35zM344.4 227.386l-1.606.007c.537.367 1.072.384 1.606-.007zM48.08 70.083zm245.676-8.003l-1.537.201 1.537-.2zm45.172 39.488l-.022 1.281.022-1.281zm-294.298-.059l.085-1.305-.085 1.305zm119.397 125.367l-1.894.172 1.894-.172z" fill="#000"/><path fill-rule="evenodd" clip-rule="evenodd" d="M166.135 210.575c.341.006.683.011 1.021.018-.342-.004-.682-.011-1.021-.018zm-.028 16.053l-1.59.157 1.59-.157zm95.339-35.564c-.69 3.883 5.363 7.68 5.843 2.161.176-2.019-1.178-3.438-2.694-4.672-2.152-1.751-3.354-.074-3.149 2.511zm66.721-47.373c-1.426.582-12.321 4.121-6.662 5.901 1.498.471 3.762.542 5.061-.288 1.562-1 3.138-3.948 1.601-5.613zm-2.681-52.581c-3.698-.427-7.105 5.627-2.546 5.43 3.319-.143 7.782-5.43 2.546-5.43zm-13.226 14.847c-3.088 2.686 2.636 8.696 4.908 6.37 1.16-1.188.09-3.748-.868-4.742-.983-1.021-2.731-1.212-4.04-1.628zm-9.194 69.623c1.822.288 9.839 2.9 8.167-1.843-.638-1.809-2.416-1.273-4.042-1.19-2.62.134-4.125.009-4.125 3.033zm5.282 12.219c-2.729 1.455 1.26 9.6 3.522 7.867 3.138-2.404-1.154-7.136-3.522-7.867zm-11.905-6.552c-1.327-.54-7.582 5.458-5.201 7.127 1.22.855 3.533-.611 4.268-1.495 1.38-1.658 1.505-3.703.933-5.632zm36.094-49.027c-1.356.222-3.698.292-3.785 2.192-.077 1.67 2.023 2.211 3.501 2.342 1.534.136 3.565-.296 3.594-2.219.031-2.074-3.262-1.949-3.31-2.315zm-33.45 82.678c-1.445.875-8.182 4.022-5.294 6.295 1.081.851 4.357-.906 5.094-1.799.88-1.066 1.74-3.564.2-4.496zM280.36 192.06c.209-3.474-5.67-4.856-4.451.075.343 1.39.676 3.5 2.4 3.581 2.038.095 2.112-2.308 2.051-3.656zm18.162-60.408c-.041 2.635 5.025 4.959 5.064.782.035-3.733-5.253-4.825-5.064-.782zm3.348-13.728c-1.248.401-2.907.607-3.017 2.188-.116 1.673 1.443 2.418 2.845 2.324 1.151-.077 2.853-.926 3.062-2.17.307-1.827-1.481-1.946-2.89-2.342zm23.208 48.249c.021-2.174-4.35-4.788-5.155-2.265-.258.808 1.802 4.428 2.488 4.699 1.813.718 2.066-.955 2.667-2.434zm-35.825 36.194c1.477 1.318 5.908 5.021 5.577.051-.211-3.176-5.967-3.01-5.577-.051zm-72.198 14.206c-.484-2.09-7.417 1.535-5.103 4.175.776.886 2.807.084 3.587-.441 1.545-1.039 1.579-1.998 1.516-3.734zm38.631-44.735c-.271-.932-.571-2.579-1.463-3.174-1.613-1.075-3.018.547-3.018 2.258-.001 3.19 3.642 4.196 4.481.916zm17.182 37.301c-1.8.411-5.808 4.773-3.484 6.552 2.237 1.713 5.212-5.249 3.484-6.552zm-1.714-33.019c-2.314.184-5.495 3.92-1.898 4.514 2.814.465 6.087-3.599 1.898-4.514zm-20.957 17.194c-.581-1.949-6.321.139-5.998 2.285.171 1.141 2.518 1.409 3.752 1.107 1.816-.444 2.287-1.632 2.246-3.392zm67.664-108.851c-.042-2.52-4.898-3.547-5.254-1.008-.322 2.294 5.315 4.735 5.254 1.008zm-66.056 134.812c-.35-1.267-.501-2.792-2.089-2.958-1.817-.192-1.764 1.198-1.55 2.638.581 3.917 2.802 4.113 3.639.32zM328.5 114.442c2.532.569 7.169-4.292 4.335-5.335-1.997-.735-4.335 3.868-4.335 5.335zM296.21 152.2c1.288.605 1.585.972 2.575-.021.862-.864.824-3.273.084-4.172-2.833-3.444-2.767 2.799-2.659 4.193zm-10.517-6.985c-1.344.17-5.337 3.946-3.258 5.447 2.548 1.838 3.989-3.921 3.258-5.447zm-29.077.994c.977 3.75 3.415 1.227 3.277-1.611-.222-4.544-2.749-.586-3.277 1.611zm-14.824 60.226c-1.652.681-3.895 6.979-1.535 7.317 2.651.379 1.769-6.006 1.535-7.317zm20.636-3.539c-1.891-.636-2.584 3.34-1.484 4.079 2.418 1.625 1.908-3.141 1.484-4.079zm17.931-10.835zm-63.304 24.51zm33.146-23.258c.01.46.021.92.033 1.376-.01-.46-.022-.918-.033-1.376zM41.037 185.41c-3.92-.125-8.294-1.596-12.147-1.128-1.06.129-3.502.395-1.803 1.963.813.75 4.704.363 5.881.611 7.198 1.52 15.37 2.5 22.75 2.373 3.455-.059 6.936-.335 10.39-.517 3.45-.182 3.79-1.58-.093-2.025-4.033-.462-8.172-.29-12.225-.295-4.26-.006-8.5-.698-12.753-.982zm-8.607-9.416c.376 1.071.708 3.529 2.154 3.69 2.025.226 2.36-3.24 2.285-4.508-.09-1.53-.642-4.072-2.55-3.542-1.612.447-1.773 3.135-1.89 4.36zm12.258-.782c-.297-1.147-.442-3.733-2.069-3.821-1.818-.098-2.338 2.597-2.326 3.887.012 1.226.467 3.541 1.915 3.824 1.963.383 2.138-2.58 2.48-3.89zm20.42 2.056c.589 1.378.978 3.277 2.802 2.337 1.41-.727 1.606-3.658 1.34-5-.275-1.39-.859-2.985-2.461-2.36-1.849.722-1.662 3.505-1.681 5.023zm-15.461-1.273c1.738 5.252 4.908 1.699 3.704-2.222-1.258-4.098-3.544-.118-3.704 2.222zm8.463.261c.483.925.996 2.92 2.297 2.71 1.595-.258 1.647-3.318 1.471-4.458-.152-.997-.602-2.659-1.937-2.638-1.929.031-1.8 3.189-1.83 4.386zm-34.666 1.007c1.293 2.894 3.073.401 2.503-1.654-.844-3.048-2.43-.348-2.503 1.654z" fill="#000"/><path fill-rule="evenodd" clip-rule="evenodd" d="M55.128 186.398l4.24-.016c-1.415-.267-2.829-.371-4.24.016zm-28.078-2.126l3.677.024a6.39 6.39 0 00-3.676-.024zm13.986 1.139zm24.074-8.143l.027-2.104c-.364.698-.339 1.399-.027 2.104zm-7.692 11.946l-1.703.015 1.703-.015zm4.828-2.757l2.402.198-2.402-.198zm-10.83-.066l2.373.005c-.79-.335-1.581-.344-2.373-.005zm6.696-10.138c.02-.731.04-1.463.058-2.193l-.058 2.193zm11.139-1.648zM36.54 185.146l2.097.19-2.097-.19zm-13.096-7.881l.068-1.869-.068 1.869zm29.751 11.97l-1.456-.027 1.456.027zm-20.769-13.239l.129-1.344-.13 1.344zm17.216-.001l.094-1.38-.094 1.38zM300.644 40.82c1.914-.5 2.273-3.182 1.966-4.83l-1.047-2.38.409-.88c-.175-1.636.272-2.346-1.612-1.684-3.501 1.23-4.061 9.648.284 9.774zm-28.337-5.185c-1.577-.124-4.441 1.707-2.871 3.478.972 1.097 4.177.578 5.484.807 1.734.304 3.543.72 2.605-1.869-.737-2.033-3.368-2.47-5.218-2.416zm1.654 12.18c1.602-1.28.887-7.113-1.55-6.063-2.508 1.08.214 5.222 1.55 6.063z" fill="#000"/><path fill-rule="evenodd" clip-rule="evenodd" d="M302.606 35.99l.002 1.84c.336-.616.325-1.229-.002-1.84zm-1.963 4.832l-.977-.027.977.027zM102.86 208.794c.15 2.653 3.008.692 2.805-1.083-.368-3.221-2.195-.038-2.805 1.083z" fill="#000"/></svg>