<svg width="898" height="836" viewBox="0 0 898 836" fill="none" xmlns="http://www.w3.org/2000/svg" preserveAspectRatio="none"><path fill="#EDF1F7" d="M178 0h720v918H178z"/><path fill-rule="evenodd" clip-rule="evenodd" d="M459.691 199.482l-11.725 31.04-7.515 19.889c-.889 2.351-1.383 4.762-3.101 6.394-4.049 3.843-11.317 6.288-16.184 8.991l-9.782 5.434c-1.681.935-5.408 2.108-6.587 3.659-1.296 1.709-.683 4.848-.683 7.211v58.852l50.525-6.316-67.313 77.669c-5.53 6.38-12.244 12.522-16.364 19.945-8.768 15.802-17.34 31.717-26.008 47.574l-24.206 44.28 72.59-3.09c18.794-.799 38.101.403 56.209-4.923l44.781-13.171c1.986-.585 8.17-1.245 9.577-2.843 1.318-1.497 1.29-7.152 1.663-9.067 7.045-36.213 16.015-76.12 36.578-107.293 14.743-22.346 34.638-41.91 52.857-61.396 7.111-7.606 14.346-15.12 21.205-22.956 1.757-2.007 4.295-4.285 5.457-6.723.75-1.575 1.798-4.576 1.332-5.974-.202-.606-4.889-2.781-5.561-3.213-4.751-3.053-9.46-6.171-14.179-9.273-13.26-8.718-26.508-17.458-39.844-26.059-10.396-6.708-20.764-13.819-31.73-19.583-11.367-5.974-23.886-10.179-35.803-14.899a4705.7 4705.7 0 00-36.189-14.159z" fill="#FFAEAD"/><path fill-rule="evenodd" clip-rule="evenodd" d="M868.426 752.203c-5.782 5.449-16.313 12.762-24.637 9.437-4.181-1.67-7.752-5.337-11.56-7.702-4.474-2.778-8.68-5.559-12.473-9.262-7.568-7.392-13.297-18.19-22.235-23.977-3.004-1.945-8.867-2.362-10.951-5.468-.934-1.393-1.021-3.506-.849-5.116.374-3.469 2.247-3.264-.883-5.811h4.862c.093-1.878-1.781-2.033-3.178-1.791.649-2.977 1.311-14.627-4.116-9.347-4.703 4.576-2.35 12.169-5.681 17.125-2.55 3.796-9.318.723-10.231-3.453-.411-1.876 1.656-4.805 1.902-6.644.541-4.079-1.281-7.605-3.926-10.694-5.803 3.867-2.513 11.869-5.82 16.949-2.993 4.596-9.657 2.452-14.213 1.643-5.462-.97-11.637.012-16.863-1.278-7.89-1.948-4.943-11.211-5.724-17.191-.837-6.405-7.311-15.295-5.366-21.757 2.089-6.939 14.303-8.438 20.141-10.122 13.342-3.848 32.373-4.589 42.293-15.363 7.889 8.799 14.235 18.874 22.51 27.344 8.938 9.149 18.484 17.595 27.065 27.113 8.93 9.905 18.148 19.62 26.754 29.812 3.755 4.446 7.052 9.237 10.936 13.577 3.453 3.858 7.093 7.407 2.243 11.976zM471.854 581.084c4.1-2.18 4.621-.813 4.62 3.677-1.18-2.156-2.351-2.733-4.62-3.677zm-34.762 87.289v-7.914c3.953-.104 1.523 6.666 0 7.914zm-.966 11.788c0-3.505-.095-6.842.916-10.252.53 3.715 1.544 6.931-.916 10.252zm16.994 240.778c3.63.34 9.225-2.161 12.278.687 3.136 2.927 2.885 11.445 3.627 15.399 1.228 6.534 2.316 13.09 3.35 19.655.678 4.305 1.517 8.677-3.35 10.324-7.192 2.433-17.469-1.04-24.965-1.356-14.809-.622-29.611-1.489-44.433-1.789-14.365-.291-28.764-.061-43.063 1.433-6.46.675-12.777 1.867-19.171 2.946-3.37.57-12.4 2.95-15.444.11-5.727-5.348 3.794-17.834 7.89-21.361 7.6-6.544 18.408-11.263 27.938-14.105 5.093-1.52 13.584-5.785 17.596-1.014 3.078 3.659 2.955 8.543 7.366 11.316 10.22 6.424 4.241-12.004-2.146-14.272 4.288-10.037 12.462 4.134 15.852 7.538 1.207 1.212 5.13 5.206 6.834 3.197 1.276-1.503-1.272-6.889-1.745-8.354-.717-2.226-2.532-5.611-2.01-8.025.944-4.368 7.07-5.557 10.74-5.921 5.69-.564 11.272 1.24 16.898 1.843 8.627.924 17.321.938 25.958 1.749zm-57.133-411.412c-11.233.895-22.537-.823-33.743.583-10.603 1.331-20.594 5.224-30.589 8.8 14.859-34.851 34.084-66.577 57.516-96.296 11.669-14.803 24.219-29.503 36.828-43.512 5.867-6.518 11.935-12.82 17.993-19.154 5.403-5.652 9.275-15.249 15.76-19.469 5.535-3.602 15.208-1.033 21.341-.809 6.933.252 15.371.882 22.133-1.425 4.899-1.673 6.247-6.135.113-6.283-7.234-.176-14.349.579-21.677-.1-18.989-1.754-37.293-4.638-56.435-3.002-4.386.374-10.158 2.242-14.462 1.681-3.094-.405-1.059 1.151-3.211-1.333-.823-.949-1.816-3.183-2.06-4.445-1.37-7.087 2.522-17.215 3.452-24.35.862-6.603.099-13.861 1.711-20.292 1.467-5.852 5.941-6.633 11.451-7.258 15.073-1.711 30.455-2.622 45.596-3.912 34.554-2.943 70.206-7.383 104.525-.11 12.392 2.626 27.503 6.687 38.573 13.19 3.462 2.032 6.954 4.426 5.695 8.637-1.306 4.372-7.71 8.99-10.882 11.87-23.442 21.281-46.083 42.987-62.551 70.293-21 34.821-33.052 72.428-40.123 112.328-1.52 8.584-2.933 13.077-11.764 15.548-9.481 2.654-18.633 4.378-28.463 5.185-22.224 1.825-44.515 1.863-66.727 3.635zm7.527-230.595c-1.703 12.676-4.008 25.323-4.235 38.099-.086 4.825-.544 7.242-5.674 8.319-6.049 1.268-12.2 2.213-18.276 3.529-29.329 6.356-58.103 14.162-86.796 22.948-27.886 8.541-55.313 18.15-83.825 24.477-12.265 2.722-26.617 4.556-37.788 10.582-12.017 6.485-10.436 17.117-11.514 28.794-1.442 15.602-6.068 30.709-7.695 46.305-.778 7.452-1.487 14.949-1.37 22.448.1 6.393 1.016 13.461-3.281 18.841-8.621-11.525-12.707-26.02-14.406-40.146-.826-6.866-.499-13.788-.735-20.686-.191-5.554-.067-14.388-3.685-19.026-7.864-10.08-18.091 30.314-19.064 34.628-1.636 7.26-2.985 14.581-4.614 21.843-.722 3.219-1.65 14.919-5.962 16.085-8.936 2.417-6.975-22.695-7.116-26.518-.283-7.718-.475-15.444-.295-23.168.132-5.576 1.21-11.626.57-17.204-1.573-13.696-9.274.734-11.439 5.832-5.47 12.87-7.945 26.645-12.85 39.721-.817 2.175-2.734 9.497-5.772 9.634-3.38.15-3.353-7.412-3.547-9.621-1.122-12.807-4.91-25.524-3.766-38.464 1.154-13.065 5.734-26.497 12.215-37.862 13.702-24.027 38.447-37.822 62.148-50.389 27.124-14.379 55.761-25.74 85.008-34.995 35.175-11.13 71.293-20.136 107.628-26.546 18.486-3.26 37.257-5.591 55.932-7.461 6.563-.657 13.129-1.041 19.607-2.29 2.446-.472 11.269-2.717 10.597 2.291zm18.895-41.019c-9.268.073-18.735-4.42-27.764-6.277-10.749-2.213-21.247-5.415-31.977-7.725-21.012-4.523-42.035-8.934-63.028-13.557-9.114-2.007-18.271-3.754-27.349-5.91-9.712-2.307-20.205-4.878-30.146-2.394-15.067 3.767-21.432 20.252-26.965 33.117-3.908 9.087-6.97 19.216-13.064 27.123-2.17 2.819-5.255 6.181-9.189 5.268-7.31-1.695-6.149-11.368-5.218-16.715 1.349-7.759 3.26-15.427 4.789-23.151.617-3.118 5.394-23.521-3.135-20.362-6.327 2.343-9.674 17.776-12.069 23.288a251.125 251.125 0 01-5.662 12.162c-2.666 5.329-10.269 23.135-18.688 20.838-12.048-3.286-.492-34.959 1.561-41.634 1.127-3.665 13.373-31.455 3.037-29.184-4.402.969-8.691 9.145-10.935 12.534-3.98 6.012-7.948 12.066-11.694 18.225-3.854 6.334-5.822 13.544-9.644 19.786-2.011 3.286-6.115 7.664-10.121 4.622-6.247-4.738-2.544-21.219-1.451-27.451 2.035-11.587 7.09-23.465 14.026-32.937 10.422-14.233 30.088-18.832 46.624-21.597 21.346-3.57 42.988-2.593 64.423-.481 24.107 2.376 47.846 4.919 71.608 9.777 23.947 4.896 47.907 9.753 71.486 16.228 11.108 3.05 22.375 5.754 33.325 9.335 11.641 3.806 23.001 8.543 34.967 11.285l-12.628 31.51c-4.028-3.985-9.526-5.769-15.119-5.723zm206.296 28.942c3.691-2.019 7.768-2.971 9.115-7.433 1.191-3.942-.844-8.408-1.817-12.193-2.72-10.595-3.437-21.57-1.029-32.29 2.301 3.513 10.916 17.024 16.155 8.844 3.161-4.933-5.307-12.031-7.779-15.499 5.423-3.348 13.17-12.331 19.42-6.913 4.04 3.502 5.75 6.875 11.193 8.578 6.607 2.067 12.828 1.594 19.575 1.023 4.724-.399 5.863-1.03 7.708 2.608 1.449 2.86 2.198 6.399 3.044 9.47 1.667 6.054 5.529 17.983.956 23.654-4.005 4.968-19.549.709-21.708 7.121-1.177 3.498 4.441 3.623 6.589 5.354 2.659 2.142 4.858 5.551 6.303 8.596 1.07 2.252 2.696 5.974.875 8.276-2.516 3.186-7.18.77-9.208-1.546-2.693-3.075-3.567-7.28-5.814-10.63-4.124-6.146-4.371-1.257-5.494 3.156-1.165 4.586-3.924 4.27-8.149 4.858-7.413 1.035-14.905 2.494-22.121 4.481-3.699 1.018-7.283 2.315-10.806 3.831-2.27.975-6.205 3.929-8.668 3.957-4.563.052-7.727-7.581-10.083-10.766 3.912-2.183 7.812-4.388 11.743-6.537zm245.082 467.383c-11.399-13.683-21.27-28.547-32.515-42.349-11.092-13.613-23.924-25.515-36.372-37.844-5.875-5.82-11.503-12.203-17.988-17.359-4.838-3.848-8.56-3.907-14.379-2.203-16.535 4.843-33.371 10.672-49.018 17.898-14.57 6.73-27.842 15.371-43.644 19.124-16.128 3.831-32.899 5.061-49.429 4.111-16.956-.974-32.949-4.502-49.074-9.687-15.271-4.911-31.194-9.199-44.254-18.933-13.692-10.203-24.271-24.879-34.073-38.683-4.963-6.987-9.889-14.326-13.232-22.246-2.902-6.872-4.798-14.984-10.004-20.586-1.277 1.81-2.866 3.362-3.515 5.488-.296.967 1.445.936 1.267 1.704-.338 1.447-2.263 2.922-3.382 3.709-4.02 2.829-4.044.577-2.99 5.868.614 3.085-.548 10.043-5.578 7.77 1.852 2.216-1.09 5.014-2.051 6.841-.661-.759-1.483-1.023-2.466-.795 1.84 3.663.753 3.761-1.029 6.67-.326.531-1.479 3.314-1.314 3.079-1.821 2.594-3.925 3.247-4.988 6.479-.872 2.653-.649 5.571-1.622 8.221a8642.816 8642.816 0 00-3.527-4.875c.24 1.278.72 3.17 1.278 4.33.351.725 1.857 2.417 1.836 2.812-.082 1.478-1.926 1.123-2.451 2.398-.987 2.391.439 2.743-.099 5.076-.616 2.678-2.271 1.607-3.058 3.889-.149.434 1.013 2.139.829 3.074-.259 1.321-1.457 2.06-1.88 3.234-1.076 2.989-.684 5.177-2.179 8.043-.578 1.111-1.421 1.852-1.829 3.115-.357 1.111.412 3.477-.277 4.472-3.333 4.799-2.864-3.467-2.611-5.517 2.12-17.212 8.925-34.977 15.152-51.065 3.095-7.993 6.107-16.236 9.986-23.892 1.561-3.084 3.364-6.265 5.944-8.624 3.264-2.983 7.895-4.177 10.851-7.509-.466.526 3.204-2.948 2.617-1.806.525-1.021-.392-2.402-.066-3.39.406-1.227 1.172-1.484 2.026-2.558 1.535-1.928 3.358-2.888.948-5.343 3.577-.791 5.287-1.952 6.002-5.783.522-2.802-.532-2.619 1.307-4.488 1.846-1.876 2.78-.411 3.944-3.661 1.39-3.889 2.314-9.178 3.147-13.248.728-3.553-1.038-8.779 1.957-11.287 3.793-3.177 7.187-1.832 6.508-8.22-.664-6.229 1.272-10.002 3.217-15.896 3.881-11.765 5.382-24.188 8.785-36.094 7.264-25.409 20.096-48.319 33.894-70.685 12.75-20.667 30.575-38.275 47.788-55.232 4.712-4.644 9.373-9.356 13.605-14.448 3.645-4.384 5.31-10.353 8.814-14.515 2.128-2.528 6.091-3.609 9.063-4.949 4.956-2.236 10.863-5.152 16.457-4.7-2.223 7.494-2.948 16.251 3.612 21.871 7.959 6.817 15.173-.266 22.469-4.152 13.298-7.085 32.317-.581 43.912-11.2 2.763-2.529 3.533-6.57 6.403-8.932 2.107-1.732 5.104-2.171 7.476-3.462 7.206-3.922 10.704-11.102 7.899-19.033-2.565-7.25-6.55-9.765 2.32-13.439 7.2-2.981 9.937-7.473 6.678-15.47-3.107-7.624-8.799-8.502-14.185-13.491-5.216-4.833.776-10.457 4.684-14.085 5.04-4.68 6.003-8.897.16-13.764-6.118-5.096-14.853-4.918-21.986-2.398-8.066 2.849-13.38 7.584-16.793 15.258-3.476 7.812-12.092 5.632-19.069 3.454-6.673-2.081-8.41-6.573-12.792-11.41-4.873-5.379-14.805-.779-20.552 1.679-14.157 6.05-28.226 15.6-28.788 32.514-.334 10.086 3.931 18.659 6.149 28.126 2.029 8.657-11.879 7.975-14.288 16.35-25.693-13.602-54.307-17.764-83.027-18.689-30.526-.986-61.492-1.775-91.757 3.04 7.025-12.24 10.735-25.662 16.847-38.236 1.76-3.62 2.518-3.311 6.401-2.217 7.458 2.101 14.861 4.452 22.305 6.615 27.192 7.905 53.85 17.429 80.144 27.86 2.555 1.014 8.26 3.829 10.5.768 2.584-3.531-3.394-7.884-5.814-9.659-10.588-7.767-23.708-12.481-35.565-17.93-25.923-11.91-54.628-17.564-81.677-26.41-58.392-19.099-118.802-33.605-179.485-43.186-14.809-2.338-29.776-2.68-44.649-4.416a167.455 167.455 0 00-39.546.086c-24.33 2.934-52.536 9.265-66.278 31.537-12.405 20.108-20.686 42.717-17.521 66.57.952 7.164 3.986 15.648 12.826 13.802 6.133-1.281 9.389-6.491 12.236-11.577 4.302-7.682 8.551-15.364 13.213-22.841 1.73 11.21-4.554 22.234-3.567 33.654.672 7.749 4.954 19.992 15.015 17.798 13.79-3.006 19.465-24.549 26.095-34.883.336 7.96-2.454 15.805-1.601 23.783.843 7.881 7.001 15.32 15.649 14.24 8.157-1.018 13.459-9.757 16.923-16.337 4.822-9.156 8.285-18.973 12.994-28.19 4.414-8.64 9.642-18.925 20.179-20.549 9.403-1.45 20.18 1.906 29.469 3.291 25.767 3.84 51.014 10.378 76.499 15.66 27.325 5.663 55.295 9.102 81.778 18.239-9.312 12.675-33.68 9.936-47.552 11.297-20.962 2.056-42.194 3.603-63.038 6.637-20.586 2.996-40.742 8.315-61.168 12.177-20.318 3.841-40.602 7.688-60.262 14.239-36.503 12.162-73.615 27.555-105.776 48.776-14.964 9.875-28.257 21.161-37.5 36.748-9.304 15.684-13.774 33.42-15.48 51.461-1.06 11.234.742 20.956 2.919 31.89 1.576 7.916 2.086 21.17 8.434 26.966 12.114 11.064 22.172-33.812 24.41-39.232 1.61 8.882-1.024 58.922 18.414 54.852 8.675-1.815 10.643-13.723 12.082-20.894 2.625-13.075 4.975-26.412 9.465-39.004 2.881 16.966 4.082 34.642 10.289 50.847 4.123 10.761 15.886 29.857 24.088 11.433 6.151-13.817 4.04-29.675 4.778-44.345.817-16.257 5.484-31.937 7.137-48.034.64-6.236.06-13.264 6.327-16.667 5.379-2.92 13.246-3.871 19.119-5.502 17.397-4.83 34.908-9.27 52.223-14.395 17.322-5.128 34.405-11.119 51.496-16.966 16.346-5.592 33.035-8.771 49.58-13.559 9.406-2.724 18.699-5.572 28.237-7.846 4.438-1.057 8.931-1.88 13.36-2.976 3.283-.811 7.608-3.871 10.983-3.817 3.473.057 4.779 2.998 8.762 3.229 4.288.247 8.648-.699 12.913-1.026 10.389-.797 21.432-2.085 31.798-.645-6.23 7.389-14.644 12.497-22.018 18.618-8.504 7.06-16.735 14.683-23.999 23.019-14.617 16.774-28.432 34.505-41.266 52.677-12.661 17.928-22.854 37.545-31.716 57.588-4.416 9.988-8.703 20.194-11.753 30.692-1.253 4.312-2.276 8.641-4.539 12.563-2.075 3.597-4.999 6.698-2.546 11.042 1.689-1.057 3.206-2.371 4.733-3.641-1.765 12.431-5.573 24.456-7.531 36.848-1.93 12.209-1.852 24.766-1.727 37.097.263 25.823 2.183 51.061 7.421 76.391 5.298 25.612 12.103 51.03 20.685 75.737 8.261 23.79 16.551 48.738 28.082 71.159 12.315 23.949 26.966 49.128 44.792 69.4-11.644 4.77-26.463 3.878-38.794 5.799-12.889 2.008-24.038 5.799-35.022 12.931-11.113 7.217-17.146 16.509-18.682 29.668-1.091 9.366-4.333 22.333 7.954 24.793 8.838 1.77 18.718-1.136 27.574-1.855 15.491-1.256 31.005-2.04 46.53-2.717a3674.91 3674.91 0 0146.462-1.751c7.286-.226 14.575-.34 21.858-.601 3.264-.116 5.244-.167 8.17.777 2.314.746 2.145 2.296 4.722.38 4.155-3.091 3.3-12.836 3.184-17.12-.177-6.613-.803-13.301-2.093-19.788-.765-3.855-10.057-28.705-2.832-29.751-8.393-9.223-11.746-22.393-15.516-33.953-4.724-14.483-8.871-28.926-12.126-43.822-6.953-31.819-10.027-63.986-10.027-96.542 32.233 19.867 66.336 30.629 104.3 31.829 37.745 1.193 79.211-1.906 115.052-14.463 16.598-5.815 31.465-13.452 45.695-23.74 5.1-3.687 10.565-12.039 17.259-11.896 7.989.172 16.936 3.195 24.87 4.489 15.172 2.473 34.976 3.869 47.821 13.254 6.978 5.098 11.979 12.233 18.206 18.107 4.736 4.469 11 6.895 15.702 11.364 5.072 4.821 3.058 11.12 11.469 11.511 7.189.332 15.072-2.561 21.273-5.956 12.371-6.774 25.546-21.233 14.112-34.955z" fill="#000"/><path fill-rule="evenodd" clip-rule="evenodd" d="M754.88 412.031c18.104 12.859 38.87 21.644 57.789 33.226 4.736 2.899 19.489 8.917 19.346 14.295-.083 3.143-4.517 7.086-6.458 9.265a220.346 220.346 0 00-9.524 11.452c-14.049 18.082-27.279 36.334-42.504 53.507-2.293 2.583-9.198 14.918-11.428 8.792-1.01-2.778-.178-5.899-2.811-8.489-1.356-1.333-6.594-2.069-5.068-4.93 1.017.458 2.035.916 3.053 1.372-.791-2.286-.733-4.791-1.917-6.952-.737-1.343-2.175-1.978-2.674-3.49-.69-2.089.48-4.517.284-6.671-.194-2.147-1.306-4.177-1.971-6.203-3.939-12.009-5.353-24.116-7.37-36.508-1.996-12.261-5.104-24.138-6.324-36.535-1.29-13.095-2.87-26.163-4.978-39.153 3.762.528 6.655 4.616 9.316 6.928 4.184 3.633 8.726 6.888 13.239 10.094zm-14.192 126.775a7.18 7.18 0 01-2.028-2.5c8.874-4.395 3.519 3.104 2.028 2.5zm-5.396-9.375c-3.868 1.066-6.647 1.282-9.629-.309-.283-.151.043-1.314-.467-1.553-.446-.207-1.127.05-1.509-.145-1.298-.661-3.572.787-3.793-1.742 4.936-1.511 9.791-4.298 15.002-4.768 7.243-.652 6.908 6.721.396 8.517zm-16.946-14.576c-5.278 1.234-9.625 4.116-15.232 3.363-5.264-.704-9.837-3.434-13.989-6.579 10.386-2.941 21.278-3.471 31.656-6.316 3.379-.926 7.819-3.367 11.46-2.383 4.046 1.094 4.301 4.883 5.514 8.331-6.475 1.165-12.999 2.086-19.409 3.584zm-33.007-14.632c-5.07 1.211-10.253 3.86-14.492-.711-.684-.738-1.283-.002-1.202-2.274.084-2.396 2.26-3.94 4.13-4.783 4.398-1.984 10.564-.701 15.235-.993 7.451-.464 15.035-2.012 22.405-3.205 5.103-.825 10.374-2.656 15.589-2.295 4.027.279 8.885 3.711 3.017 6.215-5.345 2.281-13.358 1.931-19.148 2.919-8.559 1.46-17.087 3.108-25.534 5.127zm-4.953-23.853l.986 1.004c-.055-.012 1.944-1.631 2.473-1.677 2.57-.224 5.156-.047 7.73-.192 5.932-.335 11.91-1.368 17.736-2.506 4.745-.927 9.579-2.525 14.464-2.125 4.228.346 4.673 1.213 4.95 5.294-10.795 0-21.914-.227-32.523 2.058-6.907 1.486-14.518 5.915-17.978-2.068l2.162.212zm6.749-17.278c2.677 2.038 9.974-1.352 13.182-1.69 3.484-.369 6.762-.752 10.138-1.62 2.994-.77 12.898-4.618 15.194-.938 3.52 5.637-10.734 6.672-12.994 6.951-9.477 1.171-19.31 2.209-28.532 4.695l3.012-7.398zm13-19.148c.693 2.606 22.125-6.996 22.515-.017.301 5.354-21.205 8.022-25.071 7.552.905-2.466 3.314-4.674 2.556-7.535zm7.196-16.379c.456-5.255 1.161-5.225 5.376-5.72 3.215-.378 7.633-2.263 6.797 3.467-.716 4.906-12.631 7.557-12.173 2.253zm7.661-18.084c1.014-2.822 3.297.977 3.345 2.412.127 3.818-2.768 2.992-5.554 2.992a132.718 132.718 0 002.209-5.404zm35.275-21.181c-.568-.685-3.759-.946-4.667-1.278-2.233-.819-1.916-2.563-4.773-.843-.143-.144.128-1.437-.027-1.497-.078-.03-2.08-.785-2.731-1.202-1.57-1.005-2.984-1.989-4.427-3.251-1.533-1.34-3.069-3.286-4.821-4.353-.739-.45-1.343-1.088-2.233-1.225-2.311-.356-1.649 1.253-3.669 1.572-1.244.197-2.149-1.255-3.776-.629-1.406.541-2.222 2.513-2.849 3.686-2.277 4.271-4.034 8.867-6.263 13.183-11.401 22.071-24.36 43.304-35.403 65.58-5.319 10.732-10.869 21.538-14.613 32.942-2.699 8.226-8.795 20.242-3.551 28.461 3.814 5.976 11.449 8.556 17.541 11.444 9.167 4.345 17.617 10.024 26.884 14.236a674.113 674.113 0 0132.555 15.888c4.594 2.392 8.739 5.838 13.318 8.104 2.8 1.386 7.125-.979 8.037 2.198 3.51-4.252 9.192-1.417 13.253-4.411 2.388-1.761 4.134-5.229 6.126-7.398 2.989-3.251 6.232-6.268 9.281-9.462 12.102-12.688 23.277-25.903 34.288-39.531 10.517-13.014 22.803-25.309 31.686-39.554 3.528-5.655 4.167-11.586 1.84-17.833-1.701-4.557-5.796-11.439-11.645-8.421 2.218-3.683-6.338-7.617-8.934-8.337-.039-.01-.551 2.82-1.275 2.749.258.025-2.175-6.269-3.243-7.076-3.173-2.401-7.033-5.203-10.496-7.18-3.175-1.812-6.526-2.71-9.602-4.739-3.729-2.458-7.152-5.373-10.894-7.815-3.614-2.357-7.642-5.143-11.636-6.764-3.464-1.406-6.573-1.681-9.69-3.985-3.855-2.851-7.217-4.785-11.663-6.749-3.846-1.699-9.177-3.183-11.928-6.51zM225.243 725.649l2.12-4.981c.874 2.895 1.119 4.335-2.12 4.981zm.941 7.673c-1.532.274-.928-4.532-.928-5.37 2.646 1.498.455 3.294.928 5.37zm-2.388-13.866l3.918-2.314c-1.819 3.37-1.105 1.265-.355 3.516-1.372.394-2.706-.066-3.563-1.202zm-7.741 26.339c-4.895 17.763-20.446 31.772-36.87 39.029-9.438 4.168-18.717 5.212-28.909 4.747-3.931-.18-8.556-1.457-12.339-1.219-2.913.183-2.782.309-5.194 2.775-1.068-1.965-.295-3.345-2.436-4.489-2.671-1.427-3.78.235-5.105 2.212-1.734-1.798-2.444-2.736-4.691-3.804.07.034-2.152-.05-2.061-.022-.401-.124-2.818-1.678-3.574-1.961-3.105-1.164-6.695-1.643-9.559-3.314-2.506-1.459-4.57-5.555-7.438-2.408-.002-5.259-7.087-7.441-10.408-10.196-5.189-4.304-9.314-10.678-11.9-16.843-2.76-6.575-3.68-12.878-4.971-19.653-.902-4.734-6.808-11.578-3.262-16.355.845 2.003.449 4.055 1.852 5.871 1.263-2.434 1.958-5.157 2.529-7.821.28-1.305 1.905-5.135 1.72-6.272-.375-2.326-3.255-2.453-1.658-5.305 3.312 3.604 5.984-2.724 3.482-5.247-1.235 1.394-1.689 2.976-2.258 4.702-3.257-6.574 5.756-4.457 3.784-10.391 3.29-.633 5.18-1.461 6.43-4.711 1.391-3.617.368-4.405 3.526-6.795 1.086-.821 4.158-2.002 4.72-3.353 1.088-2.611-1.68-3.385.744-5.832.819 1.436 4.01 4.28 5.756 1.574.35-.539-1.119-.922-.05-2.165 1.582-1.839 3.353-3.643 6.03-3.256-2.12-5.299 11.423-5.719 14.892-6.969 3.476-1.252 6.425-2.074 10.111-2.365 3.682-.29 3.865-1.369 6.983-3.586.264 3.172 1.027 2.475 3.281 3.034.542-.929 1.098-1.034 1.666-.313.566.538 1.258.791 2.074.761 1.238.064 2.643-.098 3.94-.071 3.045.059 6.187-.195 9.174-.13a6.077 6.077 0 002.165-.805c.282.531.565 1.062.845 1.594 1.583.199 1.705 2.182 3.652.013.576 2.757 2.23 1.322 3.979 2.07 1.594.683 1.848 1.775 3.319 2.536.968.785 2.005.888 3.114.314a92.227 92.227 0 003.212 2.277c2.002 1.131 4.361 1.823 6.471 2.716 1.403.578 2.798 1.181 4.181 1.805.041 1.67.79 2.26 2.246 1.768 1.314 1.1 1.685 1.057 2.96 2.931 2.89 4.245 5.454 7.543 9.105 11.337 15.866 16.497 20.74 39.819 14.74 61.585zm4.87-70.146c-7.163-9.592-17.302-20.576-26.413-26.634-4.618-3.072-11.101-8.586-16.748-10.21-1.339-.385-2.725-.411-4.041-.815-1.017-.312-1.57-1.355-2.729-1.543-.811-.132-.901 1.684-1.762 1.517-1.802-.351-2.943-2.139-4.215-3.257-2.733 4.708-4.215-3.209-8.227 2.114-4.775-7.487-15.991-5.85-23.615-5.472-2.261.111-3.324.916-5.328 1.512-1.866.554-2.05.412-4.088.396-5.074-.039-9.578.599-14.268 2.827-7.879 3.743-15.112 9.575-22.596 14.085-8.364 5.041-15.904 11.458-22.303 18.831-23.132 26.659-29.318 65.572-10.873 96.478 29.298 49.086 104.872 54.332 147.696 21.026 33.084-25.733 45.675-75.824 19.51-110.855zm362.63-138.132c-.822 1.962-8.501 1.301-8.669-1.011-.25-3.456 10.098-2.398 8.669 1.011zm8.156-1.283c4.351.354 11.501 3.309 15.694 1.523 6.4-2.726-.321-6.909-3.754-8.159-3.494-1.272-8.698-.597-10.494-4.25-1.351-2.747 1.988-10.417-2.155-9.184-4.347 1.294-3.083 12.28-9.905 8.577-3.254-1.767-1.926-12.532-7.377-7.032-1.491 1.504-1.622 4.267-3.597 5.389-2.016 1.145-4.545-.048-6.673.051-5.635.264-7.43 5.535-1.72 7.626 2.113.774 10.078 1.719 5.253 5.172-3.04 2.175-9.794-2.39-12.405 1.397-3.589 5.202 6.024 5.319 8.605 6.875 4.376 2.635.762 8.79 1.111 13.173.534 6.698 4.424 5.298 5.838-.37 1.198-4.808-.287-11.73 6.962-9.819 11.805 3.112-6.564 18.099 2.083 21.934 5.513 2.445 6.294-10.773 6.722-13.049 1.585-8.401 6.305-6.441 13.454-6.183 8.351.3 10.367-5.878 1.523-7.647-2.822-.565-6.703.149-9.154-1.649-1.45-1.062-3.443-4.653-.011-4.375zM283.35 810.703c-6.759-2.42-18.066-1.897-19.739 6.832-.699 3.654.664 7.52 3.187 10.175 2.927 3.078 7.588 3.363 7.339-1.997-.173-3.71-3.703-6.932 2.504-7.68 3.862-.465 9.575 2.424 9.767 6.691.435 9.617-16.213 10.371-22.348 8.708-12.177-3.3-8.868-16.053-.507-21.874 2.16-1.504 8.358-3.821 8.641-6.944.377-4.144-4.746-3.297-7.258-2.752-18.457 4.018-22.481 34.94-3.194 40.769 8.759 2.646 21.093-.086 26.371-8.018 4.949-7.438 5.016-20.409-4.763-23.91zM38.616 591.81l-17.308 8.333c-1.908-4.082-5.13-15.231-9.968-16.655-7.83-2.305-2.844 9.849-1.493 12.628 1.11 2.282 3.686 5.819 3.06 8.54-.838 3.665-6.009 4.964-8.716 6.855-6.698 4.681-6.645 14.512 3.056 10.346 5.49-2.358 12.286-8.898 16.493-1.473 1.943 3.426 6.546 22.564 11.353 10.048 2.975-7.749-11.343-15.8-4.284-22.356 2.272-2.109 4.932-2.287 7.202-3.5 5.482-2.929 2.391-8.342.605-12.766zm845.893-277.306c-3.44-1.258-7.695-3.715-11.519-2.878-4.063.89-5.699 4.959-8.653 7.406-8.032 6.653-12.711-3.263-17.124-8.697-4.169-5.13-9.254-6.376-15.135-3.223-2.343 1.257-12.214 7.015-10.493 10.705 1.238 2.655 6.115.271 7.778-.308 3.612-1.257 6.965-2.357 10.659-.525 6.928 3.436 8.725 12.858 17.107 14.327 8.668 1.519 8.952-6.729 15.138-9.834 4.146-2.08 7.035 1.603 11.035.869 3.813-.698 5.576-6.246 1.207-7.842zm-69.975 33.243c3.065.665 5.066-5.28 6.985-6.788 3.183-2.5 8.701-3.004 11.943-.488 6.329 4.911 4.148 15.514 13.16 18.277 8.055 2.471 11.849-8.138 18.63-10.779 3.942-1.536 8.269-2.541 6.731-8.052-1.062-3.811-4.192-4.79-7.595-3.326-5.848 2.513-7.834 12.754-14.767 12.937-7.174.189-7.952-10.152-11.031-14.656-4.695-6.865-14.347-8.524-19.831-1.959-1.656 1.98-10.063 13.569-4.225 14.834zM672.74 230.515c4.264 2.918 12.763 2.817 16.691-.802 3.998-3.682-1.339-4.248-4.595-4.135-2.505.087-7.194 1.328-5.766-2.998 1.266-3.838 8.23-1.884 8.811-6.098-5.241-.94-11.013-.601-14.89 3.518-2.802 2.977-4.242 7.783-.251 10.515z" fill="#000"/></svg>