<svg width="382" height="278" viewBox="0 0 382 278" fill="none" xmlns="http://www.w3.org/2000/svg" preserveAspectRatio="none"><path fill-rule="evenodd" clip-rule="evenodd" d="M246.24 136.29c-1.749-6.806-3.398-13.759-5.993-20.299-1.625-4.093-3.346-8.148-5.07-12.199-.239-.563-.34-1.105-.805-1.385-.622-.374-1.907-.366-2.608-.494-9.959-1.828-20.021-3.223-30.117-4.007-11.52-.896-22.752-.486-34.152 1.392-9.749 1.606-19.401 3.82-28.949 6.356-1.403.372-2.805.753-4.203 1.144-.652.182-1.734.275-2.302.656-1.214.813-1.626 4.145-2.081 5.557-.61 1.892-.965 4.491-2.141 6.101-1.75 2.396-4.414 4.474-6.583 6.466-7.572 6.952-15.872 13.293-25.65 16.73-15.128 5.317-31.08 8.65-46.752 11.944l-1.094.229 12.17 13.484 6.862 7.602c1.175 1.303 1.047 1.535 2.71 1.172 8.333-1.819 16.651-3.802 24.833-6.219 4.011-1.185 8.091-2.415 11.823-4.335 5.137-2.641 9.958-5.906 14.65-9.26a280.224 280.224 0 0012.313-9.36c.793-.636 3.654-3.701 4.582-3.502.8.173 2.186 1.995 2.772 2.526a544.767 544.767 0 004.672 4.187c2.493 2.205 5.038 4.905 7.949 6.565 3.068 1.749 6.584 2.941 9.821 4.334a2597.6 2597.6 0 005.422 2.322c.473.201 1.132.64 1.641.651 1.507.031 3.696-1.194 5.094-1.672a234.607 234.607 0 0010.683-3.929c7.533-2.986 15.812-6.231 22.011-11.605 1.082-.937 2.139-1.986 2.855-3.238.248-.435.617-1.039.642-1.552.041-.817-.419-.978-1.102-1.489-3.526-2.637-7.328-4.935-11.067-7.252a311.744 311.744 0 00-2.643-1.623l43.692 3.51 6.115.492z" fill="#FFAEAD"/><path fill-rule="evenodd" clip-rule="evenodd" d="M181.179 53.054c-4.616.211-9.348.426-13.924 1.076-4.562.648-8.818 2.304-12.941 4.31-7.433 3.617-15.03 8.014-19.811 14.97-2.235 3.254-4.059 6.66-7.144 9.22-.722.6-1.509 1.319-2.466 1.502-.762.146-1.434-.163-2.18-.2-1.423-.07-1.963.68-1.963 2.096-1.068-.427-2.232-.813-3.397-.657-.974.132-1.749.72-2.684.967-1.689.446-3.341-.221-4.946-.718-4.055-1.256-8.508-2.206-12.769-1.758-2.805.295-6.206 1.512-4.753 5.128 1.205 3 5.711 4.519 8.557 5.265 2.421.635 5.676.068 5.471 3.41-.142 2.332-.495 4.835-2.973 5.592-1.359.415-6.173 1.033-3.362 3.138 2.076 1.554 2.801 4.29 4.38 6.344 2.012 2.619 4.741 4.737 7.93 5.692 3.568 1.07 7.344.865 11.01 1.28-2.582 3.564-6.309 6.016-9.703 8.727-3.567 2.85-7.009 5.965-11.138 7.997-3.7 1.821-7.7 3.086-11.522 4.63-4.014 1.622-8.057 3.225-12.2 4.488-8.36 2.549-17.151 4.329-25.745 5.893-4.24.771-8.399.658-12.682.727-4.395.07-8.786.841-13.1 1.633-2.09.384-4.202.626-6.293 1.009-1.003.183-4.974.588-5.117 2.058-.232 2.395 2.357 3.737 4.252 4.405.81.285 2.114.243 2.815.636.758.424.462 1.048.549 1.87.126 1.194.765 2.053 1.744 2.715.805.545 1.775.524 1.22 1.556-.256.475-.896.775-1.191 1.277a2.998 2.998 0 00-.424 1.859c.12 1.154.881 2.034 1.943 2.442 1.698.652 3.691.19 5.43-.021 2.91-.354 5.864-.39 8.735-1.027 2.994-.664 5.907-1.687 8.904-2.368 1.537-.348 3.077-.641 4.579-1.124.977-.315 2.39-1.132 3.43-.876.975.24 1.737 1.418 2.375 2.101.88.943 1.731 1.912 2.625 2.842.593.616 1.2 1.219 1.847 1.778.21.181 1.509.976 1.527 1.189.05.602-1.367.592-1.67.832-1.765 1.395.886 2.277 2.03 2.207 2.637-.16 5.287-.484 7.899-.872 6.218-.923 12.419-1.919 18.365-4.003 5.88-2.061 11.619-4.253 17.058-7.326 5.221-2.949 10.271-6.283 15.203-9.69 2.393-1.654 4.803-3.367 6.824-5.474 1.976-2.06 3.587-4.425 5.225-6.753 3.925 3.792 7.702 7.779 11.917 11.256 4.01 3.306 8.831 5.073 13.496 7.221-.151.976-4.711 1.56-5.543 1.814-3.803 1.157-7.452 3.015-11.151 4.472-6.153 2.423-11.992 5.578-14.041 12.309-2.015 6.618.322 13.279 3.172 19.258 3.364 7.058 7.36 13.595 12.19 19.747 2.055 2.618 4.268 5.027 6.523 7.465 1.923 2.08 3.573 4.543 2.766 7.499-1.548-.484-1.831.724-.819 1.747.899.91 2.455 1.086 3.656 1.237 3.642.457 7.403.295 11.049-.044 6.638-.619 13.291-2.295 19.301-5.179 2.99-1.435 4.072.879 6.129 2.671 1.618 1.409 3.845 2.323 5.075 4.147 1.011 1.501.351 3.872-1.75 3.31-1.635-.438-2.948-2.263-4.68-2.333-3.073-.124 2.726 4.262 3.467 4.798-1.468 1.314-3.134-.488-4.615-.789-1.42-.289-1.817.447-1.06 1.632.59.923 2.444 1.577 1.211 2.701-1.021.931-3.287 1.42-4.541 1.828a69.934 69.934 0 01-11.881 2.76c-1.316.188-3.425.068-4.491 1.001-1.407 1.231-.729 3.27-.017 4.68 2.698 5.341 8.306 7.966 14.066 8.351 3.547.236 7.128.007 10.687.198 3.899.21 7.808.522 11.716.393 6.284-.207 10.281-4.75 13.414-9.747 1.99-3.174 3.824-6.441 5.547-9.767.673-1.299 2.082-2.646 2.322-4.106.216-1.314-.622-2.369-1.437-3.299-2.143-2.447-4.722-4.315-7.242-6.337-1.438-1.155-1.991-2.111-2.632-3.792-.539-1.414-1.576-2.019-2.489-3.148-1.004-1.241-.688-1.461.095-2.476.819-1.062.497-2.628.153-3.83-.494-1.725-1.553-2.105-3.134-2.661-1.442-.507-2.664-1.396-3.943-2.221-6.315-4.074-12.265-8.683-18.658-12.644-6.308-3.907-12.9-7.359-18.919-11.719 4.888-.657 9.198-3.298 13.809-4.861 2.366-.803 4.71-1.66 7-2.664.874-.384 1.893-.725 2.673-1.289.784-.566 1.386-1.312 2.208-1.848 1.949-1.273 4.267-1.997 6.363-2.989 2.265-1.071 4.499-2.242 6.603-3.605 1.964-1.273 3.85-2.728 5.483-4.409 1.301-1.34 2.567-3.085 4.409-3.7-.194 2.566-3.371 4.691-5.113 6.236-2.826 2.506-5.764 4.635-8.923 6.705 3.543 3.037 7.862 5.014 12.011 7.066 4.665 2.306 9.2 4.862 13.847 7.204 3.936 1.984 8.077 3.513 12.078 5.356 4.316 1.989 8.759 3.657 13.262 5.17 4.076 1.369 7.913 2.83 11.759 4.752 3.738 1.868 7.738 3.297 11.738 4.497 4.493 1.347 8.78 2.629 13.102 4.476 3.897 1.665 7.81 2.73 11.934 3.636 1.363.299 3.112.848 4.066-.472.723-1 .832-2.542 1.04-3.718.795-4.5.858-9.073 1.573-13.58 2.715.819 5.286 1.828 8.15 1.958 1.8.081 2.895.267 3.343 2.234-1.041.117-4.763.169-4.863 1.645-.091 1.331 2.16 1.345 2.959 1.381 1.429.065 2.724-.169 3.486 1.23-1.123.415-3.614-.342-4.112 1.17-.641 1.95 2.27 1.946 3.318 2.103 1.828.274 1.64 1.709 1.515 3.244-.165 2.02-.29 4.042-.563 6.051-.582 4.293-1.58 8.521-2.052 12.83-.409 3.725-.638 7.304 2.024 10.273 1.071 1.194 2.558 2.568 4.24 2.71 1.708.144 1.676-1.052 2.739-1.933.651-.539 1.514-.649 2.281-.94.933-.354 1.838-.872 2.676-1.409 1.545-.989 2.896-2.217 3.988-3.693 4.273-5.775 5.8-14.403 6.223-21.405.269-4.452.001-8.911-.408-13.346-.22-2.388-.441-4.778-.73-7.16-.089-.738-.239-1.477-.295-2.217-.031-.423.173-1.28-.043-1.686.276.518.765.135 1.251-.273 1.002-.843.694-2.46.157-3.568-1.616-3.339-6.459-3.469-9.609-3.728-8.47-.698-16.516-2.97-24.624-5.396 1.145-1.714-.655-2.846-2.05-3.435-2.152-.908-4.373-1.707-6.545-2.574-4.903-1.96-9.705-3.786-14.84-5.036-4.651-1.132-9.152-3.012-13.741-4.389-4.741-1.424-9.397-3.051-14.06-4.709-9.237-3.284-18.482-6.639-27.445-10.623-2.266-1.007-4.431-2.175-6.617-3.339-1.777-.946-3.861-1.64-5.367-3.007-1.438-1.305-2.299-3.12-3.862-4.305-1.408-1.068-3.333-1.082-4.5-2.408-1.576-1.792-3.459-2.58-5.6-3.631-.688-.338-5.215-2.044-5.123-3.012 3.236 0 6.557.963 9.756 1.411 3.384.474 6.766 1.002 10.175 1.264 5.523.425 11.044.31 16.545-.289.821-.089 4.119-.767 4.687.115.434.672-.644 1.472-.654 2.194-.016 1.06.837 1.628 1.804 1.26 1.882-.716 1.607-3.75 1.431-5.29-.337-2.945-1.085-5.863-1.739-8.749 3.883 1.977 7.57 4.516 10.914 7.306 2.59 2.16 4.929 5.09 7.969 6.631 2.918 1.479 4.653.217 4.534-3.04a13.638 13.638 0 00-.874-4.298c-.244-.657-1.247-2.516-.777-3.215 2.667 2.127 5.317 4.26 8.117 6.214 1.979 1.38 4.848 3.534 7.433 2.986 2.282-.484 2.059-2.996 1.335-4.689-.627-1.468-1.755-2.773-2.872-3.894-.924-.927-2.238-1.757-2.701-3.042 3.066 1.378 6.222 2.421 9.433 3.39 2.284.688 3.88 3.548 6.535 3.126 2.659-.423 1.6-3.71.539-5.139-.743-.999-1.77-1.88-2.766-2.619-.972-.72-2.45-1.348-2.928-2.547 3.106.583 6.228 1.596 9.424 1.409 1.897-.111 5.065-.94 4.69-3.492-.379-2.584-3.819-2.782-5.753-3.263-2.637-.658-5.16-1.892-7.705-2.833-5.134-1.899-10.367-3.422-15.619-4.936l-1.659-.478c-5.929-1.709-11.891-3.165-17.893-4.585-2.966-.702-5.923-1.467-8.913-2.066-2.892-.579-5.831-.915-8.702-1.608 2.419-3.653-.51-6.655-3.674-8.393 2.007-.406 4.047-.65 6.036-1.142 1.699-.42 3.336-1.066 5.047-1.437 2.941-.639 5.878-.975 8.388-2.797 4.744-3.442 5.148-8.921 1.151-13.067-4.035-4.184-9.956-6.143-15.654-6.338-6.378-.217-13.635 1.02-19.604 3.279-2.931 1.11-5.984 2.52-8.497 4.41-1.71 1.286-4.413 3.75-6.708 3.75 2.749-3.325 6.121-6.763 6.617-11.266.47-4.264-1.463-8.795-4.706-11.553-6.482-5.508-17.177-5.01-25.123-4.647zM218.13 235.78c1.691 2.632 4.031 4.769 6.24 6.953.762.754 2.291 1.713 2.365 2.893.059.963-1.122 2.047-1.638 2.804-2.729 4.005-4.976 8.428-8.31 11.984-3.767 4.02-8.067 4.801-13.402 4.813-5.924.013-11.927.754-17.84.441-5.009-.264-9.947-2.496-12.438-7.032 1.623-.836 3.932-.438 5.691-.419 2.398.025 4.739-.018 7.108-.435 2.147-.378 4.269-.945 6.289-1.774 1.045-.428 2.078-.919 3.041-1.514.704-.436 1.234-1.104 1.926-1.531 2.553-1.577 5.501 3.437 8.23 3.34 1.671-.058 1.066-1.703.371-2.623-1.256-1.661-3.446-2.687-5.099-3.898 1.539-1.417 3.279.07 4.744.81 1.833.926 3.736 2.063 5.784 2.411-.153-2.64-3.743-4.055-5.723-5.128-.881-.478-1.985-.921-2.202-1.972-.163-.791.116-1.914.199-2.713.104-1.014.182-1.338 1.262-1.624 1.31-.347 2.629-.247 3.941-.68 3.59-1.186 6.383-2.947 9.461-5.106zm116.69-41.598c.877.243 1.763.454 2.654.642 1.762.372 3.527.758 5.296 1.096.887.169 1.872.061 2.134.909.134.434-.204 1.214-.262 1.665-.104.814-.111 1.638-.121 2.458-.092 7.547 1.485 15.051.791 22.598-.587 6.378-1.96 14.443-6.643 19.194-2.022 2.05-4.509 4.277-7.054 5.678-1.995 1.098-4.782-1.658-5.19-3.566-.292-1.368.195-2.811.512-4.129.407-1.689.819-3.377 1.221-5.066.86-3.607 1.642-7.248 1.889-10.956a29.084 29.084 0 00-.005-3.604c-.038-.659-.348-2.246.113-2.81.595-.73 1.956-.253 2.762-.191a7.78 7.78 0 002.609-.21c2.055-.537 2.415-2.17.171-2.927-1.566-.528-4.429.237-5.745-.78-1.546-1.194 1.579-1.358 2.308-1.389.972-.042 4.195.213 4.03-1.599-.122-1.343-2.896-1.432-3.866-1.49-2.074-.121-4.698.655-5.594-1.846-.359-1.002 1.803-1.511 2.346-2.007 1.319-1.208 1.751-3.279 1.865-4.975.111-1.668-1.53-7.451.971-7.604.768-.047 2.044.697 2.808.909zm-122.993 33.373c1.471 1.753 2.743 3.673 4.114 5.505-3.215 1.775-6.503 3.202-9.828 4.728-1.511.695-2.571 1.245-4.034.193-1.05-.755-1.837-1.828-2.861-2.613-1.472-1.128-3.011-2.161-4.52-3.236 4.453-1.626 8.974-3.052 13.426-4.681 1.665-.609 2.501-1.329 3.703.104zm36.666-5.569c-.952.966.881 3.642 1.242 4.558-2.952-.234-5.88-.7-8.78-1.299-.987-.204-.623.998-.254 1.395.457.491 1.371.639 1.982.814 2.247.645 4.552.955 6.859 1.299-1.056 1.299-3.595 3.331-2.778 5.285 1.475-1.272 2.536-2.964 4.167-4.063.472.704 1.45 3.185 2.521 3.033 1.683-.238-.022-3.139-.374-3.837 1.133 0 5.391.995 5.985-.4.607-1.428-3.501-1.381-4.26-1.719l.141-.172.142-.172c.568-.685 1.114-1.36 1.191-2.3-1.271.437-2.119 2.429-3.515 2.458-1.324.027-1.915-1.963-2.387-2.905-.268-.536-1.179-2.688-1.882-1.975zm-143.258-18.77c-2.847 2.402-.913 7.246 1.241 9.424 2.413 2.44 7.786 4.682 10.845 2.194 1.674-1.361 1.07-3.438.657-5.248-.458-2.013-.743-3.709-2.409-5.09-2.592-2.148-7.447-3.716-10.334-1.28zm5.778 1.396c2.777.591 5.591 3.366 6.251 6.227.866 3.751-3.027 4.026-5.591 3.462-3.227-.709-6.654-3.076-6.819-6.788-.142-3.204 4.001-3.36 6.159-2.901zm202.089-16.219c4.159 1.548 8.068 3.667 12.431 4.586 1.332.28 1.879.587 2.208 1.828.461 1.737.898 3.497.569 5.311-.684 3.768-5.925 3.306-8.835 3.159-1.494-.076-4.368.197-5.665-.736-.947-.681-.549-1.958-.402-2.953.552-3.717-.05-7.48-.306-11.195zM86.36 152.489c1.531.289 4.178 1.538 1.983 3.103-1.464 1.043-3.644 1.17-5.365 1.428-3.36.504-6.948.939-9.865 2.836-5.404 3.514-4.742 10.146-3.126 15.573-1.164.686-4.584-3.799-5.228-4.528a1633.522 1633.522 0 00-7.871-8.848c-1.128-1.257 8.116-5.599 8.946-5.99 4.391-2.067 8.49-3.428 13.415-3.782 2.336-.168 4.8-.227 7.111.208zm19.064-11c.42 1.059-.315 1.538-.99 2.269-3.776 4.086-6.435 9.87-8.537 14.942-1.049 2.53-1.783 5.08-2.432 7.731-.637 2.6-2.66 3.295-5.084 4.033-5.584 1.7-11.461 2.269-17.064 3.949-1.502.45-1.796-2.852-1.89-3.689-.269-2.383-.02-4.869 1.232-6.969 2.366-3.97 7.108-4.814 11.339-5.49 2.42-.387 5.607-.786 7.521-2.441.961-.83 1.097-1.783.348-2.815-1.367-1.882-3.773-2.123-5.922-2.277-1.047-.075-7.53.581-7.742-.186 3.228-1.053 6.541-1.747 9.721-2.95a329.55 329.55 0 017.486-2.704l2.504-.878c2.546-.893 4.877-1.98 7.321-3.055.917-.404 1.759-.554 2.189.53zm-54.753 17.217c.808 1.088 1.61 2.001 2.216 3.223.707 1.425 1.88 2.334 2.861 3.558-5.093.899-9.951 2.041-14.858 3.688-2.52.846-5.122 1.263-7.699 1.869-2.161.508-4.465 1.296-6.704.83 2.55-3.515 9.35-2.543 11.14-6.8 1.218-2.895-1.776-5.205-4.224-5.708-4.275-.877-8.833-.945-13.176-1.258-.046-1.662 15.719-2.522 17.277-2.657 2.768-.24 5.656-.759 8.419-.855 2.564-.089 3.402 2.3 4.748 4.11zm60.155-12.157c1.519 1.468 3.005 2.969 4.522 4.439.997.967 2.348 1.996 3.135 3.148 1.003 1.47-.755 2.177-1.926 2.873-2.957 1.757-6.013 3.397-9.022 5.068-2.703 1.501-5.515 3.412-8.498 4.291-1.596.469-3.095 1.198-4.634 1.815.743-6.666 4.569-12.721 8.097-18.279.811-1.276 1.647-2.535 2.458-3.81.408-.643 1.165-2.158 2.021-2.289 1.265-.194 3.08 2.002 3.847 2.744zM33.46 163.516c-1.85 1.06-3.704 1.599-5.79.798a36.07 36.07 0 01-1.523-.664c1.39-1.897 5.502-.741 7.313-.134zm153.192-23.2c3.279 1.479 6.786 2.952 9.637 5.183 1.052.824 3.405 2.554 2.854 4.123-.471 1.344-3.075 2.488-4.311 2.898-6.504 2.153-13.906.587-19.895 4.539-1.621 1.07-2.149 2.468-3.353 3.874-1.089 1.272-2.467 1.114-3.93.587-1.922-.694-3.692-1.755-5.621-2.436-.986-.347-2.662-.578-2.765-1.91-.482-6.276.856-14.272 6.386-18.112 6.209-4.311 14.773-1.553 20.998 1.254zm3.516 14.626c.159.796-5.995 2.237-6.663 2.421-3.716 1.024-7.188 3.459-11.037 3.851-.669-1.493 4.663-3.87 5.506-4.177 3.847-1.398 8.153-1.651 12.194-2.095zM69.33 152.155c-4.666 1.913-9.188 4.254-13.098 7.511-1.349 1.123-4.626-4.207-5.36-5.024 6.214-.258 12.338-1.444 18.458-2.487zm87.194-37.489c4.325 2.858 8.092 6.596 12.84 8.787-1.486.234-3.108-.728-4.527-1.066-1.382-.328-2.779-.545-4.124-1.011-.827-.285-4.239-2.131-4.879-.88-1.001 1.954 6.046 3.305 7.048 3.638a363.04 363.04 0 0110.095 3.528c3.244 1.186 6.486 2.462 9.838 3.314 3.405.865 7.015 1.088 10.288 2.431 2.895 1.188 5.382 3.154 8.174 4.541 2.8 1.392 5.982 2.252 8.396 4.323a34.573 34.573 0 01-9.123 6.934c-.544-4.273-5.55-6.706-8.975-8.348-7.467-3.581-18.68-8.98-26.29-2.912-5.562 4.435-6.316 12.849-6.316 19.437-1.506-.48-2.882-1.244-4.281-1.964-.969-.5-.98-1.89-1.102-2.819-.2-1.52-.611-2.993-1.083-4.452-1.044-3.227-2.351-6.375-3.597-9.528-2.016-5.1-4.501-10.129-5.74-15.494-.809-3.502-1.771-9.52 2.449-11.258 3.651-1.503 7.945.84 10.909 2.799zm18.887-14.252c.705.473.442 1.892.394 2.603-.175 2.588-.065 5.187-.152 7.779-.105 3.159-.128 8.951-3.384 10.723-2.227 1.211-4.997-.604-6.774-1.84-3.007-2.091-5.765-4.519-8.814-6.56-3.614-2.419-10.462-5.766-13.921-1.215-1.871 2.464-1.609 6.134-1.142 9.001.617 3.781 2.056 7.368 3.487 10.902 2.954 7.298 6.038 14.714 7.681 22.439-3.746-2.228-6.659-5.438-9.929-8.258-2.423-2.09-6.022-4.49-6.581-7.897-.127-.769-.871-1.317-1.383-1.832a7.966 7.966 0 01-1.558-2.203c-.932-1.887-1.538-3.926-1.919-5.991-.801-4.334-.42-8.647.319-12.954.334-1.949-.156-4.039.298-5.938.315-1.318 1.245-1.24 2.482-1.54 4.456-1.08 8.92-2.127 13.379-3.197 1.811-.435 3.78-1.25 5.66-1.223 1.544.022 2.84.943 4.172 1.609 2.187 1.095 5.663 3.01 8.174 1.922 2.926-1.269-.484-4.133.984-5.488 1.006-.929 4.013-.372 5.377-.603.747-.126 2.464-.698 3.15-.239zm-46.046 37.421c2.128.336 3.36 1.259 4.532 3.071 1.191 1.842 1.333 2.754-.365 4.195-1.832 1.554-3.748 3.089-5.692 4.489-2.465 1.774-5.199 3.117-7.635 4.934-1.067.796-5.908-5.444-6.749-6.299-1.159-1.181-2.348-2.365-3.592-3.451-.454-.397-1.878-1.318-1.879-1.993-.002-1.707 3.782-3.234 4.999-3.704 2.728-1.052 5.587-1.477 8.494-1.521 2.576-.039 5.335-.123 7.887.279zm-9.483-7.508c1.998 1.061 4.085 1.955 6.095 2.995.713.368 5.211 2.258 4.984 3.388-5.061-.321-10.1-1.178-15.145-.198-2.266.441-4.425 1.179-6.318 2.541-1.434 1.03-2.527 3.011-3.951 1.248 2.907-1.648 5.524-3.832 8.102-5.953 1.128-.928 2.289-1.801 3.434-2.704.681-.537 1.805-1.845 2.799-1.317zm119.712-24.674c1.584.223 3.127.642 4.682 1.002 6.299 1.46 12.622 2.771 18.904 4.315 12.531 3.081 25.437 6.051 37.385 10.987-1.005 1.111-3.667.306-4.913.088-2.441-.426-4.81-1.172-7.221-1.734-2.358-.551-4.725-1.207-7.103-1.665-1.095-.211-3.027-.49-3.071 1.153-.063 2.329 4.46 4.07 6.119 4.922a69.793 69.793 0 015.184 2.974c1.335.837 3.799 1.953 4.232 3.616-4.335-1.838-8.672-3.667-12.98-5.567-1.623-.715-3.267-1.389-4.812-2.262-1.03-.582-2.356-1.603-3.575-1.695-1.652-.125-1.926 1.376-1.23 2.586.871 1.515 2.668 2.37 3.99 3.431 1.685 1.352 3.176 2.947 4.693 4.478 1.26 1.27 2.881 2.521 3.539 4.239-2.264.757-4.837-1.671-6.5-2.871-2.615-1.886-5.05-3.938-7.544-5.976-1.276-1.043-2.797-2.732-4.476-3.043-2.128-.395-1.952 2.039-1.436 3.381 1.153 2.999 3.854 5.5 4.047 8.881.119 2.082-1.643 1.289-2.819.455-1.98-1.407-3.32-3.549-5.118-5.162-4.327-3.884-9.281-7.198-14.634-9.499-.958-.412-1.302-1.89-1.594-2.778-.434-1.327-.934-2.612-1.457-3.909-1.145-2.839-2.083-5.907-3.687-8.53-.448-.732-1.602-1.477-.647-1.907.519-.234 1.506.015 2.042.09zm-45.697-4.803c1.622.19 3.263.172 4.888.344 2.651.279 1.494 3.506 1.921 5.45 1.258 5.724 7.322 6.805 11.917 4.104 2.585-1.519 4.137-3.697 5.527-6.244.793-1.452 1.383-1.686 3.023-1.322 1.125.249 2.149.196 3.294.279 1.44.105 1.566.41 1.595 1.782.026 1.218.201 2.061 1.012 3.048 1.545 1.879 4.135 3.117 6.341 4.061 2.211.946 4.715 1.65 5.929 3.886.612 1.128 1.268 2.474 1.445 3.756.194 1.4-.281 2.269.535 3.561 1.697 2.685 2.475 5.62 3.332 8.672.28.994.391 1.403-.694 1.677-1.557.392-3.767-.203-5.365-.266-1.139-.045-1.805-2.055-2.175-2.869-.72-1.584-1.603-3.084-2.488-4.582-2.004-3.396-4.146-6.769-6.764-9.736-1.976-2.239-4.892-5.026-7.422-1.88-2.466 3.067-4.243 6.658-7.208 9.331-2.608 2.351-5.295 2.389-8 .161-2.663-2.194-4.686-5.187-6.341-8.173-1.79-3.229-3.14-6.676-4.884-9.925-.547-1.018-3.072-3.772-2.303-4.952.52-.797 2.156-.248 2.885-.163zm-13.579-.704c1.427.067 2.863-.093 4.291-.122 2.583-.05 4.743.04 6.041 2.516 1.145 2.186 2.12 4.511 3.165 6.749 2.27 4.862 4.498 9.836 7.983 13.974 3.088 3.665 7.077 5.511 11.094 2.01 1.781-1.553 3.134-3.555 4.413-5.524 1.024-1.579 2.193-4.356 3.91-5.276 1.914-1.026 4.105 1.327 5.275 2.604 1.967 2.146 3.611 4.671 5.191 7.109 1.145 1.768 2.241 3.573 3.354 5.362.451.725 2.289 3.098 1.678 4.001-.614.906-3.608.287-4.474.204-2.068-.197-4.134-.269-6.203-.447-6.437-.554-12.778-1.968-19.231-2.346-4.251-.249-8.439-1.071-12.624-1.818-4.068-.726-8.163-1.222-12.188-2.181-2.367-.565-4.738-1.13-7.1-1.715-.817-.202-4.68-.754-4.92-1.817 2.66-.465 4.056-1.497 5-4.093 1.181-3.252 1.318-6.876 1.419-10.302.039-1.318.045-2.637.046-3.955v-1.582c0-.946-.408-2.662.444-3.318.788-.607 2.522-.077 3.436-.033zm-52.807 20.998c-.111 4.285.654 8.604 2.413 12.518-1.84.295-4.028-2.015-5.572-2.788-.595-.299-4.532-1.73-3.214-2.824 2.426-2.013 4.016-4.825 6.373-6.906zm-52.77 3.485c-.54 1.065.127 2.417.488 3.428-2.808.675-5.605 1.338-8.434 1.911-2.133.432-1.389 1.712.462 1.623 2.574-.122 4.97-1.213 7.53-1.355 2.44-.135 2.728 1.996 4.808 2.407-.07-1.173-1.019-1.987-1.7-2.867 1.123-.576 2.27-1.112 3.359-1.747.564-.329 2.122-1.708 1.522-2.44-.606-.74-2.194.646-2.76.951-.803.434-2.406 1.391-3.351 1.117-1.295-.376-1.026-2.236-1.924-3.028zm40.46-27.918c1.139.08 2.378-.304 3.457.198 1.076.5 2.36 1.595 3.26 2.354.871.736 1.304 1.628 2.387 2.062 1.082.434 2.19.396 2.607 1.719-.982.269-2.908-.088-3.677.634-1.118 1.05.833 2.206 1.642 2.536 1.161.474 2.11.32 3.297.232.516-.039.511-.198.934.058 1.569.949.484 4.323-.025 5.555-2.49 6.025-10.997 3.996-15.902 3.379 1.561-1.573 4.117-3.309 4.246-5.78.039-.736-.144-2.051-1.088-2.113-.755-.048-1.661 1.093-2.131 1.542-1.394 1.334-3.197 3.544-5.213 3.735-2.695.256-4.768-4.11-5.886-6.015 1.374-.258 2.879-.243 3.677-1.591.949-1.602.966-4.057.949-5.861-.014-1.536-.503-3.217 1.549-3.292 1.891-.07 4.008.516 5.917.648zm180.939 3.94c.392.857 2.098 1.193 2.847 1.422 2.849.87 5.631 1.976 8.409 3.061 5.607 2.19 11.154 4.609 16.274 7.827.957.602.488-.559.24-.978-.558-.938-1.728-1.602-2.603-2.177-2.366-1.556-4.872-2.649-7.489-3.689-5.235-2.083-10.551-4.291-15.92-5.977-.623-.196-2.286-.64-1.758.511zm-65.035 4.243c1.041.108 2.26-.129 3.261.211 1.305.443 1.09 1.339 1.476 2.44.655 1.87 1.355 3.725 2.039 5.585-2.53-.118-4.952-2.121-7.096-3.274-1.213-.653-5.432-2.819-4.16-4.802.806-1.256 3.324-.28 4.48-.16zm-28.786-3.261c1.566-.028 3.288.446 4.873.525 2.126.106 4.219.51 6.341.608 1.397.065 2.768.352 4.149.54-1.374 3.186-4.057 5.973-7.428 7.127-2.66.91-6.382 1.065-8.199-1.454-1.046-1.45-2.753-7.291.264-7.346zm-81.557-13.16c1.708 1.135 3.077 2.762 4.504 4.213 3.573 3.634 7.271 7.526 8.818 12.508.213.682-1.399 1.285-1.835 1.312-.921.055-1.109-.41-1.471-1.189-.895-1.928-1.238-4.083-2.67-5.728-1.746-2.005-3.848-3.96-5.874-5.683-1.377-1.17-4.751-2.819-5.147-4.754-.468-2.288 2.641-1.366 3.675-.679zm44.055 13.239c.966.281 1.043 1.175 1.263 2.139.888 3.87-8.09-.353-9.341-.986.416-1.242 4.508-1.016 5.456-1.064.738-.038 1.909-.297 2.622-.089zm-53.037 2.01c1.331.052.717-5.385-.795-4.839-1.297.47-.058 4.806.795 4.839zm187.044-6.251c2.037 1.76 5.236 1.995 7.769 2.56 3.732.832 7.432 1.893 11.134 2.85 2.338.604 1.022-.837-.149-1.379-2.012-.931-4.291-1.427-6.442-1.94-2.329-.554-4.709-.924-7.024-1.53-1.604-.418-3.671-1.49-5.288-.561zm-63.381-37.813c-2.264.416-4.524 1.14-6.508 2.327-1.644.983-1.578 2.51.505 1.624 9.716-4.138 21.772-1.631 31.26 2.033 1.047.404.969-.478.653-1.157-.436-.937-1.367-1.48-2.261-1.914-2.685-1.307-5.78-2.046-8.7-2.588-4.866-.905-10.06-1.223-14.949-.325zm-1.42-5.943c-1.234.335-2.652 1.166-3.407 2.22-.884 1.234-.181 1.864 1.045 1.139 1.368-.81 2.62-1.617 4.191-2.045.829-.226.795-.746.2-1.203-.558-.427-1.423-.275-2.029-.111z" fill="#000"/><path fill-rule="evenodd" clip-rule="evenodd" d="M81.324 67.4l39.121 209.751L281.094 142.35 81.324 67.4z" fill="#85A090"/><path fill-rule="evenodd" clip-rule="evenodd" d="M93.807 107.228L30.666 88.243l-6.457 15.006 62.533 27.029 7.065-23.05zm-24.233-36.48L6.762 50.688 1.01 63.392l62.534 27.032 6.03-19.677zM382 254.065l-63.141-18.984-6.457 15.005 62.533 27.03L382 254.065zm-24.232-36.479l-62.813-20.061-5.752 12.706 62.534 27.032 6.031-19.677z" fill="#389DFF"/></svg>