<svg width="771" height="836" viewBox="0 0 771 836" fill="none" xmlns="http://www.w3.org/2000/svg" preserveAspectRatio="none"><path fill="#FFCDCB" d="M51 0h720v918H51z"/><path fill-rule="evenodd" clip-rule="evenodd" d="M124.62 430.389C46.925 509.904-13.276 623.073 3.19 727.349 19.654 831.8 112.785 927.183 222.21 975.834c109.425 48.646 234.972 50.746 329.304-.175 94.331-51.091 157.62-155.193 192.78-276.21 35.331-121.016 42.363-258.598-20.925-334.625-63.288-76.028-196.896-90.326-311.295-74.807-114.399 15.694-209.588 61.031-287.455 140.372z" fill="#fff" fill-opacity=".9"/><path fill-rule="evenodd" clip-rule="evenodd" d="M208.619 696.793c3.291 3.806 8.151 6.63 11.881 10.109 3.915 3.655 8.166 6.849 12.066 10.46 17.207-21.026 40.777-33.919 61.196-51.366 9.681-8.273 16.813-19.493 22.032-31.008 2.676-5.903 4.653-11.979 6.199-18.267.697-2.833 1.378-5.656 1.834-8.527.551-3.477.694-3.774 3.04-6.488 1.01-1.167 2.967-4.58 4.945-4.204 1.665.317 4.71 5.384 5.762 6.636 5.06 6.019 9.965 12.222 15.293 18.009 8.15 8.854 15.57 17.567 23.137 26.952 15.479 19.2 32.177 37.274 49.027 55.341 1.249 1.34 4.163 5.269 5.958 5.797 2.184.642 5.731-2.036 7.93-3.532 5.307-3.612 9.489-8.083 14.026-12.56 8.852-8.736 14.847-20.999 18.879-32.667 2.414-6.985 3.984-14.225 6.475-21.185 1.038-2.901 3.392-6.467 2.197-8.993-.356-.753-2.62-2.755-3.419-2.908-.944-.181-2.519 1.114-2.847 1.024-3.133-.858-1.395-4.137-3.258-5.901-1.057-1.001-6.431-.855-8.035-1.405-5.867-2.012-11.13-5.85-16.676-8.141-23.217-9.59-46.717-18.919-66.76-34.58-5.198-4.061-8.652-7.113-14.854-9.738-6.268-2.652-12.569-5.018-18.964-7.333-5.643-2.042-11.316-3.956-17.145-5.42-6.303-1.583-15.245-3.59-21.542-1.551-12.368 4.003-16.362 14.192-21.287 24.939-6.663 14.542-14.72 28.302-23.454 41.687-16.803 25.751-37.239 48.859-53.636 74.82z" fill="#85A090"/><path fill-rule="evenodd" clip-rule="evenodd" d="M581.081 469.131c.681-.346 5.994 1.817 6.886 2.147 3.562 1.322 6.918 3.518 10.274 5.304l-7.717 9.391c-2.521-6.183-5.761-11.285-9.443-16.842zm-1.754 38.469c.875.099-6.513 17.851-7.376 19.844-3.14 7.249-6.436 14.428-9.618 21.66-3.082 7.007-6.992 13.454-10.931 20.001-3.369 5.598-6.835 14.287-11.917 18.433 3.209-14.233 2.786-30.6 11.991-42.551 9.541-12.39 18.974-24.489 27.851-37.387zM208.62 697.425c14.258-22.574 32.106-42.543 46.973-64.714 8.325-12.414 16.428-24.987 23.435-38.201 5.097-9.612 8.265-23.326 16.138-30.675 3.469-3.237 7.176-6.406 11.831-7.857 6.371-1.984 15.142-.017 21.542 1.552 11.926 2.923 23.576 7.464 34.873 12.232 11.458 4.836 21.234 13.523 31.586 20.502 11.106 7.488 23.127 12.942 35.57 17.717 10.833 4.157 20.471 10.126 31.247 14.311 2.148.834 6.53.712 8.331 1.799 1.941 1.171 1.177 4.629 3.533 5.904 1.063.576 1.418-1.511 2.234-1.476.998.041 1.908 1.213 2.87 1.954 3.916 3.021 1.517 5.036-.034 9.193-5.054 13.544-7.771 27.325-14.868 40.112-5.835 10.511-14.186 19.929-24.019 26.887-1.496 1.059-6.371 5.162-8.126 4.889-1.581-.244-4.796-4.445-5.888-5.586-4.951-5.177-9.477-10.746-14.425-15.931-7.647-8.013-15.007-16.241-22.428-24.363-8.614-9.429-16.238-20.113-23.997-30.188-3.569-4.635-8.163-8.41-12.13-12.707-5.334-5.779-10.232-11.991-15.293-18.01-1.53-1.821-4.095-6.48-6.474-6.425-1.667.038-4.607 3.963-5.479 5.193-3.241 4.571-3.226 12.827-4.838 18.533-3.933 13.915-11.025 27.506-20.752 38.244-9.672 10.678-22.062 18.271-33.502 26.854-12.393 9.299-24.134 18.815-33.962 30.826-3.901-3.611-8.151-6.805-12.067-10.46-3.73-3.48-8.59-6.304-11.881-10.109zm183.526 63.862c-2.771.028-7.465 1.733-9.945.707 7.355-8.137 14.11-15.119 23.415-21.082 9.657-6.188 19.282-12.32 28.661-18.921 18.902-13.301 32.805-29.076 40.701-51.227 2.033-5.705 3.395-11.687 4.885-17.551.801-3.158 2.397-17.933 5.107-19.209 1.605-.756 13.686 7.734 15.6 8.792 4.476 2.474 8.968 4.393 13.595 6.33 9.945 4.163 20.198 7.339 30.745 9.99 12.644 3.178 21.257-2.081 29.09-12.017 8.887-11.273 16.272-23.993 24.397-35.831a110.61 110.61 0 009.485-16.699c1.786-3.886 8.869-14.37 6.421-18.511-6.982 5.316-9.495 15.884-14.251 23.001-5.929 8.87-12.61 17.233-18.569 26.095-5.011 7.451-10.123 16.481-17.526 21.838-6.512 4.711-12.698 3.263-19.707 1.145-8.494-2.566-17.298-3.831-25.622-7.013-9.008-3.444-17.532-8.33-26.321-12.313-4.097-1.858-9.003-2.914-12.864-5.23-3.328-1.994-2.832-3.048-3.076-7.296-.285-4.956-.614-9.916-.833-14.876-.147-3.333 1.655-7.852.432-10.34 9.978 1.729 19.73 4.046 29.639 6.095 5.424 1.122 10.655 2.509 16.136 3.391 2.089.336 4.944.326 6.815 1.236 1.492-.428 2.253-.156 2.282.817.071.528.184 1.049.34 1.561 3.059 1.392 4.839-1.593 7.492-4.456 3.275-3.534 5.727-7.513 8.129-11.665 5.372-9.282 11.563-18.013 16.534-27.557 5.066-9.73 9.181-20.147 13.477-30.242 3.94-9.261 6.464-19.276 10.818-28.318 1.943-4.036 4.406-7.373 7.282-10.783 2.373-2.813 6.025-8.883 9.569-10.175.937-.342 3.391.232 4.456.156 2.121-.151 4.012-.93 6.184-.759 4.701.368 9.826 3.34 13.583 5.953-2.428 2.164-8.501 4.794-4.138 8.691 4.233 3.784 6.571-3.003 8.187-5.977 7.607 6.246 6.507 14.857 7.386 23.682.459 4.607 1.667 9.144 2.446 13.682.561 3.266.167 6.645.327 9.979.409 8.473 1.261 16.584 1.221 24.939-.045 8.93-.654 17.554-1.369 26.42-1.203 14.926-3.959 29.857-6.323 44.664-1.33 8.323-3.15 16.41-4.917 24.599-2.005 9.294-5.715 18.096-7.795 27.366-2.12-2.694-3.714-2.707-7.142-2.35-2.637.274-4.409-.353-4.254 3.307.1 2.373 2.194 4.186 4.511 4.6 3.022.54 4.048-.967 5.606-3.256.364 4.334-2.551 8.864-3.703 13.096-1.091 4.011-1.814 7.942-3.647 11.781-1.789 3.744-3.321 7.438-5.131 11.147-.833 1.706-1.613 3.439-2.456 5.141-.426.862-.928 2.049-1.565 2.776-1.492 1.702-1.254.877-3.001 1.847-3.805 2.114-2.376 1.587-2.465 5.951-.087 4.305-2.295 7.467-5.835 9.886-7.512 5.135-14.921 6.563-23.461 9.157-7.957 2.418-16.338 4.492-24.763 4.444-10.319-.057-20.501-1.41-30.821-1.547-11.384-.151-22.878-.089-34.239.304-4.68.162-9.027.371-13.545 1.565-5.247 1.389-10.323.838-15.731.628-11.538-.449-23.473-1.342-34.86-1.422-8.199-.058-16.849-.63-25.079-.136zm-299.177 4.472c-2.051 1.083-6.65.639-8.711.338-3.633-.53-4.022-1.969-6.326-5.208-3.967-5.577-7.188-10.917-9.522-17.377-4.466-12.364-6.29-25.013-8.251-37.946-2.18-14.371 1.8-29.267 3.224-43.54.327-3.275.775-6.52 1.292-9.77.31-1.943.39-8.553 1.67-10.235 2.457-3.232 13.882-.625 18.374-.332 12.539.819 25.16 1.01 37.693 1.152 6.682.076 13.402.356 20.018.408a85.962 85.962 0 009.059-.423c1.02-.098 2.016-.333 3.043-.39 3.518-.194 3.254-.704 4.163 2.41 1.593 5.457.367 12.399.786 18.063.559 7.567.862 15.242.723 22.826-.128 7.009.111 14.001-.151 21.025-.109 2.909-.427 5.28-1.194 8.058-.868 3.141-1.822 10.478-3.984 12.652-.245.247-2.082-.33-2.57.287-.751.949-.613 2.957-1.129 3.571-1.669 1.986-5.119 2.143-7.622 3.036-6.868 2.448-13.168 5.107-19.641 8.408-5.783 2.95-15.108 5.461-18.585 11.28-1.594 2.668-1.809 6.186-3.275 8.938-1.669 3.136 1.671 1.497-2.42 2.769-1.841.572-4.776 0-6.664 0zm609.707-35.463c.52 7.24 4.6 14.137 6.02 21.256.664 3.334 1.791 6.611 2.573 9.925.749 3.179 3.455 6.944 3.181 10.09-9.989-3.558-20.106-4.453-30.545-5.412-9.895-.91-20.347-1.272-30.159-1.276-9.998-.005-20.688-.982-30.982-1.133-10.766-.158-21.694-.437-32.304-1.553 5.548-4.109 12.489-7.967 16.586-13.683 4.454-6.213 6.766-13.998 10.685-20.555 7.864-13.158 12.863-29.485 16.985-44.267 8.322-29.842 17.622-59.133 19.863-90.087 4.266 2.184 7.652 10.658 9.787 14.877 2.726 5.388 4.154 11.228 5.926 16.954 3.649 11.794 6.174 24.023 10.643 35.705 8.539 22.331 14.028 46.392 21.741 69.159zM160.474 556.37c-1.847 13.347-5.721 26.866-5.87 40.373-.032 2.972.471 6.272-.148 9.202-.662 3.129-2.814 5.894-4.056 8.867-1.972 4.72-6.965 14.393-2.149 18.392.097-3.795 3.571-8.614 5.32-11.933 2.637-5 6.102-9.571 8.96-14.447 5.984-10.206 12.689-20.193 20.401-29.191 7.511-8.764 16.167-16.538 24.132-24.883 2.393-2.508 21.59-26.641 22.353-26.304-5.955 22.959-16.077 42.935-29.93 62.158-6.791 9.423-14.943 15.624-23.211 23.607-6.885 6.649-19.862 13.758-17.481 24.651-10.763-1.034-21.455-2.687-32.316-2.687 1.786-13.744 3.154-27.27 6.342-40.787 3.62-15.35 6.072-31.158 9.135-46.643 3.126-15.809 8.429-31.114 11.727-46.893a827.114 827.114 0 008.188-45.47c1.914 8.465 1.208 17.763 1.887 26.401.693 8.824.626 17.486.395 26.363-.427 16.487-2.185 32.775-3.679 49.224zm-46.639-78.606c-.06-7.058-1.428-14.019-1.85-21.06-.129-2.16-2.281-16.897-.274-17.666 1.65 3.597 2.035 8.201 3.534 11.975 1.497 3.771 3.5 7.363 4.937 11.16 3.113 8.226 4.187 17.534 4.522 26.279.759 19.781 1.151 39.517-.179 59.298-.57 8.479-1.007 16.972-.851 25.467.171 9.348 1.603 17.461-.136 26.733-1.721 9.18-2.802 18.323-3.376 27.638-.402 6.538-.564 6.075-6.802 5.616-4.504-.332-9.053.022-13.563-.184 2.109-25.481 2.453-51.014 5.822-76.397 1.719-12.95 1.765-26.086 3.9-38.988 1.061-6.409 2.841-12.689 3.864-19.105 1.098-6.889.557-13.824.452-20.766zm456.218-16.036c-12.011 1.04-24.786 4.631-37.097 2.26 2.03-.822 7.34-1.955 4.95-5.199-2.43-3.298-6.525.885-8.949.453-1.494-.266-4.796-6.512-5.717-7.805-2.091-2.939-2.343-3.451-6.102-4.204-3.642-.729-4.468.06-4.929-3.56-.53-4.163.911-8.843.768-13.099-.307-9.165-3.263-17.201-6.016-25.823 11.693 2.543 23.126 5.559 35.082 7.199 5.111.7 13.062 2.317 17.705-1.157 1.208-.903 1.014-2.123 2.003-3.169 1.656-1.757 4.73-3.574 7.08-4.074 14.461-3.078 15.872 17.534 8.625 25.247-1.815 1.932-4.341 2.887-6.199 4.658-2.482 2.362-2.685 4.85-3.047 8.455-.679 6.761.243 13.548 3.128 19.732l-1.285.086zM394.56 559.037c-4.27.81-8.725.625-13.005 1.317-1.521.245-6.08 1.102-7.417.213-2.042-1.357-2.768-6.335-3.733-8.653-1.698-4.078-4.1-7.635-5.72-11.786-6.616-16.959-12.785-33.985-20.787-50.365 3.067-.797 5.422-.828 8.512-1.24 3.22-.429 6.139-2.332 9.211-3.151 2.92-.777 5.979-.579 8.872-1.483 1.593-.497 2.961-1.604 4.532-1.991 2.504-.616 5.427-.975 6.916.668 1.527 1.686 2.063 6.308 2.893 8.486 2.212 5.801 4.782 11.4 6.635 17.334 1.673 5.353 3.261 10.649 4.733 16.05 1.555 5.702 4.62 10.402 6.487 15.849 1.42 4.146 2.76 8.384 2.972 12.805.206 4.314.834 4.588-3.48 5.278-2.178.347-5.572 1.641-7.621.669zM113.67 760.923c-1.112.518-2.161.449-3.144-.207 9.64-4.071 19.017-9.717 29.074-12.51 9.434-2.619 18.603-5.749 27.692-8.975 7.385-2.621 14.024-4.662 20.701-9.275 4.053-2.8 7.653-5.949 10.438-10.041 3.1-4.556 3.79-11.04 7.148-15.143 4.532 4.976 9.857 8.745 15.219 12.699 1.855 1.369 6.305 4.351 6.939 6.468.801 2.672-1.344 5.227-2.405 7.931-2.717 6.924-4.045 13.844-5.519 21.043-.591 2.885-1.866 7.221-4.237 8.43-2.158 1.099-8.409.3-11.094.096-14.012-1.061-27.776-2.148-41.873-1.181-15.951 1.093-33.029 1.849-48.939.665zM85.683 632.621c-2.547.009-5.034-.31-7.572-.31 1.465-6.837-1.959-15.684-3.173-22.509-1.358-7.634-2.392-15.528-3.298-23.224-1.909-16.209-2.774-32.221-2.798-48.549-.024-15.799-2.9-30.237-6.93-45.425-4.327-16.312-11.412-30.981-17.27-46.712 6.425 3.397 9.983 11.344 13.36 17.42 4.268 7.682 7.111 16.189 8.854 24.813 3.363 16.637 7.051 33.325 10.931 49.934 4.04 17.295 6.416 34.748 11.044 51.901 2.258 8.365 5.327 18.656 5.498 27.283.07 3.568 1.146 11.041-.472 14.14-1.513 2.9-4.857 1.534-8.174 1.238zm384.403-21.458c.134 1.776.261 3.466.577 5.22-3.528-.034-7.995-3.693-11.021-5.336-3.685-2.001-7.375-4.209-10.98-6.22-6.958-3.884-14.858-6.444-22.289-9.635-8.535-3.666-16.38-8.095-24.543-12.508-2.851-1.542-23.342-10.423-22.998-12.849l13.496-.448c3.857-.129 9.831.743 13.524-.449 2.023-.654 4.294-3.059 5.058-4.942.756-1.863-.943-10.434.044-10.981 5.035 5.14 8.201 11.971 12.703 17.516 4.975 6.128 11.403 9.707 18.488 12.963 7.823 3.597 15.921 6.382 23.916 9.465 3.372 1.299 3.305 2.043 3.599 5.74.329 4.131.293 8.322.426 12.464zM63.535 766.601c-8.481.91-17.172.391-25.72 1.101-3.11.258-7.421.642-4.292 4.815 1.97 2.629 8.282 1.786 11.145 1.968 7.686.489 15.825.226 23.529.112 1.622-.023 3.414-.506 5.054-.397 1.892.125 4.158 1.486 5.883 1.475 1.063-.006 1.444-1.127 2.36-1.23 1.998-.225 3.995-.388 6.008-.388 30.451.007 60.483-.605 90.858-.638 14.524-.015 29.282-.266 43.8-.948 3.049-.143 20.411.48 19.931-5.008-.247-2.827-5.914-3.225-7.982-3.526-1.533-.222-3.122-.187-4.658-.269-4.079-.219-5.865.763-5.005-3.7 3.264-16.925 9.112-30.912 21.607-43.082 10.217-9.951 22.52-18.977 34.092-27.287 14.052-10.09 25.451-20.701 33.793-36.141 4.872-9.016 8.95-18.234 11.453-28.203.901-3.587.922-7.666 2.026-11.123.849-2.662 2.784-4.525 3.924-7.283 13.98 23.347 32.509 42.879 49.498 63.929 8.118 10.057 17.378 19.608 27.078 28.357 2.878 2.597 5.564 5.307 8.25 8.101 2.247 2.339 5.815 4.417 7.712 7.012 1.82 2.488 1.372 2.37-1.398 4.346-3.662 2.612-7.698 4.782-11.418 7.329-5.946 4.072-12.436 7.512-17.752 12.412-5.75 5.299-10.773 11.438-15.799 17.413-3.35 3.983-7.745 9.093-8.587 14.129-.279 1.666-1.339 5.787.059 7.007 1.196 1.042 1.075.647 2.559.011 1.944-.834 2.516-2.746 4.891-3.657 6.076-2.332 13.429-1.531 19.751-1.559 6.325-.029 12.702.682 19.024.655 14.436-.059 28.565 1.11 42.997 1.737 15.328.666 30.844-.932 46.121-.706 11.319.168 22.939-.678 34.571-.049 5.983.322 11.859-.426 17.692-.51 7.638-.11 15.482.929 23.185 1.077 12.644.244 25.133.243 37.854.547 27.362.654 54.577 1.331 81.956 1.764 3.652.058 7.65-.066 11.259.345 3.83.437 1.853 1.251 4.481 2.63 7.358 3.859 5.659-10.447 5.482-13.26-.945-15.078-4.774-29.865-9.374-44.179-4.365-13.576-7.909-27.786-11.605-41.655-4.046-15.18-9.318-29.739-14.105-44.77-4.906-15.403-8.899-31.405-17.809-45.059-2.029-3.109-4.126-6.455-7.391-8.416-3.659-2.198-3.816-.914-3.813-4.936.002-3.788-.231-8.849.663-12.464.808-3.266.683-1.33 2.503-3.676 1.48-1.908 3.029-3.212 4.092-5.529 6.526 6.616 21.464 3.125 27.769-1.639 7.717-5.831 13.595-15.668 15.749-25.037 1.73-7.523-.393-21.864-8.721-25.482-4.06-1.764-18.973-3.097-19.57-8.845-.307-2.967 4.941-7.14 6.152-9.691 2.245-4.727 4.4-11.014 5.024-16.195 1.218-10.114-3.374-21.422-10.689-28.254-13.419-12.532-37.03-18.963-54.291-11.012 3.648-13.932 5.85-25.95 4.013-40.442-1.583-12.485-8.95-19.47-19.088-25.688-17.3-10.614-40.825-14.803-60.606-11.717-4.495.702-8.809 2.206-12.971 3.403-6.046 1.739-13.284 1.16-18.993 3.985-4.14 2.048-7.283 6.128-10.919 8.852-4.244 3.18-7.771 7.926-10.72 12.316-6.306 9.386-3.842 26.806 1.437 36.228 1.131 2.021 2.529 3.722 4.402 5.102 1.95 1.435 4.922 1.881 5.927 3.743 2.574 4.768.091 15.09-.252 20.244-.4 5.984 2.626 10.479 9.413 10.956 3.926.277 4.051-2 5.931 2.686 1.218 3.037 2.325 6.346 4.083 9.13 3.625 5.739 10.265 5.179 16.313 5.023 7.001-.18 13.897-1.286 20.901-1.984-1.85 5.926-6.914 10.526-10.076 15.806-4.276 7.141-6.85 13.06-7.545 21.38-.533 6.392.618 11.44 4.993 16.197 1.811 1.969 3.416 2.066 2.966 4.338-.274 1.385-2.67 3.672-3.518 4.777-2.244 2.926-4.849 5.612-6.824 8.736-7.598 12.022-9.842 30.349-9.861 44.344-.001.642-.343 2.006-.06 2.67.21.49 1.804 2.043 1.827 2.176.312 1.8-1.442 4.884-4.196 5.189-2.892.32-8.188-2.093-10.879-2.885-4.305-1.269-8.693-2.206-12.988-3.51-6.938-2.104-13.843-3.783-20.896-5.432-3.187-.745-6.391-1.365-9.589-2.062-3.642-.793-5.334-2.325-7.213 1.38-1.613 3.179-.61 3.755-4.517 2.153-3.878-1.591-7.668-3.564-11.455-5.361-6.679-3.167-14.633-5.991-20.394-10.668-9.61-7.801-13.169-20.226-22.367-28.504-2.561-2.305-4.089-2.346-5.708-5.539-1.734-3.417-2.628-7.8-3.539-11.476-1.596-6.437-2.732-12.897-4.18-19.329-1.803-8.012-5.701-15.268-8.545-22.91-1.108-2.978-1.682-6.762-3.47-9.438-.473-.71-1.378-1.11-1.748-1.697-1.271-2.016-1.258-2.57-1.588-4.995-1.541-11.332-8.306-5.37-15.699-2.772-3.115 1.095-17.906 8.196-12.258 12.918-6.733 1.954-17.517.892-17.426 10.539.046 4.943 3.003 10.231 4.59 14.858 1.41 4.108 2.773 8.232 4.205 12.334 3.137 8.984 6.942 17.701 10.003 26.713 1.396 4.108 2.547 8.311 4.49 12.188 1.713 3.419 5.861 7.189 6.544 10.928-17.941-7.653-34.539-18.718-54.622-18.013-8.793.309-16.774 4.004-21.63 11.735-6.089 9.689-10.095 20.538-16.046 30.317-21.649 35.573-47.47 67.89-71.235 101.991-1.826 2.62-4.173 5.098-4.807 8.336-.413 2.113.389 4.226-.107 6.256-1.028 4.218-6.222 9.485-9.745 11.908-6.751 4.647-17.727 11.201-26.153 10.621 5.288-12.706 5.218-26.627 4.972-40.18-.234-12.873-1.626-25.644-3.278-38.385-.373-2.883-.699-5.555-1.528-8.349-.95-3.205-2.256-2.901.592-5.783 4.384-4.436 9.598-8.087 14.017-12.579 9.558-9.714 19.354-17.328 26.877-28.928 7.154-11.034 14.701-22.386 19.997-34.469 5.452-12.438 7.631-25.721 10.337-38.894 1.099-5.345 5.103-11.312 4.299-16.894-1.017-7.055-4.289-1.918-5.621 1.879-4.065 11.588-13.581 21.96-21.464 31.28-8.517 10.068-18.933 18.492-27.822 28.268-9.681 10.646-16.311 22.882-24.92 34.247 0-14.104 4.817-28.466 6.787-42.419 1.733-12.281 2.278-24.6 3.374-36.934 2.488-28.018.338-56.861-3.155-84.678-1.66-13.211-.718-26.111-.768-39.367-.016-4.219 1.73-13.943-.496-17.686-4.263-7.171-6.75 8.509-6.966 10.847-1.289 13.926 1.023 27.697-.158 41.564-1.234 14.481-3.913 28.555-6.192 42.868-2.469 15.498-6.489 30.647-10.338 45.847-4.041 15.96-7.44 32.253-11.933 48.085-1.211-4.977.488-11.09.824-16.159.48-7.253 1.416-14.507 1.497-21.78.13-11.59.22-23.395-.436-34.931-.646-11.371-.451-23.286-3.939-34.241-1.655-5.199-4.083-10.272-6.459-15.17-2.93-6.039-3.966-11.895-5.589-18.318-1.39-5.501-3.425-10.857-4.351-16.469-.576-3.489-2.182-13.791-6.178-5.986-2.32 4.53-1.318 11.246-1.382 16.112-.083 6.239.872 12.306 1.018 18.519.285 12.189.49 24.364 1.399 36.534.954 12.767.121 24.209-2.308 36.789-2.659 13.771-3.437 27.571-4.815 41.51-.71 7.197-1.909 14.354-2.487 21.562-.306 3.816 1.263 14.761-1.472 17.479-.264-6.611-2.159-13.227-3.595-19.669-1.701-7.631-2.389-15.654-3.643-23.394-2.03-12.541-5.971-24.517-8.578-36.917-5.374-25.562-9.84-58.415-32.36-75.146-2.947-2.189-6.185-3.805-9.371-5.607-1.803-1.02-4.483-3.658-6.546-4.119-2.253-.503-3.192-.112-4.105 2.5-1.273 3.642 1.055 5.343 3.229 7.989 7.522 9.153 10.735 20.886 15.38 31.621 10.635 24.581 15.34 50.508 15.395 77.079.028 13.91.988 27.325 2.471 41.151 1.597 14.878 3.699 30.614 8.22 44.928-4.534 1.016-9.454-.499-10.685 4.771-.302 1.294.244 2.825-.09 4.51-.325 1.638-1.107 3.267-1.57 4.877-.956 3.332-1.461 6.619-1.926 10.04-1.798 13.221-4.884 25.797-5.213 39.202-.302 12.392 2.124 24.946 4.36 37.099 2.252 12.241 8.711 22.676 13.797 33.746-2.19 0-4.377.022-6.566.045z" fill="#000"/><path fill-rule="evenodd" clip-rule="evenodd" d="M351.354 738.463c2.412.682 14.055 1.969 14.053 5.621-.002 2.191-11.63 2.148-13.687 2.386-.123-2.668-.245-5.338-.366-8.007zm-25.701 25.206c-6.709 1.276-15.817-.518-20.106-6.432-2.005-2.763-2.955-6.966-3.608-10.264-.624-3.143-2.546-10.985-1.238-13.932 1.607-3.617 17.023.164 21.512.579 7.833.723 15.932.808 23.769.297 0 8.091.414 15.977-4.346 22.941-3.434 5.024-9.882 6.21-15.983 6.811zm1.349 9.994c7.29-2.668 14.944-.934 19.691-8.759 1.205-1.985 2.219-4.12 2.948-6.325a19.11 19.11 0 00.83-2.969c-.371-2.181.428-2.796 2.397-1.845 3.864-.751 8.101 1.901 12.171 1.119 9.872-1.896 8.079-16.034 1.454-20.928-1.309-.968-2.616-1.237-4.114-1.715-3.302-1.051-5.09.124-8.11-.175-2.441-.241-3.112-2.801-5.735-3.928-1.718-.737-4.102-.68-5.907-.754-9.45-.389-18.929-.385-28.438-1.001-4.436-.287-9.224.416-13.569-.342-2.035-.355-1.743-1.709-3.669-.522-1.995 1.23-1.133 5.778-1.033 7.591.582 10.486 1.207 21.731 6.825 30.898 5.14 8.388 15.254 9.246 24.259 9.655zm385.014 2.89c-2.346-.026-4.691-.05-7.028-.074l7.028.074zM60.722 552.986l.014-6.754-.014 6.754zm596.645 9.25zM462.398 774.064zm113.305-.447zm-407.982-91.132c.081 1.481.164 2.962.246 4.44l-.246-4.44zM63.533 766.601l4.326-.045c-1.448-.604-2.89-.577-4.326.045zm128.029 6.559zM61.283 571.262l-.076-3.354.076 3.354zm96.789-141.618l.256-3.46-.256 3.46zm-97.3 127.752l-.042-3.468.042 3.468zm325.48 214.328c-.92.013-1.841.027-2.753.038.922-.014 1.838-.026 2.753-.038zm-237.037 1.887l-2.69.055 2.69-.055zm-97.168-81.384zm16.148 82.371c-.732-.004-1.464-.009-2.188-.01.735.005 1.462.008 2.188.01zm99.766-.941l-2.168-.053c.728.019 1.449.036 2.168.053zm162.994-.554zm184.065-.002l-2.269.017c.762-.004 1.515-.011 2.269-.017zm44.775.123l-2.313-.129 2.313.129zM345.423 478.45l3.454-.298c-1.153.08-2.372-.601-3.454.298zM51.938 767.039l3.406-.345c-1.136.115-2.27.231-3.406.345zm79.185-281.601l.229 2.982-.229-2.982zM60.488 526.9l-.231-2.825.231 2.825zm71.086-26.036l.244 2.975-.244-2.975zm-70.607 64.093l.021-2.876c-.62.957-.594 1.914-.02 2.876zm106.737 137.786c.008.962.017 1.924.027 2.881.635-.969.508-1.927-.027-2.881zM95.347 591.481c.11-.973.222-1.947.333-2.918l-.333 2.918zm599.15-89.338c.753.994 1.778.313 2.673.434l-2.673-.434zm-372.193 224.93l2.852.004-2.852-.004zM170.381 506.229l-.266 2.423.266-2.423zm469.946-80.314l2.868.057c-.945-.557-1.899-.718-2.868-.057zm-508.729 88.938l.185 2.539-.185-2.539zm26.216-104.094l-.221-2.315.221 2.315zm7.512-2.421l.225 2.513-.225-2.513zm415.256-56.018l2.918.354-2.918-.354zm70.26 74.263l2.994.306-2.994-.306zm-547.026 2.458l-.182-2.337.182 2.337zm579.791 128.771l-1.715.025 1.715-.025zm-518.309 96.3l.173 2.589c-.059-.864-.116-1.726-.173-2.589zm-58.647-168.144zM556.095 350.35l2.659.001c-.887-.609-1.773-.594-2.659-.001zM319.347 546.34l2.913.075c-.954-.675-1.926-.692-2.913-.075zm-84.88 225.35zm-21.682 1.011l-1.717-.06 1.717.06zm339.33.401l-1.791.045 1.791-.045zM52.544 682.593c.086-.823.17-1.647.257-2.467l-.257 2.467zm78.319-138.782l-.203 2.348.203-2.348zm-30.138-13.47l.279-2.493-.279 2.493zM547.25 773.597l-1.809-.027c.608.011 1.209.019 1.809.027zm-220.248.066l-1.758-.079 1.758.079zM105.643 469.59l.08-2.528-.08 2.528zm498.955 304.558c-.591-.005-1.18-.01-1.762-.013l1.762.013zm-498.707-.007c-.607.005-1.214.012-1.813.019l1.813-.019zm-13.1-.074c-.586.042-1.17.084-1.75.124l1.75-.124zm-5.289-.009c-.596.017-1.193.035-1.782.048.599-.018 1.19-.033 1.782-.048zM60.34 533.682l.117-2.486c-.04.831-.077 1.658-.117 2.486zm400.275 229.509l-5.442-.284 5.442.284zm109.438-301.462l-4.723.409 4.723-.409zm-444.59 68.446l-.148 4.502.148-4.502zM92.969 765.759l-4.931.298c1.654.076 3.333.547 4.93-.298zm9.726-177.692l-.036-4.296.036 4.296zm4.207 45.024l-4.326.057 4.326-.057zm363.08-25.194c.036 1.093.072 2.185.106 3.272-.037-1.094-.072-2.182-.106-3.272zM82.899 561.655c.059 1.087.118 2.173.175 3.255-.06-1.088-.118-2.171-.175-3.255zm30.769 199.269a858.964 858.964 0 00-3.146-.21c.79.631 1.583.684 3.146.21zm7.023-142.063l-.215 3.511.215-3.511zM513.01 433.96l-.034-3.39.034 3.39zM119.422 633.327l-3.911-.085c1.291.624 2.594.646 3.911.085zm-36.081 8.35c.923.008 1.845.015 2.76.025l-2.76-.025zm337.714 119.697l-3.83.05c1.286.644 2.564.735 3.83-.05zm240.478 3.761l-3.887-.348 3.887.348zM125.016 539.823l-.191 3.524.191-3.524zm413.543-75.334c-1.093-.539-2.194-.629-3.306-.058l3.306.058zM160.744 553.4l-.271 2.973.271-2.973zm-92.267-23.143c.56-.97.541-1.935-.028-2.892l.028 2.892zm17.205 102.364c-1.125-.344-2.249-.832-3.368.012l3.368-.012zm363.312 130.125zm155.092.002c-1.036-.455-2.07-.694-3.091.035l3.091-.035zm-211.941-1.461c-1.109-.483-2.214-.749-3.308.035l3.308-.035zm246.642-143.319l-.249 2.998.249-2.998zm-257.232-57.614c-1.09-.397-2.177-.603-3.247.059 1.083-.021 2.165-.04 3.247-.059zm-256.524 29.774l-.18 2.931.18-2.931zm514.46-88.218l.271 2.359-.271-2.359zm63.184 228.386l.167 2.295c-.058-.767-.112-1.532-.167-2.295zM102.213 595.303zm79.385 164.504l-2.914.02 2.914-.02zm288.75-145.164l-.544 1.732c1.212.293 1.393-.285.544-1.732zm-72.83-55.594l-2.96-.012c.985.468 1.971.789 2.96.012zm240.716 63.655l-.099 2.621c.035-.875.067-1.748.099-2.621zm-10.437 141l-2.856-.002 2.856.002zM158.348 631.922l-.107 2.411.107-2.411zm489.666 132.765c-.937-.622-1.875-.568-2.815-.011l2.815.011zm-24.655-274.023c-.05.822-.101 1.644-.153 2.461.05-.823.102-1.642.153-2.461zm29.528 274.107l-2.92.013c.976.664 1.949.696 2.92-.013zM113.834 477.763l-.023-2.501.023 2.501zm446.922-14.599l-2.793.364 2.793-.364zm82.174 72.05c-.013.779-.025 1.56-.04 2.336l.04-2.336zm-535.364-.112l.153-2.378-.153 2.378zM324.758 763.84l-3.447.312 3.447-.312z" fill="#000"/><path fill-rule="evenodd" clip-rule="evenodd" d="M328.596 734.1c.621.01 1.241.019 1.857.032-.623-.008-1.24-.02-1.857-.032zm-.053 29.286l-2.891.285 2.891-.285zm173.437-64.89c-1.254 7.085 9.758 14.013 10.631 3.942.319-3.682-2.144-6.271-4.902-8.523-3.914-3.194-6.101-.135-5.729 4.581zm121.373-86.43c-2.594 1.062-22.413 7.519-12.118 10.767 2.725.859 6.844.987 9.206-.527 2.842-1.823 5.709-7.202 2.912-10.24zm-4.877-95.935c-6.727-.781-12.925 10.266-4.632 9.908 6.037-.262 14.156-9.908 4.632-9.908zm-24.063 27.086c-5.617 4.9 4.795 15.866 8.928 11.622 2.111-2.168.164-6.839-1.578-8.653-1.788-1.861-4.969-2.211-7.35-2.969zM577.69 670.249c3.316.526 17.9 5.291 14.858-3.363-1.16-3.301-4.395-2.321-7.352-2.17-4.767.243-7.506.015-7.506 5.533zm9.607 22.29c-4.965 2.656 2.292 17.516 6.407 14.354 5.709-4.387-2.1-13.019-6.407-14.354zm-21.652-11.945c-2.414-.986-13.793 9.958-9.462 13.003 2.221 1.56 6.427-1.115 7.766-2.728 2.509-3.025 2.737-6.756 1.696-10.275zm65.653-89.452c-2.467.405-6.727.533-6.886 3.999-.14 3.047 3.68 4.034 6.37 4.273 2.79.248 6.485-.54 6.538-4.048.056-3.784-5.934-3.556-6.022-4.224zm-60.84 150.842c-2.628 1.595-14.884 7.337-9.63 11.486 1.966 1.552 7.926-1.654 9.267-3.284 1.601-1.945 3.165-6.502.363-8.202zm-34.071-41.667c.379-6.338-10.316-8.861-8.098.135.625 2.537 1.23 6.387 4.366 6.534 3.708.175 3.842-4.211 3.732-6.669zm33.038-110.218c-.075 4.808 9.14 9.048 9.211 1.427.064-6.81-9.555-8.804-9.211-1.427zm6.086-25.042c-2.27.731-5.288 1.108-5.488 3.992-.212 3.052 2.624 4.411 5.176 4.24 2.093-.141 5.19-1.689 5.57-3.96.557-3.332-2.695-3.55-5.258-4.272zm42.219 88.028c.039-3.967-7.914-8.735-9.378-4.132-.469 1.473 3.279 8.079 4.526 8.573 3.299 1.31 3.759-1.741 4.852-4.441zm-65.166 66.036c2.688 2.405 10.749 9.161 10.146.092-.385-5.793-10.855-5.491-10.146-.092zM421.227 745.04c-.881-3.813-13.492 2.802-9.284 7.618 1.412 1.617 5.106.154 6.526-.804 2.811-1.896 2.872-3.647 2.758-6.814zm70.269-81.622c-.492-1.7-1.038-4.706-2.66-5.791-2.935-1.962-5.491.999-5.491 4.119-.001 5.821 6.626 7.657 8.151 1.672zm31.257 68.058c-3.275.75-10.566 8.708-6.338 11.955 4.07 3.124 9.482-9.578 6.338-11.955zm-3.116-60.241c-4.211.336-9.998 7.153-3.453 8.236 5.118.848 11.071-6.566 3.453-8.236zm-38.118 31.369c-1.056-3.556-11.498.255-10.911 4.17.312 2.081 4.581 2.57 6.825 2.02 3.304-.811 4.162-2.978 4.086-6.19zm123.084-198.6c-.076-4.597-8.911-6.471-9.558-1.838-.585 4.185 9.668 8.639 9.558 1.838zM484.439 749.972c-.636-2.312-.911-5.094-3.799-5.399-3.306-.349-3.209 2.187-2.82 4.814 1.058 7.147 5.097 7.504 6.619.585zm139.519-191.274c4.606 1.039 13.042-7.83 7.886-9.733-3.633-1.343-7.886 7.057-7.886 9.733zm-58.746 68.892c2.345 1.104 2.884 1.773 4.685-.038 1.568-1.577 1.499-5.971.153-7.612-5.155-6.283-5.034 5.108-4.838 7.65zm-19.123-12.743c-2.444.311-9.708 7.2-5.926 9.937 4.635 3.355 7.258-7.153 5.926-9.937zm-52.892 1.814c1.777 6.842 6.212 2.238 5.961-2.938-.404-8.292-5-1.071-5.961 2.938zm-26.969 109.881c-3.006 1.244-7.087 12.734-2.793 13.35 4.823.692 3.217-10.958 2.793-13.35zm37.543-6.456c-3.44-1.16-4.701 6.095-2.701 7.443 4.399 2.965 3.471-5.731 2.701-7.443zm32.617-19.77zM421.227 745.04zm60.294-42.436c.019.837.039 1.675.061 2.508-.019-.84-.041-1.674-.061-2.508zm-380.502-14.419c-7.133-.229-15.089-2.913-22.097-2.059-1.93.235-6.37.721-3.28 3.582 1.479 1.368 8.556.661 10.699 1.115 13.094 2.772 27.959 4.56 41.386 4.329 6.285-.108 12.617-.611 18.9-.944 6.278-.332 6.895-2.882-.169-3.694-7.337-.842-14.866-.53-22.239-.538-7.751-.011-15.464-1.274-23.2-1.791zM85.36 671.006c.686 1.954 1.29 6.439 3.92 6.733 3.684.412 4.294-5.913 4.158-8.226-.165-2.791-1.17-7.429-4.64-6.462-2.931.816-3.225 5.721-3.438 7.955zm22.304-1.431c-.538-2.092-.803-6.81-3.763-6.971-3.308-.178-4.253 4.737-4.231 7.093.022 2.235.849 6.459 3.483 6.975 3.571.7 3.89-4.706 4.511-7.097zm37.143 3.753c1.072 2.515 1.781 5.979 5.097 4.264 2.565-1.326 2.923-6.674 2.439-9.122-.501-2.537-1.563-5.447-4.478-4.306-3.362 1.317-3.022 6.395-3.058 9.164zm-28.127-2.322c3.161 9.582 8.928 3.099 6.738-4.055-2.289-7.478-6.448-.215-6.738 4.055zm15.404.474c.878 1.687 1.812 5.327 4.179 4.944 2.901-.471 2.995-6.054 2.676-8.133-.277-1.82-1.095-4.852-3.524-4.813-3.509.057-3.273 5.818-3.331 8.002zm-63.068 1.839c2.353 5.28 5.59.732 4.555-3.018-1.537-5.561-4.422-.634-4.555 3.018z" fill="#000"/><path fill-rule="evenodd" clip-rule="evenodd" d="M126.658 689.983l7.711-.029c-2.572-.485-5.144-.673-7.711.029zm-51.081-3.878l6.687.043a11.658 11.658 0 00-6.687-.043zm25.44 2.081l5.352.358-5.352-.358zm43.79-14.858l.048-3.84c-.659 1.274-.613 2.553-.048 3.84zm-13.987 21.797l-3.095.028 3.095-.028zm8.783-5.031l4.372.358-4.372-.358zm-19.701-.128l4.317.009c-1.439-.606-2.877-.624-4.317-.009zm12.181-18.486l.105-4.002-.105 4.002zm20.26-3.01c.008 1.302.016 2.603.026 3.9l-.026-3.9zm-59.501 19.231zm-23.825-14.382l.124-3.41-.124 3.41zm54.118 21.844l-2.647-.049c.888.018 1.767.034 2.647.049zm-37.776-24.157l.233-2.45-.233 2.45zm31.319 0l.172-2.517-.172 2.517zm456.604-246.627c3.483-.914 4.135-5.807 3.576-8.812l-1.904-4.344.744-1.606c-.319-2.983.495-4.279-2.933-3.071-6.369 2.245-7.386 17.602.517 17.833zm-51.547-9.461c-2.869-.226-8.079 3.115-5.224 6.346 1.77 2.002 7.599 1.055 9.978 1.473 3.154.555 6.444 1.313 4.738-3.411-1.34-3.709-6.126-4.505-9.492-4.408zm3.019 22.219c2.914-2.336 1.613-12.978-2.822-11.063-4.562 1.971.39 9.528 2.822 11.063z" fill="#000"/><path fill-rule="evenodd" clip-rule="evenodd" d="M576.857 415.566c0 1.12.001 2.241.003 3.355.608-1.122.589-2.238-.003-3.355zm-3.576 8.813c-.594-.017-1.188-.035-1.775-.05.597.019 1.186.034 1.775.05zM213.484 730.844c.272 4.841 5.471 1.262 5.103-1.976-.67-5.876-3.993-.069-5.103 1.976z" fill="#000"/></svg>