<svg width="381" height="359" viewBox="0 0 381 359" fill="none" xmlns="http://www.w3.org/2000/svg" preserveAspectRatio="none"><path fill-rule="evenodd" clip-rule="evenodd" d="M197.538 22.1l-5.033 13.324-3.226 8.538c-.381 1.009-.593 2.044-1.331 2.744-1.738 1.65-4.858 2.7-6.947 3.86l-4.199 2.333c-.722.4-2.322.904-2.828 1.57-.556.734-.293 2.081-.293 3.096v25.263l21.688-2.711-28.895 33.341c-2.374 2.738-5.256 5.375-7.024 8.561-3.764 6.783-7.444 13.615-11.164 20.422l-10.391 19.008 31.16-1.326c8.068-.343 16.356.173 24.129-2.114l19.223-5.653c.852-.251 3.507-.535 4.111-1.221.566-.642.554-3.07.714-3.892 3.024-15.545 6.874-32.676 15.702-46.057 6.328-9.593 14.868-17.991 22.689-26.356 3.053-3.265 6.159-6.49 9.103-9.854.754-.862 1.843-1.84 2.342-2.886.322-.676.772-1.964.572-2.565-.086-.26-2.099-1.193-2.387-1.379-2.039-1.31-4.061-2.649-6.086-3.98-5.693-3.743-11.379-7.494-17.104-11.187-4.463-2.879-8.914-5.932-13.621-8.406-4.88-2.564-10.253-4.37-15.369-6.396a2030.279 2030.279 0 00-15.535-6.077z" fill="#FFAEAD"/><path fill-rule="evenodd" clip-rule="evenodd" d="M372.996 259.365c-2.482 2.339-7.003 5.478-10.576 4.051-1.795-.717-3.327-2.291-4.962-3.306-1.921-1.193-3.726-2.387-5.355-3.976-3.248-3.173-5.707-7.809-9.544-10.293-1.29-.835-3.807-1.014-4.701-2.347-.401-.598-.438-1.505-.365-2.196.161-1.489.965-1.402-.379-2.495h2.087c.041-.806-.764-.873-1.364-.769.279-1.278.563-6.278-1.766-4.012-2.02 1.965-1.009 5.224-2.439 7.351-1.095 1.63-4 .311-4.392-1.482-.176-.805.711-2.063.816-2.852.232-1.751-.549-3.265-1.685-4.59-2.491 1.659-1.079 5.094-2.498 7.275-1.285 1.973-4.146 1.052-6.101.705-2.345-.416-4.996.005-7.239-.548-3.387-.836-2.122-4.813-2.457-7.38-.36-2.749-3.139-6.566-2.304-9.34.897-2.978 6.14-3.622 8.646-4.344 5.727-1.652 13.897-1.97 18.155-6.595 3.387 3.777 6.111 8.102 9.663 11.738 3.837 3.927 7.935 7.553 11.618 11.638 3.833 4.252 7.79 8.423 11.485 12.798 1.612 1.908 3.027 3.965 4.694 5.828 1.483 1.656 3.045 3.18.963 5.141zM202.76 185.909c1.76-.936 1.984-.349 1.984 1.578-.507-.925-1.009-1.173-1.984-1.578zm-14.921 37.47v-3.397c1.696-.045.653 2.862 0 3.397zm-.415 5.06c0-1.504-.041-2.937.393-4.4.228 1.594.662 2.975-.393 4.4zm7.295 103.359c1.558.146 3.96-.928 5.27.295 1.346 1.256 1.239 4.913 1.557 6.61.527 2.805.994 5.619 1.438 8.437.291 1.848.651 3.725-1.438 4.432-3.087 1.044-7.498-.446-10.717-.582-6.356-.267-12.711-.639-19.073-.768-6.167-.125-12.347-.026-18.486.615-2.773.29-5.484.801-8.229 1.265-1.447.244-5.323 1.266-6.63.047-2.458-2.296 1.629-7.656 3.387-9.17 3.262-2.809 7.902-4.835 11.993-6.055 2.186-.652 5.831-2.483 7.553-.435 1.322 1.571 1.269 3.668 3.162 4.858 4.388 2.757 1.821-5.153-.921-6.127 1.841-4.308 5.35 1.775 6.805 3.236.518.52 2.202 2.235 2.933 1.372.548-.645-.546-2.957-.748-3.586-.308-.955-1.087-2.408-.864-3.444.406-1.875 3.036-2.386 4.611-2.542 2.443-.242 4.839.532 7.254.791 3.703.397 7.435.403 11.143.751zm-24.526-176.606c-4.822.384-9.674-.353-14.485.25-4.551.571-8.84 2.243-13.13 3.778 6.378-14.961 14.631-28.58 24.689-41.337 5.009-6.355 10.397-12.665 15.809-18.679 2.519-2.797 5.124-5.502 7.724-8.222 2.32-2.426 3.982-6.545 6.765-8.357 2.376-1.546 6.529-.443 9.162-.347 2.976.108 6.598.378 9.5-.612 2.104-.718 2.682-2.634.049-2.697-3.105-.075-6.159.248-9.305-.043-8.151-.753-16.009-1.99-24.226-1.289-1.883.16-4.36.963-6.208.722-1.328-.174-.455.494-1.378-.572-.354-.408-.78-1.367-.884-1.908-.589-3.043 1.082-7.39 1.481-10.453.37-2.835.043-5.95.735-8.71.63-2.513 2.55-2.848 4.915-3.116 6.471-.735 13.074-1.126 19.573-1.68 14.833-1.263 30.137-3.169 44.869-.047 5.32 1.128 11.806 2.87 16.558 5.662 1.486.873 2.986 1.9 2.445 3.708-.561 1.876-3.31 3.859-4.671 5.095-10.063 9.135-19.782 18.453-26.851 30.175-9.015 14.947-14.188 31.091-17.224 48.219-.652 3.684-1.259 5.613-5.05 6.674-4.07 1.139-7.998 1.879-12.218 2.226-9.54.783-19.109.799-28.644 1.56zm3.231-98.987c-.731 5.441-1.72 10.87-1.818 16.354-.037 2.072-.233 3.11-2.435 3.571-2.597.545-5.237.95-7.846 1.515-12.589 2.729-24.941 6.08-37.258 9.851-11.971 3.667-23.744 7.791-35.984 10.507-5.265 1.169-11.425 1.956-16.22 4.543-5.16 2.784-4.48 7.348-4.943 12.36-.62 6.698-2.605 13.183-3.304 19.878-.334 3.199-.638 6.417-.587 9.636.042 2.744.436 5.778-1.41 8.088-3.7-4.948-5.454-11.17-6.183-17.234-.355-2.947-.214-5.919-.316-8.88-.081-2.384-.028-6.176-1.581-8.167-3.376-4.327-7.766 13.013-8.184 14.865-.702 3.116-1.281 6.259-1.98 9.376-.31 1.382-.709 6.404-2.56 6.905-3.836 1.038-2.994-9.742-3.055-11.383-.121-3.313-.204-6.63-.126-9.946.056-2.393.52-4.99.245-7.385-.676-5.879-3.981.315-4.91 2.504-2.35 5.524-3.411 11.438-5.517 17.051-.35.934-1.174 4.077-2.478 4.135-1.45.065-1.44-3.181-1.522-4.13-.482-5.497-2.108-10.956-1.617-16.511.495-5.608 2.462-11.374 5.244-16.253 5.882-10.314 16.504-16.236 26.678-21.63 11.643-6.173 23.936-11.05 36.49-15.022 15.1-4.778 30.605-8.644 46.202-11.396 7.935-1.4 15.993-2.4 24.01-3.202 2.817-.282 5.636-.447 8.417-.983 1.049-.203 4.837-1.167 4.548.983zm8.111-17.608c-3.978.031-8.042-1.898-11.918-2.695-4.614-.95-9.12-2.324-13.726-3.316-9.02-1.941-18.045-3.835-27.056-5.82-3.912-.861-7.844-1.61-11.74-2.536-4.17-.99-8.674-2.095-12.941-1.028-6.468 1.617-9.2 8.693-11.575 14.216-1.678 3.9-2.992 8.249-5.608 11.643-.932 1.21-2.256 2.653-3.945 2.261-3.138-.727-2.64-4.88-2.24-7.175.58-3.33 1.4-6.622 2.056-9.938.265-1.338 2.316-10.097-1.346-8.74-2.715 1.005-4.152 7.63-5.18 9.996a107.582 107.582 0 01-2.431 5.22c-1.144 2.288-4.408 9.932-8.022 8.946-5.172-1.41-.211-15.007.67-17.872.484-1.573 5.74-13.503 1.303-12.528-1.89.416-3.73 3.926-4.694 5.38-1.708 2.581-3.411 5.18-5.02 7.824-1.654 2.72-2.498 5.814-4.14 8.494-.862 1.41-2.624 3.29-4.344 1.984-2.681-2.034-1.092-9.109-.622-11.784.873-4.974 3.043-10.073 6.02-14.14 4.474-6.109 12.916-8.083 20.015-9.27 9.162-1.532 18.453-1.113 27.654-.207 10.348 1.02 20.539 2.112 30.739 4.198 10.28 2.101 20.565 4.186 30.687 6.966 4.768 1.31 9.605 2.47 14.305 4.007 4.997 1.634 9.874 3.667 15.01 4.844l-5.42 13.526c-1.729-1.71-4.09-2.476-6.491-2.456zm88.557 12.423c1.584-.866 3.334-1.275 3.912-3.19.512-1.692-.362-3.61-.779-5.234-1.168-4.548-1.476-9.26-.442-13.861.988 1.508 4.686 7.308 6.935 3.796 1.356-2.117-2.279-5.164-3.34-6.653 2.328-1.437 5.654-5.293 8.337-2.968 1.734 1.504 2.468 2.952 4.804 3.683 2.837.887 5.507.684 8.403.439 2.028-.172 2.517-.442 3.309 1.12.622 1.227.944 2.746 1.307 4.064.716 2.6 2.373 7.72.41 10.154-1.719 2.133-8.392.305-9.318 3.057-.506 1.502 1.906 1.556 2.828 2.298 1.141.92 2.085 2.383 2.706 3.69.459.968 1.157 2.565.375 3.553-1.08 1.368-3.082.33-3.952-.663-1.156-1.32-1.532-3.126-2.496-4.564-1.771-2.638-1.876-.54-2.358 1.355-.501 1.969-1.685 1.833-3.499 2.086-3.182.444-6.398 1.07-9.495 1.923a35.645 35.645 0 00-4.639 1.645c-.974.418-2.663 1.686-3.721 1.698-1.959.023-3.317-3.254-4.328-4.621 1.679-.938 3.353-1.884 5.041-2.807zm105.205 200.633c-4.893-5.874-9.13-12.254-13.957-18.179-4.762-5.844-10.27-10.953-15.614-16.245-2.521-2.498-4.938-5.239-7.721-7.452-2.077-1.652-3.675-1.677-6.173-.946-7.097 2.079-14.325 4.581-21.042 7.683-6.254 2.889-11.951 6.599-18.734 8.21-6.924 1.644-14.123 2.172-21.219 1.765-7.279-.419-14.144-1.933-21.065-4.159-6.556-2.108-13.391-3.949-18.998-8.127-5.877-4.38-10.418-10.68-14.626-16.605-2.13-3-4.245-6.15-5.68-9.55-1.246-2.95-2.059-6.432-4.294-8.837-.549.777-1.231 1.443-1.509 2.356-.127.415.62.402.543.731-.144.621-.971 1.255-1.451 1.592-1.726 1.215-1.736.248-1.283 2.52.263 1.324-.236 4.311-2.395 3.335.795.951-.468 2.152-.88 2.936-.284-.326-.637-.439-1.059-.341.79 1.573.323 1.614-.442 2.863-.14.228-.635 1.423-.564 1.322-.782 1.114-1.685 1.394-2.141 2.781-.375 1.139-.279 2.392-.696 3.529l-1.514-2.093c.103.549.309 1.361.548 1.859.151.311.797 1.038.789 1.208-.036.634-.827.482-1.053 1.029-.423 1.026.189 1.178-.042 2.179-.265 1.15-.975.69-1.313 1.67-.064.185.435.917.356 1.319-.111.567-.625.884-.807 1.388-.462 1.283-.294 2.222-.935 3.453-.249.477-.61.795-.785 1.337-.154.477.176 1.492-.12 1.92-1.43 2.06-1.229-1.489-1.12-2.369.91-7.388 3.831-15.014 6.504-21.92 1.328-3.432 2.622-6.97 4.287-10.256.67-1.324 1.444-2.69 2.551-3.702 1.401-1.281 3.389-1.793 4.658-3.224-.2.226 1.376-1.265 1.123-.775.226-.438-.168-1.031-.028-1.455.174-.527.503-.637.87-1.098.659-.828 1.441-1.24.407-2.294 1.535-.339 2.269-.838 2.576-2.482.224-1.203-.228-1.125.561-1.927.793-.805 1.194-.176 1.693-1.571.597-1.67.994-3.94 1.351-5.687.313-1.525-.445-3.769.84-4.845 1.629-1.364 3.086-.787 2.794-3.529-.285-2.674.546-4.293 1.381-6.823 1.666-5.051 2.31-10.384 3.771-15.495 3.118-10.907 8.627-20.741 14.55-30.342 5.473-8.872 13.125-16.43 20.513-23.71 2.023-1.993 4.024-4.016 5.841-6.202 1.565-1.882 2.279-4.444 3.783-6.23.914-1.086 2.615-1.55 3.891-2.125 2.127-.96 4.663-2.212 7.064-2.018-.954 3.217-1.265 6.976 1.551 9.389 3.416 2.926 6.513-.114 9.645-1.782 5.708-3.042 13.872-.25 18.85-4.808 1.186-1.086 1.517-2.82 2.749-3.834.904-.744 2.191-.932 3.209-1.487 3.093-1.683 4.595-4.765 3.39-8.17-1.1-3.112-2.811-4.191.996-5.769 3.091-1.28 4.266-3.208 2.867-6.64-1.334-3.273-3.777-3.65-6.089-5.792-2.239-2.074.333-4.489 2.011-6.046 2.163-2.009 2.577-3.82.068-5.909-2.626-2.187-6.375-2.11-9.437-1.029-3.463 1.223-5.744 3.256-7.209 6.55-1.492 3.353-5.191 2.418-8.186 1.483-2.865-.894-3.61-2.822-5.491-4.898-2.092-2.31-6.355-.335-8.822.72-6.078 2.598-12.117 6.697-12.358 13.958-.144 4.33 1.687 8.01 2.639 12.073.871 3.717-5.099 3.424-6.133 7.019-11.029-5.839-23.312-7.626-35.641-8.023-13.104-.423-26.396-.762-39.388 1.305 3.016-5.254 4.608-11.016 7.232-16.413.755-1.554 1.081-1.421 2.747-.952 3.202.902 6.38 1.91 9.575 2.84 11.673 3.393 23.117 7.481 34.403 11.959 1.097.435 3.546 1.644 4.508.33 1.109-1.516-1.457-3.384-2.496-4.147-4.545-3.334-10.177-5.358-15.267-7.697-11.128-5.112-23.45-7.54-35.061-11.336-25.066-8.2-50.998-14.426-77.047-18.539-6.357-1.003-12.782-1.15-19.166-1.895a71.86 71.86 0 00-16.976.037C70.51 1.782 58.402 4.499 52.504 14.059c-5.325 8.632-8.88 18.337-7.521 28.577.408 3.075 1.71 6.717 5.505 5.924 2.633-.55 4.03-2.786 5.253-4.969 1.846-3.298 3.67-6.596 5.672-9.805.742 4.812-1.955 9.544-1.531 14.446.288 3.327 2.126 8.583 6.445 7.64 5.92-1.29 8.356-10.537 11.202-14.974.144 3.417-1.054 6.785-.687 10.21.361 3.383 3.005 6.576 6.717 6.113 3.502-.437 5.777-4.189 7.265-7.013 2.07-3.93 3.556-8.145 5.578-12.102 1.894-3.708 4.138-8.124 8.661-8.82 4.037-.623 8.663.818 12.651 1.412 11.06 1.648 21.898 4.455 32.838 6.722 11.73 2.431 23.737 3.908 35.105 7.83-3.998 5.44-14.458 4.265-20.413 4.85-8.998.882-18.112 1.546-27.06 2.849-8.837 1.286-17.489 3.569-26.257 5.227-8.722 1.648-17.43 3.3-25.869 6.112-15.67 5.22-31.6 11.828-45.406 20.938-6.424 4.24-12.13 9.084-16.098 15.775-3.993 6.732-5.912 14.346-6.644 22.09-.456 4.823.318 8.996 1.252 13.69.677 3.398.896 9.087 3.62 11.575 5.201 4.75 9.519-14.514 10.479-16.841.691 3.813-.44 25.293 7.905 23.546 3.724-.779 4.569-5.89 5.186-8.969 1.127-5.612 2.136-11.338 4.063-16.743 1.237 7.283 1.752 14.871 4.417 21.827 1.77 4.62 6.82 12.817 10.34 4.908 2.64-5.931 1.734-12.739 2.051-19.036.351-6.978 2.355-13.71 3.064-20.62.275-2.676.026-5.693 2.716-7.154 2.309-1.254 5.686-1.662 8.207-2.362 7.468-2.073 14.985-3.979 22.418-6.179 7.436-2.202 14.768-4.773 22.105-7.283 7.017-2.4 14.181-3.765 21.283-5.82 4.038-1.17 8.027-2.392 12.121-3.368 1.906-.454 3.834-.808 5.735-1.278 1.41-.348 3.266-1.662 4.715-1.638 1.491.024 2.052 1.286 3.761 1.385 1.841.107 3.713-.3 5.543-.44 4.46-.342 9.201-.895 13.65-.277-2.674 3.172-6.286 5.365-9.451 7.992-3.651 3.03-7.184 6.303-10.302 9.882-6.275 7.2-12.205 14.811-17.714 22.612-5.435 7.696-9.811 16.117-13.615 24.721-1.896 4.287-3.736 8.668-5.045 13.175-.538 1.851-.977 3.709-1.948 5.393-.891 1.544-2.147 2.875-1.094 4.74.725-.454 1.377-1.018 2.032-1.563-.757 5.336-2.392 10.498-3.233 15.817-.828 5.242-.794 10.632-.741 15.925.113 11.085.937 21.919 3.186 32.792 2.274 10.994 5.195 21.905 8.879 32.512 3.546 10.212 7.105 20.921 12.055 30.546 5.286 10.28 11.575 21.089 19.228 29.791-4.999 2.047-11.36 1.665-16.653 2.489-5.533.862-10.319 2.49-15.034 5.551-4.771 3.098-7.36 7.087-8.02 12.736-.468 4.02-1.86 9.586 3.415 10.643 3.793.759 8.035-.488 11.836-.797 6.65-.539 13.309-.876 19.974-1.166 6.647-.29 13.295-.546 19.945-.752 3.127-.097 6.256-.145 9.383-.258 1.401-.05 2.25-.071 3.507.334.993.32.92.985 2.026.163 1.784-1.327 1.417-5.51 1.367-7.349-.075-2.839-.344-5.71-.898-8.495-.329-1.654-4.317-12.321-1.216-12.77-3.603-3.96-5.042-9.613-6.66-14.576-2.028-6.217-3.808-12.416-5.206-18.811-2.984-13.659-4.304-27.467-4.304-41.442 13.837 8.528 28.476 13.148 44.773 13.663 16.202.512 34.003-.818 49.388-6.209 7.125-2.496 13.507-5.774 19.615-10.19 2.19-1.583 4.535-5.168 7.409-5.107 3.43.074 7.27 1.372 10.676 1.927 6.513 1.062 15.014 1.661 20.528 5.689 2.995 2.189 5.142 5.252 7.815 7.773 2.033 1.918 4.722 2.96 6.74 4.878 2.178 2.07 1.313 4.774 4.924 4.942 3.086.142 6.47-1.099 9.132-2.557 5.31-2.908 10.965-9.115 6.057-15.005z" fill="#000"/><path fill-rule="evenodd" clip-rule="evenodd" d="M324.255 113.34c7.771 5.52 16.686 9.291 24.807 14.263 2.033 1.244 8.366 3.828 8.304 6.136-.035 1.349-1.939 3.042-2.772 3.977a94.125 94.125 0 00-4.088 4.916c-6.031 7.762-11.71 15.597-18.246 22.969-.984 1.109-3.948 6.404-4.905 3.774-.434-1.192-.077-2.532-1.207-3.644-.582-.572-2.831-.888-2.176-2.116l1.311.589c-.339-.982-.315-2.057-.823-2.985-.316-.576-.934-.849-1.148-1.498-.296-.896.206-1.939.122-2.863-.083-.922-.561-1.793-.846-2.663-1.691-5.155-2.298-10.352-3.164-15.672-.856-5.263-2.191-10.361-2.715-15.683-.553-5.621-1.232-11.231-2.136-16.807 1.615.226 2.856 1.982 3.999 2.974 1.796 1.559 3.746 2.956 5.683 4.333zm-6.092 54.42a3.088 3.088 0 01-.871-1.073c3.809-1.887 1.511 1.332.871 1.073zm-2.317-4.024c-1.66.458-2.853.55-4.133-.133-.122-.064.018-.564-.201-.666-.191-.089-.483.021-.647-.063-.558-.283-1.534.338-1.628-.747 2.119-.649 4.202-1.846 6.439-2.047 3.11-.28 2.966 2.885.17 3.656zm-7.274-6.257c-2.266.529-4.132 1.767-6.539 1.444-2.259-.303-4.223-1.475-6.005-2.825 4.459-1.262 9.134-1.49 13.589-2.711 1.451-.397 3.357-1.445 4.92-1.023 1.736.47 1.846 2.096 2.367 3.576-2.78.5-5.58.896-8.332 1.539zm-14.169-6.281c-2.176.52-4.401 1.657-6.221-.306-.294-.316-.551 0-.516-.976.036-1.028.97-1.691 1.773-2.053 1.888-.851 4.535-.301 6.54-.426 3.198-.199 6.454-.864 9.618-1.376 2.19-.354 4.453-1.14 6.692-.985 1.728.12 3.814 1.593 1.295 2.668-2.295.979-5.734.829-8.22 1.253-3.674.627-7.335 1.334-10.961 2.201zm-2.126-10.24l.423.432c-.023-.006.835-.7 1.062-.721 1.103-.095 2.213-.02 3.318-.082 2.546-.144 5.113-.587 7.613-1.076 2.037-.398 4.113-1.084 6.209-.912 1.816.149 2.006.521 2.125 2.273-4.634 0-9.407-.098-13.961.883-2.965.638-6.232 2.539-7.717-.888l.928.091zm2.897-7.416c1.149.875 4.282-.581 5.659-.726 1.495-.158 2.902-.323 4.352-.695 1.285-.331 5.536-1.982 6.522-.403 1.511 2.42-4.608 2.864-5.578 2.984-4.068.502-8.289.948-12.248 2.015l1.293-3.175zm5.581-8.22c.297 1.119 9.497-3.003 9.665-.008.129 2.299-9.103 3.444-10.763 3.242.389-1.058 1.423-2.006 1.098-3.234zm3.089-7.031c.195-2.256.498-2.243 2.307-2.456 1.38-.162 3.277-.971 2.918 1.489-.307 2.106-5.422 3.244-5.225.967zm3.288-7.763c.436-1.211 1.415.419 1.436 1.035.055 1.639-1.188 1.285-2.384 1.285.333-.766.649-1.54.948-2.32zm15.143-9.092c-.244-.294-1.614-.406-2.004-.549-.958-.351-.822-1.1-2.049-.362-.061-.061.056-.617-.011-.642-.034-.013-.893-.337-1.172-.516-.674-.432-1.282-.854-1.901-1.396-.658-.575-1.318-1.41-2.07-1.868-.317-.193-.576-.467-.958-.526-.992-.153-.708.538-1.575.675-.534.084-.923-.54-1.621-.27-.604.232-.954 1.078-1.223 1.582-.977 1.833-1.732 3.806-2.689 5.659-4.894 9.474-10.456 18.589-15.197 28.151-2.283 4.607-4.666 9.246-6.273 14.141-1.158 3.531-3.775 8.689-1.524 12.217 1.637 2.566 4.915 3.673 7.53 4.913 3.935 1.865 7.562 4.303 11.54 6.111a289.786 289.786 0 0113.975 6.82c1.972 1.027 3.752 2.506 5.717 3.479 1.202.595 3.059-.42 3.45.944 1.507-1.826 3.946-.609 5.689-1.894 1.025-.756 1.775-2.245 2.63-3.176 1.283-1.395 2.675-2.69 3.984-4.061 5.195-5.447 9.992-11.12 14.719-16.97 4.514-5.586 9.788-10.864 13.602-16.979 1.514-2.428 1.788-4.973.789-7.655-.73-1.956-2.488-4.91-4.999-3.615.952-1.581-2.72-3.27-3.835-3.579-.017-.004-.236 1.211-.547 1.18.111.011-.934-2.691-1.392-3.037-1.362-1.031-3.019-2.234-4.506-3.082-1.363-.778-2.801-1.164-4.121-2.035-1.601-1.055-3.07-2.306-4.677-3.354-1.551-1.012-3.28-2.208-4.995-2.904-1.487-.603-2.822-.722-4.159-1.711-1.655-1.223-3.099-2.053-5.007-2.897-1.651-.729-3.939-1.366-5.12-2.794zM96.898 247.967l.91-2.139c.375 1.243.48 1.861-.91 2.139zm.404 3.293c-.658.118-.399-1.945-.399-2.305 1.136.643.196 1.414.399 2.305zm-1.025-5.952l1.682-.993c-.781 1.446-.475.543-.153 1.509a1.383 1.383 0 01-1.53-.516zm-3.323 11.306c-2.102 7.626-8.777 13.639-15.827 16.754-4.052 1.79-8.035 2.238-12.41 2.038-1.687-.077-3.673-.625-5.297-.523-1.25.078-1.194.133-2.23 1.191-.458-.844-.126-1.436-1.045-1.927-1.147-.613-1.623.101-2.192.949-.744-.771-1.049-1.174-2.013-1.632.03.014-.924-.022-.885-.01-.172-.053-1.21-.72-1.534-.841-1.333-.5-2.874-.706-4.104-1.423-1.075-.627-1.961-2.385-3.192-1.034-.001-2.257-3.043-3.194-4.468-4.376-2.227-1.848-3.998-4.584-5.109-7.231-1.184-2.822-1.58-5.528-2.133-8.436-.388-2.032-2.923-4.97-1.4-7.021.362.86.192 1.741.795 2.52.542-1.045.84-2.214 1.085-3.357.12-.56.818-2.204.738-2.692-.16-.999-1.397-1.053-.712-2.277 1.422 1.546 2.57-1.17 1.495-2.253-.53.598-.724 1.278-.969 2.018-1.398-2.821 2.47-1.913 1.624-4.46 1.412-.272 2.224-.627 2.76-2.022.598-1.553.159-1.891 1.514-2.917.466-.352 1.785-.859 2.026-1.44.467-1.12-.72-1.453.32-2.503.351.616 1.72 1.837 2.47.676.15-.232-.48-.396-.021-.93.68-.789 1.44-1.564 2.588-1.398-.91-2.274 4.904-2.454 6.393-2.991 1.492-.537 2.759-.89 4.34-1.015 1.581-.125 1.66-.588 2.998-1.539.113 1.361.44 1.062 1.409 1.302.232-.399.47-.444.715-.134.243.231.54.339.89.326.532.028 1.135-.042 1.691-.03 1.308.025 2.656-.084 3.938-.056.331-.056.64-.171.93-.346l.363.685c.679.085.732.936 1.567.005.247 1.184.958.568 1.708.889.684.293.793.762 1.425 1.089.415.336.86.381 1.337.134.452.336.912.661 1.379.978.859.485 1.872.782 2.777 1.165.603.249 1.201.507 1.795.775.018.717.34.97.964.759.564.473.723.454 1.271 1.258 1.24 1.823 2.341 3.238 3.908 4.867 6.811 7.081 8.903 17.093 6.328 26.436zm2.09-30.111c-3.075-4.118-7.427-8.833-11.338-11.433-1.982-1.319-4.765-3.686-7.19-4.383-.574-.165-1.169-.176-1.734-.35-.436-.134-.674-.581-1.172-.662-.348-.057-.386.723-.756.651-.773-.151-1.263-.918-1.81-1.398-1.172 2.021-1.809-1.378-3.53.907-2.05-3.213-6.865-2.511-10.138-2.349-.97.048-1.427.394-2.287.649-.801.238-.88.177-1.755.171-2.178-.017-4.111.257-6.125 1.213-3.382 1.607-6.487 4.11-9.7 6.046-3.59 2.164-6.826 4.919-9.573 8.084-9.93 11.444-12.586 28.148-4.668 41.415 12.577 21.071 45.018 23.323 63.401 9.026 14.202-11.047 19.607-32.549 8.375-47.587zm155.667-59.295c-.353.842-3.649.558-3.721-.435-.108-1.483 4.334-1.029 3.721.435zm3.501-.551c1.868.152 4.937 1.42 6.737.654 2.747-1.17-.138-2.966-1.611-3.503-1.5-.546-3.734-.256-4.505-1.824-.58-1.179.853-4.472-.925-3.943-1.867.556-1.324 5.272-4.252 3.682-1.397-.758-.827-5.379-3.167-3.018-.64.645-.696 1.831-1.544 2.313-.865.491-1.951-.021-2.865.022-2.418.113-3.189 2.376-.738 3.273.907.333 4.326.738 2.255 2.221-1.305.933-4.204-1.026-5.325.599-1.541 2.233 2.586 2.284 3.694 2.952 1.878 1.131.327 3.773.477 5.654.229 2.875 1.899 2.274 2.506-.158.514-2.065-.123-5.036 2.988-4.216 5.068 1.336-2.817 7.77.895 9.416 2.366 1.05 2.701-4.625 2.885-5.602.681-3.606 2.706-2.764 5.775-2.654 3.585.129 4.451-2.523.654-3.282-1.211-.243-2.877.064-3.929-.708-.623-.456-1.478-1.998-.005-1.878zm-132.37 117.82c-2.901-1.039-7.755-.815-8.473 2.933-.3 1.568.285 3.227 1.368 4.367 1.256 1.322 3.257 1.444 3.15-.857-.074-1.593-1.589-2.976 1.075-3.297 1.658-.199 4.111 1.041 4.193 2.872.186 4.129-6.96 4.452-9.594 3.738-5.226-1.416-3.806-6.891-.217-9.389.927-.646 3.588-1.64 3.709-2.981.162-1.779-2.037-1.415-3.115-1.181-7.924 1.725-9.651 14.998-1.371 17.5 3.759 1.136 9.054-.037 11.32-3.442 2.124-3.192 2.153-8.76-2.045-10.263zM16.785 190.513l-7.43 3.577c-.818-1.752-2.201-6.538-4.278-7.149-3.362-.99-1.221 4.227-.641 5.42.477.98 1.582 2.498 1.314 3.666-.36 1.573-2.58 2.131-3.742 2.943-2.875 2.009-2.853 6.229 1.312 4.441 2.356-1.012 5.274-3.82 7.08-.632.834 1.47 2.81 9.686 4.873 4.313 1.277-3.327-4.869-6.783-1.839-9.597.975-.905 2.117-.982 3.092-1.502 2.353-1.258 1.026-3.581.26-5.48zM379.9 71.475c-1.477-.54-3.303-1.595-4.945-1.236-1.744.382-2.446 2.13-3.714 3.18-3.448 2.855-5.457-1.401-7.351-3.734-1.79-2.202-3.972-2.737-6.497-1.383-1.006.54-5.243 3.011-4.504 4.595.531 1.14 2.625.116 3.339-.133 1.55-.539 2.99-1.011 4.575-.224 2.974 1.474 3.746 5.519 7.344 6.15 3.72.652 3.842-2.89 6.498-4.222 1.78-.893 3.02.688 4.737.373 1.636-.3 2.393-2.681.518-3.366zm-30.038 14.27c1.316.285 2.175-2.267 2.999-2.914 1.366-1.073 3.735-1.29 5.126-.21 2.717 2.109 1.781 6.66 5.65 7.846 3.457 1.06 5.086-3.493 7.997-4.627 1.692-.66 3.55-1.09 2.889-3.457-.456-1.635-1.799-2.056-3.26-1.427-2.511 1.079-3.363 5.474-6.339 5.553-3.079.082-3.413-4.358-4.735-6.291-2.016-2.947-6.159-3.66-8.513-.841-.711.85-4.32 5.825-1.814 6.368zm-60.868-50.324c1.83 1.253 5.478 1.21 7.165-.344 1.716-1.58-.575-1.823-1.973-1.775-1.075.037-3.088.57-2.475-1.287.544-1.648 3.533-.809 3.782-2.618-2.249-.403-4.727-.258-6.391 1.51-1.203 1.278-1.822 3.341-.108 4.514z" fill="#000"/></svg>