<svg width="869" height="836" viewBox="0 0 869 836" fill="none" xmlns="http://www.w3.org/2000/svg" preserveAspectRatio="none"><path fill="#EDF1F7" d="M149 0h720v918H149z"/><path fill-rule="evenodd" clip-rule="evenodd" d="M724.477 421.226c-5.496-21.38-10.676-43.226-18.83-63.773-5.104-12.858-10.511-25.599-15.928-38.327-.751-1.767-1.069-3.47-2.531-4.35-1.951-1.175-5.99-1.15-8.193-1.553-31.287-5.742-62.9-10.124-94.618-12.589-36.194-2.813-71.481-1.527-107.296 4.375-30.628 5.046-60.955 12.002-90.95 19.967-4.41 1.17-8.813 2.366-13.207 3.595-2.047.573-5.446.865-7.231 2.06-3.815 2.555-5.109 13.024-6.539 17.458-1.916 5.945-3.031 14.112-6.724 19.169-5.499 7.528-13.869 14.058-20.685 20.315-23.787 21.841-49.864 41.764-80.585 52.562-47.528 16.704-97.646 27.174-146.881 37.525-1.146.241-2.292.481-3.438.718l38.237 42.365 21.556 23.882c3.694 4.094 3.29 4.824 8.514 3.684 26.181-5.716 52.315-11.946 78.02-19.541 12.602-3.722 25.42-7.587 37.145-13.617 16.137-8.299 31.284-18.558 46.027-29.095 13.178-9.42 26.047-19.273 38.683-29.407 2.492-1.997 11.481-11.627 14.396-11 2.514.542 6.867 6.267 8.709 7.934 4.869 4.411 9.759 8.8 14.679 13.154 7.83 6.928 15.827 15.413 24.973 20.627 9.637 5.495 20.683 9.239 30.855 13.615a7087.85 7087.85 0 0017.035 7.296c1.484.633 3.554 2.01 5.154 2.045 4.735.1 11.611-3.751 16.003-5.251 11.282-3.854 22.482-7.951 33.566-12.345 23.665-9.382 49.675-19.575 69.152-36.459 3.398-2.944 6.719-6.241 8.968-10.175.779-1.365 1.939-3.264 2.019-4.875.127-2.568-1.317-3.072-3.463-4.677-11.078-8.285-23.024-15.505-34.771-22.786a1118.02 1118.02 0 00-8.302-5.099l137.268 11.029 19.213 1.544z" fill="#FFAEAD"/><path fill-rule="evenodd" clip-rule="evenodd" d="M520.076 159.724c-14.503.662-29.37 1.337-43.747 3.379-14.33 2.035-27.702 7.24-40.655 13.542-23.352 11.364-47.221 25.176-62.241 47.034-7.023 10.22-12.751 20.92-22.445 28.965-2.268 1.881-4.739 4.142-7.749 4.718-2.393.457-4.504-.512-6.847-.627-4.472-.222-6.167 2.137-6.167 6.582-3.357-1.34-7.012-2.554-10.674-2.061-3.061.412-5.494 2.259-8.433 3.035-5.304 1.402-10.494-.694-15.538-2.256-12.738-3.943-26.731-6.929-40.115-5.522-8.816.927-19.498 4.751-14.933 16.112 3.786 9.425 17.942 14.195 26.884 16.539 7.605 1.995 17.831.215 17.188 10.715-.448 7.328-1.556 15.19-9.342 17.568-4.268 1.303-19.392 3.245-10.56 9.858 6.521 4.883 8.798 13.478 13.759 19.933 6.322 8.228 14.894 14.88 24.913 17.883 11.212 3.361 23.075 2.716 34.591 4.019-8.111 11.199-19.822 18.902-30.482 27.419-11.209 8.955-22.022 18.741-34.995 25.124-11.626 5.722-24.188 9.695-36.197 14.546-12.612 5.096-25.314 10.133-38.333 14.102-26.26 8.007-53.883 13.601-80.881 18.512-13.324 2.424-26.388 2.069-39.846 2.284-13.805.222-27.601 2.644-41.153 5.132-6.57 1.207-13.203 1.967-19.771 3.169-3.153.576-15.63 1.847-16.077 6.466-.73 7.523 7.403 11.74 13.359 13.839 2.543.896 6.639.765 8.841 1.998 2.383 1.333 1.453 3.295 1.725 5.876.398 3.751 2.404 6.45 5.48 8.531 2.529 1.712 5.578 1.644 3.834 4.886-.803 1.495-2.815 2.437-3.743 4.014-1.06 1.798-1.548 3.771-1.333 5.841.377 3.623 2.77 6.388 6.107 7.67 5.335 2.048 11.595.599 17.06-.066 9.143-1.113 18.42-1.224 27.442-3.225 9.405-2.087 18.558-5.302 27.974-7.439 4.829-1.095 9.667-2.014 14.386-3.533 3.07-.988 7.508-3.554 10.778-2.751 3.063.753 5.457 4.453 7.459 6.601 2.764 2.963 5.44 6.006 8.249 8.927 1.86 1.935 3.769 3.83 5.801 5.586.661.57 4.741 3.066 4.798 3.736.159 1.893-4.295 1.861-5.249 2.613-5.543 4.383 2.786 7.157 6.381 6.937 8.284-.505 16.61-1.523 24.815-2.74 19.537-2.9 39.018-6.03 57.697-12.577 18.476-6.476 36.505-13.364 53.594-23.017 16.404-9.264 32.269-19.738 47.764-30.444 7.518-5.195 15.088-10.578 21.437-17.196 6.208-6.473 11.269-13.905 16.418-21.218 12.329 11.913 24.195 24.441 37.439 35.363 12.599 10.389 27.745 15.939 42.399 22.687-.474 3.066-14.798 4.902-17.414 5.698-11.947 3.637-23.412 9.474-35.033 14.051-19.331 7.614-37.674 17.523-44.112 38.671-6.33 20.792 1.012 41.721 9.966 60.504 10.569 22.174 23.121 42.711 38.297 62.041 6.455 8.224 13.408 15.794 20.492 23.452 6.044 6.534 11.225 14.273 8.693 23.56-4.864-1.521-5.756 2.276-2.575 5.49 2.826 2.856 7.712 3.411 11.486 3.884 11.441 1.436 23.26.928 34.714-.138 20.855-1.944 41.757-7.21 60.639-16.271 9.393-4.509 12.793 2.761 19.253 8.391 5.084 4.428 12.082 7.3 15.946 13.031 3.177 4.715 1.103 12.164-5.498 10.397-5.136-1.375-9.263-7.107-14.703-7.328-9.655-.391 8.562 13.39 10.893 15.072-4.614 4.129-9.846-1.533-14.499-2.478-4.463-.906-5.709 1.405-3.331 5.127 1.854 2.901 7.679 4.956 3.805 8.486-3.21 2.924-10.327 4.464-14.268 5.745a219.823 219.823 0 01-37.326 8.671c-4.133.589-10.76.213-14.111 3.144-4.42 3.867-2.289 10.274-.052 14.704 8.475 16.779 26.095 25.027 44.192 26.234 11.144.743 22.393.024 33.574.625 12.251.66 24.53 1.64 36.809 1.235 19.742-.651 32.301-14.925 42.143-30.622 6.252-9.974 12.015-20.237 17.427-30.687 2.114-4.082 6.543-8.312 7.296-12.899.679-4.13-1.955-7.442-4.514-10.364-6.733-7.689-14.836-13.558-22.752-19.912-4.519-3.627-6.257-6.631-8.269-11.911-1.695-4.444-4.952-6.344-7.82-9.89-3.155-3.901-2.164-4.592.296-7.78 2.575-3.338 1.563-8.257.482-12.034-1.55-5.42-4.877-6.613-9.845-8.36-4.53-1.591-8.37-4.384-12.387-6.976-19.841-12.799-38.535-27.282-58.62-39.725-19.817-12.276-40.527-23.119-59.44-36.817 15.358-2.066 28.898-10.362 43.386-15.275 7.434-2.521 14.798-5.213 21.991-8.368 2.747-1.205 5.948-2.276 8.399-4.048 2.462-1.78 4.354-4.122 6.936-5.807 6.124-3.998 13.406-6.274 19.993-9.391 7.113-3.365 14.134-7.044 20.744-11.327 6.171-3.999 12.096-8.57 17.226-13.852 4.088-4.207 8.063-9.691 13.85-11.624-.607 8.063-10.591 14.739-16.063 19.591-8.878 7.874-18.108 14.564-28.033 21.067 11.132 9.541 24.7 15.754 37.735 22.198 14.657 7.245 28.904 15.277 43.503 22.635 12.366 6.233 25.376 11.036 37.945 16.827 13.561 6.249 27.519 11.489 41.668 16.243 12.805 4.302 24.86 8.889 36.942 14.928 11.746 5.871 24.313 10.36 36.878 14.128 14.118 4.233 27.586 8.26 41.164 14.063 12.243 5.233 24.537 8.578 37.494 11.423 4.28.939 9.776 2.664 12.774-1.482 2.272-3.142 2.614-7.986 3.266-11.681 2.498-14.139 2.695-28.504 4.942-42.665 8.529 2.575 16.607 5.743 25.606 6.151 5.656.257 9.094.841 10.503 7.019-3.272.369-14.964.531-15.28 5.168-.286 4.182 6.789 4.226 9.297 4.34 4.49.204 8.558-.532 10.954 3.864-3.53 1.304-11.356-1.073-12.919 3.676-2.015 6.127 7.132 6.112 10.423 6.605 5.742.861 5.152 5.372 4.759 10.194-.518 6.344-.91 12.697-1.766 19.009-1.831 13.488-4.965 26.771-6.449 40.309-1.283 11.705-2.003 22.947 6.36 32.275 3.363 3.751 8.037 8.068 13.322 8.514 5.363.452 5.265-3.305 8.603-6.071 2.046-1.694 4.751-2.04 7.161-2.955 2.94-1.111 5.78-2.738 8.41-4.425 4.86-3.108 9.1-6.966 12.53-11.603 13.43-18.144 18.22-45.25 19.55-67.248.85-13.989.01-27.996-1.28-41.93-.69-7.505-1.38-15.013-2.29-22.495-.28-2.318-.75-4.64-.93-6.965-.1-1.331.54-4.022-.14-5.298.87 1.628 2.41.424 3.94-.858 3.15-2.647 2.18-7.73.49-11.209-5.08-10.489-20.29-10.898-30.19-11.713-26.609-2.193-51.887-9.33-77.36-16.953 3.595-5.385-2.06-8.941-6.442-10.791-6.759-2.854-13.739-5.363-20.561-8.088-15.406-6.156-30.492-11.894-46.625-15.822-14.613-3.556-28.752-9.461-43.169-13.789-14.896-4.473-29.523-9.585-44.175-14.794-29.019-10.317-58.064-20.859-86.225-33.374-7.119-3.164-13.919-6.832-20.788-10.492-5.581-2.972-12.131-5.152-16.862-9.446-4.518-4.1-7.223-9.802-12.134-13.525-4.422-3.354-10.472-3.4-14.135-7.565-4.954-5.632-10.87-8.106-17.595-11.409-2.161-1.061-16.384-6.42-16.095-9.462 10.165 0 20.599 3.025 30.651 4.434 10.632 1.49 21.255 3.147 31.965 3.971 17.354 1.334 34.699.973 51.98-.908 2.582-.281 12.941-2.409 14.727.362 1.361 2.111-2.022 4.625-2.056 6.893-.05 3.329 2.632 5.115 5.669 3.959 5.914-2.25 5.047-11.783 4.495-16.62-1.057-9.254-3.409-18.423-5.464-27.489 12.2 6.212 23.785 14.187 34.29 22.953 8.138 6.788 15.486 15.994 25.036 20.834 9.168 4.648 14.62.682 14.244-9.551-.172-4.688-1.122-9.138-2.745-13.504-.767-2.064-3.917-7.903-2.441-10.101 8.38 6.684 16.704 13.386 25.5 19.523 6.219 4.338 15.234 11.103 23.353 9.382 7.17-1.521 6.468-9.414 4.195-14.731-1.971-4.613-5.513-8.711-9.024-12.234-2.903-2.911-7.031-5.521-8.484-9.557 9.63 4.33 19.546 7.606 29.635 10.649 7.174 2.163 12.19 11.149 20.533 9.821 8.351-1.329 5.025-11.654 1.692-16.143-2.333-3.141-5.56-5.907-8.69-8.228-3.053-2.264-7.696-4.237-9.198-8.005 9.756 1.832 19.566 5.017 29.605 4.43 5.962-.35 15.914-2.954 14.737-10.971-1.191-8.119-11.998-8.741-18.074-10.255-8.285-2.065-16.214-5.942-24.209-8.899-16.128-5.966-32.569-10.751-49.071-15.506l-5.212-1.502c-18.626-5.37-37.357-9.944-56.214-14.405-9.32-2.206-18.608-4.611-28.002-6.492-9.087-1.82-18.321-2.875-27.34-5.05 7.601-11.477-1.603-20.909-11.541-26.371 6.303-1.275 12.713-2.042 18.962-3.588 5.337-1.319 10.48-3.347 15.856-4.514 9.239-2.007 18.467-3.062 26.354-8.786 14.905-10.816 16.172-28.029 3.614-41.053-12.675-13.146-31.277-19.301-49.18-19.912-20.039-.684-42.838 3.201-61.589 10.299-9.21 3.487-18.801 7.92-26.697 13.858-5.371 4.039-13.864 11.779-21.073 11.779 8.634-10.446 19.23-21.248 20.789-35.396 1.477-13.394-4.596-27.63-14.788-36.294-20.362-17.306-53.964-15.739-78.928-14.599zm116.089 574.072c5.315 8.269 12.665 14.983 19.605 21.846 2.394 2.367 7.198 5.379 7.43 9.087.187 3.027-3.525 6.432-5.147 8.811-8.573 12.581-15.633 26.477-26.105 37.651-11.837 12.628-25.346 15.082-42.108 15.118-18.611.041-37.47 2.371-56.048 1.388-15.738-.831-31.25-7.841-39.076-22.092 5.098-2.629 12.353-1.376 17.878-1.317 7.534.079 14.889-.057 22.332-1.367 6.746-1.188 13.413-2.97 19.758-5.573 3.283-1.347 6.531-2.887 9.554-4.758 2.214-1.369 3.878-3.467 6.053-4.81 8.02-4.955 17.282 10.798 25.855 10.495 5.251-.184 3.351-5.351 1.165-8.241-3.944-5.22-10.824-8.441-16.019-12.246 4.837-4.454 10.301.217 14.906 2.544 5.757 2.91 11.738 6.481 18.171 7.574-.482-8.293-11.759-12.738-17.98-16.112-2.768-1.501-6.238-2.893-6.919-6.195-.513-2.483.365-6.014.625-8.521.329-3.188.573-4.206 3.966-5.105 4.114-1.09 8.258-.775 12.38-2.136 11.28-3.726 20.055-9.258 29.724-16.041zm366.615-130.69c2.75.764 5.53 1.425 8.33 2.016 5.54 1.169 11.09 2.383 16.64 3.443 2.79.532 5.88.195 6.71 2.856.42 1.364-.64 3.816-.83 5.233-.32 2.555-.35 5.146-.38 7.72-.29 23.713 4.67 47.288 2.49 70.998-1.85 20.039-6.16 45.378-20.87 60.302-6.35 6.441-14.17 13.437-22.164 17.839-6.268 3.449-15.025-5.209-16.306-11.204-.917-4.295.613-8.829 1.609-12.97 1.278-5.306 2.572-10.609 3.836-15.918 2.701-11.332 5.157-22.77 5.933-34.419.255-3.827.2-7.514-.016-11.324-.117-2.069-1.091-7.056.356-8.828 1.872-2.292 6.147-.794 8.678-.599 2.776.216 5.484.05 8.194-.659 6.46-1.688 7.59-6.82.54-9.198-4.92-1.659-13.915.745-18.049-2.449-4.857-3.753 4.96-4.268 7.252-4.366 3.053-.129 13.177.67 12.657-5.023-.38-4.219-9.094-4.5-12.144-4.679-6.515-.383-14.758 2.058-17.574-5.8-1.129-3.148 5.667-4.747 7.371-6.308 4.144-3.794 5.503-10.299 5.858-15.629.351-5.241-4.806-23.408 3.051-23.889 2.413-.147 6.418 2.189 8.828 2.855zM616.363 707.954c4.624 5.508 8.62 11.541 12.927 17.298-10.101 5.576-20.432 10.06-30.877 14.854-4.749 2.181-8.078 3.91-12.675.604-3.298-2.372-5.77-5.742-8.988-8.209-4.625-3.542-9.459-6.79-14.2-10.167 13.99-5.106 28.194-9.588 42.18-14.705 5.231-1.914 7.856-4.175 11.633.325zm115.196-17.495c-2.991 3.035 2.769 11.443 3.903 14.32-9.277-.736-18.476-2.199-27.585-4.082-3.103-.64-1.959 3.137-.798 4.383 1.435 1.543 4.306 2.009 6.225 2.559 7.061 2.024 14.303 2.999 21.549 4.079-3.316 4.082-11.295 10.467-8.725 16.605 4.634-3.995 7.965-9.311 13.091-12.765 1.481 2.211 4.553 10.007 7.92 9.53 5.286-.75-.069-9.861-1.174-12.055 3.559 0 16.935 3.125 18.801-1.258 1.909-4.484-10.998-4.34-13.384-5.399l.445-.543.446-.539c1.785-2.151 3.498-4.272 3.74-7.227-3.992 1.376-6.657 7.632-11.043 7.722-4.16.087-6.016-6.165-7.498-9.126-.842-1.683-3.704-8.445-5.913-6.204zm-450.08-58.97c-8.944 7.546-2.869 22.766 3.899 29.609 7.582 7.665 24.462 14.707 34.072 6.893 5.261-4.277 3.363-10.801 2.066-16.49-1.439-6.322-2.335-11.651-7.569-15.99-8.143-6.749-23.395-11.677-32.468-4.022zm18.154 4.385c8.725 1.856 17.566 10.577 19.64 19.565 2.72 11.785-9.511 12.647-17.568 10.875-10.136-2.228-20.904-9.663-21.421-21.325-.446-10.065 12.569-10.557 19.349-9.115zm634.91-50.955c13.065 4.864 25.347 11.521 39.055 14.407 4.184.881 5.902 1.845 6.936 5.743 1.449 5.457 2.822 10.987 1.788 16.688-2.148 11.837-18.614 10.386-27.758 9.922-4.694-.239-13.723.62-17.795-2.31-2.976-2.14-1.727-6.153-1.264-9.277 1.734-11.679-.157-23.501-.962-35.173zM222.18 472.123c4.811.907 13.127 4.829 6.231 9.746-4.602 3.279-11.45 3.678-16.855 4.488-10.56 1.582-21.831 2.949-30.994 8.908-16.979 11.041-14.899 31.876-9.821 48.927-3.657 2.155-14.401-11.934-16.426-14.225a5168.194 5168.194 0 00-24.728-27.797c-3.543-3.95 25.497-17.593 28.106-18.822 13.796-6.492 26.672-10.767 42.146-11.881 7.338-.529 15.079-.713 22.341.656zm59.894-34.56c1.319 3.325-.991 4.832-3.112 7.129-11.863 12.837-20.216 31.007-26.821 46.944-3.293 7.947-5.6 15.96-7.64 24.286-2.001 8.169-8.357 10.353-15.972 12.672-17.542 5.342-36.008 7.13-53.611 12.406-4.717 1.414-5.642-8.959-5.938-11.591-.843-7.484-.06-15.296 3.872-21.894 7.433-12.472 22.332-15.123 35.623-17.248 7.601-1.214 17.616-2.469 23.631-7.667 3.019-2.609 3.446-5.603 1.092-8.844-4.294-5.913-11.853-6.672-18.606-7.154-3.29-.235-23.657 1.824-24.323-.587 10.141-3.305 20.55-5.486 30.543-9.266 7.795-2.95 15.652-5.735 23.518-8.496l7.866-2.758c8-2.806 15.323-6.22 22.999-9.599 2.883-1.268 5.528-1.739 6.879 1.667zm-172.02 54.09c2.539 3.417 5.059 6.286 6.963 10.125 2.222 4.478 5.907 7.335 8.988 11.18-16.001 2.825-31.264 6.412-46.68 11.586-7.915 2.657-16.09 3.969-24.187 5.872-6.791 1.596-14.029 4.071-21.061 2.607 8.01-11.042 29.372-7.989 34.996-21.362 3.827-9.097-5.578-16.354-13.27-17.933-13.432-2.757-27.752-2.97-41.396-3.952-.143-5.222 49.384-7.926 54.28-8.349 8.697-.753 17.77-2.384 26.45-2.685 8.055-.28 10.688 7.223 14.917 12.911zm188.992-38.193c4.771 4.613 9.441 9.327 14.207 13.946 3.133 3.037 7.378 6.271 9.848 9.889 3.153 4.62-2.37 6.84-6.051 9.027-9.29 5.519-18.891 10.671-28.344 15.922-8.493 4.717-17.325 10.721-26.7 13.48-5.013 1.475-9.721 3.766-14.556 5.703 2.333-20.944 14.353-39.967 25.439-57.427 2.545-4.009 5.174-7.963 7.72-11.971 1.282-2.018 3.662-6.781 6.351-7.192 3.973-.609 9.677 6.293 12.086 8.623zM55.983 506.765c-5.811 3.331-11.636 5.023-18.19 2.507a109.818 109.818 0 01-4.786-2.087c4.367-5.959 17.284-2.327 22.976-.42zm481.287-72.887c10.301 4.646 21.319 9.274 30.277 16.283 3.307 2.588 10.697 8.024 8.967 12.954-1.479 4.221-9.66 7.816-13.543 9.102-20.434 6.767-43.691 1.844-62.506 14.262-5.092 3.361-6.752 7.753-10.534 12.172-3.421 3.996-7.75 3.5-12.348 1.842-6.036-2.178-11.598-5.513-17.659-7.651-3.098-1.093-8.364-1.817-8.686-6.001-1.516-19.718 2.689-44.84 20.064-56.905 19.504-13.544 46.411-4.877 65.968 3.942zm11.047 45.951c.498 2.5-18.835 7.027-20.935 7.606-11.674 3.217-22.58 10.865-34.672 12.099-2.103-4.691 14.647-12.161 17.296-13.123 12.088-4.393 25.616-5.189 38.311-6.582zm-379.642-8.757c-14.657 6.009-28.864 13.366-41.149 23.597-4.238 3.528-14.533-13.215-16.838-15.783 19.521-.811 38.76-4.537 57.987-7.814zm273.942-117.781c13.587 8.981 25.421 20.722 40.339 27.607-4.668.735-9.764-2.288-14.221-3.349-4.342-1.032-8.732-1.714-12.959-3.175-2.596-.898-13.317-6.696-15.329-2.766-3.143 6.137 18.998 10.384 22.146 11.431a1138.44 1138.44 0 0131.715 11.083c10.192 3.726 20.377 7.735 30.909 10.411 10.696 2.717 22.038 3.418 32.321 7.638 9.094 3.732 16.91 9.908 25.681 14.267 8.797 4.371 18.795 7.075 26.377 13.581-8.245 8.802-17.996 16.174-28.663 21.785-1.709-13.424-17.436-21.067-28.196-26.227-23.457-11.25-58.687-28.212-82.596-9.149-17.474 13.932-19.841 40.368-19.841 61.064-4.733-1.508-9.055-3.906-13.452-6.17-3.045-1.569-3.08-5.937-3.462-8.854-.628-4.778-1.919-9.405-3.402-13.988-3.281-10.139-7.387-20.03-11.301-29.934-6.334-16.022-14.141-31.824-18.033-48.68-2.541-11-5.563-29.908 7.694-35.368 11.47-4.723 24.96 2.639 34.273 8.793zm59.338-44.774c2.216 1.485 1.389 5.941 1.238 8.177-.55 8.13-.205 16.294-.477 24.439-.331 9.924-.404 28.123-10.633 33.687-6.997 3.806-15.698-1.897-21.281-5.78-9.447-6.568-18.114-14.196-27.692-20.608-11.355-7.602-32.87-18.118-43.735-3.817-5.88 7.739-5.055 19.272-3.589 28.277 1.937 11.881 6.46 23.149 10.954 34.252 9.282 22.928 18.97 46.228 24.132 70.496-11.769-6.997-20.921-17.083-31.193-25.942-7.613-6.567-18.92-14.109-20.677-24.811-.397-2.417-2.736-4.139-4.345-5.756-2.093-2.105-3.568-4.236-4.895-6.921-2.928-5.93-4.831-12.335-6.029-18.824-2.516-13.613-1.317-27.164 1.003-40.698 1.049-6.12-.491-12.687.935-18.653.99-4.143 3.912-3.897 7.8-4.839 13.999-3.393 28.025-6.683 42.032-10.044 5.689-1.367 11.876-3.929 17.783-3.844 4.849.071 8.922 2.962 13.107 5.057 6.87 3.44 17.792 9.457 25.681 6.037 9.193-3.986-1.521-12.985 3.09-17.242 3.161-2.919 12.608-1.168 16.893-1.894 2.349-.397 7.744-2.194 9.898-.749zM357.291 426.083c6.685 1.054 10.557 3.956 14.239 9.648 3.742 5.786 4.188 8.651-1.148 13.179-5.755 4.883-11.775 9.705-17.884 14.102-7.743 5.574-16.333 9.793-23.986 15.503-3.351 2.501-18.563-17.103-21.202-19.792-3.642-3.708-7.378-7.427-11.285-10.84-1.428-1.248-5.903-4.141-5.905-6.262-.006-5.362 11.881-10.16 15.705-11.637 8.57-3.306 17.555-4.641 26.685-4.779 8.094-.123 16.763-.387 24.781.878zm-29.794-23.589c6.277 3.334 12.833 6.144 19.15 9.409 2.241 1.157 16.37 7.095 15.657 10.645-15.901-1.008-31.731-3.7-47.581-.621-7.118 1.384-13.901 3.702-19.85 7.981-4.504 3.238-7.939 9.462-12.412 3.923 9.132-5.177 17.356-12.04 25.454-18.703 3.544-2.917 7.192-5.66 10.789-8.497 2.14-1.687 5.669-5.796 8.793-4.137zm376.104-77.519c4.975.699 9.823 2.017 14.708 3.149 19.79 4.586 39.655 8.703 59.392 13.556 39.369 9.679 79.915 19.011 117.454 34.518-3.156 3.49-11.52.962-15.437.277-7.668-1.34-15.109-3.682-22.684-5.45-7.41-1.728-14.846-3.789-22.317-5.23-3.441-.664-9.51-1.537-9.649 3.624-.196 7.316 14.012 12.787 19.227 15.462 5.576 2.859 10.975 6.02 16.284 9.345 4.196 2.629 11.936 6.133 13.297 11.358-13.619-5.772-27.246-11.52-40.78-17.487-5.099-2.248-10.264-4.366-15.118-7.108-3.236-1.829-7.401-5.038-11.233-5.326-5.188-.391-6.048 4.323-3.862 8.126 2.736 4.76 8.381 7.446 12.534 10.778 5.294 4.248 9.979 9.259 14.745 14.068 3.957 3.991 9.052 7.921 11.118 13.318-7.113 2.38-15.196-5.249-20.422-9.02-8.214-5.926-15.864-12.371-23.7-18.775-4.008-3.276-8.787-8.582-14.063-9.559-6.686-1.241-6.133 6.407-4.511 10.622 3.624 9.423 12.108 17.28 12.715 27.902.373 6.54-5.164 4.051-8.858 1.428-6.221-4.418-10.431-11.15-16.077-16.217-13.595-12.203-29.158-22.613-45.976-29.842-3.01-1.294-4.093-5.938-5.008-8.73-1.365-4.166-2.937-8.206-4.578-12.278-3.597-8.92-6.546-18.561-11.585-26.801-1.405-2.298-5.031-4.64-2.032-5.992 1.63-.733 4.733.047 6.416.284zm-143.567-15.089c5.094.595 10.25.541 15.354 1.079 8.33.879 4.696 11.016 6.038 17.124 3.952 17.982 23.003 21.378 37.439 12.895 8.122-4.774 12.998-11.616 17.365-19.619 2.49-4.562 4.345-5.297 9.497-4.155 3.534.785 6.751.618 10.347.879 4.526.328 4.921 1.288 5.013 5.597.081 3.826.632 6.477 3.178 9.577 4.853 5.904 12.991 9.791 19.924 12.758 6.945 2.973 14.812 5.183 18.626 12.209 1.923 3.543 3.983 7.772 4.54 11.8.608 4.399-.884 7.129 1.681 11.187 5.331 8.437 7.774 17.658 10.469 27.246.879 3.124 1.226 4.409-2.182 5.268-4.89 1.233-11.836-.638-16.854-.835-3.58-.14-5.671-6.455-6.835-9.014-2.262-4.976-5.036-9.687-7.814-14.396-6.296-10.668-13.028-21.265-21.252-30.585-6.207-7.035-15.371-15.792-23.319-5.907-7.746 9.634-13.329 20.917-22.645 29.315-8.193 7.386-16.636 7.504-25.133.504-8.366-6.892-14.724-16.294-19.924-25.676-5.623-10.144-9.864-20.975-15.344-31.181-1.718-3.199-9.651-11.853-7.234-15.559 1.632-2.503 6.774-.778 9.065-.511zm-42.664-2.213c4.484.212 8.996-.292 13.481-.381 8.116-.161 14.903.123 18.979 7.904 3.598 6.866 6.662 14.171 9.945 21.202 7.133 15.275 14.13 30.904 25.081 43.902 9.701 11.515 22.234 17.316 34.855 6.316 5.595-4.878 9.846-11.171 13.862-17.356 3.219-4.958 6.892-13.685 12.286-16.576 6.013-3.223 12.897 4.17 16.573 8.182 6.18 6.744 11.345 14.675 16.307 22.334 3.597 5.554 7.043 11.226 10.539 16.846 1.417 2.279 7.192 9.733 5.27 12.572-1.927 2.846-11.333.9-14.055.64-6.498-.62-12.987-.844-19.489-1.404-20.222-1.74-40.144-6.185-60.418-7.372-13.355-.782-26.514-3.365-39.66-5.711-12.782-2.281-25.647-3.838-38.293-6.853-7.435-1.773-14.885-3.548-22.305-5.387-2.568-.636-14.705-2.371-15.459-5.709 8.357-1.46 12.745-4.703 15.708-12.86 3.711-10.216 4.143-21.601 4.459-32.365.122-4.141.142-8.284.144-12.426l.001-4.971c.001-2.971-1.282-8.362 1.394-10.422 2.478-1.907 7.925-.242 10.795-.105zm-165.904 65.972c-.35 13.461 2.055 27.029 7.582 39.327-5.781.927-12.658-6.33-17.508-8.76-1.868-.938-14.238-5.435-10.096-8.873 7.62-6.323 12.616-15.157 20.022-21.694zm-165.791 10.947c-1.696 3.347.399 7.596 1.533 10.771-8.822 2.121-17.608 4.204-26.497 6.004-6.699 1.357-4.362 5.377 1.453 5.1 8.087-.386 15.611-3.813 23.659-4.258 7.665-.425 8.567 6.271 15.103 7.561-.222-3.685-3.201-6.243-5.34-9.006 3.527-1.811 7.13-3.494 10.551-5.489 1.772-1.033 6.668-5.366 4.783-7.668-1.903-2.323-6.893 2.031-8.668 2.99-2.525 1.364-7.563 4.369-10.532 3.507-4.068-1.181-3.221-7.023-6.045-9.512zm127.115-87.709c3.579.248 7.472-.957 10.862.619 3.38 1.572 7.414 5.012 10.24 7.398 2.737 2.31 4.098 5.115 7.501 6.478 3.398 1.363 6.88 1.243 8.19 5.4-3.083.846-9.136-.276-11.551 1.992-3.512 3.299 2.616 6.93 5.159 7.969 3.647 1.489 6.629 1.005 10.357.726 1.622-.12 1.607-.62 2.936.184 4.929 2.98 1.519 13.583-.08 17.45-7.822 18.931-34.548 12.556-49.961 10.618 4.905-4.944 12.937-10.396 13.342-18.16.121-2.312-.452-6.444-3.419-6.637-2.372-.153-5.219 3.432-6.696 4.845-4.379 4.188-10.045 11.133-16.378 11.734-8.466.804-14.979-12.914-18.49-18.897 4.315-.811 9.043-.764 11.551-4.999 2.982-5.034 3.034-12.747 2.982-18.415-.045-4.826-1.582-10.105 4.866-10.342 5.94-.218 12.592 1.621 18.589 2.037zm568.462 12.377c1.234 2.692 6.593 3.747 8.947 4.467 8.95 2.735 17.69 6.21 26.417 9.617 17.617 6.88 35.042 14.479 51.129 24.59 3.006 1.891 1.534-1.756.753-3.071-1.751-2.948-5.429-5.034-8.177-6.839-7.434-4.889-15.308-8.323-23.528-11.592-16.449-6.542-33.148-13.479-50.017-18.778-1.957-.615-7.181-2.011-5.524 1.606zM676.93 322.59c3.271.338 7.101-.405 10.246.662 4.099 1.392 3.423 4.207 4.636 7.668 2.057 5.876 4.259 11.702 6.406 17.547-7.947-.371-15.558-6.664-22.292-10.287-3.813-2.05-17.067-8.857-13.071-15.088 2.531-3.944 10.444-.879 14.075-.502zm-90.439-10.243c4.921-.089 10.331 1.401 15.312 1.648 6.677.333 13.253 1.603 19.922 1.91 4.387.203 8.695 1.105 13.035 1.696-4.318 10.01-12.747 18.765-23.339 22.391-8.356 2.861-20.05 3.346-25.759-4.569-3.284-4.553-8.65-22.905.829-23.076zM330.263 271c5.365 3.566 9.666 8.676 14.148 13.235 11.227 11.419 22.845 23.644 27.706 39.297.667 2.144-4.395 4.039-5.765 4.122-2.895.175-3.484-1.286-4.621-3.733-2.813-6.06-3.891-12.83-8.391-17.997-5.485-6.301-12.088-12.443-18.454-17.855-4.326-3.678-14.927-8.856-16.17-14.936-1.47-7.188 8.298-4.292 11.547-2.133zm138.408 41.594c3.034.883 3.276 3.692 3.969 6.718 2.79 12.16-25.419-1.107-29.347-3.095 1.306-3.904 14.163-3.192 17.14-3.345 2.318-.118 5.997-.931 8.238-.278zm-166.628 6.316c4.18.161 2.253-16.921-2.499-15.203-4.075 1.474-.18 15.098 2.499 15.203zm587.642-19.641c6.4 5.527 16.449 6.268 24.407 8.043 11.727 2.614 23.351 5.946 34.982 8.953 7.345 1.898 3.21-2.629-.467-4.33-6.323-2.925-13.482-4.484-20.24-6.094-7.317-1.742-14.794-2.906-22.069-4.806-5.037-1.317-11.534-4.685-16.613-1.766zM690.56 180.471c-7.113 1.307-14.213 3.583-20.449 7.311-5.162 3.086-4.957 7.888 1.587 5.102 30.526-13 68.404-5.125 98.212 6.386 3.289 1.269 3.044-1.5 2.05-3.635-1.368-2.941-4.293-4.648-7.101-6.014-8.436-4.104-18.162-6.425-27.335-8.131-15.288-2.841-31.604-3.84-46.964-1.019zm-4.461-18.672c-3.878 1.053-8.334 3.664-10.707 6.976-2.776 3.875-.568 5.856 3.284 3.577 4.3-2.544 8.232-5.08 13.167-6.424 2.605-.709 2.5-2.343.628-3.778-1.751-1.344-4.47-.867-6.372-.351z" fill="#000"/></svg>