<svg width="489" height="431" viewBox="0 0 489 431" fill="none" xmlns="http://www.w3.org/2000/svg" preserveAspectRatio="none"><path fill-rule="evenodd" clip-rule="evenodd" d="M29.129 73.253l402.378 320.632L489 315.346 57.493 0 29.129 73.253z" fill="#F6EDEE"/><path fill-rule="evenodd" clip-rule="evenodd" d="M171.076 266.165l3.767 37.877 20.507-11.655v36.324c0 .669-.399 2.967 0 3.546.338.492 2.843.506 3.435.589 3.865.539 7.74 1.018 11.619 1.445 10.225 1.124 21.17 2.736 31.434 1.443 8.922-1.123 17.572-4.284 25.723-7.962a143.117 143.117 0 008.454-4.149c.587-.313 2.718-1.053 3.038-1.69.26-.521-.351-2.35-.433-2.897l-1.033-6.921-4.811-32.214 9.088 9.038c.712.708 2.064 2.718 3.049 3.032.722.23 2.511-.482 3.225-.619l15.438-2.962c1.198-.231 3.9-.222 4.911-.943.544-.389.57-1.179.762-1.929l3.765-14.691c.226-.882 1.487-3.663 1.167-4.551-.115-.319-.672-.536-1.012-.744a290216.764 290216.764 0 01-36.065-21.938c-1.782-1.084-3.971-3.038-5.99-3.644-1.254-.377-3.078-.095-4.375-.132l-7.908-.224c-.413-.012-1.858-.305-2.206-.063-.289.202-.169.483-.264.963-.232 1.173-.233 2.438-.348 3.629-.091.955.091 2.708-.342 3.573-.276.552.074.332-.299.599-.445.318-1.866.216-2.395.277l-7.75.897c-3.071.355-6.176 1.022-9.262.714-4.678-.465-9.721-.442-14.314-1.423-1.194-.255-1.624-.925-2.545-1.841-1.797-1.787-3.576-3.595-5.393-5.364-.891-.866-.509-.719-1.427-.391-1.151.412-2.317 1.406-3.359 2.038l-11.969 7.261L172.6 265.24l-1.524.925z" fill="#FFAEAD"/><path fill-rule="evenodd" clip-rule="evenodd" d="M404.053 267.734c-5.021 18.985-15.12 39.687-35.465 45.738-4.946 1.471-9.759 2.582-14.896 2.022-.489-.053-.898.015-1.363.024-.834.016-.114.314-1.049.026-.728-.224-1.41-.784-2.169-1.032-2.019-.658-4.172-.785-6.223-1.316a161.189 161.189 0 01-15.122-4.721c-2.3-.848-4.414-2.029-6.578-3.165-2.199-1.155-4.53-1.872-6.754-2.931-1.758-.837-4.769-1.928-6.005-3.498-1.317-1.675.506-5.24 1.027-7.02 1.772-6.058 3.882-12.026 5.214-18.204 4.599 5.308 10.981 8.595 17.589 10.715a65.886 65.886 0 0011.002 2.503c3.386.472 7.039 1.044 10.432.373 2.562-.506 5.778-1.679 7.608-3.627.653-.695 1.436-1.97 1.07-2.98-.464-1.282-1.817-.678-2.55-1.635-.638-.833-.538-2.783-.741-3.797a39.61 39.61 0 00-1.457-5.272c-1.17-3.357-2.629-6.721-2.979-10.294-.303-3.099.405-6.029 1.958-8.718.733-1.272 2.575-4.73 4.373-4.586 1.974.157-.688 8.444-.775 10.135-.345 6.701.557 13.842 4.01 19.715 1.322 2.249 3.234 4.868 6.056 5.146 2.99.295 5.402-2.048 6.825-4.418 3.472-5.783 1.721-13.719-.037-19.78-2.157-7.437-7.788-12.562-11.348-19.241 5.316.532 8.162 3.895 10.889 8.161 3.004 4.697 5.342 10.337 6.494 15.803.583 2.761.181 5.534.185 8.322.001.926 0 4.344 1.517 4.209 1.621-.143 2.176-3.998 2.415-5.174.546-2.697 1.137-5.394 1.612-8.105.84-4.795 1.213-9.706 2.218-14.469.17-.805.508-3.038 1.719-2.435.932.464.783 3.919.817 4.722.084 1.978.202 3.957.217 5.938.024 2.935-.563 5.974-.275 8.891.188 1.907 1.215 4.013 2.489 1.442 1.263-2.549 1.521-5.729 2.225-8.471.74-2.879 1.503-5.801 3.073-8.358.436-.709.904-1.835 1.872-1.502.703.243 1.222 1.903 1.44 2.489.98 2.648.814 5.592.752 8.364-.076 3.397-.442 6.718-1.312 10.011zm-97.911 4.927c-.268-.086-1.408-.194-1.69-.219-.332-.028.044-.637-.757-.463.154.382.429.636.825.764-1.206.407-2.095-.596-2.92-.726-.788-.123-.822 0-1.601.83-.843-1.024-.685-.385-1.378-.385-.253 0-.264.38-.674.334-.359-.04-.396-.581-.609-.645-1.15-.347-2.334 1.398-3.639-.115-.316 1.575-3.939-.398-5.333-.121-1.462.289-.831.811-2.012-.081-1.125-.849-.812-.285-2.12.41.03-.016-.739.502-.668.51-.906-.106-.854-1.039-2.002-.989-1.214.053-1.733 1.001-2.844-.166-.242.874-.292.497-.861.717-.314.075-.588-.008-.823-.245a.594.594 0 01-.469.441c-.621.056-1.785.142-2.349-.156-.845-.446-.165-.618-.752-1.12-.262 1.385-.838 1.09-2.053 1.22-.927.099-1.131-.185-2.016-.322-.872-.136-1.998.201-2.849.345-.351.059-.821.303-1.178.217-.322-.077-.46-.326-.652-.391-.234-.078-.184-.282-.588-.38-.278-.068-.776.192-1.054.237-1.983.32-3.887.324-5.778-.453.932 1.63-2.177.75-2.731.075-.693 1.081-1.53.318-2.927.402-1.344.082-3.366.492-3.911-1.176-.107.339-.87 1.323-1.174 1.473-.881.435-.986-.209-1.805-.471-1.115-.357-.883.321-1.574.458-1.168.233-1.799-.586-2.831-1.021-.043.677-.066 1.093-.653 1.514-.52-1.886-2.377.155-2.058-2.367-.706.458-1.7.81-1.902 1.737 1.182-.324.126.445.077.471-.156.081-.684-.657-.806-.76l-.1 1.043c-.471-.234-.912-.654-1.294-.864-.345-.189.149-.584-.433-.611-.306-.014-.626.647-.948.703-.492.086-.255-.617-.461-.593-.314.036-.824.493-1.062.484-.777-.029-.251-.389-.844-.555-1.061-.295-.992.395-1.755.645-1.743.57-1.568-2.054-3.342-.304-.425.419-.698 1.065-1.279 1.029-1.205-.075-.782-1.497-.537-2.193.253.124-4.399 2.504-4.362 2.411.029-.571.76-1.011.107-1.517-.535 1.142-1.098 1.162-2.331 1.375-.599.103-.717.241-1.358-.007-.409-.158-.683-.807-1.09-.842.055.005-.691.57-.804.621-.673.302-1.099-.041-1.753.083-.558.106-.777.579-1.332.449-.74-.172-.305-1.053-1.324-.807-.348.084-.557.752-1.106.89-.855.216-1.903-.186-2.807.024-.717.166-1.25.237-1.877.272-.507.028-.299-.365-1.231.099l-.396-.993-1.401 1.254a6.632 6.632 0 01-.168-1.139c-.697.695-1.574.814-2.51.876-1.014.068-1.77.288-2.756.473-.312.058-1.115.151-1.372.042.038.016-.479-.198-.323-.157a6.458 6.458 0 01-.188-.416c-.087-.392-.37-.409-.848-.052-.248-.038-.728-.361-.974-.281-.637.205-.55.696-1.184.624-.411-.047-.621-.652-1.05-.693-.655-.063-1.223.668-1.814.827 1.796-.485-2.329-.109-1.046-.075-.841-.022-1.714-.064-2.491.312-.429-.293.092-.88-.342-1.122-.394-.22-.424.36-.47.373.248-.07.124.423-.124.51-.774.273-1.393-.421-1.433-1.11-.658.985-.842.589-1.809.65-.954.06-1.776.558-2.73.549-1.887-.018-3.168-.671-3.798-2.349 2.011.244 4.035-1.044 6.001-.741.646.1 1.05.584 1.616.498.697-.106 1.184-.864 2.079-.945 1.972-.18 3.917-.005 5.903-.306 2.373-.36 4.848-.573 7.244-.398 1.851.135 3.349-.569 5.226-.705 2.427-.176 4.874-.207 7.305-.334 2.498-.131 5.186-.528 7.677-.401.778.04 1.447.116 2.219.07.326-.02.635-.241.978-.208.446.043.637.498 1.1.482.786-.027 1.627-.672 2.561-.689 1.537-.029 3.067-.026 4.608-.113 1.356-.077 2.809-.392 4.159-.375.953.012 1.188.82 1.743.903.998.15 6.047-2.711 6.483-.143 2.629-1.791 6.154-.274 9.079-.611 3.759-.433 7.587-.047 11.371-.201 3.85-.157 7.811-.012 11.647.35 1.588.15 3.123.29 4.716.199.71-.04 1.531-.221 2.242-.058.172.04 1.489.955 1.325.982.72-.643.233-.738 1.499-.771.975-.025 1.898.185 2.868.242 1.741.102 3.496-.138 5.233-.085 1.451.044 2.869.257 4.327.268 1.572.011 3.429.055 4.566 1.318l-.36-1.189c1.755.137 3.489.76 5.263.469-.449.428-.905.778-1.076 1.405.956-.121 1.604-.786 2.611-.791.846-.005 1.022.418 1.915-.128l.33 2.006c1.237-.29.425-1.208.516-2.036 1.005.301 1.856-.045 1.46 1.396-.306 1.11-1.698 1.657-2.745 1.319zm-1.738 12.368c-.431 1.207-4.161.518-5.043.39-1.14-.164-2.444-.425-3.494-.554a1.832 1.832 0 00-.452-.426 1.076 1.076 0 01-.501.389c-.482.105-.484.601-1.117.491-.03.734.482.317.874.583-.988.659-.536-.1-1.09-.088-.137-.194-.328-.27-.574-.228a2.652 2.652 0 00-.863.399c-.246.26-.458.273-.634.041a1.099 1.099 0 00-.617-.313c-.973.158-1.245.587-2.34.517-1.564-.1-3.257.311-4.797.094-.955-.134-2.55-1.627-2.983-.171-.66-1.08-1.712-1.814-2.343-2.917 2.943-.17 5.885-.371 8.831-.477 2.579-.093 5.401.196 7.811.075 2.258-.113 4.649-.362 6.954-.567 2.444-.217 3.253.316 2.378 2.762zm-76.787.178c1.069.295 2.087-.373 3.123-.162.343.07 1.052.691 1.209.703.285.023 1.124-.587 1.484-.669 2.276-.516 5.034-.461 7.31-.143 1.207.167 1.391-.383 2.444-.65 1.095-.277 2.65-.063 3.802-.14 2.711-.181 5.421-.052 8.113-.25 2.764-.202 5.514-.312 8.279-.454 1.884-.096 6.411-1.166 7.972.226 1.288 1.149-.371 3.142-1.659 3.597-.963.34-1.424-.376-2.139-.307-.814.077-.531 1.035-1.257.147-.45.883-3.28.507-4.092.565-1.767.127-3.262.481-4.465-1.162l.244 1.421c-1.595-.849-3.307-.577-4.692-.281-.686.146-2.79 1.159-3.533.722-.512-.3.389-.814-.473-1.07-.452-.135-1.232.613-1.784.575-1.529-.104-1.095-1.128-2.596.175-.509-.438-.678-1.183-.611-1.821-1.091.926-.999 2.47-2.949 2.187-.727-.105-.86-.843-1.239-.979-.807-.29-.899.231-1.598.644-.264.156-.585.407-.896.438-.638.063-.74-.229-.827-.219-.425.047-.96.261-1.464.108-.452-.138-.584-.933-1.381-.747-.762.178-.769.694-.63 1.466-.752-.078-1.207-.495-1.77-.946-.568 1.319-1.763.226-2.425 1.339-.861-1.024-1.414-.742-2.483-1.743l.158 1.253c-.834-.16-1.205-.746-1.917.029-.691-1.281-2.785.544-3.86-.693-.479 1.567-3.651 1.192-4.991 1.219-1.187.025-2.066-.072-3.226.202-1.025.243-2.446.495-3.41.384-.63-.073-1.318-.188-2.103-.103-1.132.122-2.109.705-3.281.43-1.765-.416-2.846-2.725-.881-3.738 1.345-.695 3.769-.438 5.249-.566 2.453-.212 5.203-.657 7.659-.455 1.917.158 3.663-.297 5.618-.489 1.472-.145 3.885-.406 4.844 1.047.369-.424.331-1.308 1.124-1.09zm-26.856 19.888c-.264-1.307 10.952-2.026 12.065-2.112 2.338-.179 4.682-.307 7.025-.366 1.925-.049 3.723.317 5.649.023 1.799-.275 3.971-.839 5.536.43.231-1.735 6.982-.89 8.267-.885 5.591.02 10.941.033 16.35-.312 3.091-.197 6.373-.462 9.464-.308 1.395.069 2.518.439 3.904.118.905-.209 1.879-.645 2.744-.029 1.013.722 1.445 3.171.748 4.193-.508.745-.958.662-1.769.534-1.247-.198-2.174-.485-3.446.02.206-.083-.852.153-.765.146-1.441.107-3.417 1.11-4.658-.046.497.087 1.22-.797.593-.87-.471-.055-.77.448-1.137.617-1.257.576-1.901.395-2.652-.813-1.513 1.305-1.677.944-2.341-.663-.512.392-.622 1.321-1.025 1.625-.059.046.188.61-.103.586-.269-.021-.358-.462-.565-.496-.133-.023-.202-.409-.328-.433-.138-.025-.279.221-.435.214-.416-.019-1.606.863-1.179-.375-.631.799-.902.289-1.129-.437-.728.551-1.455 1.102-2.184 1.652-.338-.936-.92-.681-1.653-.354.221-.651.082-1.266-.472-.814-.321.262-.536 1.094-.864 1.447-1.329-1.34-1.812-.973-3.648-.798-.701.066-1.571.195-2.197-.227-.551-.37-.862-1.73-1.803-.631.21-.245-.119 1.632-.177 1.93a4.088 4.088 0 01-1.058-1.028c-.542 1.068-1.963.11-3.128.328-1.835.344-3.726.922-5.347-.437-.114.439-1.441.998-1.443 1.015.079-.777.571-.504-.435-.652-.185-.027-.395.305-.569.341-.6.124-1.3.006-1.904-.011-2.513-.072-4.814.483-7.296.684-.836.068-1.828.201-2.614-.113-.809-.325-.787-.692-1.605-.483.259-.066-.512.74-.47.709-.11.08-.569-.313-.733-.284l-.142.516-.592-.073c-.54.072-1.027-.471-1.534-.49.094.004-1.368.545-1.301.578-1.021-.506-.728-.36-2.022-.051-1.223.292-2.442.224-3.697.405-3.651.529-1.476-1.294-1.925-3.52zm-3.225 18.181c-.686-.97 1.14-1.305 1.724-1.391.959-.141 2.232.14 2.872-.012.974-.231 1.914-.781 3.01-.931 1.383-.188 2.778-.219 4.167-.337.463-.039 1.036-.198 1.486-.171.67.04.949.393 1.49.396.922.004 2.06-.576 3.005-.682 1.21-.137 2.432-.201 3.648-.261 2.562-.126 5.098-.074 7.659-.077 1.168-.001 4.278-1.209 4.86.145.81-1.026 2.887-.886 4.045-.916 2.039-.052 4.057-.248 6.095-.342 1.745-.081 3.694.291 5.408.03.944-.143 1.257-.444 2.328-.308.795.1 2.008-.319 2.691-.133-.036-.01.852.538.575.555.305-.019.287.193.623.098.442-.124.239-.677 1.154-.873 1.428-.307 3.332.048 4.815-.031a74.846 74.846 0 014.316-.102c.663.003 1.483-.155 2.128-.026.316.063.988.474 1.256.432.759-.118 1.145-.643 2.171-.61 1.164.037 2.211.021 3.367-.068 1.12-.085 1.3-.244 1.855.684.55.92.702 2.119-.311 2.745.658-.043 1.467.834.692 1.32-.479.3-1.439-.377-2.013-.329-.706.061-1.261.433-2.03.456-.808.024-1.629.227-2.426.243-.831.016-1.459-.354-2.246-.196-.693.138-.766.704-1.601.207-.415-.247-.485-1.162-1.05-1.171-.759-.011-.456.964-.892 1.416-.117-1.395-1.199.914-1.629-.78-.396.562-1.863 1.349-2.574.897-.648-.411-.433-1.343-.703-2.014-.449 1.206-1.654 2.458-1.545.261-.586.718-2.168.605-1.772 1.861-.476-.009-.589-.687-.991-.739-.346-.044-.622.221-.675.217.19.016-.567.267-.579.27.513-.104-1.48-.281-1.14-.278-.463-.004-1.028.373-1.569.372-.492-.001-.982-.195-1.468-.25-1.26-.143-.998.133-1.789.527-.293.146-.367.393-.783.362-.307-.023-.422-.422-.457-.425-.432-.044-.113-.188-.784-.121l-.23.395c-.242.308-.556.386-.942.232-.992.212-4.283 1.131-3.961-.571l-1.513.737c-.216-1.372-2.956.447-3.568.539-.785.117-.857-.183-1.6-.343-.134-.029-.402.411-.716.348-.814-.163-.959-.244-1.099-1.125-.581 1.081-1.063.598-2.116.776-.233.039-.382.496-.717.417-.241-.057-.248-.495-.414-.552-.149-.051-.127-.398-.347-.447-.253-.057-1.115.647-1.362.755-.557.245-1.473.65-2.017.529-.673-.15-.374-.647-1.325-.591-1.5.088-2.125 1.359-3.059-.644-.421.802-.367 1.02-1.044 1.285-.5.196-1.766-.009-2.424-.033-2.811-.103-5.574.851-8.362.601-1.225-.11-2.258-.354-3.495-.155-1.299.211-2.57.519-3.888.644-.67.063-2.071.254-2.399-.599-.29-.751.79-1.263.185-2.118zm5.513 30.801c-3.646 2.429-6.666 5.746-10.013 8.555-3.357 2.816-6.02 5.947-9.039 9.065-2.79 2.883-5.354 5.61-8.728 7.789-2.135 1.379-4.04 3.075-6.233 4.375-1.643.974-4.131 2.254-3.33-.723.822-3.052 2.338-6.137 3.655-8.987 1.872-4.051 3.759-8.065 5.784-12.04.761-1.493 1.187-2.979 2.394-4.169 1.314-1.295 2.234-2.985 3.672-4.208 6.051-5.145 15.17-1.17 21.838.343zm11.437 1.744c-1.654.863-3.505 1.077-5.258 1.648-1.493.487-2.882 1.352-4.488 1.416 1.462-1.094 2.718-2.579 4.367-3.409 1.854-.934 3.537-.254 5.379.345zm72.59 7.196c-6.083-2.045-11.747-5.057-17.672-7.481-1.023-.419-9.022-3.043-8.859-4.291 5.605-1.023 11.378-2.778 16.997-.865 5.112 1.741 9.27 5.917 13.227 9.412 1.032.912 7.417 5.064 6.846 6.387-.396.917-3.472.667-4.199.479-.939-.243-1.479-.811-2.215-1.434-1.231-1.042-2.592-1.693-4.125-2.207zm-11.23-34.155c.924-.847 1.477-2.131 2.36-2.913 1.134-1.004 2.964-.515 4.203.007 3.72 1.565 6.9 4.197 10.597 5.831 4.097 1.81 7.643 4.229 11.339 6.722 3.377 2.279 7.029 4.165 10.477 6.34 3.513 2.217 7.446 3.657 11.008 5.795 3.624 2.176 7.234 4.361 10.718 6.758 6.21 4.276 12.677 8.667 17.272 14.745 2.362 3.125 4.573 6.669 6.306 10.178 1.575 3.189 3.284 7.617 1.242 10.935-1.96 3.186-5.302 5.697-8.13 8.074-1.072.9-2.091 1.994-3.479 2.384-1.689.474-3.659.343-5.396.484-9.286.75-17.937.042-27.089-1.612-8.824-1.595-17.685-2.488-26.576-3.597-5.017-.625-10.032-1.353-14.98-2.395-2.115-.445-4.268-.958-6.337-1.565-1.808-.53-3.328-1.696-5.186-2.158-7.888-1.962-16.913-2.711-24.721-6.011 6.91-2.86 14.254-4.588 21.336-6.965 7.454-2.501 14.734-4.6 22.591-5.311 4.043-.365 7.661-1.394 11.55-2.47 3.706-1.025 7.575-1.34 11.382-1.8 1.693-.204 6.524.102 7.085-2.102.836-3.281-3.911-3.66-5.935-3.366-2.871.417-5.238 1.13-7.435-1.215-2.243-2.395-4.423-4.847-6.707-7.212-4.235-4.386-8.6-9.457-14.586-11.425-7.303-2.4-15.772-.121-23.058 1.243-7.697 1.442-15.381 2.822-22.934 4.918-3.127.867-7.16 2.779-10.406 2.472-3.2-.303-6.823-.825-9.914-1.744-1.399-.415-2.549-1.186-3.8-1.904-1.628-.934-3.411-1.533-5.138-2.259-3.493-1.468-6.898-2.82-10.666-3.398-3.173-.486-6.543-.774-9.618.334-3.017 1.087-5.69 3.3-7.795 5.664-2.287 2.569-4.177 5.447-6.051 8.317-.899 1.377-1.997 2.579-2.929 3.926-.783 1.131-1.239 2.387-2.067 3.486-1.853 2.459-3.111 5.604-4.233 8.465-1.248 3.177-2.634 6.955-2.336 10.412.113 1.306.23 3.036.738 4.247.645 1.541 1.565 1.502 2.892 2.083 2.279.998 2.918 3.758 5.863 3.22 2.762-.505 5.158-2.772 7.173-4.579 2.627-2.354 5.141-4.837 7.655-7.311 2.579-2.539 5.121-5.355 7.173-8.342.807-1.176 1.437-2.504 2.391-3.575 1.216-1.364 2.581-1.527 4.232-2.071 14.435-4.75 28.94-9.331 43.825-12.468 3.567-.751 7.162-1.721 10.665-2.721 3.716-1.061 5.64.061 8.707 2.079 6.406 4.219 13.979 7.191 21.113 9.943 2.246.867 5.822.922 7.578 2.631-10.408 1.58-20.327 4.621-30.367 7.649-4.949 1.492-9.956 2.787-14.925 4.214-4.97 1.428-9.751 3.278-14.653 4.888-4.878 1.603-10.034 2.256-14.96 3.734-5.029 1.509-10.036 2.546-15.197 3.463-5.212.927-10.388 1.995-15.617 2.824-2.395.38-4.788.774-7.156 1.296-2.317.511-4.556 1.735-6.884 2.019-10.399 1.267-20.594 4.09-30.952 5.686-7.735 1.192-21.19 2.854-26.205-4.874-5.044-7.772 1.144-16.838 6.664-22.395 3.431-3.454 7.287-6.493 11.332-9.197 4.329-2.894 8.494-6.019 12.823-8.909 9.799-6.539 20.424-11.873 30.951-17.127 5.054-2.523 9.935-5.228 14.851-7.995 2.439-1.374 3.79.842 5.718 2.349 1.517 1.185 4.302 4.107 6.424 2.756l.245 1.46 1.866-.847c.417 1.091.368 1.768 1.535 2.341.716.352 2.244.775 2.927.155l.418 1.292c.597-.045.713-1.746.825-2.145 1.023 1.489 2.438 2.733 4.237 3.153.008-.097-.293-1.32-.28-1.327.569-.347 1.287 1.138 1.588 1.457 1.001 1.054 1.597.89 2.702.039.08.087.454 1.059.509 1.041.239-.075.693-.936.742-1.015-.069 1.133 2.127 1.361 2.903 1.118l-.522-.996c2.701-.359 3.761 2.499 6.354 2.354 1.917-.108.379-.525 1.464-1.342.947-.715 1.116.848 1.209.798.181-.188.321-.405.421-.65.35 1.338 3.142 2.539 2.854.339 1.098.437 1.878 1.163 3.093 1.317 1.478.186 3.056-.126 4.53-.248 3.176-.263 6.17-.908 9.032-2.357 1.698-.86 3.504-1.639 5.1-2.676 1.335-.867 3.868-3.501 5.646-2.367-.455-1.337 1.688-.098 1.756-1.821l1.033.775c.207-.45.149-1.161.426-1.554.379-.539.565-.222.889-.525.362-.34.678-1.249 1.112-1.508.448-.267.974.051 1.456-.182.733-.355 3.887-3.818 3.353-.851 1.357-.459.311-.878.48-1.778.34-1.804 1.168-.506 1.993-.349 1.351.258 1.324-.854 2.077-1.662.688-.738 1.981-1.069 1.535-2.351.509.273.617.808.676 1.327zm-81.422-38.523c-1.064 1.181-1.861.676-3.044.503-.126-.423-.343-.481-.648-.176a3.274 3.274 0 01-1.131.396c-.971.238-1.978.137-2.927.498.027-.317.361-.88.147-1.201-.998.687-1.617 1.125-2.842 1.138-.993.01-2.736-.745-3.561.158l-.076-1.055c-.404.2-.755.469-1.054.805-.057-.521-.088-.915-.434-1.336-.656 1.344-1.375 1.375-2.649.862.179.072-1.276-.777-1.22-.542-.46-1.929 6.798-1.77 7.56-1.846 1.903-.192 3.806-.303 5.712-.478 1.807-.165 3.156-.446 4.408 1.056-.558-2.169 4.716-2.062 1.759 1.218zm-83.22-33.643c.2 3.279.933 6.766-.348 9.922-1.029 2.538-3.082 5.403-5.294 7.059-4.53 3.39-8.369-.758-9-5.318-.656-4.755.646-10.566 4.758-13.498 2.456-1.752 4.835-1.631 7.664-1.055.664.136 1.742.084 2.122.741.089.154.009 2.146.098 2.149zm60.156 43.697c-.782.393-1.601.624-2.29 1.159-.24.186-.322.609-.576.766-.463.284-1.124.095-1.606.331-.798.388-1.371.944-2.319 1.302-1.409.532-2.644 1.261-3.976 1.952-2.218 1.152-4.599 2.141-6.919 3.08-1.171.473-4.409 1.396-4.297 3.103-.261.07-.529-.5-1.076-.455-.751.062-1.742.927-2.522 1.14-1.458.397-2.586.432-2.586 2.283-.464-.314-.582-1.082-1.199-1.184-.695-.115-.988.632-1.543.864-.655.274-1.469.012-2.117.303a5.1 5.1 0 01-.946.781 3.61 3.61 0 01-1.053-.032c-1.376.291-2.642.806-4.022 1.074-1.344.262-2.265.357-1.7 1.94-1.438.28-1.789-1.24-3.412-.684a45.075 45.075 0 01-5.924 1.588c-1.059.212-2.165.685-3.232.796-.761.079-1.471-.192-2.22-.108-.904.101-1.629.518-2.564.533-.886.016-1.817-.143-2.687-.299.123.35.277.685.461 1.005-.601-.125-.879-.846-1.39-.953-.535-.112-1.015.439-1.461.317-.19-.052-.063-.635-.403-.747-.309-.101-.44.018-.747-.029-.102-.016-1.387-.086-1.591.022-.358.189.004.543-.067.595-1.208.89-1.222.41-1.761-.52-.79-1.365-1.744-.503-3.18-.742-1.602-.266-2.863.437-4.44.337-1.7-.108-3.697-1.375-5.2-2.115-3.246-1.597-6.41-3.109-9.136-5.529-5.329-4.73-9.663-10.547-12.22-17.206-2.745-7.154-3.266-14.616-3.045-22.206.132-4.565.5-9.127 1.222-13.638.497-3.104.601-8.618 4.114-10.031.604 7.266-1.302 14.67-.1 21.889.362 2.174 1.245 5.071 2.915 6.682 2.473 2.383 3.051-1.062 3.275-2.966.416-3.535 1.19-7.051 1.737-10.569.547-3.517.934-7.073 1.695-10.553.277-1.269 2.514-10.561 4.156-10.121-.332 6.76-1.214 13.403-1.249 20.188-.014 2.721-.259 5.595.136 8.298.203 1.391 1.475 5.474 3.662 5.133 2.025-.315-.2-3.19-.39-4.299-.5-2.935.138-6.587.605-9.5.883-5.514 2.854-11.16 6.076-15.768 2.885-4.125 7.328-8.053 12.68-7.325 2.287.311 4.071.876 5.22 2.956.902 1.632 4.453 3.487 2.395 5.53-1.874 1.86-4.904.371-6.987-.072-2.549-.543-5.282.11-7.415 1.598-3.659 2.553-5.744 7.117-6.424 11.397-.918 5.772 1.534 20.879 10.566 17.493 6-2.25 10.518-10.341 10.015-16.535-.202-2.48-1.176-7.187 2.269-7.857 4.413-.857 5.036 3.988 4.59 7.136-.65 4.58-3.08 8.839-5.861 12.46-2.423 3.155-5.241 5.129-8.157 7.735-.864.772-3.066 2.507-2.696 3.942.405 1.573 3.866 2.02 5.252 2.279 6.855 1.278 14.585.102 21.429-.79 14.065-1.835 27.945-6.353 39.479-14.66.466 5.14 1.053 10.262 1.269 15.421.105 2.504.132 5.044.419 7.534.177 1.532.817 3.672-.931 4.551zm-39 17.909c-.552.287.045-1.452-.109-.877.825.295.861.587.109.877zm58.346-62.199c.877-.963 3.272-3.252 4.032-1.079.283-.926.32-2.298 1.411-1.047.435-1.537 5.23-1.393 6.417-1.461 3.803-.216 7.621-.332 11.411-.708 7.786-.773 15.709-.374 23.524-.4 1.692-.005 3.38-.097 5.06.148 1.621.236 3.325.898 4.977.656 1.47-.215 2.433-.619 3.945-.446 1.81.206 3.566.353 5.391.347 8.075-.03 16.145.296 24.221.309 1.574.002 3.46-.304 4.936.362.548.247 1.145 1.068 1.563 1.158.479.103.195-.641.836-.305.858.45.194 1.833-.374 2.052.34-.131-.613-.26-.517-.265-.453.024-.838.369-1.324.347-.739-.032-1.359-.481-1.955-.876-.01.161.318 1.238-.056 1.292-.322.047-.623-1.015-.656-1.261-1.806 1.587-3.72.702-5.962.903-1.59.143-4.906 1.199-6.016-.454a1.678 1.678 0 01-.424.923c-.317.481-.591.44-.823-.124-.078.004-.851.171-.866.17-.544-.043-1.248-.237-1.801-.284-.856-.073-.698.547-1.38.557-.373.006-1.322-.53-1.971-.563-1.125-.059-2.273.416-3.383.273-.763-.099-1.454-.718-2.203-.742-.933-.031-1.236.678-1.976-.318-.152-.041-.245.545-.306.555.015-.003-.704.103-.789.136-.147.057-.722.319-.896.321-.378.008-.583-.262-.983-.268-.663-.011-2.777.569-2.718-.651-2.363.872-4.379.532-6.805.738-1.113.096-1.812-.053-2.871-.256-1.326-.255-2.206.065-3.529.13-1.271.062-1.671-.474-2.744-.957-.423-.191-.703-.442-1.222-.336-.296.06-.085.556-.173.59-.455.175-.774-.01-1.399.032-1.154.079-1.613 1.039-2.799.138l1.183-.144c-1.135-.479-2.632-.723-2.357 1.021-.968-.135-.13-.792-.606-1.026-.475-.235-1.008.158-1.607.352-1.582.511-2.9.257-4.55.165-1.874-.104-6.258 1.419-7.6-.558-.04.416-.489 1.577-1.087 1.523-.195-.018.348-1.25.41-1.381-.308.653-1.713.777-2.405 1.115l.233-1.052c-.643.682-.955.266-1.712.494-.33.1-.808.779-1.091.819a1.366 1.366 0 00-1.242-.49 2.516 2.516 0 00-.995-.049c-1.327.096-2.537.831-3.857.331-1.143-.434-1.585-1.549-2.267.225l-.538-.946-.663 1.026c-.865-.564-.918-.89-1.913-.683a.856.856 0 01-.718-.039l-.176.521c-.023.436-.153.581-.39.432a1.594 1.594 0 01-.539-.324c-.659.05-1.5.223-2.206.127-.273-.036-1.982-.935-2.11-.795zm20.146-11.742l.232.355c-1.068.562-1.32.239-1.43-.889.522.01.611.924 1.198.534zm.662-.663c.514.226 1.105.671 1.589.075.327.945-2.097 2.234-1.589-.075zm3.324.417c1.08.728-1.512.143-1.507.144.466-.428.967-.476 1.507-.144zm9.293-4.055c.371 1.862 1.392 1.809 3.042.943 2.406-1.262 2.812-3.33 2.98-5.799.161-2.367.452-3.283 2.902-2.789 1.711.345 3.158.055 4.883.008 1.84-.051 2.489.229 2.637 2.115.148 1.889.485 3.323 1.861 4.76 1.4 1.461 3.265 2.334 5.083 3.151.935.42 1.813.873 2.848.964.4.035 2.486-.228 2.53.43.032.494-2.856 1.888-3.163 2.054-1.34.726-2.676 1.377-4.139 1.816-3.367 1.012-6.937 1.072-10.425 1.011-5.623-.099-13.394-2.468-16.756-7.436l5.717-1.228zm-.505-16.126c-.889-.744-1.465-1.867-2.204-2.747-.373-.445-.646-.586-1.001-.808-.373-.234-.584.097-.895-.453-.806-1.422 1.679-3.423-.956-3.97-.892-.186-3.038.518-3.298-.754-.368-1.799 3.08-1.917 3.891-2.83 1.613-1.815.518-4.893 1.5-6.987.93-1.984 3.331-2.336 5.225-2.932 2.64-.83 5.312-1.312 7.992-1.976 1.875-.464 4.988-2.33 6.726-.682-2.682.593-1.123 1.524.665 2.05 2.025.596 4.171.828 6.27.994 2.16.171 4.361.203 6.495-.226 1.973-.396 4.178-2.105 6.247-1.667-1.148 1.988-4.568 3.074-6.647 3.595-1.059.265-1.737.182-1.595 1.498.138 1.274 1.25 2.552 1.502 3.88.332 1.757.042 3.372-.586 5.024-.618 1.626-.762 1.839-.222 3.392.841 2.42-.968 5.093-2.639 6.85-6.758 7.103-19.692 4.413-26.47-1.251zM240.8 181.48c.004.045.027.073 0 0zm2.105 17.927c-.28.208-1.894.645-1.827.017.091-.842 1.545-.538 1.827-.017zm3.679-17.004c-.379-.281-1.44-.165-.664-1.231l.664 1.231zm-25.456-6.736c.483-1.25 1.018-2.412 1.235-3.741.135-.82-.132-1.755 1.018-1.884-1.466-.636-1.481-3.148-1.567-4.451-.119-1.793-.688-4.194.103-5.864.813-1.714 1.909-1.686 2.239.356.13.8-.366 1.058-.459 1.615-.184 1.102.183.86.896.021.295.853.408 2.135 1.606 2.08-.079-.23-.539-.739-.385-1.026.235-.44 1.387.233 1.533.335 1.051.732 1.279 1.401.529 2.324 1.039.112.167 1.017.837 1.253 1.023.36.337-1.346.226-1.645.623.241.831.518 1.225 1.007.232.338.443.689.633 1.052.211.662.647.828 1.308.498 1.324.414 3.152.349 4.339 1.072.542.331.738 1.053 1.191 1.328.51.309 1.192.169 1.74.363-.2.453-.038.698.486.736.407.037.801.129 1.182.274.285-.214.595-.383.93-.506.225.395.543.493.954.294 1.221.227 1.808.687 2.584 1.375.697.618.13.668.893.613.307-.022.844-.54 1.546-.439.403.078.793.202 1.168.371.405.346.835.389 1.29.131.74.36.813.998 1.714 1.085.997.097.677-1.141 1.361.605.922-1.851 1.26 1.098 2.212 1.336.986.247 1.093-.55 1.937.32.253.261.239.692.523.969.465.452 1.095.362 1.499.979-.225-.345.054 1.221.049 1.169.063.691-.553 1.465.709 1.406-.014.072-.62.953-.739.853a3.143 3.143 0 01-.072-.305c-.136.058-.196.897-.171 1.045.107.016.151-.063.131-.238-.207.647.106 1.058-.293 1.672-.255.392-.953.687-1.325.929a80.293 80.293 0 00-2.645 1.794c-2.036 1.451-4.317 3.202-6.882 3.504 1.288-1.259 8.7-6.026 4.982-7.395-.689-.253-1.944-.494-2.665-.547-.897-.066-1.825.445-2.813.126-1.194-.385-.745-1.502-1.474-1.903-1.548-.85-1.182 1.15-1.67 1.673-.512-.535-.402-.795-1.21-.843-.821-.05-1.016.706-1.974.235-1.319-.648-.621-1.94-2.492-1.97.031-.284.303-1.077-.055-1.298-.481.622-.108 1.318-.555 1.916-.224.3-.709.54-1.063.637-.83.227-.948.662-.813-.583-.615 1.104-2.501.65-3.622.539-1.824-.181-3.762-.525-5.51-1.107-1.616-.539-2.48-1.464-3.813-2.306-.504-.319-.745-.197-1.468-.395-.713-.195-1.408-.574-1.073-1.444zm3.848-19.535c.275-.165.473 2.3.139 2.76-.611-.962-1.693-2.374-.139-2.76zm.879-.983c.885-.798.27 1.263.108 1.609l-.984-.628c.419-.256.523-.663.876-.981zm33.398-3.321c8.178 1.709 16.282 4.904 22.841 10.162 5.975 4.789 10.192 11.584 12.556 18.812 2.455 7.503 1.63 15.827-4.208 21.569-3.076 3.024-7.138 4.849-11.009 6.629-1.855.853-3.764 1.564-5.626 2.398-1.338.598-2.97 1.556-4.496 1.39.778-.816 1.908-.833 2.85-1.332 1.138-.603 2.068-1.76 3.05-2.587.974-.821 3.135-3.406 4.632-2.78-.208-1.377 1.367-2.016 2.077-2.924.751-.961.805-2.084 2.188-2.399-1.486-1.158-1.031-3.341-.708-4.918.414-2.016.605-3.866.768-5.918.294-3.698.531-8.409-1.521-11.661-.666-1.055-1.513-2.026-2.107-3.122-.716-1.322-.558-2.485-.558-3.933-1.309.875-1.585-.911-2.138-1.781-.415-.653-.96-1.018-1.094-1.84-.098-.598.554-.699.197-1.326-.438.33-.613.84-.835 1.314-.404-.161.073-.722-.159-.904-.007-.005-.787-.342-.748-.294-.502-.633-.663-1.685-.909-2.439-.92.464-.748.409-1.773-.366-.181-.136-1.084-.762-1.169-.967-.397-.958.299-.391.104-.985-.558-1.707-3.692-1.384-3.941-3.943-1.528.967-2.111-.402-3.014-1.376-.927-.998-2.48-1.382-2.396-2.964l-1.443.49c.25-1.46-1.929-1.367-2.717-2.108.438.006.873.04 1.306.103zm1.246 90.445c.758-.676.527.223 1.015.12.417-.088.5-.402.9-.498 1.648-.397 4.111.101 5.844.016 2.007-.099 5.448.316 6.404 2.655.576 1.408-.303.929-1.272.824-.751-.08-1.419.071-2.162.063a3.244 3.244 0 01-1.099-.017.686.686 0 01-.315-.493c-1.034-.156-2.133.454-3.278.484-1.529.041-2.887-.251-4.048-1.279-.462.685-.777 1.025-1.607 1.102-.022.002-.833-.323-.958-.356-.166-.043-.587.305-.907.205.568-.901.651-2.086 1.483-2.826zm104.394 8.139c.27-.935.495-1.882.741-2.823 3.773 4.278 7.075 10.004 8.561 15.491.965 3.565 2.467 10.024-2.134 11.863-3.748 1.498-5.838-3.871-6.786-6.516-2.094-5.837-2.094-12.076-.382-18.015zm-168.804-67.03c.049-.01-2.442 1.433-1.622.265.33-.47 1.58-.8 2.135-.8l-.513.535zm-2.396.611c-.288.242-.579.48-.873.716l-.846-1.332c.556-.233 2.916-.409 1.719.616zm-1.755 44.859c-.522-.351-.935-.165-1.091.426 0-.588.307-1.952.778-2.111.305-.103-1.013-1.657-.642-2.063.942.537.378 1.052.654 1.747.124.313.499.609.581.85.139.408.701 1.812-.28 1.151zm-2.554-3.496c-.534.136.401 1.014.4 1.402-.001.293-.354.518-.5.919-.316.87.228 1.457-.668 2.121 0-1.906-1.284-6.954 1.183-7.883-1.203-.944-.215-2.033.728-.904.907 1.087.33 3.97-1.143 4.345zm-1.285-7.519c-.485-1.712-1.945-2.311-3.613-2.21.064-.877.731-2.141 1.213-.561.198-.467.335-1.076.787-1.386.761 2.376 4.554 3.689 2.192 6.263-.193-.702-.381-1.405-.579-2.106zm-4.408-2.082c-8.784.634-21.117 2.449-28.146-4.256-4.583-4.373-4.339-11.182-.635-16.04 2.114-2.772 4.999-4.724 7.897-6.584 1.118-.718 2.066-1.192 3.294-1.604a.857.857 0 01.56.133.96.96 0 01.502-.657c.474-.253 1.149-.343 1.423-.868-.292.986-.442 2-.549 3.019a278.9 278.9 0 01-.709-.823c-.198 1.857-2.14.733-3.299.965.764 1.053 1.31 1.435 1.375 2.827-.568-1.047-1.758-1.734-2.864-2.071.601 1.769 1.025 2.819.42 4.76-.73-.416-.779-1.413-1.665-1.653-.234 1.158-.276 2.441-.575 3.564-2.269-1.03-2.048 1.745-1.137 3.119.485.731.723 1.577 1.155 2.278 1.06 1.721.255-.852 1.433-.73-.264 1.815-.356 1.995.977 3.324 1.302 1.296 1.977 3.094 3.369 4.312.403-.513-.231-1.05-.287-1.541 1.296.216 1.902 1.51 3.147.364.543 1.054 1.131 2.215 2.432 2.431-.86-1.627 1.651-.523 2.294-.292.489.175 1.364.314 1.552.382 1.061.381.334-.304.977.947.946-.284 1.303-1.065 2.433-.405.92.537.922 1.456 1.132 2.398.219-.616.44-1.232.682-1.84.247.104 1.282 1.238 1.17 1.244 2.422-.119 2.337 1.38 1.642 3.297zm-12.334-30.714c.487-.34 1.081.113 1.627-.009.756-.168 1.186-.813 2.031-.883-.235.749-.677.678-1.05 1.266-.127.2-.061.681-.174.796-.947.966-1.274.178-2.24-.553.084.881.254 1.16-.58 1.396-.755.215-2.001-.575-2.382-1.18.321-.64 2.186-.426 2.768-.833zm6.028-1.378c.82.078-.168 2.488-1.344.15a6.605 6.605 0 011.344-.15zm4.217-.466c1.294-.263 5.608-1.487 6.089.518.086-.05.407-1.182.556-1.044.597.554.664 1.287.619 2.056-.723-1.498-.466-.182-.955-.285-.128-.027-.323.211-.647.113-.424-.129-.728-1.028-.996-1.333-.446.634-.999 1.451-1.892 1.396-.632-.039-1.65-1.66-.832.114-.48-.158-1.037-.516-1.572-.444-.599.081-.911.67-1.473.765-1.246.21-1.433-.983-2.242-1.632 1.115-.064 2.244 0 3.345-.224zm7.826-.019c.091-.411 1.223-.577 1.511-.447.704.318.444.738.315 1.437l-1.566-.737c.779 1.249-.633 1.431-.26-.253zm219.109 73.199c-.092-2.995-.179-6.042-.942-8.957-.533-2.041-1.844-5.7-4.323-6.054-3.738-.534-5.808 6.825-6.856 9.351-.209-2.974-.026-6.14-1.154-8.962-.903-2.262-3.184-4.405-5.149-1.864-1.748 2.26-2.084 5.598-2.544 8.317-.597 3.525-.955 7.077-1.39 10.622-1.708-3.286-2.006-7.048-3.356-10.463-1.273-3.223-3.277-6.302-5.208-9.168-1.576-2.342-3.494-4.544-5.963-5.975-2.15-1.246-5.909-2.594-7.958-.524-1.709 1.726-1.442 4.036-1.353 6.215.04.97.193 1.635-.664 2.124-.421.24-1.079.116-1.541.245-.746.207-1.317.558-1.948 1.025-4.421 3.273-6.459 9.17-7.089 14.428-.799 6.662 1.809 12.373 4.053 18.469.357.971 1.493 3.032 1.336 4.117-.172 1.188-1.669 1.219-2.68 1.243-3.052.075-6.242-.151-9.278-.434-7.23-.674-14.454-4.141-20.927-7.235-1.181-.565-2.852-.888-3.816-1.778-.907-.836-1.145-2.175-1.928-3.134-1.92-2.353-3.143-4.361-5.97-5.783-2.879-1.447-5.816-2.785-8.625-4.37-3.474-1.961-6.683-4.446-10.012-6.642-6.186-4.08-12.33-8.553-18.889-12.022-3.047-1.613-6.453-1.874-9.617-3.194-3.081-1.286-6.863-1.287-10.078-.476-1.567.396-2.632 1.334-4.073 1.946-1.688.717-3.065-.074-4.551-.931-2.269-1.308-4.519-3.439-1.287-4.85 1.096-.479 2.47-.661 3.428-1.413 1.021-.803 1.84-2.282 2.671-3.287 1.845-2.234 2.947-4.805 5.649-6.194 2.987-1.536 6.528-1.954 9.713-2.958 3.45-1.088 6.83-2.381 10.216-3.651 6.102-2.287 12.445-4.757 16.83-9.792 3.782-4.344 5.43-9.951 5.277-15.646-.312-11.643-6.574-23.459-15.559-30.738-11.017-8.926-25.032-11.903-38.948-11.747-6.532.074-14.326.925-19.775 4.877-4.708 3.414-5.491 9.384-4.79 14.774.284 2.187 1.255 5.073-.294 7.001-.867 1.078-2.423 1.345-3.59 2.017-1.468.845-2.761 1.654-4.423 2.101-7.06 1.899-14.495 1.238-21.713 1.133-12.023-.176-24.348 3.067-33.317 11.505-7.244 6.813-9.416 19.661-.582 26.304 7.138 5.366 18.333 4.775 26.749 3.839 2.609-.29 4.404-.712 4.41 2.468.006 3.473-.571 7.104.319 10.514 1.401 5.371 6.583 5.499 11.164 4.342 2.417-.61 4.754-1.528 7.049-2.489 3.367-1.409 6.454-3.482 9.779-4.889 2.254-.953 3.942 2.131 5.941-.007.369-.395.438-.984.995-1.186.873-.317 2.338.793 3.104 1.145 1.147.526 2.303.912 2.761 2.179.429 1.184.241 3.068-.17 4.237-.892 2.54-3.294 2.038-5.488 1.868-3.825-.297-7.625-.925-11.449-1.189-3.431-.237-6.644.784-9.603 2.469-6.216 3.539-11.301 9.168-16.69 13.798-2.774 2.382-5.455 4.956-8.472 7.03-1.311.903-2.732 1.732-3.871 2.853-1.131 1.112-1.256 2.123-1.643 3.603-.689 2.635-4.11 3.923-6.249 5.313-3.024 1.966-6.23 3.353-9.62 4.559-7.181 2.554-14.417 4.338-21.923 5.656-3.676.646-7.32 1.07-11.031 1.419-3.199.3-6.601 1.281-9.796.498.921-1.487 2.551-2.38 3.821-3.529 1.637-1.481 3.03-3.236 4.269-5.055 2.412-3.541 4.103-7.341 4.492-11.636.35-3.866-.051-8.49-2.394-11.756-.809-1.128-2.409-1.435-3.133-2.451-.72-1.01-.446-2.749-.84-3.927-1.003-2.996-3.981-6.708-6.602-8.448-2.843-1.888-7.002-2.582-10.286-1.598-6.085 1.823-9.822 8.299-12.606 13.533-1.522-3.187 1.025-7.916-1.946-10.526-2.506-2.202-4.495 2.063-5.333 3.888-3.934 8.566-4.828 17.652-6.476 26.817-.672-.659-.328-2.352-.265-3.139.118-1.464.107-2.901.11-4.371.008-3.715.701-7.448.383-11.16-.183-2.145-.87-6.67-4-5.957-2.655.605-4.318 4.323-5.151 6.596-1.204 3.278-1.481 6.524-1.406 9.987.082 3.826-.65 7.59-.827 11.411-.345 7.423-.004 14.781 2.134 21.944 3.502 11.731 11.553 21.477 22.298 27.363 5.92 3.243 12.488 5.294 19.24 5.736 3.66.239 7.192-.195 10.82-.572 3.58-.372 7.179-.544 10.753-.98 7.96-.972 15.715-3.482 22.95-6.859 3.808-1.778 7.389-3.96 11.135-5.855 1.503-.76 2.518-1.712 3.801-2.769 1.271-1.048 1.624-1.13 3.07-1.13-.424-1.13.814-1.479 1.365-2.194l-.093 1.04c.42-.907.811-.898 1.173.027.357-1.036.622-2.101 1.054-3.11 1.651.832 1.512 2.81 3.72 1.366 1.818-1.189 3.49-2.591 5.343-3.756 4.223-2.655 7.863-6.108 12.098-8.733 0 2.556.181 5.134-.162 7.676-.327 2.418-1.233 4.678-1.954 6.992-1.329 4.271-1.421 8.834-2.894 13.062-.609 1.75-2.197 3.214-2.652 4.919-.464 1.738.608 3.131-1.189 4.273-1.266.805-2.85 1.144-4.252 1.631-2.14.743-4.171 1.791-6.254 2.68-9.769 4.169-19.297 8.415-28.348 14.02-8.589 5.32-17.31 10.813-25.2 17.131-6.848 5.483-13.771 12.572-15.438 21.516-1.617 8.675 2.692 17.987 11.346 20.844 4.5 1.486 9.587 1.302 14.272 1.366 5.043.07 10.386-1.14 15.343-2.016 5.235-.925 10.381-2.372 15.631-3.198 5.038-.793 9.658-2.564 14.613-3.655 5.278-1.163 10.691-1.794 15.998-2.839 2.389-.471 4.73-1.166 7.125-1.601 2.623-.478 5.275-.657 7.872-1.288 5.038-1.227 9.861-3.203 14.921-4.344 2.274-.513 4.514-1.2 6.79-1.68 2.095-.441 3.727-1.614 5.827-.651 1.696.779 3.05 2.113 4.655 3.042 2.082 1.206 4.278 2.286 6.448 3.323 4.362 2.085 8.886 3.526 13.447 5.091 4.791 1.644 9.495 3.519 14.459 4.605 5.088 1.113 10.278 1.422 15.402 2.303 10.492 1.803 20.896 2.612 31.546 2.677 5.384.034 10.767-.602 16.138-.526 4.754.066 8.888 1.134 13.236-1.384 6.947-4.023 15.005-10.082 14.834-18.883-.155-7.971-4.956-15.587-9.459-21.874-5.469-7.635-13.266-13.012-20.908-18.279-8.145-5.612-17.293-9.49-25.853-14.39-4.378-2.505-8.415-5.201-13.169-6.982-2.269-.849-4.483-1.835-6.725-2.75-1.805-.736-4.41-1.143-5.955-2.364-.963-.762-1.056-1.916-1.31-3.05-.564-2.507-1.449-4.886-2.308-7.304-1.657-4.67-2.758-9.426-3.471-14.324-.679-4.669-2.186-9.525-1.405-14.27 5.134 4.946 10.409 9.701 15.662 14.516 1.969 1.805 3.901 3.647 5.88 5.44 1.485 1.347 3.343 3.347 5.414 3.746 2.645.511 1.679-2.403 3.495-2.854 1.11-.276 4.457 2.532 5.334 3.087 5.562 3.517 11.721 5.745 17.838 8.139 6.414 2.51 13.011 4.739 19.914 5.371 6.375.585 12.895-.165 19.048-1.895 12.253-3.445 21.269-11.62 27.886-22.216 7.54-12.074 13.026-26.219 12.582-40.632z" fill="#000"/><path fill-rule="evenodd" clip-rule="evenodd" d="M221.271 230.055l-.021.043c.023-.016.03-.03.021-.043z" fill="#000"/><path fill-rule="evenodd" clip-rule="evenodd" d="M221.863 230.211a4.291 4.291 0 00-.298-1.13c-.405.641-.768.915-.235 1.593l.533-.463zm28.253 91.537c.454-.481-.34-.662-.641-.669.03.516-.227 1.752.482 1.992a1.402 1.402 0 01.159-1.323zm-11.968-100.615c-.78 1.499.943 1.965 1.94 1.24.751-.545 1.194-1.933 1.317-2.824.399-2.883-1.626-5.627-2.636-8.185-.261-.661-.619-2.929-1.459-2.991-.966-.072-1.037 2.017-1.05 2.556-.037 1.625.395 3.28.901 4.814.546 1.653 1.898 3.638.987 5.39zm3.707-6.015c2.998 2.659 5.396-1.769 5.186-4.388-.052-.649-.492-3.041-1.727-2.17-.621.437-.092 1.858-.388 2.482-1.433 3.026-2.814-1.667-3.779-2.036-1.175-.448-1.293 1.089-1.292 1.91.003 1.631.783 3.122 2 4.202zm-10.879.413c.706-1.108 1.574-2.593 1.67-3.919.149-2.063-1.057-1.89-2.051-.452-.701 1.017-1.227 2.74-2.775 2.312-1.912-.528-1.328-3.088-2.398-4.305-2.702 3.615 2.412 11.291 5.554 6.364zm4.05 11.062c1.118.241 4.033.152 3.023-1.553-1.274-2.147-5.509 1.017-3.023 1.553zm39.152-64.022c.204-.607-.077-.717-.565-1.195-.462.425.13.871.565 1.195zm20.847 109.9c.738.116.975-.272.712-1.166-1.164-.075-1.401.313-.712 1.166zm-40.262-93.75c.813.37.502 1.13.488 1.772.419-.453 1.266-1.282.921-1.933-.531-1.005-1.919-.071-1.409.161zm-27.702-12.639l-.372-.723c-.505.404-1.285 1.472-.482 1.992.329-.398.614-.821.854-1.269zm9.758 7.085c1.012.79.527-1.636.496-1.834-.15.285-1.007 1.434-.496 1.834zm-.56-1.232l-.232-.602c-.411.378-.913 1.151-.236 1.593.186-.31.342-.64.468-.991zm6.425 8.329l.248.229c.334-.671-.046-1.175-.676-1.195.045.376.187.699.428.966zm-27.114 75.434a6.519 6.519 0 001.094-.931c-1.188-.723-.476.844-1.907-.118-.308.424.196 1.373.813 1.049zm49.92 65.779c.452-.69.533-.671-.084-1.195-.515.854-.461.634.084 1.195zm-94.414-109.889l.738.766c.115-.334.741-1.279.316-1.593l-1.054.827zm8.749 2.527c-.393-.065-1.332-.352-1.55.014.575.471 1.872.041 1.55-.014z" fill="#000"/></svg>