<svg width="310" height="232" viewBox="0 0 310 232" fill="none" xmlns="http://www.w3.org/2000/svg" preserveAspectRatio="none"><g clip-path="url(#clip0)" fill-rule="evenodd" clip-rule="evenodd"><path d="M240.675 34.035c.109.945 1.284.223 1.394.735.07.322-1.14 1.12-1.401 1.34.843.507 1.919-.66 2.551-1.15.325.353.435.538.136.941-.527.712-.503-.231-1.131.264.262.438.491.187.823.07-.145.842.179.309.433.842.205.434.18.755.242 1.24l-.894 2.049c-.358.821-.251 1.085-1.127.81.098-.17.754-1.003.7-1.208-.06-.234-.956-.558-1.193-.755-.417-.345-.412-.642-.678-1.014.106-.345.024-.507-.247-.484l-.298.801c.025.569.506.515.789 1.058.435.83.192.34-.164 1.01-.348.656-.387 1.494-.961 1.824l.925.405c-.72.788.776.404 1.024.328l-.759 1.608c-.759-.423-1.133-1.226-1.638-1.89L238.048 45l1.147-.105c-.053.1-.543.79-.501.944.171.625 1.473.272 1.329 1.09-.019.105-1.186 1.28-1.386 1.393.587.263.852.154.642.844l-.817-.493c-.232.416-.5.821-.648 1.276a1.52 1.52 0 01-.16.846 4.72 4.72 0 01-.542.667c-.159.418-.211 2.702-.019 3.074.428-.551 1.385.423-.23.423-.707 0-.659-.147-.93.473-.212.488-.327.913.275.96-.453.891-.356 1.577-.397 2.527-.033.769-.249 1.533-.409 2.288l.43-.617c.387.823.092 1.516-.092 2.397-.401-.53-.45.414-.793.317-.701-.2-.176-.346-.461-.805-.247-.397-.221-.51-.677-.753-.605-.322-1.665-.334-2.349-.447-1.15-.192-2.302-.24-3.466-.29-4.356-.189-8.698-.237-13.053.002-4.008.22-8.112.78-12.042 1.54-4.183.808-8.275 1.554-12.327 2.921-.782.264-1.566.816-2.349 1.01-.742.183-1.487.181-2.261.45-1.853.642-3.771 1.128-5.639 1.741-2.013.661-4.191 1.212-6.107 2.126-.832.398-1.587.936-2.419 1.339-.784.379-2.101.725-2.515 1.6-.161.341-.134.589-.034.943.201.71.36.633.906.585.76-.067 1.743-.657 2.481-.89 2.02-.634 4.064-1.143 6.118-1.651 3.689-.914 7.392-2.532 11.032-3.165 2.159-.375 4.204-1.396 6.375-1.781.476-.084 1.855-.763 2.246-.528.103.062.357.806.446.984.321.64.688 1.256 1.119 1.829 1.297 1.726 3.038 3.116 4.591 4.604 1.774 1.699 3.316 3.573 4.954 5.397l.426-.493c-.15 1.151.715 1.982 1.422 2.764a19.71 19.71 0 012.175 2.862c.543.869 1.237 1.63 1.85 2.421.603.779 1.005 1.719 1.56 2.558 1.274 1.927 2.527 3.892 3.812 5.794.605.895 1.083 1.902 1.561 2.92.38.81 1.523 2.463 1.523 3.248-.082.384.753 2.696-.139 1.606l-.428.66.732-.306c-.741.669.643.755.674 1.13l-.37.356c-.211.433-.485.489-.822.168-.371.023-.446-.184-.86-.046.396.616.905.227 1.106 1.078.176.75-.383.911-.973 1.354l-.037.028-.012.044c-.129.384-.494.221-.9.137-.972-.2-2.046-.582-2.992-.877a65.014 65.014 0 00-6.222-1.608c-4.825-.994-9.612-.947-14.482-1.261.128-.532.129-.486-.023-.815.195.423-.981-.13-.095.805-2.262.369-4.706.091-7.001.214.107-.237.352-.51.123-.682-1.086 1.567-4.717.895-6.512 1.12-1.053.132-2.094.384-3.144.551l-.442.069c-.369.058-.738.123-1.098.22-.464.125-1.237.637-1.677.518.644-1.295-.099-.174-.2-.159-.306.045-.832.148-1.271.148.5-2.006 1.359-3.855 1.705-5.921.216-1.288.809-3.363-.468-4.276-.699-.5-1.845-.608-2.655-.778-.887-.187-2.438-.18-3.211-.68-.603-.391-.73-.75-1.52-1.05-.911-.345-1.331-.687-2.252-.408.374-.468.899-.81.164-1.288-.301-.195-.891.068-.997-.36-.546.385-.416.695-.562 1.222.013.223.072.436.176.638l-.866.348c.184-.492-.355-.199-.462-.441-.16-.362-.065-.913-.065-1.306-.595.188-1.218.42-1.478 1.038-.729-.434-.44-.463-.066-1.114-.612-.144-.741.17-.834.676l-.969-.299c.728-.005.902-.572.92-1.188l-.85.275-.174.895c-.446.377-1.606-.304-1.982-.499-1.313-.679-1.793-.875-1.608-2.417.155-1.293.497-2.593.573-3.892.085-1.444-.084-2.988-.211-4.427-.246-2.785-.641-5.53-.78-8.326-.075-1.514-.158-3.028-.218-4.543-.047-1.204-.464-2.529 1.042-2.636-.184-.583.367-1.257.936-1.576.199-.453.416-.493.652-.121a.62.62 0 00.573-.092c.829-.187 1.823-1.36 2.567-1.784.73-.415 2.321-1.018 2.842-1.716.503-.676-.259-.6-.105-1.219.21-.847.976.37 1.094.538.255-.256 1.233-.737 1.221-1.11l-.718-.128c.262-.15.842-.6 1.146-.66.517-.101.323-.232.738.337.144-.223.494-.956.714-1.104.105-.071.727-.118.857-.164.678-.239.61-.765 1.108-1.015.241-.121.538.065.741-.023.324-.142.325-.624.619-.799.254-.152.899-.026 1.203-.136.503-.183.481-.354.856-.689.527-.469 1.011-.4 1.598-.756.608-.369.514-1.199 1.066-1.357.737-.211.925.485 1.326-.203.09-.154-.319-.385-.062-.633.316-.305.446.06.591.296l.501-.941c.801.438.465-.127 1.076-.428.272-.133.496.13.793-.031.219-.119.257-.376.414-.536.302-.308.469-.73.937-.875-.169.052 1.218.012 1.094-.047l-.405-.593c.726 0 1.359.072 2.061-.145.249-.077.637-.195.844-.353.568-.434.44-.328.44-1.124.784.498 1.782.324 2.555-.254.404-.301.663-.662 1.106-.934.19-.098.383-.19.58-.275.245-.254.492-.257.738-.007.349-.094.345-.158.615-.327.078-.153.16-.303.249-.45.29-.03.576-.082.858-.157 1.095-.294 1.756-1.023 2.772-.377l.39-.793c.432.674.728.03 1.302-.243.241-.115.553-.143.771-.248l.367.087.311-.96c.209.08 1.038.525 1.288.502.357-.034.784-.637 1.13-.751.528-.174.338.056.857.06.399.002.587.059.931-.276-1.164-.301.305-.444.795-.546.765-.159 1.159.011 1.69-.592h-.552c.544-.493.361-.32.934-.27.181.014.965.444.967-.13.74.436.748.437 1.511.24.338-.087.626-.37.997-.376.363-.007.622.157.946.122.193-.02.87-.274 1.099-.357.363-.132.602-.414.95-.523.382-.12.868.022 1.269-.066 1.194-.262 1.894-.975 3.187-.588.138-1.155 1.579-.898 2.355-.779.54.083.816.301 1.375.037.455-.215.715-.555 1.221-.727.389-.132.913-.227 1.319-.311.251-.08.507-.105.769-.076.263.037.484.15.661.342l.033.038c.041-.095.652-.547.582-.492.457-.364.671-.225.951-.935l-.978-.206c.503-.034.882-.092 1.33.104.31.135.83.85 1.14.85.561.002.757-.787.702-1.198.471 1.094.872 1.276 1.929.717l.373-.197c.252-.263.502-.258.751.015l.443.24.533-.885c.377.519.736.544 1.351.423.424-.084 1.294-.85 1.607-.85.182 0 .413.44.716.527.5.143 1.278-.217 1.456-.695l.284.599c.236-.22.474-.44.709-.663zm-17.963 74.127v.017l.016-.013h.001l-.017-.004zm-.614-1.04v.929l.315.057.299.054.003-.05c.014-.447-.216-.778-.617-.99zm-27.857-3.696l-.295.903.993.081-.698-.984zm-38.88-23.802c.724.21.714.185.859.853.827 3.803-1.731 8.165.147 11.78-5.49-.044-10.992.066-16.45.708 0-2.071.068-4.138-.089-6.206-.071-.938-.177-1.874-.273-2.81-.121-1.188-.083-1.118.891-1.323.512-.107.696-.431 1.185-.628.367-.149.532.034.894.084.647.092.655-.017 1.249-.143 1.273-.271 2.355-.174 3.361-1.123.522-.045.353.437.716.39.265-.035.433-.527.703-.645.839-.366 2.235-.277 3.153-.391.938-.117 1.767-.539 2.665-.664.37-.051.639.016.989.118zM165.952 90.6c-.177.658-.954-.198-.966.318v.045l.002-.011c.041-.087.827.95.781.916.422.318.668.288 1.147-.076-.857-.033-.762-.56-.964-1.192zm2.388.93c.312.171.408-.268.57-.536-.349-.174-.401.23-.57.535zm-.968-2.862c.121.428.113.755.113 1.196.723-.102.95-.155.964-.922l-.387.242c-.203-.4-.248-.432-.69-.516zm-5.597.715l.491-.316c-.241-.346-.671.066-.491.317zm1.829-6.381l.627-.328c-.542-.69-.582-.459-.627.328zm-.756-5.475h-.822c.161.527.822.64.822 0zm80.558-30.687c.188.11.376.22.564.328-.488.444-1.088.891-.613 1.412.378.413 2.14.61 2.668.76-.183.21-.561.785-.81.93-.198.114-.379-.34-.778.112.662.343.484.083.312.81-.101.428-.464.889-.668 1.273a122.83 122.83 0 01-1.53 2.788 106.614 106.614 0 01-3.385 5.574c-.2-1.03.372-2.184.668-3.177.373-1.25.747-2.5 1.122-3.748.725-2.407 1.375-4.79 2.45-7.062zm-28.755 3.141l-1.44.366c.804.256.804.256 1.44-.366zm23.711-4.64c-.683.32-.756.551-.203.941l.203-.94zm-.083-7.548c-.092.405-.666.015-.794.311-.291.678.635.586.968.545-.057-.286-.116-.57-.174-.856zm3.871-.514c-.183.866-.183.866.663.996l-.663-.996zm-15.354-.598l-.001.009c0 .004.003.006.007.007h.009l-.015-.016z" fill="#85A090"/><path d="M119.762 127.394c-.128.66-.449.97-.113 1.576.286.514 1.104.851 1.654.721l-1.541-2.297zm-14.887-23.455l-2.71.927c.741.725 1.447 1.487 2.264 2.131l.446-3.058zm44.708 2.374c-1.293-.65-2.741-.724-4.158-.807l.647 3.483 3.511-2.676zm-31.04 89.868c-.258-.456-2.018-3.978-2.383-3.797-.195.096-.21 2.057-.238 2.336l-.303 2.976c1.041-.367 2.153-.671 2.924-1.515zm-12.294-28.472l.799 2.335c.126.37.201.916.425 1.242.291.424.071.673.459.209.418-.498.542-1.826.723-2.437l.825-2.78c-1.296-.011-2.081 1.054-3.231 1.431zm-27.234-45.838c-1.594 1.086-3.207 2.165-4.594 3.516 1.22-.076 2.918.761 4.067.368.53.113.706-.088.527-.604v-3.28zm23.629 7.688v6.346c1.488-1.265 3.054-2.44 4.485-3.771l-4.485-2.575zm53.19 16.443c-.469 2.825-.495 5.732-.624 8.591-.023.508-.218 1.272.12 1.716.34.446 1.309.692 1.801.93 1.385.67 2.761 1.359 4.142 2.038l-5.439-13.275zm35.163-17.374l10.251-5.028-10.05-4.245-.201 9.273zm-35.17 7.891c.625.045.723-2.329.827-2.957a389.43 389.43 0 011.911-10.695 336.675 336.675 0 013.044-14.16c-1.202-.216-2.307-.372-3.481-.721-.949-.282-2.078-.128-2.925-.715-.11 2.201.441 4.54.644 6.741.237 2.546.363 5.079.343 7.637-.042 4.957-.23 9.915-.363 14.87zm-78.645 67.159c.592-.158-.214-8.257-.25-9.426a209.988 209.988 0 01-.062-10.148 110.384 110.384 0 01-9.825 5.492c.866 1.121 1.678 2.33 2.636 3.374.988 1.074 2.12 1.955 3.036 3.112 1.842 2.331 3.104 4.976 4.465 7.596zm76.77-47.916c.148-2.436.285-4.868.532-7.297.105-1.033 1.106-6.526-.497-6.397-.912.073-2.511 1.405-3.347 1.872-1.105.616-2.21 1.23-3.32 1.837-2.19 1.198-4.395 2.368-6.593 3.552l13.225 6.433zm-9.518-50.659c-1.825-.136-3.59-.271-5.391-.611-.972-.183-1.943-.157-2.919-.281-.699-.088-2.066-.661-2.718-.474-.818.236-1.116 4.329-1.228 5.357-.182 1.654-.304 3.662.437 5.217 1.428 2.996 5.275.657 7.146-.6 1.604-1.078 3.422-2.169 4.844-3.477 1.261-1.159.129-3.633-.171-5.131zm9.469 32.587c1.376-.555 1.354-1.252 1.414-2.688.072-1.745.115-3.492.165-5.238.089-3.111.173-6.223.145-9.336-.027-3.04-.176-6.076-.525-9.098-.123-1.068-.001-2.893-.565-3.804-.515-.832-2.113-.841-2.985-.789-.984.057-1.78.989-2.506 1.578-.804.653-2.455 1.572-2.587 2.546-.147 1.086.451 2.637.683 3.692.848 3.847 1.88 7.657 2.966 11.443 1.128 3.929 2.27 7.897 3.795 11.694zm-34.95-9.21c.089-.864.411-1.586-.025-2.41-.374-.708-.984-1.419-1.442-2.09-1.311-1.92-2.781-3.759-4.209-5.593a168.061 168.061 0 00-4.019-4.971c-.763-.907-1.55-1.795-2.332-2.686-.574-.652-1.117-1.569-1.927-1.91a201.739 201.739 0 00-1.476 11.279 197.06 197.06 0 00-.481 5.478c-.038.516-.439 2.259-.183 2.739.27.505 1.918 1.181 2.423 1.49 1.411.865 2.507 2.169 3.849.746.923-.979 1.667-2.359 2.699-3.214.538-.445 1.045-.424 1.648-.689.702-.307.724-.602 1.562-.185 1.412.704 2.27 1.744 3.913 2.016zM48.25 147.749c0 2.592-.178 4.724 1.583 6.823 1.54 1.834 3.139 2.258 5.303 2.982 1.275.426 1.364.033 2.397-.686.982-.683 2.05-1.232 3.02-1.937a204.552 204.552 0 006.2-4.685c.68-.537.58-.354.477-.999-.095-.587-.518-1.335-.749-1.894-.417-1.011-.91-1.99-1.402-2.966-.56-1.108-1.046-2.312-1.74-3.345-.29-.429-.631-.817-.968-1.207-.708-.824-.682-.793-1.53-.12-1.787 1.42-3.45 2.958-5.462 4.069-2.38 1.315-4.755 2.638-7.13 3.965zm53.901-20.084c.258-3.723.55-7.424.997-11.13.229-1.902.497-3.8.757-5.698.106-.773.515-2.071.287-2.822-.224-.739-1.211-1.443-1.753-1.977-.146-.144-.594-.747-.786-.774-.206-.029-.982.538-1.206.666-.791.452-1.568.929-2.334 1.424a68.643 68.643 0 00-4.207 2.975c-2.867 2.18-5.602 4.525-8.409 6.781 2.572 2.249 5.737 3.995 8.612 5.816 1.7 1.077 3.409 2.142 5.14 3.169.877.52 1.895 1.316 2.902 1.57zm-35.152 66.561c-2.076 1.37-4.059 2.816-6.407 3.695-2.338.876-4.648 1.213-7.065 1.733-1.218.262-2.363.549-3.607.733-.697.103-1.776.063-2.41.357-.567-.121-.768.072-.605.577l.018.471c.16 2.185 1.567 4.815 2.795 6.591.717 1.037 1.63 2.002 2.537 2.874 1.024.985 1.615 1.679 3.043 1.267 2.407-.696 4.532-2.095 6.971-2.712 1.93-.489 3.533-1.512 5.415-2.041 2.321-.653 4.618-1.398 6.971-1.943-1.05-2.025-1.99-4.133-3.337-5.987-1.38-1.903-2.901-3.732-4.319-5.615zm12.736-68.125c4.342.862 9.049 1.661 12.935 3.898 1.517.873 3.44 2.222 3.884 4.028.53 2.158-1.557 3.494-3.3 4.168-2.095.809-4.374 1.119-6.592 1.374-1.174.135-2.354.208-3.534.275-.955.055-2.574-.155-3.447.223-.546-.109-.736.112-.568.664l-.03.593-.091 1.78-.181 3.554-.394 7.744c2.275-1.407 4.108-3.42 6.33-4.92 1.058-.713 2.107-1.428 3.16-2.139.44-.298.71-.715 1.145-.993.576-.368 1.087-.59 1.627-1.072 2.207-1.97 4.662-3.672 7.002-5.48 1.064-.822 2.228-1.577 3.239-2.458 1.06-.924.913-1.684.887-3.011-.027-1.405.49-3.149.25-4.504.201-.46.047-.746-.464-.858l-1.022-.653-2.039-1.301-8.11-5.176-4.052-2.585c-.378-.241-1.608-1.328-2.031-1.296-.432.032-1.18.873-1.504 1.141-.497.41-.979.842-1.515 1.201-.268.185-.547.35-.837.495-.465.045-.627.3-.485.764-.408 1.306-.184 3.172-.264 4.544zm60.217 61.578c-.983-4.587-2.251-10.018-6.087-13.139-3.89-3.164-9.576-1.941-12.619 1.775-1.524 1.861-2.469 4.062-3.171 6.342-.72 2.341-1.782 5.39-1.588 7.866.085 1.085 1.017 2.251 1.55 3.198.549.978.914 2.38 2.209 2.041 2.008-.525 4.05-1.731 5.93-2.594 1.9-.874 3.901-1.592 5.872-2.435 1.308-.56 2.667-.986 3.972-1.554 1.237-.538 2.87-.668 3.932-1.5zm58.104-27.321c2.743.98 4.169-.588 6.098-2.354 1.829-1.672 3.809-3.28 5.493-5.098 1.736-1.874 3.109-4.089 4.444-6.254 1.35-2.187 3.174-4.55 4.005-6.987.423-1.239.603-2.613.869-3.894.065-.308.495-1.456.358-1.715-.188-.357-1.386-.395-1.714-.447a27.537 27.537 0 00-8.016-.064c-5.079.714-9.327 3.556-10.932 8.526-1.882 5.826-.977 12.302-.605 18.287zm-17.783-50.533c-.043 1.009 2.38 1.289 3.009 1.524a66.447 66.447 0 014.303 1.76c2.903 1.324 5.997 2.186 8.776 3.787 5.991 3.45 12.495 5.882 18.547 9.182.943.514 2.786 1.753 3.863 1.648.573-.055.146.404.517-.504.134-.327.178-.752.253-1.102.225-1.049.398-2.108.65-3.151.414-1.717.838-3.311 1.012-5.076.074-.748.156-1.495.164-2.247.009-.762.185-2.673-.16-3.333-.228-.437-.274-.287-.846-.411-.327-.071-.671-.218-.987-.316-.741-.23-1.483-.451-2.26-.519-.768-.067-1.259-.3-1.979-.435-.755-.142-1.532.03-2.301-.168-.831-.215-1.228-.41-2.096-.328-.842.079-1.084-.107-1.909-.336-.688-.191-1.508-.057-2.225-.115-.868-.071-1.733-.179-2.602-.248-3.905-.308-7.856.149-11.771.113-2.128-.02-4.211.294-6.337.197a46.212 46.212 0 00-5.621.078zm10.159 20.538c-1.9.722-3.661 1.895-5.422 2.905-2.032 1.164-3.975 2.402-5.855 3.798-3.16 2.349-6.848 5.164-7.68 9.262-.854 4.206 2.807 7.652 6.238 9.372 3.913 1.962 8.466 2.977 12.753 3.726-.458-9.681-.351-19.378-.034-29.063zm-56.833 22.793c-1.152.318-2.128.999-3.197 1.502-.958.451-1.885.791-2.779 1.372-1.458.946-3.148 1.756-4.672 2.488-3.77 1.811-7.431 4.059-11.165 6.066-.989.532-1.313.868-1.648 1.962-.364 1.189-.707 2.386-1.058 3.58-.327 1.113-.849 2.302-.711 3.477.12 1.022.649 1.986 1.049 2.918a145.574 145.574 0 003.222 6.945c1.011 2.056 1.933 4.237 3.231 6.127 1.008-5.248 1.913-11.129 5.822-15.128 3.906-3.996 10.138-4.053 13.902.072 1.789 1.96 2.877 4.428 3.733 6.908.449 1.303.751 2.63 1.04 3.976.308 1.437.233 2.2 1.822 1.764 1.262-.346 2.6-.622 3.837-1.016.642-.205 1.268-.435 1.297-.941.037-.639-.825-1.947-1.08-2.548a102953.548 102953.548 0 00-8.229-19.416l-2.139-5.042c-.65-1.532-1.192-3.808-2.277-5.066zm56.94-26.2c.021-1.532.047-3.064.067-4.596.012-.913.419-2.679-.377-3.331-.494-.404-1.96-.714-2.585-.991-1.233-.545-2.568-.789-3.808-1.331-4.858-2.123-9.913-3.891-14.915-5.603-1.078-.369-2.18-.671-3.266-1.034-.586-.196-2.757-1.349-3.299-1.047-.475.264-.833 3.405-.985 4.058-.36 1.544-.704 3.092-1.035 4.643-1.284 6.021-2.361 12.084-3.362 18.158 2.66-1.008 5.21-2.755 7.724-4.105 2.611-1.402 5.213-2.802 7.842-4.172.742-.387 3.352-2.165 3.963-1.467.98 1.12-1.355 2.433-1.968 2.913-2.371 1.855-4.876 3.473-7.411 5.092-2.628 1.677-5.362 3.159-8.003 4.806-.953.595-2.475 1.319-2.85 2.323-.482 1.292-.134 2.861.305 4.096a170.702 170.702 0 003.506 8.994c.568 1.349 1.15 2.691 1.743 4.029.706 1.593 1.633 1.93 3.172 2.663 6.555 3.124 13.364 6.088 19.661 9.702-1.054 1.212-3.622-.778-4.662-1.282-1.926-.933-3.854-1.863-5.779-2.8-3.585-1.744-7.152-3.522-10.758-5.224 2.311 5.244 5.038 10.297 8.062 15.165-.764.258-.577.272-1.057-.186-.403-.386-.674-1.142-.948-1.626-.565-1.001-1.122-2.006-1.692-3.004-1.181-2.072-2.405-4.113-3.484-6.241-.811-1.601-1.44-4.399-3.107-5.206-2.078-1.006-4.183-1.985-6.261-3.005 0 7.974.574 15.77 1.417 23.694.043.4.427 1.579-.347 1.464-.349-.052-.467-2.239-.528-2.695a152.952 152.952 0 01-.716-6.294c-.389-4.196-.6-8.408-.628-12.622l-1.496 12.29-.708 5.823-.373 3.059c-.057.468-.02 1.081-.185 1.527-.26.703-.173.65-.986.97a604.353 604.353 0 002.131-16.031 479.48 479.48 0 001.081-9.955c.035-.359.345-1.513.173-1.811-.171-.295-1.301-.603-1.626-.754-.713-.33-1.425-.659-2.137-.991a338.072 338.072 0 01-6.904-3.294c-.999-.495-2.048-1.259-3.135-1.522-1.082-.263-1.869.489-2.795.967-.72.372-2.417.867-2.898 1.498-.448.588.943 2.941 1.308 3.808l3.091 7.341 6.269 14.885 1.532 3.638c.327.777.873 2.992 1.667 3.079.352.038.929-.343 1.269-.453.506-.164.974-.161 1.483-.247.932-.158 1.899-.638 2.815-.974 2.351-.865 4.79-1.424 7.161-2.232 2.382-.812 4.725-1.724 7.097-2.536 2.155-.737 4.329-1.577 6.4-2.537 2.186-1.014 4.428-1.908 6.558-3.032 3.88-2.048 7.717-3.961 11.145-6.472.806-.591 1.665-1.184 2.462-1.816.699-.555 2.033-1.24 2.509-1.97.181-.278.337-.823.125-1.154-.227-.354-1.234-.322-1.704-.385l-4.451-.597c.114.974.229 1.947.312 2.924.058.69.466 2.512-.085 3.053-.757-.719-.514-2.867-.582-3.824-.036-.511.095-1.512-.135-1.966-.252-.497-.947-.491-1.577-.627-2.671-.576-5.318-1.06-7.903-1.974-4.367-1.543-9.587-4.149-10.562-9.176-1.017-5.24 3.451-9.781 7.213-12.703 2.253-1.75 4.649-3.265 7.128-4.671 1.158-.657 2.316-1.315 3.482-1.958.424-.234 1.816-.715 2.04-1.124.229-.419.112-1.538.16-2.014zm-93.43 80.476l-.635.31c2.356-6.702 4.691-13.373 6.662-20.201.951-3.295 1.915-6.587 2.898-9.874.425-1.417 1.468-3.369 1.178-4.837-.313-1.59-1.065-3.28-1.647-4.791-3.725 2.336-7.527 4.552-11.314 6.783-3.395 2-6.847 3.778-10.265 5.757-1.752 1.014-3.559 1.699-5.387 2.527-1.486.674-.909 2.732-.887 4.106.075 4.854.071 9.725.366 14.572.108 1.766-.03 3.793 1.096 5.263a103.797 103.797 0 014.09 5.772c.493.741 2.56 4.753 3.332 4.665.503-.057.967-1.681 1.218-2.066.543-.831 1.337-1.545 2.06-2.214 3.119-2.888 6.58-4.922 10.177-7.033 3.655-2.144 7.396-4.14 11.119-6.173.842-.459 1.748-.791 2.584-1.26.33-.186.985-.48 1.193-.812.311-.496.205-1.87.27-2.463.133-1.211.371-2.47.384-3.69.012-1.205-.714-2.241-1.241-3.292-2.311-4.615-4.556-9.242-6.567-13.997-1.585 5.522-3.25 11.017-4.805 16.547-.812 2.887-1.79 5.727-2.744 8.57-.486 1.452-.975 2.903-1.461 4.356-.379 1.131-.575 2.787-1.674 3.475zm33.192-104.058c-1.225.014-2.335-.166-3.533-.421-.44-.093-.826-.133-1.272-.172-.505-.045-.964-.318-1.407-.371-.335-.04-.919.1-1.239.207-.741.247-.718.122-.748.981-.049 1.326-.085 2.653-.158 3.978-.287 5.217-.843 10.383-1.603 15.549-.154 1.044-.586 2.414-.349 3.451.214.935 1.024 1.934 1.558 2.718 1.1 1.613 3.69 2.41 5.513 2.867 1.921.482 3.916.66 5.741 1.09.506.12 1.087-.091 1.626.029.499.111.886.384 1.347.581 1.129.484 2.39.573 3.556.946 2.311.741 4.786.696 7.1 1.407.592.182 1.103.64 1.672.797.52.143 1.056-.026 1.601.054 1.154.17 2.23.563 2.496 1.8.706-.558.804-.411.682-1.273-.078-.553-.387-1.226-.556-1.759-.43-1.359-.863-2.717-1.293-4.076-.851-2.688-1.697-5.379-2.482-8.088a127.561 127.561 0 01-1.897-7.325c-.284-1.251-.521-2.507-.764-3.765-.071-.365-.001-.945-.368-1.187-.334-.221-1.112.57-1.464.824-2.459 1.778-8.099 7.035-11.174 3.934-1.655-1.67-1.559-4.606-1.379-6.764.11-1.326.344-2.635.605-3.938.065-.326.464-1.371.318-1.603-.158-.249-1.799-.398-2.129-.471zm86.407 29.017l1.963.22c-.06-.528-.006-1.321-.206-1.813-.277-.679-.955-.755-1.7-1.037-1.18-.445-2.383-.832-3.549-1.311-2.532-1.039-5.051-2.094-7.584-3.133-1.11-.456-2.415-1.202-3.62-.829-1.3.401-2.583 1.219-3.798 1.818a5273.038 5273.038 0 00-6.061 2.996c-1.014.5-1.148.551-1.228 1.695-.408 5.852-.377 11.931-.2 17.791.091 2.99-.011 5.997.204 8.982.017.23 0 1.525.144 1.702.203.249 1.631.333 1.972.396 1.33.242 2.67.323 4.014.443-.317-6.807-1.48-14.853 2.023-21.079 3.519-6.255 11.04-7.61 17.626-6.841zm-61.17-66.963c.395-.897 1.074-1.653 1.655-2.44.314-.425.857-.934 1.058-1.431.286-.709.284-.557-.143-1.177-.404-.586-.396-.63-1.021-.735-.526-.088-1.086.062-1.624-.034-.543-.098-2.037-.554-1.694-1.417-.015.038.849-.388.916-.461.217-.236.286-.74.393-1.024.345-.914.466-1.506.082-2.48-.575-1.453-2.846-1.883-4.26-1.394-.706.244-1.109.762-1.427 1.413-.202.413-.249 1.01-.51 1.37-.393.542-.418.481-1.233.386-1.039-.122-1.891-.52-2.875-.798-1.072-.303-1.769.313-2.706.81-1.691.896-3.324 1.207-5.219 1.35-2.109.158-4.064-.35-6.153-.48.542 2.49 1.944 4.513 3.064 6.768.197.397.515.802.522 1.26.008.433-.619 1.021-.549 1.379.151.763 1.834 1.374 2.472 1.589 1.803.606 3.857 1.795 5.842 1.317 1.088-.261 1.673-1.976 2.697-2.102 1.374-.17.346 1.596.091 2.203 1.95.296 4.422.045 6.288-.615.936-.33 1.728-.824 2.582-1.313 1.063-.609 1.284-.776 1.752-1.944zm-34.122 37.069c-3.477.057-7.004-.442-10.488.017-.807.106-1.604.277-2.397.459-.57.131-2.38.241-2.761.664-.346.386-.348 2.162-.42 2.662-.159 1.115-.116 1.5.596 2.362 2.344 2.836 4.785 5.587 7.094 8.454 2.219 2.755 4.04 5.832 6.282 8.548 1.198-3.479 1.269-7.653 1.598-11.3.175-1.945.335-3.892.485-5.838.142-1.854.627-4.26.011-6.028zm-44.995 36.66c.401 0 1.043.125 1.434 0 .537.17.716-.031.539-.604l.025-.601c.056-1.292.118-2.584.178-3.876.055-1.181.109-2.362.156-3.544.032-.806.44-2.806.113-3.534-.22-.49-.739-.379-1.371-.45-.602-.068-1.205-.131-1.803-.224-.76-.118-1.601-.39-2.374-.22-.776.171-1.34.886-1.95 1.341-.963.719-1.948 1.412-2.92 2.12-1.767 1.287-3.516 2.598-5.268 3.906-.723.539-.862.352-.51 1.128.219.479.715 1.021 1.017 1.454.601.862 1.2 2.169 1.972 2.868 1.123 1.018 4.238.372 5.73.365 1.7-.009 3.34.017 5.032-.129zm4.402-.085c1.475-.144 2.965-.081 4.43-.279 1.594-.216 3.176-.534 4.767-.773 1.586-.238 6.41-1.2 5.934-3.562-.504-2.496-4.197-3.992-6.24-4.831-3.192-1.311-6.523-2.012-9.88-2.753-.422 2.238-.361 4.64-.438 6.908a107.424 107.424 0 00-.078 3.697c0 .297-.102.913.02 1.188.285.649.617.405 1.485.405zm-4.85 1.073h-9.414c1.393 2.877 2.71 5.809 4.212 8.632 1.495 2.813 3.421 5.462 5.118 8.162.43-.467 1.116-.973 1.408-1.529.324-.614.315-1.518.368-2.23.137-1.846.2-3.709.246-5.559.041-1.621.113-3.231.237-4.847.028-.355.42-2.197.196-2.5-.2-.269-1.96-.126-2.371-.129zm38.769-56.501c1.588 0 3.178-.02 4.766.006 1.441.024 3.319-.226 4.639.514 2.689 1.508-2.687 5.382-3.777 6.356 1.762.638 4.513-.627 6.239-1.207 2.134-.717 4.309-1.198 6.486-1.76.544-.14 2.878-.414 3.172-.83.293-.412-.362-2.9-.428-3.424-.061-.494-.01-1.263-.215-1.727.126-.557-.07-.752-.589-.585l-.537-.002c-1.324.01-2.65.072-3.973.115-4.548.151-8.986.353-13.495 1.061-2.097.33-4.212.735-6.297 1.139-1.756.34-1.46.626.179.63 1.283.003 2.554-.187 3.83-.286zM245.214 50.27l.811-.93-1.975-.563c-.701-.2-1.077-.154-.766-.934.39-.978 2.171-1.09 3.027-1.127 2.948-.127 6.045.809 8.845 1.633 1.366.402 2.437 1.025 3.593 1.853.505.361 1.088.701 1.529 1.135.459.452.65 1.03 1.099 1.482.736.742 1.678 1.112 2.039 2.183.414 1.229-.081 2.636-.694 3.708-.621 1.088-1.545 1.91-2.295 2.899-.596.784-1.839 2.926.104 2.678 1.027-.131 2.36-1.88 3.1-2.576 1.059-1 2.102-2.021 3.225-2.952.995-.825 2.142-1.67 3.473-1.816 1.403-.152 2.104.744 2.787 1.833.645 1.028.749 2.031 1.202 3.083.219.507.498.79.626 1.343.198.85.219 1.778.319 2.645.159 1.361.308 2.432.044 3.766-.248 1.248-.315 2.575-.524 3.845-.236 1.438-.432 2.883-.665 4.323-.197 1.219-.947 2.955-.211 4.089 1.767 2.724 3.887-1.286 4.446-2.785.981-2.633 1.48-5.51 2.347-8.198.463-1.437.868-2.888 1.134-4.375.22-1.23.112-2.73.787-3.826.526-.85 1.46-1.497 2.485-1.238 1.283.326 1.776 2.176 2.154 3.301.996 2.967.629 5.64.224 8.666-.188 1.4-.367 2.804-.69 4.182-.217.93-1.119 2.81.221 3.316 1.9.717 3.913-4.721 4.455-5.949 1.417-3.216 1.96-6.406 2.544-9.852.134-.792.237-1.602.438-2.38.174-.678.696-1.364.743-2.041.047-.679-.403-1.152.058-1.818.384-.555 1.078-.588 1.704-.593 1.472-.012 2.88.633 4.25 1.101 1.274.436 3.159 1.39 4.533 1.083-4.311-4.367-8.611-8.685-13.752-12.086-2.387-1.58-4.777-3.097-7.357-4.385-2.614-1.305-5.609-2.186-8.409-2.976-1.522-.43-3.036-.916-4.539-1.409-1.339-.438-2.686-.521-3.996-1.019-2.848-1.08-6.029-1.499-8.977-2.265-1.302-.338-2.618-.628-3.923-.941-1.371-.33-3.298-.902-4.695-.846-1.193.047-1.596 1.412-2.17 2.361-.833 1.378-1.544 2.81-2.199 4.28-1.342 3.01-2.76 6.121-3.72 9.267-.527 1.727-1.048 3.456-1.566 5.187-.448 1.497-1.569 3.658-1.271 5.195 2.208-3.395 4.264-6.921 6.048-10.557zM142.426 80.926l-3.514.16c1.168 3.83 1.005 7.909 1.005 11.879 5.458-.642 10.96-.752 16.45-.707-1.008-1.942-.617-4.46-.33-6.54.168-1.217.262-2.39.238-3.618-.023-1.151.309-2.12-.914-2.476-.97-.282-1.583.188-2.508.403-1.107.257-2.313.288-3.44.428-2.345.29-4.608.462-6.987.471zm-31.451 7.46c3.518-.974 7.256-.615 10.791-1.355-.804-.732-2.319-.299-3.387-.238-1.214.07-2.427.12-3.641.179-1.184.058-4.468-.032-4.895 1.471l1.132-.057zM239.68 34.108c-4.603.403-9.423.34-13.993 1.141-5.233.918-10.689 1.494-15.763 3.111-4.977 1.587-10.053 2.698-14.96 4.561-4.77 1.811-9.364 3.738-13.856 6.161a91.287 91.287 0 00-6.434 3.804c-2.046 1.33-4.288 2.42-6.271 3.83-1.765 1.254-3.287 2.404-4.826 3.941-1.645 1.644-3.246 3.331-4.892 4.972-1.375 1.369-.505 4.715-.418 6.537.121 2.525.33 5.015.64 7.524.295 2.39.599 4.96.209 7.346-.164 1.002-.729 2.735-.459 3.736.216.802 1.649 1.39 2.38 1.65.894.32 1.808.186 2.725.592 1.025.455 1.889 1.022 2.977 1.26 1.342.295 2.85.543 4.228.552 1.275.008 2.554.42 3.826.674 2.067.413 4.086.542 3.957 3.03-.149 2.871-1.29 5.335-1.97 8.06.919 0 1.56.059 2.402-.267.982-.379 2.031-.48 3.063-.644 2.282-.362 4.506-.478 6.802-.709 4.207-.424 8.487-.373 12.697-.328 2.132.022 4.444.187 6.546.518 2.157.339 4.39.552 6.48 1.203 1.764.55 3.584.925 5.383 1.411.81.218 1.781.396 2.547.641 1.11.355 1.703 1.111 2.985 1.094-.361-2.368-1.208-4.565-1.719-6.914-.533-2.453-1.598-4.623-2.772-6.937-.524-1.032-.912-2.128-1.418-3.169-.561-1.157-1.351-2.117-2.03-3.2-1.388-2.214-2.869-4.344-4.233-6.575-1.19-1.947-2.55-3.813-3.853-5.693-1.433-2.066-3.424-3.626-5.05-5.522-.686-.8-1.339-1.545-2.108-2.28-.708-.676-1.713-2.174-2.797-2.244-.623-.04-1.702.31-2.297.497-1.1.347-2.267.574-3.403.88-1.244.335-2.465.77-3.711 1.09-.498.127-1.09.066-1.563.21-.494.151-.888.484-1.429.636-2.665.755-5.315 1.612-8.001 2.299-2.765.707-5.572 1.31-8.251 2.311-.511.192-1.08.644-1.473.347-.292-.222-.481-.848-.404-1.214.257-1.217 2.207-1.656 3.147-2.145 2.516-1.309 5.016-2.232 7.721-3.121 1.332-.438 2.66-.904 4.011-1.282 1.129-.316 2.304-.85 3.459-1.012 1.027-.144 1.756-.547 2.775-.904 1.502-.527 3.046-.96 4.572-1.41 2.608-.768 5.373-1.091 8.041-1.607a94.49 94.49 0 0118.91-1.719c3.181.037 6.508-.055 9.651.467.758.125 2.352.101 2.874.78.281.364.129.906.201 1.301.121.667.486.977.801 1.584a167.124 167.124 0 012.309-9.738c.784-2.93 1.509-5.913 2.555-8.802 1.108-3.056 2.451-6.297 4.107-9.094.341-.576 1.19-1.49 1.263-2.135.076-.665-.857-1.18-1.498-1.253-1.439-.166-2.979.118-4.392.166zm30.92 46.945c.468-4.558 1.837-9.325 1.073-13.9-.324-1.938-.577-3.787-1.548-5.535-.491-.884-.687-1.534-1.625-1.012-.948.527-1.822 1.83-2.608 2.586-1.446 1.39-2.96 2.82-4.691 3.85-1.363.812-4.072 1.582-5.097-.174-.976-1.675.326-4.01 1.261-5.392 1.071-1.58 3.098-3.044 1.96-4.993-.489-.84-1.194-1.06-1.934-1.61-.641-.477-1.178-1.094-1.82-1.58-1.857-1.406-3.895-2.008-6.039-2.812-.991-.37-1.121-.72-1.693.128-.621.922-.961 2.214-1.411 3.233-.899 2.042-1.859 3.976-3.019 5.88-1.171 1.921-2.208 3.928-3.315 5.888-.417.739-.81 1.49-1.303 2.184-.269.378-.602.714-.82 1.127-.323.611-.179 1.168-.38 1.777-.868 2.625-2.133-1.04-2.375-1.896-.275-.975-.939-1.735-1.368-2.644-.356-.75-.598-1.866-1.455-2.22-.702-.289-1.608.109-2.324.147-1.317.072-2.644-.035-3.966.047-1.237.077-2.471.196-3.707.271-1.238.076-2.474-.133-3.695-.003-2.192.233-4.432.196-6.619.52-2.566.378-5.105.782-7.679 1.097.598 1.129 1.838 1.618 2.818 2.423.875.72 1.569 1.55 2.451 2.235.895.695 1.427 1.722 2.168 2.557.726.818 1.398 1.504 2.034 2.419 3.069 4.418 6.235 8.673 8.767 13.448 1.282 2.417 2.505 5.003 3.381 7.596.939 2.782 1.4 5.764 1.958 8.64.278 1.434.423 2.643.119 4.085-.08.343-.164.686-.25 1.027-.267.409-.168.675.297.796.272.396.643.544.666 1.085.019.411-.211.887-.565 1.118-.685.447-.685-.156-1.39-.023l-.794.428a20.488 20.488 0 00-.43-.628c-.45-.427-.808-.388-1.396-.492.299 3.434-.178 6.5-.935 9.849-.365 1.611-.989 3.188-1.304 4.801-.352 1.803.417 2.624 1.605 3.826-.301.157-.83.328-1.079.563-.396.374-.294.42-.294 1.005 0 1.073-.206 2.13-.375 3.184-.312 1.953-.598 3.974-1.271 5.844-1.224 3.397-3.203 6.924-5.218 9.915-1.128 1.674-2.259 3.576-3.673 5.021-1.419 1.449-2.825 2.912-4.241 4.366-2.786 2.862-5.831 4.839-9.168 6.982-1.322.848-2.714 1.778-3.851 2.835-1.155 1.074-2.692 1.825-4.072 2.605-.616.348-1.055.848-1.72 1.134-.625.267-1.061.355-1.585.707-1.301.872-2.705 1.618-4.137 2.276-1.746.802-3.464 1.736-5.257 2.42-.818.313-1.586.653-2.378 1.018-.856.394-1.78.654-2.658 1.074-.743.356-1.494.563-2.25.853-.617.238-1.101.622-1.731.87-1.307.515-2.496.793-3.766 1.4-1.687.807-3.686 1.183-5.463 1.764-1.984.648-4.043 1.293-6.079 1.753-.866.196-1.604.452-2.441.748-.545.193-1.17.299-1.774.482-1.669.508-3.337.997-5.015 1.429a110.72 110.72 0 00-9.806 3.002 54.074 54.074 0 00-4.957 2.088c-1.807.864-3.755 1.362-5.569 2.218a492.095 492.095 0 00-10.462 5.087c-1.819.911-3.613 1.85-5.389 2.841-.645.359-1.35.508-1.99.86-.837.461-1.524 1.138-2.382 1.595-3.306 1.762-6.68 3.422-9.716 5.651-1.59 1.166-3.297 2.361-4.67 3.782-.453.468-1.239 1.194-1.32 1.874-.121 1.006-.008.08.34.701.484.058.594.244.33.555a.592.592 0 01-.468.224c-.61.123-1.752-.522-2.243-.792-.85-.468-1.302-1.059-1.848-1.844-1.186-1.703-2.343-3.422-3.565-5.101-1.099-1.51-2.174-3.173-3.424-4.56-.847-.94-.911-.529-1.854.001-.701.394-1.516.562-2.243.934-2.77 1.416-5.814 2.461-8.655 3.448-.647.224-.992.581-1.56.891-.724.396-1.642.589-2.416.87a353.376 353.376 0 00-6.374 2.392c-1.636.629-3.207 1.125-4.487 2.286-.51.462-1.127.793-1.653 1.26-.613.544-1.441 1.428-2.212 1.736l-.47.366-.955-.661c-.316-.218-.633-.435-.948-.654-.792-.55-1.579-1.107-2.366-1.664-1.786-1.263-3.583-2.513-5.244-3.939-2.951-2.532-6.013-4.928-9.099-7.299-3.238-2.489-6.395-5.094-9.745-7.433-3.035-2.121-6.348-3.911-9.291-6.149-1.482-1.127-2.96-2.26-4.472-3.351-.083-.06-1.314-.813-1.326-.897-.021-.154.384-.556.504-.685.566-.615 1.193-1.161 1.757-1.782 2.629-2.893 6.06-2.792 9.688-2.928 1.646-.062 3.43.695 4.992 1.21 1.91.63 3.753 1.555 5.599 2.354 3.803 1.646 7.728 3.053 11.57 4.577 1.51.6 3.016.892 4.552 1.304 1.558.418 3.163.02 4.83.05.864.015 1.682.065 2.553.016.517-.029 1.113-.126 1.623-.118.414.008.844.178 1.225.135 1.667-.189 3.428-.453 5.147-.669 1.708-.215 3.47-.322 5.154-.658a18.395 18.395 0 002.501-.695c.709-.25 1.997-.533 2.578-1.037.52-.452.293-.458.003-1.195-.115-.291-.234-.733-.404-1.013-.46-.759-.904-.997-.637-1.946.472-1.672 2.078-2.74 3.454-3.563 3.098-1.855 5.931-4.234 9.194-5.808 6.722-3.242 12.848-7.453 19.403-11.014 7.206-3.913 14.022-8.505 21.328-12.254 6.801-3.488 13.57-6.998 20.427-10.377 3.348-1.649 7.135-3.159 10.173-5.321-1.683-.209-3.371-.478-5.06-.627-.784-.069-1.576-.005-2.355-.129-.872-.139-1.695-.491-2.565-.637-1.495-.252-2.839-.764-4.336-.952-1.604-.203-3.176-.673-4.788-.805-3.372-.276-6.415-1.517-9.372-3.081-.731-.387-1.333-.165-2.034-.429-.386-.144-.796-.723-1.23-1.034-1.195-.856-2.221-1.867-3.356-2.802-2.387 5.346-7.075 8.982-11.549 12.569-2.266 1.816-4.725 3.355-7.014 5.137-1.775 1.382-3.387 2.619-5.281 3.718-1.82 1.054-3.528 2.478-5.263 3.744-1.175.859-2.553 1.507-3.803 2.252-1.022.609-3.016 1.518-3.294 2.623-.228.902.217 1.976-1.164 1.561-1.236-.371-2.132-1.74-2.852-2.705-1.862-2.496-3.599-5.076-5.327-7.664-.929 1.809-2.53 3.111-4.01 4.452-.9.814-1.834 1.57-2.805 2.297-.471.353-.947.699-1.42 1.051-.185.139-.607.352-.727.548-.282.458-.11.251-.067.804.069.868.359 1.55-.133 2.381-.462.78-1.47 1.113-2.175 1.646-1.68 1.269-3.446 2.617-5.31 3.607-.422.225-.822.42-1.216.695-.658.459-.538.626-1.2.186-1.037-.689-1.932-1.831-2.867-2.662a287.223 287.223 0 00-5.947-5.141c-3.824-3.211-7.76-6.263-11.537-9.531-3.588-3.106-7.435-5.78-11.14-8.733-1.017-.81-2.02-1.636-3.023-2.463-.894-.735-2.343-1.546-3.003-2.487-.96-1.367 2.793-3.236 3.925-3.514 1.953-.48 4.477-.205 6.433.188 2.052.412 4.142 1.791 6.059 2.651 2.16.968 4.36 1.805 6.537 2.719.97.407 2 .733 2.9 1.282.956.583 1.81 1.247 2.826 1.736 1.172.562 2.39 1.087 3.621 1.504.558.188 1.16.377 1.746.454.83.107.718-.274 1.408-.488.587-.181.726.298 1.253.431.497.126.868-.001 1.298-.268.958-.593 1.811-1.412 2.77-2.03.89-.574 1.87-1.11 2.704-1.759.371-.29.646-.686 1.013-.98.587-.471.82-.284 1.505-.609.56-.265 1.069-.76 1.602-1.087.33-.203 1.133-.46 1.346-.789.561-.864-.396-1.464-1.253-1.209-.128-.746-.787-2.517-.503-3.216.252-.619.913-.503 1.47-.83 2.09-1.232 3.632-3.469 5.587-4.916 1.844-1.364 3.47-2.992 5.296-4.381 1.564-1.19 3.274-2.351 4.698-3.635 1.684-1.517 3.84-2.697 5.671-4.051 1.892-1.399 3.65-2.955 5.52-4.37 1.801-1.361 3.57-2.782 5.42-4.078 1.662-1.165 3.405-2.228 5.033-3.408a14.366 14.366 0 012.885-1.639c1.012-.423 1.898-.918 2.886-1.372 1.965-.904 4.523-1.528 6.659-1.787 2.348-.285 4.707-.54 7.078-.542 1.263-.001 2.489.239 3.745.315 1.153.07 2.401.36 3.546.322.518-.017.969-.236 1.471-.165.42.059.785.311 1.234.355 1.002.099 2.009 0 3.022.13 2.327.297 4.658.72 6.99.955 2.484.251 4.947.299 7.419.721 2.415.413 4.845.841 7.246 1.319 5.104 1.015 10.26 2.006 15.282 3.513 1.174.353 2.355.688 3.484 1.171.548.234 1.074.518 1.645.693.818.251.979.346 1.401-.339.725-1.179 1.125-2.738 1.651-4.02.52-1.269 1.152-2.548 1.454-3.873-.877-.14-1.984.13-2.89.161-1.107.038-2.202.014-3.308.008-2.229-.014-3.972-.67-6.081-1.36-1.778-.582-4.144-.915-5.5-2.247-.727-.714-.969-.84-2.062-.711-1.103.129-2.192.351-3.305.388-4.195.139-8.371.87-12.586 1.014-1.14.039-3.991.578-3.804-1.352.038-.4.346-.748.406-1.16.064-.442-.047-.89-.116-1.322-.165-1.022-.337-2.044-.502-3.066-3.843 1.23-7.734 2.228-11.65 3.203-1.624.404-4.233 1.333-5.911.824-1.622-.493-.683-2.774-.178-3.865-3.223.734-6.661 1.934-9.947 2.21-1 .084-1.974.305-2.206-.902-.186-.96.51-2.136.865-2.98-2.523-.225-5.135-.204-4.66-3.43.435-2.96 2.899-3.55 5.523-4.09 3.239-.668 6.546-.891 9.805-1.431 2.836-.47 5.931-.995 8.827-.758 1.533.126 3.076.154 4.609.296.723.067 1.418.179 2.118.376.646.18 1.549.743 2.211.753.999.016 2.203-1.332 3.277-1.644 1.331-.386 2.765-.456 4.14-.55 1.559-.107 3.12-.167 4.677-.293.355-.028 1.697.06 1.977-.148.408-.302.137-1.853.108-2.49-.026-.59.088-1.694-.322-1.925-.384-.217-1.505.08-1.883.141-1.569.251-3.059.222-4.622.159-.722-.03-1.415.162-2.13.067-.766-.1-1.538-.358-2.302-.501-1.655-.31-3.162-.697-4.588-1.621-1.251-.812-2.732-1.362-3.431-2.783-.513-1.041-.721-3.05.785-3.346-1.025-1.477-1.733-3.135-2.277-4.84-.099-.31-.164-.776-.311-1.046-.521-.954-.038-.108-.781-.49-.734-.376-1.263-.674-1.837-1.33-.914-1.044-1.299-2.33-1.415-3.691-.157-1.85-.45-3.934-.179-5.774.468-3.187 2.802-5.581 5.174-7.508 1.287-1.047 2.982-1.437 4.492-2.072 1.458-.613 3.086-1.256 4.622-1.4 1.386-.13 2.738-.58 4.125-.763 1.908-.25 3.817-.157 5.734-.233.882-.035 1.762-.16 2.64-.254.496-.053 1.335.004 1.789-.193.743-.32.341.354.607-.629.505-1.87.917-3.623 1.682-5.44.713-1.693 1.578-3.312 2.722-4.76 1.073-1.357 2.465-2.35 3.729-3.51.936-.859 1.999-1.635 3.067-2.33.611-.397 1.291-.611 1.888-.962.741-.435 1.395-.765 2.229-1.031 1.789-.572 3.564-1.179 5.465-1.149 2.048.032 4.102-.444 6.097.16 3.703 1.12 5.517 5.125 5.455 8.803 1.267-.316 2.374-.923 3.716-.975 1.236-.047 2.704.06 3.918.289 2.356.444 4.779 1.75 6.183 3.731 1.34 1.889 1.541 4.397.717 6.54-.394 1.026-1.019 1.938-1.685 2.805-.488.636-1.577 1.34-1.629 2.19 9.119-2.75 18.275-4.689 27.708-5.943 4.781-.636 9.571-.318 14.358-.681 2.044-.155 4.266.062 6.38.07.892.004 1.587-.12 2.234-.697.655-.583 1.178-1.297 1.942-.455.195.215.236.734.498.896.318.195 1.242.061 1.622.084 1.33.081 2.627.306 3.932.566 2.395.475 4.774.956 7.14 1.56 4.505 1.15 8.951 2.262 13.391 3.627 4.531 1.393 9.109 3.112 13.287 5.367 2.023 1.092 4.044 2.455 5.905 3.806.865.628 1.64 1.308 2.392 2.066.804.81 1.788 1.356 2.584 2.172 1.733 1.775 3.458 3.657 5.03 5.58.821 1.004 1.573 2.063 2.304 3.133.513.75 1.864 2.125 1.553 3.094-.166.518-.745.88-1.276.754-.177-.043-.325-.272-.476-.294-.512-.073-.046-.253-.644-.01-1.189.48-1.568 1.446-3.078 1.226-2.567-.374-4.981-1.583-7.316-2.638-.666 2.544-.761 5.18-1.344 7.755-.569 2.51-1.519 4.906-2.664 7.21-1.005 2.02-2.296 4.174-4.075 5.618-1.358 1.102-4.708 2.471-5.705.125-.424-.996.206-2.545.385-3.57.239-1.377.503-2.757.647-4.147.117-1.13.176-2.266.285-3.397.094-.972.354-3.06-.194-3.92-.33-.517-.359-.01-.551.507a20.018 20.018 0 00-.597 1.895c-.363 1.371-.69 2.752-1.033 4.129-.613 2.46-1.288 4.865-2.564 7.077-1.135 1.964-2.731 4.118-5.156 4.44-1.136.15-2.616-.368-3.483-1.131-.972-.857-.682-2.269-.674-3.433zm-55.384 100.435c1.333-.262 2.455-1.324 3.543-2.121 1.389-1.017 2.706-2.126 4.054-3.194 2.54-2.013 4.845-4.222 7.037-6.623 4.325-4.738 7.58-10.837 9.06-17.068.749-3.153 1.675-6.847 1.25-10.105-.148-1.132-.373-1.34-1.485-1.468-.503-.058-1.777-.202-2.23-.005-1.172.511-1.805 2.685-2.152 3.778-1.027 3.227-1.631 6.569-2.559 9.823-.91 3.188-2.375 6.424-3.825 9.406-3.225 6.635-7.708 12.186-12.693 17.577zm26.442-36.631c-.798 9.035-3.312 17.643-8.948 24.919-2.679 3.459-5.83 6.468-9.245 9.201-3.527 2.822-7.128 5.48-11.129 7.585a144.998 144.998 0 01-3.209 1.653c-.598.297-2.106 1.388-2.796 1.215-.552-.138-.696-.565-.782-1.119-.193-1.245.617-1.867 1.437-2.666 3.292-3.212 6.594-6.435 9.673-9.851 6.079-6.748 10.646-14.828 13.184-23.546.782-2.684 1.48-5.398 2.324-8.063.514-1.624 1.243-4.515 2.951-5.324.917-.434 1.984-.012 2.948-.272.903-.244 1.502-.742 2.272.093 1.352 1.465 1.412 4.339 1.32 6.175zM.82 196.988c-.674.239-.702.475-1.012-.217-.155-.35-.113-.828-.076-1.191.087-.868.546-1.671.922-2.441 3.545 2.917 7.225 5.547 11.026 8.124 4.064 2.757 7.945 5.822 11.789 8.875 3.442 2.735 6.926 5.389 10.332 8.158 1.643 1.335 3.517 2.37 5.078 3.746 1.262 1.113 3.355 1.611 4.431 2.919-1.705 1.017-3.98 1.836-5.87.956-2.084-.97-3.683-2.235-5.538-3.55-.956-.678-1.95-1.293-2.92-1.948-.854-.577-1.457-1.418-2.32-1.959a76.927 76.927 0 01-5.402-3.687c-1.77-1.333-3.726-2.394-5.434-3.811-1.75-1.453-3.71-2.415-5.537-3.737-3.873-2.803-7.284-5.955-9.469-10.237zM105.319 48.175l-.144.774c.029.007 2.347-4.461 2.731-5 1.302-1.83 2.997-3.352 4.631-4.88 3.46-3.235 7.511-5.847 10.903-9.14 1.115-1.084 3.115-2.726 2.673-4.558-.438-1.821-4.141-1.45-5.41-.924-1.988.826-3.602 2.554-5.084 4.06-1.616 1.642-3.245 3.266-4.615 5.125-1.476 2.004-2.878 4.175-3.783 6.5-1.014 2.607-1.41 5.303-1.902 8.043zm.761 7.994c-1.573.484.399.811-.217 1.65-.676.92-1.811-1.914-1.981-2.45-1.001-3.16-.554-7-.007-10.209.276-1.618.454-3.264.827-4.865.363-1.562 1.154-3.046 1.885-4.466 1.463-2.842 3.401-5.49 5.599-7.807 2.206-2.325 4.664-4.65 7.574-6.082 2.405-1.182 6.216-.362 7.342 2.22 1.15 2.638-.406 5.512-2.245 7.367-2.399 2.42-5.014 4.823-7.709 6.91-1.385 1.072-2.546 2.368-3.892 3.487-1.432 1.191-2.671 2.39-3.73 3.93-1.026 1.492-2.081 2.984-2.748 4.678-.73 1.856-.698 3.674-.698 5.637z" fill="#000"/><path d="M43.173 169.947c-3.614-2.323-7.24-4.361-10.387-7.323-3.108-2.923-5.823-6.221-9.281-8.758-1.726-1.265-3.506-2.453-5.201-3.761-1.61-1.24-3.458-2.303-4.912-3.718-1.938-1.887-5.567-5.392-3.091-8.205 3.073 3.647 7.29 6.522 11.135 9.291 4.053 2.919 7.774 6.325 11.619 9.506 3.704 3.064 7.395 6.157 11.01 9.302.949.826 1.864 1.694 2.825 2.507.117.099 1.112.729 1.112.896 0 .402-.771.653-1.046.764-.434.177-1.607.615-2.1.467-.257-.078-.262-.288-.447-.412a3.709 3.709 0 00-.374-.569l-.862.013zm212.756-40.487c-2.576-.067-6.497-.074-6.353 3.436.071 1.739 1.016 3.015 1.792 4.502.815 1.562 1.418 3.176 1.658 4.928.967 7.089-1.628 14.014-3.975 20.568 5.041-4.06 8.681-9.709 10.592-15.901.927-3.002 1.288-6.862.988-9.988-.15-1.565-.728-2.967-1.424-4.361-.35-.7-.699-1.5-1.257-2.067-.559-.568-1.333-.757-2.021-1.117zm-8.987 37.494c-1.664-2.731.957-6.752 1.813-9.416 1.025-3.183 1.97-6.499 2.408-9.819.458-3.479-.134-6.183-1.75-9.256-1.445-2.747-2.302-6.405-.696-9.311.647-1.17 1.602-1.314 2.738-1.78 1.394-.573 1.777-1.541 3.488-1.388 3.052.273 4.464 3.162 5.599 5.622 2.647 5.737 1.927 13.14-.33 18.901-1.299 3.314-2.781 6.756-4.987 9.578-1.082 1.384-2.353 2.583-3.673 3.738-1.427 1.249-2.706 2.753-4.61 3.131zM72.665 67.357c-4.023.807-7.695 2.616-8.34 7.128-.585 4.1 2.214 7.894 5.651 9.813 3.718 2.077 8.376 2.422 12.08.12 3.9-2.422 4.785-7.277 2.411-11.086-2.648-4.25-7.085-5.505-11.802-5.975zm2.586-1.968c4.791.701 9.239 4.103 10.852 8.686 1.664 4.723.135 9.917-4.27 12.505-8.901 5.231-20.8-3.487-18.65-13.507.545-2.544 2.094-4.514 4.199-6.004 2.323-1.644 5.133-1.69 7.869-1.68zM245.594 17.42l-17.319-7.814-.71 7.834c-.064.706-.327 1.667-.215 2.365.12.744-.136.664.837.558 1.243-.135 2.49-.441 3.72-.66 2.212-.394 4.564-.507 6.729-1.086 1.105-.296 2.163-.333 3.284-.512 1.232-.196 2.43-.56 3.674-.685zm-19.528 5.048c0-2.942.327-5.843.597-8.771.243-2.634.337-5.145 1.198-7.655.805 1.459 3.034 2.042 4.413 2.792 1.901 1.035 3.925 1.796 5.87 2.739 1.911.925 3.752 1.987 5.665 2.91.97.469 1.955.905 2.923 1.377.606.296 2.043.771 2.42 1.32 1.145 1.665-2.773 1.826-3.529 1.973-2.268.441-4.562.69-6.826 1.143-2.11.424-4.224.817-6.342 1.2-2.096.38-4.256.972-6.389.972zM48.064 95.285c2.273-.236 4.536-.575 6.807-.8 2.15-.212 4.051-.438 6.016-1.42a289.634 289.634 0 00-8.077-2.302c-1.341-.361-2.68-.744-4.028-1.082-1.043-.261-1.952-.412-2.352-1.547-.467-1.322.83-1.122 1.639-.786 1.115.463 2.33.751 3.486 1.136 2.58.86 5.175 1.65 7.78 2.432.81.243 5.5 1.141 3.81 2.702-.724.669-2.338 1.036-3.222 1.516-1.134.616-2.37.86-3.63 1.106-2.63.51-5.36.707-8.022 1.15l-4.078.678c-.797.132-1.103.12-1.311-.767-.152-.644.046-1.288.19-1.912.37-1.585.78-3.162 1.186-4.738.154-.6.428-3.243.965-3.532 1.219-.656.278 3.002.188 3.45-.342 1.69-.748 3.368-.931 5.083 1.197-.108 2.391-.22 3.584-.367zm32.229 13.453c.45 1.13-.298 1.383-1.207 1.775-1.179.508-2.338 1.043-3.539 1.501-2.525.961-5.068 1.854-7.533 2.967-4.701 2.121-9.466 4.159-14.094 6.43-1.15.565-2.301 1.127-3.462 1.671-1.2.563-2.576 1.509-3.86 1.83-1.12.281-1.236-.515-.573-1.248.856-.945 2.178-1.651 3.253-2.308 4.422-2.704 9.247-4.906 14.077-6.766 5.582-2.151 11.18-4.215 16.938-5.852zm12.274-64.11c-.162-3.436.299-6.881.024-10.308-4.721 4.177-2.395 10.631.32 15.163l-.344-4.855zm2.044-.196c.03 1.678.125 3.356-.039 5.026-.171 1.753.653 2.656 1.727 3.947-.912.923-3.005-1.23-3.583-1.866-1.19-1.307-2.076-3.044-2.864-4.614-1.678-3.344-2.834-6.925-1.49-10.597.497-1.36 1.106-3.21 2.425-4.003 1.447-.87 2.555.357 3.155 1.62 1.467 3.078.349 7.181.669 10.487zm50.017 170.791c2.177.173 4.322.342 6.499.48L150 206.768l-3.779.873c-.596.138-1.509.174-2.036.47l-.591.137c-.006.386-.01.773-.014 1.16a115.414 115.414 0 01-.095 3.429c-.02.478-.187 1.18-.073 1.654-.203.48-.074.683.39.612l.826.12zm-1.498 2.153c-1.707-.848-1.24-3.438-1.238-5.087.002-1.049.077-2.092.104-3.139.019-.72-.146-1.612.102-2.307.442-1.238 2.603-1.204 3.715-1.118.824.064 1.513.023 2.358-.031.416-.027.881.052 1.29-.07.088-.027.92-.606.883-.607 1.493.057 1.513 3.628 1.61 4.534.239 2.234.456 4.472.651 6.711.052.592.273 1.262-.291 1.6-.509.305-1.857.003-2.42-.014-2.267-.068-4.522-.421-6.764-.472zM249.657 84.667c.986.886.512 1.8.189 2.907-.194.664-1.262 2.845-.967 3.467.34.718 1.939.895 2.623 1.122 1.191.395 2.388.792 3.515 1.349.5.247 2.304.816 2.642 1.277.194.265.264.472.119.813-.256.599-.621.282-1.244.154-2.849-.588-5.673-1.339-8.314-2.577-.737 1.706-1.361 3.448-1.984 5.198-.182.513-.357 1.678-1.05 1.762-.846.1-.858-1.03-.801-1.64.082-.89.544-1.84.823-2.683.231-.696 1.039-2.145.939-2.862-.068-.494-.37-.46-.907-.653l-1.523-.55c-.814-.298-1.624-.596-2.415-.948-.435-.193-1.344-.42-1.658-.82-.183-.233-.386-1.071-.156-1.303.539-.544 4.121.92 4.857 1.119.489.132.98.234 1.454.407.179.066.392.335.586.345.824.041.889-.59 1.145-1.27.594-1.575 1.238-3.183 2.127-4.614zm-205.37 31.354c-.439-1.075 4.224-2.373 5.09-2.735 2.112-.882 4.375-1.416 6.562-2.09a137.52 137.52 0 006.408-2.143c.654-.237 5.365-2.526 5.612-2.192.816 1.108-9.07 4.587-10.033 4.933-4.473 1.607-9.092 2.841-13.639 4.227zm200.531-84.029c-1.209.012-2.952.355-4.061-.136l4.061.136z" fill="#000"/><path d="M75.251 65.39l-2.687-.01c.897-.207 1.793-.333 2.687.01zm139.946-.717l1.897-.01-1.897.01zM270.6 81.052c-.005.676-.009 1.352-.015 2.026l.015-2.026zM145.813 205.726l-2.019.145 2.019-.145zm3.792-128.91l-2.049.167 2.049-.167zm70.727-12.365c.484 0 .967-.002 1.447-.003l-1.447.003zm-97.317 13.686l-1.803.162 1.803-.162zm26.549-42.813l-1.804.01c.6-.317 1.201-.235 1.804-.01zM39.831 139.076c-.5-.027-.907.216-1.19-.261.462-.36.729.054 1.19.261zm92.754-40.063l-1.561-.175 1.561.175zm10.544 118.363l1.031.023-1.031-.023zm80.098-184.404l-1.612.144 1.612-.144zM52.939 195.625l-1.548.006 1.548-.006zm-41.487-9.129l-1.562.003 1.562-.003zM143.089 77.245l-1.587.156 1.587-.156zm-14.756.858l-1.561-.18c.516.1 1.088-.297 1.561.18zm47.127 20.843c.324-.037.779-.15 1.113-.097-.044.19-.989.096-1.113.097zm-33.008 40.732l1.043.019-1.043-.019zm-31.529-41.484l-1.529.148 1.529-.148zM53.847 96.46l.83.024-.83-.023zm75.13 2.118l-1.308-.026 1.308.026zm-80.913-3.293l-1.322.163 1.322-.163zm60.464-3.737zm20.766 45.684l.826-.054-.826.054zm21.144-35.772l-1.333-.166 1.333.166zM43.173 169.946zm-23.688-35.772l-1.379-.139 1.38.139zM9.68 186.56l-1.356.156 1.356-.156zM255.906 64.6c-.035.39-.07.78-.107 1.168l.107-1.167zM55.638 195.236l-1.363.157 1.363-.157zm-4.458.45c-.46.321-.92.339-1.38.001l1.38-.001zm-8.718.382l-1.338.001 1.338-.001zM94.61 44.432l-.114-1.183.115 1.183zm48.698-8.817zm1.587-.209l-1.366.153c.456-.05.911-.102 1.366-.153zm-70.718 52.61l.837-.013-.837.013zm40.565-4.372c1.487-.246 2.974-.327 4.46-.001h-4.46zm39.654-16.69c.31-.807.387-1.11 1.142-1.527-.314.784-.363 1.203-1.142 1.526zm36.258 79.822l.09 2.515-.09-2.515zm53.92-112.847l-2.014.045 2.014-.045zm-89.602 127.752l.07 2.096-.07-2.096zM72.55 139.283l2.038.015-2.039-.015zm57.752-35.909zm-1.334-22.223l-1.007-.033 1.007.034zm-48.145 57.921l1.594-.156-1.594.156zm-11.575.237l1.56-.024-1.56.024zm5.556-.012l1.617-.141-1.617.141zm1.965.851l-.8-.004.8.004zm113.65-12.013l.12-1.181-.12 1.181zm-80.458-39.836l1.014.086-1.132.058c.002-.077.041-.125.118-.144zm86.832 66.282zM116.028 86.93zm99.323 45.302l1.357.159-1.357-.159zm-93.935-29.736zm-16.097-54.321c.292.155.141.84-.144.774l.144-.774zm150.61 81.284l-.801-.021.801.021zM92.567 44.628l-.085-1.806.085 1.806zm50.822 170.414l1.24.182-1.24-.182zm-2.733-155.145c-1.457.3-2.954.456-4.378.897-.355.11-1.52.785-1.946.607-.646-.27-.319-.966-.047-1.337.728-.992 2.031-1.548 3.226-1.535 1.193.012 2.83-.031 3.145 1.368zm-4.05 2.661c1.606 1.121 2.832 1.674 2.968-.846 1.739.236.96 3.032-.357 3.243-1.432.23-2.388-1.199-2.611-2.397z" fill="#000"/></g><defs><clipPath id="clip0"><path fill="#fff" d="M0 0h310v232H0z"/></clipPath></defs></svg>