<svg width="310" height="232" viewBox="0 0 310 232" fill="none" xmlns="http://www.w3.org/2000/svg" preserveAspectRatio="none"><path fill-rule="evenodd" clip-rule="evenodd" d="M105.957 106.973l2.852 28.73 15.525-8.84v27.551c0 .508-.302 2.251 0 2.69.256.373 2.152.383 2.601.446 2.926.409 5.859.773 8.796 1.096 7.741.853 16.027 2.076 23.797 1.095 6.755-.852 13.303-3.249 19.475-6.039a107.706 107.706 0 006.399-3.147c.445-.238 2.059-.798 2.3-1.282.198-.395-.266-1.782-.327-2.198l-.783-5.249-3.642-24.435 6.881 6.856c.539.537 1.562 2.062 2.308 2.3.547.174 1.901-.366 2.441-.47l11.688-2.247c.907-.174 2.953-.168 3.718-.715.412-.295.431-.894.577-1.463l2.85-11.143c.171-.669 1.126-2.779.884-3.452-.087-.242-.509-.407-.767-.565l-17.639-10.75-9.664-5.89c-1.349-.822-3.006-2.304-4.535-2.764-.949-.285-2.33-.071-3.312-.1l-5.987-.17c-.312-.009-1.407-.231-1.67-.047-.219.153-.128.366-.2.73-.175.89-.176 1.85-.263 2.752-.069.725.068 2.054-.259 2.71-.209.42.056.253-.227.455-.337.242-1.412.164-1.813.21l-5.867.68c-2.325.27-4.676.775-7.012.542-3.541-.352-7.359-.335-10.837-1.08-.903-.193-1.229-.7-1.926-1.395-1.361-1.356-2.708-2.728-4.083-4.069-.674-.657-.386-.546-1.081-.296-.871.312-1.754 1.066-2.542 1.545l-9.062 5.508-18.44 11.208-1.154.702z" fill="#FFAEAD"/><path fill-rule="evenodd" clip-rule="evenodd" d="M282.335 108.162c-3.802 14.401-11.447 30.103-26.849 34.693-3.745 1.116-7.388 1.958-11.278 1.534-.37-.041-.68.011-1.032.018-.631.012-.086.238-.793.02-.552-.17-1.068-.595-1.643-.783-1.529-.499-3.158-.596-4.711-.999a121.972 121.972 0 01-11.448-3.58c-1.742-.643-3.342-1.539-4.98-2.401-1.665-.876-3.43-1.42-5.114-2.223-1.33-.635-3.61-1.463-4.546-2.653-.997-1.271.383-3.975.778-5.325 1.341-4.595 2.939-9.122 3.947-13.808 3.482 4.026 8.314 6.519 13.316 8.127a49.699 49.699 0 008.33 1.899c2.563.358 5.328.792 7.897.283 1.94-.384 4.375-1.274 5.76-2.751.494-.528 1.087-1.494.81-2.26-.351-.973-1.376-.515-1.93-1.241-.483-.632-.408-2.11-.562-2.88a29.969 29.969 0 00-1.103-3.999c-.886-2.546-1.99-5.098-2.255-7.807-.23-2.351.307-4.574 1.482-6.614.555-.964 1.95-3.587 3.311-3.478 1.495.12-.521 6.405-.587 7.687-.261 5.083.422 10.499 3.036 14.955 1.001 1.706 2.448 3.692 4.585 3.903 2.264.224 4.089-1.553 5.167-3.351 2.628-4.387 1.303-10.406-.028-15.004-1.633-5.64-5.896-9.528-8.591-14.594 4.024.404 6.179 2.954 8.244 6.19 2.273 3.563 4.043 7.841 4.916 11.986.441 2.095.137 4.198.139 6.313.001.703.001 3.295 1.149 3.193 1.227-.109 1.648-3.033 1.829-3.925.413-2.045.861-4.091 1.22-6.147.636-3.638.918-7.363 1.679-10.975.129-.61.385-2.305 1.301-1.847.707.352.593 2.972.619 3.581.063 1.501.153 3.002.165 4.504.018 2.227-.427 4.532-.209 6.745.143 1.446.92 3.043 1.885 1.093.956-1.934 1.151-4.346 1.684-6.426.56-2.183 1.138-4.4 2.327-6.339.329-.538.684-1.392 1.417-1.139.532.184.925 1.444 1.09 1.888.742 2.008.616 4.241.569 6.344-.057 2.576-.334 5.096-.993 7.593zm-74.125 3.737c-.203-.065-1.066-.147-1.28-.165-.251-.022.034-.483-.573-.352.117.29.325.483.625.58-.913.308-1.586-.453-2.211-.551-.597-.093-.622 0-1.212.63-.638-.778-.518-.293-1.043-.293-.191.001-.2.289-.511.254-.271-.03-.299-.441-.46-.489-.871-.263-1.767 1.06-2.755-.088-.24 1.195-2.983-.302-4.038-.092-1.106.22-.629.616-1.523-.061-.852-.644-.614-.216-1.605.311.023-.012-.559.381-.505.387-.686-.08-.647-.788-1.516-.75-.919.04-1.312.759-2.153-.126-.183.663-.221.377-.652.544a.625.625 0 01-.623-.186.451.451 0 01-.356.335c-.469.042-1.351.107-1.777-.119-.64-.338-.126-.468-.57-.849-.199 1.05-.635.827-1.554.925-.702.075-.856-.14-1.526-.244-.66-.103-1.513.152-2.157.261-.266.045-.622.23-.892.165-.244-.058-.348-.247-.494-.296-.177-.06-.139-.214-.445-.289-.21-.051-.588.146-.798.18-1.501.243-2.942.246-4.374-.344.705 1.237-1.648.569-2.068.057-.524.82-1.158.241-2.215.305-1.018.062-2.549.373-2.962-.892-.08.257-.658 1.003-.888 1.117-.667.33-.747-.158-1.367-.357-.844-.27-.668.243-1.192.348-.884.176-1.361-.445-2.142-.775-.033.513-.05.829-.495 1.149-.394-1.431-1.799.117-1.558-1.796-.535.348-1.287.615-1.44 1.317.895-.245.096.338.058.358-.118.061-.517-.498-.61-.577l-.076.792c-.356-.178-.69-.496-.979-.656-.261-.143.112-.442-.328-.463-.232-.011-.474.49-.718.533-.372.065-.193-.468-.349-.45-.237.027-.624.374-.804.367-.588-.022-.19-.295-.639-.42-.803-.225-.751.299-1.328.488-1.32.433-1.188-1.557-2.531-.23-.321.318-.528.808-.968.78-.912-.056-.592-1.135-.406-1.663.191.095-3.331 1.9-3.303 1.829.022-.433.576-.767.081-1.151-.405.866-.831.882-1.764 1.043-.454.078-.543.183-1.029-.005-.309-.12-.517-.612-.824-.639.041.004-.524.432-.61.471-.509.229-.832-.031-1.327.064-.422.08-.588.438-1.008.34-.56-.131-.231-.799-1.002-.612-.264.063-.422.57-.838.675-.647.164-1.441-.141-2.125.018-.543.126-.946.18-1.421.206-.383.021-.226-.276-.932.075l-.299-.753-1.061.952a5.162 5.162 0 01-.128-.864c-.527.527-1.191.617-1.9.664-.767.051-1.339.218-2.086.358-.236.044-.844.115-1.038.033.028.012-.364-.151-.245-.12a4.455 4.455 0 01-.142-.315c-.066-.298-.281-.311-.643-.04-.187-.028-.55-.274-.737-.213-.482.156-.416.529-.896.474-.312-.036-.471-.495-.795-.526-.496-.048-.926.507-1.373.627 1.359-.368-1.764-.082-.793-.057-.636-.016-1.297-.048-1.885.237-.325-.222.069-.668-.259-.851-.298-.167-.321.273-.356.283.188-.054.094.32-.094.387-.586.207-1.054-.32-1.085-.842-.498.747-.637.447-1.369.493-.722.045-1.345.423-2.067.416-1.429-.013-2.398-.509-2.875-1.782 1.522.185 3.054-.791 4.543-.561.489.075.794.442 1.223.377.528-.08.897-.655 1.574-.717 1.493-.136 2.965-.003 4.469-.232 1.796-.273 3.671-.435 5.484-.302 1.401.103 2.536-.432 3.957-.534 1.837-.134 3.69-.158 5.53-.254 1.891-.099 3.926-.4 5.812-.304.589.031 1.095.088 1.68.053.247-.015.481-.182.74-.157.338.032.483.377.833.365.595-.02 1.232-.51 1.939-.523 1.163-.022 2.322-.019 3.488-.085 1.027-.058 2.127-.298 3.15-.285.721.009.899.622 1.319.686.755.113 4.578-2.057 4.908-.109 1.99-1.359 4.659-.208 6.874-.464 2.845-.328 5.743-.035 8.607-.152 2.916-.119 5.914-.009 8.818.265 1.203.114 2.365.22 3.571.151.537-.03 1.159-.167 1.697-.044.13.031 1.127.725 1.003.745.545-.488.176-.559 1.135-.584.738-.02 1.437.139 2.171.183 1.318.078 2.647-.105 3.962-.064 1.098.033 2.172.195 3.276.203 1.19.008 2.596.042 3.457.999l-.273-.902c1.328.104 2.641.577 3.984.356-.34.325-.685.59-.814 1.066.724-.092 1.214-.596 1.977-.6.64-.004.773.317 1.449-.097l.25 1.522c.936-.22.322-.917.39-1.545.761.228 1.406-.034 1.106 1.059-.232.842-1.285 1.257-2.078 1zm-1.316 9.382c-.326.915-3.15.392-3.818.295-.863-.124-1.85-.322-2.645-.42a1.383 1.383 0 00-.342-.323.811.811 0 01-.38.295c-.365.08-.366.456-.845.373-.022.556.365.24.661.442-.747.5-.405-.076-.825-.067-.104-.147-.248-.204-.434-.173a1.976 1.976 0 00-.653.303c-.187.197-.347.207-.48.031a.842.842 0 00-.468-.238c-.736.12-.942.446-1.771.393-1.185-.076-2.466.235-3.632.071-.723-.102-1.93-1.235-2.258-.13-.5-.819-1.296-1.376-1.774-2.212 2.228-.129 4.456-.282 6.686-.362 1.953-.071 4.089.149 5.913.057 1.71-.086 3.52-.275 5.265-.43 1.85-.165 2.462.24 1.8 2.095zm-58.132.135c.809.223 1.579-.283 2.364-.123.259.053.796.524.915.533.216.018.851-.445 1.123-.507 1.724-.391 3.812-.35 5.535-.109.913.127 1.053-.29 1.85-.493.829-.21 2.006-.048 2.878-.106 2.052-.137 4.104-.04 6.142-.189 2.093-.154 4.175-.237 6.268-.345 1.426-.073 4.854-.885 6.035.172.975.871-.281 2.383-1.256 2.728-.729.258-1.078-.285-1.619-.233-.616.058-.402.785-.952.111-.34.67-2.483.385-3.097.429-1.338.096-2.47.364-3.381-.881l.185 1.077c-1.208-.644-2.504-.437-3.552-.213-.519.111-2.113.879-2.675.548-.387-.228.295-.617-.358-.812-.342-.102-.933.465-1.351.437-1.157-.08-.829-.856-1.965.132-.385-.332-.513-.897-.463-1.381-.825.702-.756 1.873-2.232 1.659-.55-.08-.651-.64-.938-.743-.611-.22-.68.176-1.21.489-.199.118-.443.308-.678.332-.484.048-.56-.174-.626-.166-.322.035-.727.198-1.108.082-.343-.105-.443-.708-1.046-.567-.577.135-.582.526-.477 1.112-.57-.059-.914-.375-1.34-.718-.43 1.001-1.335.172-1.836 1.016-.652-.777-1.07-.563-1.879-1.322l.119.95c-.632-.121-.913-.565-1.451.022-.523-.971-2.109.413-2.923-.525-.363 1.189-2.764.904-3.778.925-.899.018-1.564-.055-2.443.153-.776.184-1.851.375-2.581.291-.477-.055-.998-.143-1.592-.078-.857.092-1.597.535-2.484.326-1.336-.315-2.155-2.067-.667-2.836 1.018-.526 2.853-.331 3.974-.428 1.857-.161 3.938-.499 5.798-.346 1.451.12 2.773-.225 4.253-.371 1.115-.11 2.941-.308 3.668.794.279-.321.25-.992.851-.826zm-20.333 15.085c-.199-.991 8.292-1.537 9.135-1.602 1.77-.136 3.544-.233 5.318-.278 1.458-.037 2.818.241 4.277.017 1.362-.208 3.006-.636 4.191.327.174-1.316 5.286-.675 6.258-.671 4.233.015 8.284.025 12.378-.237 2.34-.149 4.825-.351 7.166-.234 1.055.053 1.905.334 2.955.09.685-.159 1.423-.489 2.078-.022.766.547 1.093 2.405.565 3.18-.384.565-.724.503-1.339.405-.944-.15-1.646-.368-2.609.015.156-.062-.645.116-.578.111-1.091.082-2.587.842-3.527-.035.376.066.923-.604.449-.66-.357-.041-.583.34-.861.468-.952.437-1.439.3-2.007-.616-1.146.99-1.27.716-1.773-.503-.387.297-.471 1.002-.776 1.233-.045.034.143.462-.078.444-.204-.016-.271-.35-.428-.377-.1-.017-.152-.31-.248-.327-.105-.02-.212.167-.329.162-.315-.015-1.216.654-.893-.285-.477.606-.683.22-.855-.331l-1.653 1.253c-.256-.711-.697-.517-1.252-.269.168-.493.063-.96-.357-.617-.242.199-.406.829-.654 1.097-1.006-1.016-1.372-.737-2.762-.605-.53.05-1.189.148-1.663-.172-.417-.281-.652-1.312-1.365-.479.159-.185-.09 1.238-.134 1.464a3.106 3.106 0 01-.801-.779c-.41.81-1.486.083-2.368.248-1.389.261-2.821.7-4.048-.331-.086.333-1.091.757-1.093.77.06-.59.433-.383-.329-.495-.14-.02-.299.231-.431.259-.454.094-.984.005-1.441-.008-1.903-.055-3.644.366-5.523.518-.634.051-1.385.152-1.98-.086-.612-.246-.595-.524-1.215-.366.196-.05-.387.561-.356.538-.083.061-.431-.238-.554-.215l-.108.391-.448-.055c-.409.055-.777-.358-1.161-.372.07.003-1.036.414-.986.439-.772-.385-.55-.273-1.53-.039-.926.221-1.849.169-2.799.307-2.764.401-1.117-.982-1.458-2.67zm-2.441 13.79c-.52-.735.863-.99 1.305-1.055.727-.107 1.69.106 2.174-.009.738-.175 1.449-.593 2.279-.706 1.048-.143 2.103-.166 3.155-.256.35-.03.784-.15 1.125-.13.507.031.718.299 1.128.301.698.003 1.56-.437 2.275-.517a43.181 43.181 0 012.762-.198c1.94-.096 3.859-.056 5.798-.059.884-.001 3.239-.916 3.68.11.613-.778 2.185-.672 3.062-.694 1.544-.04 3.072-.189 4.614-.26 1.321-.061 2.797.221 4.094.023.715-.109.952-.337 1.762-.234.603.076 1.521-.241 2.038-.101-.027-.007.645.408.435.421.231-.014.218.147.472.075.335-.094.181-.514.874-.663 1.081-.232 2.522.037 3.645-.023a56.511 56.511 0 013.267-.078c.502.003 1.123-.117 1.611-.019.24.048.748.359.951.328.575-.09.867-.488 1.644-.463.881.028 1.674.016 2.549-.052.848-.064.984-.185 1.404.519.417.698.532 1.607-.235 2.082.498-.033 1.111.633.524 1.001-.363.228-1.09-.286-1.524-.249-.535.046-.955.328-1.537.346-.612.018-1.233.172-1.837.184-.629.012-1.104-.268-1.7-.149-.525.105-.58.534-1.212.158-.314-.188-.367-.882-.795-.889-.574-.008-.345.732-.675 1.074-.089-1.058-.908.693-1.233-.591-.3.426-1.411 1.023-1.949.68-.491-.312-.328-1.019-.532-1.528-.34.915-1.253 1.864-1.17.198-.444.545-1.642.459-1.341 1.412-.361-.007-.447-.522-.751-.561-.262-.033-.471.168-.511.165.144.012-.429.203-.438.204.388-.078-1.12-.213-.864-.21-.35-.003-.778.283-1.187.282-.373-.001-.744-.148-1.112-.189-.954-.109-.755.1-1.354.399-.222.111-.278.298-.593.275-.232-.017-.319-.32-.346-.323-.327-.033-.085-.142-.593-.092l-.174.3c-.184.234-.422.293-.714.176-.751.161-3.242.858-2.998-.433l-1.146.559c-.163-1.041-2.238.339-2.701.409-.594.089-.649-.139-1.211-.26-.101-.022-.304.312-.542.264-.617-.124-.726-.185-.832-.854-.44.821-.805.454-1.603.589-.176.03-.289.376-.542.316-.182-.043-.188-.376-.313-.419-.114-.038-.097-.301-.263-.338-.192-.043-.844.49-1.031.573-.422.185-1.116.492-1.528.4-.509-.113-.282-.49-1.002-.448-1.136.067-1.61 1.031-2.316-.488-.319.608-.278.773-.79.974-.379.149-1.337-.006-1.836-.025-2.128-.078-4.22.645-6.33.456-.928-.083-1.71-.268-2.646-.117-.984.159-1.946.393-2.944.488-.507.048-1.567.193-1.816-.454-.219-.57.598-.959.14-1.607zm4.174 23.363c-2.761 1.842-5.047 4.358-7.581 6.489-2.541 2.136-4.557 4.511-6.843 6.876-2.112 2.187-4.053 4.255-6.608 5.908-1.616 1.045-3.058 2.333-4.718 3.319-1.244.738-3.128 1.709-2.521-.549.622-2.315 1.77-4.655 2.767-6.817 1.417-3.073 2.845-6.117 4.379-9.132.576-1.132.898-2.26 1.812-3.162.995-.982 1.691-2.264 2.78-3.192 4.581-3.903 11.484-.888 16.533.26zm8.658 1.323c-1.252.655-2.653.817-3.98 1.25-1.131.369-2.182 1.025-3.398 1.074 1.107-.83 2.058-1.957 3.306-2.586 1.404-.708 2.678-.193 4.072.262zm54.956 5.458c-4.605-1.551-8.893-3.836-13.379-5.675-.774-.317-6.83-2.307-6.707-3.254 4.244-.776 8.614-2.108 12.868-.656 3.87 1.321 7.018 4.488 10.013 7.139.782.691 5.616 3.841 5.183 4.844-.299.696-2.628.506-3.178.364-.711-.185-1.12-.615-1.678-1.088-.931-.79-1.962-1.284-3.122-1.674zm-8.502-25.907c.7-.642 1.118-1.616 1.787-2.209.858-.762 2.243-.391 3.182.005 2.816 1.187 5.223 3.184 8.022 4.423 3.101 1.373 5.787 3.208 8.584 5.099 2.557 1.728 5.322 3.159 7.932 4.809 2.66 1.681 5.637 2.774 8.334 4.395 2.744 1.651 5.477 3.308 8.114 5.126 4.702 3.243 9.598 6.574 13.077 11.185a49.344 49.344 0 014.773 7.719c1.193 2.419 2.486 5.778.941 8.295-1.484 2.416-4.014 4.32-6.156 6.124-.811.682-1.582 1.512-2.633 1.808-1.279.36-2.77.26-4.085.367-7.031.569-13.58.032-20.508-1.223-6.681-1.209-13.389-1.887-20.121-2.728-3.797-.474-7.594-1.026-11.34-1.816a64.227 64.227 0 01-4.798-1.187c-1.368-.402-2.519-1.287-3.926-1.637-5.971-1.488-12.804-2.057-18.715-4.56 5.231-2.169 10.791-3.48 16.152-5.283 5.644-1.897 11.155-3.489 17.103-4.028 3.061-.278 5.8-1.057 8.744-1.874 2.806-.778 5.735-1.016 8.618-1.365 1.281-.155 4.939.077 5.363-1.594.633-2.489-2.961-2.777-4.493-2.554-2.173.317-3.965.858-5.629-.921-1.698-1.817-3.348-3.677-5.077-5.471-3.206-3.326-6.511-7.173-11.043-8.665-5.529-1.821-11.94-.093-17.457.943-5.826 1.093-11.644 2.14-17.361 3.729-2.368.658-5.422 2.108-7.879 1.876-2.422-.23-5.165-.626-7.505-1.323-1.059-.315-1.93-.899-2.877-1.444-1.233-.709-2.583-1.163-3.89-1.714-2.644-1.113-5.222-2.139-8.075-2.577-2.402-.368-4.953-.587-7.282.253-2.283.825-4.307 2.503-5.901 4.297-1.731 1.948-3.162 4.131-4.58 6.308-.682 1.045-1.513 1.956-2.218 2.978-.593.857-.938 1.81-1.565 2.644-1.403 1.865-2.355 4.251-3.205 6.42-.944 2.41-1.993 5.276-1.768 7.898.085.991.174 2.303.558 3.222.49 1.169 1.186 1.139 2.19 1.58 1.725.757 2.209 2.85 4.439 2.442 2.091-.383 3.904-2.102 5.43-3.473 1.989-1.786 3.892-3.67 5.795-5.546 1.953-1.926 3.877-4.062 5.431-6.327.611-.892 1.088-1.899 1.81-2.712.921-1.034 1.954-1.158 3.204-1.57 10.928-3.603 21.909-7.079 33.179-9.458 2.7-.57 5.421-1.305 8.074-2.064 2.813-.804 4.269.046 6.591 1.578 4.85 3.2 10.583 5.454 15.984 7.541 1.701.658 4.408.7 5.737 1.996-7.88 1.199-15.389 3.505-22.989 5.801-3.748 1.133-7.538 2.114-11.299 3.197-3.763 1.083-7.383 2.487-11.094 3.708-3.693 1.215-7.597 1.711-11.326 2.832-3.807 1.144-7.598 1.931-11.505 2.627-3.946.702-7.864 1.513-11.823 2.142-1.813.288-3.625.586-5.418.982-1.754.388-3.449 1.317-5.211 1.532-7.873.961-15.591 3.102-23.433 4.313-5.855.904-16.042 2.165-19.839-3.697-3.818-5.895.866-12.772 5.046-16.987 2.597-2.62 5.516-4.925 8.578-6.976 3.277-2.195 6.43-4.565 9.709-6.757 7.418-4.96 15.462-9.006 23.432-12.992 3.825-1.913 7.521-3.965 11.242-6.064 1.847-1.042 2.869.639 4.329 1.782 1.148.899 3.257 3.115 4.864 2.091l.185 1.107 1.412-.642c.316.827.279 1.341 1.163 1.775.542.267 1.699.588 2.216.118l.316.98c.452-.035.54-1.325.625-1.627.775 1.129 1.846 2.072 3.207 2.391.007-.073-.221-1.001-.211-1.006.43-.264.974.863 1.202 1.105.757.799 1.209.675 2.045.03.061.066.344.803.385.789.181-.057.525-.71.563-.77-.053.86 1.61 1.033 2.197.848l-.395-.755c2.045-.272 2.848 1.895 4.81 1.785 1.451-.081.288-.398 1.109-1.018.717-.542.845.643.915.606.137-.143.243-.307.318-.493.266 1.015 2.38 1.925 2.161.256.832.332 1.422.883 2.342 1 1.119.141 2.314-.096 3.429-.188 2.405-.2 4.671-.689 6.839-1.789 1.285-.651 2.652-1.243 3.86-2.029 1.011-.658 2.929-2.655 4.275-1.795-.345-1.015 1.278-.075 1.33-1.382l.781.589c.157-.342.113-.881.322-1.179.288-.41.428-.169.673-.399.275-.257.514-.947.843-1.144.339-.202.737.039 1.102-.137.555-.27 2.943-2.897 2.539-.646 1.026-.348.235-.666.363-1.349.257-1.368.884-.383 1.509-.264 1.022.195 1.002-.648 1.572-1.261.521-.56 1.5-.811 1.162-1.783.385.207.467.613.512 1.006zm-61.642-29.22c-.805.896-1.409.513-2.304.382-.096-.321-.26-.365-.491-.134a2.47 2.47 0 01-.857.301c-.734.18-1.497.103-2.215.377.02-.24.273-.667.111-.911-.756.522-1.224.854-2.152.863-.752.008-2.071-.565-2.695.12l-.058-.8a2.606 2.606 0 00-.798.611c-.043-.395-.067-.694-.328-1.014-.497 1.02-1.041 1.044-2.006.654.135.055-.966-.589-.924-.411-.348-1.463 5.147-1.342 5.724-1.4 1.441-.145 2.881-.23 4.324-.362 1.369-.126 2.39-.339 3.337.801-.422-1.646 3.571-1.564 1.332.923zM60.629 99.79c.152 2.487.706 5.132-.263 7.526-.78 1.925-2.334 4.098-4.008 5.354-3.43 2.572-6.336-.575-6.813-4.033-.498-3.607.488-8.015 3.601-10.239 1.86-1.329 3.66-1.237 5.802-.8.503.103 1.32.064 1.607.562.068.117.007 1.627.074 1.63zm45.542 33.144c-.592.299-1.212.473-1.734.879-.181.141-.243.463-.436.581-.35.216-.85.073-1.216.251-.604.295-1.037.717-1.755.988-1.067.403-2.002.957-3.01 1.481-1.68.874-3.482 1.624-5.238 2.336-.887.359-3.338 1.058-3.253 2.353-.198.054-.401-.379-.815-.344-.568.047-1.32.703-1.91.864-1.103.301-1.957.328-1.957 1.732-.351-.238-.44-.821-.908-.898-.526-.087-.747.479-1.168.655-.496.208-1.112.009-1.603.23a3.888 3.888 0 01-.716.593c-.267.03-.532.022-.797-.025-1.042.221-2 .612-3.045.815-1.018.198-1.715.27-1.287 1.471-1.089.213-1.355-.94-2.583-.518a34.066 34.066 0 01-4.485 1.204c-.802.16-1.64.519-2.447.603-.576.06-1.114-.145-1.68-.081-.684.076-1.234.392-1.941.404-.671.012-1.376-.108-2.035-.226a4.6 4.6 0 00.35.762c-.456-.096-.666-.642-1.053-.723-.405-.085-.768.332-1.106.24-.144-.04-.048-.482-.305-.566-.235-.077-.333.014-.566-.023-.077-.012-1.05-.064-1.205.017-.27.144.004.412-.05.452-.914.675-.925.31-1.333-.395-.599-1.035-1.32-.382-2.408-.563-1.212-.202-2.167.332-3.36.256-1.288-.082-2.8-1.043-3.938-1.604-2.457-1.212-4.853-2.359-6.916-4.194-4.034-3.588-7.316-8-9.251-13.051-2.079-5.427-2.473-11.086-2.306-16.843.1-3.463.378-6.923.925-10.345.377-2.354.455-6.537 3.115-7.609.457 5.512-.986 11.128-.076 16.603.274 1.65.942 3.847 2.207 5.069 1.872 1.808 2.31-.806 2.48-2.25.314-2.681.9-5.348 1.314-8.017.415-2.667.707-5.365 1.283-8.004.21-.963 1.904-8.01 3.147-7.677-.252 5.127-.92 10.166-.946 15.313-.01 2.064-.195 4.244.103 6.294.154 1.055 1.117 4.152 2.773 3.894 1.533-.239-.152-2.42-.295-3.261-.38-2.227.104-4.997.457-7.206.669-4.182 2.161-8.466 4.6-11.96 2.185-3.13 5.548-6.109 9.6-5.557 1.731.236 3.082.665 3.952 2.243.682 1.238 3.37 2.644 1.813 4.194-1.418 1.411-3.713.282-5.29-.054-1.93-.412-3.999.083-5.613 1.212-2.77 1.936-4.349 5.398-4.864 8.645-.694 4.377 1.162 15.836 8 13.268 4.541-1.706 7.963-7.843 7.581-12.542-.153-1.881-.89-5.451 1.718-5.96 3.341-.65 3.813 3.025 3.475 5.413-.492 3.474-2.332 6.704-4.437 9.451-1.834 2.394-3.968 3.89-6.176 5.867-.653.586-2.32 1.901-2.04 2.99.306 1.193 2.926 1.532 3.976 1.729 5.19.969 11.042.077 16.223-.6 10.648-1.391 21.156-4.818 29.888-11.119.353 3.899.797 7.784.961 11.697.079 1.899.1 3.826.317 5.714.134 1.162.618 2.785-.705 3.452zm-29.526 13.584c-.417.218.034-1.101-.082-.665.625.224.652.446.082.665zm44.173-47.178c.663-.73 2.476-2.466 3.052-.819.214-.702.242-1.742 1.068-.794.329-1.165 3.959-1.056 4.858-1.107 2.879-.165 5.77-.252 8.639-.538 5.895-.586 11.893-.284 17.809-.303 1.281-.004 2.559-.073 3.831.112 1.228.18 2.517.681 3.768.498 1.112-.164 1.842-.47 2.986-.338 1.37.156 2.7.267 4.082.262 6.113-.022 12.223.225 18.337.235 1.191.002 2.619-.23 3.737.274.414.188.867.81 1.183.879.363.078.147-.486.632-.231.651.34.147 1.39-.282 1.556.257-.1-.464-.197-.392-.201-.342.018-.634.28-1.002.264-.56-.025-1.029-.365-1.48-.665-.007.122.24.939-.043.98-.243.035-.471-.77-.496-.957-1.368 1.204-2.817.533-4.514.685-1.204.108-3.714.91-4.554-.344-.035.267-.142.5-.321.7-.24.365-.448.334-.623-.094-.06.003-.644.13-.656.129-.412-.032-.945-.18-1.364-.216-.648-.055-.528.416-1.044.423-.282.004-1.001-.402-1.493-.427-.851-.044-1.721.316-2.56.207-.579-.075-1.101-.545-1.668-.563-.707-.023-.936.514-1.496-.241-.115-.031-.186.413-.232.42.011-.001-.533.08-.597.104-.112.043-.547.242-.679.244-.286.005-.441-.199-.744-.204-.501-.008-2.102.432-2.057-.493-1.789.661-3.316.403-5.152.56-.843.072-1.372-.04-2.174-.195-1.004-.194-1.67.05-2.672.099-.962.047-1.265-.36-2.077-.726-.32-.145-.532-.336-.925-.255-.224.046-.065.422-.131.448-.345.133-.586-.008-1.059.024-.874.06-1.221.788-2.12.104l.896-.109c-.859-.363-1.992-.548-1.784.774-.733-.102-.099-.6-.459-.778-.36-.178-.763.12-1.216.267-1.198.388-2.196.196-3.445.126-1.419-.08-4.738 1.076-5.754-.424-.03.316-.37 1.197-.823 1.155-.147-.013.264-.948.311-1.047-.233.495-1.297.59-1.821.846l.176-.798c-.486.517-.723.202-1.295.374-.251.076-.613.591-.827.622a1.032 1.032 0 00-.94-.372 1.897 1.897 0 00-.753-.037c-1.005.073-1.921.63-2.921.25-.865-.328-1.2-1.174-1.715.171l-.408-.717-.502.779c-.654-.428-.695-.676-1.448-.519a.649.649 0 01-.544-.03l-.133.396c-.018.331-.116.44-.295.328a1.204 1.204 0 01-.408-.246c-.499.038-1.135.169-1.67.096-.207-.027-1.501-.71-1.597-.603zm15.251-8.907l.176.27c-.809.426-.999.182-1.083-.675.395.008.463.702.907.405zm.501-.502c.39.172.837.508 1.204.057.247.717-1.588 1.695-1.204-.057zm2.517.317c.818.551-1.145.108-1.141.109.352-.325.732-.362 1.141-.11zm7.035-3.077c.281 1.413 1.054 1.372 2.303.716 1.822-.958 2.129-2.526 2.256-4.399.122-1.795.342-2.49 2.198-2.115 1.295.261 2.39.041 3.696.005 1.393-.038 1.884.174 1.996 1.605.113 1.433.368 2.52 1.41 3.61 1.059 1.109 2.471 1.77 3.848 2.39.707.32 1.372.662 2.155.731.304.027 1.883-.172 1.916.327.025.374-2.162 1.432-2.395 1.558-1.014.55-2.025 1.044-3.133 1.378-2.549.767-5.252.812-7.892.766-4.257-.075-10.141-1.871-12.686-5.64l4.328-.932zm-.382-12.231c-.673-.564-1.109-1.416-1.669-2.084-.282-.337-.489-.444-.757-.613-.283-.177-.443.074-.678-.343-.61-1.079 1.271-2.597-.724-3.012-.675-.14-2.299.393-2.496-.572-.279-1.364 2.331-1.454 2.945-2.146 1.221-1.377.392-3.711 1.136-5.3.704-1.504 2.521-1.772 3.956-2.224 1.998-.63 4.021-.995 6.05-1.499 1.419-.352 3.776-1.767 5.092-.517-2.03.45-.85 1.156.503 1.555 1.533.452 3.158.628 4.747.754 1.635.13 3.301.154 4.917-.171 1.494-.301 3.163-1.597 4.73-1.265-.87 1.508-3.459 2.332-5.033 2.727-.801.201-1.315.139-1.207 1.136.104.967.947 1.936 1.137 2.943.251 1.333.031 2.558-.444 3.811-.468 1.234-.577 1.395-.168 2.573.637 1.835-.732 3.863-1.997 5.196-5.117 5.388-14.909 3.347-20.04-.95zm13.002-32.202c.003.035.02.055 0 0zm1.593 13.598c-.212.158-1.434.49-1.383.013.069-.639 1.17-.408 1.383-.013zm2.785-12.898c-.286-.213-1.089-.125-.502-.934l.502.934zm-19.271-5.11c.366-.947.77-1.828.935-2.837.102-.621-.1-1.33.77-1.428-1.109-.483-1.121-2.389-1.186-3.376-.09-1.36-.521-3.182.078-4.448.615-1.301 1.445-1.28 1.696.27.098.606-.278.802-.348 1.224-.14.836.138.653.678.016.223.647.309 1.62 1.216 1.578-.06-.175-.408-.56-.292-.778.178-.334 1.05.176 1.161.253.796.556.969 1.063.401 1.764.786.085.126.771.633.95.774.273.255-1.02.171-1.248.472.183.63.393.928.764.175.257.335.523.478.798.161.502.491.628.991.378 1.003.314 2.387.264 3.285.813.411.25.559.799.902 1.007.386.235.902.128 1.317.275-.152.344-.029.53.368.56.308.027.606.097.895.207.215-.163.45-.29.703-.384.171.3.412.373.723.223.925.172 1.369.521 1.956 1.043.528.468.098.506.676.465.233-.017.639-.41 1.171-.333.305.06.6.153.884.281.307.262.632.295.977.1.56.273.615.756 1.297.822.755.074.512-.865 1.031.46.698-1.405.954.832 1.674 1.013.747.187.828-.417 1.467.243.191.198.18.524.396.734.352.343.829.275 1.135.743-.171-.261.04.926.037.887.047.524-.419 1.11.537 1.066-.011.055-.47.723-.56.647a2.605 2.605 0 01-.055-.231c-.103.044-.148.68-.129.792.081.013.114-.047.099-.18-.157.49.08.802-.222 1.268-.193.298-.722.521-1.003.705-.677.444-1.341.889-2.002 1.36-1.542 1.102-3.269 2.43-5.21 2.659.975-.956 6.586-4.572 3.772-5.61-.522-.192-1.473-.374-2.019-.415-.679-.05-1.381.338-2.129.096-.904-.292-.564-1.14-1.116-1.443-1.172-.646-.895.871-1.264 1.269-.387-.406-.304-.603-.916-.64-.622-.038-.769.535-1.494.179-.999-.492-.471-1.472-1.887-1.495.023-.215.229-.816-.042-.984-.364.472-.082.999-.42 1.453-.17.228-.537.41-.805.483-.628.172-.718.502-.615-.442-.466.837-1.894.493-2.743.408-1.38-.136-2.847-.397-4.171-.839-1.224-.409-1.877-1.11-2.887-1.75-.381-.241-.563-.149-1.111-.299-.54-.148-1.066-.435-.812-1.095zm2.913-14.816c.208-.125.358 1.744.105 2.093-.462-.73-1.282-1.8-.105-2.093zm.666-.746c.67-.605.204.958.081 1.22l-.745-.476c.317-.194.396-.503.664-.744zm25.284-2.52c6.191 1.297 12.327 3.72 17.292 7.709 4.524 3.633 7.716 8.787 9.506 14.27 1.858 5.69 1.234 12.003-3.186 16.359-2.329 2.294-5.404 3.678-8.334 5.029-1.405.647-2.85 1.186-4.26 1.818-1.012.454-2.248 1.18-3.404 1.054.59-.618 1.445-.631 2.158-1.01.862-.457 1.566-1.335 2.309-1.962.737-.623 2.373-2.583 3.507-2.109-.158-1.044 1.035-1.53 1.572-2.218.569-.728.61-1.58 1.657-1.819-1.125-.878-.78-2.535-.536-3.73.313-1.53.458-2.933.581-4.49.223-2.804.402-6.378-1.151-8.844-.504-.8-1.146-1.537-1.596-2.368-.542-1.003-.422-1.885-.422-2.984-.991.664-1.2-.69-1.619-1.35-.314-.496-.727-.773-.828-1.396-.074-.454.42-.53.149-1.006-.331.25-.464.637-.631.997-.307-.122.054-.548-.121-.686-.005-.004-.596-.26-.566-.223-.38-.48-.503-1.278-.689-1.85-.696.352-.566.31-1.342-.277-.137-.104-.82-.579-.885-.734-.3-.727.226-.296.079-.747-.423-1.295-2.795-1.05-2.984-2.99-1.157.732-1.598-.306-2.282-1.045-.701-.757-1.877-1.048-1.814-2.248l-1.092.372c.189-1.108-1.46-1.037-2.057-1.6.331.005.661.031.989.079zm.943 68.604c.574-.512.4.169.769.091.315-.067.378-.305.681-.378 1.247-.3 3.112.077 4.424.012 1.52-.075 4.124.24 4.848 2.014.437 1.069-.229.705-.962.626-.569-.062-1.075.053-1.637.047a2.467 2.467 0 01-.832-.013.524.524 0 01-.239-.373c-.783-.119-1.614.343-2.482.367-1.157.03-2.185-.191-3.064-.97-.35.519-.588.777-1.217.835-.016.002-.63-.245-.725-.27-.126-.032-.444.231-.687.156.431-.684.493-1.583 1.123-2.144zm79.033 6.173c.205-.709.375-1.427.561-2.14 2.857 3.244 5.356 7.588 6.481 11.749.731 2.704 1.868 7.604-1.615 8.998-2.838 1.136-4.42-2.936-5.138-4.942-1.585-4.428-1.585-9.16-.289-13.665zM124.893 44.181c.036-.008-1.849 1.087-1.228.2.249-.356 1.196-.606 1.616-.606l-.388.406zm-1.814.464c-.218.183-.439.364-.661.542l-.641-1.01c.421-.177 2.208-.31 1.302.468zM121.75 78.67c-.395-.266-.708-.125-.826.323 0-.445.232-1.48.589-1.6.231-.079-.767-1.258-.486-1.566.713.408.286.799.495 1.325.094.238.378.462.44.645.105.31.531 1.375-.212.873zm-1.933-2.652c-.404.103.303.77.302 1.063 0 .223-.268.394-.378.698-.24.66.172 1.105-.506 1.609 0-1.446-.972-5.275.896-5.98-.911-.715-.163-1.542.551-.685.687.824.249 3.01-.865 3.295zm-.973-5.703c-.368-1.299-1.473-1.753-2.736-1.676.048-.665.554-1.624.918-.425.151-.355.254-.817.596-1.052.576 1.802 3.448 2.798 1.66 4.75-.146-.532-.288-1.065-.438-1.597zm-3.338-1.58c-6.65.482-15.986 1.859-21.308-3.228-3.47-3.316-3.285-8.481-.48-12.166 1.6-2.102 3.784-3.583 5.978-4.994.847-.544 1.564-.904 2.493-1.216a.65.65 0 01.425.1.726.726 0 01.38-.498c.359-.191.87-.26 1.077-.658-.221.747-.334 1.517-.415 2.29l-.537-.624c-.15 1.408-1.62.556-2.498.731.578.799.992 1.089 1.041 2.145-.43-.794-1.331-1.316-2.168-1.571.455 1.342.776 2.138.318 3.61-.553-.315-.59-1.072-1.26-1.253-.178.878-.21 1.851-.436 2.703-1.718-.782-1.55 1.324-.86 2.366.366.554.546 1.196.874 1.728.802 1.305.192-.647 1.085-.554-.2 1.376-.27 1.513.74 2.521.984.983 1.496 2.347 2.549 3.27.305-.389-.174-.796-.216-1.168.98.164 1.439 1.145 2.382.276.411.8.856 1.68 1.841 1.844-.651-1.234 1.25-.397 1.737-.222.37.133 1.032.239 1.175.29.803.29.252-.23.74.719.715-.216.986-.808 1.842-.308.696.407.697 1.105.856 1.82.166-.468.334-.935.517-1.396.187.078.971.939.885.943 1.834-.09 1.769 1.047 1.243 2.5zm-9.337-23.296c.368-.258.818.086 1.232-.007.572-.127.897-.617 1.537-.67-.178.568-.512.515-.794.961-.097.152-.047.516-.132.604-.717.732-.965.135-1.697-.42.064.669.193.88-.439 1.06-.571.162-1.515-.437-1.803-.896.243-.486 1.655-.323 2.096-.632zm4.563-1.045c.621.06-.127 1.887-1.017.114.335-.073.674-.11 1.017-.114zm3.193-.353c.979-.2 4.246-1.129 4.609.393.066-.038.309-.897.422-.792.452.42.502.976.468 1.559-.547-1.136-.352-.138-.723-.216-.097-.02-.244.16-.49.085-.321-.097-.551-.78-.754-1.01-.337.48-.756 1.1-1.432 1.058-.478-.03-1.249-1.259-.629.087-.364-.12-.786-.391-1.191-.337-.454.061-.69.508-1.115.58-.943.16-1.085-.746-1.697-1.237.844-.05 1.698 0 2.532-.17zm5.925-.015c.069-.312.926-.438 1.144-.339.533.242.336.56.238 1.09l-1.186-.56c.59.949-.479 1.086-.196-.191zm165.88 55.522c-.07-2.272-.136-4.583-.713-6.794-.404-1.548-1.396-4.323-3.273-4.592-2.83-.405-4.398 5.176-5.19 7.092-.159-2.255-.02-4.656-.874-6.797-.684-1.716-2.411-3.34-3.898-1.414-1.324 1.715-1.579 4.246-1.927 6.31-.451 2.672-.723 5.366-1.052 8.056-1.293-2.493-1.519-5.346-2.541-7.937-.964-2.445-2.481-4.78-3.942-6.954-1.193-1.776-2.645-3.446-4.515-4.532-1.628-.945-4.473-1.967-6.024-.398-1.295 1.31-1.092 3.062-1.024 4.715.03.736.145 1.24-.503 1.611-.319.182-.817.088-1.167.186-.565.157-.997.423-1.475.777-3.347 2.483-4.89 6.956-5.367 10.944-.604 5.053 1.37 9.385 3.069 14.009.27.736 1.13 2.3 1.011 3.122-.13.902-1.264.925-2.029.944-2.31.057-4.725-.115-7.024-.33-5.473-.511-10.942-3.14-15.843-5.488-.894-.428-2.159-.673-2.889-1.348-.686-.634-.867-1.65-1.459-2.377-1.454-1.785-2.38-3.308-4.52-4.386-2.18-1.098-4.404-2.113-6.53-3.315-2.63-1.488-5.059-3.372-7.58-5.038-4.683-3.095-9.334-6.488-14.3-9.12-2.307-1.222-4.885-1.42-7.28-2.422-2.333-.975-5.196-.976-7.631-.36-1.185.3-1.992 1.01-3.083 1.475-1.278.544-2.32-.056-3.445-.706-1.718-.992-3.422-2.609-.975-3.679.83-.363 1.87-.5 2.595-1.072.773-.608 1.394-1.73 2.022-2.493 1.398-1.694 2.232-3.645 4.277-4.698 2.262-1.165 4.942-1.482 7.353-2.244 2.613-.825 5.171-1.805 7.735-2.769 4.619-1.734 9.422-3.608 12.741-7.427 2.863-3.295 4.111-7.548 3.996-11.868-.237-8.831-4.977-17.793-11.779-23.315-8.341-6.77-18.952-9.028-29.487-8.91-4.945.056-10.846.702-14.971 3.7-3.564 2.589-4.157 7.117-3.627 11.205.216 1.66.951 3.849-.222 5.31-.656.818-1.834 1.02-2.718 1.53-1.111.642-2.09 1.256-3.348 1.595-5.345 1.44-10.974.938-16.438.859-9.103-.133-18.433 2.326-25.224 8.726-5.483 5.168-7.128 14.913-.44 19.952 5.404 4.07 13.879 3.622 20.25 2.912 1.976-.22 3.335-.54 3.339 1.872.005 2.635-.432 5.388.242 7.975 1.061 4.074 4.983 4.17 8.452 3.294 1.83-.463 3.599-1.16 5.337-1.888 2.549-1.07 4.885-2.641 7.402-3.709 1.707-.723 2.985 1.616 4.498-.005.28-.3.332-.747.753-.9.662-.24 1.771.602 2.351.868.868.4 1.743.693 2.09 1.653.325.899.182 2.327-.129 3.214-.675 1.927-2.494 1.546-4.154 1.417-2.896-.225-5.773-.702-8.668-.902-2.598-.18-5.03.595-7.271 1.873-4.705 2.684-8.555 6.954-12.635 10.466-2.1 1.807-4.13 3.759-6.413 5.333-.993.684-2.069 1.313-2.932 2.163-.856.844-.95 1.611-1.243 2.733-.521 1.999-3.112 2.976-4.731 4.03-2.29 1.491-4.717 2.543-7.283 3.458-5.436 1.938-10.915 3.29-16.597 4.291-2.783.489-5.542.811-8.352 1.076-2.421.227-4.996.971-7.415.377.696-1.128 1.93-1.805 2.892-2.676 1.24-1.124 2.294-2.455 3.232-3.834 1.826-2.686 3.107-5.569 3.4-8.827.266-2.932-.038-6.44-1.811-8.916-.613-.856-1.824-1.09-2.373-1.86-.545-.766-.337-2.085-.635-2.978-.76-2.273-3.014-5.088-4.998-6.408-2.153-1.432-5.301-1.959-7.788-1.212-4.606 1.382-7.436 6.294-9.544 10.265-1.151-2.418.777-6.005-1.472-7.985-1.897-1.67-3.403 1.565-4.038 2.95-2.979 6.497-3.655 13.388-4.903 20.34-.509-.5-.248-1.784-.2-2.38.089-1.111.08-2.201.083-3.316.006-2.818.53-5.65.29-8.465-.139-1.627-.659-5.059-3.029-4.518-2.01.459-3.268 3.278-3.9 5.002-.91 2.487-1.12 4.949-1.064 7.576.063 2.902-.491 5.757-.625 8.656-.261 5.629-.004 11.211 1.615 16.644 2.651 8.898 8.746 16.29 16.881 20.755 4.482 2.459 9.454 4.016 14.566 4.35 2.77.182 5.445-.147 8.192-.433 2.71-.282 5.435-.413 8.14-.744 6.026-.737 11.898-2.641 17.375-5.202 2.883-1.349 5.594-3.004 8.43-4.441 1.137-.577 1.906-1.299 2.877-2.101.963-.794 1.23-.857 2.324-.857-.321-.857.617-1.121 1.034-1.664l-.071.789c.318-.688.614-.681.888.02.271-.785.472-1.593.798-2.359 1.25.631 1.145 2.132 2.817 1.036 1.376-.901 2.642-1.965 4.045-2.849 3.197-2.013 5.953-4.633 9.159-6.623 0 1.939.137 3.894-.123 5.822-.247 1.834-.933 3.548-1.479 5.304-1.006 3.239-1.076 6.7-2.191 9.907-.461 1.328-1.663 2.438-2.008 3.731-.351 1.319.46 2.375-.9 3.241-.959.611-2.157.868-3.219 1.238-1.62.563-3.158 1.358-4.734 2.032-7.396 3.162-14.61 6.383-21.462 10.635-6.503 4.034-13.105 8.201-19.078 12.993-5.185 4.159-10.425 9.536-11.687 16.32-1.225 6.581 2.038 13.644 8.59 15.811 3.406 1.127 7.257.987 10.804 1.036 3.817.053 7.862-.865 11.615-1.53 3.964-.701 7.86-1.799 11.834-2.425 3.814-.601 7.312-1.945 11.064-2.773 3.995-.881 8.093-1.36 12.111-2.153 1.808-.357 3.581-.884 5.394-1.214 1.986-.362 3.993-.498 5.959-.977 3.814-.931 7.466-2.43 11.296-3.295 1.722-.389 3.418-.91 5.141-1.274 1.586-.335 2.822-1.224 4.412-.494 1.284.591 2.308 1.603 3.524 2.308 1.576.914 3.238 1.733 4.882 2.52 3.302 1.581 6.727 2.674 10.18 3.861 3.626 1.247 7.188 2.669 10.946 3.493 3.852.844 7.781 1.079 11.66 1.747 7.943 1.367 15.82 1.981 23.883 2.031 4.076.025 8.151-.457 12.217-.4 3.599.051 6.729.86 10.02-1.049 5.26-3.051 11.36-7.647 11.231-14.323-.117-6.046-3.752-11.823-7.161-16.592-4.141-5.791-10.043-9.869-15.829-13.864-6.166-4.257-13.092-7.199-19.572-10.915-3.315-1.9-6.371-3.945-9.97-5.296-1.718-.644-3.394-1.392-5.091-2.086-1.367-.558-3.339-.867-4.508-1.793-.73-.578-.8-1.454-.992-2.313-.427-1.902-1.098-3.706-1.748-5.541-1.254-3.542-2.088-7.15-2.627-10.864-.514-3.542-1.655-7.225-1.064-10.824 3.886 3.752 7.88 7.358 11.857 11.01 1.491 1.369 2.953 2.766 4.451 4.127 1.125 1.021 2.532 2.538 4.1 2.841 2.002.387 1.27-1.823 2.645-2.165.84-.209 3.374 1.921 4.039 2.342 4.21 2.667 8.873 4.357 13.504 6.173 4.856 1.904 9.85 3.595 15.076 4.074 4.827.443 9.763-.125 14.421-1.437 9.276-2.614 16.102-8.814 21.111-16.851 5.708-9.159 9.862-19.888 9.526-30.82z" fill="#000"/><path fill-rule="evenodd" clip-rule="evenodd" d="M143.957 79.582l-.016.033c.017-.012.023-.023.016-.033z" fill="#000"/><path fill-rule="evenodd" clip-rule="evenodd" d="M144.404 79.7a3.228 3.228 0 00-.225-.856c-.307.486-.581.694-.178 1.208l.403-.351zm21.391 69.432c.343-.365-.258-.502-.486-.507.023.391-.171 1.329.365 1.51a1.064 1.064 0 01.121-1.003zm-9.061-76.317c-.591 1.138.713 1.49 1.468.941.568-.413.904-1.466.997-2.142.302-2.187-1.231-4.268-1.996-6.208-.197-.502-.468-2.222-1.104-2.269-.731-.054-.785 1.53-.795 1.939-.028 1.232.299 2.488.683 3.651.413 1.254 1.436 2.76.747 4.088zm2.807-4.562c2.269 2.016 4.084-1.342 3.926-3.328-.039-.492-.372-2.307-1.308-1.646-.47.331-.069 1.41-.293 1.883-1.085 2.294-2.131-1.265-2.861-1.545-.889-.34-.979.826-.978 1.45.003 1.236.592 2.367 1.514 3.186zm-8.237.313c.535-.84 1.192-1.967 1.265-2.973.112-1.564-.801-1.433-1.553-.342-.53.77-.929 2.078-2.101 1.753-1.447-.4-1.005-2.342-1.815-3.265-2.045 2.742 1.826 8.564 4.204 4.827zm3.066 8.391c.847.182 3.052.115 2.288-1.178-.964-1.629-4.169.771-2.288 1.178zm29.641-48.562c.155-.46-.058-.543-.427-.906-.35.322.098.661.427.906zm15.782 83.36c.558.089.738-.206.539-.884-.881-.057-1.06.238-.539.884zm-30.481-71.11c.616.28.38.857.369 1.344.318-.344.958-.972.697-1.466-.401-.762-1.452-.054-1.066.122zm-20.972-9.586l-.282-.548c-.382.306-.972 1.116-.365 1.51.249-.302.465-.622.647-.962zm7.387 5.374c.766.6.399-1.24.376-1.391-.114.216-.763 1.088-.376 1.39zm-.424-.935l-.176-.456c-.311.287-.691.873-.178 1.208.141-.235.258-.485.354-.752zm4.865 6.318l.188.173c.252-.508-.035-.89-.512-.906a1.3 1.3 0 00.324.733zm-20.527 57.217c.304-.207.58-.442.828-.706-.9-.549-.361.64-1.443-.09-.234.322.147 1.042.615.796zm37.792 49.894c.342-.524.404-.509-.063-.906-.39.647-.349.481.063.906zm-71.476-83.351l.559.58c.086-.253.56-.97.239-1.208l-.798.628zm6.622 1.916c-.297-.05-1.008-.266-1.173.01.435.356 1.416.03 1.173-.01z" fill="#000"/></svg>