<svg width="1440" height="500" viewBox="0 0 1440 500" fill="none" xmlns="http://www.w3.org/2000/svg" preserveAspectRatio="none"><mask id="a" maskUnits="userSpaceOnUse" x="0" y="0" width="1440" height="500"><path fill="#EDF1F7" d="M0 0h1440v500H0z"/></mask><g mask="url(#a)"><path fill-rule="evenodd" clip-rule="evenodd" d="M254.971-45.544l898.529 705.25 107.86-147.081L302.488-186.88 254.971-45.542z" fill="#F6EDEE"/><path fill-rule="evenodd" clip-rule="evenodd" d="M821.343 336.041l7.829 78.726 42.628-24.223v75.497c0 1.391-.829 6.167 0 7.371.703 1.021 5.91 1.05 7.141 1.223a836.548 836.548 0 0024.152 3.003c21.254 2.338 44.004 5.687 65.34 3.001 18.546-2.335 36.527-8.904 53.467-16.549a293.283 293.283 0 0017.57-8.625c1.23-.65 5.66-2.187 6.32-3.511.54-1.083-.73-4.885-.9-6.022-.72-4.795-1.43-9.59-2.15-14.385l-10-66.957 18.89 18.786c1.48 1.472 4.29 5.651 6.34 6.303 1.5.478 5.22-1.002 6.7-1.287l32.1-6.157c2.49-.479 8.1-.461 10.2-1.96 1.13-.808 1.19-2.451 1.59-4.008 2.61-10.179 5.22-20.357 7.82-30.535.47-1.834 3.1-7.614 2.43-9.46-.24-.662-1.4-1.115-2.1-1.546-16.15-9.82-32.29-19.64-48.44-29.46-8.84-5.379-17.69-10.758-26.53-16.137-3.7-2.254-8.25-6.314-12.45-7.575-2.61-.783-6.4-.196-9.1-.273l-16.43-.467c-.86-.024-3.867-.633-4.589-.13-.601.419-.353 1.003-.549 2.001-.482 2.438-.486 5.067-.723 7.542-.191 1.987.188 5.629-.711 7.426-.574 1.149.154.692-.623 1.247-.925.661-3.877.448-4.978.575l-16.109 1.864c-6.383.738-12.839 2.124-19.253 1.485-9.723-.966-20.207-.918-29.755-2.958-2.481-.531-3.375-1.923-5.289-3.826-3.736-3.715-7.434-7.473-11.21-11.149-1.852-1.801-1.059-1.496-2.967-.812-2.392.855-4.817 2.921-6.981 4.235l-24.88 15.092-50.632 30.713-3.168 1.922z" fill="#FFAEAD"/><path fill-rule="evenodd" clip-rule="evenodd" d="M1305.62 339.301c-10.44 39.461-31.43 82.488-73.72 95.066-10.28 3.057-20.28 5.366-30.96 4.202-1.02-.111-1.87.031-2.84.049-1.73.033-.23.653-2.17.056-1.52-.466-2.94-1.631-4.51-2.146-4.2-1.367-8.68-1.632-12.94-2.736-10.48-2.715-21.28-6.067-31.43-9.811-4.79-1.763-9.18-4.218-13.68-6.579-4.57-2.4-9.41-3.89-14.04-6.092-3.65-1.74-9.91-4.007-12.48-7.271-2.74-3.48 1.05-10.89 2.14-14.59 3.68-12.591 8.07-24.997 10.83-37.838 9.56 11.033 22.83 17.865 36.57 22.272 7.45 2.391 15.11 4.12 22.87 5.202 7.03.981 14.63 2.169 21.68.775 5.33-1.052 12.01-3.49 15.81-7.538 1.36-1.445 2.99-4.094 2.23-6.193-.97-2.665-3.78-1.411-5.3-3.399-1.33-1.732-1.12-5.784-1.54-7.893-.75-3.733-1.78-7.364-3.03-10.957-2.43-6.977-5.47-13.97-6.19-21.395-.63-6.441.84-12.532 4.07-18.121 1.52-2.643 5.35-9.83 9.09-9.532 4.1.327-1.43 17.552-1.61 21.066-.72 13.928 1.15 28.769 8.33 40.977 2.75 4.675 6.72 10.117 12.59 10.697 6.22.612 11.23-4.257 14.19-9.184 7.21-12.02 3.57-28.514-.08-41.112-4.48-15.457-16.19-26.111-23.59-39.992 11.05 1.106 16.97 8.096 22.64 16.963 6.24 9.763 11.1 21.485 13.5 32.844 1.21 5.74.37 11.503.38 17.299 0 1.925 0 9.029 3.15 8.749 3.37-.299 4.53-8.311 5.02-10.755 1.14-5.605 2.37-11.212 3.35-16.845 1.75-9.967 2.52-20.176 4.61-30.074.36-1.673 1.06-6.315 3.58-5.062 1.94.965 1.62 8.145 1.7 9.814.17 4.113.41 8.225.45 12.342.05 6.102-1.17 12.417-.58 18.481.4 3.963 2.53 8.341 5.18 2.997 2.62-5.299 3.16-11.909 4.62-17.608 1.54-5.984 3.13-12.056 6.39-17.37.91-1.475 1.88-3.815 3.89-3.122 1.46.505 2.54 3.955 2.99 5.173 2.04 5.503 1.7 11.622 1.57 17.384-.16 7.06-.92 13.963-2.73 20.807zm-203.52 10.241c-.56-.18-2.93-.403-3.52-.454-.68-.06.1-1.324-1.57-.965.32.795.89 1.324 1.72 1.59-2.51.845-4.36-1.24-6.07-1.509-1.64-.256-1.71 0-3.33 1.724-1.75-2.129-1.43-.801-2.87-.8-.52.001-.54.79-1.4.696-.74-.084-.82-1.209-1.26-1.342-2.39-.721-4.85 2.906-7.57-.24-.66 3.274-8.19-.827-11.08-.251-3.04.601-1.73 1.686-4.19-.168-2.33-1.765-1.68-.593-4.4.853.06-.034-1.54 1.042-1.39 1.059-1.88-.219-1.78-2.159-4.16-2.055-2.53.109-3.6 2.079-5.91-.345-.51 1.816-.61 1.033-1.79 1.491-.66.154-1.22-.017-1.71-.511-.15.499-.48.805-.98.918-1.29.115-3.71.294-4.88-.324-1.76-.929-.35-1.285-1.56-2.329-.55 2.879-1.75 2.266-4.27 2.535-1.93.206-2.35-.383-4.19-.669-1.82-.282-4.16.419-5.92.717-.73.124-1.71.63-2.45.452-.67-.16-.96-.677-1.36-.813-.49-.163-.38-.586-1.22-.79-.58-.141-1.61.399-2.19.493-4.12.666-8.08.673-12.01-.942 1.93 3.388-4.527 1.559-5.679.156-1.44 2.247-3.182.661-6.084.836-2.795.169-6.998 1.021-8.131-2.445-.222.704-1.808 2.749-2.439 3.062-1.832.904-2.05-.434-3.754-.978-2.318-.742-1.834.665-3.272.952-2.426.483-3.738-1.218-5.883-2.123-.09 1.407-.137 2.272-1.358 3.147-1.081-3.921-4.94.321-4.278-4.92-1.468.952-3.534 1.684-3.952 3.609 2.455-.672.261.926.159.979-.325.169-1.421-1.363-1.676-1.579l-.208 2.169c-.978-.487-1.896-1.36-2.69-1.796-.716-.394.31-1.213-.899-1.27-.637-.03-1.302 1.344-1.97 1.461-1.023.179-.532-1.282-.959-1.233-.652.075-1.714 1.024-2.207 1.006-1.617-.06-.523-.809-1.756-1.152-2.204-.615-2.062.821-3.646 1.338-3.625 1.185-3.261-4.268-6.949-.631-.882.871-1.45 2.214-2.658 2.139-2.504-.156-1.625-3.111-1.116-4.558.526.259-9.145 5.206-9.068 5.012.061-1.187 1.582-2.101.223-3.155-1.112 2.375-2.281 2.417-4.844 2.859-1.246.215-1.492.502-2.825-.014-.849-.328-1.419-1.677-2.264-1.751.114.01-1.436 1.185-1.673 1.291-1.399.627-2.284-.085-3.643.174-1.159.22-1.615 1.201-2.768.933-1.539-.358-.635-2.189-2.752-1.678-.725.174-1.159 1.563-2.3 1.85-1.777.448-3.956-.387-5.835.049a21.21 21.21 0 01-3.902.565c-1.053.059-.62-.757-2.559.206l-.822-2.064-2.912 2.608a14.023 14.023 0 01-.351-2.368c-1.447 1.445-3.271 1.691-5.217 1.821-2.107.14-3.678.598-5.728.982-.649.121-2.318.314-2.851.088.078.033-.997-.412-.673-.327-.14-.284-.27-.572-.39-.865-.18-.814-.769-.85-1.763-.107-.515-.079-1.512-.751-2.025-.585-1.323.426-1.143 1.448-2.461 1.298-.854-.098-1.291-1.356-2.181-1.441-1.363-.13-2.544 1.388-3.771 1.72 3.732-1.009-4.842-.227-2.176-.157-1.748-.045-3.562-.132-5.178.648-.892-.607.192-1.829-.71-2.332-.818-.456-.881.748-.977.775.516-.145.259.879-.258 1.061-1.608.568-2.895-.875-2.979-2.307-1.367 2.048-1.75 1.225-3.76 1.351-1.983.125-3.692 1.16-5.676 1.141-3.922-.037-6.583-1.395-7.893-4.883 4.18.508 8.387-2.169 12.473-1.538 1.344.207 2.183 1.212 3.359 1.033 1.45-.219 2.462-1.795 4.321-1.965 4.101-.373 8.143-.009 12.272-.635 4.932-.748 10.078-1.191 15.057-.827 3.847.282 6.963-1.183 10.864-1.465 5.045-.366 10.132-.431 15.185-.695 5.192-.271 10.779-1.096 15.957-.832 1.617.083 3.008.24 4.612.144.678-.041 1.321-.499 2.033-.431.927.089 1.325 1.034 2.287 1.002 1.635-.056 3.381-1.397 5.324-1.434 3.194-.059 6.375-.052 9.577-.234 2.82-.159 5.841-.815 8.648-.779 1.979.024 2.468 1.704 3.622 1.878 2.074.311 12.569-5.636 13.476-.298 5.464-3.724 12.791-.571 18.873-1.27 7.813-.9 15.769-.098 23.637-.418 8-.326 16.24-.025 24.21.727 3.3.311 6.49.603 9.8.414 1.48-.084 3.18-.459 4.66-.12.36.082 3.1 1.985 2.76 2.04 1.49-1.337.48-1.533 3.11-1.601 2.03-.053 3.95.383 5.96.502 3.62.213 7.27-.287 10.88-.176 3.02.091 5.97.534 9 .556 3.26.024 7.12.115 9.49 2.739l-.75-2.471c3.65.284 7.25 1.58 10.94.974-.94.89-1.88 1.617-2.24 2.922 1.99-.251 3.34-1.633 5.43-1.645 1.76-.01 2.12.868 3.98-.267l.69 4.171c2.57-.602.88-2.511 1.07-4.232 2.09.625 3.86-.093 3.03 2.901-.63 2.307-3.53 3.445-5.7 2.742zm-3.61 25.707c-.9 2.508-8.66 1.075-10.49.81-2.37-.342-5.08-.884-7.26-1.152a3.84 3.84 0 00-.94-.885c-.28.38-.62.651-1.04.809-1 .219-1.01 1.249-2.32 1.021-.07 1.524 1 .658 1.81 1.211-2.05 1.37-1.11-.207-2.26-.182-.29-.403-.69-.561-1.19-.474-.65.167-1.25.443-1.8.829-.51.539-.95.567-1.32.084a2.29 2.29 0 00-1.28-.65c-2.02.328-2.59 1.221-4.86 1.075-3.26-.209-6.78.645-9.98.195-1.98-.278-5.3-3.383-6.2-.356-1.37-2.244-3.55-3.77-4.87-6.063 6.12-.352 12.24-.771 18.36-.991 5.36-.193 11.23.408 16.24.156 4.69-.235 9.66-.752 14.45-1.179 5.08-.451 6.76.658 4.95 5.742zm-159.619.37c2.222.612 4.337-.776 6.492-.337.712.145 2.187 1.437 2.511 1.462.593.047 2.337-1.221 3.085-1.391 4.733-1.072 10.465-.958 15.196-.299 2.508.349 2.892-.794 5.081-1.349 2.274-.577 5.507-.132 7.903-.292 5.634-.375 11.267-.108 16.863-.518 5.748-.422 11.458-.65 17.208-.945 3.92-.2 13.33-2.424 16.57.47 2.68 2.387-.77 6.531-3.45 7.477-2 .706-2.96-.782-4.44-.64-1.69.161-1.1 2.153-2.62.306-.93 1.836-6.81 1.053-8.5 1.175-3.67.264-6.78.998-9.28-2.415l.51 2.953c-3.32-1.765-6.879-1.2-9.758-.584-1.425.304-5.8 2.409-7.345 1.501-1.062-.624.811-1.692-.982-2.225-.94-.279-2.562 1.274-3.709 1.196-3.178-.217-2.276-2.345-5.397.363-1.057-.911-1.408-2.458-1.269-3.785-2.267 1.925-2.077 5.134-6.13 4.547-1.51-.219-1.788-1.753-2.575-2.036-1.678-.603-1.868.481-3.321 1.34-.549.323-1.217.844-1.863.909-1.327.132-1.538-.475-1.719-.455-.883.097-1.995.543-3.043.224-.94-.287-1.215-1.938-2.871-1.552-1.585.37-1.598 1.442-1.31 3.047-1.564-.161-2.509-1.028-3.678-1.967-1.181 2.742-3.666.471-5.041 2.784-1.791-2.129-2.94-1.543-5.161-3.622l.327 2.603c-1.734-.333-2.505-1.55-3.984.061-1.436-2.664-5.789 1.131-8.024-1.441-.996 3.258-7.59 2.478-10.375 2.535-2.468.05-4.294-.151-6.706.419-2.131.505-5.083 1.028-7.088.797-1.309-.151-2.74-.39-4.372-.213-2.352.254-4.383 1.466-6.819.893-3.668-.864-5.917-5.662-1.831-7.77 2.796-1.442 7.833-.908 10.91-1.174 5.1-.442 10.815-1.367 15.922-.946 3.983.328 7.613-.618 11.677-1.018 3.06-.301 8.074-.843 10.07 2.177.766-.882.687-2.719 2.336-2.265zm-55.826 41.336c-.548-2.716 22.767-4.212 25.081-4.389a284.71 284.71 0 0114.6-.762c4.003-.102 7.74.659 11.744.047 3.74-.571 8.253-1.742 11.508.894.479-3.605 14.512-1.849 17.183-1.839 11.622.042 22.744.069 33.987-.648 6.422-.409 13.252-.961 19.672-.641 2.9.145 5.23.914 8.12.247 1.88-.436 3.9-1.342 5.7-.061 2.1 1.5 3 6.59 1.55 8.715-1.05 1.549-1.99 1.377-3.67 1.109-2.6-.411-4.52-1.008-7.17.042.43-.171-1.77.318-1.59.304-2.99.223-7.1 2.306-9.68-.095 1.03.18 2.54-1.658 1.23-1.81-.98-.112-1.6.932-2.36 1.282-2.61 1.198-3.95.823-5.51-1.688-3.15 2.712-3.487 1.962-4.869-1.379-1.063.816-1.292 2.746-2.129 3.379-.125.094.39 1.266-.214 1.218-.561-.045-.744-.961-1.176-1.033-.275-.047-.419-.849-.682-.898-.286-.053-.58.46-.904.445-.865-.041-3.338 1.792-2.451-.78-1.31 1.66-1.874.601-2.347-.909l-4.538 3.435c-.704-1.947-1.914-1.417-3.438-.737.46-1.353.172-2.632-.979-1.692-.667.545-1.115 2.274-1.798 3.008-2.761-2.786-3.766-2.022-7.582-1.659-1.456.137-3.266.405-4.567-.471-1.145-.77-1.791-3.596-3.748-1.313.436-.508-.247 3.393-.368 4.012a8.523 8.523 0 01-2.199-2.136c-1.126 2.22-4.081.228-6.503.682-3.812.714-7.745 1.917-11.113-.909-.238.912-2.997 2.074-3 2.109.163-1.615 1.187-1.047-.904-1.354-.384-.056-.821.633-1.184.709-1.246.256-2.702.013-3.957-.023-5.224-.15-10.006 1.003-15.165 1.421-1.739.14-3.801.417-5.434-.236-1.682-.673-1.636-1.437-3.338-1.004.539-.137-1.063 1.539-.976 1.476-.229.165-1.183-.652-1.523-.591l-.296 1.072-1.23-.151c-1.122.15-2.134-.98-3.188-1.019.194.007-2.844 1.134-2.706 1.202-2.121-1.053-1.512-.748-4.202-.107-2.543.606-5.075.465-7.685.843-7.59 1.098-3.067-2.69-4.002-7.317zm-6.703 37.788c-1.427-2.015 2.37-2.712 3.583-2.89 1.995-.293 4.641.289 5.97-.026 2.024-.48 3.978-1.624 6.257-1.934 2.875-.392 5.774-.455 8.662-.701.962-.082 2.153-.412 3.088-.356 1.394.083 1.973.817 3.099.823 1.916.009 4.281-1.196 6.245-1.417 2.516-.284 5.056-.417 7.584-.542 5.326-.263 10.597-.154 15.92-.16 2.427-.004 8.893-2.513 10.103.301 1.684-2.132 6.001-1.842 8.407-1.903 4.239-.109 8.435-.516 12.67-.712 3.627-.168 7.679.605 11.241.063 1.962-.298 2.613-.924 4.839-.641 1.653.209 4.174-.662 5.594-.277-.074-.02 1.771 1.119 1.196 1.155.633-.041.596.401 1.295.204.918-.258.497-1.407 2.399-1.816 2.968-.637 6.926.101 10.006-.063 2.99-.159 5.98-.227 8.97-.213 1.38.006 3.09-.322 4.43-.054.65.131 2.05.985 2.61.899 1.58-.245 2.38-1.337 4.51-1.269 2.42.076 4.6.043 7-.141 2.33-.176 2.7-.508 3.86 1.421 1.14 1.914 1.45 4.405-.65 5.706 1.37-.09 3.05 1.734 1.44 2.743-1 .624-2.99-.784-4.19-.683-1.47.126-2.62.899-4.22.947-1.68.051-3.38.473-5.04.505-1.73.033-3.03-.735-4.67-.408-1.44.289-1.59 1.464-3.33.432-.86-.514-1-2.416-2.18-2.434-1.58-.024-.95 2.004-1.85 2.943-.25-2.899-2.49 1.898-3.39-1.621-.82 1.168-3.87 2.803-5.35 1.864-1.35-.855-.9-2.792-1.46-4.187-.93 2.507-3.44 5.109-3.213.544-1.217 1.492-4.506 1.256-3.682 3.867-.991-.019-1.226-1.429-2.061-1.535-.72-.092-1.292.459-1.402.451.394.032-1.18.554-1.205.56 1.066-.216-3.075-.584-2.37-.578-.961-.008-2.137.776-3.26.774-1.024-.003-2.042-.404-3.052-.519-2.62-.298-2.075.275-3.719 1.094-.61.304-.763.818-1.628.754-.638-.048-.877-.878-.949-.885-.898-.09-.235-.39-1.629-.251l-.479.821c-.504.641-1.157.802-1.958.482-2.063.44-8.904 2.35-8.234-1.186l-3.145 1.531c-.449-2.851-6.144.929-7.416 1.12-1.632.244-1.783-.38-3.326-.712-.278-.06-.836.854-1.488.723-1.693-.339-1.995-.507-2.285-2.338-1.207 2.247-2.21 1.242-4.4 1.612-.484.082-.793 1.031-1.489.868-.501-.118-.515-1.03-.86-1.148-.311-.107-.264-.826-.723-.929-.525-.118-2.316 1.345-2.83 1.57-1.159.509-3.062 1.351-4.193 1.099-1.399-.312-.777-1.344-2.753-1.228-3.118.182-4.419 2.825-6.359-1.339-.875 1.668-.764 2.12-2.17 2.671-1.039.406-3.671-.018-5.039-.069-5.843-.215-11.588 1.768-17.382 1.249-2.547-.228-4.695-.736-7.265-.321-2.7.437-5.342 1.078-8.082 1.337-1.393.131-4.304.529-4.987-1.244-.602-1.562 1.642-2.626.385-4.403zm11.459 64.019c-7.579 5.049-13.855 11.943-20.814 17.781-6.977 5.854-12.513 12.36-18.787 18.843-5.802 5.991-11.131 11.66-18.144 16.187-4.438 2.866-8.397 6.393-12.956 9.095-3.414 2.024-8.587 4.685-6.921-1.504 1.708-6.343 4.86-12.754 7.597-18.678 3.891-8.421 7.812-16.763 12.022-25.025 1.583-3.103 2.468-6.193 4.977-8.665 2.731-2.691 4.643-6.204 7.633-8.747 12.577-10.694 31.532-2.432 45.393.713zm23.774 3.625c-3.438 1.795-7.286 2.239-10.929 3.426-3.105 1.011-5.992 2.809-9.33 2.943 3.039-2.273 5.65-5.361 9.077-7.087 3.855-1.941 7.354-.528 11.182.718zm150.895 14.956c-12.65-4.249-24.42-10.51-36.74-15.549-2.12-.87-18.75-6.323-18.41-8.919 11.65-2.126 23.65-5.774 35.33-1.796 10.62 3.618 19.27 12.297 27.49 19.561 2.15 1.896 15.42 10.527 14.23 13.276-.82 1.905-7.22 1.385-8.73.995-1.95-.505-3.07-1.684-4.6-2.98-2.56-2.165-5.39-3.518-8.57-4.588zm-23.35-70.989c1.92-1.76 3.07-4.43 4.91-6.054 2.36-2.088 6.16-1.071 8.74.013 7.73 3.254 14.34 8.724 22.02 12.119 8.52 3.763 15.89 8.791 23.57 13.973 7.02 4.736 14.61 8.657 21.78 13.177 7.3 4.607 15.48 7.602 22.88 12.045 7.54 4.523 15.04 9.064 22.28 14.047 12.91 8.887 26.35 18.012 35.9 30.647 4.91 6.494 9.51 13.861 13.11 21.153 3.28 6.63 6.83 15.832 2.58 22.729-4.07 6.622-11.02 11.84-16.9 16.781-2.22 1.871-4.34 4.144-7.23 4.956-3.51.985-7.6.713-11.21 1.004-19.31 1.559-37.29.088-56.31-3.35-18.34-3.315-36.76-5.171-55.25-7.475-10.42-1.3-20.85-2.813-31.13-4.978-4.4-.925-8.87-1.992-13.18-3.253-3.75-1.101-6.91-3.525-10.78-4.485-16.392-4.078-35.152-5.636-51.384-12.495 14.364-5.944 29.629-9.535 44.354-14.475 15.49-5.199 30.62-9.561 46.96-11.039 8.4-.76 15.92-2.897 24-5.134 7.71-2.132 15.75-2.785 23.66-3.741 3.52-.424 13.57.212 14.73-4.369 1.74-6.82-8.13-7.607-12.34-6.996-5.96.866-10.88 2.349-15.45-2.526-4.66-4.978-9.19-10.075-13.94-14.991-8.8-9.114-17.88-19.655-30.32-23.744-15.18-4.989-32.79-.253-47.932 2.583-15.999 2.996-31.971 5.865-47.67 10.22-6.501 1.804-14.885 5.777-21.633 5.139-6.649-.63-14.181-1.714-20.607-3.624-2.907-.863-5.298-2.465-7.899-3.958-3.383-1.941-7.09-3.186-10.68-4.695-7.261-3.051-14.338-5.862-22.171-7.062-6.596-1.01-13.6-1.609-19.993.694-6.271 2.259-11.828 6.859-16.203 11.773-4.753 5.338-8.681 11.321-12.577 17.286-1.87 2.862-4.152 5.361-6.09 8.159-1.626 2.35-2.575 4.962-4.296 7.246-3.851 5.111-6.465 11.648-8.799 17.594-2.593 6.603-5.474 14.457-4.855 21.64.234 2.716.479 6.312 1.533 8.829 1.342 3.203 3.255 3.121 6.012 4.329 4.737 2.075 6.066 7.81 12.187 6.692 5.742-1.048 10.722-5.76 14.911-9.517 5.461-4.893 10.686-10.054 15.911-15.196 5.361-5.277 10.645-11.13 14.91-17.338 1.679-2.444 2.988-5.204 4.972-7.43 2.527-2.835 5.364-3.175 8.796-4.304 30.006-9.873 60.156-19.396 91.098-25.915 7.414-1.562 14.887-3.577 22.169-5.656 7.724-2.204 11.724.126 18.096 4.322 13.32 8.769 29.06 14.945 43.89 20.666 4.67 1.802 12.1 1.916 15.75 5.469-21.63 3.284-42.25 9.604-63.12 15.897-10.289 3.102-20.696 5.792-31.024 8.759-10.332 2.968-20.27 6.814-30.46 10.16-10.141 3.33-20.858 4.689-31.097 7.76-10.453 3.136-20.861 5.293-31.59 7.198-10.833 1.926-21.592 4.147-32.462 5.87-4.977.789-9.953 1.608-14.876 2.693-4.816 1.063-9.468 3.607-14.309 4.196-21.616 2.634-42.807 8.502-64.339 11.819-16.077 2.477-44.046 5.932-54.471-10.131-10.484-16.154 2.378-34.997 13.854-46.547 7.131-7.178 15.145-13.496 23.553-19.116 8.999-6.015 17.657-12.51 26.657-18.516 20.368-13.592 42.454-24.677 64.337-35.599 10.503-5.243 20.651-10.865 30.869-16.618 5.071-2.855 7.877 1.752 11.886 4.884 3.153 2.464 8.943 8.536 13.354 5.728l.509 3.034 3.877-1.76c.868 2.267.766 3.675 3.191 4.865 1.489.732 4.666 1.612 6.086.324l.869 2.685c1.24-.095 1.48-3.63 1.714-4.458 2.127 3.093 5.069 5.678 8.807 6.552.018-.202-.608-2.743-.581-2.758 1.182-.722 2.674 2.366 3.301 3.028 2.079 2.19 3.319 1.851 5.615.082.167.18.945 2.2 1.058 2.164.497-.157 1.44-1.947 1.544-2.11-.143 2.354 4.421 2.829 6.033 2.323l-1.085-2.069c5.615-.747 7.819 5.194 13.208 4.892 3.984-.224.789-1.091 3.043-2.79 1.97-1.485 2.321 1.763 2.514 1.66a4.24 4.24 0 00.874-1.351c.728 2.781 6.532 5.276 5.932.703 2.284.909 3.905 2.419 6.431 2.738 3.071.387 6.352-.262 9.415-.515 6.602-.547 12.825-1.888 18.776-4.9 3.529-1.786 7.284-3.406 10.6-5.561 2.776-1.803 8.037-7.277 11.737-4.92-.95-2.78 3.51-.203 3.65-3.785.72.538 1.43 1.074 2.15 1.612.43-.937.31-2.414.88-3.23.79-1.122 1.18-.461 1.85-1.093.75-.705 1.41-2.596 2.31-3.135.93-.553 2.03.107 3.03-.377 1.52-.737 8.08-7.936 6.97-1.768 2.82-.954.64-1.826 1-3.697.7-3.748 2.42-1.05 4.14-.724 2.81.536 2.75-1.775 4.32-3.455 1.43-1.535 4.11-2.221 3.19-4.886 1.06.567 1.28 1.679 1.4 2.758zm-169.246-80.069c-2.212 2.454-3.869 1.405-6.328 1.045-.263-.878-.713-1-1.348-.365a6.81 6.81 0 01-2.351.823c-2.017.495-4.111.284-6.084 1.034.056-.658.75-1.827.306-2.496-2.075 1.429-3.361 2.338-5.908 2.365-2.065.022-5.688-1.548-7.402.329l-.158-2.192a7.183 7.183 0 00-2.191 1.672c-.117-1.082-.183-1.901-.902-2.776-1.363 2.793-2.857 2.859-5.506 1.792.371.149-2.652-1.616-2.537-1.127-.955-4.01 14.132-3.679 15.717-3.838 3.955-.397 7.91-.628 11.872-.991 3.757-.345 6.561-.928 9.162 2.194-1.159-4.509 9.803-4.285 3.658 2.531zm-172.988-69.926c.416 6.817 1.939 14.062-.722 20.623-2.14 5.274-6.408 11.23-11.006 14.672-9.415 7.046-17.395-1.576-18.706-11.053-1.366-9.884 1.342-21.961 9.888-28.056 5.107-3.641 10.052-3.389 15.931-2.192 1.381.282 3.623.174 4.412 1.54.185.32.019 4.46.203 4.466zm125.045 90.823c-1.626.818-3.327 1.296-4.761 2.408-.498.387-.668 1.267-1.197 1.592-.961.592-2.336.2-3.339.688-1.659.808-2.848 1.963-4.82 2.707-2.929 1.105-5.496 2.621-8.264 4.058-4.612 2.395-9.561 4.45-14.382 6.4-2.434.984-9.165 2.902-8.932 6.45-.544.147-1.101-1.039-2.237-.945-1.561.129-3.622 1.926-5.242 2.369-3.03.826-5.376.899-5.376 4.746-.965-.653-1.21-2.25-2.493-2.461-1.444-.239-2.052 1.313-3.208 1.796-1.361.569-3.053.023-4.4.629-.59.62-1.245 1.162-1.965 1.624a7.507 7.507 0 01-2.189-.067c-2.861.604-5.493 1.675-8.361 2.232-2.795.544-4.708.741-3.534 4.032-2.989.583-3.719-2.576-7.092-1.421-4.135 1.415-7.999 2.436-12.315 3.3-2.201.44-4.5 1.423-6.718 1.654-1.581.165-3.058-.399-4.615-.224-1.877.21-3.386 1.076-5.328 1.108-1.843.032-3.777-.297-5.587-.621.256.726.576 1.422.96 2.089-1.251-.261-1.828-1.759-2.889-1.981-1.113-.232-2.111.911-3.037.658-.395-.108-.133-1.32-.839-1.552-.643-.21-.914.038-1.553-.061-.213-.033-2.882-.177-3.307.046-.744.393.009 1.128-.139 1.238-2.511 1.85-2.541.851-3.66-1.082-1.643-2.836-3.625-1.046-6.612-1.543-3.328-.553-5.951.91-9.227.702-3.533-.225-7.686-2.858-10.81-4.396-6.747-3.32-13.325-6.463-18.991-11.492-11.076-9.831-20.086-21.921-25.399-35.763-5.708-14.87-6.79-30.378-6.332-46.154.276-9.488 1.038-18.97 2.54-28.346 1.034-6.45 1.25-17.912 8.552-20.849 1.256 15.102-2.705 30.491-.207 45.495.752 4.519 2.586 10.541 6.058 13.888 5.141 4.955 6.343-2.207 6.809-6.164.865-7.347 2.472-14.655 3.611-21.967 1.137-7.31 1.94-14.702 3.522-21.935.576-2.637 5.226-21.95 8.639-21.035-.69 14.05-2.524 27.857-2.596 41.959-.029 5.656-.537 11.63.283 17.249.421 2.891 3.065 11.376 7.613 10.668 4.208-.654-.418-6.631-.811-8.935-1.041-6.101.286-13.691 1.256-19.747 1.836-11.459 5.934-23.195 12.63-32.772 5.998-8.575 15.233-16.738 26.358-15.226 4.754.647 8.462 1.822 10.851 6.145 1.874 3.392 9.256 7.247 4.978 11.494-3.895 3.867-10.193.772-14.523-.15-5.3-1.129-10.98.229-15.413 3.322-7.606 5.306-11.94 14.792-13.355 23.688-1.907 11.996 3.19 43.395 21.964 36.358 12.471-4.675 21.864-21.492 20.817-34.367-.42-5.154-2.443-14.938 4.717-16.33 9.174-1.782 10.469 8.288 9.541 14.832-1.351 9.519-6.403 18.37-12.182 25.896-5.037 6.559-10.896 10.661-16.957 16.078-1.795 1.604-6.372 5.21-5.603 8.193.842 3.269 8.036 4.199 10.916 4.736 14.25 2.656 30.319.213 44.544-1.642 29.237-3.813 58.09-13.203 82.063-30.468.969 10.682 2.19 21.329 2.639 32.05.219 5.205.274 10.484.872 15.66.367 3.184 1.697 7.632-1.936 9.459zm-81.069 37.223c-1.147.597.093-3.019-.226-1.822 1.715.612 1.791 1.219.226 1.822zm121.284-129.279c1.822-2 6.8-6.758 8.38-2.243.588-1.924.664-4.775 2.934-2.176.903-3.193 10.87-2.894 13.339-3.035 7.904-.45 15.841-.691 23.718-1.473 16.186-1.606 32.654-.778 48.899-.83 3.518-.012 7.026-.202 10.518.306 3.37.491 6.912 1.867 10.346 1.364 3.054-.447 5.056-1.286 8.2-.927 3.761.43 7.412.735 11.207.721 16.783-.061 33.563.616 50.343.642 3.28.005 7.2-.631 10.26.753 1.14.513 2.38 2.22 3.25 2.407 1 .214.41-1.332 1.74-.634 1.78.935.4 3.81-.78 4.266.71-.273-1.27-.542-1.07-.552-.94.05-1.74.768-2.75.723-1.54-.067-2.83-1.001-4.07-1.823-.02.336.66 2.573-.11 2.686-.67.098-1.3-2.108-1.37-2.622-3.75 3.299-7.73 1.46-12.39 1.878-3.31.297-10.2 2.493-12.51-.944a3.466 3.466 0 01-.88 1.92c-.66.999-1.23.914-1.71-.258-.16.008-1.77.356-1.8.353-1.13-.089-2.59-.493-3.74-.591-1.78-.151-1.45 1.138-2.87 1.159-.78.011-2.75-1.102-4.1-1.171-2.34-.122-4.72.866-7.03.567-1.59-.206-3.02-1.492-4.58-1.543-1.94-.064-2.57 1.41-4.106-.66-.316-.085-.511 1.133-.636 1.154.031-.006-1.463.215-1.64.283-.307.117-1.501.661-1.864.668-.785.014-1.211-.546-2.043-.559-1.377-.023-5.771 1.184-5.649-1.352-4.911 1.813-9.103 1.106-14.146 1.534-2.313.198-3.766-.111-5.967-.534-2.756-.529-4.587.136-7.336.271-2.641.129-3.474-.984-5.704-1.989-.88-.396-1.461-.919-2.54-.699-.614.126-.177 1.158-.359 1.228-.947.364-1.609-.022-2.908.067-2.399.163-3.354 2.159-5.82.285.819-.099 1.639-.2 2.459-.298-2.358-.996-5.47-1.504-4.899 2.121-2.011-.281-.27-1.645-1.259-2.133-.988-.487-2.095.329-3.34.732-3.288 1.062-6.029.535-9.458.344-3.895-.217-13.008 2.949-15.798-1.161-.083.866-1.017 3.279-2.26 3.166-.405-.038.725-2.599.852-2.87-.639 1.357-3.559 1.614-4.998 2.318l.483-2.186c-1.335 1.416-1.985.552-3.557 1.025-.687.208-1.682 1.619-2.269 1.704-.685-.791-1.545-1.131-2.582-1.021a5.235 5.235 0 00-2.068-.1c-2.758.199-5.274 1.726-8.018.687-2.376-.902-3.295-3.219-4.711.468l-1.118-1.967-1.379 2.134c-1.798-1.172-1.908-1.851-3.977-1.42-.485.192-.983.166-1.492-.082l-.366 1.083c-.048.908-.319 1.208-.811.899a3.315 3.315 0 01-1.121-.674c-1.368.104-3.116.463-4.585.264-.566-.075-4.12-1.943-4.384-1.653zm41.875-24.405l.483.738c-2.221 1.169-2.744.498-2.974-1.848 1.086.021 1.271 1.922 2.491 1.11zm1.376-1.377c1.07.47 2.297 1.393 3.304.156.678 1.964-4.359 4.643-3.304-.156zm6.909.867c2.246 1.512-3.141.296-3.133.299.969-.89 2.012-.99 3.133-.299zm19.318-8.429c.77 3.87 2.894 3.76 6.324 1.961 5-2.625 5.845-6.922 6.193-12.053.335-4.92.939-6.825 6.034-5.798 3.556.717 6.564.115 10.149.016 3.825-.105 5.173.477 5.481 4.397.309 3.926 1.009 6.906 3.87 9.894 2.908 3.037 6.786 4.85 10.565 6.549 1.944.873 3.769 1.813 5.919 2.002.833.074 5.169-.472 5.26.894.067 1.027-5.937 3.925-6.575 4.27-2.785 1.508-5.562 2.861-8.604 3.775-6.999 2.103-14.42 2.227-21.669 2.1-11.689-.205-27.842-5.128-34.831-15.455l11.884-2.552zm-1.049-33.517c-1.849-1.546-3.046-3.88-4.583-5.711-.775-.923-1.342-1.217-2.08-1.679-.776-.486-1.214.202-1.861-.941-1.674-2.956 3.491-7.114-1.987-8.252-1.853-.386-6.314 1.077-6.854-1.567-.766-3.739 6.401-3.984 8.087-5.882 3.353-3.773 1.077-10.169 3.119-14.522 1.933-4.123 6.923-4.856 10.861-6.094 5.487-1.726 11.041-2.726 16.612-4.107 3.897-.965 10.369-4.843 13.982-1.417-5.575 1.233-2.335 3.168 1.382 4.26 4.209 1.238 8.67 1.721 13.032 2.066 4.49.355 9.065.423 13.501-.469 4.103-.824 8.684-4.375 12.984-3.466-2.38 4.133-9.494 6.391-13.815 7.473-2.202.552-3.611.379-3.315 3.113.286 2.649 2.599 5.305 3.121 8.065.691 3.652.087 7.008-1.218 10.443-1.284 3.379-1.584 3.821-.462 7.05 1.749 5.028-2.01 10.585-5.484 14.237-14.048 14.764-40.934 9.171-55.022-2.6zm35.699-88.239c.008.094.056.151 0 0zm4.375 37.259c-.583.434-3.937 1.342-3.797.037.188-1.75 3.211-1.118 3.797-.037zm7.646-35.34c-.787-.585-2.992-.345-1.38-2.56l1.38 2.56zm-52.912-14.002c1.003-2.597 2.114-5.012 2.566-7.776.28-1.703-.275-3.647 2.115-3.914-3.046-1.323-3.077-6.545-3.257-9.251-.247-3.728-1.43-8.719.216-12.189 1.688-3.564 3.966-3.505 4.654.74.27 1.662-.761 2.199-.955 3.357-.382 2.289.379 1.787 1.863.043.612 1.773.847 4.437 3.339 4.324-.166-.479-1.121-1.537-.802-2.132.489-.915 2.883.482 3.187.694 2.186 1.522 2.659 2.912 1.1 4.832 2.159.232.347 2.113 1.74 2.604 2.125.748.7-2.797.47-3.42 1.294.502 1.728 1.076 2.547 2.094.48.702.919 1.432 1.313 2.186.44 1.376 1.346 1.721 2.72 1.035 2.753.86 6.553.726 9.02 2.229 1.127.686 1.534 2.189 2.476 2.759 1.059.643 2.478.351 3.616.754-.416.942-.079 1.452 1.01 1.532a9.244 9.244 0 012.457.568 7.49 7.49 0 011.933-1.051c.468.821 1.128 1.023 1.984.61 2.538.473 3.758 1.43 5.371 2.859 1.448 1.283.269 1.387 1.856 1.274.638-.046 1.755-1.123 3.213-.913.839.163 1.649.42 2.428.772.842.718 1.737.808 2.683.272 1.537.748 1.689 2.073 3.562 2.254 2.073.202 1.406-2.371 2.83 1.258 1.916-3.848 2.619 2.281 4.598 2.776 2.049.514 2.271-1.141 4.024.667.53.542.5 1.437 1.09 2.012.97.941 2.27.753 3.12 2.036-.47-.716.11 2.537.1 2.43.13 1.435-1.15 3.044 1.47 2.921-.03.151-1.29 1.981-1.54 1.774-.06-.209-.11-.42-.15-.634-.28.12-.4 1.863-.35 2.171.22.035.31-.13.27-.494-.43 1.345.22 2.199-.61 3.475-.53.816-1.98 1.428-2.75 1.932a166.44 166.44 0 00-5.5 3.728c-4.233 3.017-8.974 6.655-14.305 7.284 2.678-2.618 18.085-12.526 10.356-15.371-1.433-.527-4.042-1.026-5.541-1.137-1.864-.138-3.792.925-5.848.262-2.481-.8-1.546-3.122-3.062-3.955-3.218-1.768-2.458 2.389-3.471 3.478-1.064-1.112-.836-1.653-2.516-1.754-1.706-.102-2.112 1.468-4.103.49-2.742-1.348-1.291-4.033-5.181-4.097.065-.589.629-2.236-.113-2.696-1.001 1.293-.226 2.738-1.155 3.982-.465.624-1.474 1.122-2.21 1.324-1.725.472-1.97 1.375-1.689-1.211-1.279 2.293-5.198 1.35-7.529 1.119-3.791-.375-7.819-1.09-11.453-2.3-3.36-1.12-5.155-3.044-7.927-4.794-1.048-.662-1.548-.409-3.05-.82-1.483-.406-2.929-1.192-2.23-3.002zm7.997-40.602c.572-.343.984 4.78.29 5.737-1.27-2-3.521-4.934-.29-5.737zm1.828-2.043c1.84-1.659.562 2.625.224 3.344l-2.045-1.306c.87-.531 1.087-1.377 1.821-2.038zm69.422-6.904c17 3.553 33.85 10.194 47.48 21.122 12.42 9.955 21.19 24.078 26.1 39.101 5.1 15.594 3.39 32.895-8.75 44.829-6.39 6.286-14.83 10.079-22.88 13.78-3.86 1.773-7.83 3.25-11.7 4.982-2.78 1.244-6.17 3.235-9.34 2.89 1.62-1.696 3.96-1.731 5.92-2.768 2.37-1.253 4.3-3.659 6.34-5.377 2.03-1.706 6.52-7.079 9.63-5.778-.43-2.862 2.84-4.191 4.32-6.079 1.56-1.996 1.67-4.331 4.55-4.984-3.09-2.407-2.15-6.946-1.47-10.223.86-4.189 1.25-8.036 1.59-12.3.61-7.687 1.1-17.479-3.16-24.237-1.38-2.194-3.15-4.21-4.38-6.49-1.49-2.746-1.16-5.164-1.16-8.175-2.72 1.821-3.3-1.892-4.45-3.701-.86-1.357-1.99-2.116-2.27-3.824-.2-1.243 1.15-1.453.41-2.756-.91.685-1.27 1.746-1.73 2.731-.84-.335.15-1.5-.34-1.879-.01-.01-1.63-.711-1.55-.61-1.04-1.317-1.38-3.502-1.89-5.07-1.91.964-1.55.851-3.69-.76-.37-.284-2.25-1.586-2.42-2.012-.83-1.99.62-.811.21-2.046-1.16-3.549-7.67-2.878-8.19-8.195-3.18 2.009-4.39-.837-6.27-2.861-1.92-2.074-5.15-2.872-4.98-6.161l-3 1.02c.52-3.036-4-2.842-5.64-4.382.91.011 1.81.082 2.71.213zm2.59 187.987c1.58-1.404 1.1.464 2.11.25.87-.183 1.04-.835 1.87-1.036 3.43-.824 8.55.212 12.15.034 4.17-.205 11.32.657 13.31 5.518 1.2 2.928-.63 1.932-2.64 1.714-1.56-.168-2.95.147-4.5.131-.76.117-1.52.106-2.28-.035a1.448 1.448 0 01-.66-1.025c-2.15-.324-4.43.942-6.81 1.006-3.18.084-6-.523-8.42-2.659-.96 1.424-1.61 2.131-3.34 2.29-.04.004-1.73-.672-1.99-.739-.34-.09-1.22.632-1.88.426 1.18-1.874 1.35-4.336 3.08-5.875zm217 16.916c.56-1.942 1.03-3.91 1.54-5.866 7.85 8.891 14.71 20.793 17.8 32.196 2 7.41 5.12 20.836-4.44 24.658-7.79 3.113-12.13-8.046-14.11-13.543-4.35-12.132-4.35-25.099-.79-37.445zM873.334 163.978c.101-.02-5.077 2.979-3.371.551.685-.976 3.284-1.663 4.437-1.663l-1.066 1.112zm-4.98 1.271c-.599.502-1.204.998-1.815 1.487l-1.759-2.767c1.156-.486 6.062-.85 3.574 1.28zm-3.649 93.238c-1.084-.731-1.943-.342-2.268.884 0-1.22.638-4.056 1.619-4.386.634-.215-2.107-3.444-1.337-4.289 1.959 1.117.786 2.188 1.36 3.631.259.651 1.038 1.266 1.208 1.766.289.849 1.458 3.768-.582 2.394zm-5.308-7.267c-1.109.283.833 2.107.831 2.913-.001.61-.736 1.078-1.04 1.912-.657 1.807.474 3.028-1.388 4.407 0-3.96-2.669-14.453 2.46-16.383-2.502-1.962-.447-4.226 1.513-1.879 1.885 2.258.685 8.25-2.376 9.03zm-2.672-15.627c-1.008-3.56-4.042-4.805-7.51-4.594.132-1.822 1.519-4.45 2.521-1.165.412-.971.697-2.238 1.636-2.881 1.582 4.938 9.467 7.666 4.557 13.017-.4-1.459-.791-2.921-1.204-4.377zm-9.163-4.329c-18.259 1.319-43.894 5.092-58.506-8.846-9.527-9.088-9.018-23.241-1.319-33.338 4.394-5.762 10.392-9.819 16.415-13.684 2.325-1.492 4.294-2.477 6.846-3.334a1.78 1.78 0 011.165.275 1.998 1.998 0 011.044-1.364c.985-.526 2.389-.713 2.957-1.803-.606 2.047-.918 4.156-1.14 6.275l-1.475-1.712c-.41 3.859-4.447 1.523-6.858 2.005 1.588 2.189 2.724 2.984 2.86 5.876-1.182-2.175-3.655-3.604-5.954-4.305 1.248 3.678 2.131 5.861.874 9.894-1.518-.864-1.621-2.937-3.463-3.434-.486 2.405-.572 5.073-1.194 7.407-4.717-2.142-4.257 3.627-2.363 6.482 1.007 1.519 1.502 3.277 2.4 4.735 2.204 3.576.53-1.772 2.98-1.518-.551 3.772-.742 4.148 2.03 6.91 2.705 2.693 4.109 6.431 7.002 8.961.838-1.066-.48-2.182-.595-3.202 2.692.45 3.953 3.138 6.542.757 1.128 2.191 2.35 4.603 5.053 5.053-1.787-3.383 3.432-1.089 4.77-.608 1.016.364 2.834.653 3.226.794 2.205.793.693-.631 2.031 1.969 1.965-.59 2.707-2.214 5.057-.842 1.912 1.116 1.916 3.026 2.352 4.984.456-1.281.916-2.56 1.419-3.823.513.215 2.665 2.573 2.431 2.584 5.036-.246 4.858 2.868 3.413 6.852zm-25.637-63.837c1.011-.707 2.246.234 3.382-.019 1.572-.349 2.465-1.691 4.221-1.834-.489 1.555-1.406 1.409-2.182 2.631-.264.416-.127 1.415-.361 1.654-1.969 2.008-2.649.369-4.658-1.151.175 1.833.528 2.412-1.205 2.904-1.57.445-4.16-1.196-4.951-2.455.667-1.329 4.544-.884 5.754-1.73zm12.529-2.864c1.705.162-.349 5.171-2.792.312.92-.2 1.851-.304 2.792-.312zm8.767-.969c2.688-.546 11.657-3.091 12.655 1.077.18-.104.846-2.457 1.157-2.17 1.242 1.151 1.381 2.675 1.286 4.273-1.502-3.114-.968-.379-1.985-.592-.265-.056-.671.438-1.344.234-.882-.268-1.514-2.136-2.071-2.769-.927 1.318-2.075 3.015-3.932 2.9-1.313-.081-3.431-3.449-1.729.239-.999-.329-2.156-1.073-3.268-.924-1.246.168-1.894 1.393-3.062 1.59-2.589.437-2.98-2.044-4.661-3.391 2.319-.135 4.664-.002 6.954-.467zm16.267-.04c.19-.854 2.543-1.199 3.142-.928 1.462.661.922 1.534.653 2.987l-3.256-1.533c1.62 2.597-1.314 2.974-.539-.526zm455.452 152.142c-.19-6.225-.37-12.557-1.95-18.617-1.11-4.241-3.84-11.846-8.99-12.582-7.77-1.111-12.07 14.184-14.25 19.434-.44-6.181-.06-12.76-2.4-18.627-1.88-4.701-6.62-9.154-10.7-3.874-3.64 4.699-4.34 11.635-5.29 17.288-1.24 7.326-1.99 14.708-2.89 22.078-3.55-6.831-4.17-14.65-6.98-21.749-2.65-6.699-6.81-13.097-10.82-19.056-3.28-4.867-7.27-9.442-12.4-12.418-4.47-2.589-12.28-5.39-16.54-1.089-3.55 3.588-3 8.39-2.81 12.918.08 2.016.4 3.399-1.38 4.415-.88.5-2.25.241-3.21.508-1.55.431-2.74 1.161-4.05 2.131-9.19 6.802-13.42 19.06-14.73 29.989-1.66 13.846 3.76 25.717 8.42 38.386.75 2.019 3.11 6.303 2.78 8.557-.36 2.47-3.47 2.534-5.57 2.585-6.34.156-12.98-.315-19.29-.903-15.03-1.401-30.04-8.606-43.5-15.038-2.45-1.174-5.93-1.846-7.93-3.694-1.88-1.738-2.38-4.522-4.01-6.516-3.99-4.89-6.53-9.063-12.41-12.018-5.98-3.008-12.09-5.788-17.93-9.084-7.22-4.076-13.89-9.24-20.81-13.804-12.85-8.48-25.63-17.777-39.26-24.989-6.33-3.351-13.41-3.894-19.99-6.638-6.4-2.672-14.27-2.675-20.951-.988-3.255.823-5.471 2.771-8.465 4.043-3.51 1.491-6.372-.154-9.46-1.934-4.717-2.719-9.394-7.149-2.676-10.082 2.279-.995 5.135-1.372 7.126-2.937 2.122-1.667 3.826-4.743 5.551-6.831 3.837-4.643 6.128-9.987 11.743-12.874 6.212-3.193 13.572-4.062 20.192-6.149 7.17-2.26 14.2-4.947 21.23-7.586 12.69-4.755 25.87-9.888 34.99-20.353 7.86-9.03 11.29-20.684 10.97-32.521-.65-24.199-13.67-48.758-32.34-63.888-22.9-18.552-52.04-24.738-80.965-24.414-13.577.152-29.778 1.922-41.106 10.136-9.784 7.095-11.412 19.504-9.957 30.706.591 4.546 2.61 10.546-.61 14.552-1.802 2.241-5.036 2.796-7.463 4.193-3.05 1.756-5.739 3.438-9.194 4.367-14.674 3.946-30.13 2.572-45.133 2.354-24.993-.364-50.611 6.374-69.256 23.912-15.056 14.162-19.571 40.866-1.208 54.672 14.836 11.154 38.107 9.927 55.601 7.981 5.424-.604 9.155-1.481 9.167 5.128.014 7.22-1.187 14.766.662 21.854 2.914 11.163 13.685 11.429 23.207 9.025 5.025-1.268 9.882-3.176 14.654-5.173 6.999-2.929 13.414-7.237 20.325-10.161 4.686-1.982 8.195 4.427 12.351-.016.768-.821.909-2.045 2.068-2.466 1.815-.658 4.86 1.65 6.452 2.38 2.384 1.093 4.788 1.897 5.74 4.529.891 2.462.501 6.377-.353 8.806-1.855 5.28-6.849 4.236-11.408 3.883-7.952-.616-15.85-1.922-23.799-2.471-7.132-.493-13.811 1.63-19.962 5.132-12.92 7.356-23.491 19.056-34.693 28.679-5.766 4.951-11.34 10.3-17.61 14.613-2.725 1.875-5.678 3.598-8.048 5.929-2.351 2.311-2.609 4.412-3.413 7.488-1.432 5.477-8.544 8.154-12.99 11.043-6.286 4.086-12.951 6.969-19.998 9.476-14.925 5.309-29.968 9.016-45.571 11.757-7.639 1.342-15.215 2.223-22.929 2.948-6.65.624-13.72 2.663-20.362 1.034 1.913-3.089 5.303-4.945 7.942-7.333 3.404-3.079 6.298-6.727 8.874-10.507 5.013-7.36 8.53-15.258 9.337-24.185.728-8.035-.107-17.647-4.975-24.434-1.682-2.345-5.008-2.983-6.513-5.095-1.497-2.1-.926-5.714-1.746-8.163-2.085-6.226-8.275-13.942-13.723-17.558-5.91-3.924-14.555-5.366-21.383-3.321-12.647 3.789-20.416 17.249-26.204 28.128-3.161-6.625 2.133-16.454-4.043-21.879-5.209-4.577-9.344 4.289-11.086 8.082-8.179 17.804-10.036 36.688-13.463 55.738-1.396-1.371-.68-4.889-.549-6.524.244-3.044.222-6.03.228-9.086.016-7.722 1.458-15.48.797-23.194-.382-4.46-1.809-13.864-8.316-12.382-5.518 1.257-8.974 8.984-10.708 13.708-2.5 6.814-3.078 13.56-2.922 20.758.172 7.953-1.35 15.777-1.718 23.719-.717 15.427-.009 30.721 4.436 45.609 7.279 24.381 24.014 44.639 46.35 56.872 12.306 6.74 25.958 11.005 39.994 11.922 7.606.497 14.949-.405 22.49-1.188 7.443-.773 14.924-1.13 22.353-2.037 16.545-2.021 32.666-7.237 47.704-14.256 7.916-3.695 15.36-8.231 23.146-12.17 3.124-1.58 5.235-3.557 7.901-5.755 2.644-2.178 3.376-2.349 6.382-2.349-.882-2.349 1.692-3.073 2.837-4.56l-.193 2.162c.873-1.885 1.686-1.867 2.438.055.743-2.153 1.294-4.366 2.191-6.464 3.432 1.73 3.143 5.842 7.732 2.839 3.78-2.47 7.256-5.385 11.108-7.806 8.777-5.518 16.344-12.696 25.146-18.15 0 5.312.377 10.67-.336 15.954-.678 5.025-2.563 9.722-4.061 14.533-2.763 8.876-2.954 18.361-6.016 27.147-1.267 3.639-4.567 6.682-5.513 10.224-.964 3.614 1.264 6.509-2.471 8.882-2.632 1.672-5.924 2.379-8.839 3.391-4.447 1.544-8.67 3.722-12.999 5.57-20.306 8.665-40.114 17.489-58.927 29.14-17.854 11.056-35.982 22.475-52.383 35.605-14.235 11.396-28.624 26.131-32.089 44.721-3.362 18.031 5.596 37.386 23.584 43.324 9.354 3.088 19.928 2.706 29.668 2.839 10.481.144 21.587-2.371 31.891-4.191 10.883-1.922 21.579-4.931 32.493-6.647 10.471-1.647 20.076-5.328 30.376-7.597 10.97-2.416 22.222-3.727 33.253-5.9 4.966-.979 9.832-2.423 14.812-3.329 5.452-.991 10.963-1.363 16.362-2.677 10.472-2.549 20.498-6.657 31.015-9.028 4.729-1.066 9.385-2.494 14.115-3.49 4.355-.918 7.748-3.355 12.113-1.354 3.526 1.618 6.338 4.391 9.676 6.323 4.328 2.506 8.891 4.751 13.404 6.907 9.067 4.333 18.471 7.327 27.949 10.58 9.96 3.417 19.74 7.314 30.06 9.571 10.57 2.313 21.36 2.957 32.01 4.787 21.81 3.747 43.44 5.429 65.58 5.565 11.19.07 22.38-1.251 33.54-1.095 9.88.139 18.48 2.357 27.51-2.875 14.45-8.361 31.2-20.955 30.84-39.248-.32-16.568-10.3-32.397-19.66-45.465-11.37-15.869-27.58-27.044-43.46-37.991-16.93-11.665-35.95-19.726-53.74-29.909-9.1-5.208-17.49-10.811-27.38-14.512-4.71-1.766-9.31-3.814-13.98-5.716-3.75-1.53-9.16-2.375-12.37-4.914-2.01-1.584-2.2-3.983-2.73-6.339-1.17-5.212-3.01-10.155-4.79-15.181-3.45-9.707-5.74-19.592-7.22-29.772-1.41-9.705-4.54-19.797-2.92-29.659 10.67 10.28 21.64 20.163 32.56 30.17 4.09 3.751 8.1 7.58 12.22 11.308 3.09 2.798 6.95 6.955 11.25 7.786 5.5 1.061 3.49-4.995 7.27-5.933 2.3-.573 9.26 5.264 11.09 6.417 11.56 7.309 24.36 11.941 37.07 16.916 13.34 5.217 27.05 9.851 41.4 11.164 13.25 1.215 26.8-.344 39.59-3.939 25.47-7.161 44.21-24.152 57.97-46.175 15.67-25.097 27.08-54.495 26.15-84.453z" fill="#000"/><path fill-rule="evenodd" clip-rule="evenodd" d="M925.678 260.985l-.043.091c.048-.033.062-.063.043-.091z" fill="#000"/><path fill-rule="evenodd" clip-rule="evenodd" d="M926.907 261.31a8.926 8.926 0 00-.618-2.348c-.843 1.331-1.597 1.901-.49 3.311l1.108-.963zm58.733 190.257c.943-.999-.707-1.376-1.333-1.389.062 1.072-.472 3.641 1.001 4.139-.353-.97-.242-1.887.332-2.75zm-24.881-209.124c-1.621 3.117 1.959 4.084 4.032 2.579 1.56-1.133 2.482-4.019 2.738-5.871.829-5.992-3.381-11.695-5.48-17.011-.543-1.375-1.286-6.088-3.033-6.217-2.007-.149-2.155 4.192-2.181 5.312-.078 3.377.82 6.817 1.873 10.005 1.134 3.437 3.944 7.563 2.051 11.203zm7.71-12.502c6.23 5.525 11.214-3.676 10.779-9.119-.108-1.349-1.023-6.321-3.591-4.511-1.29.909-.19 3.863-.805 5.159-2.98 6.289-5.85-3.465-7.856-4.231-2.441-.933-2.687 2.262-2.683 3.97.006 3.389 1.625 6.488 4.156 8.732zm-22.615.857c1.467-2.301 3.272-5.388 3.471-8.145.31-4.285-2.198-3.927-4.262-.937-1.458 2.112-2.551 5.694-5.77 4.804-3.973-1.098-2.759-6.418-4.983-8.947-5.617 7.513 5.012 23.465 11.544 13.225zm8.416 22.993c2.323.5 8.38.315 6.281-3.227-2.646-4.462-11.448 2.114-6.281 3.227zm81.39-133.067c.42-1.262-.16-1.491-1.18-2.484-.96.883.27 1.811 1.18 2.484zm43.33 228.422c1.53.243 2.02-.564 1.48-2.422-2.42-.156-2.92.651-1.48 2.422zM995.296 154.29c1.691.77 1.043 2.349 1.014 3.683.871-.942 2.63-2.665 1.914-4.018-1.104-2.088-3.987-.147-2.928.335zm-57.584-26.268l-.772-1.502c-1.05.839-2.671 3.057-1.003 4.138a15.911 15.911 0 001.775-2.636zm20.285 14.724c2.103 1.643 1.094-3.399 1.031-3.81-.313.591-2.094 2.981-1.031 3.81zm-1.167-2.56l-.483-1.25c-.852.786-1.897 2.391-.488 3.311.386-.645.71-1.331.971-2.061zm13.359 17.313l.515.475c.693-1.394-.095-2.441-1.405-2.484.093.783.39 1.452.89 2.009zm-56.361 156.786a13.574 13.574 0 002.273-1.935c-2.469-1.503-.989 1.755-3.962-.246-.64.882.406 2.855 1.689 2.181zm103.762 136.72c.94-1.435 1.11-1.394-.17-2.484-1.07 1.774-.96 1.319.17 2.484zm-196.247-228.4l1.533 1.592c.239-.695 1.54-2.658.657-3.311l-2.19 1.719zm18.181 5.252c-.816-.136-2.768-.73-3.219.027 1.194.977 3.888.085 3.219-.027z" fill="#000"/><path d="M368.044 408.591c44.783-10.174 72.812-54.637 62.606-99.31-10.206-44.673-54.782-72.64-99.565-62.466-44.782 10.174-72.811 54.637-62.606 99.31 10.206 44.674 54.783 72.641 99.565 62.466z" fill="#F6EDEE"/></g></svg>