<svg width="310" height="232" viewBox="0 0 310 232" fill="none" xmlns="http://www.w3.org/2000/svg" preserveAspectRatio="none"><path fill-rule="evenodd" clip-rule="evenodd" d="M258.518 122.385c1.7-1.123 5.241 3.999 3.702 5.791-1.255 1.844-5.029-4.537-3.702-5.791zm-6.022-2.036c1.003.525 1.653.977.851 2.181-5.124 1.056-3.103-5.474-.851-2.181zm-5.001-10.617c2.121-.306 4.861 1.908 3.048 3.592-.918-.126-1.75-.439-2.859-.027-3.513.739-4.334-3.596-.189-3.565zm-2.045 9.108c1.384 1.989 1.249 5.017 1.035 7.708-2.596-.578-2.116-6.066-1.035-7.708zm-9.134-7.294c-1.818-.17-3.383-2.698-1.614-4.245 1.924-.988 5.517 1.148 5.515 3.364-.126 2.207-2.01 1.389-3.901.881zm-6.897-17.765c1.313.433 3.727 5.518 2.34 6.634-1.853.941-4.053-5.52-2.34-6.634zm-9.233 5.55c1.316-3.786 5.656 2.907 4.618 5.027-1.712 1.476-4.78-3.147-4.618-5.027zm1.333-12.754c2.074 2.75-1.394 4.458-3.616 5.336-5.135 1.234 1.691-7.08 3.616-5.336zm-10.523-1.51c-1.258-2.67 2.008-7.528 1.943-2.808-.668 1.058-.299 7.157-1.943 2.808zM206.15 78.8c-.104-2.452 2.24-3.597 1.971.083-.441 1.98-1.679 2.784-1.971-.084zm.466-10.507c.301.98.331 1.913-.795 2.264-9.214 4.252-1.068-6.136.795-2.264zm-4.201-8.237c1.76 1 2.926 5.177-.26 3.204-2.206-.592-4.044-.902-6.517-1.414-4.789-3.55 4.62-4.2 6.777-1.79zm-10.563 43.297c-2.09-4 2.759-3.138 4.983-2.271 3.459 2.667-3.161 3.407-4.983 2.271zm.089-35.827c-1.323-.248-2.603-1.142-4.321-.952-2.741-6.1 6.553-3.187 4.321.952zm-3.227 3.712c2.475-1.727 1.057 6.217.066 7.335-3.577 3.983-.9-6.012-.066-7.335zm21.647 47.951c-.76 4.196-3.433 7.596-2.369.789.146-2.499 3.209-5.038 2.369-.789zm-31.65-58.795c.981-3.475 2.575-6.179 3.9-9.693 1.494 1.4 1.939 3.882.764 5.892-.739 1.198-4.322 8.674-4.664 3.801zm.471 11.383c-.399 1.647 1.199 3.423.529 4.693-4.544.505-2.515-12.723-.529-4.693zm-9.991-26.441c2.001.002 7.848-.679 6.382 2.471-2.216.335-10.4 1.435-6.382-2.471zm.999 7.398c1.35.62 3.369 2.894 2.126 4.345-2.081.558-4.093-3.063-2.126-4.345zm.263 26.512c-.202 1.036.267 5.677-1.762 5.029-1.606-3.573-.067-11.537 3.351-4.888l-1.589-.14zm-1.177-10.266c.355.838-.993 2.802-1.803 1.51-.694-.95.894-3.999 1.803-1.51zm-7.35-13.874c1.966 2.853 5.345 4.312 7.939 7.049 2.587 4.927-4.756.98-6.111-.784-1.236-1.054-4.64-5.45-1.828-6.265zm-5.708 22.81c1.891-1.848 6.107-5.512 4.111-.136-.903 1.587-4.927 3.88-4.111.137zm3.65-8.064c-2.251-1.416-3.596.906-5.744 1.16-2.284-3.837 7.002-6.377 5.744-1.16zM148.345 57.84c1.661 1.002 5.609 3.975 4.103 5.865-2.021-.65-5.844-3.914-4.103-5.865zm-10.963 37.42c.155-1.358 2.275-1.86 1.568.371.633.829 2.024 1.862 1.665 3.459-1.341 2.455-4.414-1.875-3.233-3.83zm-.727-10.812c3.424 1.481.61 3.312-1.933 3.4-1.603-1.814-.432-3.909 1.933-3.4zm.385-35.06c-3.271-3.616 7.311-2.681 6.249.581-1.858-.678-4.075.084-6.249-.582zm117.459 58.659c-5.291-5.46-11.899-8.74-16.985-14.39-17.703-20.55-11.848-13.128-19.759-13.829-1.737-1.57.256-3.222 2.43-2.738-8.873-14.887-18.469-20.289-27.531-29.744-1.055-1.576-2.675 2.778-4.394 0-1.185-1.5 1.861-2.224.749-3.39-4.804-5.352-2.924-3.238-7.373-.08-1.31-1.668-.244-3.08 1.291-4.377-3.086.278-2.253-1.854-4.163-2.343-6.975 1.166-13.178 4.389-20.135 4.686-2.491.873-2.815 6.284-3.844 8.598-2.197 1.084-1.599-6.336-.661-7.5-.5-.003-2.286-1.65-4.47-1.311-24.31-.905-28.45-3.643-19.176 11.105.983 2.955 4.902.828 6.428 3.103.45 1.215-.655 1.315-1.851 1.204l.488.623c-3.004 2.7 2.747 5.327 4.021 7.984 1.432 1.973 1.887 6.074 4.843 4.08.458 1.611 2.673.13 4.156.419 1.615 1.288-.596 2.876-2.093 3.088 1.286 1.235-.599 2.09-.294 3.746 1.92 2.87 4.976 14.707-1.205 10.225-2.077-2.36.512-3.374 2.937-2.799.178-1.128-.306-2.732-.814-4.035-1.545 1.249-4.038 1.563-2.687-1.8-2.842.673-6.186 1.359-9.436 1.376 1.954 4.398-2.761 2.645-4.019.056-1.014-.254-3.276-.431-4.712-.5.995 3.699 3.576 8.423 4.712 12.57 1.316-1.262 3.926.784 2.717 1.982-1.297.602-2.203.961-2.717 1.076 1.343 3.65 1.372 25.547 2.717 19.751.321-2.573 3.434-5.222 1.936-6.742-3.315-2.714 1.129-4.458 2.242-1.372 2.596-3.046 6.625-5.088 8.329-9.124 1.664.954 2.507-.48 3.412-2.513.7 1.466 3.339 1.409 4.11-.338.628-1.41-.473-2.092 1.439-3.017 1.894-.91 1.049-3.06 2.316-5.018 1.075-.794 1.694 1.932 1.115 2.988.785.317 1.853-1.472 2.658-.574 4.634 1.416 9.98-.306 14.741-.926 1.853-.398 6.193 7.358 7.769 9.398 4.512-6.24 5.544-1.559 1.856 1.686 3.071 3.589 7.003 8.702 10.046 12.793-.405-2.446 3.398-6.227 3.735-3.516-2.613 3.806 1.622 9.453 3.394 12.422 1.089 1.662 2.009 3.622 2.711 5.518 3.08-1.02 7.201-2.884 10.258-4.963-1.743-1.153-.213-2.75 1.885-1.934-.962-.926.294-2.018-.148-3.59-1.088-2.47-3.254-3.384-5.585-4.108-3.986 4.626-10.092-2.666-.941-1.32-1.758-2.377-4.59-6.639-7.398-7.676-2.818.72-6.181-1.867-2.225-3.197-2.796-2.924-.649-3.745-2.046-5.623-1.084-1.495-3.476-2.788-4.157-4.899-.027-2.04-2.107-4.562.974-5.016-1.122.222-.385-8.594 1.273-5.228.962 1.22-1.029 5.957 1.345 4.472.598 3.3 1.678 2.887 3.702 3.74.753.891 1.525 2.026 2.483 3.157 1.947-3.317 7.037-2.77 4.978 1.337-.599-.614-1.173-.248-2.161.373 6.615 6.68 10.749 13.633 16.259 17.576 5.511 3.943 9.735 8.706 15.618 12.285 2.186 6.267 1.033 8.069 7.839 9.371 1.309 2.129 1.517 4.127 3.703 3.064.262.457.839.93 1.362 1.705.116-1.718 3.965-7.772 4.525-3.431-1.248 1.519-2.438 4.516-3.674 6.169.91 1.945 2.502 4.385 2.782 6.959 2.849-2.403 6.143-5.95 9.058-7.945-.171-1.131.012-2.199.585-3.457 1.421 5.029 1.563.577 4.205 1.349.749.583 1.839.016 2.819-.125.251-.938 1.15-2.271.005-3.507-4.255-11.089-12.676-16.467-18.302-24.039z" fill="#FFAEAD"/><path fill-rule="evenodd" clip-rule="evenodd" d="M221.85 140.774c.687-.606-.4-2.549-.401-3.987.278-5.113 4.225 6.073 7.725 5.269-1.413-1.523-2.021-5.321-4.091-4.136 2.018-1.354-.478-5.12 1.891-6.847-1.282-.567-3.834-4.381-4.935-2.302l-2.835-4.076c-1.187 1.397-5.117 1.11-5.157 3.369.212 1.146 1.82 2.424.246 3.322.749 2.765 1.27 6.421 3.397 8.937-.252-8.281 1.829-3.704 4.16.451zm43.963.589c1.837 1.7 7.915 7.286 6.297 8.329-2.236.697-1.393 2.785-1.661 5.06 2.997-3.875 2.722 2.91 3.573 4.877.928 2.847 2.88 4.538 4.979 6.908-4.562-14.6-.54-5.712 5.535-1.227-.444-2.204-2.057-4.355-3.806-6.155-2.844-6.713 6.111 4.985 8.294 4.251-.836-1.347-.748-3.769-2.324-4.813-3.713-2.038-5.929-5.896-7.865-9.955-3.416-2.143-3.319-7.464-6.029-11.248-2.082.335-4.76 2.652-6.993 3.973zm-148.492 22.166c.447-2.784 1.11-6.029 1.673-9.021-1.001-6.016-1.528-11.587-1.986-17.878-1.774-10.636.269-14.599-10.307-15.256-1.21-.07-.81 3.142-1.173 4.519-.912 1.125-.472 2.149-1.061 3.536-.679 1.134.999 2.738 1.429 4.265 5.032 9.554 4.435 20.31 9.002 30.155.1-1.167 1.316-1.291 2.423-.32zm74.171-116.465c-2.067-2.21-4.448-4.89-6.927-7.172-7.435-1.481-14.884 1.483-22.498 3.42-11.308 2.433-26.662 1.53-35.216-1.46-.128 6.156 5.053 10.995 8.473 16.056 8.336 10.85 18.664 23.335 15.247 36.867 21.437-16.458 35.279-3.542 50.745-12.97.793 1.017.262 1.932-.038 3.452 2.946 3.735 6.729 7.567 10.597 10.885 18.32 18.229 40.422 30.732 44.525 48.222 5.416-4.034 10.964-10.062 16.168-8.79-9.008-18.351-27.832-29.451-41.42-44.432-3.783-4.252-7.003-8.076-10.489-12.811-9.418-16.128-19.917-21.523-29.167-31.267zm45.824 1.218c-5.025-.709-5.956-.703-9.603-4.074-1.301 4.291-6.633-.835-3.866 7.221-2.635 2.517-3.34-2.15-2.389-4.28-7.896.054-1.459 7.795-.245 11.758-1.869 2.438-4.33-1.711-4.762-3.717-3.055.939-6.298 1.43-9.678 2.236 24.858 22.171 8.084 18.102 22.008 11.123.796-.617.068-2.088 1.453-2.955.549-.33 1.101-.09 1.399.794 1.535 8.18 7.771 1.676 2.433-1.93.026-1.336 2.466-.59 2.237-2.212-.035-6.202 4.779-10.97 8.916-15.3l-1.599-.324.814.775c-1.233.864-2.589.474-3.65 1.043-.298 2.343-1.152 3.394-2.772 3.236l.693-3.266a5.756 5.756 0 00-1.389-.128zM134.624 80.005c-2.407.284-4.835-.08-7.587-.033 6.808 14.991 4.961 23.248 6.124 34.911 2.3-8.885 9.877-11.493 12.885-19.176 2.12-4.748 2.504-9.504.91-14.72-.31-1.042-1.016-2.553-2.457-1.964-3.148 1.151-6.384.855-9.875.982zm-1.439-3.632c3.608.273 7.48.468 11.446-.208-2.157-3.823-4.28-7.393-7.227-11.04-17.477-21.978-6.723-18.965-17.035-18.766 5.958 8.914 7.76 19.393 7.308 30.014h5.508zm65.968 38.185c10.207 11.921 2.467 13.255 13.992 8.397 1.232-1.434 5.631-1.527 3.961-3.789-4.444-7.25-10.159-12.967-16.072-19.377-8.298-10.892-4.625-10.85-10.921-9.652-3.539.694-6.676-.102-10.465.678 6.079 7.936 13.184 15.567 19.505 23.743zm15.011-60.891l.817-.17c-2.568-8.712 5.214-8.61 10.614-9.626.484-1.188.758-2.267 2.57-2.31 4.74 2.8 3.498 3.643 9.762 4.278 1.573.249 2.579.704 4.459.686.623-.485 1.156-1.19 2.219-1.315 6.777-.61 12.935 4.28 14.989 10.71 1.589 3.88-.001 7.997-1.438 11.844 2.197 6.225 20.597 6.083 13.597 15.996 9.512 5.135 18.857 11.534 26.141 20.06 3.575 4.472 8.388 14.699-.591 15.199-1.239-.059-3.338.598-3.362 2.517.332 3.226 2.841 4.951 4.025 8.146 12.007 24.802-14.528 10.096-24.076 3.321.348 1.033.909 2.405 1.256 3.613-.319.578-.537.541.351 1.443 3.164 3.614 3.646 7.829 6.882 11.533 1.656 3.942 13.012 8.821 7.943 12.346 1.926 5.215-.6 4.962-4.226 2.223 2.571 6.109-1.637 4.024-4.84 1.234 4.829 16.915-9.707.393-10.089-5.933-4.475 4.046-4.822-2.149-4.137-5.563-.13-1.056 1.248-2.104-.027-2.777 1.526-1.865.342-5.072-1.395-7.073-1.801-4.393-6.797 3.479-10.23 2.658-3.032-3.827-5.763-9.186-8.89-13.868-2.057 7.422-8.222 10.409-12.66 2.489-2.487-6.5-1.758-13.37-6.632-18.93-5.965-8.45-13.631-14.873-21.083-22.162-8.291-8.425-3.452-9.321-10.477-5.407 7.605 10.503 19.775 18.14 24.828 30.648.205 1.573.176 2.808 1.509 4.095 1.345 2.826 3.683 3.857 6.075 5.686 2.085 1.858 3.083 5.36-.945 4.902 1.327 3.584 4.788 6.291 6.026 10.056 1.604 5.68-7.634-.91-8.895-2.493.429 4.238-1.326 4.265-3.618.629.539 7.063-5.062-1.206-5.753-3.619-1.458-3.252-.992-6.514-2.967-9.636-.889-1.574-5.049 1.049-6.614.947-1.927-.298-6.62-2.881-2.235-3.713-6.959-12.587-18.68-22.128-25.165-35.233-9.034-2.234-19.91 3.765-27.574 9.396-19.916 16.889-13.245 22.463-18.605 18.133-5.046-7.835-1.431-17.556-3.548-26.434-.594-3.012-1.751-7.36-3.494-9.65-.718.061-1.197.268-1.606-.685-.352-1.747-1.123-1.504-2.761-.764-2.972 1.12-5.15 2.042-8.464 2.273-15.67-.136-30.778-1.784-46.569-3.405 13.772 9.546 19.625 19.176 28.92 27.217 10.087 9.609 12.472 6.641 11.745 11.802 2.766 1.368 8.98-.724 10.62 3.809 4.514 12.105 3.446 25.351 5.566 38.2-2.753-.435-.183 8.325-4.582 5.596-2.469 7.626-8.263-9.491-8.437-11.418-1.559-7.571-2.501-15.093-5.333-22.511-.819.814-1.242 3.618-3.276 2.604-5.817-2.471-11.34-5.681-17.004-9.027-14.43-7.422-27.414-16.889-38.647-28.625-6.316-6.468-14.95-13.02-13.86-23.271 1.201-10.535 30.336-18.928 36.124-21.46 8.79-4.495 51.375-16.858 52.267-8.934 2.06.32 2.12-1.934 3.559-3.16.882-.879 1.718.019 2.365-1.47 9.044 1.105 18.408 1.27 27.804.908 9.979.032 18.248-6.081 28.441-4.226 8.973 4.168 14.757 14.845 23.851 19.866 2.76-1.034 5.48-2.202 8.78-2.195z" fill="#000"/><path fill-rule="evenodd" clip-rule="evenodd" d="M38.296 158.736c-1.312 8.501-3.114 8.901-8.904 13.978-5.702 6.518-12.814 12-17.515 19.627 10.581-9.778 25.808-8.539 30.424-15.292 2.2-3.467 2.204-7.326 2.529-11.559 1.709-9.057-.261-5.162-6.534-6.754zm-1.59-.41c-1.001-1.158-1.181.999-2.464.092-.879-4.223.55-8.889.654-13.486 1.593-15.412 4.442-30.233 11.48-44.278 23.61 21.112 21.242 11.317 14.298 27.629-3.078 4.472-4.452 9.261-6.293 14.59-1.996 5.587-4.744 10.279-4.099 16.651-.28 1.436-2.478-.585-2.387 1.205-.431 5.433-.183 10.702-1.913 16.108-1.653 4.055-4.844 6.872-9.386 7.771-9.435 3.266-18.338 5.761-25.941 13.183-10.301 1.438 5.902-18.549 8.69-20.024 9.717-11.027 16.004-12.705 17.36-19.441zM132.9 39.677l-2.421-.21 2.421.21zm-23.916 43.688l1.514.02-1.514-.02zm2.422-42.133c-.602.345-1.207.453-1.816.03l1.816-.03zm5.147.238a557.49 557.49 0 01-1.817-.17c.605.058 1.211.114 1.817.17zm120.185 3.941l-1.816-.196 1.816.196zm11.504-.301l-1.513-.198 1.513.198zm-34.209 8.353l-1.513.011 1.513-.011zM107.168 41.8l-1.514.015c.503-.366 1.008-.31 1.514-.015zm13.676 104.71l-.106-1.51.106 1.51zm-8.227-63.427l.908-.02-.908.02zm177.1 83.062l.908.001c-.305.001-.606 0-.908-.001zM94.15 44.007l-1.21.195 1.21-.195zm-6.357 38.169l.908-.019-.908.019zm89.108-46.656l-1.297.01 1.297-.01zm-43.698 40.499l1.514.212-1.514-.212zM238.252 48.04l-.908-.017c.305.007.607.012.908.017zm-2.725.597c-.76 1.512-2.88 1.143-1.141 3.36 1.758 1.467-.592 2.31-1.842 1.391-2.387-2.407.127-4.812 2.983-4.751z" fill="#000"/></svg>