<svg width="1920" height="462" viewBox="0 0 1920 462" fill="none" xmlns="http://www.w3.org/2000/svg" preserveAspectRatio="none"><path fill-rule="evenodd" clip-rule="evenodd" d="M1253.3 256.808c3.37 25.258 6.74 50.515 10.1 75.772l2.73 20.397c.34 2.573.01 7.65 1.32 9.954.46.813 1.68 1.199 2.57 1.678 3.08 1.65 6.15 3.3 9.23 4.95 26 13.955 52.01 27.911 78.01 41.867l74.88 40.179c2.58 1.387 6.76 5.003 9.54 4.05 2.65-.905 5.36-3.139 7.77-4.548 4.62-2.706 9.24-5.411 13.85-8.117l83.85-49.114 34.59-20.264c3.16-1.848 6.31-3.696 9.47-5.544 1.65-.967 1.86-.933 2.51-2.573 2.43-6.134 3.55-13.16 5.27-19.524 1.9-7.013 3.79-14.027 5.68-21.04.85-3.129.45-3.533-.93-6.554-2.72-5.979-5.45-11.958-8.17-17.937l-18.15-39.81c-2.44-5.367-8.33-9.143-12.57-13.09l-65.86-61.283a2300.58 2300.58 0 00-5.02-4.67c-.27 9.356-2.12 19.413.59 28.451 4.45 14.832 8.91 29.665 13.36 44.497l6.45 21.507c.4 1.332 2.83 6.613 2.18 7.785-.36.649-3.43 1.306-4.1 1.559l-8.58 3.264-23.91 9.091c-7.17 2.727-14.34 5.453-21.5 8.178-2.43.925-5.29 2.637-7.86 2.494-2.29-.128-4.9-1.264-7.13-1.836l-11.72-3.018c-7.67-1.976-15.35-3.951-23.02-5.928-8.64-2.223-15.93-8.752-23.31-13.585-12.7-8.307-25.39-16.614-38.08-24.92-2.91-1.902-2.92-2.987-4.08-6.459l-7.8-23.41c-1.39-4.166-3.1-8.35-4.15-12.616-1.73-7.039-2.76-14.326-4.13-21.444-.41-2.147-.83-4.295-1.24-6.443-5.31 2.156-10.63 4.313-15.95 6.469-.77.313-4.52 1.244-4.85 2.01-.22.484.9 2.68 1.06 3.152 4.41 13.048 8.82 26.096 13.22 39.143 1.39 4.104 2.78 8.208 4.16 12.313-3.31-5.204-6.62-10.408-9.94-15.612-2.6 8.752-5.2 17.504-7.81 26.256-6.15-7.096-12.3-14.192-18.46-21.289-2.12 7.097-4.25 14.193-6.38 21.289-6.63-8.752-13.26-17.504-19.88-26.256l-2.37 13.701c-.23 1.379-.19 5.334-1.11 6.426-.75.898-2.93.452-4.33.452z" fill="#FFAEAD"/><path fill-rule="evenodd" clip-rule="evenodd" d="M1672.84 311.406c-.38 11.89-.12 27.323-6.63 37.777-1.05 1.687-4.61 6.942-5 2.319-.39-4.539.72-9.034-.38-13.625-.6-2.457-2.59-7.823-5.99-5.604-1.74 1.131-2.19 3.924-2.87 5.686-1.01 2.608-2.13 5.175-3.19 7.763-3.69 9.035-7.51 19.816-15.72 25.795 1.07-7.791 4-16.109 2.03-23.984-.67-2.684-2.7-7.584-6.2-6.012-3.41 1.532-5.62 8.369-7.22 11.413-4.88 9.23-9.87 18.287-15.36 27.172-2.77 4.469-5.75 8.554-9.36 12.377-2.26 2.391-5.08 6.433-8.64 6.789 0-6.815 2.24-13.399 4.29-19.816 2.2-6.9 4.21-13.86 6.37-20.773a179.758 179.758 0 004.67-18.098c.51-2.543.92-5.177 3.09-6.82 1.95-1.476 5.03-2.178 7.21-3.263 5.7-2.851 11.57-5.926 16.88-9.47 2.17-1.454 4.05-3.333 6.33-4.638 2.6-1.487 5.02-2.738 7.43-4.55 10.36-7.818 19.71-17.435 26.01-28.883 1.02 4.599 2.38 9.094 2.53 13.835.15 4.861-.13 9.752-.28 14.61zm-85.35 54.649c-1.66-2.8-4.18-1.653-6.41-.303-3.45 2.094-6.92 4.173-10.39 6.241-7.07 4.208-14 8.636-20.9 13.104-14.06 9.093-28.6 16.534-43.42 24.231-14.32 7.438-28.07 16.289-41.49 25.236-3.22 2.15-6.43 4.351-9.52 6.683-2.75 2.07-4.95 4.977-7.84 6.819-3.01 1.919-5.09.362-7.97-1.053-3.6-1.769-7.36-3.253-11.04-4.849-14.87-6.442-29.77-13.129-44.24-20.441-14.37-7.266-27.99-15.64-41.76-23.956-6.56-3.961-13.01-8.172-19.48-12.278-6.88-4.37-14.01-7.642-21.23-11.357-3.2-1.645-6.03-3.876-9.31-5.371-3.45-1.57-7.1-2.697-10.19-4.963-1.38-1.016-2.55-2.23-4.13-2.949-1.3-.59-2.78-.689-4.06-1.316-2.61-1.274-3.36-3.861-3.87-6.551-3.25-17.271-4.98-35.019-6.86-52.482-1.06-9.82-2.24-19.602-3.71-29.37-.66-4.404.67-7.816 1.37-12.1.81-5.003 1.13-10.112 1.68-15.15 2.57 4.765 4.79 9.765 8.07 14.113 2.41 3.204 6.53 7.748 10.98 7.64 6.9-.166 6.59-12.007 6.87-16.707 3.14 2.807 4.1 7.379 6.71 10.639 2.38 2.977 5.63 6.669 9.29 8.002 7.71 2.807 6.96-11.496 6.54-15.552-.21-2.035-1.36-5.254 1.36-4.326 2.52.854 4.96 4.396 7.07 6.02 3.65 2.809 7.65 5.143 11.39 7.824 4.65 3.327 9.66 5.731 14.39 8.829 2.96 1.938 6.19 2.373 9.42 3.798 4.73 2.089 8.91 5.201 13.41 7.705 8.92 4.955 18.81 9.399 28.56 12.387 3.15.966 7.36 3.691 9.75.891 1.47-1.723 2.44-4.355 3.69-6.287 1.59-2.445 3.27-4.826 5.01-7.159 6.21-8.289 13.09-16.116 20.74-23.107 8.89-8.134 18.62-15.453 29.02-21.549 4.47-2.619 23.14-14.358 27.24-6.096-3.37-.21-6.3 1.023-9.18 2.566-.7.377-4.33 2.967-3.48.684-1.06.197-1.98 1.571-2.78 2.182-1.38 1.056-3.47 2.275-5.07 3.15-1.58.863-3.53 1.075-4.97 2.122-.52.383-.84 1.003-1.34 1.417l-1.44.011c-.21.795-.43 1.59-.64 2.386-.82-2.603-1.97.782-3.33 1.881-.82.661-2.11 1.341-3.07 1.768-.72.318-.83-.423-1.52.141-.62.5-1.02 1.602-1.68 2.23-.82.767-1.87 1.364-2.78 2.02-1.74 1.256-3.59 2.242-5.36 3.433-2.38 1.602-3.62 4.358-5.93 6.033-1.1.794-2.79.887-3.39 1.395-1.48 1.276-.99 3.209-3.76 3.294.25.403.4.84.45 1.312a3.664 3.664 0 01-1.76-.82c.12 2.76-2.6 3.746-4.22 5.446-.94.979-2.11 2.356-2.77 3.535-.11.197-.32 1.77-.37 1.792-.25.12-1.78-1.223-1.64-1.111-.42 2.551-2.89 4.962-3.97 7.323-.57 1.244-1.15 3.244-2.27 4.119-.31.237-1.25-.011-2.02.816-.57.606-1.23 1.726-1.46 2.53-.16.537.03 1.927-.19 2.249-.41.589-1.04-.003-1.68.433-1.17.805-1.2 2.062-2.92 2.228 1.18 2.879 8.34 3.767 10.95 4.586 7.35 2.315 15.07 4.627 21.95 8.172 1.78.917 3.47 1.673 3.78 3.785.44 2.94-1.06 6.848-1.34 9.817-.78 8.019-.94 16.273-.78 24.325.16 7.627.41 15.326.76 22.944.33 7.063 1.76 13.986 2.52 21 .21 1.925.07 10.605 3.39 10.168 2.76-.365 1.01-6.294.96-7.993-.11-3.762.68-7.603.65-11.398-.02-1.824.78-3.396.85-5.142.08-1.725-.78-3.088-.52-4.876.25-1.716 5.32-11.586.45-10.43.28-1.411.53-2.833.91-4.224.52.469.94 1.016 1.26 1.64.43-3.031.29-6.057.56-9.09.12-1.375.67-2.88.48-4.265a4.415 4.415 0 00-.21-1.69c-.3-.317-.68-.484-1.12-.5-.23-.759-.29-.967.12-1.712.18-.504.53-.819 1.06-.944 1-.119 1.11-.693.34-1.722.4-2.033.45-3.316.16-5.344-.24-1.704.66-5.003-.26-6.52-1.07-1.773-1.6-.053-1.8-2.511-.04-.521-.07-1.605.14-2.124.22-.565.91-.333 1-.534.6-1.366.64-4.056-1.48-3.822.09-.976.17-1.952.25-2.927 1.53 1.76 1 .27 1.86-.709 1.17-1.318 2.32-1.545 3.99-2.067 4.45-1.388 8.74-3.476 13.09-5.171 9.21-3.589 18.59-6.793 27.54-11.033 18.81-8.921 37.24-18.603 56.17-27.288-1.36-2.508-.52-2.63.47-4.984 1.32.915 1.04.276 1.98.22-.08-.785.16-1.022.74-.711.45.14.92.19 1.4.149 1.17.2 2.13.845 3.19 1.09.35.257.74.45 1.16.58.37-.086.69-.272.96-.558 1.72.319 2.3 1.617 2.38 3.496.01.327-.99.662-.7 1.101.5.768 1.85.585 2.62.683l-.51 2.391c3.38-1.56 2.5 3.324 3.53 4.929.28.448.92.09 1.25.609.43.677.3 1.635.67 2.31.83 1.525 1.67 1.339 2.5 3.086 4.33 9.118 10.1 17.613 14.27 26.927 1.98 4.433 3.77 8.942 5.84 13.336 1.9 4.044 2.99 7.482 1.63 11.899-3.15 10.245-6.51 20.676-10.64 30.572-.2-.327-.41-.654-.62-.981zm-219.58 76.471c-.3.503-.59 1.005-.89 1.508-.65-3.771 1.09-2.022.89-1.508zm-13.89-7.062c-.94-.283-.54-1.828-.5-2.489.59.746 1.18 1.506 1.68 2.325l-1.18.164zm-38.05-14.499c.99-.557 1.7-.958 2.83-1.589-1.14 2.231-1.14 2.231-2.83 1.589zM1256.1 224.44c-1.52 3.726 3.11 26.73-1.2 27.48-.62-2.019-.7-7.578-3.26-8.241-3.17-.824-2.86 4.899-3.29 6.669-6.52-4.534-9.42-13.29-12.53-20.228-3.98-8.845-7.1-18.043-10.08-27.259-2.55-7.879-4.66-15.897-7.24-23.763-1.62-4.941-3.37-9.893-4.45-14.986-.24-1.106-1.17-3.911-.38-4.963 1.15-1.529 5.29.222 6.62.624 8.65 2.601 17.62 3.721 26.51 5.233 9.87 1.678 19.72 3.413 29.66 4.715 2.48.325 4.96.633 7.45.932 1.61.194 4.05 0 5.58.722 3.1 1.462 3.76 7.053 4.91 9.954 4.29 10.824 9.34 21.305 13.86 32.031 4.08 9.661 7.16 19.94 13.02 28.738-4.37-1.935-9.9-12.162-14.78-6.267-2.1 2.535-1.57 5.874-1.4 8.908.24 4.385.32 8.804.32 13.196-4.78-1.239-7.98-6.656-10.49-10.493-3.42-5.241-5.58-10.179-7.1-16.187-.65-2.601-2.39-2.666-3.94-4.223-.99-1.001-1.49-2.349-2.92-.893-1.79 1.829-.6 6.895-.29 9.055.74 5.14 3.15 13.05.8 17.88-3.16 6.518-11.63-9.882-12.63-12.251-.5-1.206-9.52-24.329-12.75-16.383zm-5.92-111.703l1.6.245c-.43.379-1.33 1.711-2.06 1.359.15-.535.3-1.069.46-1.604zm28.27-6.065c-.16.183-.33.366-.5.55-.76-.956-.49-2.351-.49-3.457 1.01.611 1.26 1.833.99 2.907zm2.29 10.613v3.126c-2.12-.918-2.16-1.392 0-3.126zm2.57 3.975c-1.48-.407-1.66-.736-1.45-3.017.62 1.278 1.02 2.12 1.45 3.017zm8.55 23.156c-.62 1.601-4.26-2.214-4.12-3.356.12-1.09.68-1.415 1.45-.714.26.232-.12 1.07.04 1.361.59 1.053 1.77 1.915 2.63 2.709zm.04 9.645c-.91 2.275-2.53-1.308-.15-1.406.15.458.21.926.15 1.406zm-1.77-3.587a42.25 42.25 0 01-1.02-1.433c1.22.248 2.2 2.035 3.49.842-.15 1.818-1.44 1.869-2.47.591zm-79.33-29.552c-1.97-2.153 10.89-3.663 12.44-4.033 11.27-2.685 21.9-6.569 32.43-11.336 5.03-2.274 10.02-4.575 14.93-7.096 2.12-1.087 5.02-2.01 6.79-3.643 1.26-1.166 1.21-2.048 2.86-2.743 1.39-.588 1.46-.033 2.1-1.097.38-.639.81-2.98.59-3.672-.61-1.89-1.52-.358-2.78-1.66-.92-.939-.7-3.608-.45-4.714.33.527.51 1.099.56 1.715 1.38-.679.82-3.009 2.33-3.39 1.59-.402 1.42.834 1.84 2.097 1.2-1.76.23-3.261-.42-4.98 3.3-.617 6.85-1.216 10.12-.118 2.36.792 4.39 2.742 6.88 3.118 2.45.369 2.92-.79 4.72-1.966 1.47-.954 2.72.17 3.48-.551-.47 2.434-4.46 2.1-3.97 5.142.22 1.37 1.9 2.6 2.66 3.664.96 1.337 1.73 2.815 2.38 4.322 2.54 5.86 3.63 12.661 4.69 18.927 2.64 15.469 2.97 31.243 5.44 46.761 1.18 7.392 2.37 14.787 2.98 22.251.15 1.867 1.29 6.1.36 7.895-.79 1.516-2.55 1.52-4.09 1.887-3.01.716-5.84 1.689-8.73 2.767-2.59.966-3.35 1.558-5.01-.879-1.61-2.359-2.41-5.171-3.56-7.757-1.47-3.295-3.24-6.474-4.94-9.652 3.34 0 5.27-1.803 5.18-5.198-.1-3.759-3.19-4.651-4.47-7.741-1.24 1.61-1.34 1.656-2.23.127-1.01-1.748-1.69-4.946-2.31-6.929.44.472.89.944 1.33 1.415 1.11-1.534-.63-3.952-1.22-5.397-.9-2.231-1.06-4.643-1.91-6.868-.47-1.214-1.55-2.17-1.81-3.437-.18-.848.53-1.655.36-2.516-.29-1.498-1.99-3.106-2.52-4.631-.81-2.344-1.69-4.409-2.7-6.693-1.36-3.092-1.04-6.336-1.29-9.627-.26-3.412-1.35-6.676-1.74-10.073-.27-2.347.57-5.302-1.21-7.182-.21 3.125.69 3.077-2.25 3.639-3.34.639-5.77 3.129-8.93 3.872-.65.153-1.12-2.692-.87 1.189-1.52-1.119-4.75.271-3.55.935-.91.979-2.71.302-3.01 1.768-3.11-3.023-8.1 7.265-11.81 1.899-.61 3.637-3.24 5.787-6.78 6.268-1.78.241-2.87.834-4.45 1.367-.32.107-.44.567-.82.692-.58.188-1.43-.381-1.85-.271-.85.226-1.79 1.344-2.98 1.566-1.36.254-2.84.137-4.2-.02-1.71-.197-2.45-.399-4.12.162-1.5.504-3.11 1.917-4.5.379-2.18 3.78-7.4 2.856-9.97.046zm101.06-45.618c-1.66-.198-.51-1.62.26-2.047 2.08-1.16 1.53 2.261-.26 2.047zm-91.6 13.566c9.71-14.002 26.32-23.621 40.93-31.715 7.98-4.421 16.13-8.707 24.51-12.325 4.16-1.799 8.38-3.527 12.63-5.107 2.28-.844 4.58-1.61 6.88-2.374.63-.211 1.79-.858 2.46-.795-.12-.012 1.65.47 1.3.62 1.14-.495 1.69-1.789 3.03-2.306 1.5-.582 3.42-.823 5.04-.875 1.42-.047 2.66.543 4.02.589.89.03 1.65-.395 2.53-.457.45-.031.41.639.68.678.11.017 1.31-.431 1.32-.423.43.278.82 1.367 1.21 1.792 1.13 1.22 2.78 2.069 4.28 2.71 1.83.78 6.29 1.566 4.22 4.454 1.47-.21 2.15 1.115.31 1.45-.99.183-1.42-.728-2.16-1.35-1.71-1.434-5.85-3.474-8.31-3.382-1.38.052-2.45 1.101-3.73 1.482-1.25.375-1.88-.206-2.98-.114-1.29.107-2.11 1.196-3.34 1.39-1.15.182-1.79-.602-2.82-.547-1.22.065-2.4 1.125-3.57 1.481-1.85.566-3.22.952-5.03 1.891-3.5 1.82-7.42 2.512-11.04 4.078-2.89 1.253-6.17 1.912-8.84 3.297-2.98 1.54-5.97 3.073-8.88 4.746-2.1 1.208-6.38 1.624-8.7 1.317-.03 4.27-2.14 1.276-4.26 3.147.5.442 1.07.767 1.71.975-2.3.917-4.42 2.058-6.64 3.112-2.3 1.09-4.76 1.33-6.27 3.391-1.39 1.9-.92.92-3 1.668-.95.343-1.78 1.39-2.46 2.094-1.18 1.21-1.44 3.04-2.12.555-.2.303-.97 2.233-1.12 2.281-.84-.895-.96.166-1.44.546.25.825-.1 1.366-1.06 1.622-.49.36-.98.714-1.47 1.06-1.8 1.248-4.1 2.319-5.36 4.179-.94-.552-1.29-1.503-.72-2.475-1.78 1.647-3.92 3.338-4.4 5.872a1.975 1.975 0 00-.77-.464c-.73.49.21 1.948.67 2.277 2.01-.78-.5-.497.85-.371.39.035.78.323 1.2.328 1.25.016 2.42-.043 3.65-.233 2.72-.419 5.39-1.199 8.02-1.98 2.86-.852 5.73-1.702 8.53-2.747 2.31-.86 4.58-1.819 6.85-2.774.9-.382 1.81-.768 2.71-1.147 1.73-.72 2.64-1.902 2.4.123 1.37-.228 2.56-2.166 3.61-2.958 1.48-1.112 3.15-1.941 4.91-2.509.71-.23 1.23-.522 1.97-.524.36-.001.57 1.015.8.96 1.58-.382.86-1.255 1.57-2.512 1.55-2.749 5.72-4.269 8.28-5.83 1.63-.991 2.79-2.325 4.29-3.422.7-.514 1.21-.74 1.95-.958.56-.167 1.25 1.128 1.62-.173-1.31-.536-2.39-1.196-3.65-1.587-.9-.278.17-1.227-1.24-.662-.57.227-.76 1.326-.97 1.786-1.58-1.41-6.02.05-7.9.641-.13.04-.71-.264-.98-.246-1.08.072-1.83 1.528-2.55 2.155-1.89 1.667-3.94 2.364-6.28 3.316.63-3.389 5.19-4.777 7.85-6.075 3.89-1.898 7.51-4.32 11.77-5.34 2.84-.68 6.6-1.228 7.82 2.07.73 1.976.83 6.886-1.65 7.797-.27-.922.57-1.71.83-2.51-2.47.942-2.88 3.907-4.76 5.455-1.05.87-1.43 1.148-1.94 1.988-.5.835-.75 1.613-1.93 2.5-1.94-4.116-1.61 1.523-2.6 2.23.4-.284-1.6.547-1.36.459-.09.034-.96-1.375-1.53-1.346-1.03.055-.83 1.185-1.32 1.754-1.68 1.926-3.85 3.19-6.55 2.886-.06 1.37.36 3.008-1.51 3.132l-.25-3.037c-1.01 1.03-2.36 2.008-3.19 3.201-.94 1.358-.84 2.194-2.4 3.099-1.64.946-5.12 2.81-7.07 2.97.49-.683.4-1.3-.25-1.848-.98 1.009-2.42 1.108-3.47 2.02 3.62 1.51-2.78 1.432-3.59 1.603-.54.115-1.02.61-1.57.721-.73.148-.82-.62-1.45-.376-.92.356-.55 1.362-1.51 1.867-.69.363-1.86.358-2.64.703-1.86.823-5.82 2.646-7.08.435-.64 3.794-7.14 1.485-9.55 1.23-3.3-.35-9.04-1.898-5.98-6.31zm13.85-38.816c.46-.398.93-.369 1.4.088-.65-3.433 4.38-5.1 6.57-6.56 2.91-1.936 6.34-5.692 10.15-5.395l-1.95 1.444 2.78.36c-.52.766-1.04 1.532-1.57 2.297-.85-4.709-5.31 1.237-6.6 2.103-1.3.872-2.6 1.522-3.75 2.586-1.15 1.054-2.18 2.951-4.07 2.003-.18 2.69-2.34 1.96-3.84 3.45-.06-.935.48-1.595.88-2.376zm19.76-13.426c4.6-1.723 8.61-4.91 12.95-7.187 4.14-2.175 8.37-4.128 12.59-6.157 2.13-1.03 6.05-3.692 8.49-2.335 3.3 1.832-1.24 2.423-2.42 3.058-.44-2.822-1.96-.266-1.05 1.304-2.52-1.086-8 3.162-10.4 4.334-.55.265-.3.419-.92.73-.15.077-1.73.436-2.18.587-2.26.756-3.74.155-4.72 2.881-.2-.641-.41-1.284-.61-1.926-1.41 3.174-5.71 4.564-8.46 6.44-.71.485-2.73 2.362-3.63 1.974-1.25-.541-.75-3.288.36-3.703zm83.06 9.57c1.94.129.07 1.035.6 1.634-.06-.067 1.17.982 1.01.694.22.388.74.373 1 1.161.92 2.709-3.09 5.508-4.44 7.045-2.64 2.99-4.16 6.775-6.9 9.67-1.24 1.306-2.47 2.209-4.19 2.697-1.2.34-2.47-.025-3.58 1.13-.89.931-.69 1.46-1.67 1.954-1.73.872-2.5.107-4.18 1.992-1.45-3.941 2.72-3.935 4.89-6.137 3-3.041 6.29-6.109 9.11-9.362 2.5-2.89 3.5-5.424 4.69-8.936.37-1.107.78-3.48 1.81-4.175 1.61-1.082.64.553 1.85.634zm9.55 102.387c5.1-5.7 11.43-10.818 18.28-14.251 2.45-1.228 5.94-2.839 8.48-.949 2.49 1.852 1.95 5.547.95 8.061-.96-.378-.05-3.91-.55-4.783-1.09-1.905-3.44-.894-5.04-.255-1.87.748-3.54 1.574-5.03 2.932-.6.55-1.75 1.043-2.14 1.421-.58-.241-.92-.065-1.02.525.12.362.1.718-.04 1.069-.09.111-.84-.346-.95-.254-.49.418-.94.91-1.42 1.298-.97.78-1.79 1.149-2.68 2.236-1.71 2.101-3.98 3.332-5.71 5.334-.39.453-.85 1.613-.94 1.715-.87 1.016-2.16 1.82-3.14 2.896-1.7 1.858-3.52 3.106-5.48 4.7-.84.685-1.83 1.424-2.39 2.378-.25.435-.4 2.819-.41 2.829-1.92 2.106-1.54-2.128-1.4-2.658 1.56-5.712 6.84-10.001 10.63-14.244zm-10.49 38.623c.24.897.44 1.639.68 2.549-1.53-1.25-1.53-1.25-.68-2.549zm-1.65 2.938c-.56.564-1.12 1.125-1.69 1.682-1.24-1.318 1.92-1.908 1.69-1.682zm-.79-22.681c-.59 2.411-2.78 5.334-4.28 7.237.17-.21-1.28.212-1.44.308-.54.31.74 2.315-1.11 1.419-.66.372.64 1.886-.26 2.564-2.58-5.88 4.47-10.973 7.2-15.338 1.33 1.225.23 2.458-.11 3.81zm-16.76 31.787c1.88.484 2.86.18 4.13-1.668.76-1.11 1.04-3.076 2.79-1.415l.31-2.136c2.49 1.023 2.28 4.719 3.37 6.767.53-2.317 1.79-8.79 5.63-7.752 4.32 1.166-2.87 8.588-3.53 10.406-1.47-2.277-.89-.159-2.01.162-.96.276-2.46-.431-3.63-.367-3.55.193-6.67 1.789-9.92 3.141l-2.46-6.64c1.91.147 5.86-4.934 6.42-1.241-1.42-.246-1.82-.184-2.51 1.105.44-.224.91-.344 1.41-.362zm7.97 28.89c-.01-.018 3.67.209 4 .089 2.52-.919 1.58-3.773 2.1-5.79 1.04.953.49 2.694.81 3.928.37 1.451 1.46 2.687 1.56 4.238.23 3.505-2.65 2.727-4.83 3.861-1.86.97-2.07 2.189-3.64-.423-.43-.707-1.34-2.549-1.25-3.453.09-.895 1.51-1.64 1.25-2.45zm2.96 15.166l-1.02-1.139c3.04.928 1.25-.467 1.95-2.373 2.32 1.548 4.22 3.14 6.06.039l3.18 12.823c-2.14.503-4.89-2.796-6.36-3.93-.84-.655-5.54-3.177-2.72-3.912-.36-.503-.73-1.005-1.09-1.508zm20.76-40.266c-1.76 1.678-3.54 2.618-5.46 3.937-1.69 1.158-1.11 2.487-2.57 3.779-.97.859-3.25 1.733-4.45 2.388-2.13 1.167-4.04 1.389-6.24.083.6 4.812-2.7 5.189-6.81 6.142-1.95.455-3.11 1.149-4.52-.642-.97-1.227-1.35-3.447-.15-4.569 1.91-1.783 7-1.167 9.45-2.289 1.86-.85 3.75-5.64 6.04-3.897-1.18-1.884.2-2.391 1.23-3.735 1.12-1.472 1.82-3.194 2.98-4.654 2.22-2.776 5.62-5.569 8.76-7.243 2.77-1.472 4.23-.43 4.64 2.663.21 1.555.2 3.871-.67 5.25-.28.44-1.19.445-1.47.858-.49.722-.04 1.249-.76 1.929zm32.49-37.322c2.21 1.709 1.99 5.3 2.34 7.745.49 3.447.13 6.782.08 10.293-.06 3.678-1.86 6.074-2.71 9.521-.94 3.835-2.16 5.866-4.28 9.084 2.3.361-1.12 7.219-1.69 8.107-.61.964-5.54 5.404-3.43 5.404-1.17 1.539-2.44 3.118-3.6 4.614-.46.589-1.26.82-1.62 1.236-.74.845-.78 1.599-1.31 2.585-.8 1.497-1.06 1.097-2.11 2.183-.72.75-1.2 1.74-1.91 2.459-2.3 2.315-2.59.419-3.87-1.365-.2.478-.55.777-1.05.899-.4-2.019 2.37-4.057 3.53-5.284 1.9-2.009 3.64-4.223 5.33-6.421 3.6-4.709 6.85-9.712 9.4-15.071 2.72-5.704 4.9-11.876 6.03-18.098.86-4.743 1.67-12.878-4.67-14.084-4.61-.877-9.69 1.923-13.49 4.19-2.32 1.381-4.65 2.754-6.85 4.308-2.4 1.684-4.47 4.069-7.07 5.421 1.42-.74-3.27 1.486-2.55.86-.34.292-.05 1.185-.27 1.589-.29.524-1.3 1.042-1.75 1.381-1.19.896-3.1 1.812-3.64 3.291-7.56-5.395 7.48-14.972 11.34-17.411 7.65-4.838 20.96-14.29 29.82-7.436zm20.4-52.465c-.07-3.885 3.1-9.188 5.23-12.356 1.05-1.55 2.72-1.489 3.33-3.317.36-1.053-.11-2.157 0-3.215.14-1.43.76-2.577 1.48-3.806 6.47-11.11 14.33-20.945 22.7-30.638 4.13-4.779 8.04-9.741 12.49-14.23 1.86-1.875 6.86-8.615 9.72-7.941 1.52.357 2.4 2.667 3.08 3.845 1.13 1.95 2.38 3.776 3.75 5.568 3.62 4.733 7.81 8.887 12.75 12.241 3.08 2.096 6.2 4.134 9.21 6.33 2.48 1.808 6.24 3.874 8.01 6.412 1.77 2.538-.83 4.688-2.25 6.795-2.22 3.278-4.25 6.674-6.47 9.949-.88-.635-.66-1.923-1.26-2.736-.54-.72-1.3-1.013-2.04-1.458-1.42-.851-2.81-1.891-4.1-.466-2.24 2.495.85 8.393 4.17 7.746.4 2.462-6.25 6.518-7.91 7.873-5.12 4.157-10.39 7.771-17.14 8.148-2.73.151-5.58-.056-8.17-.97-1.25-.438-2.62-1.039-3.58-1.993-1.14-1.143-1.43-2.843-2.54-3.974-.96-.982-2.28-1.133-3.24-2.118-.96-.985-1.43-2.542-1.82-3.819-.77-2.494-.91-5.125-1.64-7.625-.44-1.504-.8-3.514-2.24-2.07-2.09 2.1-1.04 8.7-.51 11.215.77 3.588 2.56 6.48 4.44 9.567 2.03 3.349 2.79 6.455 3.15 10.33.68 7.253 2.77 14.213 6.01 20.739 1.36 2.748 2.99 5.331 4.47 8.016.68 1.252 2.23 5.526 4.1 5.503 2.99-.037-1.27-8.749-1.86-10.211-3.28-8.101-6.4-16.615-7.11-25.386 4.7 1.208 9.81 2.355 14.67 1.589-3.13 7.013.14 13.995-.26 21.213-.2 3.62-.34 6.96-.27 10.569.07 3.165-1.36 6.329-2.6 9.191-2.45 5.683-5.54 12.694-10.1 17.048-3.81 3.64-8.91 3.924-13.89 3.086-11.33-1.907-18.78-10.613-23.53-20.499-3.06-6.351-5.39-13.131-6.84-20.029-1.68-7.983-1.24-16.019-1.39-24.116zm14.72-53.798c-10.58-7.647 4.79-16.33 12.61-15.148 1.83.277 5.21 1.035 5.04 3.428-.14 1.956-3.41 4.136-4.66 5.343-3.57 3.444-7.21 10.557-12.99 6.377zM1493 229.355c-.36-.325-3.32.473-2.15-1.277.97-1.454 3.67.368 4.66.742-.81.559-1.52 1.424-2.51.535zm-44.02 92.479c-.91.113-1.86-2.337 1.41-.507l-1.41.507zm-.1 39.925c.11 1.098.45 1.822-.33 2.62-.66-.812-.74-1.958.33-2.62zm1.33 16.496c-.09.598-.19 1.195-.29 1.792-.75-.382-1.51-.765-2.27-1.148.86-.214 1.71-.429 2.56-.644zm.93-13.91c1.13.422.6-.926 1.42-1.115.29 1.402-.07 2.604-.87 3.761-.08-.274-.49-2.625-.55-2.646zm28.81-99.544c-1.58-.202-1.82 1.469-3 2.117-.76.419-3.08.104-3.51.905l1.71.495c-1.3.704-2.61 1.409-3.92 2.113 3.15 0 6.42-1.501 9.54-1.061 1.32.187 2.29.633 3.12 1.706.5.651.94 1.699 1.02 2.497.09.863-.58 1.459-.46 1.87 1.4.039 1.24 2.346.92 3.286-.68 2.039-3.4 5.231-5.84 3.938 1.02 1.447.76 2.273-.75 3.113.14-.478.24-1.315-.53-1.232-.2.802-.13 2.074-.78 2.678-.73.676-1.39-.114-2.09.326-.83.522-.58 1.342-1.24 1.908-.86.748-.98.217-2.02.362-1.56.221-.56-.751-1.82.517-.43.437-.36 1.574-1.06 2.214-1.35 1.229-4.96 2.509-6.25.934-3.11 4.927-12.43 6.109-16.77 2.219-6.92-6.203 5.98-18.818 10.24-22.816 4.28-4.012 9.03-7.478 13.83-10.823 2.74-1.901 5.54-3.626 8.4-5.319 1.76-1.045 3.98-2.953 6.15-2.77 1.94.164 3.61 1.673 5.65 1.972 1.49.215 4.36.572 2.49 2.58-.87.938-4.3 2.455-5.47 2.684-.69.134-1.41-.123-2.09.016-1.15.236-1.94 1.208-3.2 1.084.4 1.859-.32 2.734-2.27 2.487zm20.48-68.998c0 1.454-2.65 1.092-3.21.598-.91-.813-.94-3.243-1.28-4.348 1.54.389 4.49 1.809 4.49 3.75zm-21.39-47.97c5.58-4.582 11.44-8.783 17.64-12.483 2.22-1.325 5.36-3.997 8.12-3.664 1.15.141 3.54 1.468 2.67 2.932-.16.274-1.45.384-1.84.583-.46.225-.81.845-1.23 1.152-2.89 2.124-6.37 3.429-9.28 5.604-2.39 1.786-4.62 3.784-7.19 5.317-2.46 1.47-5.04 2.4-7.38 4.028.04-.033-3.05 1.079-2.44 1.281-2.72-.908.15-4.108.93-4.75zm37.19-1.706c3.31-1.32 6.55-2.922 10.02-3.809 1.73-.443 3.51-.776 5.3-.576.31-.533.71-.651 1.22-.354.4.608.92 1.074 1.56 1.4.99.759 4.63 1.752 3.9 3.429-.48 1.109-4.13 1.201-5.13 1.45-3.01.752-5.83 2.442-8.94 2.857-.29.039-1.24-.314-1.25-.312-1.22.265-2.23 1.523-3.27 2.126-2.24 1.298-5.46 1.516-7.08 3.756 5.22 3.535 9.75.029 14.33-2.64 2.75-1.598 5.7-2.751 8.7-3.776 1.57-.535 3.15-1.091 4.75-1.561a10.4 10.4 0 012.02-.518c.65-.128 1.11.106 1.39.705 1.92-.063 2.09-1.269 3.25.98 1.63 3.17-.87 3.009-3.21 3.399-3.26.539-6.57 1.754-9.77 2.56-.74.185-7.22 1.688-7.23 1.741-.29 2.045 18.31.151 19.91-.155 2.82-.543 5.84-2.082 8.76-1.711 2.24.285 7.34 3.571 3.77 5.753-.71-3.366-3.12-.586-4.38.55-1.68 1.513-4.09 1.367-6.39 1.96-3.15.809-11.22 3.844-13.46-.026.71 3.392-12.15 1.668-13.91 1.556-1.73-.11-3.95.256-5.62-.235-1.08-.32-1.69-1.026-2.71-1.185-.25.27-.55.454-.9.551a5.527 5.527 0 01-1.4-.999c-3.45-1.582-8.77-2.456-6.86-7.495 1.8-4.753 8.25-7.677 12.63-9.421zm32.27 2.937c.09-.296.17-.592.26-.889.01.908 2.18 1.295 1.93 2.471-.56 2.604-3.06-1.308-3.27-1.735l1.08.153zm13.22 4.326c.25 1.066 3.13 3.337 2.42 3.861-1.13-1.543-4.27-.843-2.42-3.861zm-48.57 97.319c1.05-2.09 4.24 1.469 3.91-2.099 1.73.157.65 1.475 2.72.896.78-.218 1.31-1.08 2.26-1.279.25-.053 1.34.034 1.72.022 1.25-.038 6.14-.177 2.77-1.814 1.89-1.246 2.12-.614 3.82.528-.43-2.36 2.07-1.021 3.24-.726-.84-1.346 1.23-2.778 1.9-3.688-.24 1.401-.12 2.97 1.91 2.074.51-.223.39-1.213.8-1.375.73-.296 1.14.243 1.4.212.26-.029.81.117 1.35-.089.71-.266.37-1.215 1.27-1.356.58-.092 1.01.767 1.72.774.37.003.98-.368 1.26-.349.05.004.39-.836.82-.857.63-.03.88 1.646 1.11 1.972 1.1 1.554 2.56 2.568 4.24 3.397-3.04 2.787-9.18 2.492-13 3.431-2.08.51-3.84 1.244-5.74 2.191-.46.297-.85.662-1.18 1.094l-.81-.534c-1.03.064-2.02-.45-3.19-.253-3.61.609-6.44 3.314-10.11 3.916-1.64.271-3 .649-4.07-.78-.95-1.253-.79-3.975-.12-5.308zm-4.95-16.657c.82.692-.17 2.944 1.42 2.699 1.12-.174.9-1.917 1.78-2.287 1.16-.485 1.86.666 2.95.559 2.03-.2 1.92-1.974.2-2.753 1.79-.471 2.36 1.639 3.94 1.62 2.08-.025 1.58-2.474 3.35-2.88.76-.176.51.948 1 1.087 1 .279 1.69-.2 2.57-.621.78-.377 1.34-1.105 2.2-1.352.4-.113 1.39.094 1.68-.116.58-.421 1.09-2.063 1.66-2.28-.11.044 1.75.979 2.02 1.067-.16.693-.54.775-1.14.247 0 1.565 4.35 2.053 3.46.119 2.35.974.6 1.475.36 2.834-.09.546-.41.531-.31 1.109.04.266 1.27.037 1.26.399-.11 2.336-7.55 3.054-8.96 3.26-2.92.426-5.69 1.144-8.5 2.027-2.1.658-5.71 2.542-7.94 2.425-3.21-.168-3.63-4.352-3-7.163zm-7.17-23.831c-.78-2.598 1.73-7.964 5-7.294.8.165 1 .83 1.62 1.126.87.413 2.29.196 3.04.622 1.69.957.84 3.396 2.54 4.278-2.68.648-10.96 5.397-12.2 1.268zm3.1 10.094c1.15-.62 3.02-.699 3.81-1.891.39.271 1.13 1.917 1.83 1.665.33-.117.67-1.009.64-1.008.63-.018.75-.865 1.71-.77.88.088 1.86 1.143 2.64 1.536-.13-2.614.54-2.864 2.66-4.263.46-.307.85-1.458 1.28-1.924-.41 2.744.62 2.759 2.82 3.171 2.74.517 4.46 1.991 5.56 4.645-2.34-.457-5.37.093-6.29 2.608-1.87-3.412-8.66 1.297-10.86 2.261-1.63.716-3.52 1.678-4.89.01-.96-1.175-.41-2.589-.39-3.633 0-.327.34-.347.31-.835-.04-.623-.85-.872-.83-1.572zm25 53.663c-.62.234-3.81.365-3.83-.688-.01-.931 5.62.007 3.83.688zm-5.17-3.409c-2.41 1.484-5.11-3.745-5.99-5.251 2.52.323 3.76-1.789 5.25-3.394 1.41 3.101 3.56 1.462 5.82.427 2.67-1.222 5.59-1.231 8.32-2.211.86-.306 1.64-.761 2.47-1.11.67-.251 1.34-.508 2.01-.771.47-.426.64-.95.5-1.572-.22-.522-.07-.852.46-.989.63.188 1.27.297 1.92.326 1.06-.208 2.57-1.201 1.3-2.271 1.36-1.237 2.72-.007 4.04.534-.32-.888-.63-1.775-.94-2.663.65.276 2.58 2.972 2.78 2.958 1.25-.094 1.12-1.768 1.84-2.444.41.51.53 4.315 2.16 3.033.69-.548-.81-2.414-1.18-2.839 1.87.42 3.49 2.641 3.99 4.366-.88.127-1.7-.05-2.45-.534-.48 2.401 3.97 1.429 4.69 2.683 1.41 2.456-7.76 4.162-8.96 4.39-2.39.456-5.21.625-7.4 1.685-2.1 1.014-2.6 1.304-5.05 1.494-2.8.217-5.54 1.14-8.24 1.858-2.36.623-5.26 1.01-7.34 2.295zm51.18-87.918c2.22-.795 9.66-4.923 11.56-3.087-.2-.195 1.37 3.043 1.35 2.839.14 1.684.1 2.362-1.98 3.169-1.48.577-2.78-.65-4.11-.163-1.47.536-.44 1.484-1.2 2.146-.83.726-2.42 1.04-3.45 1.358-2.53.778-5.07 1.429-7.58 2.268-5.1 1.706-10.51 3.294-15.76 4.502-3.92.901-10.58 3.143-14.19.496-.35 1.505-1.22 1.299-2.41 1.518-.94.172-2.64.637-3.48.661-1.39.04-5.25-.324-4.72-2.272-.14.537 3.01-1.3 2.46-1.414 1.34.282.91-.392 2-.766 1.44-.489 2.93-.463 4.39-.981 3.69-1.306 6.78-3 10.67-3.819 8.89-1.868 17.88-3.371 26.45-6.455zm-356.18 201.247c-.72.02-1.28-2.025.91-.565-.3.189-.61.377-.91.565zm-17.3-2.645c-.98.25-1.37-.296-1.17-1.638 1.36-.539 1.75.006 1.17 1.638zm-13.36-2.739c-.25-1.196.64-1.466 1.44-2.003-.08 1.585-.08 1.585-1.44 2.003zm-33.61-9.845c-1.35-.297-3.16-1.621-3.47.601-.22-.515-1.38-2.934-.88-3.494.26-.293 1.24 1.062 1.13.928 1.19-2.396 3.23.495 4.37 1.35-.38.205-.77.411-1.15.615zm352.01-264.762c.47-.988 1.02-1.302 1.65-.94-.99 2.31-4.36 3.563-1.65.94zm23.42-21.69c.84 1.565-.42 2.227-1.31 3.527.52-1.403.88-2.375 1.31-3.526zm101.8 152.745c3.01 0 9.42-1.589 11.24 1.852 1.2-2.339 2.57 2.046 3.61 2.75.12.079.87-.495 1.22-.284.52.319.98 1.187 1.28 1.703.91 1.555 1.3 3.405 1.81 5.116-5.26 0-10.66-1.224-15.91-1.669-3.45-.292-6.84-.301-10.29-.115-.69.037-2.05-.189-2.64-.06-.59.131-1.68 1.345-2.33 1.15 1.02 1.917 14.1 6.557 15.1 4.435-1.18-.716-3.81-1.265-3.81-2.993.01-1.937 2.47-1.934 3.77-1.877 2.86.125 7.64 1.075 8.81 4.041.5 1.272.65 4.473.1 5.701-.35.793-.96 1.746-1.91 1.907-.39.066-.96-.454-1.02-.442-1.95.416-5.58 1.987-7.71-.229-1.54 1.992-8.96-.184-11.23-.935-3.97-1.314-9.44-3.119-11.86-6.823-2.94-4.515 3.04-8.331 6.48-10.166 4.69-2.508 10.05-3.06 15.29-3.062zm20.04 10.439l2.77.782c-.25 1.618-3.89.338-2.77-.782zm27.91 58.812c.28-6.482-1.59-12.191-2.68-18.461-.26-1.554.01-4.271-1.17-5.549-1.13-1.222-3.65-.229-3.75-2.389-1.11 1.301-1 1.573-2.37.077.25.641.29 1.294.11 1.958-.85-.487-3.93-2.104-3.67.107-2.53-.56-1.8-2.143-3.24-3.352-.21-.171-1.03.438-1.35.178-.58-.47-.87-.897-1.36-1.503-.62.752-1.47 1.296-2.23 1.89a3.431 3.431 0 00-2.34-1.904c.97 2.024 3.36 4.646.08 5.797-1.96.687-5.17-.155-7.24.005-7.69.596-16.12-1.079-23.55-2.91-7.64-1.88-15.36-4.535-22.23-8.416-1.46-.827-2.38-1.806-3.64-2.832-1.23-.998-2.12-1.156-3.59-1.794-2.66-1.148-5.08-2.989-7.1-5.042-4.34-4.413-8.36-10.184-7.16-16.646 1.21-6.439 5.64-11.472 10.37-15.713 5.6-5.009 11.92-9.19 18.63-12.562 3-1.506 10.67-7.168 13.63-3.855 1.89 2.116.83 4.816-1.76 5.286-.64.117-1.3-.311-1.95-.018-.93.423-.6.922-.99 1.275-.66.613-1.37 1.568-2.37 2.099-3.47 1.852-6.84 3.321-10.16 5.577-1.53 1.04-3.01 1.487-4.36 2.395-1.34.902-1.64 2.395-3.45 1.474.64 2.625-3.22 5.437-4.73 7.045-2.35 2.491-5.16 5.67-4.07 9.356 2.15 7.214 11.82 12.693 18.02 15.864 7.73 3.957 16.25 7.107 24.85 8.411 4.28.648 8.7 1.048 13.01 1.459 3.36.32 8.51-.852 10.92 2.169.08-3.522 11.09-3.212 13.43-3.662-4.7-16.049-13.92-30.317-23.78-43.648-4.84-6.545-9.59-13.275-15.11-19.274-6.04-6.568-12.94-12.437-19.49-18.481-12.86-11.853-27.4-22.431-42.2-31.75-14.76-9.297-30.05-18.447-46.22-25.076-18.48-7.57-37.92-12.55-57.39-16.79 2.64-3.364 6.93-5.005 10.32-7.466 1.18-.861 2.78-2.929 4.32-3.212 1.66-.306 2.97 1.485 4.16 2.384 3.4 2.58 5.76 1.485 9.65 1.329 2.34-.093 7.86 1.205 8.84-1.948 1.31 1.74-.59 3.135-1.56 4.411.71.985 1.28-.036 1.98-.19.21-.179.43-.357.64-.536.35-.501.66-.503.94-.009.41.625.83.487 1.26-.416.11-.073.23-.146.34-.218.51-.268.99-.693 1.46-1.027 3.54-2.53 6.7-4.685 10.61-6.549 3.28-1.564 1.52-4.556 3.68-6.67.49-.478 1.32-.238 1.84-.643.51-.398.59-.85.96-1.276.9-1.025-.17-2.215 2.13-.96l-.83-4.656c4.5 4.363 4.48-8.192 5.1-10.05-.09.246.4-1.656.4-1.64.13-3.767.65-6.497-3.77-6.716 1.67-1.05 2.18 1.001 2.96-1.123.38-1.065-.82-2.894 1.1-2.208.4-2.262 0-4.093-.5-6.291-.52-2.25-.21-3.752-.19-6.003.03-2.552-1.17-5.117-1.55-7.631-.3-1.969.01-5.073-2.54-4.35-.36-.56.9-2.282.85-3.134-.08-1.323-1.52-2.667-1.92-3.937a2.13 2.13 0 01-2.26.544c.76-1.725.05-2.305-.69-3.793-.41-.853-.16-1.794-1.06-2.405-.51-.35-1.39.24-1.79-.17-.87-.88-.55-2.048-1.15-3.207-.74-1.454-2.45-2.565-3.62-3.657-6.6-6.134-13.78-10.823-22.56-13.22-8.86-2.418-19.19-3.285-28.02-.495-3.53 1.115-6.67 1-9.84 3.082-1.03.676-1.14.495-1.67 1.621-.12.263.98.962.31 1.391-.73.466-1.54-.482-1.91-1.269-4.6 3.326-8.9 7.759-11.52 12.842-2.6 5.051-2.84 10.985-3.83 16.474-4.59-5.232-10.78-7.74-17.52-5.224-5.87 2.191-10.42 7.008-11.57 13.248-.7 3.805.07 7.658 1.79 11.09.75 1.483 1.66 3.125 3.03 4.124 1.09.789 2.95.678 3.46 2.102.79 2.18-3.74 6.89-4.92 8.8-2.13 3.454-4.11 7.021-5.61 10.794-5.4-7.62-10.56-15.941-16.7-22.967-5.79-6.63-12.69-12.577-19.47-18.182-14.05-11.632-28.66-22.56-44.38-31.828-14.64-8.629-32.32-13.42-49.38-11.726-16.67 1.656-29.43 12.192-40.16 24.345-20.65 23.366-33.3 56.67-34.53 87.774-.37 9.344.34 18.566 2.65 27.628 1.1 4.316.94 8.56 1.58 12.931.72 4.93 1.96 9.843 3.17 14.673 4.6 18.398 10.45 36.783 17.02 54.572 3.41 9.251 7.55 18.295 13.14 26.452 2.58 3.768 5.93 6.716 8.7 10.294 2.7 3.47 3.41 7.729 4.01 11.987 1.42 10.209 2.36 20.462 3.21 30.731.37 4.353.79 8.666 1.37 12.988.5 3.768-.76 3.583-3.94 4.863.65-3.386-14.5-1.083-15.94-.851-1.55.251-3.2.254-4.43.455-1.37.222-2.71.545-4.29.5-2.32-.067-6.66-.659-7.55 2.302-.61-3.433-4.64.321-1.66-.317-3.06.342-6.18-.227-9.28.061-3.54.33-7.12.643-10.65 1.177-2.45.371-4.79 1.316-7.25 1.59-3.14.351-6.42.318-9.6.598-11.71 1.032-23.85 3.586-35.23 6.509-2.58.662-5.54 1.133-8.01 2.196-.66.284-1.25.92-1.88 1.164-1.06.409-.91.126-1.86.313-5.63 1.127-11.45 2.966-17.08 4.409-3.13.802-8.21 1.524-10.76 3.705-1.15.976-2.15 2.708-.31 3.818 1.46.887 3.55-.528 4.73-1.293-1.05 2.748-3.04 4.118-1.97 7.244.85 2.471 2.77 5.516 5.71 3.922.4.918.56 2.743 1.72 3.08 1.04.303 1.8-1.02 2.82-.708.37.111.23.803.56.984.56.311 1.14.443 1.78.662.56.189 1.46.577 2.04.618.37.026 1.23-.604 1.23-.604.85.128 1.3 1.747 1.91 2.215.79.607 1.45.745 2.44.965 2.06.457 4.71 1.241 6.07-.866-.31 1.504 1.73 1.357 2.64 1.548a2.723 2.723 0 00-1.22-1.954c2.02.133 1.2 2.14 2.7 2.67 1.06.376.94-.582 1.75-.688 1.07-.14 1.89.638 3.56-.079.37 1.611.5 3.236 2.48 3.477 1.16.141 3.87-1.957 3.72-.211 2.59-.761 3.58-.246 4.94 2.041.22-1.404 1.33-.997 2.35-1.084 1.62-.137 1.66-.007 2.91-.921.11-.083 1.1-2.336 1.53-.936.2.628-1.1 2.104-1.58 2.479.6.302 2.56 1.36 3.31 1.166.65-.168.65-1.282 1.44-1.339-.2.64-.39 1.281-.58 1.921 1.52.221 2.8-.798 4-1.544 1.15 2.899 4.43 1.266 6.21 3.448.94 1.154.99 2.031 2.79 2.333 1.84.309 3.44-.498 5.01 1.018-.5-.941-1.73-1.721-.51-2.732.84 1.184 1.27 2.61 2.23 3.712.13-.56.27-1.12.4-1.681 2.51 2.683 5.67 2.707 8.88 4.194v-1.963c2.3 3.511 2.43 1.289 5.18-.145-.19 1.032-.38 2.065-.56 3.097 1.97-.149 3.82 2.194 5.45.203.98 1.645 2.17.836 3.78 1.358.91.297 1.59 1.197 2.48 1.523 1.34.488 1.73.465 2.99.89 1.12.378 1.75 1.113 3.15 1.349.91.153 1.73.142 2.6.1.34-.017.22-.772.97-.596 1.15.274 2.01 1.72 2.84 2.461 1.25-3.139 4.75 1.066 6.44 1.626.17-.805.14-1.775.72-2.436.68 1.499.94 2.758 2.37 3.723.82.557 2.02.956 2.97 1.16.59.128 1.68-.026 2.06.159.64.314.88 1.154 1.53 1.233.38.046.94-.957 1.23-.879 1.3.356 2.03 1.942 3.35 2.8 3.92 2.553 8.86 2.8 13.24 3.36 1.09.14 1.25-.159 2.14.484.48.345.26 1.391.85 1.684 2.2 1.104 2.21-1.252 2.67-2.716.73.961.85 2.231 1.85 2.996a15.56 15.56 0 011.63.037c.31.35.51.753.61 1.211 1.32.891 2.81.581 4.18 1.251.44.219 1.24 1.545 1.79 1.926.98.683 2.51 1.048 3.63 1.344 2.37.622 5.76-.204 7.16 2.262 1.87-2 1.15.388 2.41.89.75.296 1.88-.882 2.71-.765 1.49.21 2.03 1.828 2.51 3.004.91-.203.28-2.777.26-3.341 1.13-.134 1.38 2.843 1.57 3.497 1.79-.859-1.14-3.534.78-4.392-.18 2.279 1.64 4.155-1.6 4.482.44 1.372 10.91 2.897 11.64 1.685.16 2.24 1.66.148 2.22-.619.06 1.307-.39 3.161 1.08 3.769 1 .412 3.25-.655 3.64-1.631.44 1.492 1.19 1.443 2.12 2.391.64.65 1.06 1.779 1.73 2.324 1.23 1.002 3.53.849 4.97.625 2.81-.439 2.47-.977 3.48 1.944.22-1.109.93-3.427 2.17-1.704.79 1.095-.89 3.509-1.37 4.47 1.08-.594 2.16-1.3 3.39-1.556.07.38.13 1.185-.05 1.537.04-.071 1.35.81 1.84 1.054-.12-.059.38-2.253.37-2.181 1.73 1.07.53 3.116 2.07 4.171.39.273 1.33-.046 1.8.121.84.289 1.56 1.072 2.31 1.53-.6-.795-.51-2.129-.47-3.047.38.209.65.989 1.03 1.051.14.023 1.64.221 1.63.214 1.55 1.089 1.23 1.226-.1 2.535.47.75 2.47-.553 3.01-.769.11.293.14 1.357.35 1.548l.39.945c.4-.297.82-.396 1.28-.297.29.1 2.54 1.014 2.69.701a4.092 4.092 0 01-1.34-.731c1.3-1.167 2.16-1.787 3.35-.102.15.212-.37.974-.21 1.251.57 1.03 1.74 1.85 2.54 2.689.33-1.159-.44-4.06 1.4-3.955 1.46.084 2.57 3.631 2.07 4.734.58-.637 4.06-1.269 4.71-1.071 1.86.562 1.34 2.277 3.62-.235 1.56 1.074.18 1.48.46 2.789.42.086.8-.016 1.17-.305-.27 5.562 3.83 1.312 6.5 2.162 1.05.333 1.31 1.521 2.44 1.868.59.183 1.25-.251 1.83-.145.46-.066.92-.148 1.38-.245.58-.29.85.034.82.974.93.482.57.671 1.66.765.71.061 1.35-.669 2.15-.545 1.37.216 1.19 1.271 2.07 1.823.79.496 1.68.48 2.66.384.49-.049 1.89-.688 2.05-.69 1.05-.014.48-.236 1.73.658.97.697 1.38 1.148 2.58 1.469 1.36.366 3.79 1.169 4.72.18 1.24 1.865 2.22.496 3.86.619.84.064.97.391 1.72.522 1.21.211 2.73.028 4.02.442 2.03.653 2.26.981 4.34 1.069.37-.146.74-.293 1.12-.44.11.626.41 1.136.88 1.531 1.17.244 1.93-.343 2.89-.985.71 2.224 3.03 2.418 5.01 2.71 3.2.472 6.26.73 9.34 1.781 2.61.887 5.22 1.883 7.72 3.019 2.21 1 4.29 2.495 6.78 1.794 5.66-1.591 11.13-7.391 15.86-10.722 5.6-3.944 11.65-7.194 17.5-10.74 23.3-14.117 47.92-26.06 70.89-40.703 12.54-7.994 24.18-17.492 37.65-23.96-1.92 7.921-5.18 15.961-4.59 24.253.24 3.342 1.22 7.289 3.81 9.622 3.21 2.884 6.78 1.048 9.85-1.013 6.57-4.415 10.95-10.857 15.86-16.906 5.82-7.155 10.33-14.844 14.6-23 1.02 1.436.24 3.841.26 5.433.02 2.031.57 3.988 1.51 5.801 2.43 4.679 7.06 5.814 11.24 2.608 8.05-6.17 12.72-17.159 17.04-26.008 2.46 4.574 5.95 10.332 11.85 7.065 4.88-2.696 7.74-8.72 9.23-13.822 4.36-14.894 2.98-30.065 3.65-45.333zm-7.4-89.463c-.55-1.35-.8-1.129.23-2.437.79.784.16 1.432-.23 2.437zm24.64 81.688c-1.56-4.442-.6-9.266-1.55-13.823-.43-2.09-1.12-4.118-1.37-6.246-.11-.945-.95-5.196-.38-5.866-1.76-1.067-1.77-1.857-2.17-3.949.62-.667.55-1.235-.24-1.707-.52-.622-1.03-1.244-1.54-1.866 2.25 1.099.91-1.714.68-3.336-.18-1.281-.3-2.618-.73-3.847-.52-1.51-1.69-2.273.74-2.273-.8-.911-2-1.85-2.4-2.965-.57-1.605.38-3.725-.79-5.142-.66-.791-4.02-1.1-3.43-2.808.3-.87 1.66-.22 2.09-.83 1.65-2.396-3.24-3.388-3.48-4.407-.31-1.322 1.46-1.617 1.56-2.852.11-1.21-1.77-3.197-2.27-4.278-.67.165-1.42 1.235-2.19.724-.15-.097.07-4.283-.1-4.839-.18-.546-.53-1.995-.66-2.263-.5-1.065-1.94-1.584-2.16-2.842-.14-.751 2.8-1.888-.57-1.923 1.21-2.136-1.01-3.434-1.82-5.26-1.04-2.346-1.65-4.881-2.72-7.24-1.04-2.293-2.2-4.469-3.7-6.496-1.35-1.836-1.94-3.601-3.02-5.54-.22-.17-.43-.341-.65-.511-.9.131-1.19-.28-.87-1.233-.69-1.023-1.2-2.114-1.81-3.182-.71-1.242-1.66-2.253-2.39-3.461-.98-1.6-1.26-3.404-2.36-5.01-1.35-1.975-2.86-3.716-4.11-5.765-1.57-2.566-3.3-4.162-5.28-6.149-.93-.947-1.05-3.312-2.2-4.656-1.25-1.464-2.48-1.86-3.35-3.782-1.13-2.5-2.79-3.694-4.4-5.854-1.33-1.783-1.98-3.832-3.44-5.556-1.26-1.481-2.69-2.834-4.04-4.239-1.7-1.773-2.95-3.928-4.72-5.614.26.243-1.54-1.178-1.45-1.132-.39-.203-1.68-.365-1.49-.255-2.67-1.568-6.01-7.305-10.02-4.265-2.12 1.599-1.1 4.531.37 6.123.63.685 3.92 4.057 4.64 2.635.76 1.087 3.13 6.342 5.09 4.836-.2 1.797.84 1.2 1.53 2.415.45.801.23 1.194.56 2.444.91 3.438 4.37 6.795 6.21 9.793 4.59 7.46 9.64 14.536 14.23 22.005 4.38 7.118 9.28 13.872 13.47 21.087 4.78 8.203 10.72 15.946 14.32 24.79.12.297 1.12.768 1.37 1.214.43.776.34 2.117.61 2.995.97 3.046 2.53 6.044 4.32 8.567 1.56 2.214 1.67 5.222 2.75 7.818 1.51 3.66 3.12 7.281 4.59 10.959 2.29 5.725 3.85 11.212 5.43 17.188 1.03 3.873 1.85 7.744 2.18 11.744.3 3.678.37 7.509 1.73 10.992.93-1.434 2.03-3.291 1.4-5.067z" fill="#000"/><path fill-rule="evenodd" clip-rule="evenodd" d="M1172.35 375.251c-1.65-.333-3.2-.777-3.55-2.669-.24.892-.47 1.784-.71 2.676 2 .454 4.01.909 6.02 1.363-.47-.825-.81-1.179-1.76-1.37zm4.42-310.494c.13-.534.29-1.057.49-1.567.14.497.8 1.573.41 2.042-.49.595-.99.258-.9-.475zm8.09-15.37c.54.239 1.71.285 2.38.486-1.74 1.498-2.05 1.058-4.3.884-.1-1.516.51-1.986 1.92-1.37zm-15.11 37.524c.24.007.47.013.71.018.01-.66-.01-1.32-.05-1.978 2.37.52 1.03-3.63.28-4.49 2.32.077 3.45-7.256 4.18-8.67.65-1.254 1.39-1.74 1.87-3.27.41-1.338.86-2.543 1.47-3.81 1.38-2.912 3.19-5.557 2.86-8.951 1.17 2.547 2.2.004 2.94-1.214 1.19-1.962 4.11-4.465 4.42-6.796.28-2.051-1.25-2.16-.35-4.063.91-1.925 1.66-1.732 3.26-2.348 1.06-.41 1.27.088 2.02-1.25.48-.867.31-1.513.93-2.223.26.223.55.315.87.276.51-.665.84-1.405 1-2.222.41-1.103.61-2.116 1.23-3.166.58-.995 1.63-3.657 2.18-4.136.58-.51 3.91-.25 3.9-.232 1.37-1.728-1.15-3.448 2.34-3.084-.69-1.284 1.73-2.876 2.43-3.59 1.76-1.782 1.9-2.606 2.27-4.847.19-1.143-1.04-1.01.61-1.271.68-.107 1.33.763 1.82.635 2.17-.562-.1-.455.5-1.338.19-.28 1.15-1.412 1.15-1.4-.05.057.21-.984.43-1.252.42-.035.82-.108 1.23-.217.2-.411.38-.833.54-1.264 1.57-1.309 3.91-1.894 5-3.332.7-.93.49-1.84 1.4-2.767.86-.883 2.01-.243 2.18-2.237.21-2.537-2.51-3.666-3.63-1.106-3.02-3.724-15.66 9.938-17.12 11.722-6.35 7.748-12.58 15.688-17.78 24.255a141.112 141.112 0 00-12.49 26.34c-1.57 4.439-2.52 8.859-3.48 13.45-.32 1.538-2.72 8.391-1.72 9.925l.6-.097zm499.32 189.999c1.07-.713 1.07-.713 1.26-2.059-1.43.261-1.43.261-1.26 2.059zm-526.67 90.567c.01-.002.02.002.03.01-.02-.03-.1-.115-.03-.01zm-.72.722c.33.714.86.891 1.59.531.29.412-2.5-2.569-1.59-.531z" fill="#000"/><path fill-rule="evenodd" clip-rule="evenodd" d="M1189.91 42.692c-1.68 3.281.42.895.31 1.96.07-.7.36-1.697-.31-1.96zm272.05 50.754c.72 5.88 8.77 3.1 10.58-.458 1.32-2.59 4.65-12.821 1.07-14.983-2.66-1.602-3.23 5.304-3.88 6.847-1.1 2.584-1.95.753-4.39 1.415-2.69.732-3.68 4.74-3.38 7.18zm-8.8-10.762c2.88.639 5.7.31 7.74-1.962 1.14-1.257 2.64-3.751.6-4.968-1.84-1.102-3.94 1.478-5.88.945-2.64-.726-1.28-3.56-2.19-5.432-3.33 1.919-5.19 10.323-.27 11.417zm2.99 14.847c-2.78-.005-2.8 3.404-1.35 4.865 1.38 1.398 4.89 2.813 6.76 1.726 3.71-2.146-3.17-6.37-5.41-6.59zM1294.8 233.098c.59.287 2.33 1.766 3.07 1.098l-3.12-3.135c-.57.628-.96 1.547.05 2.037zm-13.11-149.564c-.3.22-.59.44-.89.659 1 .829.97 1.075 1.98.29-.3-.392-.66-.707-1.09-.949zm187.95 195.089c-.56-1-1.61.845-2.32 1.145-1.16.488-2.11-2.096-1.78 1.001-2.62-1.199-4.21 1.551-5.9 2.983-2.39 2.024-5.3 3.122-6.9 5.996 7.5 1.752 15.73-4.705 21.32-8.945.91-.693 5.46-4.186 2.37-4.524-1.26-.138-5.86 4.026-6.79 2.344zm-2.23-6.061c1.47-1.155-1.69-1.261-2.19-1.382.04.919.08 1.837.13 2.756.7-.429 1.39-.888 2.06-1.374zm-5.51 3.855c.44-.275 1.66-1.13.83-1.768-.75.479-1.29 1.26-1.41 2.151.2-.128.39-.256.58-.383zm-121.34-74.52c-.94.368-1.36.95-1.26 1.746 1.44-.294 1.17-1.655 1.26-1.746z" fill="#000"/></svg>