<svg width="444" height="333" viewBox="0 0 444 333" fill="none" xmlns="http://www.w3.org/2000/svg" preserveAspectRatio="none"><path fill-rule="evenodd" clip-rule="evenodd" d="M131.488 182.575l6.173 46.298 1.662 12.462c.21 1.573.012 4.675.811 6.082.282.497 1.024.733 1.569 1.025l5.633 3.025 47.647 25.581 45.727 24.55c1.578.847 4.129 3.057 5.832 2.475 1.618-.554 3.272-1.919 4.742-2.779l8.462-4.96 51.206-30.009 21.127-12.382 5.781-3.387c1.007-.591 1.138-.57 1.535-1.572 1.483-3.748 2.17-8.041 3.219-11.929l3.469-12.856c.516-1.912.274-2.159-.567-4.005l-4.993-10.959-11.081-24.325c-1.494-3.279-5.092-5.586-7.682-7.998l-40.219-37.444-3.064-2.854c-.169 5.717-1.298 11.862.359 17.384l8.156 27.188 3.942 13.141c.244.814 1.731 4.041 1.333 4.757-.22.397-2.097.798-2.504.952l-5.241 1.995-14.603 5.555-13.134 4.996c-1.484.565-3.228 1.611-4.796 1.524-1.402-.078-2.997-.772-4.354-1.122l-7.159-1.844-14.062-3.621c-5.273-1.359-9.727-5.348-14.237-8.301l-23.254-15.227c-1.775-1.162-1.782-1.825-2.489-3.946l-4.768-14.304c-.848-2.545-1.892-5.102-2.533-7.708-1.057-4.301-1.684-8.754-2.521-13.103l-.758-3.936-9.739 3.952c-.47.191-2.763.76-2.967 1.228-.129.296.553 1.638.65 1.926l8.076 23.917 2.54 7.523-6.07-9.539-4.77 16.043-11.273-13.008-3.903 13.008-12.14-16.043-1.444 8.372c-.145.842-.116 3.259-.676 3.926-.462.548-1.792.276-2.65.276z" fill="#FFAEAD"/><path fill-rule="evenodd" clip-rule="evenodd" d="M387.714 215.935c-.228 7.264-.07 16.694-4.045 23.082-.642 1.03-2.816 4.241-3.058 1.417-.239-2.774.444-5.52-.232-8.325-.362-1.501-1.578-4.78-3.657-3.424-1.059.691-1.338 2.397-1.753 3.474-.613 1.593-1.3 3.162-1.946 4.743-2.254 5.52-4.59 12.108-9.602 15.761.656-4.76 2.443-9.843 1.242-14.654-.41-1.64-1.651-4.635-3.787-3.674-2.082.936-3.432 5.114-4.414 6.974-2.979 5.639-6.026 11.173-9.38 16.602-1.687 2.731-3.509 5.226-5.716 7.562-1.381 1.461-3.102 3.931-5.277 4.148 0-4.163 1.37-8.186 2.621-12.107 1.346-4.216 2.572-8.469 3.893-12.693 1.146-3.664 2.086-7.3 2.849-11.058.316-1.554.566-3.163 1.89-4.167 1.191-.901 3.072-1.331 4.399-1.994 3.487-1.741 7.072-3.621 10.31-5.786 1.33-.888 2.475-2.037 3.867-2.834 1.587-.908 3.068-1.673 4.536-2.78 6.333-4.777 12.042-10.653 15.889-17.647.624 2.81 1.451 5.556 1.543 8.452.093 2.971-.079 5.959-.172 8.928zm-52.122 33.39c-1.013-1.71-2.556-1.009-3.916-.185a918.448 918.448 0 01-6.346 3.814c-4.315 2.571-8.551 5.276-12.767 8.006-8.583 5.556-17.465 10.103-26.514 14.806-8.746 4.544-17.146 9.953-25.34 15.419-1.969 1.314-3.925 2.659-5.816 4.083-1.678 1.265-3.02 3.041-4.787 4.167-1.84 1.173-3.105.221-4.865-.643-2.201-1.081-4.495-1.988-6.745-2.963-9.079-3.936-18.184-8.022-27.016-12.49-8.778-4.44-17.096-9.556-25.507-14.637-4.006-2.42-7.944-4.993-11.895-7.502-4.205-2.67-8.559-4.67-12.97-6.94-1.951-1.004-3.68-2.368-5.684-3.281-2.108-.959-4.334-1.648-6.221-3.032-.846-.621-1.559-1.363-2.526-1.802-.794-.361-1.695-.422-2.479-.804-1.595-.779-2.051-2.36-2.36-4.003-1.986-10.553-3.042-21.397-4.193-32.067-.647-6-1.369-11.977-2.263-17.945-.404-2.691.407-4.776.833-7.394.497-3.057.693-6.178 1.026-9.256 1.572 2.911 2.931 5.966 4.93 8.623 1.474 1.957 3.991 4.734 6.705 4.668 4.218-.102 4.025-7.336 4.195-10.208 1.921 1.715 2.504 4.508 4.099 6.5 1.456 1.819 3.437 4.075 5.673 4.89 4.708 1.714 4.255-7.025 3.996-9.503-.13-1.243-.832-3.21.834-2.643 1.533.522 3.026 2.686 4.315 3.678 2.228 1.717 4.672 3.143 6.958 4.781 2.836 2.032 5.896 3.501 8.788 5.395 1.809 1.184 3.782 1.449 5.753 2.32 2.889 1.276 5.44 3.178 8.19 4.708 5.444 3.027 11.484 5.743 17.44 7.568 1.927.591 4.494 2.256 5.956.545.9-1.053 1.492-2.661 2.256-3.842a78.541 78.541 0 013.058-4.374c3.789-5.064 7.994-9.847 12.663-14.119 5.432-4.969 11.373-9.441 17.726-13.166 2.73-1.6 14.13-8.773 16.635-3.725-2.059-.128-3.843.625-5.604 1.568-.43.23-2.646 1.813-2.128.418-.643.121-1.208.96-1.695 1.333-.843.645-2.121 1.39-3.096 1.925-.964.527-2.156.656-3.035 1.296-.321.234-.515.613-.822.866l-.877.007-.394 1.458c-.496-1.59-1.204.477-2.033 1.149-.498.404-1.286.82-1.873 1.08-.438.195-.506-.258-.932.086-.378.306-.619.979-1.026 1.363-.499.469-1.138.834-1.694 1.234-1.066.768-2.193 1.37-3.273 2.098-1.452.979-2.214 2.663-3.624 3.686-.668.485-1.706.542-2.067.852-.907.78-.608 1.961-2.299 2.013.154.246.246.513.278.802a2.228 2.228 0 01-1.075-.501c.07 1.686-1.588 2.289-2.582 3.327-.574.598-1.288 1.44-1.692 2.16-.067.121-.195 1.082-.223 1.095-.154.074-1.088-.747-.999-.679-.261 1.559-1.769 3.032-2.429 4.475-.348.76-.702 1.982-1.387 2.516-.187.145-.76-.006-1.234.499-.348.37-.749 1.055-.89 1.546-.094.328.019 1.177-.116 1.374-.248.36-.634-.002-1.023.265-.718.491-.736 1.26-1.787 1.361.724 1.759 5.097 2.302 6.686 2.802 4.494 1.414 9.209 2.827 13.41 4.993 1.087.56 2.115 1.022 2.307 2.313.269 1.796-.647 4.184-.821 5.998-.474 4.9-.57 9.943-.471 14.863.093 4.66.244 9.364.461 14.019.202 4.316 1.072 8.546 1.541 12.831.129 1.176.043 6.48 2.066 6.213 1.688-.223.622-3.846.59-4.884-.07-2.299.413-4.645.393-6.964-.01-1.115.478-2.075.525-3.142.046-1.054-.478-1.887-.321-2.979.151-1.049 3.25-7.079.274-6.373.174-.862.327-1.731.557-2.581.318.286.575.621.768 1.002.265-1.852.177-3.701.341-5.554.074-.84.414-1.76.298-2.606a2.725 2.725 0 00-.134-1.032.947.947 0 00-.679-.306c-.141-.464-.178-.591.074-1.046a.85.85 0 01.642-.577c.611-.072.681-.423.209-1.052.246-1.242.278-2.026.1-3.265-.149-1.041.4-3.057-.159-3.984-.653-1.084-.977-.033-1.098-1.535-.026-.317-.047-.98.081-1.297.14-.345.561-.204.615-.326.365-.835.389-2.478-.904-2.336l.152-1.788c.934 1.075.608.165 1.137-.433.714-.806 1.412-.944 2.432-1.263 2.72-.848 5.339-2.124 7.996-3.16 5.627-2.192 11.357-4.15 16.819-6.741 11.487-5.451 22.746-11.366 34.304-16.673-.826-1.533-.312-1.607.291-3.046.806.56.636.169 1.209.135-.052-.48.098-.625.448-.434.279.085.564.115.858.09.715.123 1.3.517 1.95.666.213.158.448.276.704.355.229-.053.425-.166.588-.341 1.052.195 1.407.988 1.453 2.136.008.2-.603.405-.428.673.306.469 1.129.357 1.6.417l-.31 1.461c2.066-.953 1.528 2.031 2.154 3.012.175.273.564.055.766.372.264.413.185.999.41 1.411.508.932 1.017.819 1.524 1.886 2.649 5.571 6.173 10.761 8.715 16.452 1.211 2.709 2.303 5.464 3.567 8.149 1.163 2.471 1.827 4.572.998 7.27-1.922 6.26-3.978 12.634-6.498 18.68l-.378-.6zM201.485 296.05l-.541.922c-.401-2.305.666-1.236.541-.922zm-8.481-4.315c-.578-.173-.328-1.117-.309-1.52.365.455.724.92 1.028 1.42l-.719.1zm-23.241-8.859l1.731-.971c-.699 1.363-.699 1.363-1.731.971zm-36.565-120.078c-.927 2.276 1.9 16.332-.732 16.79-.378-1.233-.425-4.63-1.988-5.035-1.94-.504-1.749 2.993-2.014 4.074-3.981-2.77-5.75-8.119-7.652-12.359-2.425-5.404-4.332-11.025-6.154-16.655-1.558-4.815-2.847-9.714-4.421-14.52-.989-3.019-2.055-6.045-2.72-9.156-.145-.676-.713-2.39-.23-3.033.702-.934 3.229.136 4.043.381 5.283 1.59 10.762 2.274 16.19 3.198 6.03 1.025 12.046 2.085 18.113 2.88 1.515.199 3.032.387 4.55.57.984.119 2.474 0 3.409.442 1.892.892 2.295 4.309 2.998 6.082 2.621 6.613 5.707 13.017 8.468 19.57 2.487 5.904 4.372 12.184 7.947 17.56-2.666-1.182-6.045-7.431-9.024-3.83-1.281 1.549-.958 3.59-.855 5.443.148 2.68.194 5.379.194 8.063-2.915-.757-4.874-4.067-6.405-6.411-2.091-3.202-3.407-6.22-4.333-9.89-.401-1.59-1.464-1.629-2.409-2.581-.607-.611-.912-1.435-1.783-.546-1.095 1.118-.367 4.214-.177 5.533.448 3.141 1.92 7.974.489 10.925-1.931 3.983-7.106-6.038-7.712-7.485-.308-.737-5.814-14.866-7.792-10.01zm-3.615-68.252l.977.15c-.262.231-.809 1.045-1.256.83l.279-.98zm17.27-3.706l-.307.336c-.468-.584-.302-1.436-.302-2.112.618.373.769 1.12.609 1.776zm1.395 6.485v1.91c-1.294-.56-1.32-.85 0-1.91zm1.573 2.429c-.907-.25-1.016-.45-.888-1.844l.888 1.844zm5.221 14.148c-.38.978-2.602-1.353-2.521-2.051.078-.665.419-.864.89-.436.156.142-.076.654.024.832.358.643 1.081 1.17 1.607 1.655zm.025 5.893c-.557 1.39-1.549-.799-.095-.859.096.28.127.566.095.859zm-1.08-2.192a24.847 24.847 0 01-.629-.875c.75.151 1.345 1.243 2.135.515-.094 1.111-.883 1.141-1.506.36zm-48.452-18.056c-1.205-1.315 6.652-2.238 7.6-2.464 6.878-1.64 13.373-4.014 19.804-6.926 3.068-1.39 6.121-2.796 9.117-4.336 1.294-.665 3.067-1.228 4.148-2.226.771-.713.74-1.252 1.743-1.676.851-.36.893-.02 1.283-.67.234-.39.499-1.82.362-2.244-.373-1.155-.925-.219-1.7-1.014-.558-.574-.423-2.205-.27-2.88.197.321.311.67.341 1.047.841-.415.502-1.838 1.422-2.071.969-.246.868.51 1.121 1.281.733-1.075.145-1.992-.251-3.042 2.015-.378 4.18-.743 6.177-.073 1.444.484 2.681 1.675 4.206 1.906 1.493.225 1.78-.483 2.881-1.202.893-.583 1.661.104 2.121-.337-.284 1.487-2.722 1.284-2.422 3.143.136.836 1.161 1.587 1.627 2.238.586.817 1.053 1.72 1.452 2.64 1.552 3.581 2.215 7.736 2.866 11.566 1.607 9.451 1.811 19.089 3.322 28.571.72 4.516 1.442 9.035 1.816 13.596.094 1.14.79 3.726.221 4.823-.482.926-1.554.929-2.495 1.153-1.841.438-3.57 1.032-5.336 1.691-1.583.59-2.043.952-3.059-.537-.983-1.442-1.469-3.16-2.172-4.74-.896-2.013-1.978-3.955-3.017-5.897 2.041 0 3.215-1.102 3.161-3.176-.059-2.297-1.948-2.842-2.727-4.73-.757.984-.821 1.012-1.361.078-.617-1.068-1.034-3.023-1.412-4.234l.811.865c.681-.938-.386-2.416-.743-3.298-.551-1.364-.648-2.837-1.17-4.197-.285-.742-.945-1.326-1.107-2.1-.108-.518.325-1.011.222-1.537-.178-.915-1.214-1.898-1.536-2.829-.496-1.433-1.034-2.694-1.649-4.09-.832-1.89-.639-3.871-.791-5.882-.158-2.085-.825-4.08-1.061-6.155-.163-1.434.347-3.24-.738-4.388-.127 1.91.42 1.88-1.373 2.223-2.043.39-3.524 1.912-5.455 2.366-.398.094-.688-1.645-.533.727-.926-.684-2.902.165-2.165.571-.559.598-1.66.184-1.844 1.08-1.899-1.847-4.945 4.44-7.207 1.16-.373 2.222-1.983 3.536-4.143 3.83-1.086.148-1.755.51-2.719.835-.196.066-.268.347-.499.423-.354.115-.874-.233-1.129-.165-.519.138-1.096.82-1.82.957-.831.155-1.737.084-2.569-.013-1.04-.12-1.497-.243-2.515.1-.916.308-1.897 1.171-2.746.23-1.335 2.31-4.518 1.746-6.09.029zm61.719-27.873c-1.01-.12-.309-.99.159-1.25 1.272-.71.932 1.381-.159 1.25zm-55.942 8.289c5.93-8.555 16.072-14.433 24.997-19.378 4.874-2.702 9.85-5.32 14.968-7.531a160.303 160.303 0 017.717-3.12 126.75 126.75 0 014.197-1.451c.389-.129 1.096-.524 1.502-.486-.07-.007 1.011.287.799.38.696-.303 1.027-1.094 1.846-1.41.92-.355 2.092-.502 3.078-.535.872-.028 1.626.332 2.457.36.546.019 1.01-.24 1.545-.279.273-.019.249.39.414.414.071.01.8-.263.807-.258.265.17.5.835.74 1.095.687.745 1.697 1.264 2.614 1.656 1.116.477 3.839.956 2.577 2.721.896-.128 1.313.681.191.887-.608.11-.868-.446-1.319-.826-1.043-.875-3.574-2.122-5.076-2.066-.845.031-1.498.673-2.277.906-.767.229-1.147-.127-1.82-.07-.787.065-1.293.73-2.043.85-.702.11-1.093-.368-1.72-.335-.746.04-1.468.687-2.18.905-1.133.346-1.965.582-3.07 1.155-2.143 1.113-4.536 1.535-6.744 2.492-1.766.765-3.768 1.168-5.402 2.015-1.816.94-3.641 1.877-5.42 2.9-1.286.738-3.898.992-5.315.804-.021 2.61-1.305.78-2.599 1.923.306.27.653.469 1.042.596-1.403.56-2.7 1.257-4.058 1.901-1.405.666-2.903.813-3.826 2.072-.85 1.16-.562.562-1.83 1.02-.582.209-1.088.849-1.507 1.279-.721.738-.881 1.857-1.292.339-.12.185-.593 1.364-.685 1.394-.515-.547-.589.101-.878.333.152.504-.065.835-.65.991-.296.22-.596.437-.899.648-1.1.762-2.5 1.417-3.274 2.553-.571-.337-.783-.918-.435-1.512-1.091 1.006-2.393 2.04-2.689 3.588a1.208 1.208 0 00-.473-.284c-.443.3.134 1.19.415 1.391 1.225-.476-.306-.303.517-.226.235.021.476.197.735.2a13.16 13.16 0 002.225-.142c1.66-.256 3.291-.733 4.898-1.21 1.75-.52 3.5-1.04 5.211-1.678 1.41-.526 2.795-1.112 4.181-1.695.553-.234 1.106-.47 1.66-.701 1.052-.44 1.607-1.162 1.46.075.838-.14 1.565-1.324 2.208-1.807a10.215 10.215 0 012.996-1.533c.435-.14.754-.32 1.203-.32.22-.001.352.62.491.586.962-.233.524-.767.956-1.535.947-1.68 3.496-2.608 5.062-3.562.994-.606 1.699-1.42 2.617-2.091a3.45 3.45 0 011.191-.585c.344-.102.766.689.989-.106-.8-.327-1.461-.73-2.231-.97-.545-.17.109-.75-.755-.404-.347.139-.466.81-.594 1.091-.964-.862-3.677.031-4.822.392-.079.025-.432-.162-.599-.15-.66.044-1.12.933-1.555 1.316-1.157 1.019-2.411 1.445-3.835 2.026.379-2.07 3.164-2.918 4.79-3.712 2.376-1.159 4.588-2.639 7.189-3.262 1.733-.416 4.029-.75 4.777 1.264.448 1.208.505 4.208-1.011 4.765-.16-.564.353-1.046.507-1.535-1.508.576-1.757 2.388-2.902 3.334-.644.53-.875.701-1.186 1.215-.309.51-.457.985-1.182 1.528-1.184-2.516-.984.93-1.584 1.362.241-.174-.979.334-.833.28-.057.021-.588-.84-.933-.822-.627.033-.507.724-.809 1.072-1.025 1.176-2.348 1.948-3.997 1.763-.039.837.22 1.838-.924 1.914l-.15-1.856c-.622.63-1.441 1.227-1.948 1.956-.576.83-.514 1.34-1.47 1.893-.999.578-3.125 1.717-4.314 1.815.294-.417.242-.794-.155-1.13-.598.617-1.481.678-2.117 1.234 2.209.924-1.698.876-2.193.98-.332.07-.622.373-.958.441-.446.09-.503-.378-.888-.23-.562.218-.333.832-.921 1.141-.423.222-1.139.219-1.616.43-1.135.503-3.554 1.617-4.322.265-.389 2.318-4.361.907-5.831.751-2.014-.213-5.521-1.159-3.653-3.854zm8.458-23.717c.284-.243.57-.225.855.054-.397-2.098 2.675-3.116 4.015-4.008 1.778-1.183 3.87-3.478 6.197-3.297l-1.189.882 1.696.22-.957 1.404c-.522-2.877-3.246.756-4.035 1.285-.793.533-1.585.93-2.291 1.58-.699.644-1.33 1.803-2.485 1.224-.105 1.643-1.427 1.198-2.34 2.108-.038-.571.289-.975.534-1.452zm12.068-8.203c2.812-1.053 5.26-3 7.91-4.392 2.531-1.329 5.113-2.522 7.686-3.761 1.305-.63 3.696-2.256 5.188-1.427 2.013 1.12-.759 1.48-1.478 1.868-.267-1.724-1.199-.162-.642.797-1.536-.663-4.887 1.932-6.352 2.648-.332.162-.183.256-.56.446-.093.047-1.055.266-1.33.359-1.38.461-2.289.095-2.884 1.76l-.373-1.177c-.864 1.94-3.489 2.789-5.168 3.936-.433.295-1.669 1.442-2.217 1.205-.764-.33-.458-2.008.22-2.262zm50.725 5.847c1.187.079.043.633.369.998-.037-.04.715.6.616.425.133.236.452.228.615.709.561 1.655-1.891 3.365-2.718 4.304-1.607 1.827-2.537 4.14-4.212 5.908-.757.799-1.509 1.35-2.558 1.648-.734.209-1.511-.014-2.186.692-.543.568-.42.891-1.02 1.193-1.058.533-1.524.066-2.554 1.217-.886-2.408 1.66-2.404 2.988-3.75 1.833-1.858 3.842-3.732 5.561-5.72 1.527-1.766 2.139-3.314 2.864-5.46.228-.676.477-2.126 1.107-2.55.982-.662.393.337 1.128.386zm5.838 62.559c3.114-3.482 6.976-6.609 11.163-8.707 1.496-.75 3.626-1.735 5.177-.58 1.521 1.132 1.194 3.39.581 4.925-.588-.23-.033-2.389-.338-2.922-.665-1.164-2.1-.546-3.077-.156-1.143.457-2.164.962-3.07 1.791-.368.336-1.071.638-1.307.869-.353-.147-.562-.04-.624.321a.903.903 0 01-.027.653c-.052.068-.512-.211-.577-.155-.298.255-.578.555-.871.793-.589.476-1.091.702-1.633 1.366-1.048 1.284-2.433 2.036-3.486 3.259-.237.277-.522.986-.576 1.048-.532.621-1.32 1.112-1.92 1.769-1.038 1.136-2.146 1.898-3.343 2.872-.515.419-1.117.87-1.46 1.453-.156.266-.244 1.723-.25 1.729-1.174 1.286-.945-1.3-.857-1.625.954-3.49 4.177-6.11 6.495-8.703zm-6.409 23.599l.415 1.558c-.931-.764-.931-.764-.415-1.558zm-1.005 1.796c-.343.344-.686.687-1.033 1.027-.762-.805 1.172-1.165 1.033-1.027zm-.484-13.859c-.364 1.473-1.697 3.259-2.614 4.422.101-.128-.782.13-.883.188-.326.189.455 1.415-.676.867-.401.227.389 1.153-.156 1.567-1.577-3.593 2.728-6.705 4.395-9.372.815.749.139 1.502-.066 2.328zm-10.24 19.422c1.149.296 1.747.11 2.523-1.019.467-.678.637-1.879 1.704-.865l.189-1.304c1.523.625 1.395 2.883 2.061 4.134.323-1.416 1.09-5.37 3.439-4.736 2.637.712-1.752 5.247-2.159 6.358-.896-1.391-.544-.097-1.228.099-.586.168-1.503-.264-2.216-.225-2.169.118-4.074 1.094-6.055 1.92l-1.504-4.057c1.166.09 3.578-3.015 3.92-.759-.865-.15-1.109-.112-1.53.676a2.03 2.03 0 01.856-.222zm4.868 17.652c-.003-.01 2.244.128 2.444.055 1.538-.561.969-2.305 1.283-3.538.634.583.298 1.646.494 2.4.229.887.894 1.642.955 2.59.14 2.141-1.617 1.666-2.949 2.359-1.138.592-1.265 1.337-2.226-.259-.26-.432-.819-1.557-.762-2.109.056-.548.923-1.002.761-1.498zm1.811 9.267l-.621-.696c1.851.567.759-.285 1.185-1.45 1.421.946 2.58 1.919 3.704.024l1.943 7.835c-1.305.307-2.988-1.709-3.883-2.401-.517-.4-3.385-1.942-1.663-2.391l-.665-.921zm12.68-24.603c-1.078 1.026-2.164 1.6-3.339 2.406-1.029.707-.675 1.52-1.568 2.309-.592.524-1.982 1.059-2.714 1.459-1.305.713-2.473.848-3.815.05.365 2.941-1.649 3.171-4.156 3.753-1.195.278-1.903.703-2.764-.392-.59-.749-.821-2.106-.087-2.792 1.166-1.089 4.272-.713 5.768-1.398 1.135-.519 2.291-3.447 3.692-2.381-.723-1.151.119-1.462.747-2.282.688-.9 1.111-1.952 1.823-2.844 1.353-1.696 3.429-3.403 5.351-4.425 1.69-.9 2.578-.263 2.831 1.626.128.95.123 2.366-.409 3.209-.17.268-.73.271-.899.524-.295.441-.024.763-.461 1.178zm19.838-22.804c1.349 1.044 1.218 3.238 1.43 4.732.3 2.106.083 4.144.051 6.289-.034 2.248-1.137 3.711-1.656 5.818-.577 2.343-1.321 3.584-2.615 5.55 1.403.221-.685 4.411-1.029 4.954-.374.588-3.388 3.302-2.096 3.302-.713.94-1.489 1.905-2.199 2.819-.28.36-.77.501-.99.755-.449.516-.476.977-.798 1.58-.488.914-.648.67-1.289 1.333-.443.459-.733 1.064-1.168 1.503-1.402 1.415-1.58.256-2.364-.834a.879.879 0 01-.64.549c-.245-1.233 1.444-2.479 2.154-3.228 1.164-1.228 2.227-2.581 3.255-3.924 2.203-2.877 4.182-5.934 5.744-9.208 1.662-3.485 2.989-7.257 3.678-11.058.526-2.898 1.025-7.869-2.847-8.606-2.816-.536-5.92 1.175-8.242 2.56-1.415.844-2.837 1.683-4.185 2.632-1.463 1.03-2.727 2.487-4.315 3.313.868-.452-1.997.907-1.558.525-.206.179-.029.725-.164.971-.177.32-.792.637-1.068.844-.728.547-1.892 1.107-2.223 2.011-4.621-3.297 4.568-9.148 6.923-10.639 4.672-2.955 12.801-8.731 18.211-4.543zm12.463-32.057c-.044-2.373 1.889-5.613 3.195-7.549.638-.947 1.659-.91 2.033-2.027.216-.643-.067-1.318-.003-1.964.087-.874.465-1.575.903-2.326 3.951-6.788 8.752-12.797 13.865-18.72 2.521-2.92 4.912-5.952 7.631-8.695 1.136-1.145 4.189-5.264 5.935-4.852.925.218 1.463 1.63 1.881 2.35a31.66 31.66 0 002.288 3.402c2.215 2.892 4.769 5.43 7.785 7.48 1.884 1.28 3.787 2.525 5.629 3.867 1.516 1.104 3.809 2.367 4.891 3.918 1.083 1.55-.507 2.864-1.376 4.152-1.351 2.002-2.594 4.078-3.951 6.078-.539-.387-.4-1.175-.769-1.671-.328-.44-.791-.62-1.244-.891-.868-.52-1.719-1.156-2.503-.285-1.371 1.525.515 5.128 2.547 4.733.24 1.505-3.819 3.983-4.836 4.81-3.122 2.54-6.343 4.749-10.467 4.979-1.668.093-3.405-.034-4.991-.593-.759-.267-1.599-.634-2.182-1.218-.697-.698-.874-1.737-1.551-2.428-.587-.6-1.392-.692-1.978-1.294-.587-.602-.878-1.553-1.116-2.333-.465-1.524-.553-3.132-1.001-4.66-.269-.918-.49-2.146-1.368-1.263-1.275 1.282-.635 5.315-.308 6.852.467 2.192 1.561 3.96 2.708 5.845 1.244 2.047 1.703 3.944 1.926 6.312.417 4.432 1.689 8.684 3.668 12.672.832 1.678 1.83 3.257 2.729 4.897.421.766 1.362 3.377 2.504 3.363 1.826-.023-.774-5.346-1.135-6.239-2-4.95-3.91-10.152-4.338-15.511 2.866.738 5.991 1.439 8.959.97-1.916 4.286.086 8.552-.159 12.962-.123 2.212-.211 4.252-.166 6.458.041 1.934-.833 3.867-1.587 5.615-1.5 3.473-3.387 7.757-6.172 10.417-2.328 2.224-5.442 2.398-8.483 1.886-6.92-1.166-11.466-6.485-14.37-12.526a53.973 53.973 0 01-4.177-12.237c-1.025-4.878-.754-9.788-.846-14.736zm8.986-32.87c-6.457-4.673 2.926-9.978 7.702-9.256 1.121.17 3.182.632 3.077 2.094-.086 1.195-2.079 2.527-2.844 3.265-2.183 2.105-4.404 6.45-7.935 3.896zM277.882 165.8c-.221-.199-2.029.289-1.313-.781.595-.888 2.245.225 2.844.454-.494.341-.924.87-1.531.327zm-26.887 56.505c-.555.069-1.135-1.428.866-.31l-.866.31zm-.057 24.395c.069.671.274 1.113-.202 1.601-.403-.497-.455-1.197.202-1.601zm.812 10.079l-.176 1.095-1.385-.702c.52-.131 1.041-.261 1.561-.393zm.566-8.499c.688.257.368-.566.868-.682.179.857-.042 1.592-.534 2.299-.047-.168-.299-1.605-.334-1.617zm17.597-60.823c-.966-.123-1.112.898-1.833 1.294-.464.256-1.88.064-2.144.553l1.047.302-2.395 1.291c1.92 0 3.92-.917 5.827-.648.806.114 1.397.387 1.903 1.042.307.398.577 1.039.626 1.526.053.527-.358.892-.285 1.143.86.023.758 1.433.565 2.008-.418 1.245-2.08 3.196-3.57 2.406.623.884.465 1.389-.457 1.902.084-.292.146-.804-.325-.753-.121.49-.075 1.267-.475 1.636-.448.414-.848-.069-1.276.199-.508.32-.355.82-.755 1.166-.528.457-.603.133-1.234.222-.957.135-.347-.459-1.112.315-.265.267-.221.962-.65 1.353-.824.751-3.025 1.533-3.815.571-1.9 3.01-7.593 3.732-10.243 1.356-4.227-3.79 3.654-11.498 6.256-13.941 2.612-2.452 5.512-4.569 8.447-6.613 1.668-1.161 3.379-2.215 5.127-3.25 1.078-.639 2.431-1.805 3.756-1.693 1.188.101 2.203 1.023 3.454 1.205.905.132 2.662.35 1.521 1.577-.534.573-2.63 1.5-3.344 1.64-.419.082-.861-.075-1.276.01-.704.144-1.187.738-1.952.662.242 1.136-.2 1.67-1.388 1.519zm12.508-42.158c.001.889-1.621.667-1.959.365-.558-.496-.577-1.981-.784-2.656.942.237 2.743 1.105 2.743 2.291zm-13.063-29.31c3.406-2.8 6.988-5.367 10.774-7.627 1.356-.81 3.27-2.443 4.954-2.239.707.086 2.167.897 1.635 1.792-.099.167-.885.234-1.128.356-.276.137-.491.516-.747.703-1.769 1.298-3.894 2.096-5.669 3.424-1.459 1.092-2.819 2.313-4.389 3.249-1.506.898-3.08 1.467-4.51 2.461.028-.019-1.86.66-1.49.783-1.658-.554.093-2.51.57-2.902zm22.711-1.043c2.024-.806 4.003-1.785 6.122-2.327 1.057-.27 2.142-.474 3.237-.352.186-.326.433-.397.743-.216.241.371.56.656.955.855.604.464 2.826 1.071 2.382 2.095-.294.678-2.522.734-3.133.887-1.844.459-3.562 1.492-5.461 1.745-.178.024-.76-.192-.767-.191-.741.162-1.357.931-1.994 1.3-1.37.793-3.338.926-4.322 2.295 3.186 2.159 5.95.017 8.751-1.613 1.678-.977 3.479-1.681 5.313-2.308.958-.327 1.925-.666 2.896-.953a6.438 6.438 0 011.239-.317c.395-.078.677.065.848.431 1.174-.039 1.274-.776 1.981.598.997 1.938-.528 1.839-1.961 2.077-1.986.33-4.007 1.072-5.964 1.564-.452.114-4.411 1.032-4.416 1.064-.179 1.25 11.183.093 12.159-.095 1.721-.331 3.568-1.271 5.35-1.045 1.368.174 4.485 2.182 2.303 3.515-.43-2.056-1.905-.358-2.675.337-1.026.924-2.496.835-3.903 1.197-1.924.494-6.85 2.349-8.217-.016.432 2.073-7.42 1.019-8.5.951-1.052-.067-2.411.156-3.428-.144-.663-.195-1.032-.627-1.657-.724a1.167 1.167 0 01-.549.337 3.482 3.482 0 01-.858-.611c-2.103-.966-5.356-1.5-4.188-4.579 1.103-2.904 5.041-4.691 7.714-5.757zm19.711 1.795l.157-.543c.006.555 1.329.791 1.176 1.51-.339 1.591-1.865-.8-1.996-1.06l.663.093zm8.074 2.643c.153.652 1.912 2.039 1.476 2.359-.693-.942-2.61-.514-1.476-2.359zm-29.665 59.463c.644-1.277 2.59.898 2.385-1.282 1.058.095.397.901 1.666.547.475-.133.796-.66 1.375-.781.155-.033.822.02 1.052.013.763-.023 3.752-.108 1.695-1.108 1.151-.762 1.293-.375 2.332.322-.266-1.442 1.263-.623 1.975-.443-.508-.823.752-1.698 1.161-2.254-.146.857-.069 1.815 1.17 1.268.309-.136.239-.742.484-.841.449-.18.699.149.86.13.158-.018.492.071.824-.054.433-.163.224-.743.772-.829.357-.056.618.468 1.053.473.224.002.597-.225.767-.213.03.002.243-.511.505-.524.382-.018.538 1.006.677 1.205.67.95 1.56 1.569 2.587 2.075-1.858 1.703-5.605 1.523-7.941 2.097-1.265.311-2.344.76-3.502 1.339-.279.181-.52.404-.721.668l-.492-.326c-.634.039-1.234-.275-1.949-.155-2.205.372-3.932 2.025-6.174 2.393-1.007.166-1.835.397-2.491-.477-.576-.765-.48-2.429-.07-3.243zm-3.024-10.178c.5.423-.102 1.799.866 1.65.687-.106.55-1.172 1.089-1.398.709-.296 1.136.407 1.802.342 1.241-.122 1.17-1.206.122-1.682 1.09-.288 1.439 1.001 2.405.99 1.268-.016.966-1.512 2.045-1.76.467-.108.311.579.614.664.607.171 1.03-.122 1.567-.38.48-.23.822-.675 1.347-.826.239-.068.846.058 1.022-.07.353-.258.67-1.261 1.017-1.394-.071.027 1.069.599 1.233.652-.1.424-.332.474-.696.152 0 .956 2.657 1.254 2.112.072 1.437.595.366.901.223 1.731-.057.334-.252.325-.194.678.027.163.78.023.77.244-.063 1.427-4.611 1.866-5.473 1.992-1.783.26-3.471.699-5.191 1.239-1.28.401-3.487 1.553-4.85 1.481-1.959-.103-2.215-2.659-1.83-4.377zm-4.378-14.561c-.478-1.587 1.055-4.866 3.051-4.456.491.101.612.507.992.688.532.252 1.396.119 1.857.38 1.034.585.513 2.075 1.548 2.614-1.634.396-6.689 3.298-7.448.774zm1.891 6.168c.704-.379 1.846-.427 2.326-1.155.239.165.692 1.171 1.121 1.017.2-.072.407-.617.392-.616.382-.011.458-.528 1.042-.47.536.054 1.136.698 1.614.938-.082-1.597.327-1.75 1.622-2.605.284-.187.521-.89.783-1.175-.25 1.676.381 1.685 1.72 1.937 1.678.316 2.723 1.217 3.396 2.838-1.43-.279-3.275.057-3.838 1.594-1.142-2.085-5.289.792-6.631 1.382-.996.437-2.155 1.025-2.99.006-.588-.718-.251-1.582-.238-2.22.003-.2.21-.212.191-.51-.024-.381-.52-.533-.51-.961zm15.267 32.789c-.377.143-2.321.223-2.334-.421-.01-.569 3.431.004 2.334.421zm-3.157-2.083c-1.471.906-3.116-2.288-3.657-3.208 1.543.197 2.296-1.094 3.205-2.074.864 1.894 2.177.893 3.558.26 1.629-.746 3.413-.752 5.082-1.35.52-.187 1-.465 1.509-.679.409-.153.817-.31 1.223-.471a.938.938 0 00.307-.96c-.136-.319-.043-.521.28-.604a4.89 4.89 0 001.177.199c.643-.128 1.567-.734.791-1.388.831-.755 1.664-.004 2.465.326l-.57-1.627c.397.169 1.576 1.816 1.696 1.807.763-.057.683-1.08 1.121-1.493.253.312.325 2.637 1.319 1.854.425-.335-.49-1.475-.715-1.735 1.137.256 2.129 1.614 2.437 2.667a2.119 2.119 0 01-1.498-.326c-.293 1.467 2.423.873 2.863 1.64.861 1.5-4.74 2.543-5.47 2.682-1.46.278-3.184.382-4.522 1.029-1.283.62-1.586.797-3.085.913-1.71.133-3.379.697-5.034 1.135-1.436.381-3.209.618-4.482 1.403zm31.262-53.719c1.351-.486 5.9-3.008 7.058-1.886-.122-.119.835 1.859.825 1.735.082 1.029.057 1.443-1.209 1.936-.907.353-1.697-.398-2.513-.1-.897.328-.27.907-.731 1.311-.506.444-1.48.636-2.109.83-1.541.476-3.093.873-4.626 1.386-3.118 1.043-6.421 2.013-9.626 2.75-2.395.552-6.461 1.921-8.668.304-.215.919-.742.793-1.473.927-.573.105-1.61.389-2.12.404-.849.025-3.208-.198-2.883-1.388-.09.328 1.835-.794 1.502-.864.817.172.552-.239 1.221-.468.875-.299 1.789-.283 2.682-.6 2.251-.797 4.138-1.833 6.514-2.333 5.427-1.141 10.921-2.06 16.156-3.944zM110.517 260.228c-.44.012-.782-1.237.556-.346l-.556.346zm-10.566-1.616c-.598.153-.837-.181-.715-1.001.834-.33 1.072.004.715 1.001zm-8.158-1.674c-.153-.731.389-.895.88-1.224-.05.969-.05.969-.88 1.224zm-20.526-6.015c-.826-.182-1.928-.991-2.118.367-.138-.314-.844-1.793-.54-2.135.157-.179.757.649.693.567.724-1.464 1.971.303 2.668.825l-.703.376zM286.25 89.151c.285-.604.622-.796 1.009-.575-.608 1.412-2.667 2.177-1.009.575zm14.304-13.253c.51.956-.257 1.36-.804 2.155l.804-2.155zm62.169 93.329c1.839-.001 5.757-.972 6.866 1.131.734-1.429 1.568 1.25 2.205 1.68.072.049.531-.302.744-.173.322.195.599.725.783 1.04.556.951.795 2.081 1.103 3.127-3.213 0-6.507-.748-9.717-1.02-2.107-.179-4.172-.184-6.282-.071-.419.023-1.252-.115-1.611-.036-.364.08-1.024.822-1.426.702.624 1.172 8.615 4.007 9.225 2.71-.723-.437-2.327-.773-2.326-1.829.002-1.183 1.505-1.181 2.302-1.146 1.743.076 4.662.656 5.377 2.469.306.777.4 2.733.064 3.483-.218.484-.585 1.067-1.168 1.165-.239.04-.583-.277-.62-.27-1.196.254-3.409 1.214-4.713-.14-.941 1.217-5.471-.112-6.858-.571-2.426-.803-5.766-1.906-7.239-4.169-1.796-2.759 1.855-5.09 3.952-6.211 2.866-1.533 6.14-1.87 9.339-1.871zm12.24 6.378l1.692.478c-.151.988-2.375.206-1.692-.478zm17.045 35.935c.173-3.961-.972-7.449-1.633-11.28-.164-.95.003-2.61-.718-3.391-.689-.746-2.227-.139-2.288-1.459-.679.794-.611.961-1.447.047.153.392.175.79.066 1.196-.519-.298-2.4-1.285-2.241.065-1.547-.342-1.099-1.309-1.981-2.048-.126-.105-.629.268-.826.109-.354-.287-.53-.548-.829-.919-.38.46-.898.792-1.363 1.156a2.077 2.077 0 00-1.428-1.164c.591 1.237 2.052 2.839.048 3.542-1.196.42-3.156-.095-4.423.003-4.695.365-9.839-.659-14.379-1.778-4.664-1.149-9.381-2.771-13.575-5.142-.894-.505-1.458-1.104-2.228-1.731-.748-.609-1.292-.706-2.192-1.095-1.619-.702-3.1-1.827-4.332-3.081-2.649-2.697-5.11-6.223-4.373-10.171.736-3.935 3.44-7.01 6.335-9.601 3.418-3.06 7.277-5.615 11.373-7.675 1.831-.921 6.516-4.38 8.325-2.356 1.157 1.293.506 2.943-1.074 3.23-.389.071-.797-.19-1.191-.011-.568.258-.368.563-.602.779-.408.374-.84.958-1.449 1.282-2.123 1.132-4.176 2.029-6.205 3.408-.936.635-1.837.909-2.661 1.463-.821.551-1.007 1.463-2.11.901.393 1.604-1.966 3.322-2.89 4.305-1.433 1.522-3.15 3.464-2.481 5.716 1.308 4.408 7.218 7.756 11 9.693 4.72 2.418 9.926 4.343 15.181 5.139 2.613.396 5.313.641 7.946.892 2.049.195 5.195-.521 6.669 1.325.046-2.152 6.768-1.962 8.199-2.238-2.868-9.805-8.501-18.524-14.523-26.669-2.955-3.999-5.858-8.111-9.226-11.776-3.689-4.013-7.902-7.6-11.906-11.292-7.852-7.242-16.733-13.706-25.77-19.4-9.016-5.68-18.353-11.271-28.231-15.321-11.282-4.626-23.159-7.668-35.05-10.26 1.613-2.055 4.237-3.057 6.302-4.561.723-.526 1.701-1.79 2.64-1.963 1.017-.187 1.818.908 2.542 1.457 2.078 1.576 3.516.907 5.896.812 1.424-.057 4.797.736 5.398-1.19.799 1.063-.36 1.915-.952 2.695.431.602.779-.023 1.205-.117l.394-.326c.211-.307.402-.308.572-.007.254.383.51.298.767-.254l.212-.133c.308-.164.605-.423.891-.627 2.163-1.546 4.091-2.863 6.479-4.001 2.005-.956.927-2.785 2.249-4.076.299-.292.802-.145 1.122-.393.313-.243.36-.519.589-.78.549-.626-.105-1.353 1.297-.586l-.506-2.845c2.748 2.666 2.737-5.005 3.113-6.14-.05.15.246-1.012.246-1.002.081-2.302.395-3.97-2.301-4.104 1.021-.642 1.333.612 1.804-.687.236-.65-.501-1.768.673-1.349.248-1.382.003-2.5-.304-3.844-.316-1.375-.131-2.292-.116-3.667.016-1.56-.714-3.127-.948-4.663-.183-1.203.006-3.1-1.549-2.658-.219-.342.549-1.394.518-1.915-.049-.808-.926-1.63-1.174-2.405a1.295 1.295 0 01-1.378.332c.467-1.054.028-1.408-.419-2.318-.256-.52-.101-1.095-.65-1.469-.314-.214-.85.147-1.096-.104-.528-.538-.333-1.251-.697-1.96-.455-.888-1.496-1.566-2.213-2.233-4.033-3.749-8.414-6.614-13.778-8.078-5.412-1.478-11.721-2.007-17.114-.303-2.156.681-4.07.611-6.01 1.884-.629.412-.697.302-1.017.99-.073.16.597.587.186.85-.445.285-.938-.295-1.165-.776-2.807 2.032-5.437 4.741-7.036 7.847-1.588 3.086-1.734 6.712-2.341 10.066-2.798-3.197-6.582-4.73-10.696-3.192-3.587 1.338-6.366 4.282-7.067 8.095-.428 2.324.039 4.678 1.095 6.776.457.906 1.01 1.91 1.849 2.52.664.481 1.801.414 2.113 1.283.479 1.333-2.288 4.21-3.006 5.377-1.3 2.11-2.507 4.29-3.426 6.596-3.296-4.656-6.451-9.74-10.199-14.033-3.536-4.052-7.753-7.685-11.888-11.11-8.582-7.107-17.507-13.784-27.107-19.447-8.94-5.272-19.738-8.2-30.156-7.164-10.18 1.011-17.973 7.45-24.531 14.875-12.61 14.276-20.333 34.626-21.088 53.63-.227 5.709.208 11.344 1.618 16.881.672 2.637.575 5.23.965 7.901.44 3.013 1.202 6.014 1.939 8.965 2.806 11.242 6.381 22.475 10.393 33.345 2.087 5.652 4.61 11.178 8.025 16.162 1.577 2.302 3.62 4.103 5.317 6.289 1.647 2.121 2.081 4.723 2.443 7.325.869 6.238 1.444 12.502 1.966 18.777.222 2.659.481 5.295.833 7.936.307 2.302-.465 2.189-2.402 2.971.393-2.069-8.861-.662-9.735-.52-.951.153-1.958.155-2.706.278-.838.136-1.657.333-2.621.305-1.418-.04-4.072-.402-4.613 1.407-.372-2.098-2.833.196-1.012-.193-1.869.209-3.775-.139-5.666.037-2.167.201-4.353.393-6.505.719-1.498.226-2.928.804-4.428.971-1.92.215-3.925.195-5.864.365-7.152.631-14.565 2.191-21.517 3.978-1.575.404-3.385.692-4.889 1.341-.403.174-.765.562-1.151.711-.647.25-.559.078-1.133.192-3.443.688-6.994 1.812-10.435 2.694-1.91.49-5.015.931-6.572 2.263-.699.597-1.309 1.655-.19 2.334.894.541 2.17-.323 2.893-.791-.645 1.679-1.86 2.516-1.204 4.427.519 1.509 1.688 3.37 3.488 2.396.241.561.339 1.676 1.049 1.882.637.185 1.1-.623 1.724-.433.224.068.139.491.339.602.345.19.695.27 1.09.404.34.115.888.352 1.242.377.225.016.756-.369.754-.369.517.079.795 1.068 1.167 1.354.483.371.882.455 1.486.59 1.258.279 2.879.758 3.709-.53-.19.92 1.06.829 1.611.946a1.67 1.67 0 00-.741-1.194c1.233.082.733 1.308 1.645 1.631.649.231.575-.355 1.072-.42.655-.085 1.152.39 2.174-.048.222.984.303 1.977 1.512 2.124.71.087 2.365-1.195 2.271-.128 1.586-.465 2.188-.151 3.016 1.247.14-.858.818-.61 1.44-.662.985-.085 1.01-.005 1.775-.563.07-.051.67-1.428.938-.572.12.383-.674 1.285-.968 1.514.365.185 1.561.832 2.021.713.398-.103.4-.783.878-.818l-.352 1.173c.931.136 1.708-.487 2.443-.943.701 1.771 2.704.773 3.793 2.107.576.705.603 1.241 1.701 1.425 1.123.189 2.105-.304 3.06.623-.303-.575-1.057-1.052-.308-1.67.51.723.773 1.595 1.361 2.268l.243-1.027c1.533 1.64 3.463 1.654 5.426 2.563v-1.2c1.406 2.145 1.48.788 3.16-.089l-.343 1.893c1.209-.091 2.338 1.34 3.33.124.599 1.005 1.325.51 2.308.83.558.181.974.731 1.517.93.815.298 1.058.285 1.825.544.682.231 1.07.68 1.924.824.554.094 1.057.087 1.588.061.205-.01.137-.471.593-.364.705.167 1.229 1.051 1.736 1.504.764-1.918 2.9.651 3.933.993.099-.491.081-1.084.437-1.488.418.916.578 1.685 1.445 2.275.501.34 1.237.584 1.815.708.366.079 1.03-.015 1.26.098.392.192.536.705.932.753.233.028.578-.585.752-.537.798.218 1.241 1.187 2.047 1.711 2.397 1.56 5.414 1.711 8.085 2.053.67.085.767-.098 1.312.296.29.21.159.849.516 1.028 1.346.675 1.347-.765 1.629-1.659.446.587.522 1.363 1.132 1.83a9.76 9.76 0 01.997.023c.188.214.311.46.368.74.806.545 1.72.355 2.553.764.273.134.757.945 1.094 1.177.602.417 1.533.64 2.221.822 1.443.379 3.512-.125 4.371 1.381 1.14-1.221.699.238 1.473.544.457.181 1.144-.538 1.651-.467.913.129 1.241 1.117 1.534 1.835.555-.124.174-1.696.158-2.041.691-.082.844 1.737.964 2.137 1.09-.525-.7-2.159.473-2.684-.108 1.393 1.002 2.539-.98 2.739.274.838 6.665 1.77 7.109 1.029.098 1.369 1.018.091 1.357-.378.038.799-.234 1.932.662 2.303.609.252 1.981-.4 2.22-.997.273.912.73.882 1.298 1.461.39.398.647 1.087 1.057 1.42.753.613 2.154.519 3.031.382 1.717-.268 1.514-.597 2.126 1.188.139-.678.572-2.094 1.328-1.041.482.669-.543 2.144-.839 2.731.662-.363 1.318-.794 2.071-.951.042.232.081.725-.03.939.022-.043.825.495 1.123.644-.071-.036.236-1.376.227-1.332 1.059.653.324 1.904 1.263 2.548.242.167.811-.027 1.104.074.51.177.952.655 1.405.935-.362-.486-.31-1.301-.285-1.862.231.128.395.605.628.643.088.014 1.001.135.995.13.95.666.754.749-.061 1.549.291.458 1.509-.337 1.839-.47.069.179.086.83.216.946l.236.577c.244-.181.505-.241.783-.181.176.061 1.55.62 1.643.429a2.506 2.506 0 01-.817-.447c.793-.713 1.315-1.092 2.046-.063.092.13-.224.595-.131.765.349.629 1.066 1.13 1.553 1.643.202-.708-.267-2.481.852-2.417.895.052 1.575 2.219 1.266 2.893.355-.389 2.478-.776 2.879-.654 1.133.343.815 1.391 2.209-.144.95.656.113.904.284 1.704.251.052.488-.01.713-.186-.168 3.398 2.34.801 3.968 1.32.639.204.802.93 1.488 1.142.363.112.767-.153 1.12-.089.283-.04.564-.09.843-.149.354-.178.52.02.498.595.569.294.354.41 1.019.467.428.037.823-.408 1.309-.333.84.132.729.777 1.266 1.114.483.303 1.028.293 1.623.235.303-.03 1.154-.421 1.256-.422.636-.009.291-.144 1.054.402.594.426.844.701 1.573.897.836.225 2.32.715 2.883.111.76 1.139 1.355.303 2.359.378.513.039.594.239 1.051.319.741.129 1.665.017 2.453.27 1.241.399 1.381.599 2.65.653l.686-.268c.069.382.249.693.541.935.709.149 1.176-.21 1.761-.602.436 1.358 1.851 1.477 3.062 1.656 1.953.288 3.821.446 5.705 1.088a52.322 52.322 0 014.715 1.845c1.346.611 2.617 1.524 4.141 1.095 3.452-.972 6.798-4.516 9.686-6.55 3.421-2.41 7.11-4.396 10.685-6.563 14.231-8.626 29.265-15.923 43.296-24.869 7.66-4.885 14.768-10.689 22.994-14.64-1.171 4.839-3.164 9.752-2.804 14.818.145 2.042.746 4.454 2.33 5.879 1.957 1.763 4.138.641 6.01-.618 4.012-2.698 6.687-6.634 9.69-10.33 3.552-4.372 6.306-9.07 8.914-14.053.625.877.15 2.346.159 3.319.012 1.241.347 2.437.922 3.545 1.486 2.859 4.313 3.552 6.867 1.593 4.916-3.77 7.769-10.484 10.403-15.891 1.503 2.795 3.635 6.313 7.243 4.317 2.977-1.647 4.726-5.328 5.637-8.446 2.659-9.1 1.816-18.37 2.225-27.698zm-4.515-54.663c-.339-.825-.489-.69.136-1.489.486.479.097.875-.136 1.489zm15.046 49.912c-.955-2.714-.365-5.662-.945-8.446-.266-1.277-.686-2.516-.838-3.817-.067-.577-.581-3.174-.231-3.583-1.077-.652-1.08-1.135-1.329-2.414.383-.407.335-.754-.145-1.042-.314-.38-.628-.761-.943-1.14 1.374.671.561-1.048.421-2.039-.111-.783-.185-1.6-.446-2.35-.322-.923-1.036-1.389.45-1.389-.489-.557-1.22-1.131-1.464-1.812-.35-.98.228-2.276-.487-3.142-.398-.483-2.452-.672-2.092-1.715.183-.532 1.016-.135 1.273-.507 1.013-1.464-1.976-2.071-2.123-2.693-.19-.808.89-.988.956-1.743.065-.739-1.084-1.953-1.387-2.614-.414.101-.868.755-1.341.442-.09-.059.045-2.616-.062-2.956-.106-.334-.323-1.219-.4-1.383-.306-.651-1.183-.968-1.323-1.736-.083-.459 1.715-1.154-.347-1.176.741-1.305-.616-2.098-1.11-3.213-.635-1.434-1.009-2.983-1.661-4.424-.634-1.401-1.343-2.73-2.257-3.969-.827-1.122-1.185-2.2-1.846-3.385l-.397-.312c-.551.08-.728-.171-.531-.754-.422-.625-.735-1.291-1.107-1.944-.432-.758-1.016-1.377-1.462-2.114-.593-.978-.768-2.081-1.438-3.061-.823-1.207-1.749-2.271-2.513-3.523-.957-1.568-2.016-2.543-3.219-3.757-.573-.579-.642-2.024-1.344-2.845-.765-.894-1.519-1.137-2.049-2.311-.69-1.527-1.701-2.257-2.686-3.577-.813-1.089-1.209-2.341-2.104-3.395-.77-.905-1.644-1.731-2.465-2.589-1.037-1.084-1.803-2.401-2.883-3.431.156.149-.939-.719-.884-.692-.243-.123-1.025-.223-.911-.155-1.629-.958-3.671-4.464-6.123-2.606-1.29.977-.671 2.768.229 3.741.387.418 2.397 2.479 2.831 1.61.469.664 1.912 3.875 3.113 2.955-.123 1.098.513.733.933 1.475.276.49.141.73.343 1.494.553 2.1 2.666 4.152 3.791 5.983 2.801 4.558 5.89 8.882 8.693 13.445 2.672 4.35 5.663 8.477 8.226 12.885 2.915 5.012 6.547 9.743 8.743 15.147.074.181.684.469.836.742.264.474.207 1.293.377 1.83.589 1.861 1.545 3.693 2.633 5.234.955 1.353 1.024 3.191 1.681 4.777.926 2.236 1.905 4.449 2.805 6.696 1.401 3.498 2.35 6.85 3.319 10.502.627 2.367 1.126 4.732 1.326 7.176.184 2.247.229 4.588 1.06 6.716.568-.876 1.236-2.011.854-3.096z" fill="#000"/><path fill-rule="evenodd" clip-rule="evenodd" d="M82.053 254.944c-1.007-.203-1.954-.475-2.168-1.631l-.438 1.636 3.678.832c-.286-.504-.495-.72-1.072-.837zM84.754 65.23a7.03 7.03 0 01.297-.958c.083.304.489.961.252 1.248-.3.364-.605.158-.549-.29zm4.936-9.391c.33.145 1.045.174 1.455.297-1.064.915-1.251.646-2.627.54-.061-.927.315-1.214 1.172-.837zm-9.223 22.927l.429.011a12.46 12.46 0 00-.032-1.208c1.45.317.63-2.219.174-2.744 1.415.047 2.104-4.434 2.553-5.297.398-.767.849-1.063 1.14-1.998.254-.818.53-1.554.897-2.328.844-1.78 1.95-3.396 1.746-5.47.715 1.556 1.344.003 1.797-.741.731-1.199 2.514-2.729 2.703-4.153.168-1.253-.764-1.32-.214-2.482.556-1.177 1.013-1.059 1.987-1.435.647-.25.776.054 1.233-.764.296-.53.192-.924.571-1.358a.665.665 0 00.534.169c.308-.406.51-.859.606-1.358.251-.674.373-1.293.75-1.934.36-.608.996-2.235 1.333-2.528.358-.311 2.39-.153 2.381-.142.839-1.055-.701-2.106 1.431-1.884-.421-.784 1.058-1.757 1.488-2.193 1.072-1.089 1.157-1.593 1.384-2.962.114-.698-.636-.617.37-.776.416-.066.815.466 1.115.388 1.324-.344-.062-.278.304-.818.115-.172.705-.863.699-.855-.029.035.133-.602.266-.765.253-.022.503-.066.748-.133.124-.251.234-.509.33-.772.958-.8 2.393-1.158 3.056-2.036.428-.568.3-1.124.854-1.69.528-.54 1.226-.15 1.331-1.368.133-1.55-1.532-2.24-2.214-.675-1.847-2.275-9.567 6.072-10.459 7.162-3.874 4.734-7.682 9.585-10.86 14.82a86.321 86.321 0 00-7.624 16.094c-.958 2.712-1.54 5.413-2.126 8.218-.196.94-1.664 5.127-1.053 6.064l.372-.059zm304.948 116.091c.653-.435.653-.435.767-1.258-.875.159-.875.159-.767 1.258zM63.76 250.194a.021.021 0 01.019.006c-.014-.018-.064-.07-.02-.006zm-.437.441c.201.436.525.544.972.325.176.251-1.528-1.57-.972-.325z" fill="#000"/><path fill-rule="evenodd" clip-rule="evenodd" d="M92.775 51.748c-1.023 2.005.258.547.192 1.198.043-.428.22-1.037-.192-1.198zm166.148 31.011c.443 3.592 5.358 1.893 6.464-.28.805-1.582 2.838-7.834.651-9.155-1.622-.979-1.969 3.24-2.368 4.183-.67 1.58-1.194.46-2.683.865-1.644.447-2.247 2.897-2.064 4.387zm-5.37-6.576c1.757.39 3.479.19 4.727-1.198.691-.769 1.611-2.293.366-3.036-1.127-.674-2.406.903-3.594.577-1.615-.443-.783-2.175-1.337-3.319-2.036 1.172-3.172 6.308-.162 6.976zm1.822 9.072c-1.694-.004-1.708 2.08-.823 2.972.846.854 2.985 1.719 4.132 1.055 2.262-1.311-1.938-3.892-3.309-4.027zm-98.542 82.833c.361.175 1.427 1.079 1.876.671l-1.902-1.916c-.35.384-.59.945.026 1.245zm-8.003-91.386l-.541.403c.608.506.593.656 1.205.177a2.16 2.16 0 00-.664-.58zm114.783 119.202c-.34-.611-.983.516-1.418.7-.708.298-1.288-1.281-1.085.611-1.6-.732-2.571.948-3.602 1.823-1.457 1.237-3.24 1.907-4.212 3.663 4.576 1.071 9.603-2.874 13.015-5.465.557-.423 3.34-2.558 1.453-2.764-.771-.084-3.578 2.46-4.151 1.432zm-1.356-3.704c.897-.706-1.037-.77-1.343-.845l.079 1.685c.433-.263.854-.543 1.264-.84zm-3.367 2.355c.268-.167 1.015-.69.507-1.079-.46.292-.788.769-.86 1.314l.353-.235zm-74.106-45.531c-.573.225-.83.58-.77 1.067.881-.18.713-1.011.77-1.067z" fill="#000"/></svg>